<svg id="Layer_1" data-name="Layer 1" xmlns="http://www.w3.org/2000/svg" viewBox="0 0 1764.06 1266.07"><defs><style>.cls-1{fill:#f36f38;}.cls-2{fill:#fff;}</style></defs><title>activity_usr</title><rect class="cls-1" width="1764.06" height="1266.07"/><path class="cls-2" d="M1111.85,510.93c-1.59-2-10.22-8.06-19.28-13.38-12.23-7.19-17.11-10.93-18.7-14.24-1.44-3.16-2.16-10.5-2.45-24.17-.29-16.26,0-20.14,2-23.16,1.29-2,9.2-8.35,17.55-14s16.12-11.79,17.27-13.38c4.17-5.9,2.59-13.09-7.48-35-5.61-12.23-11.08-22-13.09-23.74-4.89-3.74-9.64-3.45-30.5,1.87-21.29,5.32-23.74,5-32.94-4.32-3.75-3.74-10.36-10.07-14.82-14.24-5-4.61-8.49-9.07-9.07-11.8s.58-11.65,2.88-23c3.32-16.69,3.46-19.13,1.73-23.45-1.15-2.59-2.88-5.47-4-6.33-3.75-3-45.33-17.84-49.78-17.84-6.62,0-10.94,4.46-21.15,22.3-5.91,10.07-10.65,16.68-13.24,18.27-3.32,1.87-8.78,2.45-25.32,2.88-25,.57-23,1.58-38.7-21.44-10.79-15.83-13-17.7-20.14-17.7-5,0-44.89,17.41-49.2,21.44-5.18,5-5.33,10.06-.15,29.78,3.17,11.79,4.61,20.29,4.18,23.16-.57,3.31-4.61,8.77-13.24,18-6.78,7.34-13.69,14.1-15.41,15.11-4.32,2.45-11.08,2.3-27.91-1-8.06-1.58-16.69-2.88-19-2.88-7.77,0-11.95,5.91-20.72,29.64-4.46,11.79-8.06,23.31-8.06,25.32,0,5.9,6,11.65,21.29,20.28,21.15,12.09,20.86,11.66,22,36,.72,16.26.57,21.29-1.16,24.89-1.29,3-7.34,8.2-19.13,16.26-17.27,11.79-19.28,14.24-19,22.44.29,5,17.4,43,21.58,47.77,4.89,5.47,9.64,5.61,28.49.72,26.61-6.9,24.74-7.48,46.32,13.53,13,12.51,13.24,13.09,13.24,19.56,0,3.6-1.29,12.95-2.88,20.57S791,651.49,791,653.79c0,7.91,6,12.23,29.2,20.72,11.8,4.32,22.88,7.91,24.89,7.91,7.63,0,11.51-3.88,20.43-19.71,12.81-22.88,12.23-22.59,36-23.6,14.1-.57,21-.43,24.17.87,4.75,2,9.06,7,20.57,24.17,8.63,13,14.24,16.4,22.15,14.1,5.18-1.44,39-16.84,43.6-19.86a16.88,16.88,0,0,0,5-6.47c1.58-4,1.29-6.48-2.74-22-4.88-18.7-5.47-25-3.16-29.63a86.7,86.7,0,0,1,9.78-10.93c4.46-4.61,10.65-11.09,13.67-14.39,7.34-8.2,11.08-8.63,33.38-4.17,16,3.17,18.7,3.46,22.73,1.73,2.59-1,5.47-2.88,6.33-4,3.16-3.74,17.7-44.17,17.7-49.2A15.37,15.37,0,0,0,1111.85,510.93Zm-123-27.77c-5.76,32.66-29.36,59.42-62.44,70.78-9.36,3.31-13.38,3.89-27.48,3.89s-18.13-.58-28.06-4C842,543.87,821.53,523.44,812,495.38c-7.48-22.73-5.9-46.33,4.61-68.34,22.73-46.9,78.26-65.32,124.73-41.29,15.11,7.77,31.65,24.9,39.42,40.58C990.13,445.32,992.58,462.3,988.85,483.16Z"/><path class="cls-2" d="M748.72,674.8c-1.15-1.15-5-2.88-8.63-3.89-7.91-2.15-9.64-4-12-12.8-2.59-9.93-2.44-10.94,4.61-18.85,3.6-4,6.48-7.77,6.48-8.49,0-2-11.66-17.4-14.25-18.7-1.87-1.15-4.89-.29-11.51,2.73l-8.92,4.32-7.91-4.61c-8.92-4.89-10.65-8.06-10.65-18.27,0-3.88-.86-7.63-1.72-8.49-2.73-2.16-21.44-4.75-23.89-3.31-1.29.72-3.59,5-5.17,9.64-3.46,9.49-6.33,11.65-17.7,12.95-6.62.86-7.2.57-12.66-5-3.6-3.89-6.91-5.9-9.36-5.9-4.45,0-20.13,11.95-20.13,15.54,0,1.3,1.58,5,3.59,8.2,4.46,7.34,4.46,10.94-.29,18.42-5.47,8.63-7.2,9.64-16.4,9.64-5.32,0-8.78.72-9.93,2-.86,1.15-2.3,6.75-3.16,12.36-1.3,9.07-1.3,10.51,1,13,1.44,1.58,3.46,2.88,4.46,2.88a31.05,31.05,0,0,1,7.77,2.3c4.61,1.86,6,3.31,7.2,7.62,3.74,13.82,3.74,13.82-3.46,21.44-3.59,3.88-6.61,7.91-6.61,8.92,0,2.74,11.94,18.56,14.67,19.42,1.3.44,5.61-.86,9.64-2.88,9.36-4.6,10.93-4.6,19.57,1.16,7.62,4.89,8.92,7.77,9.2,18.56.14,8.2,1.44,9.06,15.54,10.5,9.79.86,10.36.86,12.37-2.45,1.29-1.73,3-6.18,4-9.64,2-6.61,3-7.34,14.53-10.21L686,741l7.77,6.77c4.31,3.59,8.77,6.61,9.78,6.61,2.88,0,17.41-11.07,18.84-14.24.87-1.87.15-4.89-2.44-9.93-4.75-9.49-4.75-11.08,1-19.71l4.61-7.2,9.64-.72c5.32-.43,10.21-1.29,11.08-2.16,1.15-1.29,4.45-17,4.45-21.86A6.72,6.72,0,0,0,748.72,674.8Zm-56,17.41c-8.06,16.4-28.06,24.31-45.76,18.27-8.92-3-15.68-9.07-20.71-18.13-3.46-6.34-4.18-9.5-4.18-17.13.15-5.18,1.15-11.65,2.3-14.53,5.75-13.38,20-22.88,34.1-22.88,11.36,0,18.42,2.73,26.33,10.07C697.51,659.4,700.53,676.81,692.76,692.21Z"/><path class="cls-2" d="M682.41,456c-1.16-1.15-5.91-2.88-10.51-3.74-4.45-.86-9.92-1.87-12.08-2.3-4.89-1-6.62-3.16-11.51-14.67-5.47-12.95-5.18-16,2.3-26.19,7.19-9.77,8.77-13.38,7-16.4-.57-1.15-5.75-6.9-11.36-12.95-7.48-7.91-11.22-10.93-13.81-10.93-2,0-8.35,3.31-14.25,7.2-11.94,8.2-12.66,8.2-26.33,2.45-11.79-5-13.38-7.2-15.25-19.72-2.73-17.26-2.73-17.26-22.87-17.26s-20.58.14-23.16,15.83c-1,5.9-2.59,12.08-3.6,13.67-1.86,3-20.71,11.08-25.89,11.22-1.73,0-8.06-3.45-14-7.63-7.63-5.32-11.65-7.2-13.67-6.62-1.58.58-7.77,5.62-13.81,11.37C446.17,392,445.88,394,454.94,406.92c3.45,5,6.76,10.36,7.34,12.09,1,3.16-6.62,22.15-10.65,26.33-1.3,1.44-6.62,3.16-13.09,4.17-17.27,2.74-17.27,2.59-17.27,22.59,0,9.21.58,17.56,1.16,18.56,1.58,2.45,7.19,4.32,16.69,5.47,5.32.72,9.49,2.16,11.65,4.18,3.75,3.16,10.79,19.56,10.79,24.45,0,1.73-3.16,7.63-7.19,13.09s-7.2,11.51-7.2,13.52c0,5,21,26,26,26,2,0,7.77-2.88,12.81-6.47S496.38,564,498,563.6s7.48,1.29,14.68,4.46c13.52,6,14,6.61,16.54,23.45,2.3,13.81,3.46,14.67,22.73,14.67,18.7,0,20.57-1.29,23.17-17.55,1-5.9,2.45-11.8,3.45-13.09,1.87-2.45,21.87-11.08,25.61-11.08,1.29,0,6.9,3.31,12.52,7.19,14.09,9.93,15.53,9.64,29.35-4,7.48-7.48,11.22-12.38,11.22-14.54,0-1.87-3.16-7.91-7.2-13.52-3.88-5.61-7.19-11.22-7.19-12.38,0-4.17,9.35-24.88,11.94-26.18,1.44-.86,7.91-2.45,14.39-3.45,7.62-1.44,12.37-3,13.66-4.61C685.57,489.2,685.28,458.85,682.41,456Zm-75.68,28.2c-3.75,17.41-14.82,31.22-31.22,39-8.49,4-11.08,4.61-21.87,4.46-9.06,0-14.38-.86-20.57-3.31-10.94-4.32-23.59-16-29.06-27-4-7.63-4.32-9.63-4.32-23.45,0-13.38.43-16,3.88-23.31,4.89-10.64,16.12-21.86,26.77-26.76,7.19-3.45,9.92-3.88,22.58-3.88s15.4.43,22.59,3.88A55,55,0,0,1,606,459.42C608.6,469.21,608.74,474.39,606.73,484.17Z"/><path class="cls-2" d="M956.06,821.77H610a2.24,2.24,0,0,0-1.22,4.11L739,911.17a2.22,2.22,0,0,1,1,1.86v77.65a2.23,2.23,0,0,0,2.23,2.23h81.64a2.23,2.23,0,0,0,2.23-2.23V913a2.22,2.22,0,0,1,1-1.86l130.2-85.29A2.24,2.24,0,0,0,956.06,821.77Z"/><path class="cls-2" d="M1176.34,682.37a166.41,166.41,0,1,0,.09,0Zm63.22,156.29a23.56,23.56,0,1,0,0,.05Zm-95.29-69a32.77,32.77,0,1,1-32.76,32.79v0a32.76,32.76,0,0,1,32.74-32.71ZM1215.63,928H1072.87a71.39,71.39,0,0,1,137.24-27.48A40.25,40.25,0,0,1,1279.86,928Z"/></svg>