<?xml version="1.0" encoding="utf-8"?>
<!-- Generator: Adobe Illustrator 23.0.0, SVG Export Plug-In . SVG Version: 6.00 Build 0)  -->
<svg version="1.1" id="Layer_1" xmlns="http://www.w3.org/2000/svg" xmlns:xlink="http://www.w3.org/1999/xlink" x="0px" y="0px"
	 viewBox="0 0 1764.1 1266.1" style="enable-background:new 0 0 1764.1 1266.1;" xml:space="preserve">
<style type="text/css">
	.st0{fill:#F36F38;}
	.st1{fill:#FFFFFF;}
	.st2{fill:none;}
</style>
<title>activity_usr</title>
<rect class="st0" width="1764.1" height="1266.1"/>
<path class="st1" d="M1111.8,510.9c-1.6-2-10.2-8.1-19.3-13.4c-12.2-7.2-17.1-10.9-18.7-14.2c-1.4-3.2-2.2-10.5-2.4-24.2
	c-0.3-16.3,0-20.1,2-23.2c1.3-2,9.2-8.4,17.6-14s16.1-11.8,17.3-13.4c4.2-5.9,2.6-13.1-7.5-35c-5.6-12.2-11.1-22-13.1-23.7
	c-4.9-3.7-9.6-3.5-30.5,1.9c-21.3,5.3-23.7,5-32.9-4.3c-3.8-3.7-10.4-10.1-14.8-14.2c-5-4.6-8.5-9.1-9.1-11.8s0.6-11.6,2.9-23
	c3.3-16.7,3.5-19.1,1.7-23.5c-1.2-2.6-2.9-5.5-4-6.3c-3.8-3-45.3-17.8-49.8-17.8c-6.6,0-10.9,4.5-21.2,22.3
	c-5.9,10.1-10.7,16.7-13.2,18.3c-3.3,1.9-8.8,2.5-25.3,2.9c-25,0.6-23,1.6-38.7-21.4c-10.8-15.8-13-17.7-20.1-17.7
	c-5,0-44.9,17.4-49.2,21.4c-5.2,5-5.3,10.1-0.2,29.8c3.2,11.8,4.6,20.3,4.2,23.2c-0.6,3.3-4.6,8.8-13.2,18
	c-6.8,7.3-13.7,14.1-15.4,15.1c-4.3,2.5-11.1,2.3-27.9-1c-8.1-1.6-16.7-2.9-19-2.9c-7.8,0-12,5.9-20.7,29.6
	c-4.5,11.8-8.1,23.3-8.1,25.3c0,5.9,6,11.6,21.3,20.3c21.2,12.1,20.9,11.7,22,36c0.7,16.3,0.6,21.3-1.2,24.9
	c-1.3,3-7.3,8.2-19.1,16.3c-17.3,11.8-19.3,14.2-19,22.4c0.3,5,17.4,43,21.6,47.8c4.9,5.5,9.6,5.6,28.5,0.7
	c26.6-6.9,24.7-7.5,46.3,13.5c13,12.5,13.2,13.1,13.2,19.6c0,3.6-1.3,13-2.9,20.6s-2.9,15.8-2.9,18.1c0,7.9,6,12.2,29.2,20.7
	c11.8,4.3,22.9,7.9,24.9,7.9c7.6,0,11.5-3.9,20.4-19.7c12.8-22.9,12.2-22.6,36-23.6c14.1-0.6,21-0.4,24.2,0.9c4.8,2,9.1,7,20.6,24.2
	c8.6,13,14.2,16.4,22.2,14.1c5.2-1.4,39-16.8,43.6-19.9c2.2-1.7,3.9-3.9,5-6.5c1.6-4,1.3-6.5-2.7-22c-4.9-18.7-5.5-25-3.2-29.6
	c2.9-3.9,6.2-7.6,9.8-10.9c4.5-4.6,10.6-11.1,13.7-14.4c7.3-8.2,11.1-8.6,33.4-4.2c16,3.2,18.7,3.5,22.7,1.7c2.6-1,5.5-2.9,6.3-4
	c3.2-3.7,17.7-44.2,17.7-49.2C1114.6,516.3,1113.6,513.4,1111.8,510.9z M988.8,483.2c-5.8,32.7-29.4,59.4-62.4,70.8
	c-9.4,3.3-13.4,3.9-27.5,3.9s-18.1-0.6-28.1-4c-28.9-10-49.3-30.4-58.9-58.5c-7.5-22.7-5.9-46.3,4.6-68.3
	c22.7-46.9,78.3-65.3,124.7-41.3c15.1,7.8,31.7,24.9,39.4,40.6C990.1,445.3,992.6,462.3,988.8,483.2z"/>
<path class="st1" d="M748.7,674.8c-1.2-1.2-5-2.9-8.6-3.9c-7.9-2.2-9.6-4-12-12.8c-2.6-9.9-2.4-10.9,4.6-18.8c3.6-4,6.5-7.8,6.5-8.5
	c0-2-11.7-17.4-14.3-18.7c-1.9-1.2-4.9-0.3-11.5,2.7l-8.9,4.3l-7.9-4.6c-8.9-4.9-10.7-8.1-10.7-18.3c0-3.9-0.9-7.6-1.7-8.5
	c-2.7-2.2-21.4-4.8-23.9-3.3c-1.3,0.7-3.6,5-5.2,9.6c-3.5,9.5-6.3,11.7-17.7,13c-6.6,0.9-7.2,0.6-12.7-5c-3.6-3.9-6.9-5.9-9.4-5.9
	c-4.5,0-20.1,12-20.1,15.5c0,1.3,1.6,5,3.6,8.2c4.5,7.3,4.5,10.9-0.3,18.4c-5.5,8.6-7.2,9.6-16.4,9.6c-5.3,0-8.8,0.7-9.9,2
	c-0.9,1.2-2.3,6.8-3.2,12.4c-1.3,9.1-1.3,10.5,1,13c1.4,1.6,3.5,2.9,4.5,2.9c2.7,0.4,5.3,1.2,7.8,2.3c4.6,1.9,6,3.3,7.2,7.6
	c3.7,13.8,3.7,13.8-3.5,21.4c-3.6,3.9-6.6,7.9-6.6,8.9c0,2.7,11.9,18.6,14.7,19.4c1.3,0.4,5.6-0.9,9.6-2.9
	c9.4-4.6,10.9-4.6,19.6,1.2c7.6,4.9,8.9,7.8,9.2,18.6c0.1,8.2,1.4,9.1,15.5,10.5c9.8,0.9,10.4,0.9,12.4-2.5c1.3-1.7,3-6.2,4-9.6
	c2-6.6,3-7.3,14.5-10.2l7-1.9l7.8,6.8c4.3,3.6,8.8,6.6,9.8,6.6c2.9,0,17.4-11.1,18.8-14.2c0.9-1.9,0.2-4.9-2.4-9.9
	c-4.8-9.5-4.8-11.1,1-19.7l4.6-7.2l9.6-0.7c5.3-0.4,10.2-1.3,11.1-2.2c1.2-1.3,4.5-17,4.5-21.9C750.5,677.1,749.8,675.8,748.7,674.8
	z M692.7,692.2c-8.1,16.4-28.1,24.3-45.8,18.3c-8.9-3-15.7-9.1-20.7-18.1c-3.5-6.3-4.2-9.5-4.2-17.1c0.2-5.2,1.2-11.7,2.3-14.5
	c5.8-13.4,20-22.9,34.1-22.9c11.4,0,18.4,2.7,26.3,10.1C697.5,659.4,700.5,676.8,692.7,692.2L692.7,692.2z"/>
<path class="st1" d="M682.4,456c-1.2-1.1-5.9-2.9-10.5-3.7c-4.5-0.9-9.9-1.9-12.1-2.3c-4.9-1-6.6-3.2-11.5-14.7
	c-5.5-13-5.2-16,2.3-26.2c7.2-9.8,8.8-13.4,7-16.4c-0.6-1.1-5.8-6.9-11.4-13c-7.5-7.9-11.2-10.9-13.8-10.9c-2,0-8.3,3.3-14.3,7.2
	c-11.9,8.2-12.7,8.2-26.3,2.5c-11.8-5-13.4-7.2-15.3-19.7c-2.7-17.3-2.7-17.3-22.9-17.3s-20.6,0.1-23.2,15.8
	c-1,5.9-2.6,12.1-3.6,13.7c-1.9,3-20.7,11.1-25.9,11.2c-1.7,0-8.1-3.5-14-7.6c-7.6-5.3-11.6-7.2-13.7-6.6
	c-1.6,0.6-7.8,5.6-13.8,11.4c-13.4,12.7-13.7,14.7-4.7,27.6c3.5,5,6.8,10.4,7.3,12.1c1,3.2-6.6,22.1-10.6,26.3
	c-1.3,1.4-6.6,3.2-13.1,4.2c-17.3,2.7-17.3,2.6-17.3,22.6c0,9.2,0.6,17.6,1.2,18.6c1.6,2.5,7.2,4.3,16.7,5.5
	c5.3,0.7,9.5,2.2,11.6,4.2c3.8,3.2,10.8,19.6,10.8,24.5c0,1.7-3.2,7.6-7.2,13.1s-7.2,11.5-7.2,13.5c0,5,21,26,26,26
	c2,0,7.8-2.9,12.8-6.5s10.4-6.9,12-7.3s7.5,1.3,14.7,4.5c13.5,6,14,6.6,16.5,23.5c2.3,13.8,3.5,14.7,22.7,14.7
	c18.7,0,20.6-1.3,23.2-17.5c1-5.9,2.5-11.8,3.5-13.1c1.9-2.5,21.9-11.1,25.6-11.1c1.3,0,6.9,3.3,12.5,7.2c14.1,9.9,15.5,9.6,29.3-4
	c7.5-7.5,11.2-12.4,11.2-14.5c0-1.9-3.2-7.9-7.2-13.5c-3.9-5.6-7.2-11.2-7.2-12.4c0-4.2,9.3-24.9,11.9-26.2
	c1.4-0.9,7.9-2.5,14.4-3.5c7.6-1.4,12.4-3,13.7-4.6C685.6,489.2,685.3,458.9,682.4,456z M606.7,484.2c-3.8,17.4-14.8,31.2-31.2,39
	c-8.5,4-11.1,4.6-21.9,4.5c-9.1,0-14.4-0.9-20.6-3.3c-10.9-4.3-23.6-16-29.1-27c-4-7.6-4.3-9.6-4.3-23.5c0-13.4,0.4-16,3.9-23.3
	c4.9-10.6,16.1-21.9,26.8-26.8c7.2-3.5,9.9-3.9,22.6-3.9s15.4,0.4,22.6,3.9c15,6.7,26.1,19.8,30.5,35.6
	C608.6,469.2,608.7,474.4,606.7,484.2L606.7,484.2z"/>
<path class="st1" d="M956.1,821.8H610c-1.2,0-2.2,1-2.2,2.3c0,0.7,0.4,1.4,1,1.9L739,911.2c0.6,0.4,1,1.1,1,1.9v77.7
	c0,1.2,1,2.2,2.2,2.2h81.6c1.2,0,2.2-1,2.2-2.2V913c0-0.7,0.4-1.4,1-1.9l130.2-85.3c1-0.7,1.3-2.1,0.6-3.1
	C957.5,822.1,956.8,821.8,956.1,821.8z"/>
<g>
	<path class="st2" d="M1267,898.4c-16.3-15.1-41.8-14.2-56.9,2.1c-11.1-26.5-37-43.8-65.8-43.8c-39.4-0.1-71.4,31.9-71.5,71.3h142.8
		h64.2C1279.9,916.8,1275.2,906,1267,898.4z"/>
	<path class="st2" d="M1144.3,835.2c18.1,0,32.8-14.7,32.8-32.8c0-18.1-14.7-32.8-32.8-32.8l0,0.1c-18.1,0-32.7,14.6-32.7,32.7
		C1111.5,820.5,1126.2,835.2,1144.3,835.2z"/>
	<path class="st1" d="M1176.4,682.4L1176.4,682.4c-92,0-166.5,74.5-166.5,166.5s74.5,166.4,166.5,166.4s166.4-74.5,166.4-166.5
		C1342.8,756.9,1268.3,682.4,1176.4,682.4z M1216,815.1c13,0,23.6,10.5,23.6,23.5v0c0,13-10.5,23.5-23.5,23.5
		c-13,0-23.6-10.5-23.6-23.5S1203,815.1,1216,815.1z M1144.2,769.7L1144.2,769.7c18.1-0.1,32.8,14.6,32.8,32.7
		c0,18.1-14.7,32.8-32.8,32.8c-18.1,0-32.8-14.7-32.8-32.8C1111.5,784.4,1126.2,769.8,1144.2,769.7z M1215.6,928h-142.8
		c0.1-39.4,32.1-71.3,71.5-71.3c28.7,0,54.7,17.3,65.8,43.8c15.1-16.3,40.6-17.2,56.9-2.1c8.2,7.6,12.9,18.4,12.9,29.6H1215.6z"/>
</g>
</svg>
