<svg id="Layer_1" data-name="Layer 1" xmlns="http://www.w3.org/2000/svg" viewBox="0 0 1764.06 1266.07"><defs><style>.cls-1{fill:#f36f38;}.cls-2{fill:#fff;}.cls-3{fill:none;stroke:#fff;stroke-linecap:round;stroke-miterlimit:10;stroke-width:15px;}</style></defs><title>ccstandards</title><rect class="cls-1" width="1764.06" height="1266.07"/><path class="cls-1" d="M1051.66,281.28l16.87,13c-10.13,14.82-23.14,24.24-43.41,20.88a42.76,42.76,0,0,0,7.69,7.83c4,3.26,5.92,11.73,3.74,17-2.07,5-6.68,3.92-10.69,4-6.1.13-12.25-.36-18.29.27-2.41.25-6,2.36-6.63,4.35-4.29,13.2-1.43,20.83,10,29.14,6.94,5.05,15.42,3.59,19.87-3.37,3-4.68,5.7-9.62,9.29-13.83,2-2.33,5.45-4.48,8.44-4.77,4.91-.47,6.7-2.1,7.28-6.88.27-2.17,3.61-5.78,5.36-5.68,9,.56,19,0,26.71,3.74,16.5,8,31.79,18.3,47.58,27.67l5.2,10.2c-5.2.36-6.79,4-7.85,8.15-.42,1.65-1.2,3.21-1.61,4.85-1.38,5.69-4.84,6.92-10.29,5.11-7.85-2.6-15.83-4.81-23.72-7.32-12.19-3.89-12.16-3.94-10.19-16.62a38.44,38.44,0,0,0,0-4.35c-8.86,0-17.52.4-26.12-.12-7.52-.46-13.93,1.42-19,6.59-7.56,7.69-16.84,10.92-27.47,11.27a25.51,25.51,0,0,0-3.91.38c-7,1.37-14.27,8.13-13.86,14,.48,6.82-3.12,9.9-8.34,13.6-10.45,7.4-18,17.56-19.14,30.43-1,11.61-.39,23.37-.09,35.06.07,2.75.93,6.2,2.77,8.08,11.17,11.38,19.22,24.56,25.6,38.92,1,2.2,4.23,4.68,6.6,4.85,12.22.89,23.86.7,34.46-7.91,11.18-9.08,19.38-6.79,26.58,5.47,2.67,4.56,5.82,6.78,11.42,6.65,9.29-.22,10.15,1.14,10.47,10.43.18,5.24-.69,11.64,2,15.44,6,8.49,6.11,17.42,5.79,26.77-.46,13.52,1.46,27.15-3,40.51-.93,2.79,1,6.94,2.62,10,5.59,10.79,11.59,21.37,17.43,32-43.62,55.74-100.84,90.64-171,105.72-59.38,12.77-116.75,5.86-172.51-16.75L767,765.1l-.07.08a61.5,61.5,0,0,1,4.61-6.2c18.07-19,36.08-38.06,54.44-56.8,4.54-4.63,7.44-9.3,6.67-15.77-.54-4.51,1.35-7.6,5.35-10,6.51-3.9,12.54-8.59,19.18-12.21s9.77-9,11.05-16.17c1.46-8.25,1.51-17.23,8.06-23.79,10-10.08,12.7-22.09,11.59-35.68-.43-5.38-2.28-8.07-7.47-9.47-9.88-2.67-19.49-6.72-29.52-8.37-16.38-2.71-26.49-11.72-32.5-26.1a12.39,12.39,0,0,1-.58-1.15c-2.1-6.93-7.22-10.35-14.23-11.29-14.25-1.9-23.89-10.28-32.22-20.89-2-2.58-5-5.68-8-6.1-14.39-2.07-28.83-4.28-43,2.26-7,3.26-13.77,7.49-22.84,4.08-18.31-6.87-15.58-2.83-15.6-20.86,0-6.18-2.19-8.63-8.66-9.06-15.64-1-15.86-1.71-11.42-16,.46-1.46.21-4-.78-4.83-2.88-2.28-13.45-.49-15.57,2.59-3.77,5.46-8.68,5.44-13.7,2.7-4.15-2.28-7.85-5.37-11.56-8.33a5.74,5.74,0,0,1-2-3.77c-.37-7.17-.51-14.35-.62-21.53-.17-11.78,6.12-16.7,18.18-15.29,4.51.53,9.27-.68,13.88-1.33,6.12-.85,12.21-1.92,18.3-2.93,8.92-1.47,10.56,5.79,13.93,11,1.28,2,2.18,4.27,3.79,5.93,1.43,1.46,3.6,2.22,5.45,3.29,1.19-2,2.79-3.95,3.44-6.14.43-1.46-.27-3.37-.82-5-4.54-13.25-1.95-23.83,10-32.86,6.82-5.15,12.94-12.21,11.06-22.34-.25-1.33.9-3.79,2.08-4.32,6.17-2.79,5.7-8,5.54-13.09-.13-4.3.62-8.17,5.25-10,3.23-1.27,6.5-2.73,9.89-3.28,2.29-.37,5.91-.17,7.09,1.24,5.29,6.37,12.54,6.5,19.15,5,4.51-1,8.2-5.47,12.26-8.38-2.31-2.59-4.22-5.73-7-7.6-2.5-1.67-6-1.95-9.05-2.78-3.61-1-7.25-1.87-10.87-2.81l.42-2.93a89.89,89.89,0,0,0,9.88-.68c3.75-.66,8.67-.74,10.85-3.06,6.17-6.57,13.55-9.64,22.24-10.81,1.6-.22,3.1-1.18,4.77-1.84-2.6-9.9-7.1-17.72-16.55-22.12-12.28-5.73-13.12-17.3-15-28.3l37.86-13c4.59,4.1,9.66,7.8,13.65,12.39,5.34,6.15,10.81,10.65,19.89,9.53,5.11-.62,7.86-1.78,6.51-7.41-.34-1.45,0-3.86,1.07-4.69,9.13-7.43,13.69-20.83,28.45-21,48.43-.71,94.43,9.05,137.78,30.23a59.36,59.36,0,0,0,1.56,6.8c4.3,12.34,11.27,24.31,4.62,38-.32.67,2.13,3.73,3.47,3.86a163.3,163.3,0,0,0,22.1.86c1.7-.07,4.1-3.29,4.7-5.45C1049.22,294.59,1050.3,287.9,1051.66,281.28Z"/><path class="cls-2" d="M765.76,251c1.92,11,2.76,22.57,15,28.3,9.45,4.4,14,12.22,16.55,22.12-1.67.66-3.17,1.62-4.77,1.84-8.69,1.17-16.07,4.24-22.24,10.81-2.18,2.32-7.1,2.4-10.85,3.06a89.89,89.89,0,0,1-9.88.68l-.42,2.93c3.62.94,7.26,1.84,10.87,2.81,3.07.83,6.55,1.11,9.05,2.78,2.81,1.87,4.72,5,7,7.6-4.06,2.91-7.75,7.33-12.26,8.38-6.61,1.53-13.86,1.4-19.15-5-1.18-1.41-4.8-1.61-7.09-1.24-3.39.55-6.66,2-9.89,3.28-4.63,1.83-5.38,5.7-5.25,10,.16,5.13.63,10.3-5.54,13.09-1.18.53-2.33,3-2.08,4.32,1.88,10.13-4.24,17.19-11.06,22.34-12,9-14.55,19.61-10,32.86.55,1.6,1.25,3.51.82,5-.65,2.19-2.25,4.1-3.44,6.14-1.85-1.07-4-1.83-5.45-3.29-1.61-1.66-2.51-4-3.79-5.93-3.37-5.19-5-12.45-13.93-11-6.09,1-12.18,2.08-18.3,2.93-4.61.65-9.37,1.86-13.88,1.33-12.06-1.41-18.35,3.51-18.18,15.29.11,7.18.25,14.36.62,21.53a5.74,5.74,0,0,0,2,3.77c3.71,3,7.41,6,11.56,8.33,5,2.74,9.93,2.76,13.7-2.7,2.12-3.08,12.69-4.87,15.57-2.59,1,.78,1.24,3.37.78,4.83-4.44,14.31-4.22,15,11.42,16,6.47.43,8.65,2.88,8.66,9.06,0,18-2.71,14,15.6,20.86,9.07,3.41,15.8-.82,22.84-4.08,14.12-6.54,28.56-4.33,43-2.26,2.93.42,5.94,3.52,8,6.1,8.33,10.61,18,19,32.22,20.89,7,.94,12.13,4.36,14.23,11.29a12.39,12.39,0,0,0,.58,1.15c6,14.38,16.12,23.39,32.5,26.1,10,1.65,19.64,5.7,29.52,8.37,5.19,1.4,7,4.09,7.47,9.47,1.11,13.59-1.55,25.6-11.59,35.68-6.55,6.56-6.6,15.54-8.06,23.79-1.28,7.22-4.3,12.49-11.05,16.17s-12.67,8.31-19.18,12.21c-4,2.4-5.89,5.49-5.35,10,.77,6.47-2.13,11.14-6.67,15.77-18.36,18.74-36.37,37.8-54.44,56.8a61.5,61.5,0,0,0-4.61,6.2l-40.32-20.69c.48-4.39,1-8.79,1.44-13.19,2.49-24.24,5.13-48.48,7.23-72.76.24-2.73-1.9-6.47-4.14-8.43-5.17-4.52-11.48-7.82-16.55-12.42A37.72,37.72,0,0,1,706.32,626c-2.73-5.74-3.44-12.54-6.77-17.84-7.82-12.44-11.86-25.51-9.65-39.94.69-4.54,2.26-9.91,5.41-12.93,5.82-5.58,8.64-11.4,7.59-19.2a15.65,15.65,0,0,1,.34-5.7c1.38-5.6-1.77-8.7-6.64-8.68-11,0-19.31-6.18-28.39-10.52-2.17-1-4.52-4.52-4.4-6.76.34-6.65-2.36-10.8-8.15-13.88a46.73,46.73,0,0,1-10.08-7c-4-3.76-8.56-4.67-13.78-4.34-7.82.48-15.64,1.08-23.47,1.16-4,.05-8-.91-11.84-1.4-1,3.57-1.76,6.39-2.54,9.21,1.85-34.78,11-67.84,26.16-99.2,29.48-60.8,75.63-105.72,137.77-135C760.4,252.73,763.13,252,765.76,251Z"/><path class="cls-2" d="M1111.83,677.05c-5.84-10.67-11.84-21.25-17.43-32-1.58-3.06-3.55-7.21-2.62-10,4.44-13.36,2.52-27,3-40.51.32-9.35.23-18.28-5.79-26.77-2.69-3.8-1.82-10.2-2-15.44-.32-9.29-1.18-10.65-10.47-10.43-5.6.13-8.75-2.09-11.42-6.65-7.2-12.26-15.4-14.55-26.58-5.47-10.6,8.61-22.24,8.8-34.46,7.91-2.37-.17-5.63-2.65-6.6-4.85-6.38-14.36-14.43-27.54-25.6-38.92-1.84-1.88-2.7-5.33-2.77-8.08-.3-11.69-.92-23.45.09-35.06,1.11-12.87,8.69-23,19.14-30.43,5.22-3.7,8.82-6.78,8.34-13.6-.41-5.87,6.86-12.63,13.86-14a25.51,25.51,0,0,1,3.91-.38c10.63-.35,19.91-3.58,27.47-11.27,5.09-5.17,11.5-7.05,19-6.59,8.6.52,17.26.12,26.12.12a38.44,38.44,0,0,1,0,4.35c-2,12.68-2,12.73,10.19,16.62,7.89,2.51,15.87,4.72,23.72,7.32,5.45,1.81,8.91.58,10.29-5.11.41-1.64,1.19-3.2,1.61-4.85,1.06-4.17,2.65-7.79,7.85-8.15,10.92,18.38,17,38.48,22.2,58.91,6.56,25.91,9.68,52.28,7.77,78.86-4,55.64-22,106.6-56,151.84A25.06,25.06,0,0,1,1111.83,677.05Z"/><path class="cls-1" d="M594,488.18c.78-2.82,1.56-5.64,2.54-9.21,3.86.49,7.86,1.45,11.84,1.4,7.83-.08,15.65-.68,23.47-1.16,5.22-.33,9.77.58,13.78,4.34a46.73,46.73,0,0,0,10.08,7c5.79,3.08,8.49,7.23,8.15,13.88-.12,2.24,2.23,5.72,4.4,6.76,9.08,4.34,17.39,10.57,28.39,10.52,4.87,0,8,3.08,6.64,8.68a15.65,15.65,0,0,0-.34,5.7c1.05,7.8-1.77,13.62-7.59,19.2-3.15,3-4.72,8.39-5.41,12.93-2.21,14.43,1.83,27.5,9.65,39.94,3.33,5.3,4,12.1,6.77,17.84a37.72,37.72,0,0,0,8.24,11.65c5.07,4.6,11.38,7.9,16.55,12.42,2.24,2,4.38,5.7,4.14,8.43-2.1,24.28-4.74,48.52-7.23,72.76-.45,4.4-1,8.8-1.44,13.19l-.1,0-1.33-1.09c-29.34-17.67-53.9-40.44-74.36-67.31-40.47-53.13-59-113.1-57.86-179A88.09,88.09,0,0,1,594,488.18Z"/><path class="cls-2" d="M1135.46,374.57c-15.79-9.37-31.08-19.7-47.58-27.67-7.69-3.72-17.7-3.18-26.71-3.74-1.75-.1-5.09,3.51-5.36,5.68-.58,4.78-2.37,6.41-7.28,6.88-3,.29-6.44,2.44-8.44,4.77-3.59,4.21-6.29,9.15-9.29,13.83-4.45,7-12.93,8.42-19.87,3.37-11.42-8.31-14.28-15.94-10-29.14.65-2,4.22-4.1,6.63-4.35,6-.63,12.19-.14,18.29-.27,4-.08,8.62,1,10.69-4,2.18-5.26.23-13.73-3.74-17a42.76,42.76,0,0,1-7.69-7.83c20.27,3.36,33.28-6.06,43.41-20.88,17.38,12.45,31.43,28.14,44.07,44.89C1121.06,350.33,1127.9,362.71,1135.46,374.57Z"/><path class="cls-2" d="M1051.66,281.28c-1.36,6.62-2.44,13.31-4.24,19.81-.6,2.16-3,5.38-4.7,5.45a163.3,163.3,0,0,1-22.1-.86c-1.34-.13-3.79-3.19-3.47-3.86,6.65-13.69-.32-25.66-4.62-38A59.36,59.36,0,0,1,1011,257Z"/><path class="cls-2" d="M873.19,226.79c-14.76.15-19.32,13.55-28.45,21-1,.83-1.41,3.24-1.07,4.69,1.35,5.63-1.4,6.79-6.51,7.41-9.08,1.12-14.55-3.38-19.89-9.53-4-4.59-9.06-8.29-13.65-12.39,16.28-3.29,32.52-6.85,48.88-9.75C859.26,227,866.29,227.22,873.19,226.79Z"/><path class="cls-2" d="M725.15,743.35l1.33,1.09Z"/><path class="cls-2" d="M767,765.1l1.35.92Z"/><path class="cls-2" d="M967.92,887.92H796.14a37.55,37.55,0,0,0-37.44,37.45v76.5a37.55,37.55,0,0,0,37.44,37.44H967.92a37.55,37.55,0,0,0,37.44-37.44v-76.5A37.55,37.55,0,0,0,967.92,887.92ZM837.38,981.86a10.84,10.84,0,0,0,4.37,4.84,13.51,13.51,0,0,0,6.92,1.66,11.64,11.64,0,0,0,5.71-1.4,12,12,0,0,0,4.28-4.1,18.84,18.84,0,0,0,2.54-6.55h15a39.71,39.71,0,0,1-5.2,14.35,25.57,25.57,0,0,1-9.41,9.07,26.43,26.43,0,0,1-12.93,3.12H839.9l-6.24-3.36a22.44,22.44,0,0,1-9.52-9.78,33.89,33.89,0,0,1-3.28-15.52V953.1a33.89,33.89,0,0,1,3.28-15.52,22.54,22.54,0,0,1,9.52-9.8,31,31,0,0,1,15-3.39,26.53,26.53,0,0,1,13,3.12,25.43,25.43,0,0,1,9.44,9.07,39,39,0,0,1,5.15,14.35h-15a19.34,19.34,0,0,0-2.62-6.5,12.44,12.44,0,0,0-4.28-4.12,11.09,11.09,0,0,0-5.63-1.43,13.51,13.51,0,0,0-6.92,1.66,10.81,10.81,0,0,0-4.37,4.87,18,18,0,0,0-1.5,7.69v21.09A17.84,17.84,0,0,0,837.38,981.86Zm67,0a10.76,10.76,0,0,0,4.36,4.84,13.51,13.51,0,0,0,6.92,1.66,11.64,11.64,0,0,0,5.71-1.4,12,12,0,0,0,4.28-4.1,18.84,18.84,0,0,0,2.54-6.55h15A39.9,39.9,0,0,1,938,990.66a25.57,25.57,0,0,1-9.41,9.07,26.43,26.43,0,0,1-12.93,3.12h-8.77l-6.24-3.36a22.44,22.44,0,0,1-9.52-9.78,33.89,33.89,0,0,1-3.27-15.52V953.1a33.89,33.89,0,0,1,3.27-15.52,22.54,22.54,0,0,1,9.52-9.8,31,31,0,0,1,15-3.39,26.6,26.6,0,0,1,13,3.12,25.47,25.47,0,0,1,9.43,9.07,39.14,39.14,0,0,1,5.16,14.35h-15a19.33,19.33,0,0,0-2.61-6.5,12.55,12.55,0,0,0-4.29-4.12,11.09,11.09,0,0,0-5.63-1.43,13.51,13.51,0,0,0-6.92,1.66,10.74,10.74,0,0,0-4.36,4.87,17.82,17.82,0,0,0-1.51,7.69v21.09A17.69,17.69,0,0,0,904.37,981.86Z"/><path class="cls-3" d="M537.67,649.79s-145.3,206,100.6,139.34S1314.51,445.8,1303.34,362s-132.16-41.92-132.16-41.92"/><circle class="cls-2" cx="988.55" cy="633.03" r="27.48"/><path class="cls-3" d="M1234.81,634.45s145.31,206-100.59,139.33S458,430.46,469.15,346.62,601.3,304.71,601.3,304.71"/><circle class="cls-2" cx="522.52" cy="294.23" r="27.48"/></svg>