<svg id="Layer_1" data-name="Layer 1" xmlns="http://www.w3.org/2000/svg" viewBox="0 0 1764.06 1266.07"><defs><style>.cls-1{fill:#f36f38;}.cls-2{fill:none;}.cls-3{fill:#fff;}</style></defs><title>dvd-sub_doc</title><rect class="cls-1" width="1764.06" height="1266.07"/><circle class="cls-2" cx="843.66" cy="602.33" r="44.93" transform="translate(-115.82 209.95) rotate(-13.28)"/><path class="cls-2" d="M816.35,859.27c-24.17-24.17-31.19-48.58-30.19-70a195.35,195.35,0,0,0,57.5,8.6c108,0,195.53-87.54,195.53-195.52S951.65,406.8,843.66,406.8,648.14,494.34,648.14,602.33C644.6,767.48,816.35,859.27,816.35,859.27Zm27.31-325.13a68.19,68.19,0,1,1-68.18,68.19A68.19,68.19,0,0,1,843.66,534.14Z"/><path class="cls-3" d="M843.66,670.51a68.19,68.19,0,1,0-68.18-68.18A68.19,68.19,0,0,0,843.66,670.51Zm0-113.11a44.93,44.93,0,1,1-44.92,44.93A44.92,44.92,0,0,1,843.66,557.4Z"/><path class="cls-3" d="M1230.26,356.45v694.49c-3.58.16-6.28.39-9,.39H592.63c-28.25,0-48.8-14.32-55.89-38.72-8.63-29.67,9.94-60.71,40.26-66.82a92.51,92.51,0,0,1,18.28-1.4q284.64-.1,569.28-.06h12V248.78H574.63c-6.91,1.87-13.93,3.37-20.69,5.67-43.88,14.92-72.52,54.65-72.87,101.66-.31,41.51-.08,83-.08,124.55V994.77c0,53.41,33.1,95.74,84,107.32a116.46,116.46,0,0,0,25.66,2.65q342.33.19,684.65.11h7.78V356.45ZM1072.18,888.32q5.91,0,9.1-3.13t3.21-9v-28q0-13,7.43-18.88-7.43-5.64-7.43-18.24v-29q0-5.75-3.21-8.88t-9.1-3.13V753.45q14.34,0,22.2,7.28t7.87,20.53v26.49q0,5.61,3.52,8.74t9.94,3.13v19.21q-6.4,0-9.94,3.13t-3.52,8.73v26.57q0,13.25-7.87,20.49t-22.2,7.24Zm-28.38-118.2q-5.9,0-9.1,3.13t-3.2,8.88v29q0,12.52-7.75,17.94l-.44.29.44.29q7.74,5.64,7.75,18.6v28q0,5.82,3.2,9t9.1,3.13V905q-14.34,0-22.2-7.24t-7.86-20.49V850q0-5.61-3.53-8.74t-9.94-3.13V820.34q6.4,0,9.94-3.13t3.53-8.73V781.26q0-13.25,7.86-20.53t22.2-7.28ZM648.14,602.33c0-108,87.54-195.53,195.52-195.53s195.53,87.54,195.53,195.53S951.65,797.85,843.66,797.85a195.35,195.35,0,0,1-57.5-8.6c-1,21.44,6,45.85,30.19,70C816.35,859.27,644.6,767.48,648.14,602.33Z"/></svg>