<svg id="Layer_1" data-name="Layer 1" xmlns="http://www.w3.org/2000/svg" viewBox="0 0 1764.06 1266.07"><defs><style>.cls-1{fill:#f36f38;}.cls-2{fill:#fff;}</style></defs><title>gettingstarted</title><rect class="cls-1" width="1764.06" height="1266.07"/><path class="cls-2" d="M1230.29,312.67v694.49c-3.58.16-6.28.39-9,.39q-314.31,0-628.63,0c-28.25,0-48.8-14.32-55.89-38.72-8.63-29.67,9.94-60.71,40.26-66.82a93,93,0,0,1,18.28-1.4q284.64-.11,569.28-.06h12V205H574.66c-6.91,1.87-13.93,3.37-20.69,5.67-43.88,14.92-72.52,54.65-72.87,101.66-.31,41.51-.08,83-.08,124.55q0,257.05,0,514.11c0,53.41,33.1,95.74,84,107.32a116.88,116.88,0,0,0,25.66,2.65q342.33.19,684.65.11h7.78V312.67ZM891.17,748.09q20.66,0,31.88-11t11.22-31.37V607.57q0-45.68,26-66.17-26-19.75-26-63.9V376q0-20.14-11.22-31.12t-31.88-11V275.5q50.24,0,77.79,25.51t27.54,71.92v92.83q0,19.65,12.37,30.61t34.81,11v67.33q-22.44,0-34.81,11T996.5,616.24v93.09q0,46.41-27.54,71.79T891.17,806.5Zm-252-188.73V509.88q22.44,0,34.81-11t12.37-30.61V372.93q0-46.43,27.55-71.92T791.7,275.5v58.41q-20.66,0-31.88,11T748.6,376V477.5q0,43.86-27.16,62.86c-.49.35-1,.67-1.52,1,.5.35,1,.68,1.52,1q27.16,19.77,27.16,65.17v98.19q0,20.4,11.22,31.37t31.88,11V806.5q-50.24,0-77.78-25.38t-27.55-71.79V613.69q0-19.63-12.37-30.61t-34.81-11Z"/></svg>