<svg id="Layer_1" data-name="Layer 1" xmlns="http://www.w3.org/2000/svg" viewBox="0 0 1764.06 1266.07"><defs><style>.cls-1{fill:#f36f38;}.cls-2{fill:#fff;}</style></defs><title>python_extension</title><rect class="cls-1" width="1764.06" height="1266.07"/><path class="cls-2" d="M725.13,607.6c38.66-.05,77.33,0,116,0a71,71,0,0,0,12-.66c30-5.18,51-29.47,51.18-60,.28-38.83.13-77.66,0-116.49a49.63,49.63,0,0,0-1.84-13.79c-7.76-26.32-26.8-40.91-52.3-47-28.21-6.7-57.14-7.25-86-6-21.49,1-42.85,3.37-63.48,10-25.56,8.17-36.56,22.21-37.55,49-.64,17.14-.3,34.32-.36,51.48a17.73,17.73,0,0,0,.66,3.3h120v15.06h-6.09c-53.16,0-106.32-.11-159.49,0-35.88.1-63.75,20.32-74,54.45-11.49,38.11-14.12,76.8-5.2,115.95,3.41,15,6.67,29.9,14.48,43.36C562.63,722.85,576.08,735,595.5,737c16.82,1.71,33.91.72,50.89.89.24,0,.48-.4,1.13-1,0-16.13-.09-32.61.05-49.09,0-5.65.09-11.4,1.13-16.92C655.76,633.56,687.14,607.65,725.13,607.6Zm-9.75-161.21a23,23,0,1,1,22.77-22.9A22.75,22.75,0,0,1,715.38,446.39Z"/><path class="cls-2" d="M1208.89,813.26h-22V676.39c0-24.87-7.47-43.44-21.73-55.74-21.5-18.57-79.57-13-79.57-13a60,60,0,0,1-58.46-46.51c-.18-.77-.35-1.53-.54-2.3-3.29-14-7.39-27.64-15-40-9.45-15.26-22.78-25-40.9-26-16.78-.86-33.63-.18-51.22-.18,0,15.25.07,30.05,0,44.85,0,6.49.12,13.05-.79,19.45-5.23,36.57-38.23,66.71-77.79,66-38.49-.68-77-.21-115.49-.12-35.28.08-62.24,26.39-62.57,61.65-.36,38.32-.09,76.65-.08,115,0,15.19,6,27.78,16.81,38.19a88.48,88.48,0,0,0,30.45,18.71c38.71,14.62,78.28,17.94,118.75,8.54,18.24-4.24,36.07-9.52,51.54-20.65,15.93-11.46,24.58-26.67,24.16-46.72-.27-13,0-26-.06-39,0-1.6-.17-3.2-.3-5.31H784V738.16h6.34c57.65,0,115.31-.11,173,.05,21.07.06,37.18-8.36,47.32-26.86A198.88,198.88,0,0,0,1024.86,679a60.28,60.28,0,0,1,57-41.38s54.33-2.23,64.1,6.12c7.22,6.17,10.88,17.16,10.88,32.65V813.26h-22a12,12,0,0,0-12,12V843.5a12,12,0,0,0,12,12h11.71v18.79a6.83,6.83,0,0,0,6.44,6.92,6.65,6.65,0,0,0,6.85-6.64V855.5h25.49v18.79a6.83,6.83,0,0,0,6.44,6.92,6.65,6.65,0,0,0,6.85-6.64V855.5h10.23a12,12,0,0,0,12-12V825.26A12,12,0,0,0,1208.89,813.26Zm-357.37-29a22.55,22.55,0,0,1,22.67,22.88c0,12.73-10.13,23.12-22.58,23.16S829,820,829,807.26C828.94,794.38,838.82,784.31,851.52,784.29Z"/></svg>