<svg id="Layer_1" data-name="Layer 1" xmlns="http://www.w3.org/2000/svg" viewBox="0 0 1764.06 1266.07"><defs><style>.cls-1{fill:#f36f38;}.cls-2{fill:#fff;}</style></defs><title>python_compile</title><rect class="cls-1" width="1764.06" height="1266.07"/><rect class="cls-2" x="514.35" y="265.35" width="735.36" height="735.36"/><path class="cls-1" d="M753.19,433.91a20.12,20.12,0,0,0-.23,40.23,20.12,20.12,0,0,0,.23-40.23Z"/><path class="cls-1" d="M872.06,809.78a20.05,20.05,0,0,0,19.73-20.24,19.76,19.76,0,1,0-39.52.08C852.3,800.73,861.21,809.81,872.06,809.78Z"/><path class="cls-1" d="M556.19,299.93V966.14H1222.4V299.93ZM693.69,685.2c-.13,14.41-.05,28.82-.05,42.92-.57.49-.78.84-1,.84-14.84-.15-29.78.71-44.49-.78-17-1.72-28.73-12.35-37.14-26.84-6.82-11.78-9.67-24.84-12.65-37.91-7.8-34.23-5.5-68,4.55-101.37,9-29.84,33.36-47.51,64.72-47.6,46.48-.13,93,0,139.43,0h5.32V501.26H707.49a17.48,17.48,0,0,1-.58-2.88c.06-15-.23-30,.32-45,.87-23.42,10.49-35.69,32.83-42.83,18-5.77,36.71-7.86,55.49-8.71,25.24-1.13,50.52-.65,75.18,5.21,22.3,5.3,38.94,18.06,45.73,41.06a43.35,43.35,0,0,1,1.61,12.06c.12,33.95.25,67.89,0,101.84-.19,26.7-18.49,47.93-44.75,52.46a61.57,61.57,0,0,1-10.44.58c-33.8,0-67.61,0-101.41,0-33.21,0-60.64,22.69-66.81,55.33A83.89,83.89,0,0,0,693.69,685.2Zm501.19,136.1a10.52,10.52,0,0,1-10.49,10.49h-8.94v16.67a5.81,5.81,0,0,1-6,5.81,6,6,0,0,1-5.63-6V831.79h-22.28v16.67a5.81,5.81,0,0,1-6,5.81,6,6,0,0,1-5.63-6V831.79h-10.24a10.52,10.52,0,0,1-10.49-10.49V805.35a10.52,10.52,0,0,1,10.49-10.49h19.24V675.21c0-13.54-3.2-23.15-9.51-28.54-8.55-7.31-56-5.36-56-5.36a52.69,52.69,0,0,0-49.86,36.18,174.56,174.56,0,0,1-12.44,28.29c-8.87,16.17-23,23.53-41.37,23.48-50.41-.15-100.81,0-151.22,0H813v13.21H917.89c.1,1.84.25,3.24.26,4.64,0,11.36-.19,22.73.05,34.09.37,17.52-7.2,30.82-21.13,40.84C883.56,831.72,868,836.34,852,840c-35.38,8.22-70,5.31-103.81-7.47a77.23,77.23,0,0,1-26.62-16.35c-9.5-9.1-14.69-20.11-14.7-33.38,0-33.51-.24-67,.07-100.52.29-30.83,23.86-53.83,54.71-53.9,33.65-.08,67.31-.49,101,.11,34.59.62,63.43-25.73,68-57.7.8-5.59.65-11.33.69-17,.09-12.93,0-25.87,0-39.21,15.38,0,30.12-.59,44.78.17,15.84.81,27.5,9.34,35.76,22.68,6.67,10.8,10.26,22.74,13.14,35,.16.67.32,1.34.47,2a52.44,52.44,0,0,0,51.1,40.66s50.77-4.84,69.57,11.39c12.46,10.76,19,27,19,48.73V794.86h19.23a10.52,10.52,0,0,1,10.49,10.49Z"/><path class="cls-2" d="M1366.42,638l63.72,71.27a7.44,7.44,0,0,0,5.59,2.51h0a7.51,7.51,0,0,0,5.61-2.57l13.4-15.31a7.51,7.51,0,0,0,0-9.93l-29.42-32.9h173.59a7.49,7.49,0,0,0,7.5-7.5v-21.3a7.5,7.5,0,0,0-7.5-7.5H1425l29.49-33a7.5,7.5,0,0,0,0-9.94l-13.14-15.06a7.57,7.57,0,0,0-5.61-2.56h0a7.55,7.55,0,0,0-5.59,2.51L1366.42,628A7.53,7.53,0,0,0,1366.42,638Z"/><path class="cls-2" d="M397.64,628l-63.72-71.27a7.51,7.51,0,0,0-5.59-2.51h0a7.58,7.58,0,0,0-5.61,2.57l-13.4,15.31a7.51,7.51,0,0,0,0,9.93L338.74,615H165.15a7.5,7.5,0,0,0-7.5,7.5v21.3a7.49,7.49,0,0,0,7.5,7.5H339.06l-29.49,33a7.5,7.5,0,0,0,0,9.94l13.14,15.06a7.5,7.5,0,0,0,5.61,2.56h0a7.48,7.48,0,0,0,5.59-2.51L397.64,638A7.53,7.53,0,0,0,397.64,628Z"/></svg>