<?xml version="1.0" encoding="utf-8"?>
<!-- Generator: Adobe Illustrator 23.0.0, SVG Export Plug-In . SVG Version: 6.00 Build 0)  -->
<svg version="1.1" id="Layer_1" xmlns="http://www.w3.org/2000/svg" xmlns:xlink="http://www.w3.org/1999/xlink" x="0px" y="0px"
	 viewBox="0 0 1764.1 1266.1" style="enable-background:new 0 0 1764.1 1266.1;" xml:space="preserve">
<style type="text/css">
	.st0{fill:#F36F38;}
	.st1{fill:none;}
	.st2{fill:#FFFFFF;}
</style>
<title>regression</title>
<rect class="st0" width="1764.1" height="1266.1"/>
<g>
	<path class="st1" d="M1362.7,881.4c27.4,0,49.6,22.2,49.6,49.6s-22.2,49.6-49.6,49.6c-23,0-42.3-15.6-47.9-36.8h-17
		c6,30.4,32.8,53.3,64.9,53.3v0c36.5,0,66.2-29.6,66.2-66.2c0,0,0,0,0,0c0-36.5-29.6-66.2-66.2-66.2c-32.1,0-58.9,22.9-64.9,53.3h17
		C1320.4,897,1339.7,881.4,1362.7,881.4z"/>
	<path class="st1" d="M401.4,864.9c-36.5,0-66.2,29.6-66.2,66.2c0,36.5,29.6,66.2,66.2,66.2v0c0,0,0,0,0,0
		c32.1,0,58.9-22.9,64.9-53.3h-17c-5.7,21.2-25,36.8-47.9,36.8c-27.4,0-49.6-22.2-49.6-49.6s22.2-49.6,49.6-49.6
		c23,0,42.3,15.6,47.9,36.8h17C460.3,887.8,433.5,864.9,401.4,864.9z"/>
	<path class="st1" d="M882,864.9c-32.1,0-58.9,22.9-64.9,53.3h17c5.7-21.2,25-36.8,47.9-36.8s42.3,15.6,47.9,36.8h16.9
		C940.9,887.8,914.1,864.9,882,864.9z"/>
	<path class="st1" d="M882,980.7c-23,0-42.3-15.6-47.9-36.8h-17c6,30.4,32.8,53.3,64.9,53.3v0c0,0,0,0,0,0
		c32.1,0,58.9-22.9,64.9-53.3H930C924.3,965.1,905,980.7,882,980.7z"/>
	<path class="st2" d="M401.4,997.2C401.4,997.2,401.4,997.2,401.4,997.2L401.4,997.2c-36.5,0-66.2-29.6-66.2-66.2
		c0-36.5,29.6-66.2,66.2-66.2c32.1,0,58.9,22.9,64.9,53.3h23.1c-6.2-43-43.3-76.1-88-76.1c0,0,0,0,0,0c-49.1,0-88.9,39.8-88.9,89
		s39.8,89,89,89c44.8,0,81.8-33.1,88-76.1h-23.1C460.3,974.3,433.5,997.2,401.4,997.2z"/>
	<path class="st2" d="M390.6,918.2h58.7c-5.7-21.2-25-36.8-47.9-36.8c-27.4,0-49.6,22.2-49.6,49.6s22.2,49.6,49.6,49.6
		c23,0,42.3-15.6,47.9-36.8h-58.7V918.2z"/>
	<path class="st2" d="M882,864.9c32.1,0,58.9,22.9,64.9,53.3h23.2c-6.2-43-43.3-76.1-88-76.1c0,0,0,0-0.1,0
		c-44.7,0-81.7,33.1-88,76.1h23.1C823.1,887.8,849.9,864.9,882,864.9z"/>
	<path class="st2" d="M882,997.2C882,997.2,882,997.2,882,997.2L882,997.2c-32.1,0-58.9-22.9-64.9-53.3H794
		c6.2,43.1,43.3,76.1,88.1,76.1c44.7,0,81.7-33.1,88-76.1h-23.2C940.9,974.3,914.1,997.2,882,997.2z"/>
	<path class="st2" d="M882,980.7c23,0,42.3-15.6,47.9-36.8h-95.9C839.8,965.1,859.1,980.7,882,980.7z"/>
	<path class="st2" d="M882,881.4c-23,0-42.3,15.6-47.9,36.8H930C924.3,897,905,881.4,882,881.4z"/>
	<path class="st2" d="M1362.7,842.1c-44.8,0-81.8,33.1-88,76.1h23.1c6-30.4,32.8-53.3,64.9-53.3c36.5,0,66.2,29.6,66.2,66.2
		c0,0,0,0,0,0c0,36.5-29.6,66.2-66.2,66.2v0c-32.1,0-58.9-22.9-64.9-53.3h-23.1c6.2,43,43.3,76.1,88,76.1c49.1,0,89-39.8,89-88.9
		c0,0,0,0,0,0C1451.6,881.9,1411.8,842.1,1362.7,842.1z"/>
	<path class="st2" d="M1362.7,980.7c27.4,0,49.6-22.2,49.6-49.6s-22.2-49.6-49.6-49.6c-23,0-42.3,15.6-47.9,36.8h58.7v25.7h-58.7
		C1320.4,965.1,1339.7,980.7,1362.7,980.7z"/>
	<path class="st2" d="M1274.7,918.2H970.1c0.6,4.2,0.9,8.5,0.9,12.8c0,4.4-0.3,8.7-0.9,12.9h304.6c-0.6-4.2-0.9-8.5-0.9-12.9
		C1273.7,926.7,1274.1,922.4,1274.7,918.2z"/>
	<path class="st2" d="M794,918.2H489.4c0.6,4.2,0.9,8.5,0.9,12.8c0,0,0,0,0,0c0,4.4-0.3,8.7-0.9,12.9H794c-0.6-4.2-0.9-8.5-0.9-12.8
		C793.1,926.7,793.4,922.4,794,918.2z"/>
	<path class="st2" d="M490.3,931c0-4.4-0.3-8.7-0.9-12.8h-23.1c0.8,4.2,1.3,8.5,1.3,12.8c0,4.4-0.4,8.7-1.3,12.9h23.1
		C490,939.7,490.3,935.4,490.3,931C490.3,931.1,490.3,931.1,490.3,931z"/>
	<path class="st2" d="M449.3,918.2h-58.7v25.7h58.7c1.1-4.1,1.7-8.4,1.7-12.9C451,926.6,450.4,922.3,449.3,918.2z"/>
	<path class="st2" d="M970.1,918.2h-23.2c0.8,4.2,1.3,8.5,1.3,12.8c0,4.4-0.4,8.7-1.3,12.9h23.2c0.6-4.2,0.9-8.5,0.9-12.9
		C971,926.7,970.7,922.4,970.1,918.2z"/>
	<path class="st2" d="M815.8,931c0-4.4,0.4-8.7,1.3-12.8H794c-0.6,4.2-0.9,8.5-0.9,12.9c0,4.3,0.3,8.6,0.9,12.8h23.1
		C816.3,939.7,815.8,935.5,815.8,931z"/>
	<path class="st2" d="M834.1,943.9H930c1.1-4.1,1.7-8.4,1.7-12.9c0-4.4-0.6-8.8-1.7-12.8h-95.9c-1.1,4.1-1.7,8.4-1.7,12.8
		C832.4,935.5,833,939.8,834.1,943.9z"/>
	<path class="st2" d="M1296.5,931.1c0-4.4,0.4-8.7,1.3-12.9h-23.1c-0.6,4.2-0.9,8.5-0.9,12.8c0,4.4,0.3,8.7,0.9,12.9h23.1
		C1297,939.8,1296.5,935.5,1296.5,931.1z"/>
	<path class="st2" d="M1373.4,918.2h-58.7c-1.1,4.1-1.7,8.4-1.7,12.8c0,4.4,0.6,8.8,1.7,12.9h58.7V918.2z"/>
</g>
<path class="st2" d="M885.2,246.1c-113.6-1.7-208.3,91.5-208.3,205.1c-0.1,48.8,17.3,96,49,133.1c57.3,67.2,109.3,138.7,153.4,215.1
	l2.7,4.7l2.5-4.4c44.2-76.6,96.3-148.3,153.7-215.6c31.7-37.1,49-84.2,48.9-133C1087.2,339,997,247.8,885.2,246.1z M996.7,363.1
	L869.3,490.6l-57-57l17.5-17.5l39.2,39.3l110-110L996.7,363.1z M1010,448c-0.2,0.6-0.3,1.3-0.4,1.9c-0.5,9.1-2.2,18.2-5.1,26.9
	c-16.5,48.9-50,78.8-100.7,89.2c-4.5,0.9-9.2,1.3-13.8,2h-16c-0.6-0.1-1.3-0.3-1.9-0.4c-8-1.4-16.3-1.9-24-4.3
	c-50.5-15.7-81.4-49.6-92.1-101.5c-0.9-4.5-1.3-9.2-2-13.8v-16c0.6-4.6,1-9.3,2-13.8c10.4-50.5,40.1-84.2,88.9-100.5
	c26.1-8.8,52.5-7,78.6,1.1c2.2,0.7,4.4,1.4,6.9,2.2c-0.6,0.7-0.9,1.2-1.3,1.6c-5.8,5.9-11.7,11.6-17.5,17.5c-0.9,1-2.3,1.4-3.5,0.9
	c-54.7-14.3-110.6,18.4-125.1,73c-15,55.8,20.3,113.5,77.1,126.1c56.2,12.4,110.8-24.1,122.2-79.9c1.3-6.5,1.7-13.2,2.6-20.1h25.1
	V448z"/>
</svg>
