<svg id="Layer_1" data-name="Layer 1" xmlns="http://www.w3.org/2000/svg" viewBox="0 0 1764.06 1266.07"><defs><style>.cls-1{fill:#f36f38;}.cls-2{fill:#fff;fill-rule:evenodd;}</style></defs><title>repository</title><rect class="cls-1" width="1764.06" height="1266.07"/><path class="cls-2" d="M882,300.74c-188.13,0-340.69,152.54-340.69,340.73,0,150.51,97.62,278.21,233,323.27,17,3.13,23.25-7.39,23.25-16.42,0-8.09-.29-29.51-.46-58C702.36,911,682.36,844.7,682.36,844.7c-15.49-39.36-37.83-49.84-37.83-49.84-30.93-21.14,2.34-20.71,2.34-20.71,34.19,2.41,52.19,35.11,52.19,35.11,30.39,52.07,79.74,37,99.15,28.31,3.1-22,11.9-37,21.63-45.55-75.65-8.59-155.19-37.82-155.19-168.38,0-37.2,13.28-67.61,35.07-91.43-3.5-8.62-15.19-43.26,3.34-90.16,0,0,28.61-9.17,93.69,34.92a322.91,322.91,0,0,1,170.6,0c65-44.09,93.6-34.92,93.6-34.92,18.58,46.9,6.89,81.54,3.39,90.16,21.83,23.82,35,54.23,35,91.43,0,130.88-79.66,159.68-155.56,168.12,12.23,10.52,23.13,31.31,23.13,63.09,0,45.55-.42,82.3-.42,93.47,0,9.11,6.14,19.71,23.43,16.38,135.26-45.14,232.8-172.76,232.8-323.23C1222.74,453.28,1070.18,300.74,882,300.74Z"/></svg>