<svg id="Layer_1" data-name="Layer 1" xmlns="http://www.w3.org/2000/svg" viewBox="0 0 1764.06 1266.07"><defs><style>.cls-1{fill:#f36f38;}.cls-2{fill:#fff;}.cls-3{fill:none;stroke:#fff;stroke-miterlimit:10;stroke-width:15px;}</style></defs><title>rotatingcapture</title><rect class="cls-1" width="1764.06" height="1266.07"/><path class="cls-2" d="M963.85,546l-6.9-5.26a121.31,121.31,0,0,0-136.34-7.36,121.52,121.52,0,0,0-57,121.63,118.47,118.47,0,0,0,13.19,39.61,120.06,120.06,0,0,0,36.18,41,124.48,124.48,0,0,0,37.43,18.09c10.84,3.19,20.87-3.33,22.36-14.5.95-7.16-3.9-15.06-10.71-17.51-4.85-1.74-9.78-3.3-14.5-5.35a82.78,82.78,0,0,1-27.8-19.9A87.44,87.44,0,0,1,802.81,670a85.63,85.63,0,0,1-5.61-21.26,86.77,86.77,0,0,1,5.3-43.88,86.94,86.94,0,0,1,166.13,14.77,7,7,0,0,1,0,.78c-4.09-1.55-8.13-2.88-12-4.59-6.67-2.94-12-.47-12.29,7.83a68.86,68.86,0,0,0,1.19,12.44c1.52,10.27,3.16,20.52,4.84,30.76,1.51,9.22,2.9,18.46,4.79,27.61,1.18,5.7,6.18,8.86,11.07,7.22a26.7,26.7,0,0,0,7.81-4.47q22.76-18.18,45.31-36.63c2.88-2.35,5.87-4.69,7.33-8.34,1.8-4.5.28-8.92-4.15-10.84-5.38-2.35-10.87-4.41-16.35-6.51-1.1-.42-1.62-.85-1.67-2.15a121.13,121.13,0,0,0-24.61-69q-2.82-3.68-5.66-7.33Z"/><path class="cls-2" d="M620.34,511.88c1.3-3.45,1.84-5.44,2.75-7.25Q669.5,412.89,763,370a11.55,11.55,0,0,1,9.58.75q61.55,41.91,122.71,84.38c1.33.92,2.49,2.09,5.5,4.64Z"/><path class="cls-2" d="M1018,521.24,786.52,361.11c3.38-1.52,5.31-2.65,7.39-3.3q97.23-30.26,192.53,5.67c4.07,1.53,7,3.32,7.77,8.26,7.79,47.69,15.81,95.34,23.72,143C1018.19,516.31,1018,518,1018,521.24Z"/><path class="cls-2" d="M608.3,728.16c-3.79-15.55-8.48-30.94-11.19-46.67-8.3-48.11-4.09-95.36,11.15-141.76,2.58-7.84,6.32-11.48,14.68-12.86,45.77-7.56,91.44-15.78,137.14-23.75,2.29-.4,4.62-.55,9.22-1.08L611.37,728.45Z"/><path class="cls-2" d="M1059,650.78c-15.73-92.35-31.15-183-46.86-275.2,3.41,1.45,5.56,2.16,7.51,3.24,58.59,32.31,101.39,79.06,127.95,140.49,1.09,2.52.81,6.91-.73,9.09-27.69,39.43-55.68,78.66-83.63,117.91A58.55,58.55,0,0,1,1059,650.78Z"/><path class="cls-2" d="M868.46,811.7l273.36-53c-1.76,4-2.61,6.39-3.79,8.6q-46.72,87.45-136.73,129.09c-5.23,2.43-9,2-13.79-1.28C950,868.89,912.28,843,874.64,816.91,873,815.76,871.52,814.3,868.46,811.7Z"/><path class="cls-2" d="M996.86,770.53l159-230.43c2.15,7.17,3.76,12.08,5.09,17.07q24.08,90.76-8.8,178.75c-1.83,4.91-4.45,7-9.67,8-46.58,8.69-93.09,17.73-139.62,26.63C1001.52,770.76,1000.08,770.53,996.86,770.53Z"/><path class="cls-2" d="M977.33,905.67a264.18,264.18,0,0,1-71.52,15.5,296.08,296.08,0,0,1-118.78-15c-9.28-3.15-14-7.43-15.68-18.05-6.72-42.73-14.83-85.24-22.39-127.84-.45-2.54-.55-5.14-1-9.87Z"/><path class="cls-2" d="M704.39,622.74c17.84,91,35.24,179.85,52.94,270.17-3.35-1.28-5.32-1.82-7.09-2.74-58.56-30.27-101.6-75.5-130.07-134.83-2-4.13-1.82-7.39.85-11.29q39.18-57.27,78.07-114.72C700.26,627.62,701.69,626.08,704.39,622.74Z"/><path class="cls-2" d="M205.84,178.1V1088H1558.22V178.1ZM1447.92,973.88H316.14V292.19H1447.92Z"/><polyline class="cls-3" points="425.88 344.01 374.52 344.01 374.52 401.13"/><polyline class="cls-3" points="1350.29 926.51 1401.65 926.51 1401.65 869.39"/></svg>