<svg id="Layer_1" data-name="Layer 1" xmlns="http://www.w3.org/2000/svg" viewBox="0 0 1764.06 1266.07"><defs><style>.cls-1{fill:#f36f38;}.cls-2{fill:#fff;}</style></defs><title>subtitle-downloader_usr</title><rect class="cls-1" width="1764.06" height="1266.07"/><path class="cls-2" d="M769.68,916.07h48.17V861.15h82.41v54.57h45.81l-88.33,112.12C828.36,990.56,799.26,953.62,769.68,916.07Z"/><path class="cls-2" d="M763.17,1114.46V1073.7H955.11v40.76Z"/><path class="cls-2" d="M1290,409.76c-50-169.07-291.19-128.93-291.19-128.93S957.83,129.13,766,129.13,516.15,379,516.15,379c-77.27,0-125.39,26.6-155.33,60.61-49.22,55.89-9,143.78,65.47,143.78h866c112.63,0,117.19-167.71,4.71-173.46C1292.53,409.7,1290,409.76,1290,409.76ZM845.51,373.71h219v57.8h-219Zm-249.42,0H815.15v57.8H596.09ZM1003.9,524.22H512.72V466.41H1003.9Zm249.19,0H1034V466.41h219Z"/><path class="cls-2" d="M857.87,613A107.94,107.94,0,1,0,965.81,721,107.94,107.94,0,0,0,857.87,613Zm41,101.36a12,12,0,1,1-12,12A12,12,0,0,1,898.86,714.39Zm-61.8-44.74a21.25,21.25,0,1,1-21.24,21.24A21.24,21.24,0,0,1,837.06,669.65Zm46.28,102.64H790.77a46.3,46.3,0,0,1,89-17.82A26.1,26.1,0,0,1,925,772.29Z"/></svg>