<svg id="Layer_1" data-name="Layer 1" xmlns="http://www.w3.org/2000/svg" viewBox="0 0 1764.06 1266.07"><defs><style>.cls-1{fill:#f36f38;}.cls-2{fill:#fff;}</style></defs><title>subtitle-downloader_tech</title><rect class="cls-1" width="1764.06" height="1266.07"/><path class="cls-2" d="M769.68,916.07h48.17V861.15h82.41v54.57h45.81l-88.33,112.12C828.36,990.56,799.26,953.62,769.68,916.07Z"/><path class="cls-2" d="M763.17,1114.46V1073.7H955.11v40.76Z"/><path class="cls-2" d="M1290,409.76c-50-169.07-291.19-128.93-291.19-128.93S957.83,129.13,766,129.13,516.15,379,516.15,379c-77.27,0-125.39,26.6-155.33,60.61-49.22,55.89-9,143.78,65.47,143.78h866c112.63,0,117.19-167.71,4.71-173.46C1292.53,409.7,1290,409.76,1290,409.76ZM845.51,373.71h219v57.8h-219Zm-249.42,0H815.15v57.8H596.09ZM1003.9,524.22H512.72V466.41H1003.9Zm249.19,0H1034V466.41h219Z"/><path class="cls-2" d="M857.87,613A107.94,107.94,0,1,0,965.81,721,107.94,107.94,0,0,0,857.87,613Zm-13.18,53q-5.48,0-8.46,2.91t-3,8.25v26.91q0,11.64-7.2,16.67l-.41.27.41.27q7.2,5.25,7.2,17.28v26q0,5.4,3,8.31t8.46,2.91v15.49q-13.32,0-20.63-6.73t-7.3-19V740.24a10.29,10.29,0,0,0-3.28-8.11q-3.29-2.91-9.23-2.91v-16.5q5.94,0,9.23-2.91a10.28,10.28,0,0,0,3.28-8.11V676.41q0-12.31,7.3-19.07t20.63-6.76Zm66.81,49.37V729.9q-6,0-9.23,2.91a10.25,10.25,0,0,0-3.28,8.11V765.6q0,12.31-7.3,19t-20.63,6.73V775.88q5.48,0,8.45-2.91t3-8.31v-26q0-12.12,6.92-17.54c-4.6-3.49-6.92-9.13-6.92-17V677.22q0-5.34-3-8.25t-8.45-2.91V650.58q13.32,0,20.63,6.76t7.3,19.07V701a10.28,10.28,0,0,0,3.28,8.12q3.29,2.91,9.23,2.91Z"/></svg>