<?xml version="1.0" encoding="utf-8"?>
<!-- Generator: Adobe Illustrator 23.0.0, SVG Export Plug-In . SVG Version: 6.00 Build 0)  -->
<svg version="1.1" id="Layer_1" xmlns="http://www.w3.org/2000/svg" xmlns:xlink="http://www.w3.org/1999/xlink" x="0px" y="0px"
	 viewBox="0 0 1764.1 1266.1" style="enable-background:new 0 0 1764.1 1266.1;" xml:space="preserve">
<style type="text/css">
	.st0{fill:#F36F38;}
	.st1{fill:#FFFFFF;}
	.st2{fill:none;stroke:#FFFFFF;stroke-width:35;stroke-miterlimit:10;}
</style>
<title>vagrant_box</title>
<rect class="st0" width="1764.1" height="1266.1"/>
<g>
	<polygon class="st1" points="915.6,497.4 939.1,430.4 869.8,443.1 	"/>
	<path class="st1" d="M809.5,441.7c-0.6-0.6-1.4-0.9-2.3-0.7l-13.6,2.4c-1.4,0.3-2.3,1.6-2.1,3l12.7,72.1h0l1.8,10
		c0.2,1.4,1.6,2.3,3,2.1c0,0,0,0,0,0l13.6-2.4c0.5-0.1,1-0.3,1.4-0.7c-0.4,0.4-0.8,0.6-1.3,0.7c0,0,0,0,0,0l-13.6,2.4
		c-1.4,0.3-2.7-0.6-3-2c0,0,0,0,0,0l-1.8-10h-27.6v0h-58.4c-2.7,0-4.8,2.2-4.8,4.8v335.1c0,2.7,2.2,4.8,4.8,4.8h89h0h8.4
		c-0.8-2-1.2-4.1-1.1-6.3c0,2.1,0.4,4.3,1.2,6.3h19c-2.4-2.3-3.8-5.4-3.8-8.7v-1.2c0,0.2,0,0.4,0,0.6v0.6c0,3.3,1.4,6.4,3.8,8.7h1.5
		c0,0,0,0,0,0h0.2c-3.3-2.2-5.3-5.9-5.3-9.9v-35.8c0-6.6,5.3-11.9,11.9-11.9h0.6c-6.6,0-11.9,5.3-11.9,11.9v1.2
		c0-6.6,5.3-11.9,11.9-11.9h11.9c4.5,0,8.7,2.6,10.7,6.6c0.7,1.4,1.1,3,1.2,4.6v0.7c0-1.8-0.4-3.6-1.2-5.3c0.5,1.3,0.7,2.7,0.7,4
		v8.9h-0.2v0h-11.7h-0.2v0h0.2v-8.9h-0.2v0h-11.8h-0.2v1.2h0.2v34.5h11.9v-8.9h12.4v0h-0.5v1.2h0v7.7c0,0.8-0.1,1.5-0.2,2.3
		c0-0.4,0-0.7,0-1.1v-1.2c0,4-2,7.7-5.3,9.9h0.2h1.4c0,0,0,0,0,0h19.6c0,0,0,0,0,0h0c2.2,2.1,5.1,3.2,8.1,3.2l11.9,0h-11.9
		c-3,0-6-1.2-8.2-3.2h-19.6c-2.2,2.1-5.1,3.2-8.2,3.2h0c3,0,6-1.2,8.2-3.2h-1.4c0,0,0,0,0,0h-0.2h-25h0h-0.1c0,0,0,0,0,0h-1.5h-19
		c2.6,7,9.3,11.6,16.8,11.6h155.2c7.5,0,14.1-4.7,16.8-11.6h-93.7h0h-1.5c0,0,0,0,0,0H884c0,0,0,0,0,0h0l0,0l-0.5-0.3
		c-0.3-0.2-0.6-0.5-0.9-0.8c-2.5-2.3-3.9-5.5-3.9-8.8v1.2c0,1.2,0.2,2.4,0.6,3.6c-0.4-1.2-0.6-2.4-0.6-3.6v-1.2v-34.5v-1.2
		c0-0.8,0.1-1.6,0.2-2.4c0.2-0.8,0.4-1.5,0.7-2.2c-0.3,0.7-0.5,1.5-0.7,2.2c-0.2,0.8-0.2,1.6-0.2,2.4v1.2c0-6.6,5.3-11.9,11.9-11.9
		h11.9c6.6,0,11.9,5.3,11.9,11.9v7.7h-11.9v-7.7h-11.9v34.5v1.2h11.9v-1.2h0v-8.9h0v1.2h11.9v7.7v0.9c0,0.3-0.1,0.6-0.1,0.9
		c-0.1,0.6-0.2,1.2-0.4,1.7c-0.2,0.6-0.4,1.1-0.6,1.6c-0.6,1.2-1.3,2.3-2.3,3.3c-0.4,0.4-0.8,0.8-1.3,1.1l-0.5,0.4h1.5h0h93.7
		c0,0,0,0,0,0h12.4 M1016.8,863.3h86.3c2.7,0,4.8-2.2,4.8-4.8V523.3c0-2.7-2.2-4.8-4.9-4.8h-58.4v-78.2c0-6.6-5.3-11.9-11.9-11.9
		h-46.1l15.9,90.1l-15.9-90h-18.4l15.9,90H854h-18.4l12.3,69.7c0.3,1.4,1.1,2.6,2.3,3.2c-1.2-0.6-2.1-1.8-2.3-3.2l-12.3-69.7
		l-4.5-25.5l0,0l4.5,25.5H854l-15.9-90h0l-8-45.3l126.2-22.2l11.9,67.6h18.4L972.2,346c-0.4-2.5-2.8-4.1-5.3-3.7l-152.9,27
		c-2.5,0.4-4.1,2.8-3.7,5.3l9.5,53.9h0l0,0h-31.3c-6.6,0-11.9,5.3-11.9,11.9v78.2h27.7l-12.7-72.1c-0.2-1.4,0.7-2.7,2.1-3
		 M789.3,576.6h-12.8h-33v-38.7h33v0l12.8,0V576.6z M914.4,827.8h-11.9v0L914.4,827.8L914.4,827.8z M945.4,678.1
		c1.1,0.7,2.3,1.3,3.6,1.7h0C947.7,679.4,946.5,678.8,945.4,678.1L945.4,678.1z M931,719.5h-82.1c-0.8,0-1.4-0.6-1.4-1.4v0v-7.6
		c0-0.8,0.6-1.4,1.4-1.4h0H931c0.8,0,1.4,0.6,1.4,1.4l0,7.6C932.4,718.8,931.7,719.5,931,719.5z M932.4,730.9c0,2.9-2.3,5.2-5.2,5.2
		c0,0,0,0,0,0l0,0c-2.9,0-5.2-2.3-5.2-5.2s2.3-5.2,5.2-5.2S932.4,728,932.4,730.9z M830.8,734.7v-7.5c0-0.8,0.6-1.4,1.4-1.4h82.2
		c0.8,0,1.4,0.6,1.4,1.4l0,7.5c0,0.8-0.6,1.4-1.4,1.4h0h-82.2C831.5,736.1,830.8,735.4,830.8,734.7L830.8,734.7z M830.8,714.3
		c0-2.9,2.3-5.2,5.2-5.2s5.2,2.3,5.2,5.2s-2.3,5.2-5.2,5.2S830.8,717.2,830.8,714.3z M922,680.1c0-0.1,0-0.1,0-0.2h0
		c0-0.6,0.2-1.2,0.4-1.7h9.6c0.2,0.5,0.3,1.1,0.4,1.7h0c0,0.1,0,0.2,0,0.3c0,2.9-2.3,5.2-5.2,5.2C924.3,685.3,922,683,922,680.1
		C922,680.1,922,680.1,922,680.1z M915.8,678.1v1.7h0v4c0,0.8-0.6,1.4-1.4,1.4h-82.1c-0.8,0-1.4-0.6-1.4-1.4v-4h0v-1.7H915.8z
		 M804.3,497.7c-0.2,0-0.4,0-0.6,0C803.9,497.7,804.1,497.7,804.3,497.7l15-2.6l0,0L804.3,497.7z M819.3,495L819.3,495l11.8-2.1l0,0
		L819.3,495z M854.9,805.7C854.9,805.7,854.9,805.7,854.9,805.7l0.5,0c0,0,0,0,0,0H854.9z M914.3,782.4c0,0.8-0.6,1.4-1.4,1.4h-82.2
		c-0.8,0-1.4-0.6-1.4-1.4v-7.5c0-0.8,0.6-1.4,1.4-1.4h0h82.2c0.8,0,1.4,0.6,1.4,1.4V782.4z M925.7,783.8c-2.9,0-5.2-2.3-5.2-5.2
		s2.3-5.2,5.2-5.2s5.2,2.3,5.2,5.2S928.6,783.8,925.7,783.8z M1087.6,563.7c0,1.2-0.9,2.1-2.1,2.1h-40.8h-43.4h-6
		c-1.2,0-2.1-1-2.1-2.1v-11.5c0-1.2,1-2.1,2.1-2.1h12.8h36.6h40.8c1.2,0,2.1,1,2.1,2.1V563.7z"/>
	<path class="st1" d="M766.4,549.2C766.4,549.2,766.4,549.2,766.4,549.2c-4.9,0-8.8,3.9-8.8,8.8c0,4.9,3.9,8.8,8.8,8.8
		c4.9,0,8.8-3.9,8.8-8.8C775.2,553.1,771.3,549.2,766.4,549.2z"/>
	<rect x="855.4" y="844.4" class="st1" width="11.4" height="1.2"/>
	<polygon class="st1" points="854.8,853.4 854.8,853.4 843.5,853.4 843.5,854.6 855.4,854.6 855.4,853.4 	"/>
	<rect x="890.6" y="817.6" class="st1" width="11.9" height="1.2"/>
	<path class="st1" d="M1005,554c-2.2,0-3.9,1.8-4,3.9c0,2.2,1.8,3.9,3.9,4c0,0,0,0,0,0c2.2,0,3.9-1.8,3.9-3.9
		C1008.9,555.8,1007.2,554.1,1005,554z"/>
	<circle class="st1" cx="1036.4" cy="558" r="3.9"/>
	<circle class="st1" cx="1020.7" cy="558" r="3.9"/>
</g>
<rect x="539.1" y="248.8" class="st2" width="743" height="743"/>
</svg>
