<svg id="Layer_1" data-name="Layer 1" xmlns="http://www.w3.org/2000/svg" viewBox="0 0 2085.34 555.49" style="" class=""><defs><style>.cls-1,.cls-2,.cls-3,.cls-4{fill:none;stroke:#f44336;stroke-width:3px;}.cls-1{stroke-miterlimit:10;}.cls-2,.cls-3{stroke-linejoin:round;}.cls-3{stroke-linecap:round;}</style></defs><title>about-us</title><path class="cls-1 CgzwqtHB_0" d="M353.2,38.7,221.4,61.9l8.4,47.4,16.6,94H382.3l-16.6-94ZM310.6,181.3l-47.8-56.7,72.4-13.2Z" transform="translate(-97.9 -19.09)"></path><path class="cls-1 CgzwqtHB_1" d="M445.4,203.3V140.9a31.54,31.54,0,0,0-31.6-31.6h-29l16.6,94Z" transform="translate(-97.9 -19.09)"></path><path class="cls-1 CgzwqtHB_2" d="M181.6,131.7a6.37,6.37,0,0,1,5.2-7.4l6.9-1.2a6.37,6.37,0,0,1,7.4,5.2l4.9,27.8,12.3-2.2-7.9-44.6H197a31.54,31.54,0,0,0-31.6,31.6v62.4h28.9Z" transform="translate(-97.9 -19.09)"></path><path class="cls-1 CgzwqtHB_3" d="M212.7,162.21L237.3,92.31L164.9,105.51L212.7,162.21Z"></path><path class="cls-1 CgzwqtHB_4" d="M500,203.3H110.9a11.44,11.44,0,0,0-11.5,11.5v337a11.44,11.44,0,0,0,11.5,11.5h96.8a19.67,19.67,0,0,1-.9-7.7,1266.26,1266.26,0,0,0,4.3-183.7H187.3a9.18,9.18,0,0,1-9.2-9.2V352.3a9.18,9.18,0,0,1,9.2-9.2H423.6a9.18,9.18,0,0,1,9.2,9.2v10.4a9.18,9.18,0,0,1-9.2,9.2H411a1491,1491,0,0,1-4.2,191.4H500a11.44,11.44,0,0,0,11.5-11.5v-337A11.44,11.44,0,0,0,500,203.3ZM178.7,259.9a4.06,4.06,0,0,1-4.1,4.1H135.1a4.06,4.06,0,0,1-4.1-4.1V227.7a4.06,4.06,0,0,1,4.1-4.1h39.5a4.06,4.06,0,0,1,4.1,4.1Zm311.5-12.5a5.34,5.34,0,0,1-5.3,5.3h-88a5.34,5.34,0,0,1-5.3-5.3v-5.8a5.34,5.34,0,0,1,5.3-5.3h88a5.34,5.34,0,0,1,5.3,5.3Z" transform="translate(-97.9 -19.09)"></path><path class="cls-1 CgzwqtHB_5" d="M233.3,463.3h.1a5.38,5.38,0,0,0,5.5-5.3v-.1a5.5,5.5,0,1,0-5.6,5.4Z" transform="translate(-97.9 -19.09)"></path><path class="cls-1 CgzwqtHB_6" d="M328.9,473.9a5.42,5.42,0,0,0-6.1,4.7v.1a5.67,5.67,0,0,0,5.2,6,5.34,5.34,0,0,0,5.5-4.7A5.42,5.42,0,0,0,328.9,473.9Z" transform="translate(-97.9 -19.09)"></path><path class="cls-1 CgzwqtHB_7" d="M314.7,472.5l-85.2-2.7a1.79,1.79,0,0,0-1.8,1.8l-.2,7.3a1.77,1.77,0,0,0,1.7,1.8l85.2,3.5a2,2,0,0,0,1.8-1.9l.3-7.8h0A1.9,1.9,0,0,0,314.7,472.5Z" transform="translate(-97.9 -19.09)"></path><path class="cls-1 CgzwqtHB_8" d="M332.5,454l-85.3-1.3a1.79,1.79,0,0,0-1.8,1.8l-.1,7.4a1.77,1.77,0,0,0,1.7,1.8l85.2,2.2h0a2,2,0,0,0,1.9-1.9l.1-8A1.88,1.88,0,0,0,332.5,454Z" transform="translate(-97.9 -19.09)"></path><path class="cls-1 CgzwqtHB_9" d="M231.5,419.6a1.77,1.77,0,0,0-1.7,1.8v7.3a1.79,1.79,0,0,0,1.8,1.8l85.2-.3a1.86,1.86,0,0,0,1.7-1.9v-7.9a2,2,0,0,0-1.8-1.9Z" transform="translate(-97.9 -19.09)"></path><path class="cls-1 CgzwqtHB_10" d="M235,412.8a5.38,5.38,0,0,0,5.4-5.4v-.2a5.4,5.4,0,1,0-5.4,5.6Z" transform="translate(-97.9 -19.09)"></path><path class="cls-1 CgzwqtHB_11" d="M330.8,419.3a5.39,5.39,0,0,0-5.8,5h.1a5.66,5.66,0,0,0,5.4,5.8,5.41,5.41,0,0,0,.3-10.8Z" transform="translate(-97.9 -19.09)"></path><path class="cls-1 CgzwqtHB_12" d="M248.8,412.7l85.2-1.6v.1a1.88,1.88,0,0,0,1.7-2l-.1-8h0a2,2,0,0,0-1.8-2l-85.3,2.4h0a1.79,1.79,0,0,0-1.7,1.9l.2,7.4A1.79,1.79,0,0,0,248.8,412.7Z" transform="translate(-97.9 -19.09)"></path><path class="cls-1 CgzwqtHB_13" d="M329.1,372.1h0a4.25,4.25,0,0,0,1.1-.2h-2.6A7.72,7.72,0,0,0,329.1,372.1Z" transform="translate(-97.9 -19.09)"></path><path class="cls-1 CgzwqtHB_14" d="M228.5,375.4a1.77,1.77,0,0,0,1.8,1.7l85.2-4.3a1.76,1.76,0,0,0,1.3-.9H228.3Z" transform="translate(-97.9 -19.09)"></path><path class="cls-1 CgzwqtHB_15" d="M316.8,371.9H423.5a9.18,9.18,0,0,0,9.2-9.2V352.3a9.18,9.18,0,0,0-9.2-9.2H187.3a9.18,9.18,0,0,0-9.2,9.2v10.4a9.18,9.18,0,0,0,9.2,9.2H316.8Z" transform="translate(-97.9 -19.09)"></path><path class="cls-1 CgzwqtHB_16" d="M174.6,223.6H135.1a4.06,4.06,0,0,0-4.1,4.1v32.2a4.06,4.06,0,0,0,4.1,4.1h39.5a4.06,4.06,0,0,0,4.1-4.1V227.7A4.06,4.06,0,0,0,174.6,223.6Zm-19.8,30.1a9.2,9.2,0,1,1,9.2-9.2A9.18,9.18,0,0,1,154.8,253.7Z" transform="translate(-97.9 -19.09)"></path><path class="cls-1 CgzwqtHB_17" d="M47.709999999999994,225.41A9.2,9.2 0,1,1 66.11,225.41A9.2,9.2 0,1,1 47.709999999999994,225.41"></path><path class="cls-1 CgzwqtHB_18" d="M484.9,236.3h-88a5.34,5.34,0,0,0-5.3,5.3v5.8a5.34,5.34,0,0,0,5.3,5.3h88a5.34,5.34,0,0,0,5.3-5.3v-5.8A5.34,5.34,0,0,0,484.9,236.3Zm-81,12.3a4.1,4.1,0,1,1,4.1-4.1A4.06,4.06,0,0,1,403.9,248.6Zm16.5,0a4.1,4.1,0,1,1,4.1-4.1A4.06,4.06,0,0,1,420.4,248.6Zm16.4,0a4.1,4.1,0,1,1,4.1-4.1A4.06,4.06,0,0,1,436.8,248.6Z" transform="translate(-97.9 -19.09)"></path><path class="cls-1 CgzwqtHB_19" d="M403.9,240.4a4.1,4.1,0,1,0,4.1,4.1A4.06,4.06,0,0,0,403.9,240.4Z" transform="translate(-97.9 -19.09)"></path><path class="cls-1 CgzwqtHB_20" d="M436.8,240.4a4.1,4.1,0,1,0,4.1,4.1A4.06,4.06,0,0,0,436.8,240.4Z" transform="translate(-97.9 -19.09)"></path><path class="cls-1 CgzwqtHB_21" d="M420.4,240.4a4.1,4.1,0,1,0,4.1,4.1A4.06,4.06,0,0,0,420.4,240.4Z" transform="translate(-97.9 -19.09)"></path><path class="cls-1 CgzwqtHB_22" d="M207.7,563.3s.31,5.28,11.65,7.75,168.64,3,177.52,0,9.93-7.75,9.93-7.75" transform="translate(-97.9 -19.09)"></path><path id="C" class="cls-1 CgzwqtHB_23" d="M264.34,522.61l-1.28,25.91a8.65,8.65,0,0,0,8.21,9.06l8.64.43A8.65,8.65,0,0,0,289,549.8l.32-6.48-8.64-.42-.32,6.47L271.7,549,273,523l8.63.43-.32,6.47,8.64.43.32-6.48a8.65,8.65,0,0,0-8.21-9.06l-8.64-.42A8.65,8.65,0,0,0,264.34,522.61Z" transform="translate(-97.9 -19.09)"></path><path id="C-2" data-name="C" class="cls-1 CgzwqtHB_24" d="M229.8,520.91l-1.27,25.9a8.63,8.63,0,0,0,8.2,9.06l8.64.43a8.64,8.64,0,0,0,9.06-8.21l.32-6.47-8.64-.43-.32,6.48-8.63-.43,1.28-25.9,8.63.42-.32,6.48,8.64.42.32-6.47a8.64,8.64,0,0,0-8.21-9.06l-8.63-.43A8.66,8.66,0,0,0,229.8,520.91Z" transform="translate(-97.9 -19.09)"></path><path class="cls-2 CgzwqtHB_25" d="M384.7,109.3,371,31.7a13.38,13.38,0,0,0-15.5-10.9L212.9,46A13.38,13.38,0,0,0,202,61.5l8.4,47.8,7.9,44.6h0L206,156.1l-4.9-27.8a6.37,6.37,0,0,0-7.4-5.2l-6.9,1.2a6.37,6.37,0,0,0-5.2,7.4l12.6,71.6h20.1L210,178.8l4.4,24.5h31.9l-16.6-94-8.4-47.4L353.1,38.7l12.4,70.6,16.6,94h19.2Z" transform="translate(-97.9 -19.09)"></path><path class="cls-3 CgzwqtHB_26" d="M112.1,159.71L124.8,157.41L130.1,184.21L148.4,184.21"></path><path class="cls-4 CgzwqtHB_27" d="M645,57.15,541,339.22H583.7L605,277.33H718.8l21.26,61.89h42.68l-104-282.07ZM617.89,239.7l44-128,44,128Z" transform="translate(-97.9 -19.09)"></path><path class="cls-4 CgzwqtHB_28" d="M997.11,206.82a62,62,0,0,0-29.49-12.13q17.07-3.1,28.62-12.12a56.28,56.28,0,0,0,17.16-21.73,66.59,66.59,0,0,0,5.63-27.26q0-23.66-9.12-40.74T982.37,66.46q-18.43-9.31-45.79-9.31H825.42V339.22H939.88q25,0,43.84-9.51a67.79,67.79,0,0,0,28.91-27q10.08-17.46,10.09-40.35v-.59a73.45,73.45,0,0,0-6.6-31A63.25,63.25,0,0,0,997.11,206.82Zm-67.71-113q24.84,0,37.25,10.48t12.42,31.62q0,20.18-11.16,30.46t-33.07,10.28h-70V93.81ZM982.75,258.9q0,20.76-13.77,32.21t-43.84,11.44H864.8V212.34h70q16.68,0,27.35,5.53a34.31,34.31,0,0,1,15.62,15.81q4.94,10.29,4.94,24.64Z" transform="translate(-97.9 -19.09)"></path><path class="cls-4 CgzwqtHB_29" d="M855.88,291.86q-22.5-12.9-52-12.9t-52,12.9a88.07,88.07,0,0,0-34.82,36.47q-12.33,23.58-12.32,54.61v79.93q0,31,12.32,54.61A88.07,88.07,0,0,0,751.9,554q22.5,12.9,52,12.9t52-12.9a88.13,88.13,0,0,0,34.82-36.47Q903,493.92,903,462.87V382.94q0-31-12.32-54.61A88.13,88.13,0,0,0,855.88,291.86Zm6.6,172.37q0,19-7.28,33.46A52.9,52.9,0,0,1,834.64,520q-13.29,7.86-30.75,7.86T773.14,520a52.84,52.84,0,0,1-20.56-22.31q-7.27-14.44-7.28-33.46V381.58q0-19,7.28-33.46a52.9,52.9,0,0,1,20.56-22.31Q786.43,318,803.89,318t30.75,7.86a53,53,0,0,1,20.56,22.31q7.27,14.46,7.28,33.46Z" transform="translate(-97.9 -19.09)"></path><path class="cls-4 CgzwqtHB_30" d="M1121.85,463.26q0,30.84-15.62,47.72t-44.13,16.88q-28.33,0-43.85-16.88t-15.52-47.72V281.87H963.16v180q0,33.18,11.64,56.74a80.83,80.83,0,0,0,33.85,35.89q22.22,12.33,53.45,12.32,31.43,0,53.73-12.32a80.66,80.66,0,0,0,34-35.89q11.64-23.56,11.64-56.74v-180h-39.57Z" transform="translate(-97.9 -19.09)"></path><path class="cls-4 CgzwqtHB_31" d="M1289.72,262.78L1090.68,262.78L1090.68,300.42L1170.42,300.42L1170.42,544.85L1209.99,544.85L1209.99,300.42L1289.72,300.42L1289.72,262.78Z"></path><path class="cls-4 CgzwqtHB_32" d="M1525.62,538.84q-38-21-57.84-61.31t-19.88-96.94V73h67.61V382.91q0,52.69,26.51,81.53t74.9,28.83q48.72,0,75.4-28.83T1719,382.91V73h67.61V380.59q0,56.67-19.88,96.94t-58,61.31q-38.12,21.06-91.8,21Q1563.55,559.89,1525.62,538.84Z" transform="translate(-97.9 -19.09)"></path><path class="cls-4 CgzwqtHB_33" d="M1970,562.37l-31.15-6.63a248.41,248.41,0,0,1-58.16-19.88,245.3,245.3,0,0,1-50.54-33.14L1872.2,451a190.1,190.1,0,0,0,60.65,35.79q33.14,11.94,71.91,11.93,52.37,0,81.2-19.38t28.83-54.85v-.34q0-25.17-13.09-39.93t-33.8-21.87q-20.71-7.12-53.53-13.09a6.78,6.78,0,0,0-2.15-.34,6.46,6.46,0,0,1-2.15-.33l-5-1q-48.39-8.28-78.71-18.73t-51.86-38.11Q1853,263.12,1853,212.07v-.33q0-44.74,20-76.39t58.49-48.22Q1970,70.56,2024,70.56a231.32,231.32,0,0,1,50.88,5.63,253.17,253.17,0,0,1,49.38,16.74,284.06,284.06,0,0,1,47.89,28l-38.45,53.69q-27.51-20.2-54.85-30.32A157.14,157.14,0,0,0,2024,134.19q-49.38,0-76.72,19.72t-27.34,55.84v.33q0,24.85,14.09,39.11t35.13,21q21,6.79,58.49,14.09a24.37,24.37,0,0,0,2.49.5c.77.11,1.6.28,2.48.49,1.1.23,2.32.45,3.65.67s2.54.44,3.64.66q43.75,8.94,73.08,21.21t49.05,39.6q19.71,27.35,19.72,74.74v.66q0,44.08-20.88,75.4T2100.38,546q-39.62,16.41-95.62,16.4Z" transform="translate(-97.9 -19.09)"></path><style data-made-with="vivus-instant">.CgzwqtHB_0{stroke-dasharray:803 805;stroke-dashoffset:804;animation:CgzwqtHB_draw_0 9800ms ease-in-out 0ms infinite,CgzwqtHB_fade 9800ms linear 0ms infinite;}.CgzwqtHB_1{stroke-dasharray:281 283;stroke-dashoffset:282;animation:CgzwqtHB_draw_1 9800ms ease-in-out 0ms infinite,CgzwqtHB_fade 9800ms linear 0ms infinite;}.CgzwqtHB_2{stroke-dasharray:341 343;stroke-dashoffset:342;animation:CgzwqtHB_draw_2 9800ms ease-in-out 0ms infinite,CgzwqtHB_fade 9800ms linear 0ms infinite;}.CgzwqtHB_3{stroke-dasharray:222 224;stroke-dashoffset:223;animation:CgzwqtHB_draw_3 9800ms ease-in-out 0ms infinite,CgzwqtHB_fade 9800ms linear 0ms infinite;}.CgzwqtHB_4{stroke-dasharray:2451 2453;stroke-dashoffset:2452;animation:CgzwqtHB_draw_4 9800ms ease-in-out 0ms infinite,CgzwqtHB_fade 9800ms linear 0ms infinite;}.CgzwqtHB_5{stroke-dasharray:35 37;stroke-dashoffset:36;animation:CgzwqtHB_draw_5 9800ms ease-in-out 0ms infinite,CgzwqtHB_fade 9800ms linear 0ms infinite;}.CgzwqtHB_6{stroke-dasharray:34 36;stroke-dashoffset:35;animation:CgzwqtHB_draw_6 9800ms ease-in-out 0ms infinite,CgzwqtHB_fade 9800ms linear 0ms infinite;}.CgzwqtHB_7{stroke-dasharray:198 200;stroke-dashoffset:199;animation:CgzwqtHB_draw_7 9800ms ease-in-out 0ms infinite,CgzwqtHB_fade 9800ms linear 0ms infinite;}.CgzwqtHB_8{stroke-dasharray:198 200;stroke-dashoffset:199;animation:CgzwqtHB_draw_8 9800ms ease-in-out 0ms infinite,CgzwqtHB_fade 9800ms linear 0ms infinite;}.CgzwqtHB_9{stroke-dasharray:197 199;stroke-dashoffset:198;animation:CgzwqtHB_draw_9 9800ms ease-in-out 0ms infinite,CgzwqtHB_fade 9800ms linear 0ms infinite;}.CgzwqtHB_10{stroke-dasharray:34 36;stroke-dashoffset:35;animation:CgzwqtHB_draw_10 9800ms ease-in-out 0ms infinite,CgzwqtHB_fade 9800ms linear 0ms infinite;}.CgzwqtHB_11{stroke-dasharray:34 36;stroke-dashoffset:35;animation:CgzwqtHB_draw_11 9800ms ease-in-out 0ms infinite,CgzwqtHB_fade 9800ms linear 0ms infinite;}.CgzwqtHB_12{stroke-dasharray:198 200;stroke-dashoffset:199;animation:CgzwqtHB_draw_12 9800ms ease-in-out 0ms infinite,CgzwqtHB_fade 9800ms linear 0ms infinite;}.CgzwqtHB_13{stroke-dasharray:6 8;stroke-dashoffset:7;animation:CgzwqtHB_draw_13 9800ms ease-in-out 0ms infinite,CgzwqtHB_fade 9800ms linear 0ms infinite;}.CgzwqtHB_14{stroke-dasharray:182 184;stroke-dashoffset:183;animation:CgzwqtHB_draw_14 9800ms ease-in-out 0ms infinite,CgzwqtHB_fade 9800ms linear 0ms infinite;}.CgzwqtHB_15{stroke-dasharray:552 554;stroke-dashoffset:553;animation:CgzwqtHB_draw_15 9800ms ease-in-out 0ms infinite,CgzwqtHB_fade 9800ms linear 0ms infinite;}.CgzwqtHB_16{stroke-dasharray:228 230;stroke-dashoffset:229;animation:CgzwqtHB_draw_16 9800ms ease-in-out 0ms infinite,CgzwqtHB_fade 9800ms linear 0ms infinite;}.CgzwqtHB_17{stroke-dasharray:58 60;stroke-dashoffset:59;animation:CgzwqtHB_draw_17 9800ms ease-in-out 0ms infinite,CgzwqtHB_fade 9800ms linear 0ms infinite;}.CgzwqtHB_18{stroke-dasharray:299 301;stroke-dashoffset:300;animation:CgzwqtHB_draw_18 9800ms ease-in-out 0ms infinite,CgzwqtHB_fade 9800ms linear 0ms infinite;}.CgzwqtHB_19{stroke-dasharray:26 28;stroke-dashoffset:27;animation:CgzwqtHB_draw_19 9800ms ease-in-out 0ms infinite,CgzwqtHB_fade 9800ms linear 0ms infinite;}.CgzwqtHB_20{stroke-dasharray:26 28;stroke-dashoffset:27;animation:CgzwqtHB_draw_20 9800ms ease-in-out 0ms infinite,CgzwqtHB_fade 9800ms linear 0ms infinite;}.CgzwqtHB_21{stroke-dasharray:26 28;stroke-dashoffset:27;animation:CgzwqtHB_draw_21 9800ms ease-in-out 0ms infinite,CgzwqtHB_fade 9800ms linear 0ms infinite;}.CgzwqtHB_22{stroke-dasharray:206 208;stroke-dashoffset:207;animation:CgzwqtHB_draw_22 9800ms ease-in-out 0ms infinite,CgzwqtHB_fade 9800ms linear 0ms infinite;}.CgzwqtHB_23{stroke-dasharray:185 187;stroke-dashoffset:186;animation:CgzwqtHB_draw_23 9800ms ease-in-out 0ms infinite,CgzwqtHB_fade 9800ms linear 0ms infinite;}.CgzwqtHB_24{stroke-dasharray:184 186;stroke-dashoffset:185;animation:CgzwqtHB_draw_24 9800ms ease-in-out 0ms infinite,CgzwqtHB_fade 9800ms linear 0ms infinite;}.CgzwqtHB_25{stroke-dasharray:1162 1164;stroke-dashoffset:1163;animation:CgzwqtHB_draw_25 9800ms ease-in-out 0ms infinite,CgzwqtHB_fade 9800ms linear 0ms infinite;}.CgzwqtHB_26{stroke-dasharray:59 61;stroke-dashoffset:60;animation:CgzwqtHB_draw_26 9800ms ease-in-out 0ms infinite,CgzwqtHB_fade 9800ms linear 0ms infinite;}.CgzwqtHB_27{stroke-dasharray:1324 1326;stroke-dashoffset:1325;animation:CgzwqtHB_draw_27 9800ms ease-in-out 0ms infinite,CgzwqtHB_fade 9800ms linear 0ms infinite;}.CgzwqtHB_28{stroke-dasharray:1687 1689;stroke-dashoffset:1688;animation:CgzwqtHB_draw_28 9800ms ease-in-out 0ms infinite,CgzwqtHB_fade 9800ms linear 0ms infinite;}.CgzwqtHB_29{stroke-dasharray:1363 1365;stroke-dashoffset:1364;animation:CgzwqtHB_draw_29 9800ms ease-in-out 0ms infinite,CgzwqtHB_fade 9800ms linear 0ms infinite;}.CgzwqtHB_30{stroke-dasharray:1331 1333;stroke-dashoffset:1332;animation:CgzwqtHB_draw_30 9800ms ease-in-out 0ms infinite,CgzwqtHB_fade 9800ms linear 0ms infinite;}.CgzwqtHB_31{stroke-dasharray:963 965;stroke-dashoffset:964;animation:CgzwqtHB_draw_31 9800ms ease-in-out 0ms infinite,CgzwqtHB_fade 9800ms linear 0ms infinite;}.CgzwqtHB_32{stroke-dasharray:2273 2275;stroke-dashoffset:2274;animation:CgzwqtHB_draw_32 9800ms ease-in-out 0ms infinite,CgzwqtHB_fade 9800ms linear 0ms infinite;}.CgzwqtHB_33{stroke-dasharray:2301 2303;stroke-dashoffset:2302;animation:CgzwqtHB_draw_33 9800ms ease-in-out 0ms infinite,CgzwqtHB_fade 9800ms linear 0ms infinite;}@keyframes CgzwqtHB_draw{100%{stroke-dashoffset:0;}}@keyframes CgzwqtHB_fade{0%{stroke-opacity:1;}89.79591836734694%{stroke-opacity:1;}100%{stroke-opacity:0;}}@keyframes CgzwqtHB_draw_0{8.16326530612245%{stroke-dashoffset: 804}38.775510204081634%{ stroke-dashoffset: 0;}100%{ stroke-dashoffset: 0;}}@keyframes CgzwqtHB_draw_1{8.16326530612245%{stroke-dashoffset: 282}38.775510204081634%{ stroke-dashoffset: 0;}100%{ stroke-dashoffset: 0;}}@keyframes CgzwqtHB_draw_2{8.16326530612245%{stroke-dashoffset: 342}38.775510204081634%{ stroke-dashoffset: 0;}100%{ stroke-dashoffset: 0;}}@keyframes CgzwqtHB_draw_3{8.16326530612245%{stroke-dashoffset: 223}38.775510204081634%{ stroke-dashoffset: 0;}100%{ stroke-dashoffset: 0;}}@keyframes CgzwqtHB_draw_4{8.16326530612245%{stroke-dashoffset: 2452}38.775510204081634%{ stroke-dashoffset: 0;}100%{ stroke-dashoffset: 0;}}@keyframes CgzwqtHB_draw_5{8.16326530612245%{stroke-dashoffset: 36}38.775510204081634%{ stroke-dashoffset: 0;}100%{ stroke-dashoffset: 0;}}@keyframes CgzwqtHB_draw_6{8.16326530612245%{stroke-dashoffset: 35}38.775510204081634%{ stroke-dashoffset: 0;}100%{ stroke-dashoffset: 0;}}@keyframes CgzwqtHB_draw_7{8.16326530612245%{stroke-dashoffset: 199}38.775510204081634%{ stroke-dashoffset: 0;}100%{ stroke-dashoffset: 0;}}@keyframes CgzwqtHB_draw_8{8.16326530612245%{stroke-dashoffset: 199}38.775510204081634%{ stroke-dashoffset: 0;}100%{ stroke-dashoffset: 0;}}@keyframes CgzwqtHB_draw_9{8.16326530612245%{stroke-dashoffset: 198}38.775510204081634%{ stroke-dashoffset: 0;}100%{ stroke-dashoffset: 0;}}@keyframes CgzwqtHB_draw_10{8.16326530612245%{stroke-dashoffset: 35}38.775510204081634%{ stroke-dashoffset: 0;}100%{ stroke-dashoffset: 0;}}@keyframes CgzwqtHB_draw_11{8.16326530612245%{stroke-dashoffset: 35}38.775510204081634%{ stroke-dashoffset: 0;}100%{ stroke-dashoffset: 0;}}@keyframes CgzwqtHB_draw_12{8.16326530612245%{stroke-dashoffset: 199}38.775510204081634%{ stroke-dashoffset: 0;}100%{ stroke-dashoffset: 0;}}@keyframes CgzwqtHB_draw_13{8.16326530612245%{stroke-dashoffset: 7}38.775510204081634%{ stroke-dashoffset: 0;}100%{ stroke-dashoffset: 0;}}@keyframes CgzwqtHB_draw_14{8.16326530612245%{stroke-dashoffset: 183}38.775510204081634%{ stroke-dashoffset: 0;}100%{ stroke-dashoffset: 0;}}@keyframes CgzwqtHB_draw_15{8.16326530612245%{stroke-dashoffset: 553}38.775510204081634%{ stroke-dashoffset: 0;}100%{ stroke-dashoffset: 0;}}@keyframes CgzwqtHB_draw_16{8.16326530612245%{stroke-dashoffset: 229}38.775510204081634%{ stroke-dashoffset: 0;}100%{ stroke-dashoffset: 0;}}@keyframes CgzwqtHB_draw_17{8.16326530612245%{stroke-dashoffset: 59}38.775510204081634%{ stroke-dashoffset: 0;}100%{ stroke-dashoffset: 0;}}@keyframes CgzwqtHB_draw_18{8.16326530612245%{stroke-dashoffset: 300}38.775510204081634%{ stroke-dashoffset: 0;}100%{ stroke-dashoffset: 0;}}@keyframes CgzwqtHB_draw_19{8.16326530612245%{stroke-dashoffset: 27}38.775510204081634%{ stroke-dashoffset: 0;}100%{ stroke-dashoffset: 0;}}@keyframes CgzwqtHB_draw_20{8.16326530612245%{stroke-dashoffset: 27}38.775510204081634%{ stroke-dashoffset: 0;}100%{ stroke-dashoffset: 0;}}@keyframes CgzwqtHB_draw_21{8.16326530612245%{stroke-dashoffset: 27}38.775510204081634%{ stroke-dashoffset: 0;}100%{ stroke-dashoffset: 0;}}@keyframes CgzwqtHB_draw_22{8.16326530612245%{stroke-dashoffset: 207}38.775510204081634%{ stroke-dashoffset: 0;}100%{ stroke-dashoffset: 0;}}@keyframes CgzwqtHB_draw_23{8.16326530612245%{stroke-dashoffset: 186}38.775510204081634%{ stroke-dashoffset: 0;}100%{ stroke-dashoffset: 0;}}@keyframes CgzwqtHB_draw_24{8.16326530612245%{stroke-dashoffset: 185}38.775510204081634%{ stroke-dashoffset: 0;}100%{ stroke-dashoffset: 0;}}@keyframes CgzwqtHB_draw_25{8.16326530612245%{stroke-dashoffset: 1163}38.775510204081634%{ stroke-dashoffset: 0;}100%{ stroke-dashoffset: 0;}}@keyframes CgzwqtHB_draw_26{8.16326530612245%{stroke-dashoffset: 60}38.775510204081634%{ stroke-dashoffset: 0;}100%{ stroke-dashoffset: 0;}}@keyframes CgzwqtHB_draw_27{8.16326530612245%{stroke-dashoffset: 1325}38.775510204081634%{ stroke-dashoffset: 0;}100%{ stroke-dashoffset: 0;}}@keyframes CgzwqtHB_draw_28{8.16326530612245%{stroke-dashoffset: 1688}38.775510204081634%{ stroke-dashoffset: 0;}100%{ stroke-dashoffset: 0;}}@keyframes CgzwqtHB_draw_29{8.16326530612245%{stroke-dashoffset: 1364}38.775510204081634%{ stroke-dashoffset: 0;}100%{ stroke-dashoffset: 0;}}@keyframes CgzwqtHB_draw_30{8.16326530612245%{stroke-dashoffset: 1332}38.775510204081634%{ stroke-dashoffset: 0;}100%{ stroke-dashoffset: 0;}}@keyframes CgzwqtHB_draw_31{8.16326530612245%{stroke-dashoffset: 964}38.775510204081634%{ stroke-dashoffset: 0;}100%{ stroke-dashoffset: 0;}}@keyframes CgzwqtHB_draw_32{8.16326530612245%{stroke-dashoffset: 2274}38.775510204081634%{ stroke-dashoffset: 0;}100%{ stroke-dashoffset: 0;}}@keyframes CgzwqtHB_draw_33{8.16326530612245%{stroke-dashoffset: 2302}38.775510204081634%{ stroke-dashoffset: 0;}100%{ stroke-dashoffset: 0;}}</style></svg>