<svg id="Layer_1" data-name="Layer 1" xmlns="http://www.w3.org/2000/svg" viewBox="0 0 2909.9 916.46"><defs><style>.cls-1{fill:#fbbc05;}.cls-2{fill:#fff;}.cls-3{opacity:0.3;}</style></defs><title>about-us_header</title><rect class="cls-1" width="2909.9" height="916.46"/><path class="cls-2" d="M579.23,271,437.48,641.66h75.21l20.82-59.4h135.8l20.82,59.4h75.21L623.59,271ZM557.09,515,601.41,388.5,645.72,515Z"/><path class="cls-2" d="M985.48,386.72q-20-13.52-48.06-13.51a64.38,64.38,0,0,0-38.62,12.62A83.29,83.29,0,0,0,876,411.43V271H806.13V641.66H876V608.29a67.1,67.1,0,0,0,21.41,25.34q16.83,11.85,40,11.85,28,0,48.06-13.51t30.46-39.13q10.45-25.62,10.46-61.82V488.7q0-36.46-10.46-62.47T985.48,386.72ZM956.54,531q0,23.7-10.83,36.71t-30.47,13q-12.5,0-21.29-4.84a31.91,31.91,0,0,1-13.38-14Q876,552.69,876,539.68v-59.4q0-13.5,4.59-22.94A32.41,32.41,0,0,1,894,442.93q8.81-5,21.29-5,19.63,0,30.47,13.39T956.54,489Z"/><path class="cls-2" d="M1258.52,386.59q-25.62-13.38-61.83-13.38t-61.82,13.38a90.05,90.05,0,0,0-39,39q-13.39,25.62-13.39,61.57v43.08q0,36.46,13.39,62.33a90.39,90.39,0,0,0,39,39.39q25.62,13.51,61.82,13.51T1258.52,632a90.82,90.82,0,0,0,39-39.13q13.38-25.62,13.38-61.82V487.17q0-36-13.38-61.57A90.13,90.13,0,0,0,1258.52,386.59ZM1241.06,531q0,22.43-11.73,34.8t-32.89,12.36q-21.17,0-32.63-12.36T1152.34,531V487.17q0-22.18,11.6-34.42t32.5-12.24q21.16,0,32.89,12.24t11.73,34.42Z"/><path class="cls-2" d="M1520.22,536.37q0,20.14-10.58,31t-30.22,10.84q-19.62,0-30.46-10.58t-10.84-29.7V377h-69.85V540.45q0,50.22,23.2,77.63t65.77,27.4q24.73,0,41.94-14.78a81.87,81.87,0,0,0,21-27.62v38.58h69.59V377h-69.59Z"/><path class="cls-2" d="M1735.39,300h-69.86v77h-27.28v59.66h27.28V572.83q0,34.67,16.19,52.39t50.86,17.71h35.18v-67.3h-17.33q-7.4,0-11.22-5.23t-3.82-14.91V436.69h32.37V377h-32.37Z"/><path class="cls-2" d="M2119.07,509.35q0,31.86-17.21,49.45t-48.56,17.6q-31.11,0-48.19-17.6T1988,509.35V271h-69.85V507.56q0,43.59,15.81,74.57a107.59,107.59,0,0,0,46.14,47.17q30.33,16.19,73.17,16.18t73.29-16.18a108.22,108.22,0,0,0,46.4-47.17q15.93-31,15.94-74.57V271h-69.86Z"/><path class="cls-2" d="M2458.78,508.58q-13.64-16.83-33-22.43T2375.54,477a9.43,9.43,0,0,0-2.29-.26,9.53,9.53,0,0,1-2.3-.25l-4.58-.51-4.59-.51q-17.85-2-27.15-3.7a46.45,46.45,0,0,1-15.56-5.35q-6.24-3.69-6.24-10.33,0-8.65,11.72-13.51t32.89-4.84a132.46,132.46,0,0,1,36.2,5.35,168.54,168.54,0,0,1,36.21,15l41.55-50.73A185.12,185.12,0,0,0,2437.49,389a206.7,206.7,0,0,0-38.36-11.72,200.63,200.63,0,0,0-40.16-4.08q-34.41,0-58.63,9.81t-37,28.68q-12.75,18.87-12.75,45.38,0,30.35,12.37,46.27t30.21,21.55q17.84,5.61,47.42,9.43a18.48,18.48,0,0,1,2.16.13,15.54,15.54,0,0,1,2.17.38l9.56,1,9.31,1a244.81,244.81,0,0,1,25.74,3.44,36.09,36.09,0,0,1,15.05,6.5q5.85,4.59,5.86,13.51,0,9.69-13.51,15.17T2359,581a131.51,131.51,0,0,1-39.77-6.62,168.52,168.52,0,0,1-40-18.87l-43.08,53.79a154.35,154.35,0,0,0,34.67,19.63,210.61,210.61,0,0,0,42.07,12.37l22.43,4.2H2359q36,0,61.44-10.32t38.75-30q13.26-19.62,13.26-47.16Q2472.42,525.42,2458.78,508.58Z"/><g class="cls-3"><path class="cls-2" d="M1196.43,171.68a76.64,76.64,0,0,1-6.91-19.83q-1.74-9.33-2.89-22.94-.8-10.72-2-17.47a61,61,0,0,0-4.1-13.43A39.52,39.52,0,0,0,1172,85.67l-.11-.11q-7.85-7.84-16-8.3t-15.22,6.57q-6.92,6.92-6,15.56t9.45,17.41l.12.12-32.75,32.74-.11-.11q-14.64-15.8-19.66-32.34a55.59,55.59,0,0,1-.23-32.63q4.79-16.08,19.2-30.5,15-15,30.78-20.63a51.17,51.17,0,0,1,31-1.62q15.22,4,28.83,17.64l.11.12a68.93,68.93,0,0,1,13.55,18.5,75.6,75.6,0,0,1,6.4,18.62,208.75,208.75,0,0,1,2.77,22q1.14,12.47,2.59,20.24a66.36,66.36,0,0,0,5.3,16,55.06,55.06,0,0,0,11.13,15.51l-31.59,31.59A78.13,78.13,0,0,1,1196.43,171.68ZM1230,210.3l31.59-31.59,31.6,31.59-31.6,31.6Z"/></g><g class="cls-3"><path class="cls-2" d="M1648,800.25a76.57,76.57,0,0,1,19.83-6.92q9.35-1.73,23-2.88,10.71-.81,17.46-2a61.47,61.47,0,0,0,13.44-4.09,39.65,39.65,0,0,0,12.33-8.53l.12-.12q7.83-7.85,8.3-16t-6.57-15.21q-6.91-6.93-15.57-6t-17.41,9.45l-.11.12L1670,715.28l.12-.12q15.79-14.64,32.34-19.66a55.59,55.59,0,0,1,32.63-.23q16.08,4.79,30.49,19.2,15,15,20.64,30.78a51.27,51.27,0,0,1,1.61,31q-4,15.21-17.64,28.82l-.11.11a68.81,68.81,0,0,1-18.51,13.55,75.46,75.46,0,0,1-18.62,6.4,205.47,205.47,0,0,1-22,2.77q-12.45,1.16-20.23,2.59a66.57,66.57,0,0,0-16,5.3,55.16,55.16,0,0,0-15.5,11.13l-31.59-31.59A78.21,78.21,0,0,1,1648,800.25Zm-38.62,33.55L1641,865.39,1609.38,897l-31.59-31.59Z"/></g><g class="cls-3"><path class="cls-2" d="M236.1,470.68a76.26,76.26,0,0,1,20.73-2.83q9.46.15,23,1.72,10.63,1.33,17.46,1.49a60.81,60.81,0,0,0,13.93-1.34,39.51,39.51,0,0,0,13.74-5.89l.13-.09q9.21-6.11,11.28-14t-3.41-16.16q-5.38-8.13-14-8.94t-18.87,5.79l-.14.09-25.5-38.46.14-.09q18.31-11.18,35.47-12.8a55.37,55.37,0,0,1,31.91,6.24q14.76,7.85,26,24.78,11.67,17.6,14.06,34.15a51.11,51.11,0,0,1-4.56,30.61q-7,14.06-22.93,24.66l-.14.09a68.59,68.59,0,0,1-20.75,9.56,75.31,75.31,0,0,1-19.45,2.57,205.73,205.73,0,0,1-22.06-1.66q-12.39-1.34-20.27-1.47a65.85,65.85,0,0,0-16.7,2,54.45,54.45,0,0,0-17.35,7.8l-24.6-37.11A77.62,77.62,0,0,1,236.1,470.68ZM191.74,495.8l24.6,37.11-37.11,24.6-24.6-37.11Z"/></g><g class="cls-3"><path class="cls-2" d="M2406.63,159.29a76.52,76.52,0,0,1,19.83-6.91q9.35-1.74,22.95-2.89,10.71-.81,17.46-2a61,61,0,0,0,13.44-4.1,39.6,39.6,0,0,0,12.33-8.53l.12-.11q7.83-7.85,8.3-16t-6.57-15.22q-6.93-6.92-15.57-6T2461.51,107l-.11.12-32.75-32.75.12-.11q15.8-14.64,32.34-19.66a55.59,55.59,0,0,1,32.63-.23q16.08,4.78,30.49,19.2,15,15,20.64,30.78a51.24,51.24,0,0,1,1.61,31q-4,15.23-17.64,28.83l-.11.11a68.81,68.81,0,0,1-18.51,13.55,75.88,75.88,0,0,1-18.62,6.4,205.75,205.75,0,0,1-22,2.76q-12.45,1.15-20.23,2.6a66.57,66.57,0,0,0-16,5.3,55,55,0,0,0-15.5,11.13l-31.59-31.59A78.26,78.26,0,0,1,2406.63,159.29ZM2368,192.84l31.59,31.59L2368,256l-31.59-31.59Z"/></g><g class="cls-3"><path class="cls-2" d="M1859.35,208.6a30.56,30.56,0,0,1-1.12-8.31c0-2.52.28-5.59.7-9.2a69.93,69.93,0,0,0,.6-7,24.4,24.4,0,0,0-.53-5.58,15.76,15.76,0,0,0-2.36-5.5l0-.06a9.94,9.94,0,0,0-5.61-4.52,7.81,7.81,0,0,0-6.48,1.36,7.34,7.34,0,0,0-3.58,5.61q-.33,3.45,2.31,7.56l0,.06-15.42,10.2,0-.06a33.47,33.47,0,0,1-5.12-14.22,22.19,22.19,0,0,1,2.51-12.78,29.14,29.14,0,0,1,9.94-10.4,33.71,33.71,0,0,1,13.69-5.62,20.4,20.4,0,0,1,12.26,1.84,25.64,25.64,0,0,1,9.88,9.2l0,0a27.48,27.48,0,0,1,3.83,8.32,30.74,30.74,0,0,1,1,7.79,81,81,0,0,1-.68,8.84c-.36,3.31-.55,6-.59,8.12a26.29,26.29,0,0,0,.8,6.69,21.89,21.89,0,0,0,3.11,7l-14.87,9.84A31.21,31.21,0,0,1,1859.35,208.6Zm10.05,17.79,14.88-9.85,9.84,14.88-14.87,9.84Z"/></g><g class="cls-3"><path class="cls-2" d="M521.86,156.37a33,33,0,0,1,6.61-6.1q3.38-2.27,8.53-5.05a74.37,74.37,0,0,0,6.52-3.77,25.68,25.68,0,0,0,4.58-3.9,16.79,16.79,0,0,0,3.4-5.46l0-.06q1.74-4.42.53-7.72a8.39,8.39,0,0,0-5.18-4.86,8,8,0,0,0-7.14.3c-2.16,1.23-3.9,3.45-5.23,6.69l0,.06L516,119.22l0-.07a36.06,36.06,0,0,1,9.36-13.24,23.84,23.84,0,0,1,12.79-5.66,31.33,31.33,0,0,1,15.26,2.34,36.29,36.29,0,0,1,13.36,8.58,22,22,0,0,1,5.93,11.92,27.59,27.59,0,0,1-2,14.34l0,.06a29.24,29.24,0,0,1-5,8.48,32.41,32.41,0,0,1-6.22,5.7,88.37,88.37,0,0,1-8.19,4.84q-4.7,2.58-7.51,4.47a28.45,28.45,0,0,0-5.39,4.82,23.64,23.64,0,0,0-4.2,7l-17.81-7A33.66,33.66,0,0,1,521.86,156.37Zm-9.46,19.78,17.81,7-7,17.8-17.81-7Z"/></g><g class="cls-3"><path class="cls-2" d="M448.66,774.91a30.39,30.39,0,0,1-1.21-8.3q0-3.79.59-9.21c.33-2.84.5-5.18.53-7a24.49,24.49,0,0,0-.6-5.58,15.72,15.72,0,0,0-2.41-5.48l0-.05a9.94,9.94,0,0,0-5.66-4.46,7.8,7.8,0,0,0-6.46,1.43,7.35,7.35,0,0,0-3.52,5.65q-.3,3.47,2.39,7.54l0,0L417,759.87l0,0a33.39,33.39,0,0,1-5.27-14.16,22.15,22.15,0,0,1,2.36-12.81,29,29,0,0,1,9.83-10.51,33.74,33.74,0,0,1,13.62-5.78,20.46,20.46,0,0,1,12.28,1.71,25.71,25.71,0,0,1,10,9.08l0,.06a27.36,27.36,0,0,1,3.92,8.27,30,30,0,0,1,1.11,7.79,80.73,80.73,0,0,1-.58,8.84q-.48,5-.5,8.13a26,26,0,0,0,.87,6.68,21.89,21.89,0,0,0,3.2,6.92l-14.77,10A31.38,31.38,0,0,1,448.66,774.91Zm10.25,17.67,14.77-10,10,14.77-14.76,10Z"/></g><g class="cls-3"><path class="cls-2" d="M1019.47,800.14a43,43,0,0,1,10.21-6.16q5-2.06,12.4-4.29,5.87-1.71,9.47-3.17a34.48,34.48,0,0,0,7-3.84,22.4,22.4,0,0,0,5.85-6.19l0-.07q3.43-5.28,2.74-9.88t-5.43-7.68a10.53,10.53,0,0,0-9.35-1.51q-4.7,1.53-8.56,7.29l0,.08-22-14.35.06-.08q7.05-10,15.66-14.71a31.55,31.55,0,0,1,18.09-4q9.5.78,19.19,7.1,10.08,6.57,15.06,14.68a29,29,0,0,1,4.53,17q-.45,8.94-6.42,18.08l-.05.08a39.2,39.2,0,0,1-8.69,9.69,42.68,42.68,0,0,1-9.6,5.73,116.53,116.53,0,0,1-11.9,4.12q-6.78,2.1-10.94,3.81a37.7,37.7,0,0,0-8.28,4.82,31.08,31.08,0,0,0-7.31,8l-21.24-13.85A44.11,44.11,0,0,1,1019.47,800.14ZM1002,823.3l21.24,13.84-13.84,21.25L988.1,844.54Z"/></g><g class="cls-3"><path class="cls-2" d="M2468.24,797.14a30.43,30.43,0,0,1-1.22-8.3,91.58,91.58,0,0,1,.6-9.21c.32-2.84.5-5.18.52-7a25,25,0,0,0-.59-5.57,15.86,15.86,0,0,0-2.42-5.48l0-.06a9.94,9.94,0,0,0-5.66-4.46,7.84,7.84,0,0,0-6.46,1.43,7.39,7.39,0,0,0-3.52,5.65q-.28,3.47,2.4,7.54l0,.05-15.3,10.38,0-.06a33.52,33.52,0,0,1-5.27-14.16,22.19,22.19,0,0,1,2.37-12.81,29,29,0,0,1,9.82-10.51,33.71,33.71,0,0,1,13.62-5.77,20.41,20.41,0,0,1,12.29,1.7,25.72,25.72,0,0,1,10,9.09l0,0a27.48,27.48,0,0,1,3.91,8.28,30,30,0,0,1,1.11,7.78,82.82,82.82,0,0,1-.57,8.84q-.49,5-.51,8.13a26.83,26.83,0,0,0,.87,6.68,21.89,21.89,0,0,0,3.2,6.92l-14.77,10A31.34,31.34,0,0,1,2468.24,797.14Zm10.24,17.67,14.77-10,10,14.77-14.77,10Z"/></g><g class="cls-3"><path class="cls-2" d="M2642.07,529.05a76.64,76.64,0,0,1,1.67-20.94q2.18-9.24,6.61-22.15,3.58-10.14,5.2-16.8a61,61,0,0,0,1.66-13.94,39.48,39.48,0,0,0-2.83-14.73l-.06-.15q-4-10.33-11.32-14.06t-16.57-.12q-9.12,3.54-11.76,11.82t1.63,19.75l.06.15-43.17,16.76-.06-.15q-7-20.36-5-37.52a55.54,55.54,0,0,1,13-30Q2592,394.23,2611,386.85q19.76-7.67,36.49-6.47a51.23,51.23,0,0,1,29,11q12.3,9.84,19.27,27.77l0,.15a68.86,68.86,0,0,1,4.94,22.39,75.63,75.63,0,0,1-1.65,19.62,205.22,205.22,0,0,1-6.35,21.27q-4,11.86-5.78,19.56a66.54,66.54,0,0,0-1.61,16.81,54.93,54.93,0,0,0,3.93,18.67l-41.64,16.17A78.06,78.06,0,0,1,2642.07,529.05Zm15.13,48.87,41.65-16.17L2715,603.39l-41.64,16.18Z"/></g></svg>