<svg id="Layer_1" data-name="Layer 1" xmlns="http://www.w3.org/2000/svg" viewBox="0 0 2111.49 487.73" style=""><defs><style>.cls-1,.cls-2,.cls-3{fill:none;stroke:#f44336;stroke-width:3px;}.cls-1{stroke-miterlimit:10;}.cls-2,.cls-3{stroke-linejoin:round;}.cls-3{stroke-linecap:round;}</style></defs><title>ccxgci</title><path class="cls-1 fdFASxIs_0" d="M2118.56,273.9l-71.47,12.58,4.56,25.7,9,51h73.68l-9-51Zm-23.1,77.32-25.92-30.74,39.26-7.16Z" transform="translate(-94.4 -77.43)"></path><path class="cls-1 fdFASxIs_1" d="M2168.55,363.15V329.32a17.11,17.11,0,0,0-17.14-17.14h-15.72l9,51Z" transform="translate(-94.4 -77.43)"></path><path class="cls-1 fdFASxIs_2" d="M2025.51,324.33a3.45,3.45,0,0,1,2.82-4l3.74-.65a3.44,3.44,0,0,1,4,2.82l2.66,15.07,6.67-1.19-4.28-24.19h-7.27a17.1,17.1,0,0,0-17.13,17.14v33.83h15.67Z" transform="translate(-94.4 -77.43)"></path><path class="cls-1 fdFASxIs_3" d="M2001.06,273.79L2014.4,235.89L1975.14,243.05L2001.06,273.79Z"></path><path class="cls-1 fdFASxIs_4" d="M2198.15,363.15h-211a6.21,6.21,0,0,0-6.24,6.24V552.12a6.2,6.2,0,0,0,6.24,6.23h52.48a10.88,10.88,0,0,1-.49-4.17,687.48,687.48,0,0,0,2.34-99.61H2028.6a5,5,0,0,1-5-5v-5.64a5,5,0,0,1,5-5h128.13a5,5,0,0,1,5,5v5.64a5,5,0,0,1-5,5h-6.83a809.56,809.56,0,0,1-2.28,103.78h50.53a6.2,6.2,0,0,0,6.24-6.23V369.39A6.21,6.21,0,0,0,2198.15,363.15Zm-174.21,30.69a2.2,2.2,0,0,1-2.22,2.23H2000.3a2.21,2.21,0,0,1-2.23-2.23V376.38a2.2,2.2,0,0,1,2.23-2.22h21.42a2.2,2.2,0,0,1,2.22,2.22Zm168.9-6.77a2.89,2.89,0,0,1-2.88,2.87h-47.71a2.89,2.89,0,0,1-2.87-2.87v-3.15a2.89,2.89,0,0,1,2.87-2.87H2190a2.89,2.89,0,0,1,2.88,2.87Z" transform="translate(-94.4 -77.43)"></path><path class="cls-1 fdFASxIs_5" d="M2053.54,504.13h.06a2.92,2.92,0,0,0,3-2.87v-.06a3,3,0,1,0-3,2.93Z" transform="translate(-94.4 -77.43)"></path><path class="cls-1 fdFASxIs_6" d="M2105.38,509.88a2.94,2.94,0,0,0-3.31,2.55v.05a3.07,3.07,0,0,0,2.82,3.25,2.88,2.88,0,0,0,3-2.55A2.93,2.93,0,0,0,2105.38,509.88Z" transform="translate(-94.4 -77.43)"></path><path class="cls-1 fdFASxIs_7" d="M2097.68,509.12l-46.2-1.47a1,1,0,0,0-1,1l-.11,4a1,1,0,0,0,.92,1l46.2,1.9a1.05,1.05,0,0,0,1-1l.17-4.23h0A1,1,0,0,0,2097.68,509.12Z" transform="translate(-94.4 -77.43)"></path><path class="cls-1 fdFASxIs_8" d="M2107.33,499.09l-46.25-.71a1,1,0,0,0-1,1l0,4a1,1,0,0,0,.92,1l46.2,1.19h0a1.07,1.07,0,0,0,1-1l.05-4.34A1,1,0,0,0,2107.33,499.09Z" transform="translate(-94.4 -77.43)"></path><path class="cls-1 fdFASxIs_9" d="M2052.57,480.43a1,1,0,0,0-.92,1v4a1,1,0,0,0,1,1l46.2-.16a1,1,0,0,0,.92-1v-4.28a1.05,1.05,0,0,0-1-1Z" transform="translate(-94.4 -77.43)"></path><path class="cls-1 fdFASxIs_10" d="M2054.47,476.75a2.91,2.91,0,0,0,2.92-2.93v-.11a2.93,2.93,0,1,0-2.92,3Z" transform="translate(-94.4 -77.43)"></path><path class="cls-1 fdFASxIs_11" d="M2106.41,480.27a2.93,2.93,0,0,0-3.15,2.71h.06a3.07,3.07,0,0,0,2.93,3.15,2.93,2.93,0,0,0,.16-5.86Z" transform="translate(-94.4 -77.43)"></path><path class="cls-1 fdFASxIs_12" d="M2062,476.69l46.19-.86v.05a1,1,0,0,0,.93-1.08l-.06-4.34h0a1.07,1.07,0,0,0-1-1.09l-46.26,1.3h0a1,1,0,0,0-.92,1l.11,4A1,1,0,0,0,2062,476.69Z" transform="translate(-94.4 -77.43)"></path><path class="cls-1 fdFASxIs_13" d="M2105.49,454.68h0a2,2,0,0,0,.59-.11h-1.41A3.93,3.93,0,0,0,2105.49,454.68Z" transform="translate(-94.4 -77.43)"></path><path class="cls-1 fdFASxIs_14" d="M2050.94,456.47a1,1,0,0,0,1,.92l46.19-2.33a1,1,0,0,0,.71-.49h-48Z" transform="translate(-94.4 -77.43)"></path><path class="cls-1 fdFASxIs_15" d="M2098.82,454.57h57.85a5,5,0,0,0,5-5v-5.64a5,5,0,0,0-5-5H2028.6a5,5,0,0,0-5,5v5.64a5,5,0,0,0,5,5h70.22Z" transform="translate(-94.4 -77.43)"></path><path class="cls-1 fdFASxIs_16" d="M2021.72,374.16H2000.3a2.2,2.2,0,0,0-2.23,2.22v17.46a2.21,2.21,0,0,0,2.23,2.23h21.42a2.2,2.2,0,0,0,2.22-2.23V376.38A2.2,2.2,0,0,0,2021.72,374.16ZM2011,390.48a5,5,0,1,1,5-5A5,5,0,0,1,2011,390.48Z" transform="translate(-94.4 -77.43)"></path><path class="cls-1 fdFASxIs_17" d="M1911.59,308.06A4.99,4.99 0,1,1 1921.57,308.06A4.99,4.99 0,1,1 1911.59,308.06"></path><path class="cls-1 fdFASxIs_18" d="M2190,381.05h-47.71a2.89,2.89,0,0,0-2.87,2.87v3.15a2.89,2.89,0,0,0,2.87,2.87H2190a2.89,2.89,0,0,0,2.88-2.87v-3.15A2.89,2.89,0,0,0,2190,381.05Zm-43.91,6.67a2.23,2.23,0,1,1,2.22-2.23A2.21,2.21,0,0,1,2146.05,387.72Zm8.94,0a2.23,2.23,0,1,1,2.23-2.23A2.2,2.2,0,0,1,2155,387.72Zm8.89,0a2.23,2.23,0,1,1,2.23-2.23A2.2,2.2,0,0,1,2163.88,387.72Z" transform="translate(-94.4 -77.43)"></path><path class="cls-1 fdFASxIs_19" d="M2146.05,383.27a2.23,2.23,0,1,0,2.22,2.22A2.2,2.2,0,0,0,2146.05,383.27Z" transform="translate(-94.4 -77.43)"></path><path class="cls-1 fdFASxIs_20" d="M2163.88,383.27a2.23,2.23,0,1,0,2.23,2.22A2.2,2.2,0,0,0,2163.88,383.27Z" transform="translate(-94.4 -77.43)"></path><path class="cls-1 fdFASxIs_21" d="M2155,383.27a2.23,2.23,0,1,0,2.23,2.22A2.2,2.2,0,0,0,2155,383.27Z" transform="translate(-94.4 -77.43)"></path><path class="cls-1 fdFASxIs_22" d="M2039.66,558.35s.17,2.86,6.32,4.2,91.44,1.61,96.25,0,5.39-4.2,5.39-4.2" transform="translate(-94.4 -77.43)"></path><path id="C" class="cls-1 fdFASxIs_23" d="M2070.38,536.29l-.7,14.05a4.69,4.69,0,0,0,4.45,4.91l4.68.23a4.69,4.69,0,0,0,4.92-4.45l.17-3.51-4.68-.23-.17,3.51-4.69-.23.7-14.05,4.68.23-.17,3.51,4.68.24.17-3.52a4.68,4.68,0,0,0-4.45-4.91l-4.68-.23A4.68,4.68,0,0,0,2070.38,536.29Z" transform="translate(-94.4 -77.43)"></path><path id="C-2" data-name="C" class="cls-1 fdFASxIs_24" d="M2051.65,535.37l-.7,14a4.69,4.69,0,0,0,4.45,4.91l4.69.24a4.7,4.7,0,0,0,4.91-4.45l.17-3.52-4.68-.23-.17,3.51-4.68-.23.69-14,4.68.23-.17,3.51,4.68.23.17-3.51a4.67,4.67,0,0,0-4.45-4.91l-4.68-.23A4.68,4.68,0,0,0,2051.65,535.37Z" transform="translate(-94.4 -77.43)"></path><path class="cls-2 fdFASxIs_25" d="M2135.63,312.18l-7.42-42.07a7.26,7.26,0,0,0-8.41-5.91l-77.32,13.66a7.26,7.26,0,0,0-5.91,8.41l4.56,25.91,4.28,24.19h0l-6.67,1.19-2.66-15.07a3.44,3.44,0,0,0-4-2.82l-3.74.65a3.45,3.45,0,0,0-2.82,4l6.83,38.82h10.9l-2.33-13.28,2.39,13.28h17.29l-9-51-4.55-25.7,71.46-12.58,6.72,38.28,9,51h10.41Z" transform="translate(-94.4 -77.43)"></path><path class="cls-3 fdFASxIs_26" d="M1946.51,272.44L1953.4,271.19L1956.27,285.72L1966.19,285.72"></path><path class="cls-1 fdFASxIs_27" d="M238.56,527.49c-4.82-2-9.65-4-14.47-6-3.68-1.55-7.31-3.23-11-4.71A4.31,4.31,0,0,1,210,512a89,89,0,0,0-3.89-29.85,96.52,96.52,0,0,0-78.28-67.37,111.24,111.24,0,0,0-15.92-.87c-2.73,0-4.45-.72-5.5-3.36-3.27-8.22-6.68-16.38-10.07-24.55-.92-2.2-.18-3.78,1.46-5.3A90,90,0,0,0,120.1,348a97.62,97.62,0,0,0-2.36-78.4,86,86,0,0,0-19-26.56c-2.58-2.39-3.39-4.53-1.87-7.93,3.45-7.73,6.57-15.6,9.71-23.47,1-2.39,2.59-2.93,4.93-2.84,17.07.67,33-3.52,48-11.57a94.77,94.77,0,0,0,37.77-36.72,91.11,91.11,0,0,0,12.66-49.37c-.09-2.81.89-4.4,3.46-5.42q12.18-4.87,24.28-10c2.48-1,4.11,0,5.74,1.72a90.39,90.39,0,0,0,35.46,23.29,94.86,94.86,0,0,0,42.93,5.38A94.06,94.06,0,0,0,371,106.53a117.57,117.57,0,0,0,10.31-9.41c1.63-1.61,3.13-2.2,5.32-1.29,8.42,3.53,16.87,7,25.33,10.42,2.07.84,1.95,2.53,2,4.27.35,11.84,1.65,23.51,5.86,34.71,10.42,27.71,29.55,46.79,57,57.57a83.7,83.7,0,0,0,34.63,5.93c3.63-.16,5.61,1.06,6.91,4.39,3,7.61,6.16,15.15,9.36,22.67,1,2.45.58,4.12-1.34,6-14.6,14.46-24.31,31.67-27.71,52-4.67,28,1.17,53.51,18.59,76.12a143.68,143.68,0,0,0,9.65,10.86c1.34,1.42,1.88,2.7,1.11,4.56-3.47,8.44-6.92,16.89-10.29,25.37-1,2.4-2.52,3.24-5.06,3.14a91.06,91.06,0,0,0-41.06,8.18A95.06,95.06,0,0,0,428,460.54c-8.37,13.83-13.27,28.8-13.59,45.11-.05,2.66-.41,5.31-.5,8-.07,2.37-1.92,2.93-3.54,3.59-7.64,3.17-15.32,6.24-23,9.35-.7.28-1.38.62-2.07.94H383c-3.19-3.12-6.22-6.43-9.61-9.3-15.77-13.37-34.18-20.5-54.66-22a93,93,0,0,0-44.32,7.45c-12.73,5.55-24,13.18-33,23.82ZM414.42,311.57A102.18,102.18,0,0,0,313.1,209c-57.88-.47-102.8,46.39-103.2,101.56-.4,56.4,45,103.05,101.85,103.2A102.15,102.15,0,0,0,414.42,311.57Z" transform="translate(-94.4 -77.43)"></path><path class="cls-1 fdFASxIs_28" d="M764.56,323.87c0,7.13-.18,14.28.08,21.4a10.37,10.37,0,0,1-3.52,8.31A48.32,48.32,0,0,1,744,364.16c-14,5.16-28.35,6.7-42.92,3.62-22.09-4.67-35.7-18.71-41.49-40.15-2-7.25-2.58-15-2.94-22.53-.58-12.16-.16-24.29,3.12-36.23,6.06-22.06,22.23-36.5,44.9-38.76,10.93-1.09,21.91-.5,32.28,3.88,14.69,6.21,23,17.6,26.34,32.89,1.57,7.29,2.11,6.47-5.37,6.52-4.38,0-8.76-.16-13.13.06-2.89.15-4.3-.71-4.82-3.71a24,24,0,0,0-6.19-12.62,21.74,21.74,0,0,0-12.46-7c-9.05-1.46-18-1.73-26,4.11a29,29,0,0,0-11.6,17.47,131.87,131.87,0,0,0-3,21.66c-.49,10-.56,20,2.15,29.77,2.23,8.07,5.84,15.3,12.65,20.5,7.48,5.71,16.15,7,25.19,6a61.22,61.22,0,0,0,12.46-2.8c5.92-2,7.33-4.37,7.33-10.54,0-5.81-.07-11.61,0-17.42,0-2.33-.82-3.21-3.17-3.18-7.13.1-14.27-.05-21.41.07-2.64.05-3.54-.95-3.45-3.52.14-4,.08-8,0-12,0-2.05.8-2.9,2.88-2.9q23.13.06,46.25,0c2.31,0,2.93,1.07,2.91,3.16C764.53,308.26,764.56,316.06,764.56,323.87Z" transform="translate(-94.4 -77.43)"></path><path class="cls-1 fdFASxIs_29" d="M1056.88,359.54c-1.41,1-2.14,1.56-2.83,2.12-7.42,6-16,8.21-25.36,7.37-17.9-1.61-28.72-12.29-33.94-28.65-6-18.68-5.48-37.44,3.29-55.28,6.73-13.69,18.42-20.52,33.57-20.79,9.28-.16,17.84,2.58,24.72,9.29a15.22,15.22,0,0,0,1.29,1.12c.12.1.35.06.82.11.25-1.93.6-3.87.71-5.82.11-1.78.85-2.58,2.65-2.57q8,.06,16,0c1.81,0,2.64.81,2.58,2.59,0,.57,0,1.14,0,1.71q0,47.1,0,94.21a41.82,41.82,0,0,1-6.22,22.83c-5.92,9.31-14.5,14.88-25.15,17.37-16.42,3.83-31.76,1.47-45.62-8.39-7.48-5.33-7.43-5.79-2-12.89,1.61-2.12,3.22-4.26,5-6.21a2.67,2.67,0,0,1,2.45-.18c.89.43,1.49,1.44,2.27,2.13,9.81,8.77,21,11.05,33.38,6.71,8-2.81,11.55-9.23,12.4-17.28C1057.13,366.17,1056.88,363.25,1056.88,359.54Zm0-42.79c0-6.56.11-13.12-.07-19.68a10.3,10.3,0,0,0-1.55-5c-6.87-10.87-28.58-13.11-36.26,2.43-6.84,13.87-6.79,28.41-1.19,42.59,6.23,15.75,24.62,16.13,34.24,7.91,3-2.57,5.18-5.53,4.92-10C1056.67,328.93,1056.93,322.83,1056.93,316.75Z" transform="translate(-94.4 -77.43)"></path><path class="cls-1 fdFASxIs_30" d="M1576.59,274.19v-4q0-21.4,0-42.83c0-3.51.2-3.69,3.75-3.71,5,0,9.9,0,14.85,0,4.29,0,4.33,0,4.33,4.27q0,41.25,0,82.52,0,26.26,0,52.54c0,3.92-.12,4-4,4.05-4.56,0-9.13-.07-13.7,0-2.31.05-3.29-1-3.48-3.16-.17-1.94-.45-3.88-.75-6.4-1.94,1.72-3.36,3.07-4.88,4.3-13.53,10.95-38.81,10.1-51.49-8.42-6-8.8-8.87-18.58-9.82-29.12a82.9,82.9,0,0,1,2.37-29.11c3.13-11.68,9.34-21.21,20.26-27.08,11.73-6.31,30.35-5.6,41,5.07A14.55,14.55,0,0,0,1576.59,274.19Zm0,42.39c0-6.38.06-12.75,0-19.12a8.19,8.19,0,0,0-1-4.06c-4.47-7.14-11.07-10.56-19.43-10.24-7.85.29-14,3.84-17.32,11.06-6.09,13-6,26.62-2,40.08s16.06,18.87,29.18,13.85a16.45,16.45,0,0,0,10.59-15.31Q1576.59,324.71,1576.58,316.58Z" transform="translate(-94.4 -77.43)"></path><path class="cls-1 fdFASxIs_31" d="M1287.06,299.32c-.28-12.26.91-24.58,5.64-36.38,8.3-20.73,26.38-32.85,48.77-33.12,11.19-.13,21.8,1.56,31.46,7.48,12.76,7.83,19,19.83,21.5,34.12.94,5.37.86,5.39-4.55,5.39-5.23,0-10.47-.06-15.7,0-2.08,0-2.87-.73-3.42-2.81-1.26-4.75-2.36-9.72-4.67-14-4-7.31-11.18-10.1-19.14-10.53a45.53,45.53,0,0,0-12.45.86c-8.87,2.05-14.77,7.91-18.37,16.13-3.09,7.07-4.14,14.52-4.62,22.2-.7,11.26-.62,22.44,1.39,33.53,1.4,7.78,4.17,15,10.22,20.59,5.76,5.32,12.7,7,20.25,6.84a49.21,49.21,0,0,0,7.63-.92c8.81-1.63,14.73-6.76,17.68-15.19a57.45,57.45,0,0,0,2.12-8.28c.37-1.92,1.2-2.84,3.2-2.82q9.13.07,18.27,0c2.1,0,3,.86,2.67,3-2,13.81-7.48,25.74-19.11,34.11-7.67,5.53-16.45,8.16-25.78,9.22a62.15,62.15,0,0,1-20.41-.82c-17.85-3.89-29.88-14.69-36.84-31.39C1287.87,324.72,1286.83,312.26,1287.06,299.32Z" transform="translate(-94.4 -77.43)"></path><path class="cls-1 fdFASxIs_32" d="M1672.3,324.21q-14.7,0-29.4,0c-3.38,0-3.6.32-3,3.67,2.31,12.26,9.53,20.34,20.76,22.18,10,1.65,19.08-.66,26.43-8.16,4-4.06,4-4,8.09,0a57.21,57.21,0,0,0,6,5.63c2.48,1.83,1.71,3.26.21,5.14a42.2,42.2,0,0,1-24.59,15c-16,3.55-31.07,1.14-44.19-9.27-9.14-7.25-14.12-17.16-15.84-28.52-1.91-12.67-1.43-25.28,3.69-37.28,7-16.37,19.09-26.23,37.12-28,13.91-1.35,26.23,2,35.88,12.75,6.07,6.74,9.13,14.93,10.33,23.71.89,6.47.84,13.07,1.29,19.6.17,2.59-.84,3.53-3.46,3.5C1691.9,324.15,1682.1,324.21,1672.3,324.21ZM1661.22,307h15.12c6.36,0,6.4,0,5.14-6.33-1-5.21-2.7-10.2-7.17-13.55-9.68-7.24-22.91-5-29.34,5.27-2.12,3.38-3.12,7.48-4.52,11.29-1,2.58.31,3.38,2.8,3.35C1649.24,307,1655.23,307,1661.22,307Z" transform="translate(-94.4 -77.43)"></path><path class="cls-1 fdFASxIs_33" d="M1198.35,324.21h-28c-5.3,0-5.3,0-4.15,5.31,2.45,11.23,10.68,19.46,21.24,20.73,10,1.2,18.83-1.21,26-8.69,4-4.18,2.93-4.28,7.26-.06,2,1.92,3.88,3.94,6,5.74,2.94,2.55,2.93,2.73.39,5.85-7,8.59-16.27,13.31-27,15.23-12.48,2.23-24.45.59-35.57-5.75s-18-16.12-20.82-28.39c-3.25-14-2.84-28,2.78-41.45,6.88-16.41,19-26.18,37-28.08a44.78,44.78,0,0,1,22.87,3.25c11.23,4.86,18,13.69,21.57,25.14,2.88,9.29,3.28,18.87,3.12,28.51,0,2.49-1.5,2.68-3.39,2.67Q1213.05,324.19,1198.35,324.21ZM1187.14,307h15.12c6.42,0,6.47,0,5.23-6.25-1.08-5.41-2.81-10.54-7.58-13.92-9.68-6.86-22.59-4.56-28.89,5.49-2.13,3.38-3.14,7.47-4.56,11.27-.91,2.47.09,3.48,2.7,3.44C1175.15,307,1181.15,307,1187.14,307Z" transform="translate(-94.4 -77.43)"></path><path class="cls-1 fdFASxIs_34" d="M1500.21,314.48c-.21,13.74-2.23,24.75-8.53,34.64a41.1,41.1,0,0,1-26.88,18.71c-13.79,3-26.86,1.34-38.79-6.62-8.89-5.92-14.18-14.54-17.16-24.51-4.41-14.74-4.3-29.58,1.53-43.9,6.87-16.86,19.44-26.5,37.87-28.13,13.09-1.15,25,1.71,35.11,10.28,8.75,7.38,13.43,17.12,15.5,28.17C1499.7,307.58,1500,312.16,1500.21,314.48ZM1428.69,317c.85,5.33,1.29,10.76,2.62,16,2.54,10,10.69,17.08,19.2,17.44,12.09.53,19.32-4,23.55-15.27,3.37-8.93,3.7-18.26,2.17-27.53a45.61,45.61,0,0,0-4.56-13.67c-7.26-13.79-27.5-14.64-36.24-1.8C1430.3,299.64,1429.25,308.13,1428.69,317Z" transform="translate(-94.4 -77.43)"></path><path class="cls-1 fdFASxIs_35" d="M874.87,314.54c-.21,13.74-2.25,24.74-8.56,34.63a41.11,41.11,0,0,1-26.91,18.68c-13.79,3-26.87,1.32-38.78-6.67-8.94-6-14.31-14.69-17.22-24.8-4.23-14.66-4.17-29.41,1.65-43.63,6.9-16.85,19.48-26.47,37.91-28.08,13.09-1.14,24.95,1.73,35.1,10.31,8.74,7.39,13.41,17.14,15.47,28.19C874.36,307.64,874.61,312.21,874.87,314.54ZM803.36,317c.83,5.33,1.28,10.76,2.6,16,2.48,9.81,10.52,17,18.87,17.47,12,.72,19.79-3.82,23.75-14.93,1.76-4.92,2.34-10.36,2.81-15.62.79-9-.35-17.81-4.91-25.91a21.6,21.6,0,0,0-36.67-1.37C804.88,299.94,803.92,308.28,803.36,317Z" transform="translate(-94.4 -77.43)"></path><path class="cls-1 fdFASxIs_36" d="M980,314.48c-.21,13.74-2.23,24.74-8.53,34.64a41.1,41.1,0,0,1-26.88,18.71c-13.79,3-26.85,1.32-38.8-6.61-7.75-5.14-12.86-12.45-16-21-5.7-15.77-5.94-31.79.34-47.4,6.79-16.89,19.42-26.51,37.86-28.14,13.08-1.15,25,1.7,35.11,10.28,8.75,7.38,13.43,17.12,15.5,28.17C979.43,307.58,979.69,312.15,980,314.48Zm-70.76,2.37a44.31,44.31,0,0,0,1.8,16.08c2.68,9.77,10.57,17,18.92,17.46,12,.72,19.79-3.83,23.75-14.93,1.76-4.92,2.35-10.36,2.81-15.62.79-9-.35-17.81-4.91-25.91a21.61,21.61,0,0,0-36.68-1.37C910,299.94,909,308.28,909.19,316.85Z" transform="translate(-94.4 -77.43)"></path><path class="cls-1 fdFASxIs_37" d="M1845.59,276.78c3.78-2.81,6.8-5.69,10.35-7.56,12.33-6.5,25-7.11,37.35-.2,7.91,4.44,11.4,12.3,12.76,21a100.15,100.15,0,0,1,1.19,14.47c.13,19.5,0,39,0,58.52,0,4.38-.18,4.56-4.44,4.57q-7.41,0-14.84,0c-3.89,0-4.16-.28-4.16-4.28q0-30.82,0-61.66a32.09,32.09,0,0,0-.51-5.95c-1.51-7.93-6.18-11.6-14.28-12.08-7.86-.47-14.4,1.7-19.57,7.82a10.1,10.1,0,0,0-2.75,6.91c.08,21.41,0,42.82,0,64.23,0,5,0,5-5.13,5-4.95,0-9.9-.08-14.85,0-2.6.06-3.49-1-3.49-3.57q.08-47.11,0-94.21c0-2.38.71-3.48,3.26-3.42,5.23.13,10.47.1,15.7,0,2.31,0,3.35,1,3.35,3.21Z" transform="translate(-94.4 -77.43)"></path><path class="cls-1 fdFASxIs_38" d="M1124.9,295.4q0,33.69,0,67.36c0,4.24,0,4.28-4.32,4.28h-15.13c-3.86,0-4-.13-4-4q0-45.53,0-91.05,0-22,0-43.95c0-4.13.21-4.33,4.38-4.34h14.84c4.17,0,4.21.05,4.21,4.39Q1124.92,261.73,1124.9,295.4Z" transform="translate(-94.4 -77.43)"></path><path class="cls-1 fdFASxIs_39" d="M1803.36,317.06V363c0,4.45-.14,4.58-4.71,4.59-5.13,0-10.27-.07-15.4,0-2.45,0-3.36-1-3.36-3.41q.06-47.35,0-94.71c0-2.16.77-3.09,3-3.06,5.8.08,11.6.11,17.4,0,2.73-.06,3.07,1.38,3.07,3.58C1803.34,285.68,1803.36,301.37,1803.36,317.06Z" transform="translate(-94.4 -77.43)"></path><path class="cls-1 fdFASxIs_40" d="M1738.86,319.05c-6.94,0-13.88,0-20.82,0-3.64,0-3.8-.18-3.81-3.92,0-4,0-8,0-12,0-2,.6-3,2.76-3q21.83.06,43.63,0c2.1,0,2.87.91,2.84,2.94-.07,4.28-.1,8.56,0,12.83.06,2.36-.9,3.19-3.2,3.17C1753.12,319,1746,319.05,1738.86,319.05Z" transform="translate(-94.4 -77.43)"></path><path class="cls-1 fdFASxIs_41" d="M1791.94,228.19c7.94,0,12.62,4.54,12.61,12.2s-4.9,12.38-12.92,12.37c-7.59,0-12.89-5.06-12.88-12.27C1778.75,232.69,1783.6,228.18,1791.94,228.19Z" transform="translate(-94.4 -77.43)"></path><path class="cls-1 fdFASxIs_42" d="M311.78,371.07c-32.18.38-59.6-26.48-59.53-59.9a60,60,0,0,1,60.43-59.67c31.37.37,59.49,25.1,59.37,60.14A59.29,59.29,0,0,1,311.78,371.07Z" transform="translate(-94.4 -77.43)"></path><path class="cls-1 fdFASxIs_43" d="M712.47,82a25.47,25.47,0,0,0-12.68-3.08H668.61v80.53h11.3V128.22h19.88a25.66,25.66,0,0,0,12.68-3,21.13,21.13,0,0,0,8.5-8.62,26.73,26.73,0,0,0,3-12.93,26.9,26.9,0,0,0-3-13A21.23,21.23,0,0,0,712.47,82Zm-1.58,28.88a11.33,11.33,0,0,1-4.29,4.87,11.9,11.9,0,0,1-6.42,1.72H679.91V89.68h20.27a11.83,11.83,0,0,1,6.42,1.74,11.53,11.53,0,0,1,4.29,4.9,18.11,18.11,0,0,1,0,14.57Z" transform="translate(-94.4 -77.43)"></path><path class="cls-1 fdFASxIs_44" d="M768.13,103.66a27.38,27.38,0,0,0-12.24-2.52A31,31,0,0,0,744,103.33a21.62,21.62,0,0,0-8.61,6.12l8.25,5.65a19.9,19.9,0,0,1,5.84-2.94,22.05,22.05,0,0,1,6.73-1c3.69,0,6.55,1,8.56,3.13s3,5,3,8.78v2.43H752q-9.75,0-14.57,4.27t-4.82,12.79q0,9,5.27,13.38t15.89,4.4a25.75,25.75,0,0,0,6.48-.75,16,16,0,0,0,5.07-2.24A13,13,0,0,0,767.8,155v4.44h10.74V122.52A23.39,23.39,0,0,0,775.88,111,17.48,17.48,0,0,0,768.13,103.66Zm-3.52,46.05c-2.12.92-5.34,1.39-9.66,1.39-4,0-6.9-.7-8.83-2.11s-2.91-3.56-2.91-6.48c0-2.69.73-4.7,2.19-6s3.66-2,6.61-2H767.8v10.85Q767.8,148.33,764.61,149.71Z" transform="translate(-94.4 -77.43)"></path><path class="cls-1 fdFASxIs_45" d="M822,101.14a16.26,16.26,0,0,0-9.31,2.85,20.24,20.24,0,0,0-5.7,6v-8h-11.3v57.49H807V123.07c0-3.5,1-6.25,3-8.22s4.76-3,8.34-3a13.6,13.6,0,0,1,5.26,1,9.43,9.43,0,0,1,3.77,2.77l7.36-10a15.79,15.79,0,0,0-5.56-3.35A21.06,21.06,0,0,0,822,101.14Z" transform="translate(-94.4 -77.43)"></path><path class="cls-1 fdFASxIs_46" d="M856.91,85.25h-11.3V102h-5.92v10.19h5.92v32.35q0,7.53,3.24,11.38t10.22,3.85h6.54V149h-5.43a2.86,2.86,0,0,1-2.44-1.13,5.46,5.46,0,0,1-.83-3.24V112.16h8.7V102h-8.7Z" transform="translate(-94.4 -77.43)"></path><path class="cls-1 fdFASxIs_47" width="11.3" height="11.3" d="M786.71 1.5 L798.01 1.5 L798.01 12.8 L786.71 12.8 Z"></path><path class="cls-1 fdFASxIs_48" width="11.3" height="57.49" d="M786.71 24.54 L798.01 24.54 L798.01 82.03 L786.71 82.03 Z"></path><path class="cls-1 fdFASxIs_49" d="M922.82,115.54q3.6-3.66,10.13-3.66a16.15,16.15,0,0,1,6.81,1.5,17.07,17.07,0,0,1,5.71,4.26l8.14-7.31a19.55,19.55,0,0,0-5.26-5,25.08,25.08,0,0,0-7.12-3.13,32,32,0,0,0-8.45-1.08,28.7,28.7,0,0,0-13.43,2.91,19.79,19.79,0,0,0-8.5,8.44,28.3,28.3,0,0,0-2.93,13.35v9.47a28.87,28.87,0,0,0,2.93,13.52,19.81,19.81,0,0,0,8.5,8.52l5.57,2.94h7.86a32.66,32.66,0,0,0,8.4-1,24.93,24.93,0,0,0,7.11-3.08,20,20,0,0,0,5.32-4.9l-8.14-7.86a16.67,16.67,0,0,1-5.65,4.54,15.4,15.4,0,0,1-6.87,1.61q-6.59,0-10.16-3.71t-3.57-10.53v-9.47Q919.22,119.2,922.82,115.54Z" transform="translate(-94.4 -77.43)"></path><path class="cls-1 fdFASxIs_50" width="11.3" height="11.3" d="M871.67 1.5 L882.9699999999999 1.5 L882.9699999999999 12.8 L871.67 12.8 Z"></path><path class="cls-1 fdFASxIs_51" width="11.3" height="57.49" d="M871.67 24.54 L882.9699999999999 24.54 L882.9699999999999 82.03 L871.67 82.03 Z"></path><path class="cls-1 fdFASxIs_52" d="M1031.28,103.88a19.14,19.14,0,0,0-10.44-2.74,16.79,16.79,0,0,0-9.36,2.74,19.15,19.15,0,0,0-5.64,5.79V102h-11.3v80.86h11.3V152.09a14.68,14.68,0,0,0,5.09,5.62,16.85,16.85,0,0,0,9.36,2.58,20.24,20.24,0,0,0,10.75-2.74,17.3,17.3,0,0,0,6.81-8,30.55,30.55,0,0,0,2.32-12.52V124.57a31.85,31.85,0,0,0-2.27-12.69A17.22,17.22,0,0,0,1031.28,103.88Zm-2.4,33.2q0,6.21-3.08,9.61t-8.67,3.41a12.47,12.47,0,0,1-6.12-1.39,9.25,9.25,0,0,1-3.85-4,13.86,13.86,0,0,1-1.32-6.32V122.74a13.42,13.42,0,0,1,1.32-6.18,9,9,0,0,1,3.85-3.9,12.93,12.93,0,0,1,6.12-1.33q5.6,0,8.67,3.49t3.08,9.8Z" transform="translate(-94.4 -77.43)"></path><path class="cls-1 fdFASxIs_53" d="M1089,103.66a27.38,27.38,0,0,0-12.24-2.52,31,31,0,0,0-11.88,2.19,21.62,21.62,0,0,0-8.61,6.12l8.25,5.65a19.9,19.9,0,0,1,5.84-2.94,22.05,22.05,0,0,1,6.73-1c3.69,0,6.55,1,8.56,3.13s3,5,3,8.78v2.43h-15.84q-9.75,0-14.57,4.27t-4.82,12.79q0,9,5.27,13.38t15.89,4.4a25.75,25.75,0,0,0,6.48-.75,16,16,0,0,0,5.07-2.24,13,13,0,0,0,2.52-2.28v4.44h10.74V122.52a23.39,23.39,0,0,0-2.66-11.55A17.48,17.48,0,0,0,1089,103.66Zm-3.52,46.05c-2.12.92-5.34,1.39-9.66,1.39-3.95,0-6.9-.7-8.83-2.11s-2.91-3.56-2.91-6.48c0-2.69.73-4.7,2.19-6s3.66-2,6.61-2h15.79v10.85Q1088.69,148.33,1085.5,149.71Z" transform="translate(-94.4 -77.43)"></path><path class="cls-1 fdFASxIs_54" d="M1129.39,85.25H1118.1V102h-5.93v10.19h5.93v32.35q0,7.53,3.24,11.38t10.22,3.85h6.53V149h-5.43a2.83,2.83,0,0,1-2.43-1.13,5.39,5.39,0,0,1-.84-3.24V112.16h8.7V102h-8.7Z" transform="translate(-94.4 -77.43)"></path><path class="cls-1 fdFASxIs_55" width="11.3" height="57.49" d="M1059.2 24.54 L1070.5 24.54 L1070.5 82.03 L1059.2 82.03 Z"></path><path class="cls-1 fdFASxIs_56" width="11.3" height="11.3" d="M1059.2 1.5 L1070.5 1.5 L1070.5 12.8 L1059.2 12.8 Z"></path><path class="cls-1 fdFASxIs_57" d="M1208.65,101.14a16.87,16.87,0,0,0-9.5,2.83,19.56,19.56,0,0,0-5.79,6v-8h-11.3v57.49h11.3V123.07q0-5.31,3-8.25c2-2,4.87-2.94,8.56-2.94s6.75,1.11,8.86,3.33,3.16,5.35,3.16,9.41v34.84h11.29V124.57q0-11.19-5.12-17.31T1208.65,101.14Z" transform="translate(-94.4 -77.43)"></path><path class="cls-1 fdFASxIs_58" d="M1278.1,109.2a19.18,19.18,0,0,0-5.68-5.57,17.21,17.21,0,0,0-9.33-2.66,19.16,19.16,0,0,0-10.44,2.75,17.18,17.18,0,0,0-6.62,8,32,32,0,0,0-2.27,12.68v12.68a31.1,31.1,0,0,0,2.33,12.63,17.24,17.24,0,0,0,6.78,8,20.14,20.14,0,0,0,10.77,2.75,15.72,15.72,0,0,0,9.61-2.88,16.53,16.53,0,0,0,4.85-5.52v7.34q0,6.54-3.55,10.11t-10,3.57a13.36,13.36,0,0,1-6.45-1.66,15.78,15.78,0,0,1-5.29-4.71l-7.64,6.93a18.63,18.63,0,0,0,7.94,6.78l5.13,2.41h6.48A28.23,28.23,0,0,0,1278,179.9a19.7,19.7,0,0,0,8.45-8.59,29.3,29.3,0,0,0,2.91-13.57V102h-11.3Zm-1.33,35.47a9.36,9.36,0,0,1-3.85,4.07,12.36,12.36,0,0,1-6.12,1.41q-5.6,0-8.67-3.4t-3.07-9.67V124.57q0-6.31,3.07-9.8t8.67-3.49a12.81,12.81,0,0,1,6.12,1.35,9.15,9.15,0,0,1,3.85,4,13.58,13.58,0,0,1,1.33,6.26V138.3A14,14,0,0,1,1276.77,144.67Z" transform="translate(-94.4 -77.43)"></path><path class="cls-1 fdFASxIs_59" width="11.3" height="11.3" d="M1231.55 1.5 L1242.85 1.5 L1242.85 12.8 L1231.55 12.8 Z"></path><path class="cls-1 fdFASxIs_60" width="11.3" height="57.49" d="M1231.55 24.54 L1242.85 24.54 L1242.85 82.03 L1231.55 82.03 Z"></path><path class="cls-1 fdFASxIs_61" d="M1395.48,107.26q-5.12-6.12-14.48-6.12a16.87,16.87,0,0,0-9.5,2.83,19.68,19.68,0,0,0-5.79,6v-8h-11.29v57.49h11.29V123.07q0-5.31,3-8.25t8.56-2.94q5.7,0,8.86,3.33t3.16,9.41v34.84h11.3V124.57Q1400.61,113.38,1395.48,107.26Z" transform="translate(-94.4 -77.43)"></path><path class="cls-1 fdFASxIs_62" d="M1672.27,432.86L1658.13,392.43L1650.38,392.43L1636.25,432.86L1626.21,392.43L1614.59,392.43L1632.05,449.07L1640.45,449.07L1654.26,409.94L1668.06,449.07L1676.47,449.07L1693.93,392.43L1682.31,392.43L1672.27,432.86Z"></path><path class="cls-1 fdFASxIs_63" width="11.13" height="11.13" d="M1705.93 369.73 L1717.0600000000002 369.73 L1717.0600000000002 380.86 L1705.93 380.86 Z"></path><path class="cls-1 fdFASxIs_64" width="11.13" height="56.64" d="M1705.93 392.43 L1717.0600000000002 392.43 L1717.0600000000002 449.07 L1705.93 449.07 Z"></path><path class="cls-1 fdFASxIs_65" d="M1841,453.38h-11.14v16.48H1824v10h5.83v31.87q0,7.41,3.2,11.21t10.06,3.79h6.44V516.19h-5.34a2.82,2.82,0,0,1-2.41-1.12,5.4,5.4,0,0,1-.81-3.2v-32h8.56v-10H1841Z" transform="translate(-94.4 -77.43)"></path><path class="cls-1 fdFASxIs_66" d="M1905.29,475.07q-5-6-14.27-6a16.79,16.79,0,0,0-9.35,2.75,19.5,19.5,0,0,0-5.71,5.83V447.16h-11.13V526.5H1876v-36c0-3.45,1-6.13,3-8s4.79-2.83,8.43-2.83,6.66,1.09,8.73,3.27,3.11,5.27,3.11,9.28V526.5h11.13V492.12Q1910.34,481.1,1905.29,475.07Z" transform="translate(-94.4 -77.43)"></path><path class="cls-1 fdFASxIs_67" d="M562.04,351.07L1815.94,351.07"></path><path class="cls-1 fdFASxIs_68" d="M562.04,127.94L1815.94,127.94"></path><style data-made-with="vivus-instant">.fdFASxIs_0{stroke-dasharray:436 438;stroke-dashoffset:437;animation:fdFASxIs_draw_0 9800ms ease-in-out 0ms infinite,fdFASxIs_fade 9800ms linear 0ms infinite;}.fdFASxIs_1{stroke-dasharray:153 155;stroke-dashoffset:154;animation:fdFASxIs_draw_1 9800ms ease-in-out 0ms infinite,fdFASxIs_fade 9800ms linear 0ms infinite;}.fdFASxIs_2{stroke-dasharray:185 187;stroke-dashoffset:186;animation:fdFASxIs_draw_2 9800ms ease-in-out 0ms infinite,fdFASxIs_fade 9800ms linear 0ms infinite;}.fdFASxIs_3{stroke-dasharray:121 123;stroke-dashoffset:122;animation:fdFASxIs_draw_3 9800ms ease-in-out 0ms infinite,fdFASxIs_fade 9800ms linear 0ms infinite;}.fdFASxIs_4{stroke-dasharray:1329 1331;stroke-dashoffset:1330;animation:fdFASxIs_draw_4 9800ms ease-in-out 0ms infinite,fdFASxIs_fade 9800ms linear 0ms infinite;}.fdFASxIs_5{stroke-dasharray:20 22;stroke-dashoffset:21;animation:fdFASxIs_draw_5 9800ms ease-in-out 0ms infinite,fdFASxIs_fade 9800ms linear 0ms infinite;}.fdFASxIs_6{stroke-dasharray:19 21;stroke-dashoffset:20;animation:fdFASxIs_draw_6 9800ms ease-in-out 0ms infinite,fdFASxIs_fade 9800ms linear 0ms infinite;}.fdFASxIs_7{stroke-dasharray:108 110;stroke-dashoffset:109;animation:fdFASxIs_draw_7 9800ms ease-in-out 0ms infinite,fdFASxIs_fade 9800ms linear 0ms infinite;}.fdFASxIs_8{stroke-dasharray:108 110;stroke-dashoffset:109;animation:fdFASxIs_draw_8 9800ms ease-in-out 0ms infinite,fdFASxIs_fade 9800ms linear 0ms infinite;}.fdFASxIs_9{stroke-dasharray:107 109;stroke-dashoffset:108;animation:fdFASxIs_draw_9 9800ms ease-in-out 0ms infinite,fdFASxIs_fade 9800ms linear 0ms infinite;}.fdFASxIs_10{stroke-dasharray:19 21;stroke-dashoffset:20;animation:fdFASxIs_draw_10 9800ms ease-in-out 0ms infinite,fdFASxIs_fade 9800ms linear 0ms infinite;}.fdFASxIs_11{stroke-dasharray:19 21;stroke-dashoffset:20;animation:fdFASxIs_draw_11 9800ms ease-in-out 0ms infinite,fdFASxIs_fade 9800ms linear 0ms infinite;}.fdFASxIs_12{stroke-dasharray:108 110;stroke-dashoffset:109;animation:fdFASxIs_draw_12 9800ms ease-in-out 0ms infinite,fdFASxIs_fade 9800ms linear 0ms infinite;}.fdFASxIs_13{stroke-dasharray:3 5;stroke-dashoffset:4;animation:fdFASxIs_draw_13 9800ms ease-in-out 0ms infinite,fdFASxIs_fade 9800ms linear 0ms infinite;}.fdFASxIs_14{stroke-dasharray:99 101;stroke-dashoffset:100;animation:fdFASxIs_draw_14 9800ms ease-in-out 0ms infinite,fdFASxIs_fade 9800ms linear 0ms infinite;}.fdFASxIs_15{stroke-dasharray:299 301;stroke-dashoffset:300;animation:fdFASxIs_draw_15 9800ms ease-in-out 0ms infinite,fdFASxIs_fade 9800ms linear 0ms infinite;}.fdFASxIs_16{stroke-dasharray:124 126;stroke-dashoffset:125;animation:fdFASxIs_draw_16 9800ms ease-in-out 0ms infinite,fdFASxIs_fade 9800ms linear 0ms infinite;}.fdFASxIs_17{stroke-dasharray:32 34;stroke-dashoffset:33;animation:fdFASxIs_draw_17 9800ms ease-in-out 0ms infinite,fdFASxIs_fade 9800ms linear 0ms infinite;}.fdFASxIs_18{stroke-dasharray:163 165;stroke-dashoffset:164;animation:fdFASxIs_draw_18 9800ms ease-in-out 0ms infinite,fdFASxIs_fade 9800ms linear 0ms infinite;}.fdFASxIs_19{stroke-dasharray:15 17;stroke-dashoffset:16;animation:fdFASxIs_draw_19 9800ms ease-in-out 0ms infinite,fdFASxIs_fade 9800ms linear 0ms infinite;}.fdFASxIs_20{stroke-dasharray:15 17;stroke-dashoffset:16;animation:fdFASxIs_draw_20 9800ms ease-in-out 0ms infinite,fdFASxIs_fade 9800ms linear 0ms infinite;}.fdFASxIs_21{stroke-dasharray:15 17;stroke-dashoffset:16;animation:fdFASxIs_draw_21 9800ms ease-in-out 0ms infinite,fdFASxIs_fade 9800ms linear 0ms infinite;}.fdFASxIs_22{stroke-dasharray:112 114;stroke-dashoffset:113;animation:fdFASxIs_draw_22 9800ms ease-in-out 0ms infinite,fdFASxIs_fade 9800ms linear 0ms infinite;}.fdFASxIs_23{stroke-dasharray:100 102;stroke-dashoffset:101;animation:fdFASxIs_draw_23 9800ms ease-in-out 0ms infinite,fdFASxIs_fade 9800ms linear 0ms infinite;}.fdFASxIs_24{stroke-dasharray:100 102;stroke-dashoffset:101;animation:fdFASxIs_draw_24 9800ms ease-in-out 0ms infinite,fdFASxIs_fade 9800ms linear 0ms infinite;}.fdFASxIs_25{stroke-dasharray:630 632;stroke-dashoffset:631;animation:fdFASxIs_draw_25 9800ms ease-in-out 0ms infinite,fdFASxIs_fade 9800ms linear 0ms infinite;}.fdFASxIs_26{stroke-dasharray:32 34;stroke-dashoffset:33;animation:fdFASxIs_draw_26 9800ms ease-in-out 0ms infinite,fdFASxIs_fade 9800ms linear 0ms infinite;}.fdFASxIs_27{stroke-dasharray:2196 2198;stroke-dashoffset:2197;animation:fdFASxIs_draw_27 9800ms ease-in-out 0ms infinite,fdFASxIs_fade 9800ms linear 0ms infinite;}.fdFASxIs_28{stroke-dasharray:737 739;stroke-dashoffset:738;animation:fdFASxIs_draw_28 9800ms ease-in-out 0ms infinite,fdFASxIs_fade 9800ms linear 0ms infinite;}.fdFASxIs_29{stroke-dasharray:718 720;stroke-dashoffset:719;animation:fdFASxIs_draw_29 9800ms ease-in-out 0ms infinite,fdFASxIs_fade 9800ms linear 0ms infinite;}.fdFASxIs_30{stroke-dasharray:632 634;stroke-dashoffset:633;animation:fdFASxIs_draw_30 9800ms ease-in-out 0ms infinite,fdFASxIs_fade 9800ms linear 0ms infinite;}.fdFASxIs_31{stroke-dasharray:628 630;stroke-dashoffset:629;animation:fdFASxIs_draw_31 9800ms ease-in-out 0ms infinite,fdFASxIs_fade 9800ms linear 0ms infinite;}.fdFASxIs_32{stroke-dasharray:551 553;stroke-dashoffset:552;animation:fdFASxIs_draw_32 9800ms ease-in-out 0ms infinite,fdFASxIs_fade 9800ms linear 0ms infinite;}.fdFASxIs_33{stroke-dasharray:552 554;stroke-dashoffset:553;animation:fdFASxIs_draw_33 9800ms ease-in-out 0ms infinite,fdFASxIs_fade 9800ms linear 0ms infinite;}.fdFASxIs_34{stroke-dasharray:504 506;stroke-dashoffset:505;animation:fdFASxIs_draw_34 9800ms ease-in-out 0ms infinite,fdFASxIs_fade 9800ms linear 0ms infinite;}.fdFASxIs_35{stroke-dasharray:504 506;stroke-dashoffset:505;animation:fdFASxIs_draw_35 9800ms ease-in-out 0ms infinite,fdFASxIs_fade 9800ms linear 0ms infinite;}.fdFASxIs_36{stroke-dasharray:504 506;stroke-dashoffset:505;animation:fdFASxIs_draw_36 9800ms ease-in-out 0ms infinite,fdFASxIs_fade 9800ms linear 0ms infinite;}.fdFASxIs_37{stroke-dasharray:521 523;stroke-dashoffset:522;animation:fdFASxIs_draw_37 9800ms ease-in-out 0ms infinite,fdFASxIs_fade 9800ms linear 0ms infinite;}.fdFASxIs_38{stroke-dasharray:330 332;stroke-dashoffset:331;animation:fdFASxIs_draw_38 9800ms ease-in-out 0ms infinite,fdFASxIs_fade 9800ms linear 0ms infinite;}.fdFASxIs_39{stroke-dasharray:245 247;stroke-dashoffset:246;animation:fdFASxIs_draw_39 9800ms ease-in-out 0ms infinite,fdFASxIs_fade 9800ms linear 0ms infinite;}.fdFASxIs_40{stroke-dasharray:133 135;stroke-dashoffset:134;animation:fdFASxIs_draw_40 9800ms ease-in-out 0ms infinite,fdFASxIs_fade 9800ms linear 0ms infinite;}.fdFASxIs_41{stroke-dasharray:81 83;stroke-dashoffset:82;animation:fdFASxIs_draw_41 9800ms ease-in-out 0ms infinite,fdFASxIs_fade 9800ms linear 0ms infinite;}.fdFASxIs_42{stroke-dasharray:377 379;stroke-dashoffset:378;animation:fdFASxIs_draw_42 9800ms ease-in-out 0ms infinite,fdFASxIs_fade 9800ms linear 0ms infinite;}.fdFASxIs_43{stroke-dasharray:362 364;stroke-dashoffset:363;animation:fdFASxIs_draw_43 9800ms ease-in-out 0ms infinite,fdFASxIs_fade 9800ms linear 0ms infinite;}.fdFASxIs_44{stroke-dasharray:321 323;stroke-dashoffset:322;animation:fdFASxIs_draw_44 9800ms ease-in-out 0ms infinite,fdFASxIs_fade 9800ms linear 0ms infinite;}.fdFASxIs_45{stroke-dasharray:198 200;stroke-dashoffset:199;animation:fdFASxIs_draw_45 9800ms ease-in-out 0ms infinite,fdFASxIs_fade 9800ms linear 0ms infinite;}.fdFASxIs_46{stroke-dasharray:212 214;stroke-dashoffset:213;animation:fdFASxIs_draw_46 9800ms ease-in-out 0ms infinite,fdFASxIs_fade 9800ms linear 0ms infinite;}.fdFASxIs_47{stroke-dasharray:46 48;stroke-dashoffset:47;animation:fdFASxIs_draw_47 9800ms ease-in-out 0ms infinite,fdFASxIs_fade 9800ms linear 0ms infinite;}.fdFASxIs_48{stroke-dasharray:138 140;stroke-dashoffset:139;animation:fdFASxIs_draw_48 9800ms ease-in-out 0ms infinite,fdFASxIs_fade 9800ms linear 0ms infinite;}.fdFASxIs_49{stroke-dasharray:243 245;stroke-dashoffset:244;animation:fdFASxIs_draw_49 9800ms ease-in-out 0ms infinite,fdFASxIs_fade 9800ms linear 0ms infinite;}.fdFASxIs_50{stroke-dasharray:46 48;stroke-dashoffset:47;animation:fdFASxIs_draw_50 9800ms ease-in-out 0ms infinite,fdFASxIs_fade 9800ms linear 0ms infinite;}.fdFASxIs_51{stroke-dasharray:138 140;stroke-dashoffset:139;animation:fdFASxIs_draw_51 9800ms ease-in-out 0ms infinite,fdFASxIs_fade 9800ms linear 0ms infinite;}.fdFASxIs_52{stroke-dasharray:365 367;stroke-dashoffset:366;animation:fdFASxIs_draw_52 9800ms ease-in-out 0ms infinite,fdFASxIs_fade 9800ms linear 0ms infinite;}.fdFASxIs_53{stroke-dasharray:321 323;stroke-dashoffset:322;animation:fdFASxIs_draw_53 9800ms ease-in-out 0ms infinite,fdFASxIs_fade 9800ms linear 0ms infinite;}.fdFASxIs_54{stroke-dasharray:212 214;stroke-dashoffset:213;animation:fdFASxIs_draw_54 9800ms ease-in-out 0ms infinite,fdFASxIs_fade 9800ms linear 0ms infinite;}.fdFASxIs_55{stroke-dasharray:138 140;stroke-dashoffset:139;animation:fdFASxIs_draw_55 9800ms ease-in-out 0ms infinite,fdFASxIs_fade 9800ms linear 0ms infinite;}.fdFASxIs_56{stroke-dasharray:46 48;stroke-dashoffset:47;animation:fdFASxIs_draw_56 9800ms ease-in-out 0ms infinite,fdFASxIs_fade 9800ms linear 0ms infinite;}.fdFASxIs_57{stroke-dasharray:297 299;stroke-dashoffset:298;animation:fdFASxIs_draw_57 9800ms ease-in-out 0ms infinite,fdFASxIs_fade 9800ms linear 0ms infinite;}.fdFASxIs_58{stroke-dasharray:413 415;stroke-dashoffset:414;animation:fdFASxIs_draw_58 9800ms ease-in-out 0ms infinite,fdFASxIs_fade 9800ms linear 0ms infinite;}.fdFASxIs_59{stroke-dasharray:46 48;stroke-dashoffset:47;animation:fdFASxIs_draw_59 9800ms ease-in-out 0ms infinite,fdFASxIs_fade 9800ms linear 0ms infinite;}.fdFASxIs_60{stroke-dasharray:138 140;stroke-dashoffset:139;animation:fdFASxIs_draw_60 9800ms ease-in-out 0ms infinite,fdFASxIs_fade 9800ms linear 0ms infinite;}.fdFASxIs_61{stroke-dasharray:297 299;stroke-dashoffset:298;animation:fdFASxIs_draw_61 9800ms ease-in-out 0ms infinite,fdFASxIs_fade 9800ms linear 0ms infinite;}.fdFASxIs_62{stroke-dasharray:419 421;stroke-dashoffset:420;animation:fdFASxIs_draw_62 9800ms ease-in-out 0ms infinite,fdFASxIs_fade 9800ms linear 0ms infinite;}.fdFASxIs_63{stroke-dasharray:45 47;stroke-dashoffset:46;animation:fdFASxIs_draw_63 9800ms ease-in-out 0ms infinite,fdFASxIs_fade 9800ms linear 0ms infinite;}.fdFASxIs_64{stroke-dasharray:136 138;stroke-dashoffset:137;animation:fdFASxIs_draw_64 9800ms ease-in-out 0ms infinite,fdFASxIs_fade 9800ms linear 0ms infinite;}.fdFASxIs_65{stroke-dasharray:209 211;stroke-dashoffset:210;animation:fdFASxIs_draw_65 9800ms ease-in-out 0ms infinite,fdFASxIs_fade 9800ms linear 0ms infinite;}.fdFASxIs_66{stroke-dasharray:338 340;stroke-dashoffset:339;animation:fdFASxIs_draw_66 9800ms ease-in-out 0ms infinite,fdFASxIs_fade 9800ms linear 0ms infinite;}.fdFASxIs_67{stroke-dasharray:1254 1256;stroke-dashoffset:1255;animation:fdFASxIs_draw_67 9800ms ease-in-out 0ms infinite,fdFASxIs_fade 9800ms linear 0ms infinite;}.fdFASxIs_68{stroke-dasharray:1254 1256;stroke-dashoffset:1255;animation:fdFASxIs_draw_68 9800ms ease-in-out 0ms infinite,fdFASxIs_fade 9800ms linear 0ms infinite;}@keyframes fdFASxIs_draw{100%{stroke-dashoffset:0;}}@keyframes fdFASxIs_fade{0%{stroke-opacity:1;}89.79591836734694%{stroke-opacity:1;}100%{stroke-opacity:0;}}@keyframes fdFASxIs_draw_0{8.16326530612245%{stroke-dashoffset: 437}38.775510204081634%{ stroke-dashoffset: 0;}100%{ stroke-dashoffset: 0;}}@keyframes fdFASxIs_draw_1{8.16326530612245%{stroke-dashoffset: 154}38.775510204081634%{ stroke-dashoffset: 0;}100%{ stroke-dashoffset: 0;}}@keyframes fdFASxIs_draw_2{8.16326530612245%{stroke-dashoffset: 186}38.775510204081634%{ stroke-dashoffset: 0;}100%{ stroke-dashoffset: 0;}}@keyframes fdFASxIs_draw_3{8.16326530612245%{stroke-dashoffset: 122}38.775510204081634%{ stroke-dashoffset: 0;}100%{ stroke-dashoffset: 0;}}@keyframes fdFASxIs_draw_4{8.16326530612245%{stroke-dashoffset: 1330}38.775510204081634%{ stroke-dashoffset: 0;}100%{ stroke-dashoffset: 0;}}@keyframes fdFASxIs_draw_5{8.16326530612245%{stroke-dashoffset: 21}38.775510204081634%{ stroke-dashoffset: 0;}100%{ stroke-dashoffset: 0;}}@keyframes fdFASxIs_draw_6{8.16326530612245%{stroke-dashoffset: 20}38.775510204081634%{ stroke-dashoffset: 0;}100%{ stroke-dashoffset: 0;}}@keyframes fdFASxIs_draw_7{8.16326530612245%{stroke-dashoffset: 109}38.775510204081634%{ stroke-dashoffset: 0;}100%{ stroke-dashoffset: 0;}}@keyframes fdFASxIs_draw_8{8.16326530612245%{stroke-dashoffset: 109}38.775510204081634%{ stroke-dashoffset: 0;}100%{ stroke-dashoffset: 0;}}@keyframes fdFASxIs_draw_9{8.16326530612245%{stroke-dashoffset: 108}38.775510204081634%{ stroke-dashoffset: 0;}100%{ stroke-dashoffset: 0;}}@keyframes fdFASxIs_draw_10{8.16326530612245%{stroke-dashoffset: 20}38.775510204081634%{ stroke-dashoffset: 0;}100%{ stroke-dashoffset: 0;}}@keyframes fdFASxIs_draw_11{8.16326530612245%{stroke-dashoffset: 20}38.775510204081634%{ stroke-dashoffset: 0;}100%{ stroke-dashoffset: 0;}}@keyframes fdFASxIs_draw_12{8.16326530612245%{stroke-dashoffset: 109}38.775510204081634%{ stroke-dashoffset: 0;}100%{ stroke-dashoffset: 0;}}@keyframes fdFASxIs_draw_13{8.16326530612245%{stroke-dashoffset: 4}38.775510204081634%{ stroke-dashoffset: 0;}100%{ stroke-dashoffset: 0;}}@keyframes fdFASxIs_draw_14{8.16326530612245%{stroke-dashoffset: 100}38.775510204081634%{ stroke-dashoffset: 0;}100%{ stroke-dashoffset: 0;}}@keyframes fdFASxIs_draw_15{8.16326530612245%{stroke-dashoffset: 300}38.775510204081634%{ stroke-dashoffset: 0;}100%{ stroke-dashoffset: 0;}}@keyframes fdFASxIs_draw_16{8.16326530612245%{stroke-dashoffset: 125}38.775510204081634%{ stroke-dashoffset: 0;}100%{ stroke-dashoffset: 0;}}@keyframes fdFASxIs_draw_17{8.16326530612245%{stroke-dashoffset: 33}38.775510204081634%{ stroke-dashoffset: 0;}100%{ stroke-dashoffset: 0;}}@keyframes fdFASxIs_draw_18{8.16326530612245%{stroke-dashoffset: 164}38.775510204081634%{ stroke-dashoffset: 0;}100%{ stroke-dashoffset: 0;}}@keyframes fdFASxIs_draw_19{8.16326530612245%{stroke-dashoffset: 16}38.775510204081634%{ stroke-dashoffset: 0;}100%{ stroke-dashoffset: 0;}}@keyframes fdFASxIs_draw_20{8.16326530612245%{stroke-dashoffset: 16}38.775510204081634%{ stroke-dashoffset: 0;}100%{ stroke-dashoffset: 0;}}@keyframes fdFASxIs_draw_21{8.16326530612245%{stroke-dashoffset: 16}38.775510204081634%{ stroke-dashoffset: 0;}100%{ stroke-dashoffset: 0;}}@keyframes fdFASxIs_draw_22{8.16326530612245%{stroke-dashoffset: 113}38.775510204081634%{ stroke-dashoffset: 0;}100%{ stroke-dashoffset: 0;}}@keyframes fdFASxIs_draw_23{8.16326530612245%{stroke-dashoffset: 101}38.775510204081634%{ stroke-dashoffset: 0;}100%{ stroke-dashoffset: 0;}}@keyframes fdFASxIs_draw_24{8.16326530612245%{stroke-dashoffset: 101}38.775510204081634%{ stroke-dashoffset: 0;}100%{ stroke-dashoffset: 0;}}@keyframes fdFASxIs_draw_25{8.16326530612245%{stroke-dashoffset: 631}38.775510204081634%{ stroke-dashoffset: 0;}100%{ stroke-dashoffset: 0;}}@keyframes fdFASxIs_draw_26{8.16326530612245%{stroke-dashoffset: 33}38.775510204081634%{ stroke-dashoffset: 0;}100%{ stroke-dashoffset: 0;}}@keyframes fdFASxIs_draw_27{8.16326530612245%{stroke-dashoffset: 2197}38.775510204081634%{ stroke-dashoffset: 0;}100%{ stroke-dashoffset: 0;}}@keyframes fdFASxIs_draw_28{8.16326530612245%{stroke-dashoffset: 738}38.775510204081634%{ stroke-dashoffset: 0;}100%{ stroke-dashoffset: 0;}}@keyframes fdFASxIs_draw_29{8.16326530612245%{stroke-dashoffset: 719}38.775510204081634%{ stroke-dashoffset: 0;}100%{ stroke-dashoffset: 0;}}@keyframes fdFASxIs_draw_30{8.16326530612245%{stroke-dashoffset: 633}38.775510204081634%{ stroke-dashoffset: 0;}100%{ stroke-dashoffset: 0;}}@keyframes fdFASxIs_draw_31{8.16326530612245%{stroke-dashoffset: 629}38.775510204081634%{ stroke-dashoffset: 0;}100%{ stroke-dashoffset: 0;}}@keyframes fdFASxIs_draw_32{8.16326530612245%{stroke-dashoffset: 552}38.775510204081634%{ stroke-dashoffset: 0;}100%{ stroke-dashoffset: 0;}}@keyframes fdFASxIs_draw_33{8.16326530612245%{stroke-dashoffset: 553}38.775510204081634%{ stroke-dashoffset: 0;}100%{ stroke-dashoffset: 0;}}@keyframes fdFASxIs_draw_34{8.16326530612245%{stroke-dashoffset: 505}38.775510204081634%{ stroke-dashoffset: 0;}100%{ stroke-dashoffset: 0;}}@keyframes fdFASxIs_draw_35{8.16326530612245%{stroke-dashoffset: 505}38.775510204081634%{ stroke-dashoffset: 0;}100%{ stroke-dashoffset: 0;}}@keyframes fdFASxIs_draw_36{8.16326530612245%{stroke-dashoffset: 505}38.775510204081634%{ stroke-dashoffset: 0;}100%{ stroke-dashoffset: 0;}}@keyframes fdFASxIs_draw_37{8.16326530612245%{stroke-dashoffset: 522}38.775510204081634%{ stroke-dashoffset: 0;}100%{ stroke-dashoffset: 0;}}@keyframes fdFASxIs_draw_38{8.16326530612245%{stroke-dashoffset: 331}38.775510204081634%{ stroke-dashoffset: 0;}100%{ stroke-dashoffset: 0;}}@keyframes fdFASxIs_draw_39{8.16326530612245%{stroke-dashoffset: 246}38.775510204081634%{ stroke-dashoffset: 0;}100%{ stroke-dashoffset: 0;}}@keyframes fdFASxIs_draw_40{8.16326530612245%{stroke-dashoffset: 134}38.775510204081634%{ stroke-dashoffset: 0;}100%{ stroke-dashoffset: 0;}}@keyframes fdFASxIs_draw_41{8.16326530612245%{stroke-dashoffset: 82}38.775510204081634%{ stroke-dashoffset: 0;}100%{ stroke-dashoffset: 0;}}@keyframes fdFASxIs_draw_42{8.16326530612245%{stroke-dashoffset: 378}38.775510204081634%{ stroke-dashoffset: 0;}100%{ stroke-dashoffset: 0;}}@keyframes fdFASxIs_draw_43{8.16326530612245%{stroke-dashoffset: 363}38.775510204081634%{ stroke-dashoffset: 0;}100%{ stroke-dashoffset: 0;}}@keyframes fdFASxIs_draw_44{8.16326530612245%{stroke-dashoffset: 322}38.775510204081634%{ stroke-dashoffset: 0;}100%{ stroke-dashoffset: 0;}}@keyframes fdFASxIs_draw_45{8.16326530612245%{stroke-dashoffset: 199}38.775510204081634%{ stroke-dashoffset: 0;}100%{ stroke-dashoffset: 0;}}@keyframes fdFASxIs_draw_46{8.16326530612245%{stroke-dashoffset: 213}38.775510204081634%{ stroke-dashoffset: 0;}100%{ stroke-dashoffset: 0;}}@keyframes fdFASxIs_draw_47{8.16326530612245%{stroke-dashoffset: 47}38.775510204081634%{ stroke-dashoffset: 0;}100%{ stroke-dashoffset: 0;}}@keyframes fdFASxIs_draw_48{8.16326530612245%{stroke-dashoffset: 139}38.775510204081634%{ stroke-dashoffset: 0;}100%{ stroke-dashoffset: 0;}}@keyframes fdFASxIs_draw_49{8.16326530612245%{stroke-dashoffset: 244}38.775510204081634%{ stroke-dashoffset: 0;}100%{ stroke-dashoffset: 0;}}@keyframes fdFASxIs_draw_50{8.16326530612245%{stroke-dashoffset: 47}38.775510204081634%{ stroke-dashoffset: 0;}100%{ stroke-dashoffset: 0;}}@keyframes fdFASxIs_draw_51{8.16326530612245%{stroke-dashoffset: 139}38.775510204081634%{ stroke-dashoffset: 0;}100%{ stroke-dashoffset: 0;}}@keyframes fdFASxIs_draw_52{8.16326530612245%{stroke-dashoffset: 366}38.775510204081634%{ stroke-dashoffset: 0;}100%{ stroke-dashoffset: 0;}}@keyframes fdFASxIs_draw_53{8.16326530612245%{stroke-dashoffset: 322}38.775510204081634%{ stroke-dashoffset: 0;}100%{ stroke-dashoffset: 0;}}@keyframes fdFASxIs_draw_54{8.16326530612245%{stroke-dashoffset: 213}38.775510204081634%{ stroke-dashoffset: 0;}100%{ stroke-dashoffset: 0;}}@keyframes fdFASxIs_draw_55{8.16326530612245%{stroke-dashoffset: 139}38.775510204081634%{ stroke-dashoffset: 0;}100%{ stroke-dashoffset: 0;}}@keyframes fdFASxIs_draw_56{8.16326530612245%{stroke-dashoffset: 47}38.775510204081634%{ stroke-dashoffset: 0;}100%{ stroke-dashoffset: 0;}}@keyframes fdFASxIs_draw_57{8.16326530612245%{stroke-dashoffset: 298}38.775510204081634%{ stroke-dashoffset: 0;}100%{ stroke-dashoffset: 0;}}@keyframes fdFASxIs_draw_58{8.16326530612245%{stroke-dashoffset: 414}38.775510204081634%{ stroke-dashoffset: 0;}100%{ stroke-dashoffset: 0;}}@keyframes fdFASxIs_draw_59{8.16326530612245%{stroke-dashoffset: 47}38.775510204081634%{ stroke-dashoffset: 0;}100%{ stroke-dashoffset: 0;}}@keyframes fdFASxIs_draw_60{8.16326530612245%{stroke-dashoffset: 139}38.775510204081634%{ stroke-dashoffset: 0;}100%{ stroke-dashoffset: 0;}}@keyframes fdFASxIs_draw_61{8.16326530612245%{stroke-dashoffset: 298}38.775510204081634%{ stroke-dashoffset: 0;}100%{ stroke-dashoffset: 0;}}@keyframes fdFASxIs_draw_62{8.16326530612245%{stroke-dashoffset: 420}38.775510204081634%{ stroke-dashoffset: 0;}100%{ stroke-dashoffset: 0;}}@keyframes fdFASxIs_draw_63{8.16326530612245%{stroke-dashoffset: 46}38.775510204081634%{ stroke-dashoffset: 0;}100%{ stroke-dashoffset: 0;}}@keyframes fdFASxIs_draw_64{8.16326530612245%{stroke-dashoffset: 137}38.775510204081634%{ stroke-dashoffset: 0;}100%{ stroke-dashoffset: 0;}}@keyframes fdFASxIs_draw_65{8.16326530612245%{stroke-dashoffset: 210}38.775510204081634%{ stroke-dashoffset: 0;}100%{ stroke-dashoffset: 0;}}@keyframes fdFASxIs_draw_66{8.16326530612245%{stroke-dashoffset: 339}38.775510204081634%{ stroke-dashoffset: 0;}100%{ stroke-dashoffset: 0;}}@keyframes fdFASxIs_draw_67{8.16326530612245%{stroke-dashoffset: 1255}38.775510204081634%{ stroke-dashoffset: 0;}100%{ stroke-dashoffset: 0;}}@keyframes fdFASxIs_draw_68{8.16326530612245%{stroke-dashoffset: 1255}38.775510204081634%{ stroke-dashoffset: 0;}100%{ stroke-dashoffset: 0;}}</style></svg>