<svg id="Layer_1" data-name="Layer 1" xmlns="http://www.w3.org/2000/svg" viewBox="0 0 2237.71 583.45" style=""><defs><style>.cls-1,.cls-2,.cls-3{fill:none;stroke:#fbbc05;stroke-miterlimit:10;}.cls-1{stroke-width:8px;}.cls-2{stroke-width:3px;}.cls-3{stroke-width:4px;}</style></defs><title>ccxgsoc</title><path class="cls-1 vVoChnOS_0" d="M542,293.72H423.44L339.75,210l-83.69,83.69H137.53V412.25l-83.68,84L137.53,580V698.48H256.06l83.69,83.68,83.69-83.68H542V580l83.69-83.69L542,412.57Zm1.95,202.54c0,112.67-91.5,204.17-204.17,204.17s-204.17-91.5-204.17-204.17,91.5-204.17,204.17-204.17S543.92,383.59,543.92,496.26Z" transform="translate(-48.2 -204.37)"></path><path class="cls-1 vVoChnOS_1" d="M339.75,318.14c-98.34,0-178.12,79.78-178.12,178.12s79.78,178.12,178.12,178.12S517.87,594.6,517.87,496.26,438.09,318.14,339.75,318.14Zm-52.43,112v29.3l-47.21,36.8,47.21,36.8v29.3l-3.25-2.28-70-54.7-4.56-3.59V490.72l4.56-3.58,70-54.38,3.25-2.6Zm84-16.94L332.59,584.51l-.33,1.3H308.17l1.3-6.51,38.75-171,.32-1.3h24.1ZM470,501.79l-4.55,3.59-70.34,54.38L391.85,562V532.73l47.22-36.8-47.22-36.79V429.83h0l3.26,2.28,70,54.71,4.56,3.58v11.39Z" transform="translate(-48.2 -204.37)"></path><path class="cls-2 vVoChnOS_2" d="M728.16,317.53A38.57,38.57,0,0,0,709,312.87H661.71v122h12.08V387.55H709a38.57,38.57,0,0,0,19.21-4.66A32.4,32.4,0,0,0,741,369.8a40.25,40.25,0,0,0,4.57-19.51A40.7,40.7,0,0,0,741,330.66,32.31,32.31,0,0,0,728.16,317.53Zm2.39,46.36a22,22,0,0,1-8.43,9.14,24,24,0,0,1-12.59,3.27H673.79V324.12h35.74a24,24,0,0,1,12.59,3.27,21.94,21.94,0,0,1,8.43,9.19,30,30,0,0,1,3,13.71A29.64,29.64,0,0,1,730.55,363.89Z" transform="translate(-48.2 -204.37)"></path><path class="cls-2 vVoChnOS_3" d="M812.49,350.34q-7.72-3.82-18.55-3.82a47,47,0,0,0-18,3.31,32.68,32.68,0,0,0-13.05,9.27l8.81,6a34.09,34.09,0,0,1,10.57-5.71,37.83,37.83,0,0,1,12.17-2q10.39,0,16.06,5.83t5.67,16.4v3.69H788q-14,0-21.69,6.76t-7.68,19.09q0,12.82,8.39,19.88t23.66,7.05a60,60,0,0,0,11.29-1,37.27,37.27,0,0,0,9.31-3,25,25,0,0,0,4.91-3.07v5.8h12.08v-56q0-10.25-4-17.5A26.45,26.45,0,0,0,812.49,350.34ZM810,422.45q-6.21,2.26-17.45,2.27-10.5,0-16.24-4.07a13.22,13.22,0,0,1-5.75-11.45q0-7,4.58-10.79t13-3.81h28.11v21.48Q816.18,420.19,810,422.45Z" transform="translate(-48.2 -204.37)"></path><path class="cls-2 vVoChnOS_4" d="M894.13,346.52a34.32,34.32,0,0,0-17,4.32,33.53,33.53,0,0,0-10.79,9.53V347.78H854.27v87.09h12.08V379.74q0-10.32,6-16.15t17-5.83a28.52,28.52,0,0,1,9.44,1.43,17.13,17.13,0,0,1,6.76,4.19l7.8-10.07a24.36,24.36,0,0,0-8.43-5.07A31.87,31.87,0,0,0,894.13,346.52Z" transform="translate(-48.2 -204.37)"></path><path class="cls-2 vVoChnOS_5" d="M942,322.44H929.87v25.34h-9v10.4h9v54q0,11.4,4.91,17.24t15.48,5.83h9.9V424.05h-8.22q-5,0-7.47-3T942,412.38v-54.2h18.21v-10.4H942Z" transform="translate(-48.2 -204.37)"></path><path class="cls-2 vVoChnOS_6" width="12.08" height="87.09" d="M937.98 143.41 L950.0600000000001 143.41 L950.0600000000001 230.5 L937.98 230.5 Z"></path><path class="cls-2 vVoChnOS_7" width="12.08" height="12.08" d="M937.98 108.5 L950.0600000000001 108.5 L950.0600000000001 120.58 L937.98 120.58 Z"></path><path class="cls-2 vVoChnOS_8" d="M1042.77,364.26q6.4-6.5,19.42-6.5a28.38,28.38,0,0,1,12.29,2.64,29.53,29.53,0,0,1,10,8l9-8a31.54,31.54,0,0,0-8.06-7.76,34.9,34.9,0,0,0-10.49-4.62,51,51,0,0,0-13-1.55q-12.59,0-20.94,4.15a27.37,27.37,0,0,0-12.54,12.46q-4.2,8.31-4.2,20.81v14.35q0,12.68,4.16,21.06A27.21,27.21,0,0,0,1041,431.93l8.39,4.2h12.59a52,52,0,0,0,13-1.51,35,35,0,0,0,10.49-4.53,31.72,31.72,0,0,0,8.06-7.64l-7.81-7.72a30.75,30.75,0,0,1-10.53,7.64,32.36,32.36,0,0,1-13,2.52q-12.93,0-19.38-6.63t-6.46-20V383.94Q1036.35,370.77,1042.77,364.26Z" transform="translate(-48.2 -204.37)"></path><path class="cls-2 vVoChnOS_9" width="12.08" height="12.08" d="M1066.69 108.5 L1078.77 108.5 L1078.77 120.58 L1066.69 120.58 Z"></path><path class="cls-2 vVoChnOS_10" width="12.08" height="87.09" d="M1066.69 143.41 L1078.77 143.41 L1078.77 230.5 L1066.69 230.5 Z"></path><path class="cls-2 vVoChnOS_11" d="M1211.17,350.67a29.08,29.08,0,0,0-15.82-4.15,38.84,38.84,0,0,0-17.5,3.73,26.49,26.49,0,0,0-10.27,9.3V347.78h-12.09v122.5h12.09V423.65a20.54,20.54,0,0,0,9.23,9q7.13,3.48,17.7,3.48a30.62,30.62,0,0,0,16.28-4.15,26.24,26.24,0,0,0,10.32-12q3.53-7.89,3.52-19V382q0-11.25-3.44-19.21A26,26,0,0,0,1211.17,350.67Zm1.38,50.3q0,11.76-6,18.25t-16.86,6.51a21.09,21.09,0,0,1-11.75-3.28,21.92,21.92,0,0,1-7.72-8.51,23.74,23.74,0,0,1-2.68-10.95V379.24a22.79,22.79,0,0,1,2.68-10.74,21.91,21.91,0,0,1,7.72-8.35,21.31,21.31,0,0,1,11.75-3.23q10.9,0,16.86,6.59t6,18.58Z" transform="translate(-48.2 -204.37)"></path><path class="cls-2 vVoChnOS_12" d="M1298.64,350.34q-7.73-3.82-18.55-3.82a47,47,0,0,0-18,3.31,32.68,32.68,0,0,0-13,9.27l8.81,6a34.09,34.09,0,0,1,10.57-5.71,37.83,37.83,0,0,1,12.17-2q10.39,0,16.06,5.83t5.67,16.4v3.69h-28.19q-14,0-21.69,6.76t-7.68,19.09q0,12.82,8.39,19.88t23.66,7.05a60,60,0,0,0,11.29-1,37.27,37.27,0,0,0,9.31-3,24.75,24.75,0,0,0,4.91-3.07v5.8h12.08v-56q0-10.25-4-17.5A26.45,26.45,0,0,0,1298.64,350.34Zm-2.52,72.11q-6.21,2.26-17.45,2.27-10.5,0-16.24-4.07a13.22,13.22,0,0,1-5.75-11.45q0-7,4.58-10.79c3-2.54,7.37-3.81,13-3.81h28.11v21.48Q1302.33,420.19,1296.12,422.45Z" transform="translate(-48.2 -204.37)"></path><path class="cls-2 vVoChnOS_13" d="M1354.77,322.44h-12.08v25.34h-9v10.4h9v54q0,11.4,4.91,17.24t15.48,5.83h9.9V424.05h-8.23q-4.95,0-7.46-3t-2.52-8.65v-54.2H1373v-10.4h-18.21Z" transform="translate(-48.2 -204.37)"></path><path class="cls-2 vVoChnOS_14" width="12.08" height="87.09" d="M1350.79 143.41 L1362.87 143.41 L1362.87 230.5 L1350.79 230.5 Z"></path><path class="cls-2 vVoChnOS_15" width="12.08" height="12.08" d="M1350.79 108.5 L1362.87 108.5 L1362.87 120.58 L1350.79 120.58 Z"></path><path class="cls-2 vVoChnOS_16" d="M1479.87,346.52a39,39,0,0,0-17.7,3.82,27.19,27.19,0,0,0-10.49,9.48v-12H1439.6v87.09h12.08V379.49q0-10.39,5.92-16.07t16.65-5.66q11.09,0,17.16,6.38t6.08,17.95v52.78h12.09V382q0-17-7.77-26.22T1479.87,346.52Z" transform="translate(-48.2 -204.37)"></path><path class="cls-2 vVoChnOS_17" d="M1590.13,359.55a26.59,26.59,0,0,0-10.28-9.3,38.84,38.84,0,0,0-17.5-3.73,29,29,0,0,0-15.81,4.15,26,26,0,0,0-10,12.13q-3.43,8-3.44,19.21v19q0,11.08,3.52,19a26.24,26.24,0,0,0,10.32,12,30.64,30.64,0,0,0,16.28,4.15q10.57,0,17.71-3.48a20.64,20.64,0,0,0,9.23-9V434q0,12.24-6.72,19t-18.87,6.76a25.48,25.48,0,0,1-11.67-2.81,27.81,27.81,0,0,1-9.48-7.93l-8.22,7.38a28.22,28.22,0,0,0,12,10.28l7.72,3.65h9.9q11.82,0,20.22-4.45a29.75,29.75,0,0,0,12.79-13q4.41-8.56,4.41-20.56V347.78h-12.08Zm-2.69,54.39a21.92,21.92,0,0,1-7.72,8.51,21.06,21.06,0,0,1-11.74,3.28q-10.92,0-16.87-6.51t-6-18.25V382.09q0-12,6-18.58t16.87-6.59a21.7,21.7,0,0,1,11.83,3.19,21.31,21.31,0,0,1,7.67,8.31,23.17,23.17,0,0,1,2.65,10.82V403A23.75,23.75,0,0,1,1587.44,413.94Z" transform="translate(-48.2 -204.37)"></path><path class="cls-2 vVoChnOS_18" width="12.08" height="12.08" d="M1611.91 108.5 L1623.99 108.5 L1623.99 120.58 L1611.91 120.58 Z"></path><path class="cls-2 vVoChnOS_19" width="12.08" height="87.09" d="M1611.91 143.41 L1623.99 143.41 L1623.99 230.5 L1611.91 230.5 Z"></path><path class="cls-2 vVoChnOS_20" d="M1762.93,355.79q-7.76-9.27-21.94-9.27a39.06,39.06,0,0,0-17.71,3.82,27.24,27.24,0,0,0-10.48,9.48v-12h-12.09v87.09h12.09V379.49q0-10.39,5.91-16.07t16.66-5.66q11.07,0,17.16,6.38t6.08,17.95v52.78h12.08V382Q1770.69,365.06,1762.93,355.79Z" transform="translate(-48.2 -204.37)"></path><path class="cls-2 vVoChnOS_21" d="M688.2,547.49h11.42v1.25a15.41,15.41,0,0,1-1.55,7.12,10.67,10.67,0,0,1-4.45,4.59A13.68,13.68,0,0,1,686.9,562a15.39,15.39,0,0,1-6.86-1.46,10.64,10.64,0,0,1-4.57-4.15,12,12,0,0,1-1.61-6.24V527.91a15.23,15.23,0,0,1,1.58-7.06,11.41,11.41,0,0,1,4.47-4.73,13.11,13.11,0,0,1,6.68-1.66,14,14,0,0,1,5,.91,12.19,12.19,0,0,1,4.21,2.65,10,10,0,0,1,2.57,4.13h15.37a28.76,28.76,0,0,0-5.17-11.79,25.79,25.79,0,0,0-9.53-7.87,28.14,28.14,0,0,0-12.46-2.78,29,29,0,0,0-14.44,3.5,24.13,24.13,0,0,0-9.64,9.9,31,31,0,0,0-3.4,14.8v22.28a27.66,27.66,0,0,0,3.45,14,23.68,23.68,0,0,0,9.77,9.32,31,31,0,0,0,14.57,3.3,28.94,28.94,0,0,0,14.44-3.51,24,24,0,0,0,9.63-9.92,31.14,31.14,0,0,0,3.4-14.83V533.78H688.2Z" transform="translate(-48.2 -204.37)"></path><path class="cls-2 vVoChnOS_22" d="M762.71,524a30.54,30.54,0,0,0-25.2,0,18.37,18.37,0,0,0-7.94,8,26.75,26.75,0,0,0-2.73,12.54v8.78a27.31,27.31,0,0,0,2.73,12.7,18.44,18.44,0,0,0,7.94,8,30.24,30.24,0,0,0,25.2,0,18.54,18.54,0,0,0,7.94-8,26.88,26.88,0,0,0,2.73-12.59v-8.94A26.75,26.75,0,0,0,770.65,532,18.37,18.37,0,0,0,762.71,524Zm-3.56,29.43a9.92,9.92,0,0,1-2.39,7.09,8.79,8.79,0,0,1-6.7,2.52,8.62,8.62,0,0,1-6.65-2.52c-1.56-1.68-2.34-4-2.34-7.09v-8.94a9.81,9.81,0,0,1,2.36-7,8.72,8.72,0,0,1,6.63-2.49,8.85,8.85,0,0,1,6.7,2.49,9.73,9.73,0,0,1,2.39,7Z" transform="translate(-48.2 -204.37)"></path><path class="cls-2 vVoChnOS_23" d="M820.67,524a30.52,30.52,0,0,0-25.19,0,18.39,18.39,0,0,0-8,8,26.75,26.75,0,0,0-2.72,12.54v8.78a27.32,27.32,0,0,0,2.72,12.7,18.46,18.46,0,0,0,8,8,30.22,30.22,0,0,0,25.19,0,18.56,18.56,0,0,0,8-8,26.88,26.88,0,0,0,2.72-12.59v-8.94A26.75,26.75,0,0,0,828.62,532,18.39,18.39,0,0,0,820.67,524Zm-3.56,29.43c0,3-.79,5.41-2.39,7.09a8.78,8.78,0,0,1-6.7,2.52,8.63,8.63,0,0,1-6.65-2.52,10.08,10.08,0,0,1-2.33-7.09v-8.94c0-3,.78-5.35,2.36-7A8.69,8.69,0,0,1,808,535a8.83,8.83,0,0,1,6.7,2.49c1.6,1.66,2.39,4,2.39,7Z" transform="translate(-48.2 -204.37)"></path><path class="cls-2 vVoChnOS_24" d="M873.42,529.11a17,17,0,0,0-4.65-5.22,13.1,13.1,0,0,0-7.87-2.57,16.16,16.16,0,0,0-16,10.8,34.08,34.08,0,0,0-2.13,12.73v8.62a33.32,33.32,0,0,0,2.13,12.59,16.22,16.22,0,0,0,16,10.73,13.77,13.77,0,0,0,8.15-2.42,13.62,13.62,0,0,0,4.37-5.18v6.25a8.47,8.47,0,0,1-2.83,6.75,10.77,10.77,0,0,1-7.3,2.44,13.59,13.59,0,0,1-5.3-1.06,12.34,12.34,0,0,1-4.36-3l-9.56,8.78a18.32,18.32,0,0,0,7.87,6.36l5.06,2.26h6.44a28.8,28.8,0,0,0,13.12-2.75,18.76,18.76,0,0,0,8.26-8.06,26.73,26.73,0,0,0,2.83-12.72V522.1H873.42Zm-.94,30.64a6.49,6.49,0,0,1-2.72,2.86,8.89,8.89,0,0,1-4.34,1,7.65,7.65,0,0,1-6.21-2.65q-2.21-2.66-2.21-7.48V544.9c0-3.29.74-5.85,2.21-7.66a7.53,7.53,0,0,1,6.21-2.73,8.79,8.79,0,0,1,4.34,1,6.63,6.63,0,0,1,2.72,2.94,10.51,10.51,0,0,1,.94,4.67v12.1A9.9,9.9,0,0,1,872.48,559.75Z" transform="translate(-48.2 -204.37)"></path><path class="cls-2 vVoChnOS_25" d="M917,561.23a4,4,0,0,1-1.12-3v-57.7H901.67v61.24q0,6.79,3.59,10.54T915.33,576h7.27V562.3h-2.38A4.45,4.45,0,0,1,917,561.23Z" transform="translate(-48.2 -204.37)"></path><path class="cls-2 vVoChnOS_26" d="M966.75,524.85a20.5,20.5,0,0,0-12.1-3.53,26,26,0,0,0-12.85,3,19.36,19.36,0,0,0-8.11,8.62,30.78,30.78,0,0,0-2.77,13.66v6.08a27.29,27.29,0,0,0,2.9,13.06,19.41,19.41,0,0,0,8.44,8.26l5.54,2.83h7.79a28.13,28.13,0,0,0,10.59-2.11,31.08,31.08,0,0,0,9.46-5.94l-9.3-8.26a17.09,17.09,0,0,1-5.09,2.88,16.46,16.46,0,0,1-5.66,1q-5.57,0-8.65-3a10.47,10.47,0,0,1-3-6.49H977v-3.53a44.88,44.88,0,0,0-2.62-16.23A21.72,21.72,0,0,0,966.75,524.85Zm-22.88,20.41c.12-3.38,1-6,2.81-8s4.54-3.06,8-3.06a8.21,8.21,0,0,1,6.31,2.54A12.56,12.56,0,0,1,963.9,544l.15,1.25Z" transform="translate(-48.2 -204.37)"></path><path class="cls-2 vVoChnOS_27" d="M1050,535.21a63.13,63.13,0,0,0-12-3.4l-.6-.13a5.29,5.29,0,0,0-.6-.13,3.28,3.28,0,0,0-.41-.08,3.1,3.1,0,0,1-.42-.08,71.76,71.76,0,0,1-7.74-1.87,11.15,11.15,0,0,1-4.62-2.78,7,7,0,0,1-1.87-5.16v-.06a6.73,6.73,0,0,1,3.58-6q3.59-2.15,10.13-2.15a27.56,27.56,0,0,1,9.12,1.66,38.53,38.53,0,0,1,9.11,4.67l6-12a46.88,46.88,0,0,0-7.69-4.26,46,46,0,0,0-8.28-2.7,38.66,38.66,0,0,0-8.29-.93,37.39,37.39,0,0,0-15.06,2.73,20.59,20.59,0,0,0-9.51,7.92,23,23,0,0,0-3.27,12.51v.06q0,8.25,3.48,12.75a18.48,18.48,0,0,0,8.47,6.28,69.83,69.83,0,0,0,12.57,3l1.14.15a.79.79,0,0,0,.29.06.76.76,0,0,1,.28.05,53.13,53.13,0,0,1,7.07,1.51,10.19,10.19,0,0,1,4.46,2.59,6.59,6.59,0,0,1,1.72,4.78v0a7.45,7.45,0,0,1-3.85,6.68q-3.84,2.35-10.8,2.36a36.1,36.1,0,0,1-11.74-1.95,32,32,0,0,1-10.08-5.53l-6.59,11.74a37.32,37.32,0,0,0,8.13,5.06,45,45,0,0,0,9.71,3.2l5.17,1.09h5.4a40.36,40.36,0,0,0,15.56-2.7,21.1,21.1,0,0,0,9.84-7.85,22,22,0,0,0,3.37-12.36v-.1q0-7.69-3.22-12.13A18.59,18.59,0,0,0,1050,535.21Z" transform="translate(-48.2 -204.37)"></path><path class="cls-2 vVoChnOS_28" d="M1104.14,554.56a8.66,8.66,0,0,1-2.16,6.31,8.22,8.22,0,0,1-6.15,2.21,8.5,8.5,0,0,1-6.21-2.16,8.07,8.07,0,0,1-2.21-6V522.1h-14.23v33.29q0,10.23,4.73,15.81t13.4,5.59a12.67,12.67,0,0,0,8.54-3,16.73,16.73,0,0,0,4.29-5.64V576h14.18V522.1h-14.18Z" transform="translate(-48.2 -204.37)"></path><path class="cls-2 vVoChnOS_29" d="M1201,524.07a17.48,17.48,0,0,0-10-2.75,15.69,15.69,0,0,0-9.06,2.78,19.77,19.77,0,0,0-6.36,7.43,16.81,16.81,0,0,0-5.95-7.46,17,17,0,0,0-9.79-2.75,13.93,13.93,0,0,0-8.41,2.59,18.24,18.24,0,0,0-4.89,5.55V522.1h-14.23V576h14.23V543.44a8.49,8.49,0,0,1,2.16-6.2,8.09,8.09,0,0,1,6.1-2.21,8.48,8.48,0,0,1,6.6,2.57c1.56,1.71,2.34,4.15,2.34,7.3V576H1178V544.85c0-.14,0-.27,0-.4v0q0-4.51,2.2-7a9.3,9.3,0,0,1,12.73.1c1.51,1.71,2.26,4.15,2.26,7.3V576h14.23V544.85a33.86,33.86,0,0,0-2.15-12.73A17.1,17.1,0,0,0,1201,524.07Z" transform="translate(-48.2 -204.37)"></path><path class="cls-2 vVoChnOS_30" d="M1292.08,524.07a17.47,17.47,0,0,0-9.94-2.75,15.69,15.69,0,0,0-9.07,2.78,19.85,19.85,0,0,0-6.36,7.43,16.81,16.81,0,0,0-6-7.46,17,17,0,0,0-9.79-2.75,14,14,0,0,0-8.41,2.59,18.08,18.08,0,0,0-4.88,5.55V522.1h-14.24V576h14.24V543.44a8.49,8.49,0,0,1,2.15-6.2,8.11,8.11,0,0,1,6.1-2.21,8.48,8.48,0,0,1,6.6,2.57c1.56,1.71,2.34,4.15,2.34,7.3V576h14.23V544.85c0-.14,0-.27,0-.4v0q0-4.51,2.21-7a9.29,9.29,0,0,1,12.72.1c1.51,1.71,2.26,4.15,2.26,7.3V576h14.23V544.85a33.67,33.67,0,0,0-2.15-12.73A17,17,0,0,0,1292.08,524.07Z" transform="translate(-48.2 -204.37)"></path><path class="cls-2 vVoChnOS_31" d="M1348.83,524.85a20.5,20.5,0,0,0-12.1-3.53,26,26,0,0,0-12.86,3,19.28,19.28,0,0,0-8.1,8.62,30.78,30.78,0,0,0-2.78,13.66v6.08a27.29,27.29,0,0,0,2.91,13.06,19.36,19.36,0,0,0,8.44,8.26l5.53,2.83h7.79a28.14,28.14,0,0,0,10.6-2.11,31,31,0,0,0,9.45-5.94l-9.3-8.26a17,17,0,0,1-5.09,2.88,16.41,16.41,0,0,1-5.66,1c-3.7,0-6.59-1-8.65-3a10.47,10.47,0,0,1-3-6.49h33.06v-3.53a44.67,44.67,0,0,0-2.62-16.23A21.7,21.7,0,0,0,1348.83,524.85ZM1326,545.26c.11-3.38,1-6,2.8-8s4.55-3.06,8-3.06a8.23,8.23,0,0,1,6.31,2.54A12.62,12.62,0,0,1,1346,544l.16,1.25Z" transform="translate(-48.2 -204.37)"></path><path class="cls-2 vVoChnOS_32" d="M1399.37,521.32a12.74,12.74,0,0,0-7.82,2.67,18.08,18.08,0,0,0-4.7,5.42V522.1h-15.27V576h15.27V545.52q0-4.93,2.36-7.71a8.3,8.3,0,0,1,6.68-2.78,10.61,10.61,0,0,1,3.48.52,6.4,6.4,0,0,1,2.54,1.56l8.31-11.59a13.36,13.36,0,0,0-4.75-3.14A16.65,16.65,0,0,0,1399.37,521.32Z" transform="translate(-48.2 -204.37)"></path><path class="cls-2 vVoChnOS_33" d="M1469.46,524a30.52,30.52,0,0,0-25.19,0,18.39,18.39,0,0,0-8,8,26.75,26.75,0,0,0-2.72,12.54v8.78a27.32,27.32,0,0,0,2.72,12.7,18.46,18.46,0,0,0,8,8,30.22,30.22,0,0,0,25.19,0,18.56,18.56,0,0,0,8-8,26.88,26.88,0,0,0,2.73-12.59v-8.94a26.75,26.75,0,0,0-2.73-12.54A18.39,18.39,0,0,0,1469.46,524Zm-3.56,29.43c0,3-.79,5.41-2.39,7.09a8.78,8.78,0,0,1-6.7,2.52,8.63,8.63,0,0,1-6.65-2.52,10.08,10.08,0,0,1-2.33-7.09v-8.94a9.81,9.81,0,0,1,2.36-7,8.69,8.69,0,0,1,6.62-2.49,8.83,8.83,0,0,1,6.7,2.49c1.6,1.66,2.39,4,2.39,7Z" transform="translate(-48.2 -204.37)"></path><path class="cls-2 vVoChnOS_34" d="M1498,504.05q-3.3,3.56-3.3,10.72v7.33H1489v12.15h5.71V576h14.23V534.25H1518V522.1h-9.09v-4.84a5.17,5.17,0,0,1,.78-3,2.59,2.59,0,0,1,2.29-1.14h6V500.49h-9.87Q1501.28,500.49,1498,504.05Z" transform="translate(-48.2 -204.37)"></path><path class="cls-2 vVoChnOS_35" d="M1560.72,520.36a10.59,10.59,0,0,1,4.29-4.78,13.27,13.27,0,0,1,6.8-1.64,11,11,0,0,1,5.53,1.4,12.39,12.39,0,0,1,4.21,4,19.06,19.06,0,0,1,2.57,6.39h14.75a38.41,38.41,0,0,0-5.06-14.1,25.15,25.15,0,0,0-9.27-8.91,26.17,26.17,0,0,0-12.73-3.06,30.58,30.58,0,0,0-14.75,3.32,22.16,22.16,0,0,0-9.35,9.64,33.18,33.18,0,0,0-3.22,15.24v20.73a33.18,33.18,0,0,0,3.22,15.24,22,22,0,0,0,9.35,9.61l6.13,3.3h8.62a25.89,25.89,0,0,0,12.7-3.07,25.22,25.22,0,0,0,9.25-8.9,39.15,39.15,0,0,0,5.11-14.11h-14.75a18.67,18.67,0,0,1-2.49,6.44,11.88,11.88,0,0,1-4.21,4,11.38,11.38,0,0,1-5.61,1.38,13.27,13.27,0,0,1-6.8-1.64,10.62,10.62,0,0,1-4.29-4.75,17.41,17.41,0,0,1-1.48-7.53V527.91A17.53,17.53,0,0,1,1560.72,520.36Z" transform="translate(-48.2 -204.37)"></path><path class="cls-2 vVoChnOS_36" d="M1645.12,524a30.52,30.52,0,0,0-25.19,0,18.31,18.31,0,0,0-7.94,8,26.75,26.75,0,0,0-2.73,12.54v8.78A27.31,27.31,0,0,0,1612,566a18.39,18.39,0,0,0,7.94,8,30.22,30.22,0,0,0,25.19,0,18.56,18.56,0,0,0,8-8,26.88,26.88,0,0,0,2.73-12.59v-8.94a26.75,26.75,0,0,0-2.73-12.54A18.39,18.39,0,0,0,1645.12,524Zm-3.55,29.43a9.92,9.92,0,0,1-2.39,7.09,8.81,8.81,0,0,1-6.7,2.52,8.62,8.62,0,0,1-6.65-2.52c-1.56-1.68-2.34-4-2.34-7.09v-8.94a9.81,9.81,0,0,1,2.36-7,8.72,8.72,0,0,1,6.63-2.49,8.86,8.86,0,0,1,6.7,2.49,9.73,9.73,0,0,1,2.39,7Z" transform="translate(-48.2 -204.37)"></path><path class="cls-2 vVoChnOS_37" d="M1697.87,529.11a17,17,0,0,0-4.65-5.22,13.08,13.08,0,0,0-7.87-2.57,16.16,16.16,0,0,0-16,10.8,34.09,34.09,0,0,0-2.12,12.73v8.62a33.33,33.33,0,0,0,2.12,12.59,16.22,16.22,0,0,0,16,10.73,13.83,13.83,0,0,0,8.16-2.42,13.68,13.68,0,0,0,4.36-5.18V576h14.23V500.49h-14.23Zm-.93,30.64a6.57,6.57,0,0,1-2.73,2.86,8.87,8.87,0,0,1-4.34,1,7.66,7.66,0,0,1-6.21-2.65q-2.21-2.66-2.2-7.48V544.9c0-3.29.73-5.85,2.2-7.66a7.54,7.54,0,0,1,6.21-2.73,8.76,8.76,0,0,1,4.34,1,6.71,6.71,0,0,1,2.73,2.94,10.65,10.65,0,0,1,.93,4.67v12.1A10,10,0,0,1,1696.94,559.75Z" transform="translate(-48.2 -204.37)"></path><path class="cls-2 vVoChnOS_38" d="M1770.69,551.34a44.67,44.67,0,0,0-2.62-16.23,21.7,21.7,0,0,0-7.66-10.26,20.52,20.52,0,0,0-12.1-3.53,26,26,0,0,0-12.86,3,19.28,19.28,0,0,0-8.1,8.62,30.64,30.64,0,0,0-2.78,13.66v6.08a27.29,27.29,0,0,0,2.91,13.06,19.36,19.36,0,0,0,8.44,8.26l5.53,2.83h7.79a28.14,28.14,0,0,0,10.6-2.11,31.15,31.15,0,0,0,9.45-5.94l-9.3-8.26a17,17,0,0,1-5.09,2.88,16.46,16.46,0,0,1-5.66,1q-5.57,0-8.65-3a10.47,10.47,0,0,1-3-6.49h33.06Zm-33.17-6.08c.12-3.38,1-6,2.81-8s4.55-3.06,8-3.06a8.23,8.23,0,0,1,6.31,2.54,12.62,12.62,0,0,1,2.93,7.22l.16,1.25Z" transform="translate(-48.2 -204.37)"></path><path class="cls-2 vVoChnOS_39" d="M1623.44,468.23L1613.83,440.23L1611.1,440.23L1601.48,468.23L1593.35,440.23L1588.26,440.23L1599.25,474.78L1603.37,474.78L1612.46,448.92L1621.55,474.78L1625.68,474.78L1636.66,440.23L1631.57,440.23L1623.44,468.23Z"></path><path class="cls-2 vVoChnOS_40" width="4.79" height="4.79" d="M1644.98 426.38 L1649.77 426.38 L1649.77 431.17 L1644.98 431.17 Z"></path><path class="cls-2 vVoChnOS_41" width="4.79" height="34.55" d="M1644.98 440.23 L1649.77 440.23 L1649.77 474.78000000000003 L1644.98 474.78000000000003 Z"></path><path class="cls-2 vVoChnOS_42" d="M1715,634.55h-4.79V644.6h-3.57v4.13h3.57v21.44q0,4.53,1.94,6.84t6.14,2.31h3.93v-4.46h-3.26a3.62,3.62,0,0,1-3-1.2,5.2,5.2,0,0,1-1-3.43v-21.5h7.22V644.6H1715Z" transform="translate(-48.2 -204.37)"></path><path class="cls-2 vVoChnOS_43" d="M1756.2,647.78q-3.08-3.67-8.7-3.68a15.5,15.5,0,0,0-7,1.52,10.75,10.75,0,0,0-4.16,3.76V630.76h-4.8v48.39h4.8v-22a8.43,8.43,0,0,1,2.34-6.38,9.18,9.18,0,0,1,6.61-2.25,9,9,0,0,1,6.81,2.53q2.42,2.53,2.41,7.13v20.93h4.79v-21Q1759.28,651.46,1756.2,647.78Z" transform="translate(-48.2 -204.37)"></path><path class="cls-3 vVoChnOS_44" d="M2120.75,230l-135.86,23.92,8.66,48.85,17.11,97h140.06l-17.1-97Zm-43.92,147-49.27-58.44L2102.19,305Z" transform="translate(-48.2 -204.37)"></path><path class="cls-3 vVoChnOS_45" d="M2215.77,399.67V335.36a32.51,32.51,0,0,0-32.46-32.58h-30l17.11,97Z" transform="translate(-48.2 -204.37)"></path><path class="cls-3 vVoChnOS_46" d="M1943.86,325.88a6.56,6.56,0,0,1,5.32-7.6h0l7.11-1.24a6.53,6.53,0,0,1,7.59,5.28l0,.08,5,28.65,12.68-2.26-8.13-46h-13.82a32.52,32.52,0,0,0-32.57,32.45v64.44h29.79Z" transform="translate(-48.2 -204.37)"></path><path class="cls-3 vVoChnOS_47" d="M2076.83,377,2102.19,305l-74.63,13.61Z" transform="translate(-48.2 -204.37)"></path><path class="cls-3 vVoChnOS_48" d="M2272,399.67h-401.1a11.8,11.8,0,0,0-11.86,11.75V758.89a11.8,11.8,0,0,0,11.73,11.85h99.89a20.88,20.88,0,0,1-.93-7.93,1306.81,1306.81,0,0,0,4.45-189.35h-24.48a9.51,9.51,0,0,1-9.51-9.51V553.23a9.5,9.5,0,0,1,9.51-9.5H2193.3a9.5,9.5,0,0,1,9.51,9.5V564a9.51,9.51,0,0,1-9.51,9.51h-13A1539.08,1539.08,0,0,1,2176,770.74H2272A11.78,11.78,0,0,0,2283.9,759V411.54a11.8,11.8,0,0,0-11.74-11.87ZM1940.88,458a4.19,4.19,0,0,1-4.13,4.24h-40.81a4.2,4.2,0,0,1-4.24-4.16V424.82a4.19,4.19,0,0,1,4.15-4.22h40.81a4.19,4.19,0,0,1,4.22,4.15V458ZM2262,445.14a5.5,5.5,0,0,1-5.48,5.46h-90.69a5.49,5.49,0,0,1-5.46-5.46v-6a5.49,5.49,0,0,1,5.46-5.46h90.77a5.49,5.49,0,0,1,5.47,5.46Z" transform="translate(-48.2 -204.37)"></path><path class="cls-3 vVoChnOS_49" d="M1997.15,667.67h.11a5.55,5.55,0,0,0,5.7-5.4v-.17a5.7,5.7,0,1,0-5.83,5.57h0Z" transform="translate(-48.2 -204.37)"></path><path class="cls-3 vVoChnOS_50" d="M2095.69,678.6a5.58,5.58,0,0,0-6.28,4.79v.15a5.83,5.83,0,0,0,5.36,6.18,5.47,5.47,0,0,0,5.7-4.85,5.56,5.56,0,0,0-4.76-6.27Z" transform="translate(-48.2 -204.37)"></path><path class="cls-3 vVoChnOS_51" d="M2081.05,677.15l-87.82-2.79a1.9,1.9,0,0,0-1.9,1.9l-.21,7.6a1.89,1.89,0,0,0,1.75,1.9l87.82,3.62a2,2,0,0,0,1.9-1.9l.33-8.05h0a1.91,1.91,0,0,0-1.49-2.24A2.33,2.33,0,0,0,2081.05,677.15Z" transform="translate(-48.2 -204.37)"></path><path class="cls-3 vVoChnOS_52" d="M2099.4,658.09l-87.92-1.35a1.9,1.9,0,0,0-1.9,1.9v7.6a1.9,1.9,0,0,0,1.75,1.9l87.82,2.26h0a2,2,0,0,0,1.9-1.9l.1-8.25a1.9,1.9,0,0,0-1.61-2.15Z" transform="translate(-48.2 -204.37)"></path><path class="cls-3 vVoChnOS_53" d="M1995.3,622.62a1.89,1.89,0,0,0-1.75,1.9v7.6a1.91,1.91,0,0,0,1.91,1.9l87.82-.3a1.91,1.91,0,0,0,1.75-1.9v-8.14a2,2,0,0,0-1.9-1.9Z" transform="translate(-48.2 -204.37)"></path><path class="cls-3 vVoChnOS_54" d="M1998.91,615.62a5.54,5.54,0,0,0,5.56-5.51v-.27a5.57,5.57,0,1,0-5.56,5.7Z" transform="translate(-48.2 -204.37)"></path><path class="cls-3 vVoChnOS_55" d="M2097.65,622.31a5.57,5.57,0,0,0-6,5.12v0h.12a5.83,5.83,0,0,0,5.57,6,5.57,5.57,0,0,0,.3-11.14Z" transform="translate(-48.2 -204.37)"></path><path class="cls-3 vVoChnOS_56" d="M2013.23,615.51l87.8-1.64v.1a1.9,1.9,0,0,0,1.77-2v0l-.11-8.25h0a2,2,0,0,0-1.9-2.07l-87.94,2.47h0a1.91,1.91,0,0,0-1.75,1.9l.21,7.61a1.91,1.91,0,0,0,1.86,1.94Z" transform="translate(-48.2 -204.37)"></path><path class="cls-3 vVoChnOS_57" d="M2095.9,573.67h0a4.26,4.26,0,0,0,1.12-.21h-2.68A8.24,8.24,0,0,0,2095.9,573.67Z" transform="translate(-48.2 -204.37)"></path><path class="cls-3 vVoChnOS_58" d="M1992.2,577.07a1.91,1.91,0,0,0,1.91,1.75l87.8-4.43a1.9,1.9,0,0,0,1.35-.93H1992Z" transform="translate(-48.2 -204.37)"></path><path class="cls-3 vVoChnOS_59" d="M2083.22,573.46h110a9.51,9.51,0,0,0,9.51-9.51V553.23a9.5,9.5,0,0,0-9.51-9.5H1949.74a9.5,9.5,0,0,0-9.51,9.5V564a9.51,9.51,0,0,0,9.51,9.51Z" transform="translate(-48.2 -204.37)"></path><path class="cls-3 vVoChnOS_60" d="M1936.66,420.6h-40.72a4.19,4.19,0,0,0-4.24,4.13V458a4.2,4.2,0,0,0,4.16,4.24h40.8a4.18,4.18,0,0,0,4.22-4.14V424.82a4.18,4.18,0,0,0-4.14-4.22Zm-20.38,31a9.51,9.51,0,1,1,9.51-9.51A9.5,9.5,0,0,1,1916.28,451.63Z" transform="translate(-48.2 -204.37)"></path><path class="cls-3 vVoChnOS_61" d="M1906.76,442.14a9.49,9.49,0,0,1,19,0v0a9.49,9.49,0,0,1-19,0v0" transform="translate(-48.2 -204.37)"></path><path class="cls-3 vVoChnOS_62" d="M2256.55,433.7h-90.69a5.49,5.49,0,0,0-5.46,5.46v6a5.49,5.49,0,0,0,5.46,5.46h90.69a5.49,5.49,0,0,0,5.47-5.46v-6A5.49,5.49,0,0,0,2256.55,433.7Zm-83.47,12.68a4.24,4.24,0,1,1,4.22-4.26v0a4.2,4.2,0,0,1-4.16,4.24h-.06Zm17,0a4.24,4.24,0,1,1,4.24-4.24h0a4.18,4.18,0,0,1-4.12,4.24h-.12Zm16.9,0a4.24,4.24,0,1,1,4.24-4.24h0a4.18,4.18,0,0,1-4.12,4.24H2207Z" transform="translate(-48.2 -204.37)"></path><path class="cls-3 vVoChnOS_63" d="M2173,437.92a4.24,4.24,0,1,0,4.22,4.26v0a4.18,4.18,0,0,0-4.14-4.22Z" transform="translate(-48.2 -204.37)"></path><path class="cls-3 vVoChnOS_64" d="M2206.9,437.92a4.24,4.24,0,1,0,4.24,4.24v0a4.19,4.19,0,0,0-4.15-4.22Z" transform="translate(-48.2 -204.37)"></path><path class="cls-3 vVoChnOS_65" d="M2190,437.92a4.24,4.24,0,1,0,4.23,4.24v0a4.17,4.17,0,0,0-4.14-4.22Z" transform="translate(-48.2 -204.37)"></path><path class="cls-3 vVoChnOS_66" d="M1970.76,770.74s.32,5.43,12,8,173.82,3.06,183,0,10.25-8,10.25-8" transform="translate(-48.2 -204.37)"></path><path id="C" class="cls-3 vVoChnOS_67" d="M2029.16,728.8l-1.33,26.71a8.91,8.91,0,0,0,8.46,9.33l8.89.44a8.92,8.92,0,0,0,9.36-8.46h0l.32-6.67-8.9-.44-.32,6.67-8.92-.43,1.33-26.71,8.9.44-.32,6.67,8.89.45.33-6.69a8.9,8.9,0,0,0-8.44-9.33h0l-8.9-.44a8.9,8.9,0,0,0-9.33,8.44Z" transform="translate(-48.2 -204.37)"></path><path id="C-2" class="cls-3 vVoChnOS_68" d="M1993.55,727.05l-1.33,26.62a8.92,8.92,0,0,0,8.46,9.33l8.92.46a8.94,8.94,0,0,0,9.33-8.46l.32-6.69-8.89-.44-.33,6.67-8.89-.44,1.31-26.61,8.9.44-.33,6.67,8.9.44.32-6.68a8.88,8.88,0,0,0-8.4-9.33h-.06l-8.89-.44a8.91,8.91,0,0,0-9.34,8.44Z" transform="translate(-48.2 -204.37)"></path><path class="cls-3 vVoChnOS_69" d="M2153.19,302.78l-14.1-80a13.81,13.81,0,0,0-16-11.24h0l-147,26a13.81,13.81,0,0,0-11.24,16v0l8.67,49.25,8.13,46h0L1969,351l-5-28.65a6.54,6.54,0,0,0-7.53-5.37h-.08l-7.11,1.24a6.54,6.54,0,0,0-5.36,7.56v0l13,73.79h20.72l-4.43-25.24,4.54,25.24h32.87l-17.11-96.94-8.65-48.86,135.84-23.91,12.77,72.77,17.11,96.94h19.79Z" transform="translate(-48.2 -204.37)"></path><path class="cls-3 vVoChnOS_70" d="M1973.14,374.43l13.1-2.38,5.45,27.62h18.86" transform="translate(-48.2 -204.37)"></path><style data-made-with="vivus-instant">.vVoChnOS_0{stroke-dasharray:3179 3181;stroke-dashoffset:3180;animation:vVoChnOS_draw_0 8200ms linear 0ms infinite,vVoChnOS_fade 8200ms linear 0ms infinite;}.vVoChnOS_1{stroke-dasharray:2308 2310;stroke-dashoffset:2309;animation:vVoChnOS_draw_1 8200ms linear 0ms infinite,vVoChnOS_fade 8200ms linear 0ms infinite;}.vVoChnOS_2{stroke-dasharray:586 588;stroke-dashoffset:587;animation:vVoChnOS_draw_2 8200ms linear 0ms infinite,vVoChnOS_fade 8200ms linear 0ms infinite;}.vVoChnOS_3{stroke-dasharray:517 519;stroke-dashoffset:518;animation:vVoChnOS_draw_3 8200ms linear 0ms infinite,vVoChnOS_fade 8200ms linear 0ms infinite;}.vVoChnOS_4{stroke-dasharray:299 301;stroke-dashoffset:300;animation:vVoChnOS_draw_4 8200ms linear 0ms infinite,vVoChnOS_fade 8200ms linear 0ms infinite;}.vVoChnOS_5{stroke-dasharray:329 331;stroke-dashoffset:330;animation:vVoChnOS_draw_5 8200ms linear 0ms infinite,vVoChnOS_fade 8200ms linear 0ms infinite;}.vVoChnOS_6{stroke-dasharray:199 201;stroke-dashoffset:200;animation:vVoChnOS_draw_6 8200ms linear 0ms infinite,vVoChnOS_fade 8200ms linear 0ms infinite;}.vVoChnOS_7{stroke-dasharray:49 51;stroke-dashoffset:50;animation:vVoChnOS_draw_7 8200ms linear 0ms infinite,vVoChnOS_fade 8200ms linear 0ms infinite;}.vVoChnOS_8{stroke-dasharray:384 386;stroke-dashoffset:385;animation:vVoChnOS_draw_8 8200ms linear 0ms infinite,vVoChnOS_fade 8200ms linear 0ms infinite;}.vVoChnOS_9{stroke-dasharray:49 51;stroke-dashoffset:50;animation:vVoChnOS_draw_9 8200ms linear 0ms infinite,vVoChnOS_fade 8200ms linear 0ms infinite;}.vVoChnOS_10{stroke-dasharray:199 201;stroke-dashoffset:200;animation:vVoChnOS_draw_10 8200ms linear 0ms infinite,vVoChnOS_fade 8200ms linear 0ms infinite;}.vVoChnOS_11{stroke-dasharray:583 585;stroke-dashoffset:584;animation:vVoChnOS_draw_11 8200ms linear 0ms infinite,vVoChnOS_fade 8200ms linear 0ms infinite;}.vVoChnOS_12{stroke-dasharray:517 519;stroke-dashoffset:518;animation:vVoChnOS_draw_12 8200ms linear 0ms infinite,vVoChnOS_fade 8200ms linear 0ms infinite;}.vVoChnOS_13{stroke-dasharray:329 331;stroke-dashoffset:330;animation:vVoChnOS_draw_13 8200ms linear 0ms infinite,vVoChnOS_fade 8200ms linear 0ms infinite;}.vVoChnOS_14{stroke-dasharray:199 201;stroke-dashoffset:200;animation:vVoChnOS_draw_14 8200ms linear 0ms infinite,vVoChnOS_fade 8200ms linear 0ms infinite;}.vVoChnOS_15{stroke-dasharray:49 51;stroke-dashoffset:50;animation:vVoChnOS_draw_15 8200ms linear 0ms infinite,vVoChnOS_fade 8200ms linear 0ms infinite;}.vVoChnOS_16{stroke-dasharray:456 458;stroke-dashoffset:457;animation:vVoChnOS_draw_16 8200ms linear 0ms infinite,vVoChnOS_fade 8200ms linear 0ms infinite;}.vVoChnOS_17{stroke-dasharray:668 670;stroke-dashoffset:669;animation:vVoChnOS_draw_17 8200ms linear 0ms infinite,vVoChnOS_fade 8200ms linear 0ms infinite;}.vVoChnOS_18{stroke-dasharray:49 51;stroke-dashoffset:50;animation:vVoChnOS_draw_18 8200ms linear 0ms infinite,vVoChnOS_fade 8200ms linear 0ms infinite;}.vVoChnOS_19{stroke-dasharray:199 201;stroke-dashoffset:200;animation:vVoChnOS_draw_19 8200ms linear 0ms infinite,vVoChnOS_fade 8200ms linear 0ms infinite;}.vVoChnOS_20{stroke-dasharray:456 458;stroke-dashoffset:457;animation:vVoChnOS_draw_20 8200ms linear 0ms infinite,vVoChnOS_fade 8200ms linear 0ms infinite;}.vVoChnOS_21{stroke-dasharray:375 377;stroke-dashoffset:376;animation:vVoChnOS_draw_21 8200ms linear 0ms infinite,vVoChnOS_fade 8200ms linear 0ms infinite;}.vVoChnOS_22{stroke-dasharray:246 248;stroke-dashoffset:247;animation:vVoChnOS_draw_22 8200ms linear 0ms infinite,vVoChnOS_fade 8200ms linear 0ms infinite;}.vVoChnOS_23{stroke-dasharray:246 248;stroke-dashoffset:247;animation:vVoChnOS_draw_23 8200ms linear 0ms infinite,vVoChnOS_fade 8200ms linear 0ms infinite;}.vVoChnOS_24{stroke-dasharray:364 366;stroke-dashoffset:365;animation:vVoChnOS_draw_24 8200ms linear 0ms infinite,vVoChnOS_fade 8200ms linear 0ms infinite;}.vVoChnOS_25{stroke-dasharray:186 188;stroke-dashoffset:187;animation:vVoChnOS_draw_25 8200ms linear 0ms infinite,vVoChnOS_fade 8200ms linear 0ms infinite;}.vVoChnOS_26{stroke-dasharray:281 283;stroke-dashoffset:282;animation:vVoChnOS_draw_26 8200ms linear 0ms infinite,vVoChnOS_fade 8200ms linear 0ms infinite;}.vVoChnOS_27{stroke-dasharray:360 362;stroke-dashoffset:361;animation:vVoChnOS_draw_27 8200ms linear 0ms infinite,vVoChnOS_fade 8200ms linear 0ms infinite;}.vVoChnOS_28{stroke-dasharray:279 281;stroke-dashoffset:280;animation:vVoChnOS_draw_28 8200ms linear 0ms infinite,vVoChnOS_fade 8200ms linear 0ms infinite;}.vVoChnOS_29{stroke-dasharray:424 426;stroke-dashoffset:425;animation:vVoChnOS_draw_29 8200ms linear 0ms infinite,vVoChnOS_fade 8200ms linear 0ms infinite;}.vVoChnOS_30{stroke-dasharray:424 426;stroke-dashoffset:425;animation:vVoChnOS_draw_30 8200ms linear 0ms infinite,vVoChnOS_fade 8200ms linear 0ms infinite;}.vVoChnOS_31{stroke-dasharray:281 283;stroke-dashoffset:282;animation:vVoChnOS_draw_31 8200ms linear 0ms infinite,vVoChnOS_fade 8200ms linear 0ms infinite;}.vVoChnOS_32{stroke-dasharray:187 189;stroke-dashoffset:188;animation:vVoChnOS_draw_32 8200ms linear 0ms infinite,vVoChnOS_fade 8200ms linear 0ms infinite;}.vVoChnOS_33{stroke-dasharray:246 248;stroke-dashoffset:247;animation:vVoChnOS_draw_33 8200ms linear 0ms infinite,vVoChnOS_fade 8200ms linear 0ms infinite;}.vVoChnOS_34{stroke-dasharray:221 223;stroke-dashoffset:222;animation:vVoChnOS_draw_34 8200ms linear 0ms infinite,vVoChnOS_fade 8200ms linear 0ms infinite;}.vVoChnOS_35{stroke-dasharray:323 325;stroke-dashoffset:324;animation:vVoChnOS_draw_35 8200ms linear 0ms infinite,vVoChnOS_fade 8200ms linear 0ms infinite;}.vVoChnOS_36{stroke-dasharray:246 248;stroke-dashoffset:247;animation:vVoChnOS_draw_36 8200ms linear 0ms infinite,vVoChnOS_fade 8200ms linear 0ms infinite;}.vVoChnOS_37{stroke-dasharray:324 326;stroke-dashoffset:325;animation:vVoChnOS_draw_37 8200ms linear 0ms infinite,vVoChnOS_fade 8200ms linear 0ms infinite;}.vVoChnOS_38{stroke-dasharray:281 283;stroke-dashoffset:282;animation:vVoChnOS_draw_38 8200ms linear 0ms infinite,vVoChnOS_fade 8200ms linear 0ms infinite;}.vVoChnOS_39{stroke-dasharray:267 269;stroke-dashoffset:268;animation:vVoChnOS_draw_39 8200ms linear 0ms infinite,vVoChnOS_fade 8200ms linear 0ms infinite;}.vVoChnOS_40{stroke-dasharray:20 22;stroke-dashoffset:21;animation:vVoChnOS_draw_40 8200ms linear 0ms infinite,vVoChnOS_fade 8200ms linear 0ms infinite;}.vVoChnOS_41{stroke-dasharray:79 81;stroke-dashoffset:80;animation:vVoChnOS_draw_41 8200ms linear 0ms infinite,vVoChnOS_fade 8200ms linear 0ms infinite;}.vVoChnOS_42{stroke-dasharray:131 133;stroke-dashoffset:132;animation:vVoChnOS_draw_42 8200ms linear 0ms infinite,vVoChnOS_fade 8200ms linear 0ms infinite;}.vVoChnOS_43{stroke-dasharray:209 211;stroke-dashoffset:210;animation:vVoChnOS_draw_43 8200ms linear 0ms infinite,vVoChnOS_fade 8200ms linear 0ms infinite;}.vVoChnOS_44{stroke-dasharray:828 830;stroke-dashoffset:829;animation:vVoChnOS_draw_44 8200ms linear 0ms infinite,vVoChnOS_fade 8200ms linear 0ms infinite;}.vVoChnOS_45{stroke-dasharray:290 292;stroke-dashoffset:291;animation:vVoChnOS_draw_45 8200ms linear 0ms infinite,vVoChnOS_fade 8200ms linear 0ms infinite;}.vVoChnOS_46{stroke-dasharray:351 353;stroke-dashoffset:352;animation:vVoChnOS_draw_46 8200ms linear 0ms infinite,vVoChnOS_fade 8200ms linear 0ms infinite;}.vVoChnOS_47{stroke-dasharray:229 231;stroke-dashoffset:230;animation:vVoChnOS_draw_47 8200ms linear 0ms infinite,vVoChnOS_fade 8200ms linear 0ms infinite;}.vVoChnOS_48{stroke-dasharray:2526 2528;stroke-dashoffset:2527;animation:vVoChnOS_draw_48 8200ms linear 0ms infinite,vVoChnOS_fade 8200ms linear 0ms infinite;}.vVoChnOS_49{stroke-dasharray:36 38;stroke-dashoffset:37;animation:vVoChnOS_draw_49 8200ms linear 0ms infinite,vVoChnOS_fade 8200ms linear 0ms infinite;}.vVoChnOS_50{stroke-dasharray:36 38;stroke-dashoffset:37;animation:vVoChnOS_draw_50 8200ms linear 0ms infinite,vVoChnOS_fade 8200ms linear 0ms infinite;}.vVoChnOS_51{stroke-dasharray:204 206;stroke-dashoffset:205;animation:vVoChnOS_draw_51 8200ms linear 0ms infinite,vVoChnOS_fade 8200ms linear 0ms infinite;}.vVoChnOS_52{stroke-dasharray:204 206;stroke-dashoffset:205;animation:vVoChnOS_draw_52 8200ms linear 0ms infinite,vVoChnOS_fade 8200ms linear 0ms infinite;}.vVoChnOS_53{stroke-dasharray:204 206;stroke-dashoffset:205;animation:vVoChnOS_draw_53 8200ms linear 0ms infinite,vVoChnOS_fade 8200ms linear 0ms infinite;}.vVoChnOS_54{stroke-dasharray:36 38;stroke-dashoffset:37;animation:vVoChnOS_draw_54 8200ms linear 0ms infinite,vVoChnOS_fade 8200ms linear 0ms infinite;}.vVoChnOS_55{stroke-dasharray:36 38;stroke-dashoffset:37;animation:vVoChnOS_draw_55 8200ms linear 0ms infinite,vVoChnOS_fade 8200ms linear 0ms infinite;}.vVoChnOS_56{stroke-dasharray:204 206;stroke-dashoffset:205;animation:vVoChnOS_draw_56 8200ms linear 0ms infinite,vVoChnOS_fade 8200ms linear 0ms infinite;}.vVoChnOS_57{stroke-dasharray:6 8;stroke-dashoffset:7;animation:vVoChnOS_draw_57 8200ms linear 0ms infinite,vVoChnOS_fade 8200ms linear 0ms infinite;}.vVoChnOS_58{stroke-dasharray:188 190;stroke-dashoffset:189;animation:vVoChnOS_draw_58 8200ms linear 0ms infinite,vVoChnOS_fade 8200ms linear 0ms infinite;}.vVoChnOS_59{stroke-dasharray:569 571;stroke-dashoffset:570;animation:vVoChnOS_draw_59 8200ms linear 0ms infinite,vVoChnOS_fade 8200ms linear 0ms infinite;}.vVoChnOS_60{stroke-dasharray:235 237;stroke-dashoffset:236;animation:vVoChnOS_draw_60 8200ms linear 0ms infinite,vVoChnOS_fade 8200ms linear 0ms infinite;}.vVoChnOS_61{stroke-dasharray:60 62;stroke-dashoffset:61;animation:vVoChnOS_draw_61 8200ms linear 0ms infinite,vVoChnOS_fade 8200ms linear 0ms infinite;}.vVoChnOS_62{stroke-dasharray:308 310;stroke-dashoffset:309;animation:vVoChnOS_draw_62 8200ms linear 0ms infinite,vVoChnOS_fade 8200ms linear 0ms infinite;}.vVoChnOS_63{stroke-dasharray:27 29;stroke-dashoffset:28;animation:vVoChnOS_draw_63 8200ms linear 0ms infinite,vVoChnOS_fade 8200ms linear 0ms infinite;}.vVoChnOS_64{stroke-dasharray:27 29;stroke-dashoffset:28;animation:vVoChnOS_draw_64 8200ms linear 0ms infinite,vVoChnOS_fade 8200ms linear 0ms infinite;}.vVoChnOS_65{stroke-dasharray:27 29;stroke-dashoffset:28;animation:vVoChnOS_draw_65 8200ms linear 0ms infinite,vVoChnOS_fade 8200ms linear 0ms infinite;}.vVoChnOS_66{stroke-dasharray:212 214;stroke-dashoffset:213;animation:vVoChnOS_draw_66 8200ms linear 0ms infinite,vVoChnOS_fade 8200ms linear 0ms infinite;}.vVoChnOS_67{stroke-dasharray:190 192;stroke-dashoffset:191;animation:vVoChnOS_draw_67 8200ms linear 0ms infinite,vVoChnOS_fade 8200ms linear 0ms infinite;}.vVoChnOS_68{stroke-dasharray:190 192;stroke-dashoffset:191;animation:vVoChnOS_draw_68 8200ms linear 0ms infinite,vVoChnOS_fade 8200ms linear 0ms infinite;}.vVoChnOS_69{stroke-dasharray:1197 1199;stroke-dashoffset:1198;animation:vVoChnOS_draw_69 8200ms linear 0ms infinite,vVoChnOS_fade 8200ms linear 0ms infinite;}.vVoChnOS_70{stroke-dasharray:61 63;stroke-dashoffset:62;animation:vVoChnOS_draw_70 8200ms linear 0ms infinite,vVoChnOS_fade 8200ms linear 0ms infinite;}@keyframes vVoChnOS_draw{100%{stroke-dashoffset:0;}}@keyframes vVoChnOS_fade{0%{stroke-opacity:1;}95.1219512195122%{stroke-opacity:1;}100%{stroke-opacity:0;}}@keyframes vVoChnOS_draw_0{9.75609756097561%{stroke-dashoffset: 3180}42.27642276422765%{ stroke-dashoffset: 0;}100%{ stroke-dashoffset: 0;}}@keyframes vVoChnOS_draw_1{9.988385598141695%{stroke-dashoffset: 2309}42.50871080139373%{ stroke-dashoffset: 0;}100%{ stroke-dashoffset: 0;}}@keyframes vVoChnOS_draw_2{10.220673635307781%{stroke-dashoffset: 587}42.74099883855982%{ stroke-dashoffset: 0;}100%{ stroke-dashoffset: 0;}}@keyframes vVoChnOS_draw_3{10.452961672473867%{stroke-dashoffset: 518}42.973286875725904%{ stroke-dashoffset: 0;}100%{ stroke-dashoffset: 0;}}@keyframes vVoChnOS_draw_4{10.685249709639953%{stroke-dashoffset: 300}43.20557491289199%{ stroke-dashoffset: 0;}100%{ stroke-dashoffset: 0;}}@keyframes vVoChnOS_draw_5{10.917537746806039%{stroke-dashoffset: 330}43.437862950058076%{ stroke-dashoffset: 0;}100%{ stroke-dashoffset: 0;}}@keyframes vVoChnOS_draw_6{11.149825783972124%{stroke-dashoffset: 200}43.67015098722416%{ stroke-dashoffset: 0;}100%{ stroke-dashoffset: 0;}}@keyframes vVoChnOS_draw_7{11.382113821138212%{stroke-dashoffset: 50}43.90243902439025%{ stroke-dashoffset: 0;}100%{ stroke-dashoffset: 0;}}@keyframes vVoChnOS_draw_8{11.614401858304298%{stroke-dashoffset: 385}44.13472706155633%{ stroke-dashoffset: 0;}100%{ stroke-dashoffset: 0;}}@keyframes vVoChnOS_draw_9{11.846689895470384%{stroke-dashoffset: 50}44.367015098722426%{ stroke-dashoffset: 0;}100%{ stroke-dashoffset: 0;}}@keyframes vVoChnOS_draw_10{12.07897793263647%{stroke-dashoffset: 200}44.599303135888505%{ stroke-dashoffset: 0;}100%{ stroke-dashoffset: 0;}}@keyframes vVoChnOS_draw_11{12.311265969802555%{stroke-dashoffset: 584}44.83159117305459%{ stroke-dashoffset: 0;}100%{ stroke-dashoffset: 0;}}@keyframes vVoChnOS_draw_12{12.543554006968641%{stroke-dashoffset: 518}45.063879210220676%{ stroke-dashoffset: 0;}100%{ stroke-dashoffset: 0;}}@keyframes vVoChnOS_draw_13{12.775842044134727%{stroke-dashoffset: 330}45.29616724738676%{ stroke-dashoffset: 0;}100%{ stroke-dashoffset: 0;}}@keyframes vVoChnOS_draw_14{13.008130081300814%{stroke-dashoffset: 200}45.528455284552855%{ stroke-dashoffset: 0;}100%{ stroke-dashoffset: 0;}}@keyframes vVoChnOS_draw_15{13.240418118466899%{stroke-dashoffset: 50}45.76074332171894%{ stroke-dashoffset: 0;}100%{ stroke-dashoffset: 0;}}@keyframes vVoChnOS_draw_16{13.472706155632984%{stroke-dashoffset: 457}45.99303135888502%{ stroke-dashoffset: 0;}100%{ stroke-dashoffset: 0;}}@keyframes vVoChnOS_draw_17{13.704994192799072%{stroke-dashoffset: 669}46.225319396051106%{ stroke-dashoffset: 0;}100%{ stroke-dashoffset: 0;}}@keyframes vVoChnOS_draw_18{13.937282229965156%{stroke-dashoffset: 50}46.4576074332172%{ stroke-dashoffset: 0;}100%{ stroke-dashoffset: 0;}}@keyframes vVoChnOS_draw_19{14.169570267131244%{stroke-dashoffset: 200}46.68989547038328%{ stroke-dashoffset: 0;}100%{ stroke-dashoffset: 0;}}@keyframes vVoChnOS_draw_20{14.40185830429733%{stroke-dashoffset: 457}46.92218350754936%{ stroke-dashoffset: 0;}100%{ stroke-dashoffset: 0;}}@keyframes vVoChnOS_draw_21{14.634146341463413%{stroke-dashoffset: 376}47.15447154471545%{ stroke-dashoffset: 0;}100%{ stroke-dashoffset: 0;}}@keyframes vVoChnOS_draw_22{14.866434378629501%{stroke-dashoffset: 247}47.386759581881535%{ stroke-dashoffset: 0;}100%{ stroke-dashoffset: 0;}}@keyframes vVoChnOS_draw_23{15.098722415795587%{stroke-dashoffset: 247}47.61904761904762%{ stroke-dashoffset: 0;}100%{ stroke-dashoffset: 0;}}@keyframes vVoChnOS_draw_24{15.33101045296167%{stroke-dashoffset: 365}47.851335656213706%{ stroke-dashoffset: 0;}100%{ stroke-dashoffset: 0;}}@keyframes vVoChnOS_draw_25{15.563298490127758%{stroke-dashoffset: 187}48.08362369337979%{ stroke-dashoffset: 0;}100%{ stroke-dashoffset: 0;}}@keyframes vVoChnOS_draw_26{15.795586527293844%{stroke-dashoffset: 282}48.315911730545885%{ stroke-dashoffset: 0;}100%{ stroke-dashoffset: 0;}}@keyframes vVoChnOS_draw_27{16.02787456445993%{stroke-dashoffset: 361}48.548199767711964%{ stroke-dashoffset: 0;}100%{ stroke-dashoffset: 0;}}@keyframes vVoChnOS_draw_28{16.260162601626018%{stroke-dashoffset: 280}48.78048780487806%{ stroke-dashoffset: 0;}100%{ stroke-dashoffset: 0;}}@keyframes vVoChnOS_draw_29{16.4924506387921%{stroke-dashoffset: 425}49.012775842044135%{ stroke-dashoffset: 0;}100%{ stroke-dashoffset: 0;}}@keyframes vVoChnOS_draw_30{16.72473867595819%{stroke-dashoffset: 425}49.24506387921023%{ stroke-dashoffset: 0;}100%{ stroke-dashoffset: 0;}}@keyframes vVoChnOS_draw_31{16.957026713124275%{stroke-dashoffset: 282}49.477351916376314%{ stroke-dashoffset: 0;}100%{ stroke-dashoffset: 0;}}@keyframes vVoChnOS_draw_32{17.18931475029036%{stroke-dashoffset: 188}49.70963995354239%{ stroke-dashoffset: 0;}100%{ stroke-dashoffset: 0;}}@keyframes vVoChnOS_draw_33{17.421602787456443%{stroke-dashoffset: 247}49.94192799070848%{ stroke-dashoffset: 0;}100%{ stroke-dashoffset: 0;}}@keyframes vVoChnOS_draw_34{17.653890824622533%{stroke-dashoffset: 222}50.17421602787457%{ stroke-dashoffset: 0;}100%{ stroke-dashoffset: 0;}}@keyframes vVoChnOS_draw_35{17.886178861788615%{stroke-dashoffset: 324}50.40650406504066%{ stroke-dashoffset: 0;}100%{ stroke-dashoffset: 0;}}@keyframes vVoChnOS_draw_36{18.118466898954704%{stroke-dashoffset: 247}50.63879210220673%{ stroke-dashoffset: 0;}100%{ stroke-dashoffset: 0;}}@keyframes vVoChnOS_draw_37{18.35075493612079%{stroke-dashoffset: 325}50.87108013937283%{ stroke-dashoffset: 0;}100%{ stroke-dashoffset: 0;}}@keyframes vVoChnOS_draw_38{18.583042973286876%{stroke-dashoffset: 282}51.10336817653891%{ stroke-dashoffset: 0;}100%{ stroke-dashoffset: 0;}}@keyframes vVoChnOS_draw_39{18.81533101045296%{stroke-dashoffset: 268}51.33565621370501%{ stroke-dashoffset: 0;}100%{ stroke-dashoffset: 0;}}@keyframes vVoChnOS_draw_40{19.047619047619047%{stroke-dashoffset: 21}51.567944250871086%{ stroke-dashoffset: 0;}100%{ stroke-dashoffset: 0;}}@keyframes vVoChnOS_draw_41{19.279907084785133%{stroke-dashoffset: 80}51.800232288037165%{ stroke-dashoffset: 0;}100%{ stroke-dashoffset: 0;}}@keyframes vVoChnOS_draw_42{19.51219512195122%{stroke-dashoffset: 132}52.03252032520326%{ stroke-dashoffset: 0;}100%{ stroke-dashoffset: 0;}}@keyframes vVoChnOS_draw_43{19.744483159117305%{stroke-dashoffset: 210}52.264808362369344%{ stroke-dashoffset: 0;}100%{ stroke-dashoffset: 0;}}@keyframes vVoChnOS_draw_44{19.97677119628339%{stroke-dashoffset: 829}52.49709639953542%{ stroke-dashoffset: 0;}100%{ stroke-dashoffset: 0;}}@keyframes vVoChnOS_draw_45{20.209059233449477%{stroke-dashoffset: 291}52.72938443670151%{ stroke-dashoffset: 0;}100%{ stroke-dashoffset: 0;}}@keyframes vVoChnOS_draw_46{20.441347270615562%{stroke-dashoffset: 352}52.961672473867594%{ stroke-dashoffset: 0;}100%{ stroke-dashoffset: 0;}}@keyframes vVoChnOS_draw_47{20.673635307781648%{stroke-dashoffset: 230}53.19396051103369%{ stroke-dashoffset: 0;}100%{ stroke-dashoffset: 0;}}@keyframes vVoChnOS_draw_48{20.905923344947734%{stroke-dashoffset: 2527}53.42624854819977%{ stroke-dashoffset: 0;}100%{ stroke-dashoffset: 0;}}@keyframes vVoChnOS_draw_49{21.138211382113823%{stroke-dashoffset: 37}53.65853658536586%{ stroke-dashoffset: 0;}100%{ stroke-dashoffset: 0;}}@keyframes vVoChnOS_draw_50{21.370499419279906%{stroke-dashoffset: 37}53.89082462253194%{ stroke-dashoffset: 0;}100%{ stroke-dashoffset: 0;}}@keyframes vVoChnOS_draw_51{21.602787456445995%{stroke-dashoffset: 205}54.12311265969804%{ stroke-dashoffset: 0;}100%{ stroke-dashoffset: 0;}}@keyframes vVoChnOS_draw_52{21.835075493612077%{stroke-dashoffset: 205}54.35540069686411%{ stroke-dashoffset: 0;}100%{ stroke-dashoffset: 0;}}@keyframes vVoChnOS_draw_53{22.067363530778167%{stroke-dashoffset: 205}54.5876887340302%{ stroke-dashoffset: 0;}100%{ stroke-dashoffset: 0;}}@keyframes vVoChnOS_draw_54{22.299651567944252%{stroke-dashoffset: 37}54.81997677119629%{ stroke-dashoffset: 0;}100%{ stroke-dashoffset: 0;}}@keyframes vVoChnOS_draw_55{22.531939605110338%{stroke-dashoffset: 37}55.052264808362374%{ stroke-dashoffset: 0;}100%{ stroke-dashoffset: 0;}}@keyframes vVoChnOS_draw_56{22.764227642276424%{stroke-dashoffset: 205}55.28455284552847%{ stroke-dashoffset: 0;}100%{ stroke-dashoffset: 0;}}@keyframes vVoChnOS_draw_57{22.99651567944251%{stroke-dashoffset: 7}55.51684088269454%{ stroke-dashoffset: 0;}100%{ stroke-dashoffset: 0;}}@keyframes vVoChnOS_draw_58{23.228803716608596%{stroke-dashoffset: 189}55.749128919860624%{ stroke-dashoffset: 0;}100%{ stroke-dashoffset: 0;}}@keyframes vVoChnOS_draw_59{23.46109175377468%{stroke-dashoffset: 570}55.98141695702672%{ stroke-dashoffset: 0;}100%{ stroke-dashoffset: 0;}}@keyframes vVoChnOS_draw_60{23.693379790940767%{stroke-dashoffset: 236}56.2137049941928%{ stroke-dashoffset: 0;}100%{ stroke-dashoffset: 0;}}@keyframes vVoChnOS_draw_61{23.925667828106853%{stroke-dashoffset: 61}56.445993031358896%{ stroke-dashoffset: 0;}100%{ stroke-dashoffset: 0;}}@keyframes vVoChnOS_draw_62{24.15795586527294%{stroke-dashoffset: 309}56.678281068524974%{ stroke-dashoffset: 0;}100%{ stroke-dashoffset: 0;}}@keyframes vVoChnOS_draw_63{24.390243902439025%{stroke-dashoffset: 28}56.91056910569105%{ stroke-dashoffset: 0;}100%{ stroke-dashoffset: 0;}}@keyframes vVoChnOS_draw_64{24.62253193960511%{stroke-dashoffset: 28}57.14285714285715%{ stroke-dashoffset: 0;}100%{ stroke-dashoffset: 0;}}@keyframes vVoChnOS_draw_65{24.854819976771196%{stroke-dashoffset: 28}57.375145180023225%{ stroke-dashoffset: 0;}100%{ stroke-dashoffset: 0;}}@keyframes vVoChnOS_draw_66{25.087108013937282%{stroke-dashoffset: 213}57.60743321718932%{ stroke-dashoffset: 0;}100%{ stroke-dashoffset: 0;}}@keyframes vVoChnOS_draw_67{25.319396051103364%{stroke-dashoffset: 191}57.8397212543554%{ stroke-dashoffset: 0;}100%{ stroke-dashoffset: 0;}}@keyframes vVoChnOS_draw_68{25.551684088269454%{stroke-dashoffset: 191}58.07200929152149%{ stroke-dashoffset: 0;}100%{ stroke-dashoffset: 0;}}@keyframes vVoChnOS_draw_69{25.78397212543554%{stroke-dashoffset: 1198}58.30429732868758%{ stroke-dashoffset: 0;}100%{ stroke-dashoffset: 0;}}@keyframes vVoChnOS_draw_70{26.016260162601622%{stroke-dashoffset: 62}58.536585365853654%{ stroke-dashoffset: 0;}100%{ stroke-dashoffset: 0;}}</style></svg>