<?xml version="1.0" encoding="utf-8"?>
<!-- Generator: Adobe Illustrator 23.0.0, SVG Export Plug-In . SVG Version: 6.00 Build 0)  -->
<svg version="1.1" id="Layer_1" xmlns="http://www.w3.org/2000/svg" xmlns:xlink="http://www.w3.org/1999/xlink" x="0px" y="0px"
	 viewBox="0 0 1764.1 1266.1" style="enable-background:new 0 0 1764.1 1266.1;" xml:space="preserve">
<style type="text/css">
	.st0{fill:#F44336;}
	.st1{fill:none;stroke:#F44336;stroke-width:40;stroke-miterlimit:10;}
	.st2{fill:#FFFFFF;}
	.st3{fill:none;}
</style>
<title>gci-art</title>
<path class="st0" d="M782.9,1020c-8.6-3.6-17.3-7.1-25.9-10.8c-6.6-2.8-13.1-5.8-19.7-8.4c-4-1.6-5.8-4-5.6-8.5
	c0.7-18.1-1.6-36.1-7-53.4c-7.7-25.7-21.4-49.3-40-68.6c-27.5-28.7-60.8-46.1-100.1-52c-9.4-1.4-19-1.5-28.5-1.6c-4.9,0-8-1.3-9.8-6
	c-5.8-14.7-11.9-29.3-18-43.9c-1.6-4-0.3-6.8,2.6-9.5c17.5-16.3,31.2-36.3,40-58.6c18.3-45.3,16.7-96.2-4.2-140.3
	c-8.5-17.8-19.4-34-33.9-47.5c-4.6-4.3-6.1-8.1-3.3-14.2c6.2-13.8,11.8-27.9,17.4-42c1.7-4.3,4.6-5.3,8.8-5.1
	c30.6,1.2,59-6.3,85.8-20.7c28.3-15.1,51.7-37.8,67.6-65.7c15.8-27.3,23.7-56.8,22.7-88.4c-0.2-5,1.6-7.9,6.2-9.7
	c14.5-5.8,29-11.8,43.5-17.9c4.5-1.9,7.4-0.1,10.3,3.1c17.7,19.1,39.2,32.6,63.5,41.7c24.8,9.3,50.5,12.2,76.8,9.6
	c32.1-3,62.6-15.2,88-35c6.6-5.1,12.5-11,18.5-16.8c2.9-2.9,5.6-3.9,9.5-2.3c15.1,6.3,30.2,12.5,45.3,18.6c3.7,1.5,3.5,4.5,3.6,7.6
	c0.6,21.2,3,42.1,10.5,62.1c18.6,49.6,52.9,83.8,102,103c19.7,7.9,40.8,11.5,62,10.6c6.5-0.3,10,1.9,12.3,7.9
	c5.3,13.6,11,27.1,16.8,40.6c1.9,4.4,1,7.4-2.4,10.8c-26.1,25.9-43.5,56.7-49.6,93.1c-8.4,50,2.1,95.8,33.3,136.3
	c5.3,6.9,11.3,13.1,17.3,19.4c2.4,2.5,3.4,4.8,2,8.2c-6.2,15.1-12.4,30.2-18.4,45.4c-1.7,4.3-4.5,5.8-9.1,5.6
	c-25.6-1-50.1,4.2-73.5,14.6c-32.6,14.3-59.8,38.3-78,68.9c-15,24.8-23.7,51.5-24.3,80.7c-0.1,4.8-0.7,9.5-0.9,14.3
	c-0.1,4.2-3.4,5.2-6.3,6.4c-13.7,5.7-27.4,11.2-41.2,16.7c-1.3,0.5-2.5,1.1-3.7,1.7h-4.1c-5.7-5.6-11.1-11.5-17.2-16.7
	c-28.3-23.9-61.2-36.6-97.9-39.3c-27.1-2.1-54.4,2.5-79.3,13.3c-22.8,10-42.9,23.7-59.1,42.7H782.9z M1097.6,633.5
	c0.4-100.2-80.2-182.9-181.3-183.7c-103.6-0.8-184,83-184.7,181.8c-0.7,101,80.5,184.5,182.3,184.7c101,0.5,183.2-80.9,183.8-181.9
	C1097.6,634.2,1097.6,633.8,1097.6,633.5L1097.6,633.5z"/>
<path class="st0" d="M913.9,740c-57.6,0.7-106.7-47.4-106.5-107.2c0.1-59.2,49.2-107.5,108.2-106.8c56.2,0.7,106.5,44.9,106.3,107.6
	c0.2,58.6-47.2,106.2-105.8,106.4C915.3,740,914.6,740,913.9,740z"/>
<circle class="st1" cx="914.6" cy="633" r="705.9"/>
<circle class="st0" cx="289.5" cy="1018.6" r="202.3"/>
<path class="st2" d="M267.3,1065.6c-2.8,11.1-7.3,21.3-15.4,29.6c-7.1,7.4-17,11.6-27.3,11.4c-6.3,0-12.3,1.2-17.5,4.8
	c-7.2,5.1-10.5,12.4-11.6,20.9c-0.5,3.8-0.4,7.7-0.6,11.6h-0.4c-0.1-0.4-0.2-0.9-0.4-1.3c-1.9-6.4-3.9-12.7-5.5-19.1
	c-1.1-4.6-1.5-9.3-2.1-14v-15.6c1-5.1,1.6-10.3,3-15.3c4.5-16.3,14.1-29,27.9-38.5c4.7-3.2,9.9-5.7,14.9-8.6
	c1.4-0.8,2.3-0.5,3.3,0.6c10.2,10.3,20.5,20.5,30.6,30.8C267,1063.6,267.4,1064.6,267.3,1065.6z"/>
<path class="st2" d="M392.4,907.3c-1.6,2.3-3,4.7-4.7,6.9c-16.1,21.1-31.9,42.3-48.3,63.1c-20.3,25.7-41,50.9-61.5,76.4
	c-0.4,0.5-0.8,0.9-1.1,1.4c-0.8,1.2-1.5,1.2-2.5,0.2c-10.3-10.4-20.7-20.7-31-31c-1.3-1.3-0.7-2,0.3-3c4.4-4.4,8.8-8.8,13.2-13.1
	c17.2-17.1,34.4-34.2,51.7-51.3c13.4-13.3,26.9-26.5,40.5-39.6c7.9-7.6,16.1-15,24.2-22.4c0.8-0.6,1.7-1.1,2.6-1.5h6.8
	c3.7,1,6.8,2.7,8.5,6.3c0.6,1.3,1,2.7,1.5,4.1L392.4,907.3z"/>
<ellipse transform="matrix(0.7071 -0.7071 0.7071 0.7071 272.0912 1119.5819)" class="st0" cx="1487.5" cy="231.3" rx="204" ry="204"/>
<path class="st2" d="M1439.3,143.9c-11.2,1.1-18.2,2.9-20.9,5.4c-2.7,2.6-3.8,7.7-3.1,15.3c2.4,24.8,2.4,41.8,0.2,50.8
	c-2.3,9.1-7.9,17.2-16.9,24.3c8.2,3.5,15,9.5,19.5,17.1c4.8,8,8.5,25.8,11.1,53.4c0.6,6,1.9,10.1,3.8,12.3c1.9,2.2,4.6,3.6,7.5,4
	c3,0.5,8.4,0.4,16.2-0.4l2.9,30.3l-6.6,0.6c-14.6,1.4-25.8,0.6-33.6-2.5c-7.9-3.1-13.4-8.1-16.6-15c-3.3-6.8-5.8-18.9-7.4-36.4
	c-1.3-13.1-2.9-22.7-4.9-28.7c-1.9-5.7-5-9.8-9.2-12.5c-4.2-2.7-10.3-3.8-18.1-3.5l-2.9-30.3c9.5-1,16-4.3,19.4-10
	c3.3-5.6,5.1-12,5-18.4c-0.1-6.6-0.6-13.8-1.3-21.7c-1.3-14-1.6-24.4-0.8-31.1c0.6-6,2.8-11.7,6.4-16.6c3.9-4.7,9-8.3,14.7-10.6
	c6.4-2.6,15.1-4.4,26.1-5.4l6.7-0.6L1439.3,143.9z"/>
<path class="st2" d="M1614.8,234.5c-7.6,1.1-13.2,3.3-16.8,6.7s-5.9,8.1-6.8,14.2c-1,6-0.8,15.8,0.5,29.1c1.4,14.5,1.7,24.9,1,31.3
	c-0.8,6.6-2.9,12.1-6.3,16.4c-3.5,4.5-8.4,8-14.8,10.6c-6.2,2.6-14.9,4.5-26.1,5.6l-6.7,0.6l-2.9-30.3c10.7-1,17.5-2.9,20.5-5.5
	c3-2.7,4.2-7.7,3.5-15.3c-2.3-24.2-2.4-41.2-0.2-50.8c2.3-9.8,7.9-17.9,16.8-24.2c-11-5.2-18.2-12.6-21.9-22.1
	c-3.6-9.5-6.6-25.7-8.8-48.5c-0.8-8-2.8-12.9-6.1-14.7c-3.3-1.8-10.4-2.2-21.4-1.1l-2.9-30.2l6.7-0.6c17-1.6,28.8-0.7,35.3,2.9
	c5.9,3.1,11,7.7,14.6,13.4c3.2,5.4,5.8,17.9,7.7,37.5c1.3,13.3,2.9,22.9,4.9,28.7c1.9,5.7,5,9.9,9.4,12.6c4.3,2.7,10.3,3.9,17.9,3.5
	L1614.8,234.5z"/>
<ellipse transform="matrix(0.7071 -0.7071 0.7071 0.7071 -270.8394 1321.2921)" class="st0" cx="1459.5" cy="987.6" rx="162.2" ry="162.2"/>
<path class="st2" d="M1503.5,1006.2c2.6-12.5,14.8-20.6,27.4-18c12.5,2.6,20.6,14.8,18,27.4c-2.6,12.5-14.8,20.5-27.3,18
	C1509,1031,1500.9,1018.8,1503.5,1006.2C1503.5,1006.2,1503.5,1006.2,1503.5,1006.2z"/>
<ellipse transform="matrix(0.8362 -0.5484 0.5484 0.8362 -273.4967 948.5008)" class="st2" cx="1451.1" cy="932.1" rx="43.8" ry="43.8"/>
<path class="st2" d="M1552.3,1087L1552.3,1087l-80.5-16.7l0,0c0-0.1,0-0.2,0.1-0.2l-123.7-25.7l0,0c8.8-42,50-69,92-60.3l0,0
	c28.6,6,51.4,27.5,59.2,55.6c6.8-2.2,14.1-2.7,21.1-1.2l0,0C1542.6,1043.1,1556.9,1064.8,1552.3,1087z"/>
<circle class="st0" cx="319.8" cy="235.8" r="162.6"/>
<polygon class="st2" points="403.9,156.5 357,166.4 347,119.5 "/>
<path class="st2" d="M204.5,231.4c-3-2-3.9-6-1.9-9l6.6-10.1c2.6-3.9,7.8-5,11.7-2.5l9.7,6.3l-14.8,22.7L204.5,231.4z"/>
<polygon class="st2" points="220.6,243 235.1,219.4 244.9,227.3 252.3,262.1 "/>
<polygon class="st0" points="302.7,267.1 300,261.2 295.1,268.8 "/>
<polygon class="st0" points="291.6,274.1 285.2,283.9 293.7,284.2 "/>
<g>
	<polygon class="st3" points="301.5,267.4 308,280.5 293.2,281.6 293.7,284.2 293.8,284.2 294.9,289.4 395.6,268.1 391.4,248.4 	"/>
	<path class="st2" d="M405.7,164.9l-55.3,11.7l-11.7-55.3l-106.6,22.6l18,84.9l37.1,24.1l-3.2-15.3l100.7-21.3l4.2,19.7l-96.3,20.4
		l1.4,0.9l-14.7,22.7L258,266.2l18.2,85.9L438,317.8L405.7,164.9z M294.9,289.4l-1.1-5.2l0,0l-0.6-2.6l-10.3,0.8l14.7-23l4,8.1
		l89.9-19l4.2,19.7L294.9,289.4z"/>
</g>
<rect x="278" y="194.6" transform="matrix(0.9783 -0.2071 0.2071 0.9783 -35.242 72.6642)" class="st0" width="103" height="20.1"/>
<rect x="298.4" y="290.9" transform="matrix(0.9783 -0.2071 0.2071 0.9783 -54.7346 78.9708)" class="st0" width="103" height="20.1"/>
</svg>
