<svg id="Layer_1" data-name="Layer 1" xmlns="http://www.w3.org/2000/svg" viewBox="0 0 1764.06 1266.07"><defs><style>.cls-1{fill:#f44336;}.cls-2{fill:none;stroke:#f44336;stroke-miterlimit:10;stroke-width:40px;}.cls-3{fill:#fff;}</style></defs><title>gci-art</title><path class="cls-1" d="M782.86,1020c-8.63-3.58-17.28-7.13-25.89-10.75-6.59-2.78-13.09-5.78-19.72-8.43-4-1.6-5.78-4-5.58-8.51a159.25,159.25,0,0,0-7-53.42,168.93,168.93,0,0,0-40-68.63q-41.18-43.11-100.11-52c-9.37-1.41-19-1.49-28.49-1.56-4.88,0-8-1.28-9.85-6-5.85-14.71-11.94-29.32-18-43.93-1.64-3.95-.32-6.77,2.61-9.49a161.07,161.07,0,0,0,40-58.6,174.81,174.81,0,0,0-4.22-140.33c-8.45-17.82-19.43-34-33.94-47.52-4.61-4.29-6.06-8.11-3.34-14.2,6.17-13.83,11.76-27.93,17.38-42,1.71-4.28,4.63-5.25,8.81-5.08,30.56,1.19,59.05-6.31,85.85-20.71A169.65,169.65,0,0,0,709,363.15c15.81-27.29,23.67-56.75,22.67-88.37-.16-5,1.6-7.87,6.19-9.71q21.81-8.71,43.45-17.85c4.45-1.87,7.37-.07,10.28,3.08,17.7,19.12,39.17,32.62,63.46,41.68,24.82,9.25,50.47,12.21,76.83,9.63a168.14,168.14,0,0,0,88-35.05c6.57-5.07,12.52-11,18.46-16.84,2.91-2.87,5.6-3.93,9.51-2.3q22.62,9.45,45.34,18.64c3.7,1.5,3.49,4.53,3.58,7.65.64,21.18,3,42.07,10.5,62.12,18.63,49.59,52.89,83.75,102,103a150,150,0,0,0,62,10.61c6.49-.29,10,1.9,12.35,7.85,5.34,13.63,11,27.12,16.77,40.59,1.86,4.38,1,7.37-2.41,10.77-26.13,25.88-43.52,56.67-49.6,93.11-8.36,50,2.1,95.79,33.27,136.25,5.28,6.86,11.33,13.14,17.28,19.44,2.4,2.54,3.37,4.82,2,8.17-6.21,15.1-12.39,30.22-18.43,45.4-1.7,4.29-4.5,5.79-9.06,5.61-25.64-1-50.08,4.22-73.47,14.64a170.18,170.18,0,0,0-78,68.87c-15,24.75-23.74,51.54-24.32,80.73-.09,4.75-.73,9.5-.89,14.25-.13,4.23-3.44,5.23-6.34,6.43-13.68,5.65-27.43,11.15-41.15,16.71-1.25.51-2.47,1.12-3.71,1.69h-4.08c-5.72-5.57-11.14-11.5-17.22-16.65C996,979.42,963.08,966.66,926.41,964a166.47,166.47,0,0,0-79.32,13.33C824.31,987.29,804.2,1001,788,1020Zm314.76-386.45c.39-100.21-80.15-182.86-181.35-183.67-103.59-.83-184,83-184.7,181.77-.73,101,80.55,184.45,182.29,184.71A182.83,182.83,0,0,0,1097.62,633.54Z"/><path class="cls-1" d="M913.9,740c-57.58.68-106.66-47.39-106.54-107.2.11-59.24,49.2-107.5,108.15-106.8,56.16.66,106.49,44.93,106.27,107.63A106.11,106.11,0,0,1,913.9,740Z"/><circle class="cls-2" cx="914.59" cy="633.03" r="705.92"/><circle class="cls-1" cx="289.47" cy="1018.61" r="202.27"/><path class="cls-3" d="M267.28,1065.64c-2.8,11.08-7.27,21.32-15.42,29.62a36.94,36.94,0,0,1-27.28,11.41c-6.27,0-12.25,1.2-17.46,4.85-7.21,5.06-10.49,12.44-11.6,20.87-.51,3.81-.39,7.71-.56,11.57h-.4c-.12-.45-.24-.89-.37-1.34-1.86-6.37-3.95-12.69-5.49-19.14-1.1-4.56-1.46-9.3-2.15-14V1093.9c1-5.09,1.62-10.28,3-15.26,4.48-16.29,14.07-29,27.94-38.52,4.71-3.22,9.92-5.7,14.88-8.58,1.35-.78,2.26-.46,3.31.6,10.2,10.27,20.46,20.48,30.64,30.78A3.48,3.48,0,0,1,267.28,1065.64Z"/><path class="cls-3" d="M392.39,907.29c-1.57,2.31-3,4.71-4.72,6.92-16.06,21.06-31.9,42.28-48.3,63.07-20.25,25.65-41,50.92-61.5,76.35-.37.47-.8.9-1.13,1.4-.79,1.24-1.53,1.15-2.52.16q-15.48-15.53-31-31c-1.29-1.28-.67-2,.25-3q6.6-6.56,13.18-13.14,25.83-25.68,51.69-51.34,20.15-19.9,40.47-39.62c7.92-7.64,16.11-15,24.22-22.43a13.12,13.12,0,0,1,2.56-1.47h6.8c3.69,1,6.8,2.71,8.47,6.33.61,1.32,1,2.72,1.55,4.08Z"/><circle class="cls-1" cx="1487.5" cy="231.35" r="203.96" transform="translate(272.09 1119.58) rotate(-45)"/><path class="cls-3" d="M1439.31,143.94q-16.8,1.62-20.9,5.45t-3.12,15.33q3.57,37.26.15,50.84t-16.92,24.31A41.47,41.47,0,0,1,1418,257q7.14,12.06,11.09,53.36.87,9,3.85,12.25a12,12,0,0,0,7.52,4q4.53.72,16.15-.39l2.9,30.31-6.57.63q-21.84,2.09-33.63-2.52t-16.6-15q-4.93-10.23-7.43-36.38-1.89-19.69-4.92-28.72-2.85-8.52-9.22-12.5t-18.06-3.49l-2.9-30.32q14.26-1.49,19.44-10a35,35,0,0,0,5-18.45q-.19-9.93-1.31-21.67-2-21-.82-31.15a32.56,32.56,0,0,1,6.45-16.55,36.92,36.92,0,0,1,14.66-10.58q9.59-3.84,26.12-5.43l6.7-.64Z"/><path class="cls-3" d="M1614.81,234.47q-11.44,1.6-16.82,6.7t-6.8,14.16q-1.43,9.06.49,29.14,2.08,21.73,1,31.27-1.22,9.93-6.33,16.41-5.22,6.74-14.79,10.59-9.3,3.94-26.1,5.56l-6.7.64-2.9-30.31q16-1.54,20.5-5.53t3.51-15.25q-3.48-36.37-.15-50.84,3.43-14.73,16.81-24.17-16.43-7.86-21.87-22.12t-8.85-48.48q-1.15-12-6.12-14.71t-21.4-1.14l-2.89-30.19,6.7-.64q25.5-2.43,35.32,2.87A38.48,38.48,0,0,1,1572,121.81q4.85,8.07,7.66,37.5,1.92,20,4.92,28.72,2.85,8.52,9.36,12.61t17.93,3.51Z"/><circle class="cls-1" cx="1459.52" cy="987.58" r="162.23" transform="translate(-270.84 1321.29) rotate(-45)"/><path class="cls-3" d="M1503.51,1006.2a23.14,23.14,0,1,1,18,27.36A23.14,23.14,0,0,1,1503.51,1006.2Z"/><circle class="cls-3" cx="1451.06" cy="931.96" r="43.81" transform="translate(-273.43 948.61) rotate(-33.26)"/><path class="cls-3" d="M1552.34,1087h0l-80.48-16.72h0a1.89,1.89,0,0,1,.05-.23l-123.67-25.69h0a78,78,0,0,1,92-60.35h0a78.05,78.05,0,0,1,59.15,55.59,40.8,40.8,0,0,1,21.07-1.21h0A41.23,41.23,0,0,1,1552.34,1087Z"/><path class="cls-1" d="M1500.59,1076a77.11,77.11,0,0,0-1.2-36.41,41.15,41.15,0,0,0-27.48,30.45l28.68,6Z"/><polygon class="cls-1" points="295.08 268.76 294.31 269.94 295.08 268.76 295.08 268.76"/><circle class="cls-1" cx="319.77" cy="235.78" r="162.58"/><polygon class="cls-3" points="403.89 156.5 356.96 166.44 347.02 119.5 403.89 156.5"/><path class="cls-3" d="M204.49,231.39a6.53,6.53,0,0,1-1.91-9l6.58-10.11a8.47,8.47,0,0,1,11.7-2.48l9.68,6.31-14.75,22.67Z"/><polygon class="cls-3" points="220.62 243 235.07 219.44 244.95 227.3 252.32 262.12 220.62 243"/><polygon class="cls-3" points="276.13 352.06 257.95 266.16 279.09 279.92 293.83 257.25 292.45 256.35 388.75 235.97 384.59 216.29 283.86 237.61 287.09 252.86 250.03 228.74 232.06 143.83 338.66 121.27 350.36 176.57 405.66 164.87 438.02 317.79 276.13 352.06"/><rect class="cls-1" x="298.41" y="290.91" width="102.96" height="20.11" transform="translate(-54.73 78.97) rotate(-11.95)"/><path class="cls-1" d="M293.71,284.16l13.44.39a2.17,2.17,0,0,0,2-3.07l-6.53-14.32h0l-7.58,1.6-.77,1.18-2.72,4.19Z"/><polygon class="cls-1" points="299.97 261.24 295.08 268.76 295.08 268.76 299.97 261.24"/><polygon class="cls-1" points="302.66 267.15 299.97 261.24 295.08 268.76 302.66 267.15"/><polygon class="cls-1" points="285.23 283.91 293.71 284.16 293.71 284.16 285.23 283.91"/><polygon class="cls-1" points="291.59 274.13 285.23 283.91 293.71 284.16 291.59 274.13"/><path class="cls-1" d="M391.38,248.38l-88.72,18.78,6.53,14.32a2.17,2.17,0,0,1-2,3.07l-13.44-.39h0l1.1,5.22,100.73-21.32Z"/><rect class="cls-1" x="278.03" y="194.64" width="102.96" height="20.11" transform="translate(-35.24 72.66) rotate(-11.95)"/></svg>