<svg id="Layer_1" data-name="Layer 1" xmlns="http://www.w3.org/2000/svg" viewBox="0 0 2412.67 916.46"><defs><style>.cls-1{fill:#fff;}.cls-2{fill:#f44336;}</style></defs><title>gci-designer</title><polygon class="cls-1" points="367.07 157.39 542.03 127.9 586.69 357.41 399.36 354.53 367.07 157.39"/><polygon class="cls-2" points="515.97 225.45 425.38 242.05 485.25 313.04 515.97 225.45"/><path class="cls-2" d="M730.22,340.62H653.88V238.39a15.51,15.51,0,0,0-15.56-15.55H578.06v.22L559.24,115.12a6,6,0,0,0-6.93-4.84l-199.88,35.3a6,6,0,0,0-4.84,6.93L360,223H319.1a15.51,15.51,0,0,0-15.56,15.55V340.75H227.33a6.28,6.28,0,0,0-6.28,6.27V785.08a6.28,6.28,0,0,0,6.28,6.27H354.65c-1-2.61-.91-2.61.13,0l-.13-.26a23.36,23.36,0,0,0,22,15.17H579.5a23.68,23.68,0,0,0,22-15.17h15.9l.18.26H730.35a6.28,6.28,0,0,0,6.28-6.27V346.89A6.3,6.3,0,0,0,730.22,340.62ZM538.45,134.73,554,223.1h.23L574.9,336.92l-.11,3.7H404.72L383.94,223l-10.46-59.22Z"/><path class="cls-1" d="M419.35,732.26c-3.36-1.4-6.74-2.78-10.09-4.19-2.57-1.09-5.1-2.26-7.69-3.29a3,3,0,0,1-2.17-3.32,62.23,62.23,0,0,0-2.73-20.82,67.4,67.4,0,0,0-54.61-47A79.24,79.24,0,0,0,331,653c-1.9,0-3.12-.49-3.84-2.33-2.28-5.74-4.65-11.43-7-17.13-.64-1.54-.13-2.64,1-3.7A62.85,62.85,0,0,0,336.71,607a68.14,68.14,0,0,0-1.65-54.69,60,60,0,0,0-13.23-18.53c-1.8-1.67-2.36-3.16-1.3-5.53,2.4-5.39,4.58-10.89,6.77-16.37.67-1.67,1.81-2.05,3.44-2a64.42,64.42,0,0,0,33.46-8.07,66.14,66.14,0,0,0,26.36-25.61,63.57,63.57,0,0,0,8.84-34.44,3.43,3.43,0,0,1,2.41-3.79q8.51-3.39,16.93-6.95c1.74-.73,2.88,0,4,1.2a63.16,63.16,0,0,0,24.74,16.24,67.28,67.28,0,0,0,64.24-9.91,81,81,0,0,0,7.2-6.56,3,3,0,0,1,3.71-.9q8.8,3.69,17.67,7.27c1.44.58,1.36,1.77,1.39,3,.25,8.26,1.17,16.4,4.1,24.21,7.26,19.33,20.61,32.65,39.75,40.15a58.57,58.57,0,0,0,24.17,4.14c2.53-.12,3.9.74,4.81,3.06,2.08,5.31,4.29,10.57,6.54,15.82a3.34,3.34,0,0,1-.94,4.19c-10.19,10.09-17,22.09-19.33,36.3-3.26,19.49.81,37.33,13,53.1a98.86,98.86,0,0,0,6.74,7.58,2.67,2.67,0,0,1,.78,3.19c-2.42,5.88-4.83,11.77-7.18,17.69a3.19,3.19,0,0,1-3.54,2.19,63.47,63.47,0,0,0-28.63,5.7,66.31,66.31,0,0,0-30.4,26.85A62.21,62.21,0,0,0,542.05,717c0,1.86-.29,3.71-.35,5.56-.05,1.65-1.34,2-2.47,2.5-5.33,2.21-10.69,4.35-16,6.52-.49.2-1,.43-1.45.66h-1.59c-2.23-2.17-4.34-4.49-6.71-6.49a67,67,0,0,0-69.06-10.13,62.72,62.72,0,0,0-23,16.64ZM542,581.63a71.08,71.08,0,1,0,0,.35v-.36Z"/><path class="cls-1" d="M470.43,623.12c-22.45.26-41.58-18.47-41.53-41.78a41.87,41.87,0,0,1,42.15-41.63c21.89.25,41.51,17.51,41.42,41.95a41.35,41.35,0,0,1-41.25,41.46Z"/><circle class="cls-1" cx="470.7" cy="581.5" r="44.87"/><path class="cls-2" d="M465.77,591.94a13.93,13.93,0,0,1-3.42,6.57A8.22,8.22,0,0,1,456.3,601a6.52,6.52,0,0,0-3.87,1.07,6.37,6.37,0,0,0-2.58,4.63c-.11.85-.08,1.71-.12,2.57h-.09c0-.1-.05-.2-.08-.3-.41-1.41-.88-2.81-1.22-4.24-.24-1-.32-2.07-.48-3.11v-3.45c.22-1.13.36-2.28.67-3.39a14.91,14.91,0,0,1,6.2-8.54c1-.72,2.2-1.27,3.3-1.91a.53.53,0,0,1,.73.13q3.4,3.42,6.8,6.83A.79.79,0,0,1,465.77,591.94Z"/><path class="cls-2" d="M493.53,556.81c-.35.51-.67,1-1,1.53-3.56,4.67-7.08,9.38-10.71,14-4.5,5.69-9.1,11.3-13.65,16.94-.08.11-.18.2-.25.31-.17.28-.34.26-.56,0l-6.88-6.88c-.28-.28-.14-.44.06-.66l2.92-2.92,11.47-11.39q4.47-4.41,9-8.79c1.76-1.69,3.57-3.33,5.37-5a3.25,3.25,0,0,1,.57-.33h1.51a2.63,2.63,0,0,1,1.88,1.4c.13.3.22.61.34.91Z"/><polygon class="cls-2" points="935.64 478.49 911.95 324.15 897.6 324.15 873.91 478.49 855.12 324.15 836.94 324.15 862.66 498.11 886.35 498.11 905.49 370.57 923.2 498.11 946.89 498.11 972.61 324.15 954.43 324.15 935.64 478.49"/><path class="cls-2" d="M1028.73,376q-8-4.18-19.27-4.18T990.2,376A28.29,28.29,0,0,0,978,388.1q-4.2,7.95-4.19,19.2v56.47q0,11.37,4.19,19.5a28.36,28.36,0,0,0,12.2,12.39q8,4.24,19.26,4.25t19.27-4.19a28.09,28.09,0,0,0,12.2-12.27q4.18-8.07,4.19-19.32V407.3q0-11.25-4.19-19.2A28.29,28.29,0,0,0,1028.73,376Zm-.84,88.18q0,9.45-4.85,14.6t-13.7,5.14q-8.73,0-13.52-5.14T991,464.13V407.3q0-9.21,4.78-14.36t13.52-5.14q8.74,0,13.64,5.14t4.91,14.36Z"/><path class="cls-2" d="M1086.27,391.88v-18h-17.22V498.11h17.22V419.5q1-15.08,11.13-23.39T1125,387.8h.84v-16a47.88,47.88,0,0,0-24.17,6.28A49.4,49.4,0,0,0,1086.27,391.88Z"/><polygon class="cls-2" points="1229.61 373.92 1210.46 373.92 1162.85 448.81 1162.85 324.15 1145.62 324.15 1145.62 498.11 1162.85 498.11 1162.85 472.47 1186.34 437.79 1215.13 498.11 1234.52 498.11 1196.67 422.54 1229.61 373.92"/><rect class="cls-2" x="1246.6" y="373.92" width="17.23" height="124.19"/><rect class="cls-2" x="1246.6" y="330.97" width="17.23" height="17.23"/><path class="cls-2" d="M1336.93,371.77a28.26,28.26,0,0,0-17.83,5.74,33.78,33.78,0,0,0-9.21,11.61v-15.2h-17.23V498.11h17.23V412.8q0-12.56,5.15-18.78t15.55-6.22q10.41,0,15.55,5.62t5.15,17v87.7h17.23v-87.7q0-19.38-7.84-29T1336.93,371.77Z"/><path class="cls-2" d="M1449.87,388.75a37.65,37.65,0,0,0-9.75-11.24,27,27,0,0,0-16.69-5.74q-9.81,0-16.75,4.54a28.57,28.57,0,0,0-10.59,13.22q-3.64,8.69-3.64,20.88v52.53q0,11.71,3.64,20.16a27.61,27.61,0,0,0,10.59,12.8q6.94,4.37,16.75,4.36a27.52,27.52,0,0,0,17.23-5.68,30.88,30.88,0,0,0,9.21-11.8v30.77q0,9.09-5.14,14.05t-14.6,5q-9.45,0-14.65-5.27t-5.21-14.71H1393q0,17.1,9.46,26.56l9.45,9.45h17.35q12,0,20.46-4.13a29,29,0,0,0,12.92-12q4.42-7.85,4.42-19V373.92h-17.23Zm-2.33,85.73a17.29,17.29,0,0,1-6.88,8,20.68,20.68,0,0,1-10.89,2.75q-9.57,0-14.83-5.86t-5.27-16.39V410.77q0-11.37,5.27-17.65t14.83-6.28a20.33,20.33,0,0,1,10.89,2.81,17.55,17.55,0,0,1,6.88,8.14,31.88,31.88,0,0,1,2.33,12.86V462A30.35,30.35,0,0,1,1447.54,474.48Z"/><path class="cls-2" d="M1581.84,376q-8-4.18-19.26-4.18T1543.32,376a28.26,28.26,0,0,0-12.21,12.15q-4.18,7.95-4.18,19.2v56.47q0,11.37,4.18,19.5a28.33,28.33,0,0,0,12.21,12.39q8,4.24,19.26,4.25t19.26-4.19a28.11,28.11,0,0,0,12.21-12.27q4.18-8.07,4.18-19.32V407.3q0-11.25-4.18-19.2A28.31,28.31,0,0,0,1581.84,376Zm-.83,88.18q0,9.45-4.85,14.6t-13.7,5.14q-8.73,0-13.52-5.14t-4.79-14.6V407.3q0-9.21,4.79-14.36t13.52-5.14q8.73,0,13.64,5.14T1581,407.3Z"/><path class="cls-2" d="M1690.18,381.4q-7.83-9.63-23.75-9.63a28.26,28.26,0,0,0-17.83,5.74,33.78,33.78,0,0,0-9.21,11.61v-15.2h-17.23V498.11h17.23V412.8q0-12.56,5.15-18.78t15.55-6.22q10.41,0,15.55,5.62t5.15,17v87.7H1698v-87.7Q1698,391,1690.18,381.4Z"/><path class="cls-2" d="M937.87,565.9q-13-6.35-31.37-6.35H851.69v186.6h54.68q18.74,0,31.82-6.61a44.43,44.43,0,0,0,19.7-18.86q6.61-12.25,6.61-28.81v-78q0-17.07-6.8-29.33A44.22,44.22,0,0,0,937.87,565.9Zm-7.63,124.56q0,11.29-6.48,17.39t-18.42,6.09H885.06V591.76h20.28q11.94,0,18.42,6.1t6.48,17.39Z"/><path class="cls-2" d="M1066.79,617.69q-10.9-6.81-26.31-6.8-15.78,0-27,6.22a41.2,41.2,0,0,0-17.07,18q-5.91,11.8-5.9,28.49v34.14q0,15.78,6.16,27.08a41.38,41.38,0,0,0,17.64,17.26l11.49,6h16.3q18.35,0,30-8.15t15.46-24.32L1059.47,705a20.16,20.16,0,0,1-6.73,10.14,18.45,18.45,0,0,1-11.49,3.46q-9.12,0-14.12-5.2t-5-15v-5.9h67V669q0-18.48-5.71-31.5T1066.79,617.69Zm-9.11,51.08h-35.55v-6.55q0-10.14,4.88-15.72t13.47-5.58a16.52,16.52,0,0,1,12.38,4.94q4.82,4.93,4.82,13.41Z"/><path class="cls-2" d="M1187,671.65a126.4,126.4,0,0,0-20.79-6,1.07,1.07,0,0,0-.51-.13.76.76,0,0,1-.52-.26,5.62,5.62,0,0,1-1.15-.13,9.22,9.22,0,0,1-1-.25,111.7,111.7,0,0,1-12.51-3,20.58,20.58,0,0,1-7.32-3.91,8.79,8.79,0,0,1,1.29-14q4.17-2.62,11.61-2.63a22.36,22.36,0,0,1,12.45,3.59,25.8,25.8,0,0,1,8.86,10.14l26.95-13.34a40.47,40.47,0,0,0-9.56-16.75,43.62,43.62,0,0,0-16.37-10.53,62.71,62.71,0,0,0-22.07-3.65q-14.37,0-25,4.94A36.16,36.16,0,0,0,1115.24,630q-5.6,9.24-5.59,21.94,0,13.09,5.07,20.86a31,31,0,0,0,12.58,11.36,96.54,96.54,0,0,0,18.67,6.29c.34.08.67.15,1,.19a2,2,0,0,1,.83.32c1.28.26,2.5.53,3.66.83l3.27.84q7.58,1.67,11.62,3a18.88,18.88,0,0,1,6.8,3.85,9.75,9.75,0,0,1-1.73,15q-4.5,3-12.45,3a29.69,29.69,0,0,1-15.66-4.18,30.4,30.4,0,0,1-11-11.61l-27.08,14a39.86,39.86,0,0,0,9.95,17.45,45.65,45.65,0,0,0,17.77,11.1l10.66,3.79H1157q15,0,26.31-5.13a38.43,38.43,0,0,0,17.2-14.57q5.89-9.43,5.9-22.4,0-14.75-5.65-22.9A30.68,30.68,0,0,0,1187,671.65Z"/><rect class="cls-2" x="1229.14" y="559.55" width="33.5" height="33.24"/><rect class="cls-2" x="1229.14" y="612.94" width="33.5" height="133.21"/><path class="cls-2" d="M1350.54,629.52a40.92,40.92,0,0,0-10.2-12.28,27.76,27.76,0,0,0-17.65-6.35q-11.28,0-19.25,5.45t-12.19,16.11Q1287,643.1,1287,658v43.25q0,14.76,4.23,25.34t12.13,16.11q7.89,5.52,19.31,5.52a29.27,29.27,0,0,0,18.29-6,31.53,31.53,0,0,0,9.56-12.29v23.58q0,7.18-3.91,11.42T1336,769.13a13.84,13.84,0,0,1-9.49-3.4q-3.85-3.4-5.27-9.82l-32.34,10q2.7,17.07,13.86,25.73l11.17,8.66h19.25q16,0,27.46-5.71a40,40,0,0,0,17.46-16.49q6-10.79,6-26.05V612.94h-33.63Zm-1.73,80.38a12.72,12.72,0,0,1-5.07,5.65,15.82,15.82,0,0,1-8.21,2q-7.18,0-11.3-4.88t-4.1-13.73V660.55q0-9,4.17-14a13.87,13.87,0,0,1,11.23-5,15.73,15.73,0,0,1,8.21,2,12.72,12.72,0,0,1,5.07,5.65,20.61,20.61,0,0,1,1.73,8.91V701A20.66,20.66,0,0,1,1348.81,709.9Z"/><path class="cls-2" d="M1477.21,610.76a29.64,29.64,0,0,0-19.12,6.48,40.76,40.76,0,0,0-10.39,13.08V612.94h-33.5V746.15h33.5V658.76q0-8.09,4-12.39t11.3-4.3q7.56,0,11.74,4.3t4.17,12.26v87.52h33.37V654.78q0-20.92-9.18-32.47T1477.21,610.76Z"/><polygon class="cls-2" points="1680.5 591.76 1680.5 559.55 1565.51 559.55 1565.51 591.76 1606.19 591.76 1606.19 746.15 1639.69 746.15 1639.69 591.76 1680.5 591.76"/><path class="cls-2" d="M1753.72,616.08q-10.73-5.33-25.73-5.32-17.6,0-29.39,7.89a37.92,37.92,0,0,0-15.79,21.88l26,10.65a20,20,0,0,1,7.77-7.44,22.48,22.48,0,0,1,11-2.69q8.2,0,12.71,3.91t4.49,11.1v10.65H1724q-22.73,0-34.27,10.66t-11.55,31q0,19.64,9.18,29.65t27.4,10a41.47,41.47,0,0,0,16-3,27.6,27.6,0,0,0,11.56-8.73,22.62,22.62,0,0,0,2.5-4.16v13.91h30.93v-90.6q0-14.12-5.65-24.13A37.45,37.45,0,0,0,1753.72,616.08Zm-14.18,101.2q-5.26,3.47-15.66,3.46-7.44,0-11.17-3.08t-3.72-9.24q0-7.83,4-11.74t11.87-3.91h19.9v14.11Q1744.8,713.81,1739.54,717.28Z"/><path class="cls-2" d="M1877,671.65a126.55,126.55,0,0,0-20.8-6,1.07,1.07,0,0,0-.51-.13.74.74,0,0,1-.51-.26,5.71,5.71,0,0,1-1.16-.13,8.45,8.45,0,0,1-1-.25,112.52,112.52,0,0,1-12.52-3,20.44,20.44,0,0,1-7.31-3.91,8.79,8.79,0,0,1,1.28-14q4.17-2.62,11.62-2.63a22.36,22.36,0,0,1,12.45,3.59,25.86,25.86,0,0,1,8.85,10.14l27-13.34a40.36,40.36,0,0,0-9.56-16.75,43.58,43.58,0,0,0-16.36-10.53,62.77,62.77,0,0,0-22.08-3.65q-14.37,0-25,4.94A36.16,36.16,0,0,0,1805.18,630q-5.58,9.24-5.58,21.94,0,13.09,5.07,20.86a31,31,0,0,0,12.57,11.36,96.42,96.42,0,0,0,18.68,6.29c.34.08.66.15,1,.19a1.92,1.92,0,0,1,.83.32c1.29.26,2.51.53,3.66.83l3.27.84q7.58,1.67,11.62,3a18.88,18.88,0,0,1,6.8,3.85,9.75,9.75,0,0,1-1.73,15q-4.5,3-12.45,3a29.69,29.69,0,0,1-15.66-4.18,30.4,30.4,0,0,1-11-11.61l-27.07,14a39.84,39.84,0,0,0,9.94,17.45,45.61,45.61,0,0,0,17.78,11.1l10.65,3.79H1847q15,0,26.31-5.13a38.43,38.43,0,0,0,17.2-14.57q5.89-9.43,5.9-22.4,0-14.75-5.64-22.9A30.73,30.73,0,0,0,1877,671.65Z"/><polygon class="cls-2" points="2025.6 612.94 1990.82 612.94 1954.63 669.73 1954.63 559.55 1921.39 559.55 1921.39 746.15 1954.63 746.15 1954.63 716.92 1970.92 693.05 1994.41 746.15 2031.51 746.15 1991.06 663.55 2025.6 612.94"/><path class="cls-2" d="M2128.53,683.08a30.73,30.73,0,0,0-13.73-11.43,126.4,126.4,0,0,0-20.79-6,1.14,1.14,0,0,0-.52-.13.74.74,0,0,1-.51-.26,5.71,5.71,0,0,1-1.16-.13,8.45,8.45,0,0,1-1-.25,112.52,112.52,0,0,1-12.52-3,20.44,20.44,0,0,1-7.31-3.91,8.79,8.79,0,0,1,1.28-14q4.17-2.62,11.62-2.63a22.36,22.36,0,0,1,12.45,3.59,25.86,25.86,0,0,1,8.85,10.14l26.95-13.34a40.36,40.36,0,0,0-9.56-16.75,43.58,43.58,0,0,0-16.36-10.53,62.77,62.77,0,0,0-22.08-3.65q-14.37,0-25,4.94A36.16,36.16,0,0,0,2043,630q-5.58,9.24-5.58,21.94,0,13.09,5.07,20.86a31,31,0,0,0,12.57,11.36,96.42,96.42,0,0,0,18.68,6.29c.34.08.66.15,1,.19a1.92,1.92,0,0,1,.83.32c1.29.26,2.51.53,3.66.83l3.27.84q7.58,1.67,11.62,3a18.88,18.88,0,0,1,6.8,3.85,9.75,9.75,0,0,1-1.73,15q-4.5,3-12.45,3a29.69,29.69,0,0,1-15.66-4.18,30.3,30.3,0,0,1-11-11.61l-27.08,14a39.84,39.84,0,0,0,9.94,17.45,45.61,45.61,0,0,0,17.78,11.1l10.65,3.79h13.47q15,0,26.31-5.13a38.38,38.38,0,0,0,17.2-14.57q5.91-9.43,5.91-22.4Q2134.18,691.23,2128.53,683.08Z"/></svg>