<svg id="Layer_1" data-name="Layer 1" xmlns="http://www.w3.org/2000/svg" viewBox="0 0 2909.9 916.46"><defs><style>.cls-1{fill:#fbbc05;}.cls-2{fill:#fff;}</style></defs><title>getting-accepted</title><rect class="cls-1" width="2909.9" height="916.46"/><path class="cls-2" d="M1454.92,388.67c-75,0-136,61-136.13,136.18-.16,75.42,60.47,136.8,135.24,136.9a136.1,136.1,0,0,0,136.91-136C1591.06,450.09,1530.15,388.7,1454.92,388.67Zm72.34,107.65q-44.29,43.43-88.43,87c-1.7,1.67-3.93,2.8-6.31,4.45-2.37-1.62-4.62-2.72-6.31-4.38-14.72-14.54-29.3-29.21-44-43.76-4.16-4.12-4.55-7.93-.18-12.15q8.07-7.78,15.86-15.86c4.89-5.06,9.38-4.56,14.06.34s10.09,9.68,14.71,14.88c4.08,4.59,7.1,4.59,11.49.12,18.69-19,37.69-37.73,56.58-56.55,9.26-9.22,11.27-9.21,20.63.12,4.06,4.05,8.12,8.09,12.1,12.21C1531.85,487.31,1532.05,491.62,1527.26,496.32Z"/><path class="cls-2" d="M1528,279.9V77.6H1228a35.74,35.74,0,0,0-35.74,35.74V803.12A35.74,35.74,0,0,0,1228,838.86h453.9a35.74,35.74,0,0,0,35.74-35.74V279.9Zm93.62,248.51c-1.38,88.94-76.36,163.82-166.65,163.85-91.67,0-166.57-74.93-166.56-166.7-1.07-88,70.33-167.16,166.78-167C1552,358.74,1623,439.1,1621.58,528.41Z"/><polygon class="cls-2" points="1567.53 77.6 1567.53 237.69 1717.64 237.69 1567.53 77.6"/></svg>