<svg id="Layer_1" data-name="Layer 1" xmlns="http://www.w3.org/2000/svg" viewBox="0 0 2412.67 916.46"><defs><style>.cls-1{fill:#1a1a1a;}.cls-2{opacity:0.2;}.cls-15,.cls-3{fill:#fbbc05;}.cls-4{opacity:0.25;}.cls-10,.cls-11,.cls-12,.cls-13,.cls-14,.cls-5,.cls-6,.cls-7,.cls-8,.cls-9{fill:none;}.cls-10,.cls-11,.cls-12,.cls-13,.cls-5,.cls-6,.cls-7,.cls-8,.cls-9{stroke:#fbbc05;stroke-linecap:round;stroke-linejoin:round;stroke-width:3px;}.cls-6{stroke-dasharray:20.5 20.5;}.cls-7{stroke-dasharray:20.5 20.5;}.cls-8{stroke-dasharray:20.5 20.5;}.cls-9{stroke-dasharray:20.5 20.5;}.cls-10{stroke-dasharray:22.15 22.15;}.cls-11{stroke-dasharray:22.15 22.15;}.cls-12{stroke-dasharray:22.15 22.15;}.cls-13{stroke-dasharray:22.15 22.15;}.cls-15{fill-rule:evenodd;}</style></defs><title>gsoc-art</title><rect class="cls-1" width="2412.67" height="916.46"/><g class="cls-2"><path class="cls-3" d="M178,160.59l6.55-1.8,30.33,37.26c4.87,6,9.52,11.77,13.81,17.17l.56-.16c.92-6.83,1.68-14.1,2.83-21.75l7-47.52,6.15-1.7-11.51,76L227.06,220Z"/><path class="cls-3" d="M280.85,187c-4.18-15.17,9.06-26.52,44.92-39.86-3.18-11.13-10.55-20.25-26.07-16C289.48,134,281.05,142,276.6,147.45l-4.17-3.82c4.34-5.38,14.41-14.8,26.5-18.13,18.15-5,28.88,4.6,32.87,19.1l11.9,43.27-5.31,1.46-3.47-9.94-.32.09c-6.07,8.37-15,16.85-25,19.6C297.45,202.41,284.34,199.72,280.85,187Zm52.2-13.4-6-21.68c-33.64,12.56-42.9,22.1-39.9,33,2.67,9.71,12.8,10.93,21.93,8.42C317.81,191,325.71,184.29,333.05,173.63Z"/><path class="cls-3" d="M361.59,110.08l5.32-1.46,5.32,16.54.28-.07c4.32-12.85,13.26-23.48,26.78-27.2A30.82,30.82,0,0,1,413.71,97L413.5,103c-5.49-.38-8.12-.41-13.48,1.06-11.33,3.12-20,11.67-25.17,29.68l11.64,42.32-6.27,1.73Z"/></g><g class="cls-2"><path class="cls-3" d="M984.05,732.51l12.42,3L1019,741.6l-.89,3.29-34.89-9.45Zm13.71-2c2.79-10.31,9.5-15.12,19.8-12.32a27.06,27.06,0,0,1,10.75,5.6l-2,2.61a21.4,21.4,0,0,0-9.48-4.88c-8.59-2.32-13.3,2-15.37,9.65L989,777.38l-3.64-1Z"/><path class="cls-3" d="M1025.61,765.44c3.71-13.71,15-19.1,25.67-16.2s17.7,13.24,14,26.94c-3.66,13.54-14.9,18.93-25.62,16S1021.94,779,1025.61,765.44Zm35.7,9.67c2.92-10.78-1.71-20-10.94-22.53s-17.89,3.14-20.81,13.93,1.75,19.86,11,22.36S1058.39,785.87,1061.31,775.11Z"/><path class="cls-3" d="M1090.47,761l3.21.87-2.3,10.23.17.05c6.18-5.35,14.08-8.13,22.25-5.92a18.55,18.55,0,0,1,7.78,3.94l-2,3.09a19.82,19.82,0,0,0-7.33-3.58c-6.84-1.86-14-.07-22.18,7.7l-6.92,25.56-3.79-1Z"/></g><g class="cls-2"><path class="cls-3" d="M1686.26,154.32l3.7-.81,11.35,23.15c1.59,3.33,3.06,6.34,4.45,9.59l.31-.07c0-3.55.18-7,.29-10.62l.82-25.15,4.16-.91,11.2,22.52c1.63,3.31,3.24,6.3,4.74,9.52l.31-.07c.06-3.56.1-6.91.1-10.58l.58-25.76,3.46-.76-1.29,39.85-4.67,1-10.89-21.54c-1.59-3.17-3.06-6.56-4.84-10.32l-.31.07c.06,4.13.18,7.94-.06,11.51l-.77,24-4.66,1Z"/><path class="cls-3" d="M1736.76,123.57l3.49-.77,3.59,16.4,1.94,10,.18,0c3.41-5.91,7.24-10.43,13.25-11.74,9.16-2,14.63,2,16.87,12.21l5.15,23.52-3.49.77-5-23.06c-1.84-8.43-5.88-11.81-13.35-10.18-5.36,1.17-8.45,4.78-12.63,11.67l5.92,27.06-3.49.77Z"/><path class="cls-3" d="M1807,131.08l-18.9,4.14-.66-3,22.39-4.9,8.26,37.76-3.49.77Zm-6.26-15.37a3.79,3.79,0,1,1,4.52,3A3.67,3.67,0,0,1,1800.72,115.71Z"/><path class="cls-3" d="M1854,145.25l-9.22-42.14-14.33,3.13-.66-3,17.82-3.9,10,45.64c1.3,6,4.79,8.16,10.15,7a18,18,0,0,0,7.36-3.66l1.73,2.45a20.1,20.1,0,0,1-8.91,4.4C1860.79,156.68,1855.89,153.83,1854,145.25Z"/><path class="cls-3" d="M1884.31,130.8c-2.7-12.31,4.7-21.84,14.58-24,10.32-2.26,18.34,3,20.71,13.78a18.28,18.28,0,0,1,.43,2.94l-33.86,7.41-.65-3,32.36-7.08-1.18,1.73c-2.34-10.7-9-14.59-17.11-12.82-7.88,1.72-14,9.51-11.72,20.11,2.39,10.94,11.28,15.23,20.23,13.27a21.9,21.9,0,0,0,11.78-6.85l2,2.33a25.09,25.09,0,0,1-13.35,7.58C1897.64,148.62,1887,143.2,1884.31,130.8Z"/></g><g class="cls-2"><path class="cls-3" d="M870.76,134.2c3.13-15.65,16.43-22.33,30.39-19.54,7.83,1.56,12.3,6,15.38,10.48l-3.1,2.46c-3.21-4.53-7.22-8-13-9.12-12.46-2.49-22.72,4.3-25.18,16.63s4.26,22.31,16.84,24.82c6.34,1.27,12.13-.53,17.08-3.57l1.66,3.44a26.55,26.55,0,0,1-19.66,3.91C876.69,160.81,867.67,149.66,870.76,134.2Z"/><path class="cls-3" d="M945.2,158.63l10.43-52.16-17.74-3.55.76-3.76,22.05,4.41-11.3,56.51c-1.47,7.38,1.39,11.58,8,12.91a22.27,22.27,0,0,0,10.12-.5l.74,3.63a24.8,24.8,0,0,1-12.24.56C947.2,174.91,943.07,169.26,945.2,158.63Z"/><path class="cls-3" d="M985.68,169.3c2.09-10.47,13.58-13.32,39.38-10.48,1.46-7.72-.22-15.49-10.93-17.64-7.06-1.41-14.6.86-19,2.82l-1.37-3.58c4.27-1.95,13.25-4.59,21.6-2.92,12.52,2.51,16.1,11.59,14.1,21.6l-6,29.86-3.67-.74.93-7.08-.22,0c-6.23,3.23-14.24,5.64-21.15,4.26C991.06,183.68,983.93,178.05,985.68,169.3Zm35.73,7.78,3-15c-24.22-2.64-32.74.33-34.24,7.83-1.34,6.7,4.44,10.53,10.74,11.79C1006.89,182.94,1013.72,181.3,1021.41,177.08Z"/><path class="cls-3" d="M1042.06,186.18l2.92-2.7c4.36,5.07,10,9.13,19.81,11.09,9.54,1.91,15.29-1.42,16.27-6.33.85-4.24-.12-8-14.35-13.9-11.39-4.76-17.4-10-16-16.84s8.21-11.3,20.73-8.79a33.34,33.34,0,0,1,16.8,9.34l-3,2.63a27,27,0,0,0-14.91-8.36c-10.18-2-14.28,1.44-15.16,5.82-1,4.94,3.32,8.36,13.47,12.67,15.49,6.64,18.32,11.11,16.93,18.05s-9.64,11.8-22,9.33A40.74,40.74,0,0,1,1042.06,186.18Z"/><path class="cls-3" d="M1100.48,197.86l2.91-2.7c4.36,5.07,10,9.13,19.81,11.09,9.54,1.91,15.29-1.42,16.27-6.33.85-4.24-.11-7.95-14.35-13.9-11.39-4.76-17.4-10-16-16.84s8.21-11.3,20.74-8.79a33.35,33.35,0,0,1,16.79,9.34l-3,2.63a27,27,0,0,0-14.91-8.36c-10.18-2-14.28,1.44-15.16,5.82-1,4.94,3.32,8.36,13.47,12.67,15.49,6.64,18.32,11.11,16.93,18s-9.63,11.8-22,9.33A40.67,40.67,0,0,1,1100.48,197.86Z"/></g><g class="cls-2"><path class="cls-3" d="M1547.2,798.54c-4.94-18.44,4.48-32.31,18.91-36.18s29.52,3.43,34.46,21.87c4.89,18.21-4.54,32.08-19,35.95S1552.09,816.75,1547.2,798.54Zm48-12.88c-3.89-14.52-15.52-22.14-27.94-18.81s-18.68,15.75-14.79,30.26S1568,819,1580.4,815.69,1599.13,800.14,1595.25,785.66Z"/><path class="cls-3" d="M1631.14,798.79l-.27.07,1.08,6.34-4.23,1.14-22.11-82.48,5.09-1.37,6.41,23.92,2.87,11.86.26-.07c4-7.23,10.9-13.27,18-15.18,15.52-4.16,26.28,4.78,30.85,21.82,5,18.7-4,33-17.56,36.58C1646,802.92,1637.87,801.93,1631.14,798.79Zm32.67-32.5c-3.63-13.52-11.66-22.15-25.12-18.54-5.77,1.55-12.07,6.65-17.09,15.4l8.2,30.59c8,4.15,15.77,4.44,20.28,3.23C1661.89,793.81,1667.81,781.22,1663.81,766.29Z"/><path class="cls-3" d="M1697.73,811.8l.91-4.65a32.18,32.18,0,0,0,14.29-.24c12.76-3.42,14.26-11.1,11.53-21.25l-14.88-55.54L1682,737.51l-1.18-4.43,32.64-8.75,15.89,59.27c3.64,13.57.78,23.47-15.63,27.87A36.65,36.65,0,0,1,1697.73,811.8Zm1.57-103.89a5.59,5.59,0,1,1,6.87,4.05A5.42,5.42,0,0,1,1699.3,707.91Z"/></g><g class="cls-2"><path class="cls-3" d="M1347.72,107.71V104l33.09-23V85.4l-29.18,20.29v.36l29.18,20.29v4.34Z"/><path class="cls-3" d="M1430.93,71.6H1435l-29.6,78.86h-4.06Z"/><path class="cls-3" d="M1455.51,126.34l29.18-20.29v-.36L1455.51,85.4V81.05l33.09,23v3.69l-33.09,23Z"/></g><g class="cls-2"><path class="cls-3" d="M205,814.73c-4.58-7.44-7.53-14.32-11.87-21.38-2.52-4.08-7.55-6.47-20.06,1.2l-2-3.19c12.48-7.73,12.61-13.3,10.09-17.38-4-6.44-9.5-13.34-13.75-20.23-6.22-10.1-1.82-16.68,10.65-24.36l5.23-3.22,1.79,2.9-5.83,3.6c-11.4,7-11.82,11.81-7.42,19,3.73,6,8.62,12.48,12.61,19,3.59,5.82,3.86,10.41-2.14,15.78l.25.4c7.49-2.94,11.47-.63,15.06,5.2,4.5,7.3,7.19,13.19,11.25,19.79,4.4,7.15,8.87,8.93,20.26,1.91l5.84-3.6,1.79,2.91-5.23,3.22C219.07,823.87,211.21,824.84,205,814.73Z"/><path class="cls-3" d="M254.21,798.22l5.81-3.57c11.39-7,12-11.92,7.58-19.07-4.06-6.6-8.18-11.6-12.68-18.91-3.59-5.82-4-10.31,2-15.72l-.25-.4c-7.57,3-11.37.57-15-5.26-4-6.47-7.45-13.78-11.17-19.83-4.41-7.15-9.05-8.82-20.44-1.81l-5.81,3.58-1.79-2.9,5.2-3.21c12.49-7.69,20.23-8.58,26.45,1.52,4.24,6.89,8,14.89,12,21.32,2.52,4.08,7.55,6.48,20-1.15l2,3.19c-12.41,7.68-12.54,13.25-10,17.34,4.34,7,9.06,12.84,13.65,20.28,6.22,10.11,1.94,16.61-10.55,24.31l-5.2,3.2Z"/></g><g class="cls-4"><polyline class="cls-5" points="645.11 38.9 634.72 32.9 624.32 38.9"/><line class="cls-6" x1="606.57" y1="49.15" x2="508.93" y2="105.52"/><polyline class="cls-5" points="500.06 110.64 489.66 116.64 500.06 122.64"/><line class="cls-6" x1="517.81" y1="132.89" x2="615.45" y2="189.26"/><polyline class="cls-5" points="624.32 194.39 634.72 200.39 645.11 194.39"/><line class="cls-6" x1="662.86" y1="184.14" x2="760.5" y2="127.77"/><polyline class="cls-5" points="769.38 122.64 779.77 116.64 769.38 110.64"/><line class="cls-6" x1="751.62" y1="100.39" x2="653.98" y2="44.02"/><polyline class="cls-5" points="500.06 122.64 489.66 116.64 489.66 128.64"/><line class="cls-7" x1="489.66" y1="149.14" x2="489.66" y2="261.89"/><polyline class="cls-5" points="489.66 272.13 489.66 284.13 500.06 290.13"/><line class="cls-8" x1="517.81" y1="300.38" x2="615.45" y2="356.76"/><polyline class="cls-5" points="624.32 361.88 634.72 367.88 634.72 355.88"/><line class="cls-9" x1="634.72" y1="335.38" x2="634.72" y2="222.64"/><polyline class="cls-5" points="634.72 212.39 634.72 200.39 624.32 194.39"/><line class="cls-6" x1="606.57" y1="184.14" x2="508.93" y2="127.77"/><polyline class="cls-5" points="645.11 194.39 634.72 200.39 634.72 212.39"/><line class="cls-9" x1="634.72" y1="232.89" x2="634.72" y2="345.63"/><polyline class="cls-5" points="634.72 355.88 634.72 367.88 645.11 361.88"/><line class="cls-8" x1="662.86" y1="351.63" x2="760.5" y2="295.26"/><polyline class="cls-5" points="769.38 290.13 779.77 284.13 779.77 272.13"/><line class="cls-7" x1="779.77" y1="251.64" x2="779.77" y2="138.89"/><polyline class="cls-5" points="779.77 128.64 779.77 116.64 769.38 122.64"/><line class="cls-6" x1="751.62" y1="132.89" x2="653.98" y2="189.26"/></g><g class="cls-4"><polyline class="cls-5" points="426.03 444.68 414.44 447.79 411.33 459.38"/><line class="cls-10" x1="405.6" y1="480.78" x2="351.13" y2="684.06"/><polyline class="cls-5" points="348.27 694.75 345.16 706.35 356.75 703.24"/><line class="cls-10" x1="378.15" y1="697.51" x2="581.43" y2="643.04"/><polyline class="cls-5" points="592.13 640.17 603.72 637.06 606.83 625.47"/><line class="cls-10" x1="612.56" y1="604.08" x2="667.03" y2="400.8"/><polyline class="cls-5" points="669.89 390.1 673 378.51 661.41 381.61"/><line class="cls-10" x1="640.01" y1="387.34" x2="436.73" y2="441.81"/><polyline class="cls-5" points="356.75 703.24 345.16 706.35 353.64 714.83"/><line class="cls-11" x1="369.31" y1="730.49" x2="518.12" y2="879.31"/><polyline class="cls-5" points="525.95 887.14 534.44 895.62 546.03 892.52"/><line class="cls-12" x1="567.43" y1="886.78" x2="770.71" y2="832.32"/><polyline class="cls-5" points="781.41 829.45 793 826.34 784.51 817.86"/><line class="cls-13" x1="768.85" y1="802.19" x2="620.04" y2="653.38"/><polyline class="cls-5" points="612.2 645.55 603.72 637.06 592.13 640.17"/><line class="cls-10" x1="570.73" y1="645.9" x2="367.45" y2="700.37"/><polyline class="cls-5" points="606.83 625.47 603.72 637.06 612.2 645.55"/><line class="cls-13" x1="627.87" y1="661.21" x2="776.68" y2="810.03"/><polyline class="cls-5" points="784.51 817.86 793 826.34 796.1 814.75"/><line class="cls-12" x1="801.84" y1="793.35" x2="856.31" y2="590.07"/><polyline class="cls-5" points="859.17 579.38 862.28 567.78 853.79 559.3"/><line class="cls-11" x1="838.13" y1="543.63" x2="689.32" y2="394.82"/><polyline class="cls-5" points="681.49 386.99 673 378.51 669.89 390.1"/><line class="cls-10" x1="664.16" y1="411.49" x2="609.69" y2="614.77"/></g><g class="cls-4"><polyline class="cls-5" points="2263.72 248.61 2260.62 237.02 2249.02 233.91"/><line class="cls-10" x1="2227.63" y1="228.18" x2="2024.35" y2="173.71"/><polyline class="cls-5" points="2013.65 170.84 2002.06 167.74 2005.16 179.33"/><line class="cls-10" x1="2010.9" y1="200.73" x2="2065.36" y2="404.01"/><polyline class="cls-5" points="2068.23 414.71 2071.34 426.3 2082.93 429.4"/><line class="cls-10" x1="2104.33" y1="435.14" x2="2307.61" y2="489.6"/><polyline class="cls-5" points="2318.3 492.47 2329.9 495.58 2326.79 483.99"/><line class="cls-10" x1="2321.06" y1="462.59" x2="2266.59" y2="259.31"/><polyline class="cls-5" points="2005.16 179.33 2002.06 167.74 1993.57 176.22"/><line class="cls-11" x1="1977.91" y1="191.89" x2="1829.1" y2="340.7"/><polyline class="cls-5" points="1821.26 348.53 1812.78 357.02 1815.88 368.61"/><line class="cls-12" x1="1821.62" y1="390.01" x2="1876.09" y2="593.29"/><polyline class="cls-5" points="1878.95 603.98 1882.06 615.58 1890.54 607.09"/><line class="cls-13" x1="1906.21" y1="591.43" x2="2055.02" y2="442.61"/><polyline class="cls-5" points="2062.85 434.78 2071.34 426.3 2068.23 414.71"/><line class="cls-10" x1="2062.5" y1="393.31" x2="2008.03" y2="190.03"/><polyline class="cls-5" points="2082.93 429.4 2071.34 426.3 2062.85 434.78"/><line class="cls-13" x1="2047.19" y1="450.45" x2="1898.38" y2="599.26"/><polyline class="cls-5" points="1890.54 607.09 1882.06 615.58 1893.65 618.68"/><line class="cls-12" x1="1915.05" y1="624.41" x2="2118.33" y2="678.88"/><polyline class="cls-5" points="2129.03 681.75 2140.62 684.86 2149.1 676.37"/><line class="cls-11" x1="2164.77" y1="660.71" x2="2313.58" y2="511.9"/><polyline class="cls-5" points="2321.41 504.06 2329.9 495.58 2318.3 492.47"/><line class="cls-10" x1="2296.91" y1="486.74" x2="2093.63" y2="432.27"/></g><rect class="cls-1" x="121.41" y="282.38" width="2161.85" height="354.68" rx="177.34"/><g id="logo_lockup_summer_of_code_horizontal_Roboto" data-name="logo lockup summer of code horizontal Roboto"><g id="Page-1"><g id="logo_lockup_summer_of_code_horizontal_Roboto_lockup_summer_of_code_icon_horizontal" data-name="logo lockup summer of code horizontal Roboto lockup summer of code icon horizontal"><path class="cls-14" d="M175.45,338.45V584.68H401.16V338.45ZM367.94,494.52V541.2H321.26l-33,33-33-33H208.66V494.52l-33-33,33-32.95V381.92h46.68l33-32.95,33,32.95h46.68v46.69l33,32.95Z"/><path class="cls-3" d="M288.3,390.28a71.28,71.28,0,1,0,71.28,71.28A71.37,71.37,0,0,0,288.3,390.28Zm-20.65,56.79-18.59,14.49,18.59,14.24v11.54l-1.28-.9L238.8,465l-1.8-1.41v-4.36l1.8-1.42,27.57-21.41,1.28-.9Zm33.22-18.21-15.26,67.33-.13.51H276l.51-2.56,15.26-67.33.13-.51h9.49Zm38.73,35-1.8,1.41L310.23,486.7l-1.28.9V476.06l18.59-14.5L309,447.07V435.53l1.15,1,27.7,21.54,1.8,1.41Z"/><path class="cls-3" d="M367.94,381.92H321.26L288.3,349l-33,32.95H208.66v46.69l-33,32.95,33,33V541.2h46.68l33,33,33-33h46.68V494.52l33-33-33-32.95ZM288.3,540.84a79.28,79.28,0,1,1,79.28-79.28A79.37,79.37,0,0,1,288.3,540.84Z"/><g id="Roboto"><path class="cls-15" d="M1079.44,471.82c-13-3.72-22.45-8.33-28.35-13.72a26.28,26.28,0,0,1-8.84-20.13c0-9.11,3.59-16.55,10.9-22.45s16.67-8.84,28.21-8.84a47,47,0,0,1,21.16,4.61,35.28,35.28,0,0,1,14.36,12.57,32.63,32.63,0,0,1,5.13,17.57H1106.5c0-6.93-2.18-12.44-6.67-16.42s-10.65-6-18.73-6c-7.43,0-13.33,1.66-17.44,5a16.7,16.7,0,0,0-6.28,13.72,14.68,14.68,0,0,0,5.9,11.93c4,3.2,10.77,6.15,20.26,8.85s17.06,5.64,22.44,8.84A35.5,35.5,0,0,1,1118,478.62a29.37,29.37,0,0,1,3.85,15.26c0,9.36-3.6,16.8-10.91,22.32s-16.92,8.46-29.11,8.46a54.63,54.63,0,0,1-22-4.49A36.82,36.82,0,0,1,1044,507.73a30.34,30.34,0,0,1-5.51-18h15.26c0,6.92,2.56,12.44,7.69,16.41s11.93,6,20.52,6c8,0,14.11-1.67,18.34-4.87a15.92,15.92,0,0,0,6.41-13.34c0-5.64-1.92-10-5.9-13.08s-11.15-6-21.41-9.11Z"/><path class="cls-15" d="M1191.78,514.66q-8.46,10-25,10c-9.1,0-16-2.69-20.77-7.95s-7.19-13.08-7.19-23.47V437.71h14.62v55.15c0,12.95,5.26,19.36,15.78,19.36,11.15,0,18.59-4.1,22.18-12.44V437.71H1206v85.41h-13.85l-.38-8.46Z"/><path class="cls-15" d="M1241.92,437.71l.39,9.49c6.28-7.31,14.74-11,25.26-11,11.93,0,20,4.62,24.37,13.72a33.18,33.18,0,0,1,11-10,32.06,32.06,0,0,1,16.15-3.85c18.73,0,28.22,9.88,28.6,29.76v57.32H1333.1V466.69c0-6.15-1.41-10.64-4.23-13.72s-7.44-4.49-14.11-4.49a19.5,19.5,0,0,0-13.46,4.88c-3.59,3.2-5.64,7.56-6.29,13.08v56.68h-14.62V467.21c0-12.44-6-18.6-18.21-18.6-9.61,0-16.15,4.11-19.62,12.18v62.33h-14.62V437.71Z"/><path class="cls-15" d="M1383.5,437.71l.39,9.49c6.28-7.31,14.75-11,25.26-11,11.93,0,20,4.62,24.37,13.72a33.18,33.18,0,0,1,11-10,32.1,32.1,0,0,1,16.16-3.85c18.72,0,28.21,9.88,28.59,29.76v57.32h-14.62V466.69c0-6.15-1.41-10.64-4.23-13.72s-7.44-4.49-14.1-4.49a19.51,19.51,0,0,0-13.47,4.88c-3.59,3.2-5.64,7.56-6.28,13.08v56.68H1422V467.21c0-12.44-6-18.6-18.21-18.6-9.62,0-16.16,4.11-19.63,12.18v62.33h-14.62V437.71Z"/><path class="cls-15" d="M1546.89,524.66c-11.55,0-21-3.85-28.22-11.41s-10.9-17.83-10.9-30.53V480a51.87,51.87,0,0,1,4.87-22.7,37.56,37.56,0,0,1,13.6-15.64,34.17,34.17,0,0,1,18.85-5.65c11.16,0,19.75,3.72,25.91,11s9.23,17.83,9.23,31.42v6h-57.84c.26,8.46,2.69,15.26,7.44,20.39a23.37,23.37,0,0,0,18,7.82,24.73,24.73,0,0,0,13.08-3.2,32.19,32.19,0,0,0,9.37-8.34l9,6.93q-11,16.54-32.31,16.54Zm-1.8-76.56a19.91,19.91,0,0,0-14.88,6.41c-4,4.23-6.41,10.26-7.43,18.08h42.7v-1.15c-.38-7.44-2.44-13.21-6-17.19s-8.33-6.15-14.36-6.15Z"/><path class="cls-15" d="M1638.32,450.79a42.48,42.48,0,0,0-7.18-.51c-9.62,0-16,4.1-19.49,12.18v60.66H1597V437.71h14.23l.26,9.88c4.75-7.57,11.54-11.42,20.39-11.42a13.93,13.93,0,0,1,6.41,1.16v13.46Z"/><path class="cls-15" d="M1687.83,479.65a51.49,51.49,0,0,1,4.87-22.57,37.59,37.59,0,0,1,13.72-15.52c5.9-3.72,12.57-5.39,20.13-5.39,11.68,0,21,4,28.22,12.06s10.77,18.72,10.77,32.06v1a50.12,50.12,0,0,1-4.74,22.32A36.16,36.16,0,0,1,1747.2,519a37.36,37.36,0,0,1-20.39,5.51c-11.54,0-20.9-4-28.08-12S1688,493.75,1688,480.54v-.89Zm14.74,1.66c0,9.49,2.18,17.06,6.54,22.83s10.26,8.59,17.7,8.59a21.08,21.08,0,0,0,17.7-8.72c4.36-5.77,6.54-14,6.54-24.36,0-9.37-2.18-16.93-6.67-22.7a21.41,21.41,0,0,0-17.7-8.72,20.82,20.82,0,0,0-17.44,8.59c-4.49,5.64-6.67,13.85-6.67,24.49Z"/><path class="cls-15" d="M1791.06,523.12V449H1777.6V437.71h13.46V429c0-9.11,2.44-16.29,7.31-21.16s11.8-7.44,20.78-7.44a38.54,38.54,0,0,1,10,1.28l-.77,11.8a39.14,39.14,0,0,0-8-.77c-4.75,0-8.34,1.41-11,4.11s-3.85,6.79-3.85,11.92v9h18.21V449h-18.21v74.12Z"/><path class="cls-15" d="M1966.76,486.57q-2.13,18.27-13.47,28.09c-7.57,6.54-17.57,9.87-30.14,9.87-13.59,0-24.49-4.87-32.57-14.62s-12.31-22.7-12.31-39.11v-11c0-10.65,1.92-20,5.77-28.22a43.73,43.73,0,0,1,16.16-18.72,44.82,44.82,0,0,1,24.24-6.54c12.18,0,21.92,3.46,29.36,10.26s11.67,16.29,12.83,28.34h-15.26c-1.29-9.23-4.24-15.77-8.6-20s-10.51-6.16-18.46-6.16c-9.62,0-17.32,3.59-22.7,10.77s-8.21,17.32-8.21,30.52v11.16c0,12.44,2.56,22.44,7.82,29.75s12.44,11,21.8,11c8.47,0,14.88-1.92,19.37-5.77s7.44-10.51,9-19.88h15.39v.26Z"/><path class="cls-15" d="M1981.25,479.65a51.49,51.49,0,0,1,4.87-22.57,37.59,37.59,0,0,1,13.72-15.52c5.9-3.72,12.57-5.39,20.14-5.39,11.67,0,21,4,28.21,12.06S2059,467,2059,480.29v1a50.12,50.12,0,0,1-4.74,22.32,36.16,36.16,0,0,1-13.6,15.39,37.36,37.36,0,0,1-20.39,5.51c-11.54,0-20.9-4-28.08-12s-10.77-18.73-10.77-31.94v-.89Zm14.75,1.66c0,9.49,2.18,17.06,6.54,22.83s10.25,8.59,17.69,8.59a21.08,21.08,0,0,0,17.7-8.72c4.36-5.77,6.54-14,6.54-24.36,0-9.37-2.18-16.93-6.67-22.7a21.41,21.41,0,0,0-17.7-8.72,20.82,20.82,0,0,0-17.44,8.59c-4.48,5.64-6.66,13.85-6.66,24.49Z"/><path class="cls-15" d="M2073.71,479.65c0-13.08,3.08-23.6,9.36-31.55s14.37-11.93,24.37-11.93,17.95,3.46,23.72,10.26v-44.5h14.62V523.12h-13.46l-.77-9.1c-5.9,7.18-14,10.77-24.37,10.77-9.87,0-17.95-4.11-24.24-12.19s-9.36-18.72-9.36-31.67v-1.28Zm14.62,1.66c0,9.62,2.05,17.32,6,22.7s9.49,8.21,16.54,8.21c9.24,0,16-4.1,20.26-12.44V460.54c-4.36-8.08-11-12.06-20.13-12.06-7.18,0-12.7,2.82-16.67,8.34s-6,13.72-6,24.49Z"/><path class="cls-15" d="M2203.88,524.66c-11.54,0-21-3.85-28.22-11.41s-10.9-17.83-10.9-30.53V480a51.73,51.73,0,0,1,4.88-22.7,37.47,37.47,0,0,1,13.59-15.64,34.2,34.2,0,0,1,18.85-5.65c11.16,0,19.75,3.72,25.91,11s9.23,17.83,9.23,31.42v6h-57.84c.26,8.46,2.7,15.26,7.44,20.39a23.41,23.41,0,0,0,18,7.82,24.73,24.73,0,0,0,13.08-3.2,32,32,0,0,0,9.36-8.34l9,6.93q-11,16.54-32.32,16.54Zm-1.8-76.56a19.87,19.87,0,0,0-14.87,6.41c-4,4.23-6.42,10.26-7.44,18.08h42.7v-1.15c-.38-7.44-2.43-13.21-6-17.19s-8.34-6.15-14.37-6.15Z"/></g><g id="Google"><path class="cls-15" d="M580.86,410.14q17.14,9,21,31.55H586.42q-2.82-12.62-11.66-18.36t-22.31-5.75a35,35,0,0,0-26.89,12q-10.92,12-10.92,35.7,0,20.5,9,33.38T553,511.51q15.57,0,25.79-9t10.45-29.24h-36V460.32h50.49v61.52h-10L589.94,507q-7.91,8.7-14,12.06-10.24,5.79-26.06,5.79-20.43,0-35.15-13.23-16.05-16.59-16-45.55t15.65-45.95q14.86-16.28,38.51-16.28,16.2,0,28,6.26Zm97.57,92a52.82,52.82,0,0,0,5.21-23.6q0-11.73-3.76-19.1-6-11.58-20.51-11.58-12.92,0-18.78,9.86t-5.87,23.8q0,13.38,5.87,22.31t18.62,8.92q14,0,19.22-10.61Zm8.73-55.77q11.19,10.8,11.19,31.78,0,20.28-9.86,33.5t-30.61,13.23q-17.29,0-27.47-11.7t-10.18-31.43q0-21.13,10.73-33.66t28.8-12.52q16.2,0,27.4,10.8Zm80.42,55.77a52.69,52.69,0,0,0,5.21-23.6q0-11.73-3.76-19.1-5.94-11.58-20.5-11.58-12.91,0-18.79,9.86t-5.87,23.8q0,13.38,5.87,22.31t18.63,8.92q14,0,19.21-10.61Zm8.73-55.77q11.19,10.8,11.2,31.78,0,20.28-9.87,33.5T747,524.89q-17.29,0-27.48-11.7t-10.17-31.43q0-21.13,10.72-33.66t28.81-12.52q16.2,0,27.39,10.8Zm74.75-5a38.38,38.38,0,0,1,8.14,8V438.79h13V515q0,16-4.7,25.2-8.76,17.07-33.11,17.07-13.54,0-22.78-6.07t-10.33-19h14.33a15.86,15.86,0,0,0,4.07,8.69q4.77,4.69,15,4.69,16.21,0,21.22-11.42,3-6.74,2.74-24a27.74,27.74,0,0,1-10.18,9.55q-6,3.12-15.73,3.13a33.62,33.62,0,0,1-23.84-9.67q-10.21-9.68-10.21-32,0-21,10.29-32.87t24.85-11.82a30.57,30.57,0,0,1,17.22,4.85Zm1.73,15.11A20.57,20.57,0,0,0,836.43,449q-14.88,0-20.35,13.93-2.91,7.44-2.9,19.49,0,14.16,5.75,21.56a18.59,18.59,0,0,0,15.46,7.4q15.2,0,21.37-13.7a44.08,44.08,0,0,0,3.44-18.08q0-15.57-6.41-23.09Zm41-49.63h14.09v115H893.8Zm87.43,33.47A31.79,31.79,0,0,1,994,451.16,37.36,37.36,0,0,1,999.63,466q1.25,5.79,1.25,18.47H939.43q.41,12.76,6,20.47t17.46,7.71q11,0,17.61-7.28a24.58,24.58,0,0,0,5.32-9.78h13.86a29.26,29.26,0,0,1-3.64,10.29,36.83,36.83,0,0,1-6.93,9.28,32.88,32.88,0,0,1-15.89,8.45,48,48,0,0,1-11.51,1.25,35.27,35.27,0,0,1-26.53-11.39Q924.32,502,924.33,481.53q0-20.2,11-32.8t28.64-12.6a38.13,38.13,0,0,1,17.3,4.19Zm5.17,32.91q-.85-9.15-4-14.64-5.79-10.17-19.34-10.17a21.44,21.44,0,0,0-16.28,7q-6.57,7-7,17.81Z"/></g></g></g></g><path class="cls-3" d="M2112.42,279.39H300.24c-98.6,0-178.83,80.23-178.83,178.84s80.23,178.83,178.83,178.83H1894q0,28.11,0,56.21,0,35.68,0,71.38c0,.69,0,1.38.09,2.16.63,0,1.1.07,1.58.08l11.45.09h2a.84.84,0,0,0,.94-.89c0-.84.1-1.68.1-2.52l0-126.51v-8q0-8.85,0-17.69,0-13.39,0-26.77c0-1.46.06-1.51,1.47-1.53h24.91c.77,0,1.55-.07,2.35-.11a9.75,9.75,0,0,0,.12-1.08q0-7,0-14a11.84,11.84,0,0,0-.21-1.57h-28.23c-.51.5-.4,1.15-.4,1.76,0,4.22,0,8.44,0,12.65,0,.6-.11,1.19-.18,1.87h-14.53c-1.31,0-1.35.06-1.37,1.35v45.11H300.24c-94.19,0-170.83-76.63-170.83-170.83s76.64-170.84,170.83-170.84H2112.42c94.2,0,170.84,76.64,170.84,170.84s-76.64,170.83-170.84,170.83H1953.29V585.19c0-.65-.07-1.3-.11-1.9-1.39-.37-13.18-.36-14.17,0v104.9q0,11.33,0,22.64c0,1.45,0,1.5,1.5,1.51h11.58c.31,0,.61-.06,1.1-.11,0-.73.09-1.34.09-2q0-13.18,0-26.36,0-15.39,0-30.76c0-.6.1-1.19.16-1.9h25c1.67,0,3.33,0,5,0,0-4.22,0-8.26,0-12.29,0-1.14,0-1.62-.39-1.83h129.27c98.61,0,178.84-80.22,178.84-178.83S2211,279.39,2112.42,279.39Z"/><path class="cls-3" d="M2071.44,696.52h0v0Z"/><path class="cls-3" d="M2072.88,696.62c-.47,0-.94-.06-1.41-.1,0,1-.13,2-.13,3q0,48.5,0,97c0,.6.09,1.2.14,1.81.47,0,.94-.08,1.41-.09h10.35a2.14,2.14,0,0,0,1.72-.48V697.08a2,2,0,0,0-1.6-.45C2079.87,696.64,2076.38,696.63,2072.88,696.62Z"/><path class="cls-3" d="M2057,840.58c-.83-.06-1.57-.14-2.31-.14-4.22,0-8.44,0-12.65,0-2.42,0-2.42,0-2.42,2.42q0,13.51,0,27c0,.7-.08,1.39-.13,2.2-1,0-1.81.1-2.64.1q-55.14,0-110.26,0h-1.33c-1.34,0-1.42-.12-1.43-1.48q0-21.24,0-42.47a6.12,6.12,0,0,0-1.41-4.15q-31.71-38.75-63.39-77.51c-2.5-3-5-6.12-7.51-9.16a3.81,3.81,0,0,1-1-3.06c.12-1.06.09-2.13.11-3.19.15-6.22.28-12.43.44-18.64,0-1.62.07-1.62,1.67-1.65h17.17c4,0,8,0,12.08.07,0-.34.09-.68.09-1q0-6,0-12a10.69,10.69,0,0,0-.14-1.17c-.79,0-1.54-.12-2.28-.12H1838.5a3.92,3.92,0,0,0-2.33.42V699c0,11.18,0,22.37,0,33.55,0,2.39-.32,4.78-.39,7.17a5.21,5.21,0,0,0,.52,2,4.81,4.81,0,0,0,.86,1.18q35.74,43.86,71.5,87.71a7.07,7.07,0,0,1,1.7,4.86q-.21,24.09-.29,48.19c0,2.22.1,2.3,2.35,2.3H2055c2,0,2,0,2-2q0-21,0-42Z"/><path class="cls-3" d="M2025.62,653.3c0-2,0-2.06-2-2.06h-39.91c0,.68-.1,1.24-.1,1.8q0,27.57,0,55.13c0,.36,0,.71,0,1.07,0,1.36.22,1.54,1.53,1.6h11.19c.68,0,1.08-.35,1.09-1.06s.05-1.42.05-2.13V667.31c0-2.41,0-2.42,2.46-2.42l24.1,0h1.64v-1.51C2025.61,660.05,2025.62,656.68,2025.62,653.3Z"/><path class="cls-3" d="M2057,665.9c0-.68-.35-1-1-1H2027.4c-.56,0-1.12.1-1.77.15v1.84q0,26.16,0,52.32c0,1.24,0,2.49,0,3.73,0,1.53.17,1.68,1.66,1.73h10.65c.48,0,1-.09,1.56-.14,0-.79.11-1.48.11-2.18q0-20.37,0-40.74c0-.53,0-1.06,0-1.6a.7.7,0,0,1,.76-.74c.4,0,.8,0,1.19,0h14c.48,0,1,0,1.42-.07q0-6.1,0-12.2C2057,666.61,2057,666.26,2057,665.9Z"/><path class="cls-3" d="M2057,679.17v0l0,0Z"/><path class="cls-3" d="M2071.44,798.35h0v0h0Z"/><path class="cls-3" d="M2058.18,798.25c-.91,0-1.07.2-1.15,1.09,0,.26,0,.53,0,.79q0,19.56,0,39.11c0,.39,0,.77.09,1.27h1.39l10.64-.08c2.18,0,2.18,0,2.18-2.22V799.37a8.83,8.83,0,0,1,.11-1,2.27,2.27,0,0,0-.35-.05C2066.78,798.28,2062.48,798.25,2058.18,798.25Z"/><path class="cls-3" d="M2071.48,696.48h-.05v0h0Z"/><path class="cls-3" d="M2071.33,681.12c0-.35,0-.71,0-1.06a.79.79,0,0,0-.86-.81h-1.06l-12.33,0q0,7.93,0,15.87c0,1.49.05,1.54,1.6,1.54l11.67,0c.38,0,.76-.06,1.14-.09a5.23,5.23,0,0,1-.13-.87C2071.3,690.79,2071.32,686,2071.33,681.12Z"/><path class="cls-3" d="M2057,679.21h0v0Z"/><path class="cls-3" d="M1882,711v0h0v0Z"/><path class="cls-3" d="M1882.08,723c0,1.55.1,1.64,1.67,1.65q4.13,0,8.24,0a11.1,11.1,0,0,0,1.35-.16c.32-2.07.21-12.55-.15-13.57-.44,0-.92-.06-1.4-.06-1.55,0-3.1,0-4.65,0-1.71,0-3.42.07-5.13.1,0,.52.06,1,.06,1.55C1882.08,716,1882.07,719.52,1882.08,723Z"/></svg>