<svg id="Layer_1" data-name="Layer 1" xmlns="http://www.w3.org/2000/svg" viewBox="0 0 1756.39 364.41"><defs><style>.cls-1,.cls-2{fill:#f89d4c;}.cls-2{fill-rule:evenodd;}</style></defs><title>gsoc_stylized</title><g id="logo_lockup_summer_of_code_horizontal_Roboto" data-name="logo lockup summer of code horizontal Roboto"><g id="Page-1"><g id="logo_lockup_summer_of_code_horizontal_Roboto_lockup_summer_of_code_icon_horizontal" data-name="logo lockup summer of code horizontal Roboto lockup summer of code icon horizontal"><g id="Group"><path class="cls-1" d="M266.2,142V85.13H209.3L169.12,45,129,85.13H72.05V142L31.87,182.2l40.18,40.18v56.9H129l40.17,40.18,40.18-40.18h56.9v-56.9l40.17-40.18ZM169.12,280.22a98,98,0,1,1,98-98A98.13,98.13,0,0,1,169.12,280.22Z"/><path class="cls-1" d="M169.12,96.7a85.51,85.51,0,1,0,85.51,85.5A85.6,85.6,0,0,0,169.12,96.7ZM144,164.54,121.29,182.2,144,199.56v14.07l-1.56-1.1-33.61-26.1-2.19-1.72v-5.32l2.19-1.72,33.61-26.11,1.56-1.09Zm40.49-22.2-18.6,82.07-.16.63H154.12l.62-3.13,18.6-82.07.16-.62h11.57Zm45,44.4-33.61,26.1-1.56,1.1V199.87L217,182.2l-22.67-17.66V150.47l1.41,1.25L229.46,178l2.19,1.72V185Z"/></g><g id="Roboto"><path class="cls-2" d="M817.07,176.73c-10.1-2.9-17.5-6.5-22.1-10.7a20.48,20.48,0,0,1-6.9-15.7,21.45,21.45,0,0,1,8.5-17.5c5.7-4.6,13-6.9,22-6.9a36.71,36.71,0,0,1,16.5,3.6,27.55,27.55,0,0,1,11.2,9.8,25.47,25.47,0,0,1,4,13.7h-12.1c0-5.4-1.7-9.7-5.2-12.8s-8.3-4.7-14.6-4.7c-5.8,0-10.4,1.3-13.6,3.9a13,13,0,0,0-4.9,10.7,11.45,11.45,0,0,0,4.6,9.3c3.1,2.5,8.4,4.8,15.8,6.9s13.3,4.4,17.5,6.9a27.66,27.66,0,0,1,9.4,8.8,22.87,22.87,0,0,1,3,11.9c0,7.3-2.8,13.1-8.5,17.4s-13.2,6.6-22.7,6.6a42.65,42.65,0,0,1-17.2-3.5,28.72,28.72,0,0,1-12.3-9.7,23.68,23.68,0,0,1-4.3-14h11.9a15.34,15.34,0,0,0,6,12.8c4,3.1,9.3,4.7,16,4.7,6.2,0,11-1.3,14.3-3.8a12.4,12.4,0,0,0,5-10.4c0-4.4-1.5-7.8-4.6-10.2s-8.7-4.7-16.7-7.1Z"/><path class="cls-2" d="M904.67,210.13q-6.6,7.8-19.5,7.8c-7.1,0-12.5-2.1-16.2-6.2s-5.6-10.2-5.6-18.3v-43.3h11.4v43c0,10.1,4.1,15.1,12.3,15.1,8.7,0,14.5-3.2,17.3-9.7v-48.4h11.4v66.6H905l-.3-6.6Z"/><path class="cls-2" d="M943.77,150.13l.3,7.4c4.9-5.7,11.5-8.6,19.7-8.6,9.3,0,15.6,3.6,19,10.7a25.83,25.83,0,0,1,8.6-7.8,25,25,0,0,1,12.6-3c14.6,0,22,7.7,22.3,23.2v44.7h-11.4v-44c0-4.8-1.1-8.3-3.3-10.7s-5.8-3.5-11-3.5a15.22,15.22,0,0,0-10.5,3.8,15.47,15.47,0,0,0-4.9,10.2v44.2h-11.4v-43.6c0-9.7-4.7-14.5-14.2-14.5-7.5,0-12.6,3.2-15.3,9.5v48.6h-11.4v-66.6Z"/><path class="cls-2" d="M1054.17,150.13l.3,7.4c4.9-5.7,11.5-8.6,19.7-8.6,9.3,0,15.6,3.6,19,10.7a25.83,25.83,0,0,1,8.6-7.8,25,25,0,0,1,12.6-3c14.6,0,22,7.7,22.3,23.2v44.7h-11.4v-44c0-4.8-1.1-8.3-3.3-10.7s-5.8-3.5-11-3.5a15.22,15.22,0,0,0-10.5,3.8,15.47,15.47,0,0,0-4.9,10.2v44.2h-11.4v-43.6c0-9.7-4.7-14.5-14.2-14.5-7.5,0-12.6,3.2-15.3,9.5v48.6h-11.4v-66.6Z"/><path class="cls-2" d="M1181.57,217.93c-9,0-16.4-3-22-8.9s-8.5-13.9-8.5-23.8v-2.1a40.36,40.36,0,0,1,3.8-17.7,29.32,29.32,0,0,1,10.6-12.2,26.66,26.66,0,0,1,14.7-4.4c8.7,0,15.4,2.9,20.2,8.6s7.2,13.9,7.2,24.5v4.7h-45.1c.2,6.6,2.1,11.9,5.8,15.9a18.24,18.24,0,0,0,14,6.1,19.29,19.29,0,0,0,10.2-2.5,25,25,0,0,0,7.3-6.5l7,5.4q-8.55,12.9-25.2,12.9Zm-1.4-59.7a15.51,15.51,0,0,0-11.6,5c-3.1,3.3-5,8-5.8,14.1h33.3v-.9c-.3-5.8-1.9-10.3-4.7-13.4s-6.5-4.8-11.2-4.8Z"/><path class="cls-2" d="M1252.87,160.33a32.79,32.79,0,0,0-5.6-.4c-7.5,0-12.5,3.2-15.2,9.5v47.3h-11.4v-66.6h11.1l.2,7.7c3.7-5.9,9-8.9,15.9-8.9a10.88,10.88,0,0,1,5,.9v10.5Z"/><path class="cls-2" d="M1291.47,182.83a40.23,40.23,0,0,1,3.8-17.6,29.34,29.34,0,0,1,10.7-12.1,28.64,28.64,0,0,1,15.7-4.2c9.1,0,16.4,3.1,22,9.4s8.4,14.6,8.4,25v.8a39,39,0,0,1-3.7,17.4,28.17,28.17,0,0,1-10.6,12,29.15,29.15,0,0,1-15.9,4.3c-9,0-16.3-3.1-21.9-9.4s-8.4-14.6-8.4-24.9v-.7Zm11.5,1.3c0,7.4,1.7,13.3,5.1,17.8a17.48,17.48,0,0,0,27.6-.1c3.4-4.5,5.1-10.9,5.1-19,0-7.3-1.7-13.2-5.2-17.7a16.69,16.69,0,0,0-13.8-6.8,16.24,16.24,0,0,0-13.6,6.7c-3.5,4.4-5.2,10.8-5.2,19.1Z"/><path class="cls-2" d="M1372,216.73v-57.8h-10.5v-8.8H1372v-6.8c0-7.1,1.9-12.7,5.7-16.5s9.2-5.8,16.2-5.8a29.82,29.82,0,0,1,7.8,1l-.6,9.2a30.34,30.34,0,0,0-6.2-.6,11.54,11.54,0,0,0-8.6,3.2c-2.1,2.1-3,5.3-3,9.3v7h14.2v8.8h-14.2v57.8Z"/><path class="cls-2" d="M1509,188.23q-1.65,14.25-10.5,21.9c-5.9,5.1-13.7,7.7-23.5,7.7-10.6,0-19.1-3.8-25.4-11.4s-9.6-17.7-9.6-30.5v-8.6a51.16,51.16,0,0,1,4.5-22,34.08,34.08,0,0,1,12.6-14.6,35,35,0,0,1,18.9-5.1c9.5,0,17.1,2.7,22.9,8s9.1,12.7,10,22.1H1497c-1-7.2-3.3-12.3-6.7-15.6s-8.2-4.8-14.4-4.8c-7.5,0-13.5,2.8-17.7,8.4s-6.4,13.5-6.4,23.8v8.7c0,9.7,2,17.5,6.1,23.2a19.75,19.75,0,0,0,17,8.6c6.6,0,11.6-1.5,15.1-4.5s5.8-8.2,7-15.5h12v.2Z"/><path class="cls-2" d="M1520.27,182.83a40.23,40.23,0,0,1,3.8-17.6,29.34,29.34,0,0,1,10.7-12.1,28.64,28.64,0,0,1,15.7-4.2c9.1,0,16.4,3.1,22,9.4s8.4,14.6,8.4,25v.8a39,39,0,0,1-3.7,17.4,28.17,28.17,0,0,1-10.6,12,29.15,29.15,0,0,1-15.9,4.3c-9,0-16.3-3.1-21.9-9.4s-8.4-14.6-8.4-24.9v-.7Zm11.5,1.3c0,7.4,1.7,13.3,5.1,17.8a17.48,17.48,0,0,0,27.6-.1c3.4-4.5,5.1-10.9,5.1-19,0-7.3-1.7-13.2-5.2-17.7a16.69,16.69,0,0,0-13.8-6.8A16.24,16.24,0,0,0,1537,165c-3.5,4.4-5.2,10.8-5.2,19.1Z"/><path class="cls-2" d="M1592.37,182.83c0-10.2,2.4-18.4,7.3-24.6a23.08,23.08,0,0,1,19-9.3c7.8,0,14,2.7,18.5,8v-34.7h11.4v94.5h-10.5l-.6-7.1c-4.6,5.6-10.9,8.4-19,8.4-7.7,0-14-3.2-18.9-9.5s-7.3-14.6-7.3-24.7v-1Zm11.4,1.3c0,7.5,1.6,13.5,4.7,17.7a15,15,0,0,0,12.9,6.4c7.2,0,12.5-3.2,15.8-9.7v-30.6c-3.4-6.3-8.6-9.4-15.7-9.4a15.11,15.11,0,0,0-13,6.5c-3.1,4.3-4.7,10.7-4.7,19.1Z"/><path class="cls-2" d="M1693.87,217.93c-9,0-16.4-3-22-8.9s-8.5-13.9-8.5-23.8v-2.1a40.36,40.36,0,0,1,3.8-17.7,29.32,29.32,0,0,1,10.6-12.2,26.66,26.66,0,0,1,14.7-4.4c8.7,0,15.4,2.9,20.2,8.6s7.2,13.9,7.2,24.5v4.7h-45.1c.2,6.6,2.1,11.9,5.8,15.9a18.24,18.24,0,0,0,14,6.1,19.29,19.29,0,0,0,10.2-2.5,25,25,0,0,0,7.3-6.5l7,5.4q-8.55,12.9-25.2,12.9Zm-1.4-59.7a15.51,15.51,0,0,0-11.6,5c-3.1,3.3-5,8-5.8,14.1h33.3v-.9c-.3-5.8-1.9-10.3-4.7-13.4s-6.5-4.8-11.2-4.8Z"/></g><g id="Google"><path class="cls-2" d="M428.3,128.63q13.36,7,16.35,24.6h-12q-2.19-9.82-9.09-14.31t-17.4-4.49a27.23,27.23,0,0,0-21,9.34q-8.52,9.34-8.52,27.83,0,16,7,26t22.89,10q12.15,0,20.11-7t8.15-22.79H406.75V167.76h39.37v48h-7.81l-2.93-11.54q-6.17,6.78-10.93,9.4-8,4.51-20.32,4.52a39.64,39.64,0,0,1-27.41-10.31q-12.51-12.95-12.51-35.53t12.21-35.82q11.59-12.7,30-12.7,12.63,0,21.85,4.88Zm76.08,71.75a41.28,41.28,0,0,0,4.06-18.4q0-9.16-2.93-14.9-4.65-9-16-9-10.08,0-14.65,7.69t-4.58,18.56q0,10.42,4.58,17.39t14.52,7q10.94,0,15-8.27Zm6.8-43.49q8.73,8.43,8.73,24.78,0,15.81-7.69,26.13t-23.86,10.31q-13.5,0-21.43-9.12T459,184.48q0-16.48,8.36-26.25t22.46-9.76a29.62,29.62,0,0,1,21.36,8.42Zm62.72,43.49A41.28,41.28,0,0,0,578,182q0-9.16-2.93-14.9-4.65-9-16-9-10.06,0-14.64,7.69t-4.58,18.56q0,10.42,4.58,17.39t14.52,7q10.94,0,15-8.27Zm6.8-43.49q8.73,8.43,8.73,24.78,0,15.81-7.69,26.13t-23.86,10.31q-13.5,0-21.43-9.12t-7.93-24.51q0-16.48,8.36-26.25t22.46-9.76a29.62,29.62,0,0,1,21.36,8.42ZM639,153a30.14,30.14,0,0,1,6.35,6.22V151h10.13v59.45q0,12.45-3.66,19.65Q645,243.38,626,243.38q-10.56,0-17.76-4.73t-8.06-14.8h11.17a12.38,12.38,0,0,0,3.18,6.77q3.72,3.66,11.71,3.66,12.64,0,16.55-8.91,2.31-5.25,2.13-18.73a21.64,21.64,0,0,1-7.93,7.44q-4.65,2.44-12.27,2.44A26.21,26.21,0,0,1,606.12,209q-8-7.55-8-24.94,0-16.41,8-25.63t19.38-9.22A23.76,23.76,0,0,1,639,153Zm1.34,11.78a16,16,0,0,0-12.75-5.86q-11.6,0-15.87,10.86-2.26,5.8-2.26,15.2,0,11,4.49,16.81a14.46,14.46,0,0,0,12,5.77q11.84,0,16.66-10.68a34.47,34.47,0,0,0,2.69-14.1q0-12.15-5-18Zm32-38.7h11v89.66h-11Zm68.17,26.09a24.87,24.87,0,0,1,10,8.46,29.21,29.21,0,0,1,4.4,11.53q1,4.51,1,14.41H707.9q.3,9.94,4.7,16t13.61,6q8.61,0,13.73-5.68a19,19,0,0,0,4.15-7.63H754.9a22.83,22.83,0,0,1-2.84,8,28.65,28.65,0,0,1-5.4,7.23,25.6,25.6,0,0,1-12.39,6.59,37.76,37.76,0,0,1-9,1,27.55,27.55,0,0,1-20.69-8.88q-8.48-8.88-8.48-24.87,0-15.75,8.54-25.58T727,148.9a29.76,29.76,0,0,1,13.49,3.26Zm4,25.67a28.51,28.51,0,0,0-3.11-11.42q-4.51-7.93-15.08-7.93a16.7,16.7,0,0,0-12.69,5.46,20.66,20.66,0,0,0-5.44,13.89Z"/></g></g></g></g></svg>