<svg id="Layer_1" data-name="Layer 1" xmlns="http://www.w3.org/2000/svg" viewBox="0 0 1262.38 1027.33"><defs><style>.cls-1{fill:#582841;}.cls-2{fill:#994776;}.cls-3{fill:#6d3254;}.cls-4{fill:#cc2a49;}.cls-5{fill:#e22d59;}.cls-6{fill:#bc284b;}.cls-7{fill:#77375b;}.cls-14,.cls-8{fill:#f99e4c;}.cls-8{opacity:0.75;isolation:isolate;}.cls-9{fill:#3a1b2d;}.cls-10{fill:#723558;}.cls-11{fill:#a0274f;}.cls-12{fill:#751d3f;}.cls-13{fill:#421326;}.cls-15{fill:#f36f38;}</style></defs><title>mainBackgroundItem</title><polygon class="cls-1" points="325.73 601.11 322.06 603.39 312.56 609.3 308.88 611.59 299.38 617.5 295.71 619.78 286.21 625.69 282.54 627.98 273.04 633.89 269.36 636.17 259.86 642.09 256.19 644.38 246.7 650.28 243.03 652.58 233.53 658.49 229.85 660.77 220.35 666.69 216.68 668.97 207.18 674.88 203.51 677.17 194.01 683.08 190.33 685.36 180.83 691.27 177.16 693.56 167.67 699.47 164 701.77 150.82 709.96 151.81 739.7 164.98 731.5 168.65 729.22 178.15 723.3 181.83 721.02 191.33 715.11 194.99 712.83 204.49 706.91 208.16 704.63 217.66 698.72 221.34 696.43 230.84 690.52 234.51 688.22 244.01 682.31 247.68 680.03 257.18 674.12 260.86 671.83 270.36 665.92 274.02 663.64 283.52 657.73 287.19 655.44 296.69 649.53 300.37 647.25 309.87 641.33 313.54 639.04 323.04 633.12 326.71 630.84 339.89 622.64 338.89 592.91 325.73 601.11"/><polygon class="cls-1" points="353.34 623.05 349.67 625.33 340.17 631.24 336.49 633.53 326.99 639.44 323.32 641.72 313.82 647.63 310.15 649.92 300.65 655.83 296.97 658.12 287.47 664.03 283.81 666.31 274.31 672.22 270.64 674.51 261.14 680.43 257.46 682.72 247.96 688.63 244.29 690.91 234.79 696.82 231.12 699.11 221.62 705.02 217.94 707.3 208.44 713.22 204.78 715.5 195.28 721.41 191.61 723.7 178.43 731.89 179.42 761.64 192.59 753.44 196.26 751.16 205.76 745.25 209.44 742.96 218.94 737.05 222.6 734.77 232.1 728.85 235.77 726.56 245.27 720.64 248.95 718.36 258.45 712.45 262.12 710.16 271.62 704.25 275.29 701.97 284.79 696.06 288.47 693.77 297.97 687.86 301.63 685.58 311.13 679.67 314.8 677.38 324.3 671.47 327.98 669.19 337.48 663.26 341.15 660.98 350.65 655.07 354.32 652.78 367.5 644.59 366.5 614.84 353.34 623.05"/><polygon class="cls-2" points="150.82 709.96 178.43 731.89 179.42 761.64 151.81 739.7 150.82 709.96"/><polygon class="cls-1" points="339.89 622.64 367.5 644.59 366.5 614.84 338.89 592.91 339.89 622.64"/><polygon class="cls-3" points="150.82 709.96 178.43 731.89 366.5 614.84 338.89 592.91 150.82 709.96"/><polygon class="cls-1" points="374.95 98.74 318.79 131.16 262.63 163.59 206.48 196.02 150.32 228.44 94.16 260.86 38 293.28 38 356.53 38 358.13 38 419.79 38 421.38 38 483.03 38 484.63 38 547.89 94.16 515.47 150.32 483.03 206.48 450.61 262.63 418.19 318.79 385.77 374.95 353.34 431.12 320.92 431.12 257.67 431.12 256.07 431.12 194.42 431.12 192.82 431.12 131.16 431.12 129.57 431.12 66.32 374.95 98.74"/><polygon class="cls-1" points="254.89 463.52 240 472.11 240 485.55 240 489.29 240 498.98 240 502.73 240 512.42 240 516.16 240 525.85 240 529.6 240 539.29 240 543.04 240 552.72 240 556.47 240 566.16 240 569.91 240 579.6 240 583.34 240 593.03 240 596.78 240 606.47 240 610.22 240 619.9 240 623.65 240 633.34 240 637.09 240 646.77 240 650.52 240 663.96 254.89 672.56 269.78 663.96 269.78 650.52 269.78 646.77 269.78 637.09 269.78 633.34 269.78 623.65 269.78 619.9 269.78 610.22 269.78 606.47 269.78 596.78 269.78 593.03 269.78 583.34 269.78 579.6 269.78 569.91 269.78 566.16 269.78 556.47 269.78 552.72 269.78 543.04 269.78 539.29 269.78 529.6 269.78 525.85 269.78 516.16 269.78 512.42 269.78 502.73 269.78 498.98 269.78 489.29 269.78 485.55 269.78 472.11 254.89 463.52"/><polygon class="cls-4" points="408.3 307.1 352.14 339.52 295.99 371.94 239.83 404.38 183.67 436.8 127.51 469.22 71.34 501.64 15.2 534.06 71.34 566.48 127.51 534.06 183.67 501.64 239.83 469.22 295.99 436.8 352.14 404.38 408.3 371.94 464.46 339.52 408.3 307.1"/><polygon class="cls-5" points="15.2 534.06 15.2 598.92 71.34 631.34 71.34 566.48 15.2 534.06"/><polygon class="cls-6" points="408.3 371.94 352.14 404.38 295.99 436.8 239.83 469.22 183.67 501.64 127.51 534.06 71.34 566.48 71.34 631.34 127.51 598.92 183.67 566.48 239.83 534.06 295.99 501.64 352.14 469.22 408.3 436.8 464.46 404.38 464.46 339.52 408.3 371.94"/><polygon class="cls-7" points="38 313.75 38 547.89 48.54 553.52 48.54 319.84 38 313.75"/><polygon class="cls-7" points="385.5 109.29 329.34 141.71 273.18 174.13 217.02 206.55 160.85 238.98 104.71 271.4 48.54 303.82 48.54 319.84 48.54 553.52 52.96 555.87 104.97 525.85 160.85 493.58 217.02 461.16 273.18 428.74 329.34 396.3 385.5 363.88 441.66 331.46 441.66 268.21 441.66 266.61 441.66 204.96 441.66 203.37 441.66 141.71 441.66 140.11 441.66 76.87 385.5 109.29"/><polygon class="cls-8" points="371.58 143.82 321.83 172.54 272.09 201.27 222.34 230 172.58 258.72 122.83 287.45 73.08 316.17 73.08 330.35 73.08 537.35 77 539.45 123.07 512.85 172.58 484.27 222.34 455.54 272.09 426.82 321.83 398.09 371.58 369.37 421.33 340.65 421.33 284.61 421.33 283.2 421.33 228.58 421.33 227.17 421.33 172.54 421.33 171.13 421.33 115.11 371.58 143.82"/><polygon class="cls-4" points="393.11 0 336.96 32.42 280.8 64.84 224.63 97.28 168.47 129.7 112.31 162.12 56.15 194.54 0 226.96 56.15 259.39 112.31 226.96 168.47 194.54 224.63 162.12 280.8 129.7 336.96 97.28 393.11 64.84 449.27 32.42 393.11 0"/><polygon class="cls-5" points="0 226.96 0 291.81 56.15 324.23 56.15 259.39 0 226.96"/><polygon class="cls-6" points="393.11 64.84 336.96 97.28 280.8 129.7 224.63 162.12 168.47 194.54 112.31 226.96 56.15 259.39 56.15 324.23 112.31 291.81 168.47 259.39 224.63 226.96 280.8 194.54 336.96 162.12 393.11 129.7 449.27 97.28 449.27 32.42 393.11 64.84"/><polygon class="cls-1" points="803.2 165.3 803.2 258.34 883.78 304.87 883.78 211.82 803.2 165.3"/><polygon class="cls-1" points="803.2 272.53 803.2 365.59 883.78 412.1 883.78 319.06 803.2 272.53"/><polygon class="cls-1" points="894.76 218.09 894.76 311.15 975.35 357.66 975.35 264.62 894.76 218.09"/><polygon class="cls-1" points="894.76 325.34 894.76 418.38 975.35 464.91 975.35 371.85 894.76 325.34"/><polygon class="cls-1" points="1090.22 325.34 1090.22 418.38 1170.81 464.91 1170.81 371.85 1090.22 325.34"/><polygon class="cls-1" points="1090.22 432.57 1090.22 525.62 1170.81 572.15 1170.81 479.1 1090.22 432.57"/><polygon class="cls-1" points="1181.79 378.13 1181.79 471.18 1262.38 517.7 1262.38 424.65 1181.79 378.13"/><polygon class="cls-1" points="1181.79 485.36 1181.79 578.41 1262.38 624.94 1262.38 531.88 1181.79 485.36"/><path class="cls-1" d="M299.18,378.39c-32.37,18.69-58.69,7.56-58.69-24.81s26.32-73.89,58.69-92.55,58.67-7.56,58.67,24.8S331.59,359.68,299.18,378.39Zm0-107.78c-27.09,15.62-49.11,50.38-49.11,77.45s22,36.4,49.11,20.76,49.11-50.38,49.11-77.47-22.08-36.41-49.11-20.77Z" transform="translate(-46.46 -23.39)"/><polygon class="cls-1" points="280.25 280.41 234.34 280.41 234.34 333.41 280.25 280.41"/><polygon class="cls-1" points="274.57 386.2 195.77 431.69 195.77 418.12 274.57 372.63 274.57 386.2"/><polygon class="cls-1" points="307.38 367.25 279.76 383.2 279.76 369.62 307.38 353.69 307.38 367.25"/><polygon class="cls-1" points="243.66 422.42 195.77 450.07 195.77 436.49 243.66 408.85 243.66 422.42"/><polygon class="cls-1" points="328.87 373.22 249.06 419.31 249.06 405.74 328.87 359.65 328.87 373.22"/><polygon class="cls-1" points="536 855.29 566.27 872.77 536 890.23 505.73 872.77 536 855.29"/><polygon class="cls-9" points="566.27 872.77 566.27 907.71 566.27 939.95 566.27 942.67 566.27 974.89 566.27 1009.85 536 1027.33 536 992.37 536 960.15 536 957.41 536 925.19 536 890.23 566.27 872.77"/><polygon class="cls-10" points="536 890.23 536 925.19 536 957.41 536 960.15 536 992.37 536 1027.33 505.73 1009.85 505.73 974.89 505.73 942.67 505.73 939.95 505.73 907.71 505.73 872.77 536 890.23"/><polygon class="cls-1" points="405.39 765.84 435.66 783.32 405.39 800.79 375.12 783.32 405.39 765.84"/><polygon class="cls-9" points="435.66 783.32 435.66 818.27 435.66 850.5 435.66 853.23 435.66 885.45 435.66 920.41 405.39 937.89 405.39 902.93 405.39 870.71 405.39 867.97 405.39 835.75 405.39 800.79 435.66 783.32"/><polygon class="cls-10" points="405.39 800.79 405.39 835.75 405.39 867.97 405.39 870.71 405.39 902.93 405.39 937.89 375.12 920.41 375.12 885.45 375.12 853.23 375.12 850.5 375.12 818.27 375.12 783.32 405.39 800.79"/><polygon class="cls-1" points="885.33 650.32 915.61 667.8 885.33 685.28 855.06 667.8 885.33 650.32"/><polygon class="cls-9" points="915.61 667.8 915.61 702.76 915.61 734.98 915.61 737.72 915.61 769.94 915.61 804.9 885.33 822.38 885.33 787.42 885.33 755.2 885.33 752.46 885.33 720.24 885.33 685.28 915.61 667.8"/><polygon class="cls-10" points="885.33 685.28 885.33 720.24 885.33 752.46 885.33 755.2 885.33 787.42 885.33 822.38 855.06 804.9 855.06 769.94 855.06 737.72 855.06 734.98 855.06 702.76 855.06 667.8 885.33 685.28"/><polygon class="cls-10" points="341.46 739.55 341.46 779.86 536 892.17 536 851.86 341.46 739.55"/><polygon class="cls-1" points="730.55 514.9 536 627.23 341.46 739.55 536 851.86 730.55 739.55 925.09 627.23 730.55 514.9"/><polygon class="cls-9" points="730.55 739.55 536 851.86 536 892.17 730.55 779.86 925.09 667.53 925.09 627.23 730.55 739.55"/><polygon class="cls-4" points="683.08 561.07 601.29 608.28 519.51 655.5 601.29 702.71 683.08 655.5 764.86 608.28 683.08 561.07"/><polygon class="cls-5" points="519.51 655.5 519.51 709.24 601.29 756.45 601.29 702.71 519.51 655.5"/><polygon class="cls-6" points="683.08 655.5 601.29 702.71 601.29 756.45 683.08 709.24 764.86 662.02 764.86 608.28 683.08 655.5"/><path class="cls-11" d="M654.25,627.92s4.69-17.36,25.53-14.78Z" transform="translate(-46.46 -23.39)"/><polygon class="cls-12" points="639.47 704.64 620.53 715.58 620.53 696.63 639.47 685.7 639.47 704.64"/><polygon class="cls-12" points="666.34 689.12 647.41 700.06 647.41 681.12 666.34 670.18 666.34 689.12"/><polygon class="cls-12" points="666.34 716 647.41 726.93 647.41 707.99 666.34 697.05 666.34 716"/><polygon class="cls-12" points="749.3 641.23 687.71 676.79 687.71 657.85 749.3 622.28 749.3 641.23"/><polygon class="cls-12" points="749.3 668.1 687.71 703.66 687.71 684.72 749.3 649.15 749.3 668.1"/><polygon class="cls-12" points="639.47 731.51 620.53 742.45 620.53 723.51 639.47 712.57 639.47 731.51"/><ellipse class="cls-12" cx="637.73" cy="671.79" rx="4.33" ry="2.45" transform="translate(-99.37 31.13) rotate(-4.7)"/><ellipse class="cls-12" cx="621.65" cy="686.08" rx="4.33" ry="2.45" transform="translate(-100.59 29.86) rotate(-4.7)"/><ellipse class="cls-12" cx="617.91" cy="675.02" rx="4.33" ry="2.45" transform="translate(-99.7 29.51) rotate(-4.7)"/><ellipse class="cls-12" cx="645.53" cy="689.37" rx="4.34" ry="2.45" transform="translate(-99.38 30.29) rotate(-4.57)"/><ellipse class="cls-12" cx="629.69" cy="678.93" rx="7.17" ry="4.06" transform="translate(-99.98 30.49) rotate(-4.7)"/><path class="cls-13" d="M700.4,712.94c10.14,14.4,23.58,25.81,35.15,39,6.26,7.13,11.94,14.9,15.52,23.75,4.31,10.61,5,22.06,4.83,33.4-.63,43.73-3.48,87.79,12.58,129.48,7.62,19.79,19,37.94,34.68,52.33,1.91,1.75,4.77-1.09,2.85-2.85-31.78-29.15-43.82-72.2-46.41-114-1.35-22.51.28-44.86.36-67.35.07-18.75-4.15-35.34-15.61-50.38-12.34-16.12-28.73-28.72-40.47-45.4-1.48-2.09-5-.09-3.48,2Z" transform="translate(-46.46 -23.39)"/><path class="cls-13" d="M678.43,723.23c34.94,26.87,45.32,72.89,46.36,114.77.61,25.21-1.48,50.37-1.71,75.58-.22,22.06.68,44.95,9.4,65.56,7.8,18.49,22.19,34.23,41.66,40.31,2.48.78,3.54-3.1,1.07-3.88-48.21-15.06-49-75.15-47.75-116.33,1.34-44,5.51-89.54-11.39-131.29-7.66-18.92-19.3-35.72-35.57-48.18-2-1.58-4,1.92-2,3.48Z" transform="translate(-46.46 -23.39)"/><path class="cls-13" d="M683,752.75c19.1-9.93,40.49,3.06,49.59,20.38,10.37,19.77,9.27,43.43,8.66,65.06-.61,22.46.19,44,5.7,65.83a374.33,374.33,0,0,0,18.15,55.64c7,16.23,17.07,31.43,34.21,37.86,2.43.92,3.48-3,1.06-3.88-18.73-7-28.21-26-34.81-43.65-7.54-20.36-14.42-41.65-18.15-63-4.37-25-.94-50.13-2-75.24-.78-18.1-4.38-37.45-16.73-51.45C717,747,697.18,740.87,681,749.28c-2.31,1.2-.27,4.68,2,3.48Z" transform="translate(-46.46 -23.39)"/><path class="cls-13" d="M696.26,740.11c18.72,1,26.63,22.56,28.61,38.37,2.87,22.84.08,46-1.55,68.9-1.53,21.5-1.89,43.09,3.08,64.21,4.79,20.33,13.33,39.61,21.86,58.59,6.94,15.48,16.2,32.8,34.13,36.91,2.52.59,3.6-3.3,1.07-3.88-18.81-4.32-27.05-24.46-34.09-40.39-9.12-20.65-18-41.79-21.41-64.26-3.51-23.27-.88-46.91.84-70.21,1.48-20,3.4-41.82-2.12-61.45C722.54,752.12,713,737,696.26,736.08c-2.59-.14-2.58,3.89,0,4Z" transform="translate(-46.46 -23.39)"/><polygon class="cls-13" points="778.96 953.72 706.9 1000.53 728.17 1011.87 799.92 964.42 778.96 953.72"/><polygon class="cls-13" points="706.9 1000.53 706.9 1014.97 728.17 1027.33 728.17 1011.87 706.9 1000.53"/><polygon class="cls-13" points="799.92 964.42 799.92 978.95 728.17 1027.33 728.17 1011.87 799.92 964.42"/><path class="cls-13" d="M679.87,717.63c-3.52.59-7.3,2.69-7,6.72.26,3.75,4.63,5.25,7.8,3.95,1.92-.8,2-2.69,2.29-4.54s.41-3.48-1.63-4.29a7.51,7.51,0,0,0-8.61,3.1,4.61,4.61,0,0,0-.62,4.5c.89,1.55,3,1.76,4.58,1.62a3.93,3.93,0,0,0,3.62-2.69,4.41,4.41,0,0,0-2.11-4.62c-4.14-2.3-5.7,4.36-4,7,1,1.62,3.48,1.89,5.21,1.78a4.93,4.93,0,0,0,4.23-2.69c2.14-4.47-3.83-6.89-7.29-5.84a3.91,3.91,0,0,0-3,3.92c.2,2.45,2.46,3.55,4.6,3.87l.54-4c-.6,0-2.14-.12-2.33-.83a2.52,2.52,0,0,1,1.34-2c2.56-.3,2.58-4.33,0-4a6.33,6.33,0,0,0-5.37,5.85c-.25,3.36,3.52,5.07,6.37,5.07,2.19,0,2.85-3.61.54-4-.18,0-1.49-.42-1.6-.38l-.24.5.26-.14c.58.08,2-.56,2.41.18.27.47-.95.4-1.34.37s-1.25-.31-.88.11a5.19,5.19,0,0,1,.16-1.84l-1.34.74c.3-.4.32-.56,0-.48a3.7,3.7,0,0,0-.94,0h-.34c.41.76.66.92.8.49.17-.09.32-.57.49-.76.77-.89,2.57-1.74,3.68-1l-.92-1.19a8.72,8.72,0,0,1-.41,2.68c.49-.3.43-.37-.16-.24h-.48c-.39,0-1,0-1.18-.31-.41-.67.39-1.53.83-1.85a7.81,7.81,0,0,1,3.18-1c2.56-.43,1.47-4.31-1.07-3.88Z" transform="translate(-46.46 -23.39)"/><path class="cls-13" d="M702.25,710.84a5,5,0,0,0-.87-.16,3.25,3.25,0,0,0,.38.65c.08,0,.35-.58.41-.67.26-.39,1.05-1.46,1.44-1.16a.78.78,0,0,1,0,1.1l-.07.06c-.52.37-.43-.25-.27.61,0,.45,0,.6.15.43l.1-.09a.38.38,0,0,1,.18-.15c.58-.28.25-.68-1-1.18l.51-.89c-.27.31-.74.34-1.1.49s-.4-.11-.27.1c-1.34-2.21-4.84-.18-3.48,2a4.2,4.2,0,0,0,4.81,1.75c1.77-.44,3.87-1.57,3.52-3.72-.74-4.54-7.51-2.35-7.28,1.58a3.68,3.68,0,0,0,3.83,3.19,4.79,4.79,0,0,0,4.26-2.92,4.53,4.53,0,0,0-6.21-5.87,7.47,7.47,0,0,0-3.61,5.05c-.18,2.14,1.59,3.4,3.53,3.66a2.07,2.07,0,0,0,2.47-1.41,2,2,0,0,0-1.34-2.48Z" transform="translate(-46.46 -23.39)"/><path class="cls-13" d="M679.9,747.09A5,5,0,0,0,677,749a3.61,3.61,0,0,0-.35,3.07,3.84,3.84,0,0,0,4.8,2.58,4.27,4.27,0,0,0,.67-.27,4.34,4.34,0,0,0,1.68-5.76,4.74,4.74,0,0,0-5.69-2,2.08,2.08,0,0,0-1.41,2.47,2,2,0,0,0,2.49,1.34s.6-.2.29-.14h.39c-.21,0,.33.12.08,0,0,0,.53.3.29.17s0-.11,0,0,.08.12,0,0v0h0c-.18.46.12-.12-.17.26.14-.19-.1,0,0,0h.34c-.17-.1-.11,0,0,0-.13-.35,0,.2-.13-.22,0,0,.08.44.06.19s0,.24-.06.21-.54.12.16,0c-.2,0,.51-.16.43-.13a2.07,2.07,0,0,0,1.34-2.49,2,2,0,0,0-2.49-1.34Z" transform="translate(-46.46 -23.39)"/><path class="cls-13" d="M677.17,747.69a5.72,5.72,0,0,0-5.68,3.21,4.27,4.27,0,0,0-.21,3.69,3.61,3.61,0,0,0,3.31,1.71c2.18.13,4.84-.51,5.59-2.85a3.09,3.09,0,0,0-1.17-3.57c-1.24-.74-2.77-.34-4.11-.19l1.75,3c.57-.82,1.34-.92,2.16-1.41a2.58,2.58,0,0,0,1-3.37c-1.25-2.18-4.77-1.65-6.37-.19a4.45,4.45,0,0,0-.39,5.91,5.5,5.5,0,0,0,6.39,1.48,2.06,2.06,0,0,0,1.34-2.48,2,2,0,0,0-2.47-1.35c-.53.2-1.87.66-2.19-.12a.52.52,0,0,1,.33-.66.49.49,0,0,1,.41,0l-.73-.71.14.19-.29-1v.2l.29-1c.56-.38.6-.45.12-.22l-.49.2a6,6,0,0,0-1.1.69,7.68,7.68,0,0,0-1.71,1.84,2,2,0,0,0,.74,2.75,2,2,0,0,0,1,.27,17.07,17.07,0,0,1,2.77-.23l-1-.27c-.47-.52-.52-.92-.13-1.19l-.24.13a3.34,3.34,0,0,0-.43.1,4.92,4.92,0,0,1-.94,0h-.62c.35.8.59,1,.71.68a1.91,1.91,0,0,1,.74-1,1.87,1.87,0,0,1,1.44-.23,2,2,0,0,0,2-2,2.05,2.05,0,0,0-2-2Z" transform="translate(-46.46 -23.39)"/><path class="cls-13" d="M699.47,739.52a9.7,9.7,0,0,1,2.21-.35c.31,0,.91.14,1.15,0,.35.09.35,0,0-.39a2.91,2.91,0,0,0-.25-.42s.14-.12.08-.16a1.94,1.94,0,0,0-.59,0c-.26,0-.54-.12-.78-.12-.74,0,.16-.61,0,.66l-.29,1a3.32,3.32,0,0,1,1.35-1c.19-.09.66-.16.56-.09v-.26c.57-.63.58-.83,0-.6a5.47,5.47,0,0,0-1.07.11h-1.08c-.36,0-1.23-.37-.71.08l.51.88-.08-.21v1.07c0-.22.48-.83.74-.83,2.59,0,2.59-4,0-4A5,5,0,0,0,697,737.7c-1.17,1.95.16,3.76,2.19,4.11a10,10,0,0,0,5.94-.45,3.36,3.36,0,0,0,1.4-4.54l-.06-.11a4.15,4.15,0,0,0-4.6-1.94,7.06,7.06,0,0,0-4.28,3c-2.15,4.15,5.45,5.59,7.76,3.5a3.55,3.55,0,0,0,.42-5l-.15-.16c-1.72-1.62-5.13-1-7.17-.45-2.51.65-1.44,4.53,1.07,3.89Z" transform="translate(-46.46 -23.39)"/><polygon class="cls-1" points="1078.71 672.76 1091.52 680.85 1091.52 694 1078.71 685.56 1078.71 672.76"/><path class="cls-13" d="M830.57,995.7c63.82-16.9,125.22-49.57,172.84-95.63,9.4-9.05,18.81-21,16.27-34.86-2.69-14.65-17.36-24.7-16.95-40.19.54-19.47,19-31.08,34.3-39.11,17.79-9.32,35.73-18.38,53.59-27.56,11.23-5.77,24.89-11,33.36-20.9,2.51-3,3.75-5.28,3.14-8.94-.44-2.68-1-5.2-1.25-7.86a28.53,28.53,0,0,1-.15-4c.13-1.91,2-7.42,4.84-6.17,2.35,1,4.41-2.44,2-3.48-2.75-1.22-6.45.5-8.42,2.48-2.88,2.87-2.69,7.48-2.33,11.24.26,3,2.27,7.67,1.78,10.58-.85,4.9-9.89,10.1-13.75,12.51-14.2,8.82-30,15.62-44.89,23.27-15.88,8.15-33.49,15.33-47.71,26.26-11.08,8.52-20.3,21.81-18.29,36.44,2.1,15.29,18.36,26,17,42-1.45,17.47-20.77,30.91-33.09,41.19a396.72,396.72,0,0,1-43.77,31.58,401.28,401.28,0,0,1-109.66,47.36,2,2,0,0,0,1.08,3.89Z" transform="translate(-46.46 -23.39)"/><path class="cls-13" d="M1132,705.86q.17.18,0-.12l.26,1v-.15l-.59,1.43h0l-.88.52h.39c.17.11.2.12.09,0a.74.74,0,0,1,0-.94c-.24-.61-.09-1,.46-1.18a2,2,0,0,1,.49,0,3.51,3.51,0,0,0-.33-.22c.11.1,0,0-.12-.13v.48l-.53.89c-.78.25-.92.36-.41.29h.84c0-.09-.22-.14-.31-.28-.43-.67.26-1.83,1.12-1.57a2,2,0,1,0-1.08,3.9,3,3,0,0,0,3.73-2,.24.24,0,0,0,0-.08,3.2,3.2,0,0,0-2.2-3.76,4.91,4.91,0,0,0-4.43.51c-1.35,1.34-.77,3.38.4,4.55a3.93,3.93,0,0,0,4.2,1.19,2.69,2.69,0,0,0,1.56-3.47,2.93,2.93,0,0,0-.39-.69,4.24,4.24,0,0,0-4-1.5,2.25,2.25,0,0,0-2,1.56,3,3,0,0,0,.84,2.68,2,2,0,0,0,2.85,0,2.05,2.05,0,0,0,0-2.84Z" transform="translate(-46.46 -23.39)"/><path class="cls-14" d="M236.33,562.26,137.69,619.2c3.63-2.1,12.91,18.81,13.44,20.35,5.8,17,5.63,35.49,2,52.87-2.69,12.85-3.37,24.82,5.56,35.68a2.21,2.21,0,0,0,1.51,1,2.24,2.24,0,0,0,1.18-.48c26.79-17.65,54.19-34.37,81.49-51.23,6.29-3.9-1.12-22.4-.62-29,1.17-15.2,8.4-29.05,7.39-44.52A89.71,89.71,0,0,0,236.33,562.26Z" transform="translate(-46.46 -23.39)"/><polygon class="cls-1" points="85.01 602.24 197.71 537.16 197.71 527.93 85.01 593 85.01 602.24"/><path class="cls-15" d="M161.18,628.36l19.47-10.75c2.27-1.25.24-4.74-2-3.48l-19.48,10.75C156.87,626.13,158.89,629.61,161.18,628.36Z" transform="translate(-46.46 -23.39)"/><path class="cls-15" d="M165,639l20.24-9.54c2.33-1.1.29-4.58-2-3.48L163,635.56C160.6,636.68,162.64,640.14,165,639Z" transform="translate(-46.46 -23.39)"/><path class="cls-15" d="M167.67,652.48a293.06,293.06,0,0,1,40.1-20.15c2.37-1,1.35-4.88-1.07-3.89A300.5,300.5,0,0,0,165.63,649a2,2,0,1,0,2,3.48Z" transform="translate(-46.46 -23.39)"/><path class="cls-15" d="M170.45,662.64l21-9.73c2.35-1.09.31-4.56-2-3.48l-21.05,9.77c-2.35,1.09-.3,4.56,2,3.48Z" transform="translate(-46.46 -23.39)"/><path class="cls-15" d="M171.4,675.64A363.88,363.88,0,0,1,206.91,655c2.32-1.17.27-4.65-2-3.48a363.72,363.72,0,0,0-35.5,20.61C167.21,673.59,169.23,677.08,171.4,675.64Z" transform="translate(-46.46 -23.39)"/><path class="cls-15" d="M165.06,693.07c14.26-5.94,27-14.65,40.77-21.57,2.31-1.16.27-4.64-2.05-3.49-13.43,6.72-25.87,15.37-39.79,21.18-2.35,1-1.35,4.87,1.07,3.88Z" transform="translate(-46.46 -23.39)"/><path class="cls-15" d="M176.12,700.66c-1.13-3.88-4.49-6.45-8.44-4.19-3.48,2-5.37,6.61-5.25,10.45a8.92,8.92,0,0,0,6,8.61,9.35,9.35,0,0,0,5.54.16c2-.84,2.69-3.48,3.43-5.37.94-2.42-3-3.47-3.9-1.07-.79,2-1.71,3.19-4,2.36a4.88,4.88,0,0,1-3-4.49,9.18,9.18,0,0,1,1.22-4.93c1.09-1.91,3.67-3.53,4.55-.48a2,2,0,0,0,3.89-1.08Z" transform="translate(-46.46 -23.39)"/><path class="cls-15" d="M188.2,696.16c.46-4-3.71-6.14-7.23-5.52-3.78.65-4.12,5.91-4.35,9s.6,7.73,3.84,9.4,6.72-.36,8.18-3.32c1.18-2.3-2.3-4.34-3.48-2-.67,1.35-2.08,2.69-3.44,1.21a6.73,6.73,0,0,1-1.11-4.34,18.94,18.94,0,0,1,.67-4.36,7.41,7.41,0,0,1,.35-1.55c.63-.7,2.58,1.13,2.54,1.48C183.87,698.74,187.9,698.71,188.2,696.16Z" transform="translate(-46.46 -23.39)"/></svg>