<?xml version="1.0" encoding="utf-8"?>
<!-- Generator: Adobe Illustrator 23.0.0, SVG Export Plug-In . SVG Version: 6.00 Build 0)  -->
<svg version="1.1" id="Layer_1" xmlns="http://www.w3.org/2000/svg" xmlns:xlink="http://www.w3.org/1999/xlink" x="0px" y="0px"
	 viewBox="0 0 320 679" style="enable-background:new 0 0 320 679;" xml:space="preserve">
<style type="text/css">
	.st0{opacity:0.35;fill:url(#SVGID_1_);enable-background:new    ;}
	.st1{fill:url(#SVGID_2_);}
</style>
<linearGradient id="SVGID_1_" gradientUnits="userSpaceOnUse" x1="0" y1="170.095" x2="320" y2="170.095" gradientTransform="matrix(1 0 0 -1 0 680)">
	<stop  offset="0.03" style="stop-color:#CC2A49"/>
	<stop  offset="1" style="stop-color:#F36F38"/>
</linearGradient>
<path class="st0" d="M0,341v132v22v24v11.81V627v24v11.81c0,8.8,7.2,16,16,16h1.91c3.28,0,6.33-1,8.87-2.71
	c3.66-2.47,8.47-2.47,12.14,0c2.54,1.71,5.59,2.71,8.87,2.71h1.91c3.28,0,6.33-1,8.87-2.71c3.66-2.47,8.47-2.47,12.14,0
	c2.54,1.71,5.59,2.71,8.87,2.71h1.91c3.28,0,6.33-1,8.87-2.71c3.66-2.47,8.47-2.47,12.14,0c2.54,1.71,5.59,2.71,8.87,2.71h1.91
	c3.28,0,6.33-1,8.87-2.71c3.66-2.47,8.47-2.47,12.14,0c2.54,1.71,5.59,2.71,8.87,2.71h1.91c3.28,0,6.33-1,8.87-2.71
	c3.66-2.47,8.47-2.47,12.14,0c2.54,1.71,5.59,2.71,8.87,2.71h1.91c3.28,0,6.33-1,8.87-2.71c3.66-2.47,8.47-2.47,12.14,0
	c2.54,1.71,5.59,2.71,8.87,2.71h1.91c3.28,0,6.33-1,8.87-2.71c3.66-2.47,8.47-2.47,12.14,0c2.54,1.71,5.59,2.71,8.87,2.71h1.91
	c3.28,0,6.33-1,8.87-2.71c3.66-2.47,8.47-2.47,12.14,0c2.54,1.71,5.59,2.71,8.87,2.71h1.91c3.28,0,6.33-1,8.87-2.71
	c3.66-2.47,8.47-2.47,12.14,0c2.54,1.71,5.59,2.71,8.87,2.71H304c8.8,0,16-7.2,16-16V651v-24v-96.19V519v-24v-22V341H0z"/>
<linearGradient id="SVGID_2_" gradientUnits="userSpaceOnUse" x1="0" y1="467.84" x2="320" y2="467.84" gradientTransform="matrix(1 0 0 -1 0 680)">
	<stop  offset="0.03" style="stop-color:#CC2A49"/>
	<stop  offset="1" style="stop-color:#F36F38"/>
</linearGradient>
<path class="st1" d="M304,2h-1.91c-3.28,0-6.33,1-8.87,2.71c-3.66,2.47-8.47,2.47-12.14,0C278.54,3,275.49,2,272.21,2h-1.91
	c-3.28,0-6.33,1-8.87,2.71c-3.66,2.47-8.47,2.47-12.14,0C246.76,3,243.7,2,240.42,2h-1.91c-3.28,0-6.33,1-8.87,2.71
	c-3.66,2.47-8.47,2.47-12.14,0C214.97,3,211.91,2,208.64,2h-1.91c-3.28,0-6.33,1-8.87,2.71c-3.66,2.47-8.47,2.47-12.14,0
	C183.18,3,180.13,2,176.85,2h-1.91c-3.28,0-6.33,1-8.87,2.71c-3.66,2.47-8.47,2.47-12.14,0C151.39,3,148.34,2,145.06,2h-1.91
	c-3.28,0-6.33,1-8.87,2.71c-3.66,2.47-8.47,2.47-12.14,0C119.6,3,116.55,2,113.27,2h-1.91c-3.28,0-6.33,1-8.87,2.71
	c-3.66,2.47-8.47,2.47-12.14,0C87.82,3,84.76,2,81.48,2h-1.91c-3.28,0-6.33,1-8.87,2.71c-3.66,2.47-8.47,2.47-12.14,0
	C56.03,3,52.97,2,49.7,2h-1.91c-3.28,0-6.33,1-8.87,2.71c-3.66,2.47-8.47,2.47-12.14,0C24.24,3,21.19,2,17.91,2H16C7.2,2,0,9.2,0,18
	v3v8.81v24v154V326v15v39.89c0,8.8,7.2,16,16,16h1.91c3.29,0,6.36-1.01,8.91-2.74c2.12-1.43,4.97-0.01,4.97,2.55v9.62
	c0,8.8,7.2,16,16,16h1.91c8.8,0,16-7.2,16-16v-46.7c0-2.56,2.85-3.98,4.97-2.55c2.55,1.73,5.61,2.74,8.91,2.74h1.91
	c3.29,0,6.36-1.01,8.91-2.74c2.12-1.43,4.97-0.01,4.97,2.55v21.27c0,8.8,7.2,16,16,16h1.91c8.8,0,16-7.2,16-16v-10.68
	c0-2.56,2.85-3.98,4.97-2.55c2.55,1.73,5.61,2.74,8.91,2.74h1.91c3.29,0,6.36-1.01,8.91-2.74c2.12-1.43,4.97-0.01,4.97,2.55v10.68
	c0,8.8,7.2,16,16,16h1.91c3.29,0,6.36-1.01,8.91-2.74c2.12-1.43,4.97-0.01,4.97,2.55v5.38c0,8.8,7.2,16,16,16h1.91
	c8.8,0,16-7.2,16-16V391.4c0-2.56,2.85-3.98,4.97-2.55c2.55,1.73,5.61,2.74,8.91,2.74h1.91c8.8,0,16-7.2,16-16v-5.38
	c0-2.56,2.85-3.98,4.97-2.55c2.55,1.73,5.61,2.74,8.91,2.74h1.91c3.29,0,6.36-1.01,8.91-2.74c2.12-1.43,4.97-0.01,4.97,2.55v0.08
	c0,8.8,7.2,16,16,16H304c8.8,0,16-7.2,16-16V341v-15V207.81v-154v-24V21v-3C320,9.2,312.8,2,304,2z"/>
</svg>
