<?xml version="1.0" encoding="utf-8"?>
<!-- Generator: Adobe Illustrator 23.0.0, SVG Export Plug-In . SVG Version: 6.00 Build 0)  -->
<svg version="1.1" id="Layer_1" xmlns="http://www.w3.org/2000/svg" xmlns:xlink="http://www.w3.org/1999/xlink" x="0px" y="0px"
	 viewBox="0 0 320 679" style="enable-background:new 0 0 320 679;" xml:space="preserve">
<style type="text/css">
	.st0{opacity:0.35;fill:url(#SVGID_1_);}
	.st1{fill:url(#SVGID_2_);}
	.st2{fill:#582841;}
	.st3{fill:#994776;}
	.st4{fill:#6D3254;}
	.st5{fill:#CC2A49;}
	.st6{fill:#E22D59;}
	.st7{fill:#BC284B;}
	.st8{fill:#77375B;}
	.st9{opacity:0.75;fill:#F99E4C;enable-background:new    ;}
	.st10{fill:#3A1B2D;}
	.st11{fill:#723558;}
	.st12{fill:#A0274F;}
	.st13{fill:#751D3F;}
	.st14{fill:#421326;}
	.st15{fill:#F99E4C;}
	.st16{fill:#F36F38;}
</style>
<linearGradient id="SVGID_1_" gradientUnits="userSpaceOnUse" x1="0" y1="509.9073" x2="320" y2="509.9073">
	<stop  offset="0.03" style="stop-color:#CC2A49"/>
	<stop  offset="1" style="stop-color:#F36F38"/>
</linearGradient>
<path class="st0" d="M0,341v132v22v24v11.81V627v24v11.81c0,8.8,7.2,16,16,16h1.91c3.28,0,6.33-1,8.87-2.71
	c3.66-2.47,8.47-2.47,12.14,0c2.54,1.71,5.59,2.71,8.87,2.71h1.91c3.28,0,6.33-1,8.87-2.71c3.66-2.47,8.47-2.47,12.14,0
	c2.54,1.71,5.59,2.71,8.87,2.71h1.91c3.28,0,6.33-1,8.87-2.71c3.66-2.47,8.47-2.47,12.14,0c2.54,1.71,5.59,2.71,8.87,2.71h1.91
	c3.28,0,6.33-1,8.87-2.71c3.66-2.47,8.47-2.47,12.14,0c2.54,1.71,5.59,2.71,8.87,2.71h1.91c3.28,0,6.33-1,8.87-2.71
	c3.66-2.47,8.47-2.47,12.14,0c2.54,1.71,5.59,2.71,8.87,2.71h1.91c3.28,0,6.33-1,8.87-2.71c3.66-2.47,8.47-2.47,12.14,0
	c2.54,1.71,5.59,2.71,8.87,2.71h1.91c3.28,0,6.33-1,8.87-2.71c3.66-2.47,8.47-2.47,12.14,0c2.54,1.71,5.59,2.71,8.87,2.71h1.91
	c3.28,0,6.33-1,8.87-2.71c3.66-2.47,8.47-2.47,12.14,0c2.54,1.71,5.59,2.71,8.87,2.71h1.91c3.28,0,6.33-1,8.87-2.71
	c3.66-2.47,8.47-2.47,12.14,0c2.54,1.71,5.59,2.71,8.87,2.71H304c8.8,0,16-7.2,16-16V651v-24v-96.19V519v-24v-22V341H0z"/>
<linearGradient id="SVGID_2_" gradientUnits="userSpaceOnUse" x1="0" y1="212.1589" x2="320" y2="212.1589">
	<stop  offset="0.03" style="stop-color:#CC2A49"/>
	<stop  offset="1" style="stop-color:#F36F38"/>
</linearGradient>
<path class="st1" d="M304,2h-1.91c-3.28,0-6.33,1-8.87,2.71c-3.66,2.47-8.47,2.47-12.14,0C278.54,3,275.49,2,272.21,2h-1.91
	c-3.28,0-6.33,1-8.87,2.71c-3.66,2.47-8.47,2.47-12.14,0C246.76,3,243.7,2,240.42,2h-1.91c-3.28,0-6.33,1-8.87,2.71
	c-3.66,2.47-8.47,2.47-12.14,0C214.97,3,211.91,2,208.64,2h-1.91c-3.28,0-6.33,1-8.87,2.71c-3.66,2.47-8.47,2.47-12.14,0
	C183.18,3,180.13,2,176.85,2h-1.91c-3.28,0-6.33,1-8.87,2.71c-3.66,2.47-8.47,2.47-12.14,0C151.39,3,148.34,2,145.06,2h-1.91
	c-3.28,0-6.33,1-8.87,2.71c-3.66,2.47-8.47,2.47-12.14,0C119.6,3,116.55,2,113.27,2h-1.91c-3.28,0-6.33,1-8.87,2.71
	c-3.66,2.47-8.47,2.47-12.14,0C87.82,3,84.76,2,81.48,2h-1.91c-3.28,0-6.33,1-8.87,2.71c-3.66,2.47-8.47,2.47-12.14,0
	C56.03,3,52.97,2,49.7,2h-1.91c-3.28,0-6.33,1-8.87,2.71c-3.66,2.47-8.47,2.47-12.14,0C24.24,3,21.19,2,17.91,2H16C7.2,2,0,9.2,0,18
	v3v8.81v24v154V326v15v39.89c0,8.8,7.2,16,16,16h1.91c3.29,0,6.36-1.01,8.91-2.74c2.12-1.43,4.97-0.01,4.97,2.55v9.62
	c0,8.8,7.2,16,16,16h1.91c8.8,0,16-7.2,16-16v-46.7c0-2.56,2.85-3.98,4.97-2.55c2.55,1.73,5.61,2.74,8.91,2.74h1.91
	c3.29,0,6.36-1.01,8.91-2.74c2.12-1.43,4.97-0.01,4.97,2.55v21.27c0,8.8,7.2,16,16,16h1.91c8.8,0,16-7.2,16-16v-10.68
	c0-2.56,2.85-3.98,4.97-2.55c2.55,1.73,5.61,2.74,8.91,2.74h1.91c3.29,0,6.36-1.01,8.91-2.74c2.12-1.43,4.97-0.01,4.97,2.55v10.68
	c0,8.8,7.2,16,16,16h1.91c3.29,0,6.36-1.01,8.91-2.74c2.12-1.43,4.97-0.01,4.97,2.55v5.38c0,8.8,7.2,16,16,16h1.91
	c8.8,0,16-7.2,16-16V391.4c0-2.56,2.85-3.98,4.97-2.55c2.55,1.73,5.61,2.74,8.91,2.74h1.91c8.8,0,16-7.2,16-16v-5.38
	c0-2.56,2.85-3.98,4.97-2.55c2.55,1.73,5.61,2.74,8.91,2.74h1.91c3.29,0,6.36-1.01,8.91-2.74c2.12-1.43,4.97-0.01,4.97,2.55v0.08
	c0,8.8,7.2,16,16,16H304c8.8,0,16-7.2,16-16V341v-15V207.81v-154v-24V21v-3C320,9.2,312.8,2,304,2z"/>
<g>
	<polygon class="st2" points="98.76,205.9 97.77,206.54 95.09,208.18 94.06,208.82 91.38,210.5 90.38,211.11 87.74,212.75 
		86.71,213.42 84.07,215.03 83.03,215.67 80.36,217.35 79.32,217.95 76.68,219.63 75.65,220.27 73.01,221.91 72.01,222.56 
		69.34,224.23 68.3,224.84 65.66,226.51 64.63,227.16 61.95,228.76 60.92,229.44 58.28,231.08 57.24,231.72 54.6,233.36 
		53.61,234.04 49.9,236.29 50.18,244.64 53.86,242.32 54.89,241.71 57.53,240.03 58.56,239.39 61.2,237.75 62.27,237.11 
		64.88,235.43 65.91,234.83 68.59,233.19 69.59,232.51 72.26,230.9 73.3,230.22 75.94,228.58 76.97,227.94 79.61,226.3 
		80.64,225.66 83.28,224.02 84.32,223.38 86.99,221.7 87.99,221.09 90.67,219.42 91.7,218.77 94.34,217.1 95.34,216.49 
		98.01,214.81 99.05,214.17 102.72,211.89 102.47,203.61 	"/>
	<polygon class="st2" points="106.5,212 105.47,212.67 102.79,214.32 101.76,214.96 99.12,216.6 98.09,217.24 95.45,218.88 
		94.45,219.52 91.77,221.2 90.74,221.81 88.06,223.48 87.06,224.12 84.39,225.77 83.35,226.41 80.71,228.05 79.68,228.69 
		77.04,230.33 76.04,231.01 73.37,232.61 72.33,233.26 69.66,234.93 68.66,235.54 65.98,237.22 64.95,237.86 62.34,239.5 
		61.31,240.14 57.64,242.42 57.89,250.73 61.56,248.49 62.59,247.81 65.27,246.17 66.3,245.53 68.91,243.89 69.94,243.24 
		72.62,241.6 73.62,240.96 76.29,239.28 77.33,238.68 79.97,237 81,236.36 83.64,234.72 84.71,234.08 87.31,232.4 88.35,231.79 
		91.02,230.15 92.02,229.48 94.7,227.83 95.73,227.19 98.37,225.55 99.41,224.91 102.05,223.27 103.08,222.63 105.72,220.95 
		106.75,220.34 110.43,218.03 110.18,209.71 	"/>
	<polygon class="st3" points="49.9,236.29 57.64,242.42 57.89,250.73 50.18,244.64 	"/>
	<polygon class="st2" points="102.72,211.89 110.43,218.03 110.18,209.71 102.47,203.61 	"/>
	<polygon class="st4" points="49.9,236.29 57.64,242.42 110.18,209.71 102.47,203.61 	"/>
	<polygon class="st2" points="112.53,65.5 96.84,74.56 81.14,83.66 65.45,92.72 49.75,101.74 34.09,110.8 18.4,119.9 18.4,137.55 
		18.4,137.98 18.4,155.21 18.4,155.64 18.4,172.9 18.4,173.37 18.4,191.02 34.09,181.96 49.75,172.9 65.45,163.84 81.14,154.78 
		96.84,145.72 112.53,136.66 128.23,127.6 128.23,109.94 128.23,109.48 128.23,92.25 128.23,91.82 128.23,74.56 128.23,74.13 
		128.23,56.48 	"/>
	<polygon class="st2" points="79,167.45 74.79,169.83 74.79,173.62 74.79,174.65 74.79,177.36 74.79,178.4 74.79,181.14 
		74.79,182.18 74.79,184.85 74.79,185.89 74.79,188.6 74.79,189.67 74.79,192.38 74.79,193.41 74.79,196.12 74.79,197.16 
		74.79,199.9 74.79,200.94 74.79,203.65 74.79,204.68 74.79,207.36 74.79,208.47 74.79,211.14 74.79,212.18 74.79,214.89 
		74.79,215.92 74.79,218.63 74.79,219.7 74.79,223.45 79,225.84 83.14,223.45 83.14,219.7 83.14,218.63 83.14,215.92 83.14,214.89 
		83.14,212.18 83.14,211.14 83.14,208.47 83.14,207.36 83.14,204.68 83.14,203.65 83.14,200.94 83.14,199.9 83.14,197.16 
		83.14,196.12 83.14,193.41 83.14,192.38 83.14,189.67 83.14,188.6 83.14,185.89 83.14,184.85 83.14,182.18 83.14,181.14 
		83.14,178.4 83.14,177.36 83.14,174.65 83.14,173.62 83.14,169.83 	"/>
	<polygon class="st5" points="121.84,123.75 106.18,132.81 90.45,141.83 74.76,150.93 59.06,159.99 43.37,169.01 27.67,178.07 
		12.01,187.17 27.67,196.23 43.37,187.17 59.06,178.07 74.76,169.01 90.45,159.99 106.18,150.93 121.84,141.83 137.54,132.81 	"/>
	<polygon class="st6" points="12.01,187.17 12.01,205.26 27.67,214.35 27.67,196.23 	"/>
	<polygon class="st7" points="121.84,141.83 106.18,150.93 90.45,159.99 74.76,169.01 59.06,178.07 43.37,187.17 27.67,196.23 
		27.67,214.35 43.37,205.26 59.06,196.23 74.76,187.17 90.45,178.07 106.18,169.01 121.84,159.99 137.54,150.93 137.54,132.81 	"/>
	<polygon class="st8" points="18.4,125.6 18.4,191.02 21.32,192.59 21.32,127.28 	"/>
	<polygon class="st8" points="115.46,68.46 99.76,77.52 84.1,86.58 68.41,95.64 52.71,104.7 37.02,113.8 21.32,122.82 21.32,127.28 
		21.32,192.59 22.57,193.23 37.09,184.85 52.71,175.83 68.41,166.8 84.1,157.74 99.76,148.65 115.46,139.59 131.15,130.56 
		131.15,112.87 131.15,112.41 131.15,95.18 131.15,94.75 131.15,77.52 131.15,77.09 131.15,59.4 	"/>
	<polygon class="st9" points="111.57,78.13 97.69,86.12 83.78,94.14 69.87,102.2 55.96,110.23 42.08,118.26 28.17,126.25 
		28.17,130.21 28.17,188.1 29.28,188.67 42.16,181.25 55.96,173.22 69.87,165.2 83.78,157.21 97.69,149.18 111.57,141.16 
		125.48,133.09 125.48,117.44 125.48,117.08 125.48,101.78 125.48,101.42 125.48,86.12 125.48,85.76 125.48,70.1 	"/>
	<polygon class="st5" points="117.6,37.93 101.9,46.99 86.21,56.05 70.51,65.11 54.82,74.17 39.16,83.23 23.46,92.25 7.77,101.35 
		23.46,110.41 39.16,101.35 54.82,92.25 70.51,83.23 86.21,74.17 101.9,65.11 117.6,56.05 133.29,46.99 	"/>
	<polygon class="st6" points="7.77,101.35 7.77,119.47 23.46,128.53 23.46,110.41 	"/>
	<polygon class="st7" points="117.6,56.05 101.9,65.11 86.21,74.17 70.51,83.23 54.82,92.25 39.16,101.35 23.46,110.41 
		23.46,128.53 39.16,119.47 54.82,110.41 70.51,101.35 86.21,92.25 101.9,83.23 117.6,74.17 133.29,65.11 133.29,46.99 	"/>
	<polygon class="st2" points="185.73,60.88 185.73,86.89 208.24,99.87 208.24,73.87 	"/>
	<polygon class="st2" points="185.73,90.84 185.73,116.81 208.24,129.83 208.24,103.83 	"/>
	<polygon class="st2" points="211.31,75.61 211.31,101.65 233.81,114.64 233.81,88.63 	"/>
	<polygon class="st2" points="211.31,105.61 211.31,131.62 233.81,144.6 233.81,118.6 	"/>
	<polygon class="st2" points="265.92,105.61 265.92,131.62 288.42,144.6 288.42,118.6 	"/>
	<polygon class="st2" points="265.92,135.57 265.92,161.54 288.42,174.56 288.42,148.56 	"/>
	<polygon class="st2" points="291.49,120.34 291.49,146.35 314,159.33 314,133.33 	"/>
	<polygon class="st2" points="291.49,150.31 291.49,176.31 314,189.33 314,163.29 	"/>
	<path class="st2" d="M78.36,137.09c-9.02,5.21-16.41,2.1-16.41-6.92c0-9.02,7.38-20.65,16.41-25.83c9.02-5.21,16.41-2.1,16.41,6.92
		S87.42,131.88,78.36,137.09z M78.36,107.02c-7.56,4.35-13.73,14.05-13.73,21.65c0,7.6,6.14,10.17,13.73,5.81
		c7.6-4.35,13.73-14.05,13.73-21.65C92.09,105.24,85.92,102.63,78.36,107.02L78.36,107.02z"/>
	<polygon class="st2" points="86.07,116.29 73.22,116.29 73.22,131.1 	"/>
	<polygon class="st2" points="84.46,145.83 62.45,158.53 62.45,154.78 84.46,142.08 	"/>
	<polygon class="st2" points="93.66,140.55 85.92,145.01 85.92,141.23 93.66,136.77 	"/>
	<polygon class="st2" points="75.83,155.96 62.45,163.7 62.45,159.88 75.83,152.18 	"/>
	<polygon class="st2" points="99.66,142.23 77.36,155.1 77.36,151.29 99.66,138.45 	"/>
	<polygon class="st2" points="157.51,276.92 166,281.8 157.51,286.69 149.09,281.8 	"/>
	<polygon class="st10" points="166,281.8 166,291.58 166,300.57 166,301.35 166,310.34 166,320.11 157.51,325 157.51,315.23 
		157.51,306.24 157.51,305.45 157.51,296.46 157.51,286.69 	"/>
	<polygon class="st11" points="157.51,286.69 157.51,296.46 157.51,305.45 157.51,306.24 157.51,315.23 157.51,325 149.09,320.11 
		149.09,310.34 149.09,301.35 149.09,300.57 149.09,291.58 149.09,281.8 	"/>
	<polygon class="st2" points="121.02,251.91 129.48,256.8 121.02,261.69 112.57,256.8 	"/>
	<polygon class="st10" points="129.48,256.8 129.48,266.57 129.48,275.56 129.48,276.35 129.48,285.33 129.48,295.11 121.02,300 
		121.02,290.22 121.02,281.23 121.02,280.45 121.02,271.46 121.02,261.69 	"/>
	<polygon class="st11" points="121.02,261.69 121.02,271.46 121.02,280.45 121.02,281.23 121.02,290.22 121.02,300 112.57,295.11 
		112.57,285.33 112.57,276.35 112.57,275.56 112.57,266.57 112.57,256.8 	"/>
	<polygon class="st2" points="255.14,219.63 263.6,224.52 255.14,229.4 246.69,224.52 	"/>
	<polygon class="st10" points="263.6,224.52 263.6,234.29 263.6,243.28 263.6,244.06 263.6,253.05 263.6,262.83 255.14,267.71 
		255.14,257.94 255.14,248.95 255.14,248.17 255.14,239.18 255.14,229.4 	"/>
	<polygon class="st11" points="255.14,229.4 255.14,239.18 255.14,248.17 255.14,248.95 255.14,257.94 255.14,267.71 246.69,262.83 
		246.69,253.05 246.69,244.06 246.69,243.28 246.69,234.29 246.69,224.52 	"/>
	<polygon class="st11" points="103.15,244.6 103.15,255.84 157.51,287.19 157.51,275.95 	"/>
	<polygon class="st2" points="211.87,181.78 157.51,213.17 103.15,244.6 157.51,275.95 211.87,244.6 266.27,213.17 	"/>
	<polygon class="st10" points="211.87,244.6 157.51,275.95 157.51,287.19 211.87,255.84 266.27,224.45 266.27,213.17 	"/>
	<polygon class="st5" points="198.6,194.73 175.78,207.89 152.95,221.09 175.78,234.29 198.6,221.09 221.47,207.89 	"/>
	<polygon class="st6" points="152.95,221.09 152.95,236.11 175.78,249.27 175.78,234.29 	"/>
	<polygon class="st7" points="198.6,221.09 175.78,234.29 175.78,249.27 198.6,236.11 221.47,222.91 221.47,207.89 	"/>
	<path class="st12" d="M177.59,206.86c0,0,1.28-4.85,7.13-4.14L177.59,206.86z"/>
	<polygon class="st13" points="186.44,234.83 181.13,237.89 181.13,232.58 186.44,229.51 	"/>
	<polygon class="st13" points="193.97,230.47 188.65,233.54 188.65,228.26 193.97,225.19 	"/>
	<polygon class="st13" points="193.97,238 188.65,241.03 188.65,235.75 193.97,232.69 	"/>
	<polygon class="st13" points="217.12,217.1 199.92,227.05 199.92,221.73 217.12,211.82 	"/>
	<polygon class="st13" points="217.12,224.59 199.92,234.54 199.92,229.26 217.12,219.31 	"/>
	<polygon class="st13" points="186.44,242.32 181.13,245.38 181.13,240.11 186.44,237.04 	"/>
	
		<ellipse transform="matrix(0.9966 -0.0819 0.0819 0.9966 -17.3714 14.9091)" class="st13" cx="172.95" cy="219.09" rx="1.21" ry="0.68"/>
	
		<ellipse transform="matrix(0.9966 -0.0819 0.0819 0.9966 -17.7139 14.5543)" class="st13" cx="168.46" cy="223.08" rx="1.21" ry="0.68"/>
	
		<ellipse transform="matrix(0.9966 -0.0819 0.0819 0.9966 -17.4631 14.4591)" class="st13" cx="167.42" cy="219.98" rx="1.21" ry="0.68"/>
	
		<ellipse transform="matrix(0.9968 -0.0797 0.0797 0.9968 -17.1451 14.5838)" class="st13" cx="174.17" cy="222.12" rx="1.21" ry="0.68"/>
	
		<ellipse transform="matrix(0.9966 -0.0819 0.0819 0.9966 -17.5424 14.7346)" class="st13" cx="170.74" cy="221.08" rx="2" ry="1.14"/>
	<path class="st14" d="M190.47,230.58c2.85,4.03,6.6,7.21,9.81,10.88c1.75,2,3.32,4.14,4.32,6.63c1.21,2.96,1.39,6.14,1.32,9.35
		c-0.18,12.23-0.96,24.54,3.53,36.17c2.14,5.53,5.28,10.59,9.7,14.62c0.54,0.46,1.32-0.29,0.82-0.82
		c-8.88-8.13-12.27-20.19-12.95-31.85c-0.36-6.28,0.07-12.56,0.11-18.8c0.04-5.24-1.14-9.88-4.35-14.05
		c-3.46-4.53-8.03-8.03-11.31-12.7C191.04,229.44,190.08,230.01,190.47,230.58L190.47,230.58z"/>
	<path class="st14" d="M184.34,233.47c9.77,7.53,12.66,20.37,12.95,32.07c0.18,7.03-0.39,14.05-0.46,21.12
		c-0.07,6.14,0.18,12.56,2.64,18.33c2.18,5.17,6.17,9.56,11.63,11.27c0.71,0.21,1-0.86,0.29-1.07c-13.48-4.21-13.7-21.01-13.34-32.5
		c0.36-12.31,1.57-25.04-3.17-36.7c-2.14-5.28-5.42-9.99-9.92-13.48C184.37,232.08,183.8,233.04,184.34,233.47L184.34,233.47z"/>
	<path class="st14" d="M185.62,241.75c5.31-2.78,11.34,0.86,13.84,5.71c2.89,5.53,2.6,12.13,2.39,18.19
		c-0.18,6.28,0.04,12.31,1.61,18.41c1.28,5.28,2.96,10.52,5.07,15.55c1.96,4.53,4.78,8.77,9.56,10.59c0.68,0.25,0.96-0.86,0.29-1.07
		c-5.21-1.96-7.88-7.24-9.74-12.16c-2.1-5.71-4.03-11.63-5.07-17.59c-1.21-6.99-0.25-13.98-0.57-21.05
		c-0.21-5.07-1.21-10.49-4.67-14.38c-3.25-3.71-8.81-5.46-13.34-3.07C184.41,241.1,184.98,242.07,185.62,241.75L185.62,241.75z"/>
	<path class="st14" d="M189.33,238.18c5.21,0.29,7.46,6.28,7.99,10.74c0.82,6.38,0.04,12.84-0.43,19.26
		c-0.43,5.99-0.54,12.02,0.86,17.94c1.32,5.67,3.75,11.06,6.1,16.37c1.93,4.32,4.53,9.17,9.56,10.34c0.71,0.14,1-0.93,0.29-1.07
		c-5.24-1.21-7.56-6.85-9.52-11.31c-2.57-5.78-5.03-11.66-5.99-17.94c-0.96-6.53-0.25-13.09,0.21-19.62
		c0.39-5.6,0.96-11.7-0.61-17.19c-1.14-4.14-3.82-8.38-8.53-8.63C188.58,237.04,188.58,238.14,189.33,238.18L189.33,238.18z"/>
	<polygon class="st14" points="225.43,304.42 205.27,317.47 211.2,320.68 231.28,307.41 	"/>
	<polygon class="st14" points="205.27,317.47 205.27,321.54 211.2,325 211.2,320.68 	"/>
	<polygon class="st14" points="231.28,307.41 231.28,311.45 211.2,325 211.2,320.68 	"/>
	<path class="st14" d="M184.73,231.94c-1,0.14-2.03,0.75-1.96,1.89c0.07,1.03,1.28,1.5,2.18,1.11c0.54-0.21,0.57-0.75,0.64-1.25
		c0.07-0.54,0.11-0.96-0.43-1.18c-0.89-0.29-1.89,0.07-2.39,0.86c-0.25,0.36-0.32,0.86-0.18,1.25c0.25,0.43,0.86,0.46,1.28,0.43
		c0.43,0,0.86-0.29,1-0.75c0.11-0.54-0.14-1.03-0.61-1.28c-1.14-0.64-1.61,1.21-1.11,1.96c0.29,0.43,0.96,0.54,1.43,0.46
		c0.54,0,0.96-0.29,1.18-0.75c0.61-1.25-1.07-1.93-2.03-1.64c-0.54,0.11-0.86,0.61-0.86,1.11c0.07,0.68,0.71,1,1.28,1.07l0.14-1.11
		c-0.18,0-0.61-0.04-0.68-0.21c0.04-0.21,0.14-0.43,0.36-0.57c0.71-0.07,0.71-1.21,0-1.11c-0.82,0.11-1.43,0.82-1.53,1.64
		c-0.07,0.93,1,1.39,1.78,1.39c0.64,0,0.82-1,0.14-1.11c-0.04,0-0.39-0.11-0.43-0.11l-0.07,0.14l0.07-0.04
		c0.14,0.04,0.57-0.14,0.68,0.04c0.07,0.14-0.25,0.11-0.36,0.11c-0.11,0-0.32-0.07-0.25,0.04c0-0.18,0-0.32,0.04-0.54l-0.36,0.21
		c0.07-0.11,0.07-0.14,0-0.14s-0.18,0-0.25,0l0,0c0.11,0.21,0.18,0.25,0.21,0.14c0.04-0.04,0.07-0.14,0.14-0.21
		c0.21-0.25,0.71-0.46,1.03-0.29l-0.25-0.32c0,0.25-0.04,0.54-0.11,0.75c0.14-0.07,0.11-0.11-0.04-0.07h-0.14
		c-0.11,0-0.29,0-0.32-0.07c-0.11-0.18,0.11-0.43,0.21-0.54c0.25-0.14,0.61-0.25,0.89-0.29
		C185.76,232.86,185.48,231.79,184.73,231.94L184.73,231.94z"/>
	<path class="st14" d="M191.01,230.01c-0.07-0.04-0.14-0.04-0.25-0.04c0.04,0.07,0.07,0.11,0.11,0.18c0.04,0,0.11-0.14,0.11-0.18
		c0.07-0.11,0.29-0.39,0.39-0.32c0.07,0.07,0.07,0.21,0,0.29h-0.04c-0.14,0.11-0.11-0.07-0.07,0.18c0,0.11,0,0.18,0.04,0.11
		l0.04-0.04c0-0.04,0.04-0.04,0.04-0.04c0.14-0.07,0.07-0.18-0.29-0.32l0.14-0.25c-0.07,0.07-0.21,0.11-0.29,0.14
		c-0.07,0.04-0.11-0.04-0.07,0.04c-0.36-0.64-1.36-0.04-0.96,0.57c0.29,0.43,0.86,0.68,1.32,0.46c0.46-0.11,1.07-0.43,1-1.03
		c-0.21-1.25-2.1-0.68-2.03,0.43c0.07,0.54,0.54,0.93,1.07,0.89c0.54,0,1-0.32,1.18-0.82c0.29-0.64,0-1.36-0.64-1.68
		c-0.32-0.14-0.75-0.14-1.11,0.04c-0.54,0.29-0.89,0.82-1,1.39c-0.04,0.61,0.43,0.96,1,1.03c0.29,0.07,0.61-0.11,0.71-0.39
		C191.47,230.4,191.33,230.12,191.01,230.01L191.01,230.01z"/>
	<path class="st14" d="M184.73,240.14c-0.32,0.07-0.64,0.25-0.82,0.54c-0.14,0.25-0.18,0.57-0.11,0.86
		c0.18,0.57,0.78,0.89,1.32,0.75l0,0c0.07-0.04,0.11-0.04,0.18-0.07c0.57-0.32,0.78-1.03,0.46-1.61c-0.32-0.57-1-0.78-1.61-0.57
		c-0.29,0.07-0.46,0.39-0.39,0.71c0.07,0.29,0.39,0.46,0.71,0.36c0,0,0.18-0.07,0.07-0.04h0.11c-0.07,0,0.07,0.04,0.04,0
		c0,0,0.14,0.07,0.07,0.04c-0.07-0.04,0-0.04,0,0s0.04,0.04,0,0l0,0l0,0c-0.04,0.11,0.04-0.04-0.04,0.07c0.04-0.04-0.04,0,0,0h0.11
		c-0.04-0.04-0.04,0,0,0c-0.04-0.11,0,0.07-0.04-0.07c0,0,0.04,0.11,0,0.04c0-0.07,0,0.07,0,0.07s-0.14,0.04,0.04,0
		c-0.07,0,0.14-0.04,0.11-0.04c0.29-0.11,0.43-0.39,0.36-0.71c-0.07-0.29-0.39-0.46-0.71-0.36L184.73,240.14z"/>
	<path class="st14" d="M183.98,240.32c-0.68-0.07-1.28,0.29-1.61,0.89c-0.18,0.32-0.18,0.71-0.07,1.03
		c0.18,0.32,0.57,0.54,0.93,0.46c0.61,0.04,1.36-0.14,1.57-0.82c0.11-0.36,0-0.78-0.32-1c-0.32-0.21-0.78-0.11-1.14-0.04l0.46,0.86
		c0.14-0.21,0.36-0.25,0.61-0.39c0.32-0.18,0.43-0.61,0.29-0.93c-0.32-0.61-1.32-0.43-1.78-0.04c-0.43,0.43-0.46,1.14-0.11,1.68
		c0.43,0.54,1.14,0.68,1.78,0.39c0.29-0.11,0.43-0.39,0.36-0.71c-0.07-0.29-0.39-0.43-0.71-0.36c-0.14,0.07-0.54,0.18-0.64-0.04
		c-0.04-0.07,0-0.14,0.07-0.18l0,0c0.04,0,0.07,0,0.11,0l-0.21-0.18l0.04,0.04l-0.07-0.29v0.07l0.07-0.29
		c0.14-0.11,0.18-0.11,0.04-0.07l-0.14,0.07c-0.11,0.04-0.21,0.11-0.29,0.18c-0.18,0.14-0.32,0.32-0.46,0.54
		c-0.14,0.25-0.07,0.61,0.18,0.78l0,0c0.07,0.04,0.18,0.07,0.29,0.07c0.25-0.04,0.54-0.07,0.78-0.07l-0.29-0.07
		c-0.14-0.14-0.14-0.25-0.04-0.32l-0.07,0.04c-0.04,0-0.07,0-0.11,0.04c-0.07,0-0.18,0-0.25,0h-0.18c0.11,0.21,0.14,0.29,0.18,0.18
		c0.04-0.11,0.11-0.21,0.21-0.29c0.11-0.07,0.25-0.11,0.39-0.07c0.29,0,0.57-0.25,0.57-0.57
		C184.51,240.6,184.3,240.32,183.98,240.32L183.98,240.32z"/>
	<path class="st14" d="M190.22,238.04c0.18-0.07,0.39-0.07,0.64-0.11c0.07,0,0.25,0.04,0.32,0c0.11,0.04,0.11,0,0-0.11
		c-0.04-0.04-0.04-0.07-0.07-0.11l0.04-0.04c-0.04,0-0.11,0-0.14,0c-0.07,0-0.14-0.04-0.21-0.04c-0.21,0,0.04-0.18,0,0.18
		l-0.07,0.29c0.11-0.11,0.21-0.21,0.36-0.29c0.04-0.04,0.18-0.04,0.14-0.04v-0.07c0.14-0.18,0.14-0.21,0-0.18
		c-0.11,0-0.18,0-0.29,0.04h-0.29c-0.11,0-0.32-0.11-0.18,0.04l0.14,0.25l-0.04-0.07v0.29c0-0.07,0.14-0.21,0.21-0.21
		c0.75,0,0.75-1.11,0-1.11c-0.54,0.04-0.96,0.32-1.18,0.78c-0.32,0.57,0.04,1.03,0.64,1.14c0.57,0.11,1.14,0.07,1.68-0.11
		c0.43-0.25,0.64-0.82,0.39-1.25v-0.04c-0.25-0.43-0.78-0.68-1.28-0.57c-0.46,0.11-0.93,0.39-1.18,0.86
		c-0.61,1.14,1.53,1.57,2.18,0.96c0.39-0.36,0.46-0.96,0.11-1.39l-0.04-0.04c-0.46-0.43-1.43-0.29-2-0.11
		C189.26,237.14,189.54,238.21,190.22,238.04L190.22,238.04z"/>
	<polygon class="st2" points="309.18,225.94 312.75,228.19 312.75,231.87 309.18,229.48 	"/>
	<path class="st14" d="M226.86,309.59c17.84-4.74,34.99-13.84,48.3-26.72c2.64-2.53,5.24-5.85,4.57-9.74
		c-0.75-4.1-4.85-6.88-4.74-11.24c0.14-5.46,5.28-8.7,9.6-10.92c4.96-2.6,9.99-5.14,14.95-7.7c3.14-1.64,6.96-3.07,9.35-5.85
		c0.71-0.86,1.03-1.5,0.89-2.5c-0.11-0.75-0.29-1.43-0.32-2.18c-0.04-0.36-0.04-0.75-0.04-1.11c0.04-0.54,0.57-2.07,1.36-1.75
		c0.68,0.29,1.21-0.68,0.57-0.96c-0.78-0.32-1.82,0.14-2.35,0.71c-0.82,0.82-0.75,2.07-0.68,3.14c0.07,0.86,0.64,2.14,0.46,2.96
		c-0.21,1.36-2.78,2.82-3.85,3.5c-3.96,2.5-8.38,4.35-12.56,6.53c-4.46,2.28-9.38,4.28-13.34,7.35c-3.1,2.35-5.67,6.1-5.1,10.17
		c0.61,4.24,5.14,7.24,4.74,11.74c-0.39,4.89-5.81,8.63-9.24,11.52c-3.89,3.21-7.95,6.14-12.23,8.81
		c-9.49,5.92-19.8,10.38-30.64,13.23c-0.29,0.07-0.46,0.39-0.39,0.71C226.25,309.55,226.53,309.7,226.86,309.59L226.86,309.59z"/>
	<path class="st14" d="M311.07,228.62C311.11,228.65,311.11,228.62,311.07,228.62l0.07,0.25v-0.04l-0.14,0.39l0,0l-0.25,0.14h0.11
		c0.04,0.04,0.07,0.04,0.04,0c-0.07-0.07-0.07-0.18,0-0.25c-0.07-0.18-0.04-0.29,0.11-0.32c0.04,0,0.07,0,0.14,0
		c-0.04-0.04-0.07-0.04-0.07-0.07c0.04,0.04,0,0-0.04-0.04v0.14l-0.14,0.25c-0.21,0.07-0.25,0.11-0.11,0.07H311
		c0-0.04-0.07-0.04-0.07-0.07c-0.11-0.18,0.07-0.54,0.29-0.43c-0.29-0.07-0.64,0.11-0.71,0.39c-0.07,0.29,0.11,0.64,0.39,0.71l0,0
		c0.43,0.14,0.93-0.11,1.03-0.57c0,0,0,0,0-0.04c0.11-0.43-0.14-0.93-0.64-1.03c-0.39-0.14-0.89-0.11-1.21,0.14
		c-0.36,0.36-0.21,0.96,0.11,1.25c0.29,0.32,0.75,0.46,1.18,0.32c0.36-0.14,0.61-0.61,0.43-0.96l0,0c-0.04-0.07-0.07-0.14-0.11-0.18
		c-0.25-0.32-0.71-0.46-1.11-0.39c-0.25,0-0.46,0.18-0.57,0.43c-0.04,0.25,0.04,0.57,0.21,0.75c0.21,0.21,0.57,0.21,0.78,0l0,0
		C311.29,229.23,311.29,228.87,311.07,228.62L311.07,228.62z"/>
	<path class="st15" d="M60.81,188.49L33.27,204.4c1-0.61,3.6,5.24,3.75,5.71c1.64,4.74,1.57,9.92,0.57,14.77
		c-0.75,3.6-0.93,6.92,1.57,9.95c0.11,0.14,0.25,0.25,0.39,0.29c0.11,0,0.21-0.07,0.32-0.14c7.49-4.92,15.16-9.6,22.76-14.34
		c1.75-1.07-0.29-6.24-0.18-8.1c0.32-4.24,2.32-8.1,2.07-12.45C64.27,196.02,62.99,192.02,60.81,188.49z"/>
	<polygon class="st2" points="31.49,206.18 62.99,188.03 62.99,185.46 31.49,203.65 	"/>
	<path class="st16" d="M39.84,206.97l5.46-3c0.64-0.32,0.07-1.32-0.57-0.96l-5.46,3C38.59,206.33,39.16,207.29,39.84,206.97z"/>
	<path class="st16" d="M40.91,209.93l5.67-2.68c0.68-0.29,0.07-1.28-0.57-0.96l-5.67,2.68C39.62,209.29,40.23,210.25,40.91,209.93z"
		/>
	<path class="st16" d="M41.62,213.71c3.6-2.14,7.35-4.03,11.24-5.64c0.68-0.29,0.36-1.36-0.29-1.07c-3.96,1.64-7.81,3.57-11.49,5.74
		c-0.25,0.14-0.36,0.46-0.21,0.78C41.01,213.78,41.33,213.85,41.62,213.71L41.62,213.71z"/>
	<path class="st16" d="M42.41,216.56l5.85-2.71c0.68-0.29,0.07-1.25-0.57-0.96l-5.89,2.75C41.16,215.89,41.76,216.85,42.41,216.56
		L42.41,216.56z"/>
	<path class="st16" d="M42.65,220.2c3.17-2.1,6.53-4.03,9.92-5.78c0.68-0.32,0.07-1.28-0.57-0.96c-3.39,1.75-6.74,3.67-9.92,5.78
		C41.48,219.59,42.05,220.59,42.65,220.2z"/>
	<path class="st16" d="M40.91,225.05c4-1.68,7.56-4.1,11.41-6.03c0.64-0.32,0.07-1.28-0.57-0.96c-3.75,1.89-7.21,4.28-11.09,5.92
		C39.94,224.27,40.23,225.34,40.91,225.05z"/>
	<path class="st16" d="M43.97,227.19c-0.32-1.07-1.25-1.82-2.35-1.18c-0.96,0.57-1.53,1.85-1.5,2.92c-0.04,1.07,0.68,2.03,1.68,2.39
		c0.46,0.18,1.03,0.18,1.57,0.04c0.57-0.21,0.75-0.96,0.96-1.53c0.25-0.68-0.86-0.96-1.07-0.29c-0.21,0.57-0.46,0.89-1.11,0.68
		c-0.54-0.21-0.86-0.71-0.86-1.25c0-0.46,0.11-0.96,0.32-1.36c0.29-0.54,1.03-1,1.25-0.14c0.07,0.29,0.39,0.46,0.71,0.39
		C43.87,227.76,44.08,227.48,43.97,227.19L43.97,227.19z"/>
	<path class="st16" d="M47.36,225.94c0.11-1.11-1.03-1.71-2.03-1.57c-1.07,0.18-1.14,1.68-1.21,2.53c-0.07,0.86,0.18,2.14,1.07,2.64
		c0.89,0.46,1.89-0.11,2.28-0.93c0.32-0.64-0.64-1.21-0.96-0.57c-0.18,0.36-0.61,0.75-0.96,0.32c-0.21-0.36-0.32-0.78-0.29-1.21
		c0-0.39,0.07-0.82,0.18-1.21c0-0.14,0.04-0.29,0.11-0.43c0.18-0.18,0.71,0.32,0.71,0.39C46.15,226.62,47.26,226.62,47.36,225.94z"
		/>
</g>
</svg>
