<?xml version="1.0" encoding="utf-8"?>
<!-- Generator: Adobe Illustrator 23.0.0, SVG Export Plug-In . SVG Version: 6.00 Build 0)  -->
<svg version="1.1" id="Layer_1" xmlns="http://www.w3.org/2000/svg" xmlns:xlink="http://www.w3.org/1999/xlink" x="0px" y="0px"
	 viewBox="0 0 1125 1852.3" style="enable-background:new 0 0 1125 1852.3;" xml:space="preserve">
<style type="text/css">
	.st0{opacity:0.25;}
	.st1{fill:none;stroke:#F36F38;stroke-width:5;stroke-miterlimit:10;}
	
		.st2{opacity:0.25;fill:none;stroke:#F36F38;stroke-width:5;stroke-linecap:round;stroke-linejoin:round;enable-background:new    ;}
	.st3{fill:none;stroke:#F36F38;stroke-width:5;stroke-linecap:round;stroke-linejoin:round;}
	.st4{fill:none;stroke:#F36F38;stroke-width:5;stroke-linecap:round;stroke-linejoin:round;stroke-dasharray:22.1,22.1;}
	.st5{fill:none;stroke:#F36F38;stroke-width:5;stroke-linecap:round;stroke-linejoin:round;stroke-dasharray:23.97,23.97;}
	.st6{fill:url(#SVGID_1_);}
	.st7{fill:#582841;}
	.st8{fill:#994776;}
	.st9{fill:#6D3254;}
	.st10{fill:#CC2A49;}
	.st11{fill:#E22D59;}
	.st12{fill:#BC284B;}
	.st13{fill:#77375B;}
	.st14{opacity:0.75;fill:#F99E4C;enable-background:new    ;}
	.st15{fill:#3A1B2D;}
	.st16{fill:#723558;}
	.st17{fill:#A0274F;}
	.st18{fill:#751D3F;}
	.st19{fill:#421326;}
	.st20{fill:#F99E4C;}
	.st21{fill:#F36F38;}
</style>
<title>mainBackgroundMobile</title>
<g class="st0">
	<polygon class="st1" points="268.6,941.1 187.3,1081.9 349.9,1081.9 	"/>
	<polygon class="st1" points="770.8,1164.1 915.5,913.5 626.2,913.5 	"/>
</g>
<circle class="st2" cx="1002.9" cy="1348" r="62.1"/>
<g class="st0">
	<polyline class="st3" points="465.3,1329.7 453.7,1332.8 450.6,1344.4 	"/>
	<line class="st4" x1="444.9" y1="1365.8" x2="402" y2="1525.8"/>
	<polyline class="st3" points="399.1,1536.5 396,1548.1 407.6,1545 	"/>
	<line class="st4" x1="429" y1="1539.3" x2="589" y2="1496.4"/>
	<polyline class="st3" points="599.7,1493.5 611.3,1490.4 614.4,1478.8 	"/>
	<line class="st4" x1="620.1" y1="1457.5" x2="663" y2="1297.4"/>
	<polyline class="st3" points="665.9,1286.7 669,1275.2 657.4,1278.3 	"/>
	<line class="st4" x1="636" y1="1284" x2="476" y2="1326.9"/>
	<polyline class="st3" points="407.6,1545 396,1548.1 404.5,1556.6 	"/>
	<line class="st4" x1="420.1" y1="1572.2" x2="537.3" y2="1689.4"/>
	<polyline class="st3" points="545.1,1697.2 553.6,1705.7 565.2,1702.6 	"/>
	<line class="st4" x1="586.5" y1="1696.9" x2="746.6" y2="1654"/>
	<polyline class="st3" points="757.3,1651.1 768.9,1648 760.4,1639.5 	"/>
	<line class="st4" x1="744.8" y1="1623.9" x2="627.6" y2="1506.7"/>
	<polyline class="st3" points="619.8,1498.9 611.3,1490.4 599.7,1493.5 	"/>
	<line class="st4" x1="578.4" y1="1499.2" x2="418.3" y2="1542.1"/>
	<polyline class="st3" points="614.4,1478.8 611.3,1490.4 619.8,1498.9 	"/>
	<line class="st4" x1="635.4" y1="1514.5" x2="752.6" y2="1631.7"/>
	<polyline class="st3" points="760.4,1639.5 768.9,1648 772,1636.4 	"/>
	<line class="st4" x1="777.7" y1="1615.1" x2="820.6" y2="1455"/>
	<polyline class="st3" points="823.5,1444.3 826.6,1432.7 818.1,1424.3 	"/>
	<line class="st4" x1="802.5" y1="1408.6" x2="685.3" y2="1291.4"/>
	<polyline class="st3" points="677.5,1283.6 669,1275.2 665.9,1286.7 	"/>
	<line class="st4" x1="660.2" y1="1308.1" x2="617.3" y2="1468.2"/>
</g>
<g class="st0">
	<polyline class="st3" points="224.4,1301.8 221.3,1290.2 209.6,1287.1 	"/>
	<line class="st5" x1="186.5" y1="1280.9" x2="151.8" y2="1271.6"/>
	<polyline class="st3" points="140.2,1268.5 128.6,1265.3 131.7,1276.9 	"/>
	<line class="st5" x1="137.9" y1="1300.1" x2="147.2" y2="1334.8"/>
	<polyline class="st3" points="150.3,1346.4 153.4,1358 165,1361.1 	"/>
	<line class="st5" x1="188.2" y1="1367.3" x2="222.9" y2="1376.6"/>
	<polyline class="st3" points="234.5,1379.7 246.1,1382.8 243,1371.2 	"/>
	<line class="st5" x1="236.8" y1="1348.1" x2="227.4" y2="1313.3"/>
	<polyline class="st3" points="131.7,1276.9 128.6,1265.3 120.1,1273.8 	"/>
	<line class="st5" x1="103.2" y1="1290.8" x2="77.7" y2="1316.2"/>
	<polyline class="st3" points="69.3,1324.7 60.8,1333.2 63.9,1344.8 	"/>
	<line class="st5" x1="70.1" y1="1367.9" x2="79.4" y2="1402.7"/>
	<polyline class="st3" points="82.5,1414.2 85.6,1425.8 94.1,1417.3 	"/>
	<line class="st5" x1="111" y1="1400.4" x2="136.5" y2="1375"/>
	<polyline class="st3" points="144.9,1366.5 153.4,1358 150.3,1346.4 	"/>
	<line class="st5" x1="144.1" y1="1323.3" x2="134.8" y2="1288.5"/>
	<polyline class="st3" points="165,1361.1 153.4,1358 144.9,1366.5 	"/>
	<line class="st5" x1="128" y1="1383.4" x2="102.6" y2="1408.9"/>
	<polyline class="st3" points="94.1,1417.3 85.6,1425.8 97.2,1428.9 	"/>
	<line class="st5" x1="120.3" y1="1435.1" x2="155.1" y2="1444.4"/>
	<polyline class="st3" points="166.7,1447.5 178.3,1450.7 186.7,1442.2 	"/>
	<line class="st5" x1="203.7" y1="1425.2" x2="229.1" y2="1399.8"/>
	<polyline class="st3" points="237.6,1391.3 246.1,1382.8 234.5,1379.7 	"/>
	<line class="st5" x1="211.3" y1="1373.5" x2="176.6" y2="1364.2"/>
</g>
<linearGradient id="SVGID_1_" gradientUnits="userSpaceOnUse" x1="-5.366162e-06" y1="1178" x2="1127.1" y2="1178" gradientTransform="matrix(1 0 0 -1 0 1852)">
	<stop  offset="3.000000e-02" style="stop-color:#CC2A49"/>
	<stop  offset="1" style="stop-color:#F36F38"/>
</linearGradient>
<path class="st6" d="M3,0v140H2.7v258.2C0.9,405.7,0,413.3,0,421v492.5c0,54.8,44.8,99.5,99.5,99.5l0,0c20.6,0,40.6-6.4,57.4-18.3
	l0,0c3.3-2.3,6.4-4.8,9.3-7.5l1.2-0.9c66-47.5,158.1,0.2,158.1,81.5v27.1c0,54.8,44.8,99.5,99.5,99.5l0,0
	c54.7,0,99.5-44.8,99.5-99.5v-26.6c0-65,68.2-108,126.5-79.3l1.9,0.9c7.1,5.9,14.9,10.8,23.4,14.5c12.6,5.6,26.3,8.5,40.1,8.5l0,0
	c13.8,0,27.5-2.9,40.1-8.5c10-4.4,19.2-10.5,27.2-17.8l2.1-1.1c65-33.3,142.2,14.6,142.2,87.6v175.2c0,54.8,44.8,99.5,99.5,99.5l0,0
	c54.8,0,99.5-44.8,99.5-99.5V0H3z"/>
<g>
	<polygon class="st7" points="332.3,635.9 329.6,637.6 322.4,642.1 319.6,643.8 312.4,648.3 309.7,650 302.5,654.4 299.7,656.2 
		292.6,660.6 289.8,662.3 282.6,666.8 279.8,668.5 272.7,673 269.9,674.7 262.7,679.2 260,680.9 252.8,685.4 250,687.1 242.9,691.6 
		240.1,693.3 232.9,697.7 230.1,699.5 223,703.9 220.2,705.7 213,710.1 210.3,711.9 200.3,718 201.1,740.5 211,734.3 213.8,732.6 
		220.9,728.1 223.7,726.4 230.9,721.9 233.7,720.2 240.8,715.7 243.6,714 250.8,709.6 253.5,707.8 260.7,703.4 263.5,701.6 
		270.6,697.2 273.4,695.4 280.6,691 283.4,689.3 290.5,684.8 293.3,683.1 300.5,678.6 303.2,676.9 310.4,672.4 313.2,670.7 
		320.4,666.2 323.1,664.5 330.3,660 333.1,658.3 343,652.1 342.3,629.7 	"/>
	<polygon class="st7" points="353.2,652.4 350.4,654.2 343.2,658.6 340.4,660.4 333.3,664.8 330.5,666.5 323.3,671 320.6,672.7 
		313.4,677.2 310.6,678.9 303.4,683.4 300.7,685.1 293.5,689.6 290.7,691.3 283.6,695.7 280.8,697.5 273.6,701.9 270.9,703.7 
		263.7,708.1 260.9,709.8 253.7,714.3 251,716 243.8,720.5 241,722.2 233.9,726.7 231.1,728.4 221.2,734.6 221.9,757 231.8,750.9 
		234.6,749.1 241.8,744.7 244.6,742.9 251.7,738.5 254.5,736.8 261.7,732.3 264.4,730.6 271.6,726.1 274.4,724.4 281.5,719.9 
		284.3,718.2 291.5,713.7 294.3,712 301.4,707.5 304.2,705.8 311.4,701.4 314.1,699.6 321.3,695.2 324.1,693.4 331.2,689 334,687.3 
		341.2,682.8 344,681.1 351.1,676.6 353.9,674.9 363.8,668.7 363.1,646.2 	"/>
	<polygon class="st8" points="200.3,718 221.2,734.6 221.9,757 201.1,740.5 	"/>
	<polygon class="st7" points="343,652.1 363.8,668.7 363.1,646.2 342.3,629.7 	"/>
	<polygon class="st9" points="200.3,718 221.2,734.6 363.1,646.2 342.3,629.7 	"/>
	<polygon class="st7" points="369.5,256.7 327.1,281.2 284.7,305.7 242.3,330.2 199.9,354.6 157.6,379.1 115.2,403.6 115.2,451.3 
		115.2,452.5 115.2,499 115.2,500.2 115.2,546.8 115.2,548 115.2,595.7 157.6,571.3 199.9,546.8 242.3,522.3 284.7,497.8 
		327.1,473.4 369.5,448.9 411.9,424.4 411.9,376.7 411.9,375.5 411.9,329 411.9,327.8 411.9,281.2 411.9,280 411.9,232.3 	"/>
	<polygon class="st7" points="278.9,532 267.6,538.5 267.6,548.7 267.6,551.5 267.6,558.8 267.6,561.6 267.6,569 267.6,571.8 
		267.6,579.1 267.6,581.9 267.6,589.2 267.6,592.1 267.6,599.4 267.6,602.2 267.6,609.5 267.6,612.3 267.6,619.7 267.6,622.5 
		267.6,629.8 267.6,632.6 267.6,639.9 267.6,642.8 267.6,650.1 267.6,652.9 267.6,660.2 267.6,663 267.6,670.3 267.6,673.2 
		267.6,683.3 278.9,689.8 290.1,683.3 290.1,673.2 290.1,670.3 290.1,663 290.1,660.2 290.1,652.9 290.1,650.1 290.1,642.8 
		290.1,639.9 290.1,632.6 290.1,629.8 290.1,622.5 290.1,619.7 290.1,612.3 290.1,609.5 290.1,602.2 290.1,599.4 290.1,592.1 
		290.1,589.2 290.1,581.9 290.1,579.1 290.1,571.8 290.1,569 290.1,561.6 290.1,558.8 290.1,551.5 290.1,548.7 290.1,538.5 	"/>
	<polygon class="st10" points="394.6,414 352.3,438.5 309.9,462.9 267.5,487.4 225.1,511.9 182.7,536.3 140.3,560.8 98,585.3 
		140.3,609.8 182.7,585.3 225.1,560.8 267.5,536.3 309.9,511.9 352.3,487.4 394.6,462.9 437,438.5 	"/>
	<polygon class="st11" points="98,585.3 98,634.2 140.3,658.7 140.3,609.8 	"/>
	<polygon class="st12" points="394.6,462.9 352.3,487.4 309.9,511.9 267.5,536.3 225.1,560.8 182.7,585.3 140.3,609.8 140.3,658.7 
		182.7,634.2 225.1,609.8 267.5,585.3 309.9,560.8 352.3,536.3 394.6,511.9 437,487.4 437,438.5 	"/>
	<polygon class="st13" points="115.2,419 115.2,595.7 123.1,600 123.1,423.6 	"/>
	<polygon class="st13" points="377.4,264.7 335,289.2 292.7,313.6 250.3,338.1 207.9,362.6 165.5,387.1 123.1,411.5 123.1,423.6 
		123.1,600 126.5,601.7 165.7,579.1 207.9,554.7 250.3,530.3 292.7,505.8 335,481.3 377.4,456.8 419.8,432.4 419.8,384.6 
		419.8,383.4 419.8,336.9 419.8,335.7 419.8,289.2 419.8,288 419.8,240.2 	"/>
	<polygon class="st14" points="366.9,290.8 329.4,312.4 291.8,334.1 254.3,355.8 216.7,377.5 179.2,399.2 141.6,420.8 141.6,431.5 
		141.6,587.8 144.6,589.4 179.4,569.3 216.7,547.7 254.3,526 291.8,504.4 329.4,482.7 366.9,461 404.5,439.3 404.5,397 404.5,396 
		404.5,354.7 404.5,353.7 404.5,312.4 404.5,311.4 404.5,269.1 	"/>
	<polygon class="st10" points="383.2,182.2 340.8,206.7 298.4,231.2 256,255.6 213.6,280.1 171.3,304.6 128.9,329 86.5,353.5 
		128.9,378 171.3,353.5 213.6,329 256,304.6 298.4,280.1 340.8,255.6 383.2,231.2 425.6,206.7 	"/>
	<polygon class="st11" points="86.5,353.5 86.5,402.5 128.9,426.9 128.9,378 	"/>
	<polygon class="st12" points="383.2,231.2 340.8,255.6 298.4,280.1 256,304.6 213.6,329 171.3,353.5 128.9,378 128.9,426.9 
		171.3,402.5 213.6,378 256,353.5 298.4,329 340.8,304.6 383.2,280.1 425.6,255.6 425.6,206.7 	"/>
	<polygon class="st7" points="692.7,307 692.7,377.2 753.5,412.3 753.5,342.1 	"/>
	<polygon class="st7" points="692.7,387.9 692.7,458.1 753.5,493.2 753.5,423 	"/>
	<polygon class="st7" points="761.8,346.8 761.8,417.1 822.6,452.2 822.6,381.9 	"/>
	<polygon class="st7" points="761.8,427.8 761.8,498 822.6,533.1 822.6,462.9 	"/>
	<polygon class="st7" points="909.3,427.8 909.3,498 970.1,533.1 970.1,462.9 	"/>
	<polygon class="st7" points="909.3,508.7 909.3,578.9 970.1,614 970.1,543.8 	"/>
	<polygon class="st7" points="978.4,467.6 978.4,537.8 1039.2,572.9 1039.2,502.7 	"/>
	<polygon class="st7" points="978.4,548.5 978.4,618.8 1039.2,653.9 1039.2,583.6 	"/>
	<path class="st7" d="M277.2,450.1c-24.4,14.1-44.3,5.7-44.3-18.7s19.9-55.8,44.3-69.8c24.4-14.1,44.3-5.7,44.3,18.7
		C321.5,404.7,301.7,436,277.2,450.1z M277.2,368.8c-20.4,11.8-37.1,38-37.1,58.5s16.6,27.5,37.1,15.7s37.1-38,37.1-58.5
		C314.3,364,297.6,357,277.2,368.8L277.2,368.8z"/>
	<polygon class="st7" points="298,393.9 263.3,393.9 263.3,433.9 	"/>
	<polygon class="st7" points="293.7,473.7 234.2,508 234.2,497.8 293.7,463.5 	"/>
	<polygon class="st7" points="318.5,459.4 297.6,471.4 297.6,461.2 318.5,449.2 	"/>
	<polygon class="st7" points="270.4,501 234.2,521.9 234.2,511.6 270.4,490.8 	"/>
	<polygon class="st7" points="334.7,463.9 274.5,498.7 274.5,488.4 334.7,453.7 	"/>
	<polygon class="st7" points="491,827.7 513.9,840.9 491,854.1 468.2,840.9 	"/>
	<polygon class="st15" points="513.9,840.9 513.9,867.3 513.9,891.6 513.9,893.7 513.9,918 513.9,944.4 491,957.6 491,931.2 
		491,906.9 491,904.8 491,880.5 491,854.1 	"/>
	<polygon class="st16" points="491,854.1 491,880.5 491,904.8 491,906.9 491,931.2 491,957.6 468.2,944.4 468.2,918 468.2,893.7 
		468.2,891.6 468.2,867.3 468.2,840.9 	"/>
	<polygon class="st7" points="392.4,760.2 415.3,773.4 392.4,786.6 369.6,773.4 	"/>
	<polygon class="st15" points="415.3,773.4 415.3,799.8 415.3,824.1 415.3,826.2 415.3,850.5 415.3,876.9 392.4,890.1 392.4,863.7 
		392.4,839.4 392.4,837.3 392.4,813 392.4,786.6 	"/>
	<polygon class="st16" points="392.4,786.6 392.4,813 392.4,837.3 392.4,839.4 392.4,863.7 392.4,890.1 369.6,876.9 369.6,850.5 
		369.6,826.2 369.6,824.1 369.6,799.8 369.6,773.4 	"/>
	<polygon class="st7" points="754.7,673 777.5,686.2 754.7,699.4 731.8,686.2 	"/>
	<polygon class="st15" points="777.5,686.2 777.5,712.6 777.5,736.9 777.5,739 777.5,763.3 777.5,789.7 754.7,802.9 754.7,776.5 
		754.7,752.2 754.7,750.1 754.7,725.8 754.7,699.4 	"/>
	<polygon class="st16" points="754.7,699.4 754.7,725.8 754.7,750.1 754.7,752.2 754.7,776.5 754.7,802.9 731.8,789.7 731.8,763.3 
		731.8,739 731.8,736.9 731.8,712.6 731.8,686.2 	"/>
	<polygon class="st16" points="344.2,740.4 344.2,770.8 491,855.5 491,825.1 	"/>
	<polygon class="st7" points="637.8,570.8 491,655.6 344.2,740.4 491,825.1 637.8,740.4 784.7,655.6 	"/>
	<polygon class="st15" points="637.8,740.4 491,825.1 491,855.5 637.8,770.8 784.7,686 784.7,655.6 	"/>
	<polygon class="st10" points="602,605.7 540.3,641.3 478.6,676.9 540.3,712.6 602,676.9 663.7,641.3 	"/>
	<polygon class="st11" points="478.6,676.9 478.6,717.5 540.3,753.1 540.3,712.6 	"/>
	<polygon class="st12" points="602,676.9 540.3,712.6 540.3,753.1 602,717.5 663.7,681.9 663.7,641.3 	"/>
	<path class="st17" d="M545.2,638.5c0,0,3.5-13.1,19.3-11.2L545.2,638.5z"/>
	<polygon class="st18" points="569.1,714 554.8,722.3 554.8,708 569.1,699.7 	"/>
	<polygon class="st18" points="589.4,702.3 575.1,710.6 575.1,696.3 589.4,688 	"/>
	<polygon class="st18" points="589.4,722.6 575.1,730.8 575.1,716.5 589.4,708.3 	"/>
	<polygon class="st18" points="652,666.2 605.5,693 605.5,678.7 652,651.9 	"/>
	<polygon class="st18" points="652,686.4 605.5,713.3 605.5,699 652,672.1 	"/>
	<polygon class="st18" points="569.1,734.3 554.8,742.6 554.8,728.3 569.1,720 	"/>
	
		<ellipse transform="matrix(0.9966 -8.193851e-02 8.193851e-02 0.9966 -53.2371 45.9083)" class="st18" cx="532.7" cy="671.6" rx="3.3" ry="1.8"/>
	
		<ellipse transform="matrix(0.9966 -8.193851e-02 8.193851e-02 0.9966 -54.1615 44.9505)" class="st18" cx="520.6" cy="682.4" rx="3.3" ry="1.8"/>
	
		<ellipse transform="matrix(0.9966 -8.193851e-02 8.193851e-02 0.9966 -53.4867 44.6909)" class="st18" cx="517.8" cy="674" rx="3.3" ry="1.8"/>
	
		<ellipse transform="matrix(0.9968 -7.967700e-02 7.967700e-02 0.9968 -52.8573 45.0895)" class="st18" cx="538.6" cy="684.9" rx="3.3" ry="1.8"/>
	
		<ellipse transform="matrix(0.9966 -8.193851e-02 8.193851e-02 0.9966 -53.6987 45.4293)" class="st18" cx="526.7" cy="677" rx="5.4" ry="3.1"/>
	<path class="st19" d="M580,702.6c7.7,10.9,17.8,19.5,26.5,29.4c4.7,5.4,9,11.2,11.7,17.9c3.3,8,3.8,16.6,3.6,25.2
		c-0.5,33-2.6,66.3,9.5,97.7c5.8,14.9,14.3,28.6,26.2,39.5c1.4,1.3,3.6-0.8,2.2-2.2c-24-22-33.1-54.5-35-86c-1-17,0.2-33.9,0.3-50.8
		c0.1-14.2-3.1-26.7-11.8-38c-9.3-12.2-21.7-21.7-30.5-34.3C581.5,699.5,578.9,701,580,702.6L580,702.6z"/>
	<path class="st19" d="M563.4,710.4c26.4,20.3,34.2,55,35,86.6c0.5,19-1.1,38-1.3,57c-0.2,16.6,0.5,33.9,7.1,49.5
		c5.9,14,16.7,25.8,31.4,30.4c1.9,0.6,2.7-2.3,0.8-2.9c-36.4-11.4-37-56.7-36-87.8c1-33.2,4.2-67.6-8.6-99.1
		c-5.8-14.3-14.6-27-26.8-36.4C563.5,706.6,562,709.2,563.4,710.4L563.4,710.4z"/>
	<path class="st19" d="M566.9,732.7c14.4-7.5,30.6,2.3,37.4,15.4c7.8,14.9,7,32.8,6.5,49.1c-0.5,17,0.1,33.2,4.3,49.7
		c3.5,14.3,8,28.4,13.7,42c5.3,12.2,12.9,23.7,25.8,28.6c1.8,0.7,2.6-2.3,0.8-2.9c-14.1-5.3-21.3-19.6-26.3-32.9
		c-5.7-15.4-10.9-31.4-13.7-47.5c-3.3-18.9-0.7-37.8-1.5-56.8c-0.6-13.7-3.3-28.3-12.6-38.8c-8.8-10-23.8-14.7-36-8.3
		C563.6,731,565.2,733.6,566.9,732.7L566.9,732.7z"/>
	<path class="st19" d="M576.9,723.1c14.1,0.8,20.1,17,21.6,29c2.2,17.2,0.1,34.7-1.2,52c-1.2,16.2-1.4,32.5,2.3,48.5
		c3.6,15.3,10.1,29.9,16.5,44.2c5.2,11.7,12.2,24.8,25.8,27.9c1.9,0.4,2.7-2.5,0.8-2.9c-14.2-3.3-20.4-18.5-25.7-30.5
		c-6.9-15.6-13.6-31.5-16.2-48.5c-2.6-17.6-0.7-35.4,0.6-53c1.1-15.1,2.6-31.6-1.6-46.4c-3.1-11.2-10.3-22.6-23-23.3
		C574.9,720,574.9,723,576.9,723.1L576.9,723.1z"/>
	<polygon class="st19" points="674.4,902 620,937.3 636,945.9 690.2,910.1 	"/>
	<polygon class="st19" points="620,937.3 620,948.2 636,957.6 636,945.9 	"/>
	<polygon class="st19" points="690.2,910.1 690.2,921 636,957.6 636,945.9 	"/>
	<path class="st19" d="M564.5,706.2c-2.7,0.4-5.5,2-5.3,5.1c0.2,2.8,3.5,4,5.9,3c1.4-0.6,1.5-2,1.7-3.4c0.2-1.4,0.3-2.6-1.2-3.2
		c-2.4-0.8-5.1,0.2-6.5,2.3c-0.7,1-0.9,2.3-0.5,3.4c0.7,1.2,2.3,1.3,3.5,1.2c1.2,0,2.3-0.8,2.7-2c0.3-1.4-0.4-2.8-1.6-3.5
		c-3.1-1.7-4.3,3.3-3,5.3c0.8,1.2,2.6,1.4,3.9,1.3c1.4,0,2.6-0.8,3.2-2c1.6-3.4-2.9-5.2-5.5-4.4c-1.4,0.3-2.3,1.6-2.3,3
		c0.2,1.8,1.9,2.7,3.5,2.9l0.4-3c-0.5,0-1.6-0.1-1.8-0.6c0.1-0.6,0.4-1.2,1-1.5c1.9-0.2,1.9-3.3,0-3c-2.2,0.3-3.9,2.2-4.1,4.4
		c-0.2,2.5,2.7,3.8,4.8,3.8c1.7,0,2.2-2.7,0.4-3c-0.1,0-1.1-0.3-1.2-0.3l-0.2,0.4l0.2-0.1c0.4,0.1,1.5-0.4,1.8,0.1
		c0.2,0.4-0.7,0.3-1,0.3c-0.3,0-0.9-0.2-0.7,0.1c0-0.5,0-0.9,0.1-1.4l-1,0.6c0.2-0.3,0.2-0.4,0-0.4c-0.2,0-0.5,0-0.7,0H561
		c0.3,0.6,0.5,0.7,0.6,0.4c0.1-0.1,0.2-0.4,0.4-0.6c0.6-0.7,1.9-1.3,2.8-0.8l-0.7-0.9c0,0.7-0.1,1.4-0.3,2c0.4-0.2,0.3-0.3-0.1-0.2
		h-0.4c-0.3,0-0.8,0-0.9-0.2c-0.3-0.5,0.3-1.2,0.6-1.4c0.7-0.4,1.6-0.7,2.4-0.8C567.3,708.7,566.5,705.8,564.5,706.2L564.5,706.2z"
		/>
	<path class="st19" d="M581.4,701c-0.2-0.1-0.4-0.1-0.7-0.1c0.1,0.2,0.2,0.3,0.3,0.5c0.1,0,0.3-0.4,0.3-0.5c0.2-0.3,0.8-1.1,1.1-0.9
		c0.2,0.2,0.2,0.6,0,0.8l-0.1,0c-0.4,0.3-0.3-0.2-0.2,0.5c0,0.3,0,0.5,0.1,0.3l0.1-0.1c0-0.1,0.1-0.1,0.1-0.1
		c0.4-0.2,0.2-0.5-0.8-0.9l0.4-0.7c-0.2,0.2-0.6,0.3-0.8,0.4s-0.3-0.1-0.2,0.1c-1-1.7-3.7-0.1-2.6,1.5c0.8,1.2,2.3,1.8,3.6,1.3
		c1.3-0.3,2.9-1.2,2.7-2.8c-0.6-3.4-5.7-1.8-5.5,1.2c0.2,1.4,1.4,2.5,2.9,2.4c1.4,0,2.7-0.9,3.2-2.2c0.8-1.7,0-3.7-1.7-4.5
		c-0.9-0.4-2-0.4-3,0.1c-1.4,0.8-2.4,2.2-2.7,3.8c-0.1,1.6,1.2,2.6,2.7,2.8c0.8,0.2,1.6-0.3,1.9-1.1
		C582.7,702.1,582.3,701.3,581.4,701L581.4,701z"/>
	<path class="st19" d="M564.5,728.4c-0.9,0.2-1.7,0.7-2.2,1.4c-0.4,0.7-0.5,1.5-0.3,2.3c0.5,1.5,2.1,2.4,3.6,2c0,0,0,0,0,0
		c0.2-0.1,0.3-0.1,0.5-0.2c1.5-0.9,2.1-2.8,1.3-4.3c-0.9-1.5-2.7-2.1-4.3-1.5c-0.8,0.2-1.3,1.1-1.1,1.9c0.2,0.8,1.1,1.3,1.9,1
		c0,0,0.5-0.2,0.2-0.1h0.3c-0.2,0,0.2,0.1,0.1,0c0,0,0.4,0.2,0.2,0.1c-0.2-0.1,0-0.1,0,0s0.1,0.1,0,0l0,0l0,0
		c-0.1,0.3,0.1-0.1-0.1,0.2c0.1-0.1-0.1,0,0,0h0.3c-0.1-0.1-0.1,0,0,0c-0.1-0.3,0,0.2-0.1-0.2c0,0,0.1,0.3,0,0.1c0-0.2,0,0.2,0,0.2
		c0,0-0.4,0.1,0.1,0c-0.2,0,0.4-0.1,0.3-0.1c0.8-0.3,1.2-1.1,1-1.9c-0.2-0.8-1.1-1.3-1.9-1L564.5,728.4z"/>
	<path class="st19" d="M562.5,728.9c-1.8-0.2-3.5,0.8-4.3,2.4c-0.5,0.9-0.5,1.9-0.2,2.8c0.5,0.9,1.5,1.4,2.5,1.3
		c1.6,0.1,3.7-0.4,4.2-2.2c0.3-1,0-2.1-0.9-2.7c-0.9-0.6-2.1-0.3-3.1-0.1l1.3,2.3c0.4-0.6,1-0.7,1.6-1.1c0.9-0.5,1.2-1.6,0.8-2.5
		c-0.9-1.6-3.6-1.2-4.8-0.1c-1.2,1.2-1.3,3.1-0.3,4.5c1.2,1.4,3.1,1.8,4.8,1.1c0.8-0.3,1.2-1.1,1-1.9c-0.2-0.8-1.1-1.2-1.9-1
		c-0.4,0.2-1.4,0.5-1.7-0.1c-0.1-0.2,0-0.4,0.2-0.5c0,0,0,0,0,0c0.1,0,0.2,0,0.3,0l-0.6-0.5l0.1,0.1l-0.2-0.8v0.2l0.2-0.8
		c0.4-0.3,0.5-0.3,0.1-0.2l-0.4,0.2c-0.3,0.1-0.6,0.3-0.8,0.5c-0.5,0.4-0.9,0.9-1.3,1.4c-0.4,0.7-0.2,1.6,0.5,2.1c0,0,0,0,0,0
		c0.2,0.1,0.5,0.2,0.8,0.2c0.7-0.1,1.4-0.2,2.1-0.2l-0.8-0.2c-0.4-0.4-0.4-0.7-0.1-0.9l-0.2,0.1c-0.1,0-0.2,0-0.3,0.1
		c-0.2,0-0.5,0-0.7,0h-0.5c0.3,0.6,0.4,0.8,0.5,0.5c0.1-0.3,0.3-0.6,0.6-0.8c0.3-0.2,0.7-0.3,1.1-0.2c0.8,0,1.5-0.7,1.5-1.5
		C563.9,729.6,563.3,728.9,562.5,728.9L562.5,728.9z"/>
	<path class="st19" d="M579.3,722.7c0.5-0.2,1.1-0.2,1.7-0.3c0.2,0,0.7,0.1,0.9,0c0.3,0.1,0.3,0,0-0.3c-0.1-0.1-0.1-0.2-0.2-0.3
		c0,0,0.1-0.1,0.1-0.1c-0.1,0-0.3,0-0.4,0c-0.2,0-0.4-0.1-0.6-0.1c-0.6,0,0.1-0.5,0,0.5l-0.2,0.8c0.3-0.3,0.6-0.6,1-0.8
		c0.1-0.1,0.5-0.1,0.4-0.1v-0.2c0.4-0.5,0.4-0.6,0-0.5c-0.3,0-0.5,0-0.8,0.1h-0.8c-0.3,0-0.9-0.3-0.5,0.1l0.4,0.7l-0.1-0.2v0.8
		c0-0.2,0.4-0.6,0.6-0.6c2,0,2-3,0-3c-1.4,0.1-2.6,0.9-3.2,2.1c-0.9,1.5,0.1,2.8,1.7,3.1c1.5,0.3,3.1,0.2,4.5-0.3
		c1.2-0.7,1.7-2.2,1.1-3.4l0-0.1c-0.7-1.2-2.1-1.8-3.5-1.5c-1.3,0.3-2.5,1.1-3.2,2.3c-1.6,3.1,4.1,4.2,5.9,2.6
		c1.1-1,1.3-2.6,0.3-3.8l-0.1-0.1c-1.3-1.2-3.9-0.8-5.4-0.3C576.7,720.3,577.5,723.2,579.3,722.7L579.3,722.7z"/>
	<polygon class="st7" points="900.6,690 910.3,696.1 910.3,706 900.6,699.6 	"/>
	<path class="st19" d="M678.3,916c48.2-12.8,94.5-37.4,130.4-72.2c7.1-6.8,14.2-15.8,12.3-26.3c-2-11.1-13.1-18.6-12.8-30.3
		c0.4-14.7,14.3-23.5,25.9-29.5c13.4-7,27-13.9,40.4-20.8c8.5-4.4,18.8-8.3,25.2-15.8c1.9-2.3,2.8-4,2.4-6.7c-0.3-2-0.8-3.9-0.9-5.9
		c-0.1-1-0.1-2-0.1-3c0.1-1.4,1.5-5.6,3.7-4.7c1.8,0.8,3.3-1.8,1.5-2.6c-2.1-0.9-4.9,0.4-6.4,1.9c-2.2,2.2-2,5.6-1.8,8.5
		c0.2,2.3,1.7,5.8,1.3,8c-0.6,3.7-7.5,7.6-10.4,9.4c-10.7,6.7-22.6,11.8-33.9,17.6c-12,6.2-25.3,11.6-36,19.8
		c-8.4,6.4-15.3,16.5-13.8,27.5c1.6,11.5,13.9,19.6,12.8,31.7c-1.1,13.2-15.7,23.3-25,31.1c-10.5,8.7-21.5,16.6-33,23.8
		c-25.6,16-53.5,28-82.8,35.7c-0.8,0.2-1.3,1.1-1.1,1.9C676.6,915.9,677.4,916.3,678.3,916L678.3,916z"/>
	<path class="st19" d="M905.7,697.3C905.8,697.4,905.8,697.3,905.7,697.3l0.2,0.7v-0.1l-0.4,1.1l0,0l-0.7,0.4h0.3
		c0.1,0.1,0.2,0.1,0.1,0c-0.2-0.2-0.2-0.5,0-0.7c-0.2-0.5-0.1-0.8,0.3-0.9c0.1,0,0.2,0,0.4,0c-0.1-0.1-0.2-0.1-0.2-0.2
		c0.1,0.1,0,0-0.1-0.1v0.4l-0.4,0.7c-0.6,0.2-0.7,0.3-0.3,0.2h0.6c0-0.1-0.2-0.1-0.2-0.2c-0.3-0.5,0.2-1.4,0.8-1.2
		c-0.8-0.2-1.7,0.3-1.9,1.1c-0.2,0.8,0.3,1.7,1.1,1.9l0,0c1.2,0.4,2.5-0.3,2.8-1.5c0,0,0,0,0-0.1c0.3-1.2-0.4-2.5-1.7-2.8
		c-1.1-0.4-2.4-0.3-3.3,0.4c-1,1-0.6,2.6,0.3,3.4c0.8,0.9,2,1.3,3.2,0.9c1-0.4,1.6-1.6,1.2-2.6c0,0,0,0,0,0
		c-0.1-0.2-0.2-0.4-0.3-0.5c-0.7-0.9-1.9-1.3-3-1.1c-0.7,0-1.3,0.5-1.5,1.2c-0.1,0.7,0.1,1.5,0.6,2c0.6,0.6,1.5,0.6,2.1,0
		c0,0,0,0,0,0C906.3,698.9,906.3,697.9,905.7,697.3L905.7,697.3z"/>
	<path class="st20" d="M229.8,588.9l-74.4,43c2.7-1.6,9.7,14.2,10.1,15.4c4.4,12.8,4.2,26.8,1.5,39.9c-2,9.7-2.5,18.7,4.2,26.9
		c0.3,0.4,0.7,0.7,1.1,0.8c0.3,0,0.6-0.2,0.9-0.4c20.2-13.3,40.9-25.9,61.5-38.7c4.7-2.9-0.8-16.9-0.5-21.9
		c0.9-11.5,6.3-21.9,5.6-33.6C239.1,609.2,235.7,598.4,229.8,588.9z"/>
	<polygon class="st7" points="150.6,636.7 235.7,587.6 235.7,580.7 150.6,629.8 	"/>
	<path class="st21" d="M173.1,638.8l14.7-8.1c1.7-0.9,0.2-3.6-1.5-2.6l-14.7,8.1C169.8,637.1,171.3,639.7,173.1,638.8z"/>
	<path class="st21" d="M176,646.8l15.3-7.2c1.8-0.8,0.2-3.5-1.5-2.6l-15.3,7.2C172.6,645.1,174.2,647.7,176,646.8z"/>
	<path class="st21" d="M178,657c9.7-5.8,19.8-10.9,30.3-15.2c1.8-0.8,1-3.7-0.8-2.9c-10.7,4.4-21.1,9.6-31,15.5
		c-0.7,0.4-1,1.3-0.6,2.1C176.3,657.2,177.2,657.4,178,657L178,657z"/>
	<path class="st21" d="M180.1,664.7l15.8-7.3c1.8-0.8,0.2-3.4-1.5-2.6l-15.9,7.4C176.7,662.9,178.3,665.5,180.1,664.7L180.1,664.7z"
		/>
	<path class="st21" d="M180.8,674.5c8.6-5.7,17.6-10.9,26.8-15.6c1.8-0.9,0.2-3.5-1.5-2.6c-9.2,4.7-18.2,9.9-26.8,15.6
		C177.6,672.9,179.1,675.6,180.8,674.5z"/>
	<path class="st21" d="M176,687.6c10.8-4.5,20.4-11.1,30.8-16.3c1.7-0.9,0.2-3.5-1.5-2.6c-10.1,5.1-19.5,11.6-30,16
		C173.4,685.5,174.2,688.4,176,687.6z"/>
	<path class="st21" d="M184.3,693.4c-0.9-2.9-3.4-4.9-6.4-3.2c-2.6,1.5-4.1,5-4,7.9c-0.1,2.9,1.8,5.5,4.5,6.5
		c1.3,0.5,2.8,0.5,4.2,0.1c1.5-0.6,2-2.6,2.6-4.1c0.7-1.8-2.3-2.6-2.9-0.8c-0.6,1.5-1.3,2.4-3,1.8c-1.4-0.6-2.3-1.9-2.3-3.4
		c0-1.3,0.3-2.6,0.9-3.7c0.8-1.4,2.8-2.7,3.4-0.4c0.2,0.8,1.1,1.3,1.9,1.1S184.6,694.2,184.3,693.4L184.3,693.4z"/>
	<path class="st21" d="M193.5,690c0.3-3-2.8-4.6-5.5-4.2c-2.9,0.5-3.1,4.5-3.3,6.8c-0.2,2.3,0.5,5.8,2.9,7.1s5.1-0.3,6.2-2.5
		c0.9-1.7-1.7-3.3-2.6-1.5c-0.5,1-1.6,2-2.6,0.9c-0.6-1-0.9-2.1-0.8-3.3c0-1.1,0.2-2.2,0.5-3.3c0-0.4,0.1-0.8,0.3-1.2
		c0.5-0.5,1.9,0.9,1.9,1.1C190.2,691.9,193.2,691.9,193.5,690z"/>
</g>
</svg>
