<?xml version="1.0" encoding="utf-8"?>
<!-- Generator: Adobe Illustrator 23.0.0, SVG Export Plug-In . SVG Version: 6.00 Build 0)  -->
<svg version="1.1" id="Layer_1" xmlns="http://www.w3.org/2000/svg" xmlns:xlink="http://www.w3.org/1999/xlink" x="0px" y="0px"
	 viewBox="0 0 1125 972.3" style="enable-background:new 0 0 1125 972.3;" xml:space="preserve">
<style type="text/css">
	.st0{fill:url(#SVGID_1_);}
	.st1{fill:#582841;}
	.st2{fill:#994776;}
	.st3{fill:#6D3254;}
	.st4{fill:#CC2A49;}
	.st5{fill:#E22D59;}
	.st6{fill:#BC284B;}
	.st7{fill:#77375B;}
	.st8{opacity:0.75;fill:#F99E4C;enable-background:new    ;}
	.st9{fill:#3A1B2D;}
	.st10{fill:#723558;}
	.st11{fill:#A0274F;}
	.st12{fill:#751D3F;}
	.st13{fill:#421326;}
	.st14{fill:#F99E4C;}
	.st15{fill:#F36F38;}
</style>
<g>
	
		<linearGradient id="SVGID_1_" gradientUnits="userSpaceOnUse" x1="-136.9173" y1="236.808" x2="803.1964" y2="-463.2229" gradientTransform="matrix(1 0 0 1 0 772)">
		<stop  offset="3.000000e-02" style="stop-color:#CC2A49"/>
		<stop  offset="1" style="stop-color:#F36F38"/>
	</linearGradient>
	<path class="st0" d="M3,0v156.1H2.7v287.9C0.9,452.4,0,460.9,0,469.5v502.8h1127V0H3z"/>
</g>
<g>
	<polygon class="st1" points="324.2,548.4 321.4,550.2 313.9,554.8 311,556.6 303.5,561.3 300.7,563 293.3,567.6 290.4,569.5 
		283,574 280.1,575.8 272.6,580.5 269.7,582.2 262.3,586.9 259.4,588.7 252,593.3 249.2,595.1 241.7,599.8 238.8,601.5 231.4,606.2 
		228.5,608 221,612.5 218.1,614.4 210.7,619 207.8,620.8 200.4,625.4 197.6,627.3 187.2,633.6 188,657 198.3,650.5 201.2,648.8 
		208.6,644.1 211.5,642.3 218.9,637.7 221.9,635.9 229.2,631.2 232.1,629.5 239.6,624.9 242.4,623 249.9,618.5 252.8,616.6 
		260.2,612 263.1,610.2 270.5,605.6 273.4,603.8 280.8,599.2 283.7,597.4 291.2,592.7 294,591 301.5,586.3 304.4,584.5 311.8,579.8 
		314.6,578.1 322.1,573.4 325,571.6 335.3,565.2 334.6,542 	"/>
	<polygon class="st1" points="345.9,565.5 343,567.4 335.5,572 332.6,573.8 325.2,578.4 322.3,580.2 314.9,584.8 312.1,586.6 
		304.6,591.3 301.7,593 294.2,597.7 291.4,599.5 283.9,604.1 281,605.9 273.6,610.5 270.7,612.3 263.3,616.9 260.5,618.8 253,623.3 
		250.1,625.1 242.6,629.8 239.8,631.5 232.3,636.2 229.4,638 222.1,642.6 219.2,644.4 208.9,650.8 209.6,674.1 219.9,667.8 
		222.8,665.9 230.3,661.3 233.2,659.5 240.5,654.9 243.4,653.1 250.9,648.5 253.7,646.7 261.2,642 264.1,640.3 271.5,635.6 
		274.4,633.8 281.8,629.2 284.8,627.4 292.1,622.7 295,621 302.5,616.4 305.3,614.5 312.8,609.9 315.7,608.1 323.1,603.5 326,601.7 
		333.4,597.1 336.3,595.3 343.7,590.6 346.6,588.9 356.9,582.4 356.2,559.1 	"/>
	<polygon class="st2" points="187.2,633.6 208.9,650.8 209.6,674.1 188,657 	"/>
	<polygon class="st1" points="335.3,565.2 356.9,582.4 356.2,559.1 334.6,542 	"/>
	<polygon class="st3" points="187.2,633.6 208.9,650.8 356.2,559.1 334.6,542 	"/>
	<polygon class="st1" points="362.8,154.8 318.8,180.2 274.8,205.7 230.8,231.1 186.8,256.4 142.9,281.8 98.9,307.3 98.9,356.8 
		98.9,358 98.9,406.3 98.9,407.5 98.9,455.9 98.9,457.2 98.9,506.7 142.9,481.3 186.8,455.9 230.8,430.5 274.8,405.1 318.8,379.7 
		362.8,354.3 406.8,328.9 406.8,279.4 406.8,278.1 406.8,229.8 406.8,228.6 406.8,180.2 406.8,179 406.8,129.5 	"/>
	<polygon class="st1" points="268.8,440.6 257,447.3 257,457.9 257,460.8 257,468.4 257,471.3 257,479 257,481.9 257,489.4 
		257,492.3 257,499.9 257,502.9 257,510.5 257,513.4 257,521 257,523.9 257,531.6 257,534.5 257,542.1 257,545 257,552.5 257,555.6 
		257,563.1 257,566 257,573.6 257,576.5 257,584.1 257,587.1 257,597.6 268.8,604.3 280.4,597.6 280.4,587.1 280.4,584.1 
		280.4,576.5 280.4,573.6 280.4,566 280.4,563.1 280.4,555.6 280.4,552.5 280.4,545 280.4,542.1 280.4,534.5 280.4,531.6 
		280.4,523.9 280.4,521 280.4,513.4 280.4,510.5 280.4,502.9 280.4,499.9 280.4,492.3 280.4,489.4 280.4,481.9 280.4,479 
		280.4,471.3 280.4,468.4 280.4,460.8 280.4,457.9 280.4,447.3 	"/>
	<polygon class="st4" points="388.9,318.1 345,343.5 300.9,368.8 256.9,394.3 212.9,419.7 168.9,445 124.9,470.4 81,495.9 
		124.9,521.3 168.9,495.9 212.9,470.4 256.9,445 300.9,419.7 345,394.3 388.9,368.8 432.9,343.5 	"/>
	<polygon class="st5" points="81,495.9 81,546.6 124.9,572.1 124.9,521.3 	"/>
	<polygon class="st6" points="388.9,368.8 345,394.3 300.9,419.7 256.9,445 212.9,470.4 168.9,495.9 124.9,521.3 124.9,572.1 
		168.9,546.6 212.9,521.3 256.9,495.9 300.9,470.4 345,445 388.9,419.7 432.9,394.3 432.9,343.5 	"/>
	<polygon class="st7" points="98.9,323.3 98.9,506.7 107.1,511.1 107.1,328 	"/>
	<polygon class="st7" points="371,163.1 327,188.5 283.1,213.9 239.1,239.3 195.1,264.7 151.1,290.2 107.1,315.5 107.1,328 
		107.1,511.1 110.6,512.9 151.3,489.4 195.1,464.1 239.1,438.8 283.1,413.4 327,387.9 371,362.5 415,337.2 415,287.6 415,286.3 
		415,238 415,236.8 415,188.5 415,187.3 415,137.7 	"/>
	<polygon class="st8" points="360.1,190.2 321.2,212.6 282.2,235.1 243.2,257.7 204.2,280.2 165.3,302.7 126.3,325.1 126.3,336.2 
		126.3,498.5 129.4,500.1 165.5,479.3 204.2,456.8 243.2,434.3 282.2,411.9 321.2,389.4 360.1,366.9 399.1,344.3 399.1,300.4 
		399.1,299.4 399.1,256.5 399.1,255.5 399.1,212.6 399.1,211.6 399.1,167.7 	"/>
	<polygon class="st4" points="377,77.5 333,102.9 289,128.3 245,153.7 201,179.1 157.1,204.5 113.1,229.8 69.1,255.3 113.1,280.7 
		157.1,255.3 201,229.8 245,204.5 289,179.1 333,153.7 377,128.3 421,102.9 	"/>
	<polygon class="st5" points="69.1,255.3 69.1,306.1 113.1,331.5 113.1,280.7 	"/>
	<polygon class="st6" points="377,128.3 333,153.7 289,179.1 245,204.5 201,229.8 157.1,255.3 113.1,280.7 113.1,331.5 157.1,306.1 
		201,280.7 245,255.3 289,229.8 333,204.5 377,179.1 421,153.7 421,102.9 	"/>
	<polygon class="st1" points="698.3,207 698.3,279.9 761.4,316.3 761.4,243.4 	"/>
	<polygon class="st1" points="698.3,291 698.3,363.8 761.4,400.3 761.4,327.4 	"/>
	<polygon class="st1" points="770,248.3 770,321.3 833.1,357.7 833.1,284.8 	"/>
	<polygon class="st1" points="770,332.4 770,405.3 833.1,441.7 833.1,368.8 	"/>
	<polygon class="st1" points="923.1,332.4 923.1,405.3 986.2,441.7 986.2,368.8 	"/>
	<polygon class="st1" points="923.1,416.4 923.1,489.2 986.2,525.7 986.2,452.8 	"/>
	<polygon class="st1" points="994.8,373.7 994.8,446.6 1057.9,483 1057.9,410.1 	"/>
	<polygon class="st1" points="994.8,457.7 994.8,530.6 1057.9,567.1 1057.9,494.1 	"/>
	<path class="st1" d="M267,355.5c-25.3,14.6-46,5.9-46-19.4s20.7-57.9,46-72.4c25.3-14.6,46-5.9,46,19.4S292.4,340.9,267,355.5z
		 M267,271.2c-21.2,12.2-38.5,39.4-38.5,60.7s17.2,28.5,38.5,16.3s38.5-39.4,38.5-60.7C305.5,266.2,288.2,258.9,267,271.2L267,271.2
		z"/>
	<polygon class="st1" points="288.6,297.2 252.6,297.2 252.6,338.7 	"/>
	<polygon class="st1" points="284.1,380 222.4,415.6 222.4,405.1 284.1,369.5 	"/>
	<polygon class="st1" points="309.9,365.2 288.2,377.7 288.2,367.1 309.9,354.6 	"/>
	<polygon class="st1" points="259.9,408.4 222.4,430.1 222.4,419.4 259.9,397.8 	"/>
	<polygon class="st1" points="326.7,369.9 264.2,406 264.2,395.3 326.7,359.3 	"/>
	<polygon class="st1" points="488.9,747.5 512.7,761.2 488.9,774.9 465.3,761.2 	"/>
	<polygon class="st9" points="512.7,761.2 512.7,788.6 512.7,813.8 512.7,816 512.7,841.2 512.7,868.6 488.9,882.3 488.9,854.9 
		488.9,829.7 488.9,827.5 488.9,802.3 488.9,774.9 	"/>
	<polygon class="st10" points="488.9,774.9 488.9,802.3 488.9,827.5 488.9,829.7 488.9,854.9 488.9,882.3 465.3,868.6 465.3,841.2 
		465.3,816 465.3,813.8 465.3,788.6 465.3,761.2 	"/>
	<polygon class="st1" points="386.6,677.4 410.3,691.1 386.6,704.8 362.9,691.1 	"/>
	<polygon class="st9" points="410.3,691.1 410.3,718.5 410.3,743.7 410.3,745.9 410.3,771.1 410.3,798.5 386.6,812.2 386.6,784.8 
		386.6,759.6 386.6,757.4 386.6,732.2 386.6,704.8 	"/>
	<polygon class="st10" points="386.6,704.8 386.6,732.2 386.6,757.4 386.6,759.6 386.6,784.8 386.6,812.2 362.9,798.5 362.9,771.1 
		362.9,745.9 362.9,743.7 362.9,718.5 362.9,691.1 	"/>
	<polygon class="st1" points="762.6,586.9 786.3,600.6 762.6,614.3 738.9,600.6 	"/>
	<polygon class="st9" points="786.3,600.6 786.3,628 786.3,653.2 786.3,655.4 786.3,680.6 786.3,708 762.6,721.7 762.6,694.3 
		762.6,669.1 762.6,666.9 762.6,641.7 762.6,614.3 	"/>
	<polygon class="st10" points="762.6,614.3 762.6,641.7 762.6,666.9 762.6,669.1 762.6,694.3 762.6,721.7 738.9,708 738.9,680.6 
		738.9,655.4 738.9,653.2 738.9,628 738.9,600.6 	"/>
	<polygon class="st10" points="336.5,656.9 336.5,688.4 488.9,776.3 488.9,744.8 	"/>
	<polygon class="st1" points="641.3,480.8 488.9,568.8 336.5,656.9 488.9,744.8 641.3,656.9 793.8,568.8 	"/>
	<polygon class="st9" points="641.3,656.9 488.9,744.8 488.9,776.3 641.3,688.4 793.8,600.4 793.8,568.8 	"/>
	<polygon class="st4" points="604.1,517.1 540.1,554 476.1,591 540.1,628 604.1,591 668.2,554 	"/>
	<polygon class="st5" points="476.1,591 476.1,633.1 540.1,670 540.1,628 	"/>
	<polygon class="st6" points="604.1,591 540.1,628 540.1,670 604.1,633.1 668.2,596.1 668.2,554 	"/>
	<path class="st11" d="M545.2,551.1c0,0,3.6-13.6,20-11.6L545.2,551.1z"/>
	<polygon class="st12" points="570,629.5 555.1,638.1 555.1,623.2 570,614.6 	"/>
	<polygon class="st12" points="591.1,617.3 576.2,625.9 576.2,611.1 591.1,602.5 	"/>
	<polygon class="st12" points="591.1,638.4 576.2,646.9 576.2,632.1 591.1,623.5 	"/>
	<polygon class="st12" points="656,579.8 607.8,607.7 607.8,592.8 656,565 	"/>
	<polygon class="st12" points="656,600.8 607.8,628.7 607.8,613.9 656,586 	"/>
	<polygon class="st12" points="570,650.5 555.1,659.1 555.1,644.3 570,635.7 	"/>
	
		<ellipse transform="matrix(0.9966 -8.194157e-02 8.194157e-02 0.9966 -46.1812 45.5769)" class="st12" cx="532.2" cy="585.4" rx="3.4" ry="1.9"/>
	
		<ellipse transform="matrix(0.9966 -8.194157e-02 8.194157e-02 0.9966 -47.1418 44.5856)" class="st12" cx="519.6" cy="596.6" rx="3.4" ry="1.9"/>
	
		<ellipse transform="matrix(0.9966 -8.194157e-02 8.194157e-02 0.9966 -46.437 44.3178)" class="st12" cx="516.7" cy="587.9" rx="3.4" ry="1.9"/>
	
		<ellipse transform="matrix(0.9968 -7.967865e-02 7.967865e-02 0.9968 -45.6204 44.5645)" class="st12" cx="535.6" cy="593.9" rx="3.4" ry="1.9"/>
	
		<ellipse transform="matrix(0.9966 -8.194157e-02 8.194157e-02 0.9966 -46.661 45.0855)" class="st12" cx="526" cy="591" rx="5.6" ry="3.2"/>
	<path class="st13" d="M581.3,617.6c8,11.3,18.5,20.2,27.5,30.5c4.9,5.6,9.3,11.6,12.1,18.6c3.4,8.3,3.9,17.2,3.7,26.2
		c-0.5,34.3-2.7,68.8,9.9,101.4c6,15.5,14.8,29.7,27.2,41c1.5,1.3,3.7-0.8,2.3-2.3c-24.9-22.8-34.4-56.6-36.3-89.3
		c-1-17.6,0.2-35.2,0.3-52.7c0.1-14.7-3.2-27.7-12.2-39.4c-9.7-12.7-22.5-22.5-31.7-35.6C582.9,614.4,580.2,616,581.3,617.6
		L581.3,617.6z"/>
	<path class="st13" d="M564.1,625.7c27.4,21.1,35.5,57.1,36.3,89.9c0.5,19.7-1.1,39.4-1.3,59.2c-0.2,17.2,0.5,35.2,7.4,51.4
		c6.1,14.5,17.3,26.8,32.6,31.6c2,0.6,2.8-2.4,0.8-3c-37.8-11.8-38.4-58.9-37.4-91.1c1-34.5,4.4-70.2-8.9-102.9
		c-6-14.8-15.2-28-27.8-37.8C564.2,621.8,562.6,624.5,564.1,625.7L564.1,625.7z"/>
	<path class="st13" d="M567.7,648.9c14.9-7.8,31.8,2.4,38.8,16c8.1,15.5,7.3,34,6.7,51c-0.5,17.6,0.1,34.5,4.5,51.6
		c3.6,14.8,8.3,29.5,14.2,43.6c5.5,12.7,13.4,24.6,26.8,29.7c1.9,0.7,2.7-2.4,0.8-3c-14.6-5.5-22.1-20.3-27.3-34.1
		c-5.9-16-11.3-32.6-14.2-49.3c-3.4-19.6-0.7-39.2-1.6-59c-0.6-14.2-3.4-29.4-13.1-40.3c-9.1-10.4-24.7-15.3-37.4-8.6
		C564.3,647.1,565.9,649.8,567.7,648.9L567.7,648.9z"/>
	<path class="st13" d="M578.1,638.9c14.6,0.8,20.9,17.6,22.4,30.1c2.3,17.9,0.1,36-1.2,54c-1.2,16.8-1.5,33.7,2.4,50.3
		c3.7,15.9,10.5,31,17.1,45.9c5.4,12.1,12.7,25.7,26.8,29c2,0.4,2.8-2.6,0.8-3c-14.7-3.4-21.2-19.2-26.7-31.7
		c-7.2-16.2-14.1-32.7-16.8-50.3c-2.7-18.3-0.7-36.7,0.6-55c1.1-15.7,2.7-32.8-1.7-48.2c-3.2-11.6-10.7-23.5-23.9-24.2
		C576,635.7,576,638.8,578.1,638.9L578.1,638.9z"/>
	<polygon class="st13" points="679.3,824.6 622.8,861.2 639.4,870.2 695.7,833 	"/>
	<polygon class="st13" points="622.8,861.2 622.8,872.6 639.4,882.3 639.4,870.2 	"/>
	<polygon class="st13" points="695.7,833 695.7,844.3 639.4,882.3 639.4,870.2 	"/>
	<path class="st13" d="M565.2,621.4c-2.8,0.4-5.7,2.1-5.5,5.3c0.2,2.9,3.6,4.2,6.1,3.1c1.5-0.6,1.6-2.1,1.8-3.5
		c0.2-1.5,0.3-2.7-1.2-3.3c-2.5-0.8-5.3,0.2-6.7,2.4c-0.7,1-0.9,2.4-0.5,3.5c0.7,1.2,2.4,1.3,3.6,1.2c1.2,0,2.4-0.8,2.8-2.1
		c0.3-1.5-0.4-2.9-1.7-3.6c-3.2-1.8-4.5,3.4-3.1,5.5c0.8,1.2,2.7,1.5,4,1.3c1.5,0,2.7-0.8,3.3-2.1c1.7-3.5-3-5.4-5.7-4.6
		c-1.5,0.3-2.4,1.7-2.4,3.1c0.2,1.9,2,2.8,3.6,3l0.4-3.1c-0.5,0-1.7-0.1-1.9-0.6c0.1-0.6,0.4-1.2,1-1.6c2-0.2,2-3.4,0-3.1
		c-2.3,0.3-4,2.3-4.3,4.6c-0.2,2.6,2.8,3.9,5,3.9c1.8,0,2.3-2.8,0.4-3.1c-0.1,0-1.1-0.3-1.2-0.3l-0.2,0.4l0.2-0.1
		c0.4,0.1,1.6-0.4,1.9,0.1c0.2,0.4-0.7,0.3-1,0.3s-0.9-0.2-0.7,0.1c0-0.5,0-0.9,0.1-1.5l-1,0.6c0.2-0.3,0.2-0.4,0-0.4
		c-0.2,0-0.5,0-0.7,0h0c0.3,0.6,0.5,0.7,0.6,0.4c0.1-0.1,0.2-0.4,0.4-0.6c0.6-0.7,2-1.3,2.9-0.8l-0.7-0.9c0,0.7-0.1,1.5-0.3,2.1
		c0.4-0.2,0.3-0.3-0.1-0.2H564c-0.3,0-0.8,0-0.9-0.2c-0.3-0.5,0.3-1.2,0.6-1.5c0.7-0.4,1.7-0.7,2.5-0.8
		C568.1,624,567.3,621,565.2,621.4L565.2,621.4z"/>
	<path class="st13" d="M582.8,616c-0.2-0.1-0.4-0.1-0.7-0.1c0.1,0.2,0.2,0.3,0.3,0.5c0.1,0,0.3-0.4,0.3-0.5c0.2-0.3,0.8-1.1,1.1-0.9
		c0.2,0.2,0.2,0.6,0,0.8h-0.1c-0.4,0.3-0.3-0.2-0.2,0.5c0,0.3,0,0.5,0.1,0.3l0.1-0.1c0-0.1,0.1-0.1,0.1-0.1c0.4-0.2,0.2-0.5-0.8-0.9
		l0.4-0.7c-0.2,0.2-0.6,0.3-0.8,0.4c-0.2,0.1-0.3-0.1-0.2,0.1c-1-1.8-3.8-0.1-2.7,1.6c0.8,1.2,2.4,1.9,3.7,1.3
		c1.3-0.3,3-1.2,2.8-2.9c-0.6-3.5-5.9-1.9-5.7,1.2c0.2,1.5,1.5,2.6,3,2.5c1.5,0,2.8-0.9,3.3-2.3c0.8-1.8,0-3.8-1.8-4.7
		c-0.9-0.4-2.1-0.4-3.1,0.1c-1.5,0.8-2.5,2.3-2.8,3.9c-0.1,1.7,1.2,2.7,2.8,2.9c0.8,0.2,1.7-0.3,2-1.1
		C584.1,617.1,583.7,616.3,582.8,616L582.8,616z"/>
	<path class="st13" d="M565.2,644.4c-0.9,0.2-1.8,0.7-2.3,1.5c-0.4,0.7-0.5,1.6-0.3,2.4c0.5,1.6,2.2,2.5,3.7,2.1l0,0
		c0.2-0.1,0.3-0.1,0.5-0.2c1.6-0.9,2.2-2.9,1.3-4.5c-0.9-1.6-2.8-2.2-4.5-1.6c-0.8,0.2-1.3,1.1-1.1,2c0.2,0.8,1.1,1.3,2,1
		c0,0,0.5-0.2,0.2-0.1h0.3c-0.2,0,0.2,0.1,0.1,0c0,0,0.4,0.2,0.2,0.1c-0.2-0.1,0-0.1,0,0c0,0.1,0.1,0.1,0,0l0,0l0,0
		c-0.1,0.3,0.1-0.1-0.1,0.2c0.1-0.1-0.1,0,0,0h0.3c-0.1-0.1-0.1,0,0,0c-0.1-0.3,0,0.2-0.1-0.2c0,0,0.1,0.3,0,0.1c0-0.2,0,0.2,0,0.2
		s-0.4,0.1,0.1,0c-0.2,0,0.4-0.1,0.3-0.1c0.8-0.3,1.2-1.1,1-2c-0.2-0.8-1.1-1.3-2-1L565.2,644.4z"/>
	<path class="st13" d="M563.1,644.9c-1.9-0.2-3.6,0.8-4.5,2.5c-0.5,0.9-0.5,2-0.2,2.9c0.5,0.9,1.6,1.5,2.6,1.3
		c1.7,0.1,3.8-0.4,4.4-2.3c0.3-1,0-2.2-0.9-2.8c-0.9-0.6-2.2-0.3-3.2-0.1l1.3,2.4c0.4-0.6,1-0.7,1.7-1.1c0.9-0.5,1.2-1.7,0.8-2.6
		c-0.9-1.7-3.7-1.2-5-0.1c-1.2,1.2-1.3,3.2-0.3,4.7c1.2,1.5,3.2,1.9,5,1.1c0.8-0.3,1.2-1.1,1-2c-0.2-0.8-1.1-1.2-2-1
		c-0.4,0.2-1.5,0.5-1.8-0.1c-0.1-0.2,0-0.4,0.2-0.5l0,0c0.1,0,0.2,0,0.3,0l-0.6-0.5l0.1,0.1l-0.2-0.8v0.2l0.2-0.8
		c0.4-0.3,0.5-0.3,0.1-0.2l-0.4,0.2c-0.3,0.1-0.6,0.3-0.8,0.5c-0.5,0.4-0.9,0.9-1.3,1.5c-0.4,0.7-0.2,1.7,0.5,2.2l0,0
		c0.2,0.1,0.5,0.2,0.8,0.2c0.7-0.1,1.5-0.2,2.2-0.2l-0.8-0.2c-0.4-0.4-0.4-0.7-0.1-0.9l-0.2,0.1c-0.1,0-0.2,0-0.3,0.1
		c-0.2,0-0.5,0-0.7,0h-0.5c0.3,0.6,0.4,0.8,0.5,0.5c0.1-0.3,0.3-0.6,0.6-0.8c0.3-0.2,0.7-0.3,1.1-0.2c0.8,0,1.6-0.7,1.6-1.6
		C564.6,645.7,564,644.9,563.1,644.9L563.1,644.9z"/>
	<path class="st13" d="M580.6,638.5c0.5-0.2,1.1-0.2,1.8-0.3c0.2,0,0.7,0.1,0.9,0c0.3,0.1,0.3,0,0-0.3c-0.1-0.1-0.1-0.2-0.2-0.3
		l0.1-0.1c-0.1,0-0.3,0-0.4,0c-0.2,0-0.4-0.1-0.6-0.1c-0.6,0,0.1-0.5,0,0.5l-0.2,0.8c0.3-0.3,0.6-0.6,1-0.8c0.1-0.1,0.5-0.1,0.4-0.1
		v-0.2c0.4-0.5,0.4-0.6,0-0.5c-0.3,0-0.5,0-0.8,0.1h-0.8c-0.3,0-0.9-0.3-0.5,0.1l0.4,0.7l-0.1-0.2v0.8c0-0.2,0.4-0.6,0.6-0.6
		c2.1,0,2.1-3.1,0-3.1c-1.5,0.1-2.7,0.9-3.3,2.2c-0.9,1.6,0.1,2.9,1.8,3.2c1.6,0.3,3.2,0.2,4.7-0.3c1.2-0.7,1.8-2.3,1.1-3.5v-0.1
		c-0.7-1.2-2.2-1.9-3.6-1.6c-1.3,0.3-2.6,1.1-3.3,2.4c-1.7,3.2,4.3,4.4,6.1,2.7c1.1-1,1.3-2.7,0.3-3.9l-0.1-0.1
		c-1.3-1.2-4-0.8-5.6-0.3C577.9,636,578.7,639,580.6,638.5L580.6,638.5z"/>
	<polygon class="st1" points="914.1,604.6 924.1,610.9 924.1,621.2 914.1,614.5 	"/>
	<path class="st13" d="M683.3,839.1c50-13.3,98.1-38.8,135.4-74.9c7.4-7.1,14.7-16.4,12.8-27.3c-2.1-11.5-13.6-19.3-13.3-31.5
		c0.4-15.3,14.8-24.4,26.9-30.6c13.9-7.3,28-14.4,41.9-21.6c8.8-4.6,19.5-8.6,26.2-16.4c2-2.4,2.9-4.2,2.5-7c-0.3-2.1-0.8-4-0.9-6.1
		c-0.1-1-0.1-2.1-0.1-3.1c0.1-1.5,1.6-5.8,3.8-4.9c1.9,0.8,3.4-1.9,1.6-2.7c-2.2-0.9-5.1,0.4-6.6,2c-2.3,2.3-2.1,5.8-1.9,8.8
		c0.2,2.4,1.8,6,1.3,8.3c-0.6,3.8-7.8,7.9-10.8,9.8c-11.1,7-23.5,12.2-35.2,18.3c-12.5,6.4-26.3,12-37.4,20.6
		c-8.7,6.6-15.9,17.1-14.3,28.5c1.7,11.9,14.4,20.3,13.3,32.9c-1.1,13.7-16.3,24.2-25.9,32.3c-10.9,9-22.3,17.2-34.3,24.7
		c-26.6,16.6-55.5,29.1-85.9,37.1c-0.8,0.2-1.3,1.1-1.1,2C681.6,839,682.4,839.4,683.3,839.1L683.3,839.1z"/>
	<path class="st13" d="M919.4,612.1C919.5,612.2,919.5,612.1,919.4,612.1l0.2,0.7v-0.1l-0.4,1.1l0,0l-0.7,0.4h0.3
		c0.1,0.1,0.2,0.1,0.1,0c-0.2-0.2-0.2-0.5,0-0.7c-0.2-0.5-0.1-0.8,0.3-0.9c0.1,0,0.2,0,0.4,0c-0.1-0.1-0.2-0.1-0.2-0.2
		c0.1,0.1,0,0-0.1-0.1v0.4l-0.4,0.7c-0.6,0.2-0.7,0.3-0.3,0.2h0.6c0-0.1-0.2-0.1-0.2-0.2c-0.3-0.5,0.2-1.5,0.8-1.2
		c-0.8-0.2-1.8,0.3-2,1.1c-0.2,0.8,0.3,1.8,1.1,2l0,0c1.2,0.4,2.6-0.3,2.9-1.6c0,0,0,0,0-0.1c0.3-1.2-0.4-2.6-1.8-2.9
		c-1.1-0.4-2.5-0.3-3.4,0.4c-1,1-0.6,2.7,0.3,3.5c0.8,0.9,2.1,1.3,3.3,0.9c1-0.4,1.7-1.7,1.2-2.7l0,0c-0.1-0.2-0.2-0.4-0.3-0.5
		c-0.7-0.9-2-1.3-3.1-1.1c-0.7,0-1.3,0.5-1.6,1.2c-0.1,0.7,0.1,1.6,0.6,2.1c0.6,0.6,1.6,0.6,2.2,0l0,0
		C920,613.8,920,612.8,919.4,612.1L919.4,612.1z"/>
	<path class="st14" d="M217.8,499.6l-77.2,44.6c2.8-1.7,10.1,14.7,10.5,16c4.6,13.3,4.4,27.8,1.6,41.4c-2.1,10.1-2.6,19.4,4.4,27.9
		c0.3,0.4,0.7,0.7,1.1,0.8c0.3,0,0.6-0.2,0.9-0.4c21-13.8,42.5-26.9,63.8-40.2c4.9-3-0.8-17.5-0.5-22.7c0.9-11.9,6.5-22.7,5.8-34.9
		C227.5,520.7,223.9,509.5,217.8,499.6z"/>
	<polygon class="st1" points="135.6,549.2 223.9,498.3 223.9,491.1 135.6,542.1 	"/>
	<path class="st15" d="M159,551.4l15.3-8.4c1.8-0.9,0.2-3.7-1.6-2.7l-15.3,8.4C155.5,549.6,157.1,552.3,159,551.4z"/>
	<path class="st15" d="M162,559.7l15.9-7.5c1.9-0.8,0.2-3.6-1.6-2.7l-15.9,7.5C158.4,557.9,160.1,560.6,162,559.7z"/>
	<path class="st15" d="M164,570.3c10.1-6,20.6-11.3,31.5-15.8c1.9-0.8,1-3.8-0.8-3c-11.1,4.6-21.9,10-32.2,16.1
		c-0.7,0.4-1,1.3-0.6,2.2C162.3,570.5,163.2,570.7,164,570.3L164,570.3z"/>
	<path class="st15" d="M166.2,578.3l16.4-7.6c1.9-0.8,0.2-3.5-1.6-2.7l-16.5,7.7C162.7,576.4,164.4,579.1,166.2,578.3L166.2,578.3z"
		/>
	<path class="st15" d="M166.9,588.5c8.9-5.9,18.3-11.3,27.8-16.2c1.9-0.9,0.2-3.6-1.6-2.7c-9.5,4.9-18.9,10.3-27.8,16.2
		C163.6,586.8,165.2,589.6,166.9,588.5z"/>
	<path class="st15" d="M162,602.1c11.2-4.7,21.2-11.5,32-16.9c1.8-0.9,0.2-3.6-1.6-2.7c-10.5,5.3-20.2,12-31.1,16.6
		C159.3,599.9,160.1,602.9,162,602.1z"/>
	<path class="st15" d="M170.6,608.1c-0.9-3-3.5-5.1-6.6-3.3c-2.7,1.6-4.3,5.2-4.2,8.2c-0.1,3,1.9,5.7,4.7,6.7
		c1.3,0.5,2.9,0.5,4.4,0.1c1.6-0.6,2.1-2.7,2.7-4.3c0.7-1.9-2.4-2.7-3-0.8c-0.6,1.6-1.3,2.5-3.1,1.9c-1.5-0.6-2.4-2-2.4-3.5
		c0-1.3,0.3-2.7,0.9-3.8c0.8-1.5,2.9-2.8,3.5-0.4c0.2,0.8,1.1,1.3,2,1.1C170.3,609.7,170.9,608.9,170.6,608.1L170.6,608.1z"/>
	<path class="st15" d="M180.1,604.6c0.3-3.1-2.9-4.8-5.7-4.4c-3,0.5-3.2,4.7-3.4,7.1c-0.2,2.4,0.5,6,3,7.4c2.5,1.3,5.3-0.3,6.4-2.6
		c0.9-1.8-1.8-3.4-2.7-1.6c-0.5,1-1.7,2.1-2.7,0.9c-0.6-1-0.9-2.2-0.8-3.4c0-1.1,0.2-2.3,0.5-3.4c0-0.4,0.1-0.8,0.3-1.2
		c0.5-0.5,2,0.9,2,1.1C176.7,606.5,179.8,606.5,180.1,604.6z"/>
</g>
</svg>
