<svg id="Layer_1" data-name="Layer 1" xmlns="http://www.w3.org/2000/svg" xmlns:xlink="http://www.w3.org/1999/xlink" viewBox="0 0 1125 1852.29"><defs><style>.cls-1,.cls-3{opacity:0.25;}.cls-10,.cls-2,.cls-3,.cls-4,.cls-5,.cls-6,.cls-7,.cls-8,.cls-9{fill:none;stroke:#f36f38;stroke-width:5px;}.cls-2{stroke-miterlimit:10;}.cls-10,.cls-3,.cls-4,.cls-5,.cls-6,.cls-7,.cls-8,.cls-9{stroke-linecap:round;stroke-linejoin:round;}.cls-5{stroke-dasharray:22.1 22.1;}.cls-6{stroke-dasharray:22.1 22.1;}.cls-7{stroke-dasharray:22.1 22.1;}.cls-8{stroke-dasharray:23.97 23.97;}.cls-9{stroke-dasharray:23.97 23.97;}.cls-10{stroke-dasharray:23.97 23.97;}.cls-11{fill:url(#linear-gradient);}</style><linearGradient id="linear-gradient" y1="674" x2="1127.1" y2="674" gradientUnits="userSpaceOnUse"><stop offset="0.03" stop-color="#cc2a49"/><stop offset="1" stop-color="#f36f38"/></linearGradient></defs><title>mainBackgroundMobile</title><g class="cls-1"><polygon class="cls-2" points="268.59 941.13 187.33 1081.87 349.85 1081.87 268.59 941.13"/><polygon class="cls-2" points="770.83 1164.07 915.5 913.5 626.17 913.5 770.83 1164.07"/></g><circle class="cls-3" cx="1002.93" cy="1348" r="62.09"/><g class="cls-1"><polyline class="cls-4" points="465.3 1329.72 453.71 1332.83 450.6 1344.42"/><line class="cls-5" x1="444.88" y1="1365.76" x2="401.99" y2="1525.83"/><polyline class="cls-4" points="399.13 1536.5 396.03 1548.1 407.62 1544.99"/><line class="cls-5" x1="428.96" y1="1539.27" x2="589.03" y2="1496.38"/><polyline class="cls-4" points="599.7 1493.52 611.29 1490.41 614.4 1478.82"/><line class="cls-6" x1="620.12" y1="1457.48" x2="663.01" y2="1297.41"/><polyline class="cls-4" points="665.87 1286.74 668.98 1275.15 657.38 1278.25"/><line class="cls-6" x1="636.04" y1="1283.97" x2="475.97" y2="1326.86"/><polyline class="cls-4" points="407.62 1544.99 396.03 1548.1 404.51 1556.58"/><line class="cls-7" x1="420.14" y1="1572.2" x2="537.32" y2="1689.38"/><polyline class="cls-4" points="545.13 1697.2 553.62 1705.68 565.21 1702.58"/><line class="cls-5" x1="586.55" y1="1696.86" x2="746.62" y2="1653.97"/><polyline class="cls-4" points="757.29 1651.11 768.88 1648 760.4 1639.52"/><line class="cls-7" x1="744.77" y1="1623.89" x2="627.59" y2="1506.71"/><polyline class="cls-4" points="619.78 1498.9 611.29 1490.41 599.7 1493.52"/><line class="cls-5" x1="578.36" y1="1499.24" x2="418.29" y2="1542.13"/><polyline class="cls-4" points="614.4 1478.82 611.29 1490.41 619.78 1498.9"/><line class="cls-7" x1="635.4" y1="1514.52" x2="752.58" y2="1631.7"/><polyline class="cls-4" points="760.4 1639.52 768.88 1648 771.99 1636.41"/><line class="cls-6" x1="777.71" y1="1615.07" x2="820.6" y2="1455"/><polyline class="cls-4" points="823.46 1444.32 826.56 1432.73 818.08 1424.25"/><line class="cls-7" x1="802.45" y1="1408.62" x2="685.27" y2="1291.44"/><polyline class="cls-4" points="677.46 1283.63 668.98 1275.15 665.87 1286.74"/><line class="cls-6" x1="660.15" y1="1308.08" x2="617.26" y2="1468.15"/></g><g class="cls-1"><polyline class="cls-4" points="224.35 1301.77 221.25 1290.18 209.65 1287.07"/><line class="cls-8" x1="186.5" y1="1280.87" x2="151.77" y2="1271.56"/><polyline class="cls-4" points="140.19 1268.46 128.6 1265.35 131.7 1276.94"/><line class="cls-8" x1="137.91" y1="1300.1" x2="147.21" y2="1334.83"/><polyline class="cls-4" points="150.32 1346.41 153.42 1358 165.01 1361.11"/><line class="cls-9" x1="188.17" y1="1367.31" x2="222.9" y2="1376.62"/><polyline class="cls-4" points="234.48 1379.72 246.07 1382.83 242.97 1371.23"/><line class="cls-9" x1="236.76" y1="1348.08" x2="227.45" y2="1313.35"/><polyline class="cls-4" points="131.7 1276.94 128.6 1265.35 120.11 1273.84"/><line class="cls-10" x1="103.16" y1="1290.79" x2="77.74" y2="1316.21"/><polyline class="cls-4" points="69.26 1324.69 60.77 1333.17 63.88 1344.77"/><line class="cls-8" x1="70.08" y1="1367.92" x2="79.39" y2="1402.65"/><polyline class="cls-4" points="82.49 1414.23 85.6 1425.82 94.08 1417.34"/><line class="cls-10" x1="111.04" y1="1400.39" x2="136.46" y2="1374.96"/><polyline class="cls-4" points="144.94 1366.48 153.42 1358 150.32 1346.41"/><line class="cls-8" x1="144.11" y1="1323.25" x2="134.81" y2="1288.52"/><polyline class="cls-4" points="165.01 1361.11 153.42 1358 144.94 1366.48"/><line class="cls-10" x1="127.99" y1="1383.44" x2="102.56" y2="1408.86"/><polyline class="cls-4" points="94.08 1417.34 85.6 1425.82 97.19 1428.93"/><line class="cls-9" x1="120.35" y1="1435.13" x2="155.08" y2="1444.44"/><polyline class="cls-4" points="166.66 1447.54 178.25 1450.65 186.73 1442.16"/><line class="cls-10" x1="203.68" y1="1425.21" x2="229.11" y2="1399.79"/><polyline class="cls-4" points="237.59 1391.31 246.07 1382.83 234.48 1379.72"/><line class="cls-9" x1="211.32" y1="1373.51" x2="176.59" y2="1364.21"/></g><path class="cls-11" d="M3,0V140H2.66V398.21A98.68,98.68,0,0,0,0,421V913.54c0,54.75,44.79,99.54,99.54,99.54h0a98.86,98.86,0,0,0,57.4-18.34h0a98.84,98.84,0,0,0,9.32-7.49l1.19-.86c66-47.5,158.13.18,158.13,81.51V1095c0,54.75,44.8,99.54,99.55,99.54h0c54.74,0,99.54-44.79,99.54-99.54v-26.58c0-65,68.2-108,126.51-79.25l1.89.94a100,100,0,0,0,23.36,14.5,98.62,98.62,0,0,0,40.06,8.47h0a98.7,98.7,0,0,0,40.07-8.47,100.32,100.32,0,0,0,27.18-17.84l2.1-1.1c65-33.28,142.18,14.58,142.18,87.61v175.18c0,54.75,44.79,99.54,99.54,99.54h0c54.75,0,99.54-44.79,99.54-99.54V0Z"/></svg>