<?xml version="1.0" encoding="utf-8"?>
<!-- Generator: Adobe Illustrator 23.0.0, SVG Export Plug-In . SVG Version: 6.00 Build 0)  -->
<svg version="1.1" id="Layer_1" xmlns="http://www.w3.org/2000/svg" xmlns:xlink="http://www.w3.org/1999/xlink" x="0px" y="0px"
	 viewBox="0 0 1920 1080" style="enable-background:new 0 0 1920 1080;" xml:space="preserve">
<style type="text/css">
	.st0{opacity:6.000000e-02;fill:#EF4648;enable-background:new    ;}
	.st1{opacity:0.25;}
	.st2{fill:none;stroke:#CC2A49;stroke-width:6;stroke-miterlimit:10;}
	.st3{fill:none;stroke:#EF4648;stroke-width:6;stroke-miterlimit:10;}
	.st4{fill:url(#SVGID_1_);}
</style>
<title>mainBackground</title>
<g>
	<g>
		<path class="st0" d="M1076.4,173.2H449.8c-45.2,0-81.8,36.6-81.9,81.8l0,0c0,45.2,36.7,81.9,81.9,81.9h223.3
			c26.8,0,49,16.4,45.7,41.2c-2.2,17.2-16,30.5-33.2,33.5c-39.3,6.8-68,40.8-68,80.7l0,0c0,18.7,6.4,36.9,18.2,51.4l0,0l0,0
			c2.7,3.4,5.8,6.6,9,9.5l0.9,1.1c24.3,32.3,0.8,78.6-39.7,78.6H181c-45.2,0-81.9,36.7-81.8,81.9l0,0l0,0
			c0,45.2,36.6,81.9,81.8,81.9h478c50.3,0,77.3,59.4,43.9,97c-0.8,0.9-1.3,1.4-1.3,1.4l0,0c-14.8,15.3-23.1,35.7-23.1,57l0,0
			c0,45.2,36.7,81.9,81.9,81.9h1176.7V173.2H1076.4z"/>
		<g class="st1">
			<line class="st2" x1="25.5" y1="237.6" x2="57.5" y2="269.6"/>
			<line class="st2" x1="57.5" y1="237.6" x2="25.5" y2="269.6"/>
			<line class="st2" x1="25.5" y1="192.4" x2="57.5" y2="224.4"/>
			<line class="st2" x1="57.5" y1="192.4" x2="25.5" y2="224.4"/>
			<line class="st2" x1="70.7" y1="192.4" x2="102.7" y2="224.4"/>
			<line class="st2" x1="102.7" y1="192.4" x2="70.7" y2="224.4"/>
			<line class="st2" x1="70.7" y1="237.6" x2="102.7" y2="269.6"/>
			<line class="st2" x1="102.7" y1="237.6" x2="70.7" y2="269.6"/>
			<line class="st2" x1="115.9" y1="237.6" x2="147.9" y2="269.6"/>
			<line class="st2" x1="147.9" y1="237.6" x2="115.9" y2="269.6"/>
			<line class="st2" x1="115.9" y1="192.4" x2="147.9" y2="224.4"/>
			<line class="st2" x1="147.9" y1="192.4" x2="115.9" y2="224.4"/>
			<line class="st2" x1="70.7" y1="282.8" x2="102.7" y2="314.8"/>
			<line class="st2" x1="102.7" y1="282.8" x2="70.7" y2="314.8"/>
			<line class="st2" x1="70.7" y1="328" x2="102.7" y2="360"/>
			<line class="st2" x1="102.7" y1="328" x2="70.7" y2="360"/>
			<line class="st2" x1="115.9" y1="328" x2="147.9" y2="360"/>
			<line class="st2" x1="147.9" y1="328" x2="115.9" y2="360"/>
			<line class="st2" x1="115.9" y1="282.8" x2="147.9" y2="314.8"/>
			<line class="st2" x1="147.9" y1="282.8" x2="115.9" y2="314.8"/>
			<line class="st2" x1="161.1" y1="192.4" x2="193.1" y2="224.4"/>
			<line class="st2" x1="193.1" y1="192.4" x2="161.1" y2="224.4"/>
			<line class="st2" x1="161.1" y1="237.6" x2="193.1" y2="269.6"/>
			<line class="st2" x1="193.1" y1="237.6" x2="161.1" y2="269.6"/>
			<line class="st2" x1="206.3" y1="237.6" x2="238.3" y2="269.6"/>
			<line class="st2" x1="238.3" y1="237.6" x2="206.3" y2="269.6"/>
			<line class="st2" x1="206.3" y1="192.4" x2="238.3" y2="224.4"/>
			<line class="st2" x1="238.3" y1="192.4" x2="206.3" y2="224.4"/>
			<line class="st2" x1="161.1" y1="282.8" x2="193.1" y2="314.8"/>
			<line class="st2" x1="193.1" y1="282.8" x2="161.1" y2="314.8"/>
			<line class="st2" x1="161.1" y1="328" x2="193.1" y2="360"/>
			<line class="st2" x1="193.1" y1="328" x2="161.1" y2="360"/>
			<line class="st2" x1="206.3" y1="328" x2="238.3" y2="360"/>
			<line class="st2" x1="238.3" y1="328" x2="206.3" y2="360"/>
			<line class="st2" x1="206.3" y1="282.8" x2="238.3" y2="314.8"/>
			<line class="st2" x1="238.3" y1="282.8" x2="206.3" y2="314.8"/>
			<line class="st2" x1="251.5" y1="192.4" x2="283.5" y2="224.4"/>
			<line class="st2" x1="283.5" y1="192.4" x2="251.5" y2="224.4"/>
			<line class="st2" x1="251.5" y1="237.6" x2="283.5" y2="269.6"/>
			<line class="st2" x1="283.5" y1="237.6" x2="251.5" y2="269.6"/>
			<line class="st2" x1="296.7" y1="237.6" x2="328.7" y2="269.6"/>
			<line class="st2" x1="328.7" y1="237.6" x2="296.7" y2="269.6"/>
			<line class="st2" x1="296.7" y1="192.4" x2="328.7" y2="224.4"/>
			<line class="st2" x1="328.7" y1="192.4" x2="296.7" y2="224.4"/>
			<line class="st2" x1="251.5" y1="282.8" x2="283.5" y2="314.8"/>
			<line class="st2" x1="283.5" y1="282.8" x2="251.5" y2="314.8"/>
			<line class="st2" x1="251.5" y1="328" x2="283.5" y2="360"/>
			<line class="st2" x1="283.5" y1="328" x2="251.5" y2="360"/>
			<line class="st2" x1="296.7" y1="328" x2="328.7" y2="360"/>
			<line class="st2" x1="328.7" y1="328" x2="296.7" y2="360"/>
			<line class="st2" x1="296.7" y1="282.8" x2="328.7" y2="314.8"/>
			<line class="st2" x1="328.7" y1="282.8" x2="296.7" y2="314.8"/>
			<line class="st2" x1="25.5" y1="328" x2="57.5" y2="360"/>
			<line class="st2" x1="57.5" y1="328" x2="25.5" y2="360"/>
			<line class="st2" x1="25.5" y1="282.8" x2="57.5" y2="314.8"/>
			<line class="st2" x1="57.5" y1="282.8" x2="25.5" y2="314.8"/>
		</g>
		<g class="st1">
			<line class="st3" x1="1049.3" y1="501.5" x2="998.7" y2="552.1"/>
			<line class="st3" x1="998.7" y1="501.5" x2="1049.3" y2="552.1"/>
			<line class="st3" x1="1049.3" y1="572.9" x2="998.7" y2="623.5"/>
			<line class="st3" x1="998.7" y1="572.9" x2="1049.3" y2="623.5"/>
			<line class="st3" x1="977.9" y1="572.9" x2="927.3" y2="623.5"/>
			<line class="st3" x1="927.3" y1="572.9" x2="977.9" y2="623.5"/>
			<line class="st3" x1="977.9" y1="501.5" x2="927.3" y2="552.1"/>
			<line class="st3" x1="927.3" y1="501.5" x2="977.9" y2="552.1"/>
			<line class="st3" x1="906.5" y1="501.5" x2="856" y2="552.1"/>
			<line class="st3" x1="856" y1="501.5" x2="906.5" y2="552.1"/>
			<line class="st3" x1="906.5" y1="572.9" x2="856" y2="623.5"/>
			<line class="st3" x1="856" y1="572.9" x2="906.5" y2="623.5"/>
			<line class="st3" x1="835.1" y1="572.9" x2="784.6" y2="623.5"/>
			<line class="st3" x1="784.6" y1="572.9" x2="835.1" y2="623.5"/>
			<line class="st3" x1="835.1" y1="501.5" x2="784.6" y2="552.1"/>
			<line class="st3" x1="784.6" y1="501.5" x2="835.1" y2="552.1"/>
			<line class="st3" x1="906.5" y1="644.3" x2="856" y2="694.9"/>
			<line class="st3" x1="856" y1="644.3" x2="906.5" y2="694.9"/>
			<line class="st3" x1="906.5" y1="715.7" x2="856" y2="766.3"/>
			<line class="st3" x1="856" y1="715.7" x2="906.5" y2="766.3"/>
			<line class="st3" x1="835.1" y1="715.7" x2="784.6" y2="766.3"/>
			<line class="st3" x1="784.6" y1="715.7" x2="835.1" y2="766.3"/>
			<line class="st3" x1="835.1" y1="644.3" x2="784.6" y2="694.9"/>
			<line class="st3" x1="784.6" y1="644.3" x2="835.1" y2="694.9"/>
			<line class="st3" x1="763.7" y1="501.5" x2="713.2" y2="552.1"/>
			<line class="st3" x1="713.2" y1="501.5" x2="763.7" y2="552.1"/>
			<line class="st3" x1="763.7" y1="572.9" x2="713.2" y2="623.5"/>
			<line class="st3" x1="713.2" y1="572.9" x2="763.7" y2="623.5"/>
			<line class="st3" x1="692.3" y1="572.9" x2="641.8" y2="623.5"/>
			<line class="st3" x1="641.8" y1="572.9" x2="692.3" y2="623.5"/>
			<line class="st3" x1="692.3" y1="501.5" x2="641.8" y2="552.1"/>
			<line class="st3" x1="641.8" y1="501.5" x2="692.3" y2="552.1"/>
			<line class="st3" x1="763.7" y1="644.3" x2="713.2" y2="694.9"/>
			<line class="st3" x1="713.2" y1="644.3" x2="763.7" y2="694.9"/>
			<line class="st3" x1="763.7" y1="715.7" x2="713.2" y2="766.3"/>
			<line class="st3" x1="713.2" y1="715.7" x2="763.7" y2="766.3"/>
			<line class="st3" x1="692.3" y1="715.7" x2="641.8" y2="766.3"/>
			<line class="st3" x1="641.8" y1="715.7" x2="692.3" y2="766.3"/>
			<line class="st3" x1="692.3" y1="644.3" x2="641.8" y2="694.9"/>
			<line class="st3" x1="641.8" y1="644.3" x2="692.3" y2="694.9"/>
			<line class="st3" x1="620.9" y1="501.5" x2="570.4" y2="552.1"/>
			<line class="st3" x1="570.4" y1="501.5" x2="620.9" y2="552.1"/>
			<line class="st3" x1="620.9" y1="572.9" x2="570.4" y2="623.5"/>
			<line class="st3" x1="570.4" y1="572.9" x2="620.9" y2="623.5"/>
			<line class="st3" x1="549.5" y1="572.9" x2="499" y2="623.5"/>
			<line class="st3" x1="499" y1="572.9" x2="549.5" y2="623.5"/>
			<line class="st3" x1="549.5" y1="501.5" x2="499" y2="552.1"/>
			<line class="st3" x1="499" y1="501.5" x2="549.5" y2="552.1"/>
			<line class="st3" x1="620.9" y1="644.3" x2="570.4" y2="694.9"/>
			<line class="st3" x1="570.4" y1="644.3" x2="620.9" y2="694.9"/>
			<line class="st3" x1="620.9" y1="715.7" x2="570.4" y2="766.3"/>
			<line class="st3" x1="570.4" y1="715.7" x2="620.9" y2="766.3"/>
			<line class="st3" x1="549.5" y1="715.7" x2="499" y2="766.3"/>
			<line class="st3" x1="499" y1="715.7" x2="549.5" y2="766.3"/>
			<line class="st3" x1="549.5" y1="644.3" x2="499" y2="694.9"/>
			<line class="st3" x1="499" y1="644.3" x2="549.5" y2="694.9"/>
			<line class="st3" x1="1049.3" y1="644.3" x2="998.7" y2="694.9"/>
			<line class="st3" x1="998.7" y1="644.3" x2="1049.3" y2="694.9"/>
			<line class="st3" x1="1049.3" y1="715.7" x2="998.7" y2="766.3"/>
			<line class="st3" x1="998.7" y1="715.7" x2="1049.3" y2="766.3"/>
			<line class="st3" x1="977.9" y1="715.7" x2="927.3" y2="766.3"/>
			<line class="st3" x1="927.3" y1="715.7" x2="977.9" y2="766.3"/>
			<line class="st3" x1="977.9" y1="644.3" x2="927.3" y2="694.9"/>
			<line class="st3" x1="927.3" y1="644.3" x2="977.9" y2="694.9"/>
		</g>
		<g class="st1">
			<line class="st2" x1="1450.8" y1="176.2" x2="1418.8" y2="208.2"/>
			<line class="st2" x1="1418.8" y1="176.2" x2="1450.8" y2="208.2"/>
			<line class="st2" x1="1450.8" y1="221.4" x2="1418.8" y2="253.4"/>
			<line class="st2" x1="1418.8" y1="221.4" x2="1450.8" y2="253.4"/>
			<line class="st2" x1="1405.6" y1="221.4" x2="1373.6" y2="253.4"/>
			<line class="st2" x1="1373.6" y1="221.4" x2="1405.6" y2="253.4"/>
			<line class="st2" x1="1405.6" y1="176.2" x2="1373.6" y2="208.2"/>
			<line class="st2" x1="1373.6" y1="176.2" x2="1405.6" y2="208.2"/>
			<line class="st2" x1="1360.4" y1="176.2" x2="1328.4" y2="208.2"/>
			<line class="st2" x1="1328.4" y1="176.2" x2="1360.4" y2="208.2"/>
			<line class="st2" x1="1360.4" y1="221.4" x2="1328.4" y2="253.4"/>
			<line class="st2" x1="1328.4" y1="221.4" x2="1360.4" y2="253.4"/>
			<line class="st2" x1="1315.2" y1="221.4" x2="1283.2" y2="253.4"/>
			<line class="st2" x1="1283.2" y1="221.4" x2="1315.2" y2="253.4"/>
			<line class="st2" x1="1315.2" y1="176.2" x2="1283.2" y2="208.2"/>
			<line class="st2" x1="1283.2" y1="176.2" x2="1315.2" y2="208.2"/>
			<line class="st2" x1="1360.4" y1="266.6" x2="1328.4" y2="298.6"/>
			<line class="st2" x1="1328.4" y1="266.6" x2="1360.4" y2="298.6"/>
			<line class="st2" x1="1360.4" y1="311.8" x2="1328.4" y2="343.8"/>
			<line class="st2" x1="1328.4" y1="311.8" x2="1360.4" y2="343.8"/>
			<line class="st2" x1="1315.2" y1="311.8" x2="1283.2" y2="343.8"/>
			<line class="st2" x1="1283.2" y1="311.8" x2="1315.2" y2="343.8"/>
			<line class="st2" x1="1315.2" y1="266.6" x2="1283.2" y2="298.6"/>
			<line class="st2" x1="1283.2" y1="266.6" x2="1315.2" y2="298.6"/>
			<line class="st2" x1="1270" y1="176.2" x2="1238" y2="208.2"/>
			<line class="st2" x1="1238" y1="176.2" x2="1270" y2="208.2"/>
			<line class="st2" x1="1270" y1="221.4" x2="1238" y2="253.4"/>
			<line class="st2" x1="1238" y1="221.4" x2="1270" y2="253.4"/>
			<line class="st2" x1="1224.8" y1="221.4" x2="1192.8" y2="253.4"/>
			<line class="st2" x1="1192.8" y1="221.4" x2="1224.8" y2="253.4"/>
			<line class="st2" x1="1224.8" y1="176.2" x2="1192.8" y2="208.2"/>
			<line class="st2" x1="1192.8" y1="176.2" x2="1224.8" y2="208.2"/>
			<line class="st2" x1="1270" y1="266.6" x2="1238" y2="298.6"/>
			<line class="st2" x1="1238" y1="266.6" x2="1270" y2="298.6"/>
			<line class="st2" x1="1270" y1="311.8" x2="1238" y2="343.8"/>
			<line class="st2" x1="1238" y1="311.8" x2="1270" y2="343.8"/>
			<line class="st2" x1="1224.8" y1="311.8" x2="1192.8" y2="343.8"/>
			<line class="st2" x1="1192.8" y1="311.8" x2="1224.8" y2="343.8"/>
			<line class="st2" x1="1224.8" y1="266.6" x2="1192.8" y2="298.6"/>
			<line class="st2" x1="1192.8" y1="266.6" x2="1224.8" y2="298.6"/>
			<line class="st2" x1="1179.6" y1="176.2" x2="1147.6" y2="208.2"/>
			<line class="st2" x1="1147.6" y1="176.2" x2="1179.6" y2="208.2"/>
			<line class="st2" x1="1179.6" y1="221.4" x2="1147.6" y2="253.4"/>
			<line class="st2" x1="1147.6" y1="221.4" x2="1179.6" y2="253.4"/>
			<line class="st2" x1="1134.4" y1="221.4" x2="1102.4" y2="253.4"/>
			<line class="st2" x1="1102.4" y1="221.4" x2="1134.4" y2="253.4"/>
			<line class="st2" x1="1134.4" y1="176.2" x2="1102.4" y2="208.2"/>
			<line class="st2" x1="1102.4" y1="176.2" x2="1134.4" y2="208.2"/>
			<line class="st2" x1="1179.6" y1="266.6" x2="1147.6" y2="298.6"/>
			<line class="st2" x1="1147.6" y1="266.6" x2="1179.6" y2="298.6"/>
			<line class="st2" x1="1179.6" y1="311.8" x2="1147.6" y2="343.8"/>
			<line class="st2" x1="1147.6" y1="311.8" x2="1179.6" y2="343.8"/>
			<line class="st2" x1="1134.4" y1="311.8" x2="1102.4" y2="343.8"/>
			<line class="st2" x1="1102.4" y1="311.8" x2="1134.4" y2="343.8"/>
			<line class="st2" x1="1134.4" y1="266.6" x2="1102.4" y2="298.6"/>
			<line class="st2" x1="1102.4" y1="266.6" x2="1134.4" y2="298.6"/>
			<line class="st2" x1="1450.8" y1="266.6" x2="1418.8" y2="298.6"/>
			<line class="st2" x1="1418.8" y1="266.6" x2="1450.8" y2="298.6"/>
			<line class="st2" x1="1450.8" y1="311.8" x2="1418.8" y2="343.8"/>
			<line class="st2" x1="1418.8" y1="311.8" x2="1450.8" y2="343.8"/>
			<line class="st2" x1="1405.6" y1="311.8" x2="1373.6" y2="343.8"/>
			<line class="st2" x1="1373.6" y1="311.8" x2="1405.6" y2="343.8"/>
			<line class="st2" x1="1405.6" y1="266.6" x2="1373.6" y2="298.6"/>
			<line class="st2" x1="1373.6" y1="266.6" x2="1405.6" y2="298.6"/>
		</g>
		<g class="st1">
			<line class="st2" x1="1299.2" y1="911.6" x2="1331.2" y2="943.6"/>
			<line class="st2" x1="1331.2" y1="911.6" x2="1299.2" y2="943.6"/>
			<line class="st2" x1="1299.2" y1="866.4" x2="1331.2" y2="898.4"/>
			<line class="st2" x1="1331.2" y1="866.4" x2="1299.2" y2="898.4"/>
			<line class="st2" x1="1344.4" y1="866.4" x2="1376.4" y2="898.4"/>
			<line class="st2" x1="1376.4" y1="866.4" x2="1344.4" y2="898.4"/>
			<line class="st2" x1="1344.4" y1="911.6" x2="1376.4" y2="943.6"/>
			<line class="st2" x1="1376.4" y1="911.6" x2="1344.4" y2="943.6"/>
			<line class="st2" x1="1389.6" y1="911.6" x2="1421.6" y2="943.6"/>
			<line class="st2" x1="1421.6" y1="911.6" x2="1389.6" y2="943.6"/>
			<line class="st2" x1="1389.6" y1="866.4" x2="1421.6" y2="898.4"/>
			<line class="st2" x1="1421.6" y1="866.4" x2="1389.6" y2="898.4"/>
			<line class="st2" x1="1344.4" y1="956.8" x2="1376.4" y2="988.8"/>
			<line class="st2" x1="1376.4" y1="956.8" x2="1344.4" y2="988.8"/>
			<line class="st2" x1="1344.4" y1="1002" x2="1376.4" y2="1034"/>
			<line class="st2" x1="1376.4" y1="1002" x2="1344.4" y2="1034"/>
			<line class="st2" x1="1389.6" y1="1002" x2="1421.6" y2="1034"/>
			<line class="st2" x1="1421.6" y1="1002" x2="1389.6" y2="1034"/>
			<line class="st2" x1="1389.6" y1="956.8" x2="1421.6" y2="988.8"/>
			<line class="st2" x1="1421.6" y1="956.8" x2="1389.6" y2="988.8"/>
			<line class="st2" x1="1434.8" y1="866.4" x2="1466.8" y2="898.4"/>
			<line class="st2" x1="1466.8" y1="866.4" x2="1434.8" y2="898.4"/>
			<line class="st2" x1="1434.8" y1="911.6" x2="1466.8" y2="943.6"/>
			<line class="st2" x1="1466.8" y1="911.6" x2="1434.8" y2="943.6"/>
			<line class="st2" x1="1480" y1="911.6" x2="1512" y2="943.6"/>
			<line class="st2" x1="1512" y1="911.6" x2="1480" y2="943.6"/>
			<line class="st2" x1="1480" y1="866.4" x2="1512" y2="898.4"/>
			<line class="st2" x1="1512" y1="866.4" x2="1480" y2="898.4"/>
			<line class="st2" x1="1434.8" y1="956.8" x2="1466.8" y2="988.8"/>
			<line class="st2" x1="1466.8" y1="956.8" x2="1434.8" y2="988.8"/>
			<line class="st2" x1="1434.8" y1="1002" x2="1466.8" y2="1034"/>
			<line class="st2" x1="1466.8" y1="1002" x2="1434.8" y2="1034"/>
			<line class="st2" x1="1480" y1="1002" x2="1512" y2="1034"/>
			<line class="st2" x1="1512" y1="1002" x2="1480" y2="1034"/>
			<line class="st2" x1="1480" y1="956.8" x2="1512" y2="988.8"/>
			<line class="st2" x1="1512" y1="956.8" x2="1480" y2="988.8"/>
			<line class="st2" x1="1525.2" y1="866.4" x2="1557.2" y2="898.4"/>
			<line class="st2" x1="1557.2" y1="866.4" x2="1525.2" y2="898.4"/>
			<line class="st2" x1="1525.2" y1="911.6" x2="1557.2" y2="943.6"/>
			<line class="st2" x1="1557.2" y1="911.6" x2="1525.2" y2="943.6"/>
			<line class="st2" x1="1570.4" y1="911.6" x2="1602.4" y2="943.6"/>
			<line class="st2" x1="1602.4" y1="911.6" x2="1570.4" y2="943.6"/>
			<line class="st2" x1="1570.4" y1="866.4" x2="1602.4" y2="898.4"/>
			<line class="st2" x1="1602.4" y1="866.4" x2="1570.4" y2="898.4"/>
			<line class="st2" x1="1525.2" y1="956.8" x2="1557.2" y2="988.8"/>
			<line class="st2" x1="1557.2" y1="956.8" x2="1525.2" y2="988.8"/>
			<line class="st2" x1="1525.2" y1="1002" x2="1557.2" y2="1034"/>
			<line class="st2" x1="1557.2" y1="1002" x2="1525.2" y2="1034"/>
			<line class="st2" x1="1570.4" y1="1002" x2="1602.4" y2="1034"/>
			<line class="st2" x1="1602.4" y1="1002" x2="1570.4" y2="1034"/>
			<line class="st2" x1="1570.4" y1="956.8" x2="1602.4" y2="988.8"/>
			<line class="st2" x1="1602.4" y1="956.8" x2="1570.4" y2="988.8"/>
			<line class="st2" x1="1299.2" y1="1002" x2="1331.2" y2="1034"/>
			<line class="st2" x1="1331.2" y1="1002" x2="1299.2" y2="1034"/>
			<line class="st2" x1="1299.2" y1="956.8" x2="1331.2" y2="988.8"/>
			<line class="st2" x1="1331.2" y1="956.8" x2="1299.2" y2="988.8"/>
		</g>
		
			<linearGradient id="SVGID_1_" gradientUnits="userSpaceOnUse" x1="2348.6636" y1="1763.3364" x2="1110.5236" y2="525.1865" gradientTransform="matrix(1 0 0 1 0 2)">
			<stop  offset="0.61" style="stop-color:#CC2A49"/>
			<stop  offset="1" style="stop-color:#F36F38"/>
		</linearGradient>
		<path class="st4" d="M1100,187H503c-43.1,0-78,34.9-78,78l0,0c0,43.1,34.9,78,78,78h212.8c25.6,0,46.6,15.7,43.6,39.2
			c-2.1,16.4-15.3,29.1-31.6,31.9C690.3,420.6,663,453,663,491l0,0c0,17.8,6.1,35.1,17.3,49l0,0l0,0c2.6,3.2,5.5,6.2,8.6,9l0.8,1.1
			c23.2,30.8,0.7,74.9-37.8,74.9H247c-43.1,0-78,34.9-78,78l0,0c0,43.1,34.9,78,78,78h455.3c47.9,0,73.6,56.6,41.9,92.4
			c-0.8,0.8-1.2,1.3-1.2,1.3l0,0c-14.1,14.5-22,34-22,54.3l0,0c0,43.1,34.9,78,78,78h1121V187H1100z"/>
	</g>
</g>
</svg>
