<?xml version="1.0" encoding="utf-8"?>
<!-- Generator: Adobe Illustrator 23.0.0, SVG Export Plug-In . SVG Version: 6.00 Build 0)  -->
<svg version="1.1" id="Layer_1" xmlns="http://www.w3.org/2000/svg" xmlns:xlink="http://www.w3.org/1999/xlink" x="0px" y="0px"
	 viewBox="0 0 1125 1852.3" style="enable-background:new 0 0 1125 1852.3;" xml:space="preserve">
<style type="text/css">
	.st0{opacity:0.25;}
	.st1{fill:none;stroke:#F36F38;stroke-width:5;stroke-miterlimit:10;}
	
		.st2{opacity:0.25;fill:none;stroke:#F36F38;stroke-width:5;stroke-linecap:round;stroke-linejoin:round;enable-background:new    ;}
	.st3{fill:none;stroke:#F36F38;stroke-width:5;stroke-linecap:round;stroke-linejoin:round;}
	.st4{fill:none;stroke:#F36F38;stroke-width:5;stroke-linecap:round;stroke-linejoin:round;stroke-dasharray:22.1,22.1;}
	.st5{fill:none;stroke:#F36F38;stroke-width:5;stroke-linecap:round;stroke-linejoin:round;stroke-dasharray:23.97,23.97;}
	.st6{fill:url(#SVGID_1_);}
	.st7{fill:#F26F38;}
	.st8{fill:#F89D4C;}
	.st9{fill:#EE4648;}
	.st10{fill:#CB2A49;}
	.st11{fill:#582841;}
	.st12{fill:#72172D;}
	.st13{fill:#751C32;}
	.st14{fill:#CC6D1F;}
	.st15{fill:none;stroke:#A54C7F;stroke-width:3;stroke-miterlimit:10;}
</style>
<title>sect3Background</title>
<g class="st0">
	<polygon class="st1" points="1045.4,475.3 1003.4,318.4 888.5,433.3 	"/>
	<polygon class="st1" points="532.6,672.8 607.5,952.3 812.1,747.7 	"/>
</g>
<circle class="st2" cx="238.5" cy="706.9" r="62.1"/>
<g class="st0">
	<polyline class="st3" points="631.5,339.7 637.5,329.3 631.5,318.9 	"/>
	<line class="st4" x1="620.5" y1="299.7" x2="537.7" y2="156.2"/>
	<polyline class="st3" points="532.1,146.7 526.1,136.3 520.1,146.7 	"/>
	<line class="st4" x1="509.1" y1="165.8" x2="426.2" y2="309.3"/>
	<polyline class="st3" points="420.7,318.9 414.7,329.3 420.7,339.7 	"/>
	<line class="st4" x1="431.7" y1="358.8" x2="514.6" y2="502.3"/>
	<polyline class="st3" points="520.1,511.9 526.1,522.3 532.1,511.9 	"/>
	<line class="st4" x1="543.2" y1="492.8" x2="626" y2="349.2"/>
	<polyline class="st3" points="520.1,146.7 526.1,136.3 514.1,136.3 	"/>
	<line class="st4" x1="492" y1="136.3" x2="326.3" y2="136.3"/>
	<polyline class="st3" points="315.3,136.3 303.3,136.3 297.3,146.7 	"/>
	<line class="st4" x1="286.2" y1="165.8" x2="203.4" y2="309.3"/>
	<polyline class="st3" points="197.8,318.9 191.8,329.3 203.8,329.3 	"/>
	<line class="st4" x1="225.9" y1="329.3" x2="391.6" y2="329.3"/>
	<polyline class="st3" points="402.7,329.3 414.7,329.3 420.7,318.9 	"/>
	<line class="st4" x1="431.7" y1="299.7" x2="514.6" y2="156.2"/>
	<polyline class="st3" points="420.7,339.7 414.7,329.3 402.7,329.3 	"/>
	<line class="st4" x1="380.6" y1="329.3" x2="214.9" y2="329.3"/>
	<polyline class="st3" points="203.8,329.3 191.8,329.3 197.8,339.7 	"/>
	<line class="st4" x1="208.9" y1="358.8" x2="291.7" y2="502.3"/>
	<polyline class="st3" points="297.3,511.9 303.3,522.3 315.3,522.3 	"/>
	<line class="st4" x1="337.4" y1="522.3" x2="503.1" y2="522.3"/>
	<polyline class="st3" points="514.1,522.3 526.1,522.3 520.1,511.9 	"/>
	<line class="st4" x1="509.1" y1="492.8" x2="426.2" y2="349.2"/>
</g>
<g class="st0">
	<polyline class="st3" points="821.7,189.1 832.1,195.1 842.5,189.1 	"/>
	<line class="st5" x1="863.2" y1="177.1" x2="894.4" y2="159.1"/>
	<polyline class="st3" points="904.8,153.1 915.2,147.1 904.8,141.1 	"/>
	<line class="st5" x1="884" y1="129.1" x2="852.9" y2="111.1"/>
	<polyline class="st3" points="842.5,105.1 832.1,99.1 821.7,105.1 	"/>
	<line class="st5" x1="800.9" y1="117.1" x2="769.8" y2="135.1"/>
	<polyline class="st3" points="759.4,141.1 749,147.1 759.4,153.1 	"/>
	<line class="st5" x1="780.2" y1="165.1" x2="811.3" y2="183.1"/>
	<polyline class="st3" points="904.8,141.1 915.2,147.1 915.2,135.1 	"/>
	<line class="st5" x1="915.2" y1="111.1" x2="915.2" y2="75.2"/>
	<polyline class="st3" points="915.2,63.2 915.2,51.2 904.8,45.2 	"/>
	<line class="st5" x1="884" y1="33.2" x2="852.9" y2="15.2"/>
	<polyline class="st3" points="842.5,9.2 832.1,3.2 832.1,15.2 	"/>
	<line class="st5" x1="832.1" y1="39.2" x2="832.1" y2="75.2"/>
	<polyline class="st3" points="832.1,87.1 832.1,99.1 842.5,105.1 	"/>
	<line class="st5" x1="863.2" y1="117.1" x2="894.4" y2="135.1"/>
	<polyline class="st3" points="821.7,105.1 832.1,99.1 832.1,87.1 	"/>
	<line class="st5" x1="832.1" y1="63.2" x2="832.1" y2="27.2"/>
	<polyline class="st3" points="832.1,15.2 832.1,3.2 821.7,9.2 	"/>
	<line class="st5" x1="800.9" y1="21.2" x2="769.8" y2="39.2"/>
	<polyline class="st3" points="759.4,45.2 749,51.2 749,63.2 	"/>
	<line class="st5" x1="749" y1="87.2" x2="749" y2="123.1"/>
	<polyline class="st3" points="749,135.1 749,147.1 759.4,141.1 	"/>
	<line class="st5" x1="780.2" y1="129.1" x2="811.3" y2="111.1"/>
</g>
<linearGradient id="SVGID_1_" gradientUnits="userSpaceOnUse" x1="-1" y1="970.1879" x2="1126.05" y2="970.1879" gradientTransform="matrix(1 0 0 -1 0 1852)">
	<stop  offset="3.000000e-02" style="stop-color:#CC2A49"/>
	<stop  offset="1" style="stop-color:#F36F38"/>
</linearGradient>
<path class="st6" d="M1026.5,347.8L1026.5,347.8c-20.6,0-40.6,6-57.4,17.1l0,0c-3.3,2.2-6.4,4.5-9.3,7l-1.2,0.8
	c-66,44.4-158.1-0.2-158.1-76.2v-25.3c0-51.2-44.8-93-99.5-93l0,0c-54.8,0-99.5,41.9-99.5,93v24.8c0,60.7-68.2,100.9-126.5,74.1
	l-1.9-0.9c-7.1-5.5-14.9-10.1-23.4-13.5c-12.6-5.2-26.3-7.9-40.1-7.9l0,0c-13.8,0-27.4,2.7-40.1,7.9c-10,4.1-19.2,9.8-27.2,16.7
	l-2.1,1c-65,31.1-142.2-13.6-142.2-81.9V127.9c0-51.2-44.8-93-99.5-93l0,0C43.7,34.8-1,76.7-1,127.9v1194.9c0,51.2,44.8,93,99.5,93
	l0,0c20.6,0,40.6-6,57.4-17.1l0,0c3.3-2.2,6.4-4.5,9.3-7l1.2-0.8c66-44.4,158.1,0.2,158.1,76.2v25.3c0,51.2,44.8,93,99.5,93l0,0
	c54.8,0,99.6-41.9,99.6-93v-24.8c0-60.7,68.2-100.9,126.5-74.1l1.9,0.9c7.1,5.5,14.9,10,23.3,13.4c12.6,5.2,26.3,7.9,40.1,7.9l0,0
	c13.8,0,27.4-2.7,40.1-7.9c10-4.1,19.2-9.8,27.2-16.7l2.1-1c65-31.1,142.2,13.6,142.2,81.9v163.7c0,51.2,44.8,93,99.5,93l0,0
	c54.8,0,99.5-41.9,99.5-93V440.9C1126.1,389.7,1081.3,347.8,1026.5,347.8z"/>
<g>
	<polygon class="st7" points="562.4,886 186.6,1102.9 562.4,1319.9 938.2,1102.9 	"/>
	<polygon class="st8" points="562.4,835.4 186.6,1052.4 562.4,1269.4 938.2,1052.4 	"/>
	<polygon class="st9" points="186.6,1052.4 186.6,1102.9 562.4,1319.9 562.4,1269.4 	"/>
	<polygon class="st10" points="938.2,1052.4 938.2,1102.9 562.4,1319.9 562.4,1269.4 	"/>
	<polygon class="st10" points="1042.7,992.2 1042.7,1042.7 666.9,1259.7 666.9,1209.2 	"/>
	<polygon class="st11" points="334.5,1004.9 308.3,720.2 321.4,720.2 347.6,1004.9 	"/>
	<path class="st12" d="M286.2,660.3C139.8,691.2,68.7,886,68.7,886c101.3-47.5,180.1,0,180.1,0S247.2,715.4,286.2,660.3z"/>
	<path class="st10" d="M301.7,657.7c-5.3,0.7-10.4,1.5-15.5,2.6c-39,55.1-37.5,225.7-37.5,225.7c84.4-58.8,189.4-31.3,189.4-31.3
		S392.1,703.8,301.7,657.7z"/>
	<path class="st12" d="M301.7,657.7c90.4,46,136.5,196.9,136.5,196.9c27.4-68.3,124.2-73.1,124.2-73.1
		C458.9,678.1,372.2,648.9,301.7,657.7z"/>
	<path class="st11" d="M1042.1,992.4l-375.8-217l-103.9,60l0,0c-0.5,0.5-38.3,36-6.5,77.5c31.9,41.8,83.7,9.1,123.2,28.1
		s10.7,65.4,40.3,86c29.7,20.5,111.1-12.2,130.1,5.3c19,17.5,14.4,23.6,26.6,33.5c12.2,9.9,21.2,10.1,21.2,10.1l14.2-8.2l0,0
		L1042.1,992.4z"/>
	<circle class="st8" cx="720.2" cy="524.1" r="85.6"/>
	<path class="st13" d="M921.7,599.8c0,0-8.6-82.7-82.8-82.7s-86.2,86.2-86.2,86.2s-33.7-4.7-52.2,20.6c-13,17.9,0.2,43.2,22.4,42.8
		h228.7c22.3,0,35.1-25.5,21.6-43.3C963.5,610.5,947.6,599.8,921.7,599.8z M823.8,600.4l-34,13.6l33.8,13.6v11.5l-48.9-20.3V609
		l48.9-20.2L823.8,600.4z M839.2,645.5h-10.1l14.7-62.7H854L839.2,645.5z M908.3,618.8l-48.9,20.3v-11.5l33.8-13.6l-33.8-13.6v-11.6
		l48.9,20.3L908.3,618.8z"/>
	<path class="st13" d="M669.9,548.6c0,0-8.6-82.7-82.7-82.7S501,552.1,501,552.1s-33.7-4.7-52.2,20.6c-13.1,17.9,0.2,43.2,22.3,42.8
		h228.7c22.3,0,35.1-25.5,21.6-43.3C711.8,559.2,695.9,548.6,669.9,548.6z M572.2,513.5c-4.3,0-7,0.4-8.2,1.3
		c-1.2,0.9-1.7,2.8-1.7,5.7c0,9.5-0.6,15.9-1.8,19.3c-1.4,3.6-4,6.6-7.3,8.6c3,1.6,5.4,4.1,6.8,7.2c1.6,3.2,2.3,10.1,2.3,20.6
		c-0.2,1.7,0.2,3.3,1,4.8c0.7,0.9,1.6,1.5,2.7,1.8c2,0.4,4.1,0.5,6.1,0.4v11.7h-2.5c-5.6,0-9.8-0.7-12.7-2.2
		c-2.7-1.2-4.8-3.5-5.7-6.3c-1-2.7-1.5-7.4-1.5-14.1c0.1-3.7-0.2-7.4-0.8-11c-0.4-2-1.5-3.8-3-5.1c-2-1.3-4.3-2-6.7-2v-11.6
		c3.6,0,6.2-1,7.7-3.1c1.5-2,2.3-4.3,2.5-6.8c0.2-2.5,0.3-5.3,0.3-8.3c-0.1-4,0.2-8,0.8-11.9c0.4-2.2,1.5-4.3,3-6
		c1.7-1.6,3.7-2.8,5.9-3.5c3.3-0.8,6.7-1.2,10.1-1.2h2.5L572.2,513.5z M635.5,554.2c-2.4-0.1-4.7,0.6-6.6,1.9
		c-1.6,1.3-2.7,3.1-3.1,5.1c-0.7,3.6-1,7.3-0.8,11c0.1,4-0.1,8-0.8,11.9c-0.4,2.2-1.5,4.3-3,6c-1.7,1.7-3.7,2.9-6,3.5
		c-3.3,0.9-6.7,1.3-10.1,1.2h-2.5v-11.6c4.1,0,6.8-0.4,8-1.3s1.9-2.8,1.9-5.7c0-9.3,0.6-15.7,1.8-19.3c1.2-3.7,3.8-6.7,7.2-8.6
		c-3.6-1.9-6.3-5.3-7.5-9.2c-1.1-3.7-1.6-10-1.6-18.7c0-3.1-0.6-5-1.8-5.8c-1.2-0.8-3.9-1.2-8.1-1.2v-11.6h2.5
		c6.5,0,10.9,0.8,13.3,2.3c2.2,1.4,3.9,3.3,5.1,5.6c1,2.2,1.6,7,1.5,14.5c-0.1,3.7,0.2,7.4,0.8,11c0.4,2,1.5,3.8,3.1,5.1
		c2,1.3,4.3,2,6.7,2L635.5,554.2z"/>
	<path class="st14" d="M476.9,1145.2l-56.5,15.2l-39.8-39.8l56.5-15.2L476.9,1145.2z M403,1071.3l-56.5,15.2l-39.8-39.8l56.5-15.2
		L403,1071.3z"/>
	<path class="st14" d="M648.4,1154.8l-284.4-165l45.8-12.3l284.9,164.9L648.4,1154.8z"/>
	<path class="st14" d="M771.7,1121.7l-284.3-165l45.8-12.3L818,1109.3L771.7,1121.7z"/>
	<path class="st10" d="M403.1,975.8c6-30.7,28.2-40.7,44-43.7c-2-3.9-3-8.3-3-12.7c-23.5-6.3-47.6,7.6-53.9,31.1
		c-2,7.3-2,15-0.1,22.4C394.6,972.8,399.1,973.8,403.1,975.8z"/>
	<path class="st10" d="M463.8,993c11.1-11.1,15.5-27.3,11.4-42.5c-4.4,0-8.7-1.1-12.7-3c-3.1,15.8-13,38-43.8,44
		c2,4.1,3,8.5,2.9,13.1C436.8,1008.4,452.8,1004,463.8,993z"/>
	<path class="st9" d="M447.1,932.1c-15.8,3.1-38,13-44,43.7c6.8,3.3,12.3,8.8,15.6,15.6c30.7-6,40.6-28.2,43.8-44
		C455.8,944.2,450.4,938.8,447.1,932.1L447.1,932.1z"/>
	<path class="st7" d="M463.8,930.8c-5.4-5.5-12.2-9.4-19.7-11.4c0,4.4,1.1,8.7,3,12.7c3.3,6.7,8.7,12.1,15.4,15.4
		c3.9,2,8.3,3,12.7,3C473.2,943,469.3,936.2,463.8,930.8z"/>
	<path class="st7" d="M418.8,991.4c-3.3-6.8-8.8-12.3-15.6-15.6c-4.1-2-8.5-3-13.1-2.9c4,15.5,16.1,27.6,31.6,31.6
		C421.8,1000,420.8,995.5,418.8,991.4z"/>
	<circle class="st15" cx="667.6" cy="836.5" r="14.9"/>
	<circle class="st15" cx="656.4" cy="895.7" r="14.2"/>
	<circle class="st15" cx="738.6" cy="901.9" r="11.7"/>
	<circle class="st15" cx="891.1" cy="938.8" r="14.7"/>
	<circle class="st15" cx="830" cy="977.3" r="7"/>
	<circle class="st15" cx="895.5" cy="1007.4" r="19.1"/>
	<line class="st15" x1="695.4" y1="858.4" x2="709.5" y2="872.5"/>
	<line class="st15" x1="711.4" y1="852.5" x2="715" y2="868.9"/>
	<line class="st15" x1="722.8" y1="852.5" x2="721.3" y2="868.9"/>
	<line class="st15" x1="818.5" y1="933" x2="822.5" y2="952.6"/>
	<line class="st15" x1="835" y1="936.9" x2="829" y2="952.6"/>
	<line class="st15" x1="844.6" y1="943.2" x2="834.3" y2="956"/>
</g>
</svg>
