<svg id="Layer_1" data-name="Layer 1" xmlns="http://www.w3.org/2000/svg" xmlns:xlink="http://www.w3.org/1999/xlink" viewBox="0 0 1125 1852.29"><defs><style>.cls-1{fill:url(#linear-gradient);}.cls-2,.cls-4{opacity:0.25;}.cls-10,.cls-11,.cls-3,.cls-4,.cls-5,.cls-6,.cls-7,.cls-8,.cls-9{fill:none;stroke:#f36f38;stroke-width:5px;}.cls-3{stroke-miterlimit:10;}.cls-10,.cls-11,.cls-4,.cls-5,.cls-6,.cls-7,.cls-8,.cls-9{stroke-linecap:round;stroke-linejoin:round;}.cls-6{stroke-dasharray:22.1 22.1;}.cls-7{stroke-dasharray:22.1 22.1;}.cls-8{stroke-dasharray:22.1 22.1;}.cls-9{stroke-dasharray:23.97 23.97;}.cls-10{stroke-dasharray:23.97 23.97;}.cls-11{stroke-dasharray:23.97 23.97;}</style><linearGradient id="linear-gradient" x1="-4.14" y1="673.71" x2="1122.97" y2="673.71" gradientTransform="translate(1125.1 1852) rotate(180)" gradientUnits="userSpaceOnUse"><stop offset="0.03" stop-color="#cc2a49"/><stop offset="1" stop-color="#f36f38"/></linearGradient></defs><title>sect3BackgroundMobile</title><path class="cls-1" d="M1126.24,1852.29v-140h.34V1454.08a99.23,99.23,0,0,0,2.66-22.81V938.75c0-54.75-44.8-99.55-99.54-99.55h0a98.82,98.82,0,0,0-57.4,18.35h0A100.26,100.26,0,0,0,963,865l-1.18.86c-66,47.5-158.14-.18-158.14-81.51v-27.1c0-54.75-44.79-99.54-99.54-99.54h0c-54.75,0-99.54,44.79-99.54,99.54v26.57c0,65-68.2,108-126.51,79.26-.64-.31-1.28-.63-1.9-1a100.18,100.18,0,0,0-23.35-14.49,98.66,98.66,0,0,0-40.06-8.48h0a98.66,98.66,0,0,0-40.06,8.48,100.17,100.17,0,0,0-27.18,17.84c-.69.37-1.39.73-2.11,1.1C278.4,899.9,201.22,852,201.22,779V603.83c0-54.75-44.79-99.54-99.54-99.54h0c-54.75,0-99.54,44.79-99.54,99.54V1852.29Z"/><g class="cls-2"><polygon class="cls-3" points="1045.42 475.34 1003.36 318.37 888.45 433.28 1045.42 475.34"/><polygon class="cls-3" points="532.64 672.84 607.53 952.32 812.12 747.73 532.64 672.84"/></g><circle class="cls-4" cx="238.47" cy="706.9" r="62.09"/><g class="cls-2"><polyline class="cls-5" points="631.55 339.66 637.55 329.27 631.55 318.88"/><line class="cls-6" x1="620.51" y1="299.74" x2="537.65" y2="156.23"/><polyline class="cls-5" points="532.12 146.66 526.12 136.27 520.12 146.66"/><line class="cls-6" x1="509.07" y1="165.79" x2="426.22" y2="309.31"/><polyline class="cls-5" points="420.69 318.88 414.69 329.27 420.69 339.66"/><line class="cls-7" x1="431.74" y1="358.8" x2="514.6" y2="502.31"/><polyline class="cls-5" points="520.12 511.88 526.12 522.27 532.12 511.88"/><line class="cls-7" x1="543.17" y1="492.75" x2="626.03" y2="349.23"/><polyline class="cls-5" points="520.12 146.66 526.12 136.27 514.12 136.27"/><line class="cls-8" x1="492.03" y1="136.27" x2="326.31" y2="136.27"/><polyline class="cls-5" points="315.26 136.27 303.26 136.27 297.26 146.66"/><line class="cls-6" x1="286.21" y1="165.79" x2="203.35" y2="309.31"/><polyline class="cls-5" points="197.83 318.88 191.83 329.27 203.83 329.27"/><line class="cls-8" x1="225.93" y1="329.27" x2="391.64" y2="329.27"/><polyline class="cls-5" points="402.69 329.27 414.69 329.27 420.69 318.88"/><line class="cls-6" x1="431.74" y1="299.74" x2="514.6" y2="156.23"/><polyline class="cls-5" points="420.69 339.66 414.69 329.27 402.69 329.27"/><line class="cls-8" x1="380.6" y1="329.27" x2="214.88" y2="329.27"/><polyline class="cls-5" points="203.83 329.27 191.83 329.27 197.83 339.66"/><line class="cls-7" x1="208.88" y1="358.8" x2="291.74" y2="502.31"/><polyline class="cls-5" points="297.26 511.88 303.26 522.27 315.26 522.27"/><line class="cls-8" x1="337.36" y1="522.27" x2="503.07" y2="522.27"/><polyline class="cls-5" points="514.12 522.27 526.12 522.27 520.12 511.88"/><line class="cls-7" x1="509.07" y1="492.75" x2="426.22" y2="349.23"/></g><g class="cls-2"><polyline class="cls-5" points="821.7 189.05 832.09 195.05 842.48 189.05"/><line class="cls-9" x1="863.24" y1="177.07" x2="894.38" y2="159.09"/><polyline class="cls-5" points="904.76 153.09 915.15 147.09 904.76 141.09"/><line class="cls-9" x1="884" y1="129.11" x2="852.86" y2="111.13"/><polyline class="cls-5" points="842.48 105.14 832.09 99.14 821.7 105.14"/><line class="cls-10" x1="800.93" y1="117.12" x2="769.79" y2="135.1"/><polyline class="cls-5" points="759.41 141.09 749.02 147.09 759.41 153.09"/><line class="cls-10" x1="780.17" y1="165.08" x2="811.32" y2="183.06"/><polyline class="cls-5" points="904.76 141.09 915.15 147.09 915.15 135.09"/><line class="cls-11" x1="915.15" y1="111.12" x2="915.15" y2="75.16"/><polyline class="cls-5" points="915.15 63.18 915.15 51.18 904.76 45.18"/><line class="cls-9" x1="884" y1="33.19" x2="852.86" y2="15.21"/><polyline class="cls-5" points="842.48 9.22 832.09 3.22 832.09 15.22"/><line class="cls-11" x1="832.09" y1="39.19" x2="832.09" y2="75.15"/><polyline class="cls-5" points="832.09 87.14 832.09 99.14 842.48 105.14"/><line class="cls-9" x1="863.24" y1="117.12" x2="894.38" y2="135.1"/><polyline class="cls-5" points="821.7 105.14 832.09 99.14 832.09 87.14"/><line class="cls-11" x1="832.09" y1="63.16" x2="832.09" y2="27.21"/><polyline class="cls-5" points="832.09 15.22 832.09 3.22 821.7 9.22"/><line class="cls-10" x1="800.93" y1="21.21" x2="769.79" y2="39.19"/><polyline class="cls-5" points="759.41 45.18 749.02 51.18 749.02 63.18"/><line class="cls-11" x1="749.02" y1="87.15" x2="749.02" y2="123.11"/><polyline class="cls-5" points="749.02 135.09 749.02 147.09 759.41 141.09"/><line class="cls-10" x1="780.17" y1="129.11" x2="811.32" y2="111.13"/></g></svg>