<svg id="Layer_1" data-name="Layer 1" xmlns="http://www.w3.org/2000/svg" xmlns:xlink="http://www.w3.org/1999/xlink" viewBox="0 0 1127 972.29"><defs><style>.cls-1{fill:url(#linear-gradient);}.cls-2{fill:#f26f38;}.cls-3{fill:#f89d4c;}.cls-4{fill:#ee4648;}.cls-5{fill:#cb2a49;}.cls-6{fill:#582841;}.cls-7{fill:#72172d;}.cls-8{fill:#751c32;}.cls-9{fill:#cc6d1f;}.cls-10{fill:none;stroke:#a54c7f;stroke-miterlimit:10;stroke-width:3px;}</style><linearGradient id="linear-gradient" x1="120.49" y1="277.8" x2="610.77" y2="-343.89" gradientTransform="translate(0 772)" gradientUnits="userSpaceOnUse"><stop offset="0.03" stop-color="#cc2a49"/><stop offset="1" stop-color="#f36f38"/></linearGradient></defs><title>sect3BackgroundMobile</title><path class="cls-1" d="M3,0V156.12H2.7V444.05A120.57,120.57,0,0,0,0,469.48V972.29H1127V0Z"/><polygon class="cls-2" points="563.46 494.66 187.67 711.62 563.46 928.59 939.25 711.62 563.46 494.66"/><polygon class="cls-3" points="563.46 444.15 187.67 661.11 563.46 878.08 939.25 661.11 563.46 444.15"/><polygon class="cls-4" points="187.67 661.11 187.67 711.62 563.46 928.59 563.46 878.08 187.67 661.11"/><polygon class="cls-5" points="939.25 661.11 939.25 711.62 563.46 928.59 563.46 878.08 939.25 661.11"/><polygon class="cls-5" points="1043.81 600.92 1043.81 651.43 668.02 868.4 668.02 817.88 1043.81 600.92"/><polygon class="cls-6" points="335.57 613.55 309.36 328.88 322.47 328.88 348.67 613.55 335.57 613.55"/><path class="cls-7" d="M287.28,269C140.92,299.92,69.75,494.66,69.75,494.66c101.27-47.53,180.05,0,180.05,0S248.27,324.14,287.28,269Z"/><path class="cls-5" d="M302.78,266.41q-7.9,1-15.5,2.6c-39,55.13-37.45,225.65-37.45,225.65,84.4-58.77,189.42-31.25,189.42-31.25S393.2,312.45,302.78,266.41Z"/><path class="cls-7" d="M302.78,266.41c90.42,46,136.49,196.94,136.49,196.94,27.35-68.29,124.18-73.15,124.18-73.15C460,286.79,373.29,257.62,302.78,266.41Z"/><path class="cls-6" d="M1043.18,601.12l-375.79-217-103.94,60h0c-.49.46-38.29,36-6.54,77.52,31.94,41.84,83.67,9.13,123.22,28.14s10.66,65.42,40.32,86,111.06-12.17,130.07,5.33,14.43,23.58,26.62,33.48,21.23,10.12,21.23,10.12l14.15-8.17h0Z"/><circle class="cls-3" cx="721.3" cy="132.79" r="85.56"/><path class="cls-8" d="M922.77,208.46s-8.62-82.67-82.83-82.67S753.75,212,753.75,212s-33.71-4.74-52.16,20.61c-13,17.94.16,43.16,22.35,42.82H952.61c22.3,0,35.09-25.53,21.63-43.29C964.57,219.18,948.69,208.46,922.77,208.46Zm-97.89.59-34,13.58,33.83,13.65v11.53L775.87,227.5v-9.76l48.89-20.22Zm15.39,45.13H830.18l14.74-62.67h10.19Zm69.11-26.65L860.5,247.84V236.31l33.83-13.64L860.5,209.08V197.52l48.89,20.26Z"/><path class="cls-8" d="M671,157.29s-8.56-82.72-82.74-82.72-86.18,86.21-86.18,86.21-33.72-4.74-52.16,20.61c-13.05,17.94.16,43.17,22.34,42.83H700.94c22.32,0,35.09-25.53,21.63-43.29C712.88,168,697,157.29,671,157.29Zm-97.69-35.1c-4.29,0-7,.45-8.17,1.31s-1.7,2.78-1.7,5.71q0,14.25-1.79,19.29a17,17,0,0,1-7.3,8.6,15.81,15.81,0,0,1,6.79,7.19q2.33,4.83,2.33,20.63a8.43,8.43,0,0,0,1,4.8,4.6,4.6,0,0,0,2.71,1.78,28.72,28.72,0,0,0,6.14.44V203.6h-2.55q-8.37,0-12.67-2.16a11,11,0,0,1-5.75-6.29q-1.5-4.07-1.49-14.08a53.65,53.65,0,0,0-.85-11,8.5,8.5,0,0,0-3-5.1,12,12,0,0,0-6.71-2V151.34q5.44,0,7.73-3.09a13.42,13.42,0,0,0,2.55-6.79c.18-2.55.29-5.28.29-8.27a62.33,62.33,0,0,1,.85-11.89,12.27,12.27,0,0,1,3-6,14,14,0,0,1,5.94-3.51,37.08,37.08,0,0,1,10.11-1.16h2.55Zm63.28,40.75a11.43,11.43,0,0,0-6.62,1.94,9.16,9.16,0,0,0-3.1,5.1,49.73,49.73,0,0,0-.85,11,64.81,64.81,0,0,1-.77,11.89,12.53,12.53,0,0,1-3,6,13.33,13.33,0,0,1-6,3.5,35.13,35.13,0,0,1-10.1,1.17h-2.55V191.92c4.09,0,6.79-.44,8-1.35s1.87-2.78,1.87-5.66q0-13.9,1.8-19.28a15.3,15.3,0,0,1,7.22-8.56,15.53,15.53,0,0,1-7.49-9.19q-1.61-5.59-1.6-18.67c0-3.06-.6-5-1.78-5.84s-3.88-1.21-8.08-1.16V110.62h2.55c6.52,0,10.94.79,13.3,2.33a14.62,14.62,0,0,1,5.09,5.61q1.56,3.25,1.55,14.51a53,53,0,0,0,.85,11,8.59,8.59,0,0,0,3.1,5.1,11.45,11.45,0,0,0,6.66,2Z"/><path class="cls-9" d="M478,753.89l-56.49,15.17L381.72,729.3l56.49-15.17ZM404.12,680l-56.5,15.17-39.76-39.77,56.5-15.16Z"/><path class="cls-9" d="M649.52,763.46l-284.36-165L411,586.22,695.8,751.11Z"/><path class="cls-9" d="M772.79,730.44l-284.34-165,45.83-12.27L819.11,718Z"/><path class="cls-5" d="M404.24,584.52c6-30.73,28.18-40.65,44-43.75a28.93,28.93,0,0,1-3-12.68,44,44,0,0,0-54,53.48A28.75,28.75,0,0,1,404.24,584.52Z"/><path class="cls-5" d="M464.9,601.71a44,44,0,0,0,11.39-42.51,28.87,28.87,0,0,1-12.67-3c-3.12,15.8-13,38-43.76,44a28.7,28.7,0,0,1,2.94,13.06A44,44,0,0,0,464.9,601.71Z"/><path class="cls-4" d="M448.22,540.77c-15.8,3.1-38,13-44,43.75a33.79,33.79,0,0,1,15.62,15.62c30.73-6,40.64-28.17,43.76-44a33.78,33.78,0,0,1-15.4-15.4Z"/><path class="cls-2" d="M464.9,539.49a43.76,43.76,0,0,0-19.71-11.4,28.93,28.93,0,0,0,3,12.68,33.78,33.78,0,0,0,15.4,15.4,28.87,28.87,0,0,0,12.67,3A43.94,43.94,0,0,0,464.9,539.49Z"/><path class="cls-2" d="M419.86,600.14a33.79,33.79,0,0,0-15.62-15.62,28.87,28.87,0,0,0-13.07-2.94,44.09,44.09,0,0,0,31.63,31.63A28.71,28.71,0,0,0,419.86,600.14Z"/><circle class="cls-10" cx="668.67" cy="445.17" r="14.92"/><circle class="cls-10" cx="657.47" cy="504.41" r="14.16"/><circle class="cls-10" cx="739.65" cy="510.6" r="11.71"/><circle class="cls-10" cx="892.16" cy="547.55" r="14.72"/><circle class="cls-10" cx="831.09" cy="586.03" r="7.05"/><circle class="cls-10" cx="896.58" cy="616.13" r="19.14"/><line class="cls-10" x1="696.46" y1="467.06" x2="710.61" y2="481.2"/><line class="cls-10" x1="712.47" y1="461.24" x2="716.07" y2="477.61"/><line class="cls-10" x1="723.92" y1="461.24" x2="722.39" y2="477.61"/><line class="cls-10" x1="819.57" y1="541.66" x2="823.58" y2="561.26"/><line class="cls-10" x1="836.14" y1="545.61" x2="830.13" y2="561.27"/><line class="cls-10" x1="845.69" y1="551.91" x2="835.41" y2="564.74"/></svg>