<?xml version="1.0" encoding="utf-8"?>
<!-- Generator: Adobe Illustrator 23.0.0, SVG Export Plug-In . SVG Version: 6.00 Build 0)  -->
<svg version="1.1" id="Layer_1" xmlns="http://www.w3.org/2000/svg" xmlns:xlink="http://www.w3.org/1999/xlink" x="0px" y="0px"
	 viewBox="0 0 1920 1080" style="enable-background:new 0 0 1920 1080;" xml:space="preserve">
<style type="text/css">
	.st0{opacity:0.25;}
	.st1{fill:none;stroke:#EF4648;stroke-width:6;stroke-miterlimit:10;}
	.st2{opacity:0.2;}
	.st3{fill:none;stroke:#EF4648;stroke-width:5;stroke-linecap:round;stroke-linejoin:round;}
	.st4{opacity:5.000000e-02;fill:url(#SVGID_1_);enable-background:new    ;}
	.st5{opacity:5.000000e-02;fill:url(#SVGID_2_);enable-background:new    ;}
	.st6{fill:url(#SVGID_3_);}
	.st7{fill:url(#SVGID_4_);}
	.st8{fill:url(#SVGID_5_);}
	.st9{opacity:5.000000e-02;fill:url(#SVGID_6_);enable-background:new    ;}
	.st10{fill:url(#SVGID_7_);}
	.st11{fill:none;stroke:#CC2A49;stroke-width:6;stroke-miterlimit:10;}
</style>
<title>sect2Background</title>
<g class="st0">
	<line class="st1" x1="1021.1" y1="717.3" x2="1044.3" y2="740.6"/>
	<line class="st1" x1="1044.3" y1="717.3" x2="1021.1" y2="740.6"/>
	<line class="st1" x1="1021.1" y1="750.2" x2="1044.3" y2="773.5"/>
	<line class="st1" x1="1044.3" y1="750.2" x2="1021.1" y2="773.5"/>
	<line class="st1" x1="1053.9" y1="750.2" x2="1077.2" y2="773.5"/>
	<line class="st1" x1="1077.2" y1="750.2" x2="1053.9" y2="773.5"/>
	<line class="st1" x1="1053.9" y1="717.3" x2="1077.2" y2="740.6"/>
	<line class="st1" x1="1077.2" y1="717.3" x2="1053.9" y2="740.6"/>
	<line class="st1" x1="1086.8" y1="717.3" x2="1110.1" y2="740.6"/>
	<line class="st1" x1="1110.1" y1="717.3" x2="1086.8" y2="740.6"/>
	<line class="st1" x1="1086.8" y1="750.2" x2="1110.1" y2="773.5"/>
	<line class="st1" x1="1110.1" y1="750.2" x2="1086.8" y2="773.5"/>
	<line class="st1" x1="1119.7" y1="750.2" x2="1143" y2="773.5"/>
	<line class="st1" x1="1143" y1="750.2" x2="1119.7" y2="773.5"/>
	<line class="st1" x1="1119.7" y1="717.3" x2="1143" y2="740.6"/>
	<line class="st1" x1="1143" y1="717.3" x2="1119.7" y2="740.6"/>
	<line class="st1" x1="1086.8" y1="783.1" x2="1110.1" y2="806.4"/>
	<line class="st1" x1="1110.1" y1="783.1" x2="1086.8" y2="806.4"/>
	<line class="st1" x1="1086.8" y1="816" x2="1110.1" y2="839.3"/>
	<line class="st1" x1="1110.1" y1="816" x2="1086.8" y2="839.3"/>
	<line class="st1" x1="1119.7" y1="816" x2="1143" y2="839.3"/>
	<line class="st1" x1="1143" y1="816" x2="1119.7" y2="839.3"/>
	<line class="st1" x1="1119.7" y1="783.1" x2="1143" y2="806.4"/>
	<line class="st1" x1="1143" y1="783.1" x2="1119.7" y2="806.4"/>
	<line class="st1" x1="1152.6" y1="717.3" x2="1175.9" y2="740.6"/>
	<line class="st1" x1="1175.9" y1="717.3" x2="1152.6" y2="740.6"/>
	<line class="st1" x1="1152.6" y1="750.2" x2="1175.9" y2="773.5"/>
	<line class="st1" x1="1175.9" y1="750.2" x2="1152.6" y2="773.5"/>
	<line class="st1" x1="1185.5" y1="750.2" x2="1208.8" y2="773.5"/>
	<line class="st1" x1="1208.8" y1="750.2" x2="1185.5" y2="773.5"/>
	<line class="st1" x1="1185.5" y1="717.3" x2="1208.8" y2="740.6"/>
	<line class="st1" x1="1208.8" y1="717.3" x2="1185.5" y2="740.6"/>
	<line class="st1" x1="1152.6" y1="783.1" x2="1175.9" y2="806.4"/>
	<line class="st1" x1="1175.9" y1="783.1" x2="1152.6" y2="806.4"/>
	<line class="st1" x1="1152.6" y1="816" x2="1175.9" y2="839.3"/>
	<line class="st1" x1="1175.9" y1="816" x2="1152.6" y2="839.3"/>
	<line class="st1" x1="1185.5" y1="816" x2="1208.8" y2="839.3"/>
	<line class="st1" x1="1208.8" y1="816" x2="1185.5" y2="839.3"/>
	<line class="st1" x1="1185.5" y1="783.1" x2="1208.8" y2="806.4"/>
	<line class="st1" x1="1208.8" y1="783.1" x2="1185.5" y2="806.4"/>
	<line class="st1" x1="1218.4" y1="717.3" x2="1241.7" y2="740.6"/>
	<line class="st1" x1="1241.7" y1="717.3" x2="1218.4" y2="740.6"/>
	<line class="st1" x1="1218.4" y1="750.2" x2="1241.7" y2="773.5"/>
	<line class="st1" x1="1241.7" y1="750.2" x2="1218.4" y2="773.5"/>
	<line class="st1" x1="1251.3" y1="750.2" x2="1274.5" y2="773.5"/>
	<line class="st1" x1="1274.5" y1="750.2" x2="1251.3" y2="773.5"/>
	<line class="st1" x1="1251.3" y1="717.3" x2="1274.5" y2="740.6"/>
	<line class="st1" x1="1274.5" y1="717.3" x2="1251.3" y2="740.6"/>
	<line class="st1" x1="1218.4" y1="783.1" x2="1241.7" y2="806.4"/>
	<line class="st1" x1="1241.7" y1="783.1" x2="1218.4" y2="806.4"/>
	<line class="st1" x1="1218.4" y1="816" x2="1241.7" y2="839.3"/>
	<line class="st1" x1="1241.7" y1="816" x2="1218.4" y2="839.3"/>
	<line class="st1" x1="1251.3" y1="816" x2="1274.5" y2="839.3"/>
	<line class="st1" x1="1274.5" y1="816" x2="1251.3" y2="839.3"/>
	<line class="st1" x1="1251.3" y1="783.1" x2="1274.5" y2="806.4"/>
	<line class="st1" x1="1274.5" y1="783.1" x2="1251.3" y2="806.4"/>
	<line class="st1" x1="1021.1" y1="783.1" x2="1044.3" y2="806.4"/>
	<line class="st1" x1="1044.3" y1="783.1" x2="1021.1" y2="806.4"/>
	<line class="st1" x1="1021.1" y1="816" x2="1044.3" y2="839.3"/>
	<line class="st1" x1="1044.3" y1="816" x2="1021.1" y2="839.3"/>
	<line class="st1" x1="1053.9" y1="816" x2="1077.2" y2="839.3"/>
	<line class="st1" x1="1077.2" y1="816" x2="1053.9" y2="839.3"/>
	<line class="st1" x1="1053.9" y1="783.1" x2="1077.2" y2="806.4"/>
	<line class="st1" x1="1077.2" y1="783.1" x2="1053.9" y2="806.4"/>
</g>
<g class="st0">
	<line class="st1" x1="366.7" y1="68.9" x2="409.5" y2="111.7"/>
	<line class="st1" x1="409.5" y1="68.9" x2="366.7" y2="111.7"/>
	<line class="st1" x1="366.7" y1="129.3" x2="409.5" y2="172.1"/>
	<line class="st1" x1="409.5" y1="129.3" x2="366.7" y2="172.1"/>
	<line class="st1" x1="427.2" y1="129.3" x2="470" y2="172.1"/>
	<line class="st1" x1="470" y1="129.3" x2="427.2" y2="172.1"/>
	<line class="st1" x1="427.2" y1="68.9" x2="470" y2="111.7"/>
	<line class="st1" x1="470" y1="68.9" x2="427.2" y2="111.7"/>
	<line class="st1" x1="487.6" y1="68.9" x2="530.4" y2="111.7"/>
	<line class="st1" x1="530.4" y1="68.9" x2="487.6" y2="111.7"/>
	<line class="st1" x1="487.6" y1="129.3" x2="530.4" y2="172.1"/>
	<line class="st1" x1="530.4" y1="129.3" x2="487.6" y2="172.1"/>
	<line class="st1" x1="548.1" y1="129.3" x2="590.9" y2="172.1"/>
	<line class="st1" x1="590.9" y1="129.3" x2="548.1" y2="172.1"/>
	<line class="st1" x1="548.1" y1="68.9" x2="590.9" y2="111.7"/>
	<line class="st1" x1="590.9" y1="68.9" x2="548.1" y2="111.7"/>
	<line class="st1" x1="487.6" y1="189.8" x2="530.4" y2="232.6"/>
	<line class="st1" x1="530.4" y1="189.8" x2="487.6" y2="232.6"/>
	<line class="st1" x1="487.6" y1="250.2" x2="530.4" y2="293"/>
	<line class="st1" x1="530.4" y1="250.2" x2="487.6" y2="293"/>
	<line class="st1" x1="548.1" y1="250.2" x2="590.9" y2="293"/>
	<line class="st1" x1="590.9" y1="250.2" x2="548.1" y2="293"/>
	<line class="st1" x1="548.1" y1="189.8" x2="590.9" y2="232.6"/>
	<line class="st1" x1="590.9" y1="189.8" x2="548.1" y2="232.6"/>
	<line class="st1" x1="608.5" y1="68.9" x2="651.3" y2="111.7"/>
	<line class="st1" x1="651.3" y1="68.9" x2="608.5" y2="111.7"/>
	<line class="st1" x1="608.5" y1="129.3" x2="651.3" y2="172.1"/>
	<line class="st1" x1="651.3" y1="129.3" x2="608.5" y2="172.1"/>
	<line class="st1" x1="669" y1="129.3" x2="711.8" y2="172.1"/>
	<line class="st1" x1="711.8" y1="129.3" x2="669" y2="172.1"/>
	<line class="st1" x1="669" y1="68.9" x2="711.8" y2="111.7"/>
	<line class="st1" x1="711.8" y1="68.9" x2="669" y2="111.7"/>
	<line class="st1" x1="608.5" y1="189.8" x2="651.3" y2="232.6"/>
	<line class="st1" x1="651.3" y1="189.8" x2="608.5" y2="232.6"/>
	<line class="st1" x1="608.5" y1="250.2" x2="651.3" y2="293"/>
	<line class="st1" x1="651.3" y1="250.2" x2="608.5" y2="293"/>
	<line class="st1" x1="669" y1="250.2" x2="711.8" y2="293"/>
	<line class="st1" x1="711.8" y1="250.2" x2="669" y2="293"/>
	<line class="st1" x1="669" y1="189.8" x2="711.8" y2="232.6"/>
	<line class="st1" x1="711.8" y1="189.8" x2="669" y2="232.6"/>
	<line class="st1" x1="729.4" y1="68.9" x2="772.2" y2="111.7"/>
	<line class="st1" x1="772.2" y1="68.9" x2="729.4" y2="111.7"/>
	<line class="st1" x1="729.4" y1="129.3" x2="772.2" y2="172.1"/>
	<line class="st1" x1="772.2" y1="129.3" x2="729.4" y2="172.1"/>
	<line class="st1" x1="789.9" y1="129.3" x2="832.7" y2="172.1"/>
	<line class="st1" x1="832.7" y1="129.3" x2="789.9" y2="172.1"/>
	<line class="st1" x1="789.9" y1="68.9" x2="832.7" y2="111.7"/>
	<line class="st1" x1="832.7" y1="68.9" x2="789.9" y2="111.7"/>
	<line class="st1" x1="729.4" y1="189.8" x2="772.2" y2="232.6"/>
	<line class="st1" x1="772.2" y1="189.8" x2="729.4" y2="232.6"/>
	<line class="st1" x1="729.4" y1="250.2" x2="772.2" y2="293"/>
	<line class="st1" x1="772.2" y1="250.2" x2="729.4" y2="293"/>
	<line class="st1" x1="789.9" y1="250.2" x2="832.7" y2="293"/>
	<line class="st1" x1="832.7" y1="250.2" x2="789.9" y2="293"/>
	<line class="st1" x1="789.9" y1="189.8" x2="832.7" y2="232.6"/>
	<line class="st1" x1="832.7" y1="189.8" x2="789.9" y2="232.6"/>
	<line class="st1" x1="366.7" y1="189.8" x2="409.5" y2="232.6"/>
	<line class="st1" x1="409.5" y1="189.8" x2="366.7" y2="232.6"/>
	<line class="st1" x1="366.7" y1="250.2" x2="409.5" y2="293"/>
	<line class="st1" x1="409.5" y1="250.2" x2="366.7" y2="293"/>
	<line class="st1" x1="427.2" y1="250.2" x2="470" y2="293"/>
	<line class="st1" x1="470" y1="250.2" x2="427.2" y2="293"/>
	<line class="st1" x1="427.2" y1="189.8" x2="470" y2="232.6"/>
	<line class="st1" x1="470" y1="189.8" x2="427.2" y2="232.6"/>
</g>
<g class="st2">
	<polygon class="st3" points="1011.3,119.5 967.8,282 1130.3,238.5 1173.9,75.9 	"/>
	<polygon class="st3" points="967.8,282 1086.8,401.1 1249.4,357.5 1130.3,238.5 	"/>
	<polygon class="st3" points="1130.3,238.5 1249.4,357.5 1292.9,194.9 1173.9,75.9 	"/>
	<polygon class="st3" points="1683.2,397.5 1613.5,378.8 1632.2,448.4 1701.8,467.1 	"/>
	<polygon class="st3" points="1613.5,378.8 1562.6,429.8 1581.2,499.4 1632.2,448.4 	"/>
	<polygon class="st3" points="1632.2,448.4 1581.2,499.4 1650.8,518 1701.8,467.1 	"/>
	<polygon class="st3" points="1562.6,646.2 1416.8,730.3 1562.6,814.5 1708.3,730.3 	"/>
	<polygon class="st3" points="1416.8,730.3 1416.8,898.7 1562.6,982.8 1562.6,814.5 	"/>
	<polygon class="st3" points="1562.6,814.5 1562.6,982.8 1708.3,898.7 1708.3,730.3 	"/>
</g>
<linearGradient id="SVGID_1_" gradientUnits="userSpaceOnUse" x1="1969.59" y1="-1252.3759" x2="957.9302" y2="1291.8939" gradientTransform="matrix(1 0 0 -1 0 1082)">
	<stop  offset="0.61" style="stop-color:#CC2A49"/>
	<stop  offset="1" style="stop-color:#F36F38"/>
</linearGradient>
<path class="st4" d="M1731.4,906.5c-0.2-40.2-38.8-72.7-86.2-72.5l-520.3,1.7c-40.7,0.1-65.5-38-43.5-67c0.3-0.5,0.6-0.7,0.6-0.7
	l0,0c10.1-12,16.1-26.7,16-42.6l0,0c-0.1-15.9-6.2-30.5-16.4-42.5l0,0l-0.1-0.1c-1.3-1.5-2.6-2.9-3.9-4.3l-0.7-0.8
	c-25.8-30.8-4.5-72.4,36.2-80.2l-35.7,0.1c-47.7,0.2-75.8,47.5-48.2,81.8l0.7,0.8c1.3,1.4,2.6,2.8,3.8,4.3l0.1,0.1l0,0
	c10.1,11.9,15.7,27,15.8,42.6l0,0c0,15.6-5.5,30.7-15.5,42.7l0,0c0,0-0.2,0.2-0.5,0.7c-21.3,29,2.7,67.3,42,67.2l503.4-1.7
	c45.9-0.2,83.2,32.4,83.4,72.7l0,0c0.2,34.1-26.3,62.8-62.3,71l45.7-0.2C1693.3,979.4,1731.6,946.7,1731.4,906.5L1731.4,906.5z"/>
<linearGradient id="SVGID_2_" gradientUnits="userSpaceOnUse" x1="1721.3483" y1="-1371.0306" x2="704.6783" y2="1185.8394" gradientTransform="matrix(1 0 0 -1 0 1082)">
	<stop  offset="0.61" style="stop-color:#CC2A49"/>
	<stop  offset="1" style="stop-color:#F36F38"/>
</linearGradient>
<path class="st5" d="M407.7,136.4L407.7,136.4c0.1,22.5-11.4,42.6-29.5,56.1l0,0c0,0-0.3,0.3-0.8,0.8c-23.6,22.2-5.4,58.5,29.2,58.4
	l425.9-1.4c45.9-0.1,83.2,32.4,83.4,72.7l0,0c0.1,21.1-10.1,40.2-26.3,53.6l0,0c0,0-0.3,0.3-0.7,0.9c-25.9,31.2-0.2,75,43.7,74.9
	l342.2-1.2c45.9-0.1,83.2,32.4,83.4,72.7l0,0c0.2,35.7-29,65.5-67.5,72l40.8-0.1c47.4-0.2,85.7-32.9,85.5-73.1l0,0
	c-0.2-40.2-38.8-72.7-86.2-72.5L977,451.2c-45.4,0.1-72-43.6-45.2-74.7c0.5-0.5,0.8-0.9,0.8-0.9l0,0c16.8-13.4,27.3-32.4,27.2-53.4
	l0,0c-0.2-40.2-38.8-72.7-86.2-72.5l-440.2,1.4c-35.8,0.1-54.6-36.1-30.2-58.3c0.5-0.5,0.9-0.7,0.9-0.7l0,0
	c18.8-13.4,30.6-33.5,30.5-55.9l0,0c-0.2-40.2-38.8-72.7-86.2-72.5l-20.5,0.1C372.1,65.2,407.5,97.1,407.7,136.4z"/>
<linearGradient id="SVGID_3_" gradientUnits="userSpaceOnUse" x1="1950.5632" y1="-1397.6189" x2="865.2533" y2="1331.8812" gradientTransform="matrix(1 0 0 -1 0 1082)">
	<stop  offset="0.61" style="stop-color:#CC2A49"/>
	<stop  offset="1" style="stop-color:#F36F38"/>
</linearGradient>
<path class="st6" d="M1113.2,597.5l162.2-0.5c5.1,0,10.2-0.5,15.2-1.3l-163.7,0.5C1122.2,596.3,1117.7,596.7,1113.2,597.5z"/>
<linearGradient id="SVGID_4_" gradientUnits="userSpaceOnUse" x1="1450.546" y1="-1537.3417" x2="368.0262" y2="1185.1583" gradientTransform="matrix(1 0 0 -1 0 1082)">
	<stop  offset="0.61" style="stop-color:#CC2A49"/>
	<stop  offset="1" style="stop-color:#F36F38"/>
</linearGradient>
<path class="st7" d="M989,981.7l-882.2,2.9L0,984.9v2.4l90.6-0.3l853.5-2.9l0,0l635.6-2.1c6.9,0,13.7-0.8,20.5-2.3L989,981.7
	L989,981.7z"/>
<linearGradient id="SVGID_5_" gradientUnits="userSpaceOnUse" x1="1260.7726" y1="-1740.749" x2="178.3026" y2="981.6309" gradientTransform="matrix(1 0 0 -1 0 1082)">
	<stop  offset="0.61" style="stop-color:#CC2A49"/>
	<stop  offset="1" style="stop-color:#F36F38"/>
</linearGradient>
<path class="st8" d="M268.5,63.9l59.4-0.2c-1.2,0-2.4-0.1-3.5-0.1L247,63.9L0,64.8l0,0L268.5,63.9z"/>
<linearGradient id="SVGID_6_" gradientUnits="userSpaceOnUse" x1="1465.1501" y1="-1453" x2="451.97" y2="1095.1202" gradientTransform="matrix(1 0 0 -1 0 1082)">
	<stop  offset="0.61" style="stop-color:#CC2A49"/>
	<stop  offset="1" style="stop-color:#F36F38"/>
</linearGradient>
<path class="st9" d="M1662.5,908.7L1662.5,908.7c-0.2-40.3-37.5-72.9-83.4-72.7l-503.4,1.7c-39.3,0.1-63.4-38.1-42-67.2
	c0.3-0.5,0.5-0.7,0.5-0.7l0,0c10-12,15.5-27.1,15.5-42.7l0,0c-0.2-15.6-5.8-30.7-15.8-42.6l0,0l-0.1-0.1c-1.2-1.5-2.5-2.9-3.8-4.3
	l-0.7-0.8c-27.6-34.2,0.5-81.6,48.2-81.8l35.7-0.1c4.5-0.9,9.1-1.3,13.7-1.3l163.7-0.5c38.6-6.4,67.7-36.2,67.5-72l0,0
	c-0.2-40.3-37.5-72.9-83.4-72.7l-342.2,1.2c-44,0.1-69.6-43.7-43.7-74.9c0.5-0.6,0.7-0.9,0.7-0.9l0,0c16.3-13.4,26.4-32.5,26.3-53.6
	l0,0c-0.2-40.3-37.5-72.9-83.4-72.7l-425.9,1.4c-34.6,0.1-52.8-36.2-29.2-58.4c0.5-0.5,0.8-0.8,0.8-0.8l0,0
	c18.1-13.4,29.6-33.6,29.5-56.1l0,0c-0.2-39.3-35.6-71.2-79.8-72.6l-59.4,0.2L0,64.8v920.1l106.8-0.3l882.2-2.9l0,0l611.2-2
	C1636.1,971.6,1662.6,942.8,1662.5,908.7z"/>
<linearGradient id="SVGID_7_" gradientUnits="userSpaceOnUse" x1="1451.0925" y1="-1417.6289" x2="450.7927" y2="1098.0712" gradientTransform="matrix(1 0 0 -1 0 1082)">
	<stop  offset="0.61" style="stop-color:#CC2A49"/>
	<stop  offset="1" style="stop-color:#F36F38"/>
</linearGradient>
<path class="st10" d="M1662.5,908.7L1662.5,908.7c-0.2-40.3-37.5-72.9-83.4-72.7l-503.4,1.7c-39.3,0.1-63.4-38.1-42-67.2
	c0.3-0.5,0.5-0.7,0.5-0.7l0,0c10-12,15.5-27.1,15.5-42.7l0,0c-0.2-15.6-5.8-30.7-15.8-42.6l0,0l-0.1-0.1c-1.2-1.5-2.5-2.9-3.8-4.3
	l-0.7-0.8c-27.6-34.2,0.5-81.6,48.2-81.8l35.7-0.1c4.5-0.9,9.1-1.3,13.7-1.3l163.7-0.5c38.6-6.4,67.7-36.2,67.5-72l0,0
	c-0.2-40.3-37.5-72.9-83.4-72.7l-342.2,1.2c-44,0.1-69.6-43.7-43.7-74.9c0.5-0.6,0.7-0.9,0.7-0.9l0,0c16.3-13.4,26.4-32.5,26.3-53.6
	l0,0c-0.2-40.3-37.5-72.9-83.4-72.7l-425.9,1.4c-34.6,0.1-52.8-36.2-29.2-58.4c0.5-0.5,0.8-0.8,0.8-0.8l0,0
	c18.1-13.4,29.6-33.6,29.5-56.1l0,0c-0.2-39.3-35.6-71.2-79.8-72.6l-59.4,0.2L0,64.8v920.1l106.8-0.3l882.2-2.9l0,0l611.2-2
	C1636.1,971.6,1662.6,942.8,1662.5,908.7z"/>
<g class="st0">
	<line class="st11" x1="1788.5" y1="305.2" x2="1756.5" y2="273.2"/>
	<line class="st11" x1="1756.5" y1="305.2" x2="1788.5" y2="273.2"/>
	<line class="st11" x1="1788.5" y1="260" x2="1756.5" y2="228"/>
	<line class="st11" x1="1756.5" y1="260" x2="1788.5" y2="228"/>
	<line class="st11" x1="1743.3" y1="260" x2="1711.3" y2="228"/>
	<line class="st11" x1="1711.3" y1="260" x2="1743.3" y2="228"/>
	<line class="st11" x1="1743.3" y1="305.2" x2="1711.3" y2="273.2"/>
	<line class="st11" x1="1711.3" y1="305.2" x2="1743.3" y2="273.2"/>
	<line class="st11" x1="1698.1" y1="305.2" x2="1666.1" y2="273.2"/>
	<line class="st11" x1="1666.1" y1="305.2" x2="1698.1" y2="273.2"/>
	<line class="st11" x1="1698.1" y1="260" x2="1666.1" y2="228"/>
	<line class="st11" x1="1666.1" y1="260" x2="1698.1" y2="228"/>
	<line class="st11" x1="1652.9" y1="260" x2="1620.9" y2="228"/>
	<line class="st11" x1="1620.9" y1="260" x2="1652.9" y2="228"/>
	<line class="st11" x1="1652.9" y1="305.2" x2="1620.9" y2="273.2"/>
	<line class="st11" x1="1620.9" y1="305.2" x2="1652.9" y2="273.2"/>
	<line class="st11" x1="1698.1" y1="214.8" x2="1666.1" y2="182.8"/>
	<line class="st11" x1="1666.1" y1="214.8" x2="1698.1" y2="182.8"/>
	<line class="st11" x1="1698.1" y1="169.6" x2="1666.1" y2="137.6"/>
	<line class="st11" x1="1666.1" y1="169.6" x2="1698.1" y2="137.6"/>
	<line class="st11" x1="1652.9" y1="169.6" x2="1620.9" y2="137.6"/>
	<line class="st11" x1="1620.9" y1="169.6" x2="1652.9" y2="137.6"/>
	<line class="st11" x1="1652.9" y1="214.8" x2="1620.9" y2="182.8"/>
	<line class="st11" x1="1620.9" y1="214.8" x2="1652.9" y2="182.8"/>
	<line class="st11" x1="1607.7" y1="305.2" x2="1575.7" y2="273.2"/>
	<line class="st11" x1="1575.7" y1="305.2" x2="1607.7" y2="273.2"/>
	<line class="st11" x1="1607.7" y1="260" x2="1575.7" y2="228"/>
	<line class="st11" x1="1575.7" y1="260" x2="1607.7" y2="228"/>
	<line class="st11" x1="1562.5" y1="260" x2="1530.5" y2="228"/>
	<line class="st11" x1="1530.5" y1="260" x2="1562.5" y2="228"/>
	<line class="st11" x1="1562.5" y1="305.2" x2="1530.5" y2="273.2"/>
	<line class="st11" x1="1530.5" y1="305.2" x2="1562.5" y2="273.2"/>
	<line class="st11" x1="1607.7" y1="214.8" x2="1575.7" y2="182.8"/>
	<line class="st11" x1="1575.7" y1="214.8" x2="1607.7" y2="182.8"/>
	<line class="st11" x1="1607.7" y1="169.6" x2="1575.7" y2="137.6"/>
	<line class="st11" x1="1575.7" y1="169.6" x2="1607.7" y2="137.6"/>
	<line class="st11" x1="1562.5" y1="169.6" x2="1530.5" y2="137.6"/>
	<line class="st11" x1="1530.5" y1="169.6" x2="1562.5" y2="137.6"/>
	<line class="st11" x1="1562.5" y1="214.8" x2="1530.5" y2="182.8"/>
	<line class="st11" x1="1530.5" y1="214.8" x2="1562.5" y2="182.8"/>
	<line class="st11" x1="1517.3" y1="305.2" x2="1485.3" y2="273.2"/>
	<line class="st11" x1="1485.3" y1="305.2" x2="1517.3" y2="273.2"/>
	<line class="st11" x1="1517.3" y1="260" x2="1485.3" y2="228"/>
	<line class="st11" x1="1485.3" y1="260" x2="1517.3" y2="228"/>
	<line class="st11" x1="1472.1" y1="260" x2="1440.1" y2="228"/>
	<line class="st11" x1="1440.1" y1="260" x2="1472.1" y2="228"/>
	<line class="st11" x1="1472.1" y1="305.2" x2="1440.1" y2="273.2"/>
	<line class="st11" x1="1440.1" y1="305.2" x2="1472.1" y2="273.2"/>
	<line class="st11" x1="1517.3" y1="214.8" x2="1485.3" y2="182.8"/>
	<line class="st11" x1="1485.3" y1="214.8" x2="1517.3" y2="182.8"/>
	<line class="st11" x1="1517.3" y1="169.6" x2="1485.3" y2="137.6"/>
	<line class="st11" x1="1485.3" y1="169.6" x2="1517.3" y2="137.6"/>
	<line class="st11" x1="1472.1" y1="169.6" x2="1440.1" y2="137.6"/>
	<line class="st11" x1="1440.1" y1="169.6" x2="1472.1" y2="137.6"/>
	<line class="st11" x1="1472.1" y1="214.8" x2="1440.1" y2="182.8"/>
	<line class="st11" x1="1440.1" y1="214.8" x2="1472.1" y2="182.8"/>
	<line class="st11" x1="1788.5" y1="214.8" x2="1756.5" y2="182.8"/>
	<line class="st11" x1="1756.5" y1="214.8" x2="1788.5" y2="182.8"/>
	<line class="st11" x1="1788.5" y1="169.6" x2="1756.5" y2="137.6"/>
	<line class="st11" x1="1756.5" y1="169.6" x2="1788.5" y2="137.6"/>
	<line class="st11" x1="1743.3" y1="169.6" x2="1711.3" y2="137.6"/>
	<line class="st11" x1="1711.3" y1="169.6" x2="1743.3" y2="137.6"/>
	<line class="st11" x1="1743.3" y1="214.8" x2="1711.3" y2="182.8"/>
	<line class="st11" x1="1711.3" y1="214.8" x2="1743.3" y2="182.8"/>
</g>
</svg>
