<?xml version="1.0" encoding="utf-8"?>
<!-- Generator: Adobe Illustrator 23.0.0, SVG Export Plug-In . SVG Version: 6.00 Build 0)  -->
<svg version="1.1" id="Layer_1" xmlns="http://www.w3.org/2000/svg" xmlns:xlink="http://www.w3.org/1999/xlink" x="0px" y="0px"
	 viewBox="0 0 2043.4 950.4" style="enable-background:new 0 0 2043.4 950.4;" xml:space="preserve">
<style type="text/css">
	.st0{opacity:0.25;}
	.st1{fill:none;stroke:#EF4648;stroke-width:6;stroke-miterlimit:10;}
	.st2{opacity:0.2;}
	.st3{fill:none;stroke:#EF4648;stroke-width:5;stroke-linecap:round;stroke-linejoin:round;}
	.st4{opacity:5.000000e-02;fill:url(#SVGID_1_);enable-background:new    ;}
	.st5{opacity:5.000000e-02;fill:url(#SVGID_2_);enable-background:new    ;}
	.st6{fill:url(#SVGID_3_);}
	.st7{fill:url(#SVGID_4_);}
	.st8{fill:url(#SVGID_5_);}
	.st9{opacity:5.000000e-02;fill:url(#SVGID_6_);enable-background:new    ;}
	.st10{fill:url(#SVGID_7_);}
	.st11{fill:none;stroke:#CC2A49;stroke-width:6;stroke-miterlimit:10;}
</style>
<title>sect2Background</title>
<g class="st0">
	<line class="st1" x1="1021.1" y1="669.5" x2="1044.3" y2="692.8"/>
	<line class="st1" x1="1044.3" y1="669.5" x2="1021.1" y2="692.8"/>
	<line class="st1" x1="1021.1" y1="702.4" x2="1044.3" y2="725.7"/>
	<line class="st1" x1="1044.3" y1="702.4" x2="1021.1" y2="725.7"/>
	<line class="st1" x1="1053.9" y1="702.4" x2="1077.2" y2="725.7"/>
	<line class="st1" x1="1077.2" y1="702.4" x2="1053.9" y2="725.7"/>
	<line class="st1" x1="1053.9" y1="669.5" x2="1077.2" y2="692.8"/>
	<line class="st1" x1="1077.2" y1="669.5" x2="1053.9" y2="692.8"/>
	<line class="st1" x1="1086.8" y1="669.5" x2="1110.1" y2="692.8"/>
	<line class="st1" x1="1110.1" y1="669.5" x2="1086.8" y2="692.8"/>
	<line class="st1" x1="1086.8" y1="702.4" x2="1110.1" y2="725.7"/>
	<line class="st1" x1="1110.1" y1="702.4" x2="1086.8" y2="725.7"/>
	<line class="st1" x1="1119.7" y1="702.4" x2="1143" y2="725.7"/>
	<line class="st1" x1="1143" y1="702.4" x2="1119.7" y2="725.7"/>
	<line class="st1" x1="1119.7" y1="669.5" x2="1143" y2="692.8"/>
	<line class="st1" x1="1143" y1="669.5" x2="1119.7" y2="692.8"/>
	<line class="st1" x1="1086.8" y1="735.3" x2="1110.1" y2="758.6"/>
	<line class="st1" x1="1110.1" y1="735.3" x2="1086.8" y2="758.6"/>
	<line class="st1" x1="1086.8" y1="768.2" x2="1110.1" y2="791.5"/>
	<line class="st1" x1="1110.1" y1="768.2" x2="1086.8" y2="791.5"/>
	<line class="st1" x1="1119.7" y1="768.2" x2="1143" y2="791.5"/>
	<line class="st1" x1="1143" y1="768.2" x2="1119.7" y2="791.5"/>
	<line class="st1" x1="1119.7" y1="735.3" x2="1143" y2="758.6"/>
	<line class="st1" x1="1143" y1="735.3" x2="1119.7" y2="758.6"/>
	<line class="st1" x1="1152.6" y1="669.5" x2="1175.9" y2="692.8"/>
	<line class="st1" x1="1175.9" y1="669.5" x2="1152.6" y2="692.8"/>
	<line class="st1" x1="1152.6" y1="702.4" x2="1175.9" y2="725.7"/>
	<line class="st1" x1="1175.9" y1="702.4" x2="1152.6" y2="725.7"/>
	<line class="st1" x1="1185.5" y1="702.4" x2="1208.8" y2="725.7"/>
	<line class="st1" x1="1208.8" y1="702.4" x2="1185.5" y2="725.7"/>
	<line class="st1" x1="1185.5" y1="669.5" x2="1208.8" y2="692.8"/>
	<line class="st1" x1="1208.8" y1="669.5" x2="1185.5" y2="692.8"/>
	<line class="st1" x1="1152.6" y1="735.3" x2="1175.9" y2="758.6"/>
	<line class="st1" x1="1175.9" y1="735.3" x2="1152.6" y2="758.6"/>
	<line class="st1" x1="1152.6" y1="768.2" x2="1175.9" y2="791.5"/>
	<line class="st1" x1="1175.9" y1="768.2" x2="1152.6" y2="791.5"/>
	<line class="st1" x1="1185.5" y1="768.2" x2="1208.8" y2="791.5"/>
	<line class="st1" x1="1208.8" y1="768.2" x2="1185.5" y2="791.5"/>
	<line class="st1" x1="1185.5" y1="735.3" x2="1208.8" y2="758.6"/>
	<line class="st1" x1="1208.8" y1="735.3" x2="1185.5" y2="758.6"/>
	<line class="st1" x1="1218.4" y1="669.5" x2="1241.7" y2="692.8"/>
	<line class="st1" x1="1241.7" y1="669.5" x2="1218.4" y2="692.8"/>
	<line class="st1" x1="1218.4" y1="702.4" x2="1241.7" y2="725.7"/>
	<line class="st1" x1="1241.7" y1="702.4" x2="1218.4" y2="725.7"/>
	<line class="st1" x1="1251.3" y1="702.4" x2="1274.5" y2="725.7"/>
	<line class="st1" x1="1274.5" y1="702.4" x2="1251.3" y2="725.7"/>
	<line class="st1" x1="1251.3" y1="669.5" x2="1274.5" y2="692.8"/>
	<line class="st1" x1="1274.5" y1="669.5" x2="1251.3" y2="692.8"/>
	<line class="st1" x1="1218.4" y1="735.3" x2="1241.7" y2="758.6"/>
	<line class="st1" x1="1241.7" y1="735.3" x2="1218.4" y2="758.6"/>
	<line class="st1" x1="1218.4" y1="768.2" x2="1241.7" y2="791.5"/>
	<line class="st1" x1="1241.7" y1="768.2" x2="1218.4" y2="791.5"/>
	<line class="st1" x1="1251.3" y1="768.2" x2="1274.5" y2="791.5"/>
	<line class="st1" x1="1274.5" y1="768.2" x2="1251.3" y2="791.5"/>
	<line class="st1" x1="1251.3" y1="735.3" x2="1274.5" y2="758.6"/>
	<line class="st1" x1="1274.5" y1="735.3" x2="1251.3" y2="758.6"/>
	<line class="st1" x1="1021.1" y1="735.3" x2="1044.3" y2="758.6"/>
	<line class="st1" x1="1044.3" y1="735.3" x2="1021.1" y2="758.6"/>
	<line class="st1" x1="1021.1" y1="768.2" x2="1044.3" y2="791.5"/>
	<line class="st1" x1="1044.3" y1="768.2" x2="1021.1" y2="791.5"/>
	<line class="st1" x1="1053.9" y1="768.2" x2="1077.2" y2="791.5"/>
	<line class="st1" x1="1077.2" y1="768.2" x2="1053.9" y2="791.5"/>
	<line class="st1" x1="1053.9" y1="735.3" x2="1077.2" y2="758.6"/>
	<line class="st1" x1="1077.2" y1="735.3" x2="1053.9" y2="758.6"/>
</g>
<g class="st0">
	<line class="st1" x1="366.7" y1="21.1" x2="409.5" y2="63.9"/>
	<line class="st1" x1="409.5" y1="21.1" x2="366.7" y2="63.9"/>
	<line class="st1" x1="366.7" y1="81.5" x2="409.5" y2="124.3"/>
	<line class="st1" x1="409.5" y1="81.5" x2="366.7" y2="124.3"/>
	<line class="st1" x1="427.2" y1="81.5" x2="470" y2="124.3"/>
	<line class="st1" x1="470" y1="81.5" x2="427.2" y2="124.3"/>
	<line class="st1" x1="427.2" y1="21.1" x2="470" y2="63.9"/>
	<line class="st1" x1="470" y1="21.1" x2="427.2" y2="63.9"/>
	<line class="st1" x1="487.6" y1="21.1" x2="530.4" y2="63.9"/>
	<line class="st1" x1="530.4" y1="21.1" x2="487.6" y2="63.9"/>
	<line class="st1" x1="487.6" y1="81.5" x2="530.4" y2="124.3"/>
	<line class="st1" x1="530.4" y1="81.5" x2="487.6" y2="124.3"/>
	<line class="st1" x1="548.1" y1="81.5" x2="590.9" y2="124.3"/>
	<line class="st1" x1="590.9" y1="81.5" x2="548.1" y2="124.3"/>
	<line class="st1" x1="548.1" y1="21.1" x2="590.9" y2="63.9"/>
	<line class="st1" x1="590.9" y1="21.1" x2="548.1" y2="63.9"/>
	<line class="st1" x1="487.6" y1="142" x2="530.4" y2="184.8"/>
	<line class="st1" x1="530.4" y1="142" x2="487.6" y2="184.8"/>
	<line class="st1" x1="487.6" y1="202.4" x2="530.4" y2="245.2"/>
	<line class="st1" x1="530.4" y1="202.4" x2="487.6" y2="245.2"/>
	<line class="st1" x1="548.1" y1="202.4" x2="590.9" y2="245.2"/>
	<line class="st1" x1="590.9" y1="202.4" x2="548.1" y2="245.2"/>
	<line class="st1" x1="548.1" y1="142" x2="590.9" y2="184.8"/>
	<line class="st1" x1="590.9" y1="142" x2="548.1" y2="184.8"/>
	<line class="st1" x1="608.5" y1="21.1" x2="651.3" y2="63.9"/>
	<line class="st1" x1="651.3" y1="21.1" x2="608.5" y2="63.9"/>
	<line class="st1" x1="608.5" y1="81.5" x2="651.3" y2="124.3"/>
	<line class="st1" x1="651.3" y1="81.5" x2="608.5" y2="124.3"/>
	<line class="st1" x1="669" y1="81.5" x2="711.8" y2="124.3"/>
	<line class="st1" x1="711.8" y1="81.5" x2="669" y2="124.3"/>
	<line class="st1" x1="669" y1="21.1" x2="711.8" y2="63.9"/>
	<line class="st1" x1="711.8" y1="21.1" x2="669" y2="63.9"/>
	<line class="st1" x1="608.5" y1="142" x2="651.3" y2="184.8"/>
	<line class="st1" x1="651.3" y1="142" x2="608.5" y2="184.8"/>
	<line class="st1" x1="608.5" y1="202.4" x2="651.3" y2="245.2"/>
	<line class="st1" x1="651.3" y1="202.4" x2="608.5" y2="245.2"/>
	<line class="st1" x1="669" y1="202.4" x2="711.8" y2="245.2"/>
	<line class="st1" x1="711.8" y1="202.4" x2="669" y2="245.2"/>
	<line class="st1" x1="669" y1="142" x2="711.8" y2="184.8"/>
	<line class="st1" x1="711.8" y1="142" x2="669" y2="184.8"/>
	<line class="st1" x1="729.4" y1="21.1" x2="772.2" y2="63.9"/>
	<line class="st1" x1="772.2" y1="21.1" x2="729.4" y2="63.9"/>
	<line class="st1" x1="729.4" y1="81.5" x2="772.2" y2="124.3"/>
	<line class="st1" x1="772.2" y1="81.5" x2="729.4" y2="124.3"/>
	<line class="st1" x1="789.9" y1="81.5" x2="832.7" y2="124.3"/>
	<line class="st1" x1="832.7" y1="81.5" x2="789.9" y2="124.3"/>
	<line class="st1" x1="789.9" y1="21.1" x2="832.7" y2="63.9"/>
	<line class="st1" x1="832.7" y1="21.1" x2="789.9" y2="63.9"/>
	<line class="st1" x1="729.4" y1="142" x2="772.2" y2="184.8"/>
	<line class="st1" x1="772.2" y1="142" x2="729.4" y2="184.8"/>
	<line class="st1" x1="729.4" y1="202.4" x2="772.2" y2="245.2"/>
	<line class="st1" x1="772.2" y1="202.4" x2="729.4" y2="245.2"/>
	<line class="st1" x1="789.9" y1="202.4" x2="832.7" y2="245.2"/>
	<line class="st1" x1="832.7" y1="202.4" x2="789.9" y2="245.2"/>
	<line class="st1" x1="789.9" y1="142" x2="832.7" y2="184.8"/>
	<line class="st1" x1="832.7" y1="142" x2="789.9" y2="184.8"/>
	<line class="st1" x1="366.7" y1="142" x2="409.5" y2="184.8"/>
	<line class="st1" x1="409.5" y1="142" x2="366.7" y2="184.8"/>
	<line class="st1" x1="366.7" y1="202.4" x2="409.5" y2="245.2"/>
	<line class="st1" x1="409.5" y1="202.4" x2="366.7" y2="245.2"/>
	<line class="st1" x1="427.2" y1="202.4" x2="470" y2="245.2"/>
	<line class="st1" x1="470" y1="202.4" x2="427.2" y2="245.2"/>
	<line class="st1" x1="427.2" y1="142" x2="470" y2="184.8"/>
	<line class="st1" x1="470" y1="142" x2="427.2" y2="184.8"/>
</g>
<g class="st2">
	<polygon class="st3" points="1131.3,71.7 1087.8,234.2 1250.3,190.7 1293.9,28.1 	"/>
	<polygon class="st3" points="1087.8,234.2 1206.8,353.3 1369.4,309.7 1250.3,190.7 	"/>
	<polygon class="st3" points="1250.3,190.7 1369.4,309.7 1412.9,147.1 1293.9,28.1 	"/>
	<polygon class="st3" points="1803.2,349.7 1733.5,331 1752.2,400.6 1821.8,419.3 	"/>
	<polygon class="st3" points="1733.5,331 1682.6,382 1701.2,451.6 1752.2,400.6 	"/>
	<polygon class="st3" points="1752.2,400.6 1701.2,451.6 1770.8,470.2 1821.8,419.3 	"/>
	<polygon class="st3" points="1682.6,598.4 1536.8,682.5 1682.6,766.7 1828.3,682.5 	"/>
	<polygon class="st3" points="1536.8,682.5 1536.8,850.9 1682.6,935 1682.6,766.7 	"/>
	<polygon class="st3" points="1682.6,766.7 1682.6,935 1828.3,850.9 1828.3,682.5 	"/>
</g>
<linearGradient id="SVGID_1_" gradientUnits="userSpaceOnUse" x1="1969.5264" y1="2284.615" x2="957.8665" y2="-259.6549" gradientTransform="matrix(1 0 0 1 0 2)">
	<stop  offset="0.61" style="stop-color:#CC2A49"/>
	<stop  offset="1" style="stop-color:#F36F38"/>
</linearGradient>
<path class="st4" d="M1731.4,858.7c-0.2-40.2-38.8-72.7-86.2-72.5l-520.3,1.7c-40.7,0.1-65.5-38-43.5-67c0.3-0.5,0.6-0.7,0.6-0.7
	l0,0c10.1-12,16.1-26.7,16-42.6l0,0c-0.1-15.9-6.2-30.5-16.4-42.5l0,0l-0.1-0.1c-1.3-1.5-2.6-2.9-3.9-4.3l-0.7-0.8
	c-25.8-30.8-4.5-72.4,36.2-80.2l-35.7,0.1c-47.7,0.2-75.8,47.5-48.2,81.8l0.7,0.8c1.3,1.4,2.6,2.8,3.8,4.3l0.1,0.1l0,0
	c10.1,11.9,15.7,27,15.8,42.6l0,0c0,15.6-5.5,30.7-15.5,42.7l0,0c0,0-0.2,0.2-0.5,0.7c-21.3,29,2.7,67.3,42,67.2l503.4-1.7
	c45.9-0.2,83.2,32.4,83.4,72.7l0,0c0.2,34.1-26.3,62.8-62.3,71l45.7-0.2C1693.3,931.6,1731.6,898.9,1731.4,858.7L1731.4,858.7z"/>
<linearGradient id="SVGID_2_" gradientUnits="userSpaceOnUse" x1="1721.4031" y1="2403.2227" x2="704.7332" y2="-153.6475" gradientTransform="matrix(1 0 0 1 0 2)">
	<stop  offset="0.61" style="stop-color:#CC2A49"/>
	<stop  offset="1" style="stop-color:#F36F38"/>
</linearGradient>
<path class="st5" d="M407.7,88.6L407.7,88.6c0.1,22.5-11.4,42.6-29.5,56.1l0,0c0,0-0.3,0.3-0.8,0.8c-23.6,22.2-5.4,58.5,29.2,58.4
	l425.9-1.4c45.9-0.1,83.2,32.4,83.4,72.7l0,0c0.1,21.1-10.1,40.2-26.3,53.6l0,0c0,0-0.3,0.3-0.7,0.9c-25.9,31.2-0.2,75,43.7,74.9
	l342.2-1.2c45.9-0.1,83.2,32.4,83.4,72.7l0,0c0.2,35.7-29,65.5-67.5,72l40.8-0.1c47.4-0.2,85.7-32.9,85.5-73.1l0,0
	c-0.2-40.2-38.8-72.7-86.2-72.5l-353.8,1c-45.4,0.1-72-43.6-45.2-74.7c0.5-0.5,0.8-0.9,0.8-0.9l0,0c16.8-13.4,27.3-32.4,27.2-53.4
	l0,0c-0.2-40.2-38.8-72.7-86.2-72.5l-440.2,1.4c-35.8,0.1-54.6-36.1-30.2-58.3c0.5-0.5,0.9-0.7,0.9-0.7l0,0
	c18.8-13.4,30.6-33.5,30.5-55.9l0,0c-0.2-40.2-38.8-72.7-86.2-72.5L327.9,16C372.1,17.4,407.5,49.3,407.7,88.6z"/>
<linearGradient id="SVGID_3_" gradientUnits="userSpaceOnUse" x1="1950.621" y1="2429.8098" x2="865.311" y2="-299.6904" gradientTransform="matrix(1 0 0 1 0 2)">
	<stop  offset="0.61" style="stop-color:#CC2A49"/>
	<stop  offset="1" style="stop-color:#F36F38"/>
</linearGradient>
<path class="st6" d="M1113.2,549.7l162.2-0.5c5.1,0,10.2-0.5,15.2-1.3l-163.7,0.5C1122.2,548.5,1117.7,548.9,1113.2,549.7z"/>
<linearGradient id="SVGID_4_" gradientUnits="userSpaceOnUse" x1="1450.5433" y1="2569.5564" x2="368.0235" y2="-152.9436" gradientTransform="matrix(1 0 0 1 0 2)">
	<stop  offset="0.61" style="stop-color:#CC2A49"/>
	<stop  offset="1" style="stop-color:#F36F38"/>
</linearGradient>
<path class="st7" d="M989,933.9l-882.2,2.9L0,937.1v2.4l90.6-0.3l853.5-2.9l0,0l635.6-2.1c6.9,0,13.7-0.8,20.5-2.3L989,933.9
	L989,933.9z"/>
<linearGradient id="SVGID_5_" gradientUnits="userSpaceOnUse" x1="1260.7804" y1="2772.9597" x2="178.3104" y2="50.5798" gradientTransform="matrix(1 0 0 1 0 2)">
	<stop  offset="0.61" style="stop-color:#CC2A49"/>
	<stop  offset="1" style="stop-color:#F36F38"/>
</linearGradient>
<path class="st8" d="M268.5,16.1l59.4-0.2c-1.2,0-2.4-0.1-3.5-0.1L247,16.1L0,17l0,0L268.5,16.1z"/>
<linearGradient id="SVGID_6_" gradientUnits="userSpaceOnUse" x1="1465.1605" y1="2485.2097" x2="451.9803" y2="-62.9105" gradientTransform="matrix(1 0 0 1 0 2)">
	<stop  offset="0.61" style="stop-color:#CC2A49"/>
	<stop  offset="1" style="stop-color:#F36F38"/>
</linearGradient>
<path class="st9" d="M1662.5,860.9L1662.5,860.9c-0.2-40.3-37.5-72.9-83.4-72.7l-503.4,1.7c-39.3,0.1-63.4-38.1-42-67.2
	c0.3-0.5,0.5-0.7,0.5-0.7l0,0c10-12,15.5-27.1,15.5-42.7l0,0c-0.2-15.6-5.8-30.7-15.8-42.6l0,0l-0.1-0.1c-1.2-1.5-2.5-2.9-3.8-4.3
	l-0.7-0.8c-27.6-34.2,0.5-81.6,48.2-81.8l35.7-0.1c4.5-0.9,9.1-1.3,13.7-1.3l163.7-0.5c38.6-6.4,67.7-36.2,67.5-72l0,0
	c-0.2-40.3-37.5-72.9-83.4-72.7l-342.2,1.2c-44,0.1-69.6-43.7-43.7-74.9c0.5-0.6,0.7-0.9,0.7-0.9l0,0c16.3-13.4,26.4-32.5,26.3-53.6
	l0,0c-0.2-40.3-37.5-72.9-83.4-72.7l-425.9,1.4c-34.6,0.1-52.8-36.2-29.2-58.4c0.5-0.5,0.8-0.8,0.8-0.8l0,0
	c18.1-13.4,29.6-33.6,29.5-56.1l0,0C407.4,49,372,17.1,327.8,15.7l-59.4,0.2L0,17v920.1l106.8-0.3l882.2-2.9l0,0l611.2-2
	C1636.1,923.8,1662.6,895,1662.5,860.9z"/>
<linearGradient id="SVGID_7_" gradientUnits="userSpaceOnUse" x1="1451.1029" y1="2449.8386" x2="450.803" y2="-65.8615" gradientTransform="matrix(1 0 0 1 0 2)">
	<stop  offset="0.61" style="stop-color:#CC2A49"/>
	<stop  offset="1" style="stop-color:#F36F38"/>
</linearGradient>
<path class="st10" d="M1662.5,860.9L1662.5,860.9c-0.2-40.3-37.5-72.9-83.4-72.7l-503.4,1.7c-39.3,0.1-63.4-38.1-42-67.2
	c0.3-0.5,0.5-0.7,0.5-0.7l0,0c10-12,15.5-27.1,15.5-42.7l0,0c-0.2-15.6-5.8-30.7-15.8-42.6l0,0l-0.1-0.1c-1.2-1.5-2.5-2.9-3.8-4.3
	l-0.7-0.8c-27.6-34.2,0.5-81.6,48.2-81.8l35.7-0.1c4.5-0.9,9.1-1.3,13.7-1.3l163.7-0.5c38.6-6.4,67.7-36.2,67.5-72l0,0
	c-0.2-40.3-37.5-72.9-83.4-72.7l-342.2,1.2c-44,0.1-69.6-43.7-43.7-74.9c0.5-0.6,0.7-0.9,0.7-0.9l0,0c16.3-13.4,26.4-32.5,26.3-53.6
	l0,0c-0.2-40.3-37.5-72.9-83.4-72.7l-425.9,1.4c-34.6,0.1-52.8-36.2-29.2-58.4c0.5-0.5,0.8-0.8,0.8-0.8l0,0
	c18.1-13.4,29.6-33.6,29.5-56.1l0,0C407.4,49,372,17.1,327.8,15.7l-59.4,0.2L0,17v920.1l106.8-0.3l882.2-2.9l0,0l611.2-2
	C1636.1,923.8,1662.6,895,1662.5,860.9z"/>
<g class="st0">
	<line class="st11" x1="1908.5" y1="257.4" x2="1876.5" y2="225.4"/>
	<line class="st11" x1="1876.5" y1="257.4" x2="1908.5" y2="225.4"/>
	<line class="st11" x1="1908.5" y1="212.2" x2="1876.5" y2="180.2"/>
	<line class="st11" x1="1876.5" y1="212.2" x2="1908.5" y2="180.2"/>
	<line class="st11" x1="1863.3" y1="212.2" x2="1831.3" y2="180.2"/>
	<line class="st11" x1="1831.3" y1="212.2" x2="1863.3" y2="180.2"/>
	<line class="st11" x1="1863.3" y1="257.4" x2="1831.3" y2="225.4"/>
	<line class="st11" x1="1831.3" y1="257.4" x2="1863.3" y2="225.4"/>
	<line class="st11" x1="1818.1" y1="257.4" x2="1786.1" y2="225.4"/>
	<line class="st11" x1="1786.1" y1="257.4" x2="1818.1" y2="225.4"/>
	<line class="st11" x1="1818.1" y1="212.2" x2="1786.1" y2="180.2"/>
	<line class="st11" x1="1786.1" y1="212.2" x2="1818.1" y2="180.2"/>
	<line class="st11" x1="1772.9" y1="212.2" x2="1740.9" y2="180.2"/>
	<line class="st11" x1="1740.9" y1="212.2" x2="1772.9" y2="180.2"/>
	<line class="st11" x1="1772.9" y1="257.4" x2="1740.9" y2="225.4"/>
	<line class="st11" x1="1740.9" y1="257.4" x2="1772.9" y2="225.4"/>
	<line class="st11" x1="1818.1" y1="167" x2="1786.1" y2="135"/>
	<line class="st11" x1="1786.1" y1="167" x2="1818.1" y2="135"/>
	<line class="st11" x1="1818.1" y1="121.8" x2="1786.1" y2="89.8"/>
	<line class="st11" x1="1786.1" y1="121.8" x2="1818.1" y2="89.8"/>
	<line class="st11" x1="1772.9" y1="121.8" x2="1740.9" y2="89.8"/>
	<line class="st11" x1="1740.9" y1="121.8" x2="1772.9" y2="89.8"/>
	<line class="st11" x1="1772.9" y1="167" x2="1740.9" y2="135"/>
	<line class="st11" x1="1740.9" y1="167" x2="1772.9" y2="135"/>
	<line class="st11" x1="1727.7" y1="257.4" x2="1695.7" y2="225.4"/>
	<line class="st11" x1="1695.7" y1="257.4" x2="1727.7" y2="225.4"/>
	<line class="st11" x1="1727.7" y1="212.2" x2="1695.7" y2="180.2"/>
	<line class="st11" x1="1695.7" y1="212.2" x2="1727.7" y2="180.2"/>
	<line class="st11" x1="1682.5" y1="212.2" x2="1650.5" y2="180.2"/>
	<line class="st11" x1="1650.5" y1="212.2" x2="1682.5" y2="180.2"/>
	<line class="st11" x1="1682.5" y1="257.4" x2="1650.5" y2="225.4"/>
	<line class="st11" x1="1650.5" y1="257.4" x2="1682.5" y2="225.4"/>
	<line class="st11" x1="1727.7" y1="167" x2="1695.7" y2="135"/>
	<line class="st11" x1="1695.7" y1="167" x2="1727.7" y2="135"/>
	<line class="st11" x1="1727.7" y1="121.8" x2="1695.7" y2="89.8"/>
	<line class="st11" x1="1695.7" y1="121.8" x2="1727.7" y2="89.8"/>
	<line class="st11" x1="1682.5" y1="121.8" x2="1650.5" y2="89.8"/>
	<line class="st11" x1="1650.5" y1="121.8" x2="1682.5" y2="89.8"/>
	<line class="st11" x1="1682.5" y1="167" x2="1650.5" y2="135"/>
	<line class="st11" x1="1650.5" y1="167" x2="1682.5" y2="135"/>
	<line class="st11" x1="1637.3" y1="257.4" x2="1605.3" y2="225.4"/>
	<line class="st11" x1="1605.3" y1="257.4" x2="1637.3" y2="225.4"/>
	<line class="st11" x1="1637.3" y1="212.2" x2="1605.3" y2="180.2"/>
	<line class="st11" x1="1605.3" y1="212.2" x2="1637.3" y2="180.2"/>
	<line class="st11" x1="1592.1" y1="212.2" x2="1560.1" y2="180.2"/>
	<line class="st11" x1="1560.1" y1="212.2" x2="1592.1" y2="180.2"/>
	<line class="st11" x1="1592.1" y1="257.4" x2="1560.1" y2="225.4"/>
	<line class="st11" x1="1560.1" y1="257.4" x2="1592.1" y2="225.4"/>
	<line class="st11" x1="1637.3" y1="167" x2="1605.3" y2="135"/>
	<line class="st11" x1="1605.3" y1="167" x2="1637.3" y2="135"/>
	<line class="st11" x1="1637.3" y1="121.8" x2="1605.3" y2="89.8"/>
	<line class="st11" x1="1605.3" y1="121.8" x2="1637.3" y2="89.8"/>
	<line class="st11" x1="1592.1" y1="121.8" x2="1560.1" y2="89.8"/>
	<line class="st11" x1="1560.1" y1="121.8" x2="1592.1" y2="89.8"/>
	<line class="st11" x1="1592.1" y1="167" x2="1560.1" y2="135"/>
	<line class="st11" x1="1560.1" y1="167" x2="1592.1" y2="135"/>
	<line class="st11" x1="1908.5" y1="167" x2="1876.5" y2="135"/>
	<line class="st11" x1="1876.5" y1="167" x2="1908.5" y2="135"/>
	<line class="st11" x1="1908.5" y1="121.8" x2="1876.5" y2="89.8"/>
	<line class="st11" x1="1876.5" y1="121.8" x2="1908.5" y2="89.8"/>
	<line class="st11" x1="1863.3" y1="121.8" x2="1831.3" y2="89.8"/>
	<line class="st11" x1="1831.3" y1="121.8" x2="1863.3" y2="89.8"/>
	<line class="st11" x1="1863.3" y1="167" x2="1831.3" y2="135"/>
	<line class="st11" x1="1831.3" y1="167" x2="1863.3" y2="135"/>
</g>
</svg>
