<?xml version="1.0" encoding="utf-8"?>
<!-- Generator: Adobe Illustrator 23.0.0, SVG Export Plug-In . SVG Version: 6.00 Build 0)  -->
<svg version="1.1" id="Layer_1" xmlns="http://www.w3.org/2000/svg" xmlns:xlink="http://www.w3.org/1999/xlink" x="0px" y="0px"
	 viewBox="0 0 320 804" style="enable-background:new 0 0 320 804;" xml:space="preserve">
<style type="text/css">
	.st0{opacity:0.35;fill:url(#SVGID_1_);}
	.st1{fill:url(#SVGID_2_);}
	.st2{fill:#F26F38;}
	.st3{fill:#F89D4C;}
	.st4{fill:#EE4648;}
	.st5{fill:#CB2A49;}
	.st6{fill:#582841;}
	.st7{fill:#72172D;}
	.st8{fill:#751C32;}
	.st9{fill:#CC6D1F;}
	.st10{fill:none;stroke:#A54C7F;stroke-width:3;stroke-miterlimit:10;}
</style>
<linearGradient id="SVGID_1_" gradientUnits="userSpaceOnUse" x1="0" y1="573.9073" x2="320" y2="573.9073">
	<stop  offset="0.03" style="stop-color:#CC2A49"/>
	<stop  offset="1" style="stop-color:#F36F38"/>
</linearGradient>
<path class="st0" d="M0,344v122v10v22v24v11.81V598v22v10v14v10v1.81v10V752v24v11.81c0,8.8,7.2,16,16,16h1.91
	c3.28,0,6.33-1,8.87-2.71c3.66-2.47,8.47-2.47,12.14,0c2.54,1.71,5.59,2.71,8.87,2.71h1.91c3.28,0,6.33-1,8.87-2.71
	c3.66-2.47,8.47-2.47,12.14,0c2.54,1.71,5.59,2.71,8.87,2.71h1.91c3.28,0,6.33-1,8.87-2.71c3.66-2.47,8.47-2.47,12.14,0
	c2.54,1.71,5.59,2.71,8.87,2.71h1.91c3.28,0,6.33-1,8.87-2.71c3.66-2.47,8.47-2.47,12.14,0c2.54,1.71,5.59,2.71,8.87,2.71h1.91
	c3.28,0,6.33-1,8.87-2.71c3.66-2.47,8.47-2.47,12.14,0c2.54,1.71,5.59,2.71,8.87,2.71h1.91c3.28,0,6.33-1,8.87-2.71
	c3.66-2.47,8.47-2.47,12.14,0c2.54,1.71,5.59,2.71,8.87,2.71h1.91c3.28,0,6.33-1,8.87-2.71c3.66-2.47,8.47-2.47,12.14,0
	c2.54,1.71,5.59,2.71,8.87,2.71h1.91c3.28,0,6.33-1,8.87-2.71c3.66-2.47,8.47-2.47,12.14,0c2.54,1.71,5.59,2.71,8.87,2.71h1.91
	c3.28,0,6.33-1,8.87-2.71c3.66-2.47,8.47-2.47,12.14,0c2.54,1.71,5.59,2.71,8.87,2.71H304c8.8,0,16-7.2,16-16V776v-24v-86.19v-10
	V654v-10v-14v-10v-22v-64.19V522v-24v-22v-10V344H0z"/>
<linearGradient id="SVGID_2_" gradientUnits="userSpaceOnUse" x1="0" y1="212.1589" x2="320" y2="212.1589">
	<stop  offset="0.03" style="stop-color:#CC2A49"/>
	<stop  offset="1" style="stop-color:#F36F38"/>
</linearGradient>
<path class="st1" d="M304,2h-1.91c-3.28,0-6.33,1-8.87,2.71c-3.66,2.47-8.47,2.47-12.14,0C278.54,3,275.49,2,272.21,2h-1.91
	c-3.28,0-6.33,1-8.87,2.71c-3.66,2.47-8.47,2.47-12.14,0C246.76,3,243.7,2,240.42,2h-1.91c-3.28,0-6.33,1-8.87,2.71
	c-3.66,2.47-8.47,2.47-12.14,0C214.97,3,211.91,2,208.64,2h-1.91c-3.28,0-6.33,1-8.87,2.71c-3.66,2.47-8.47,2.47-12.14,0
	C183.18,3,180.13,2,176.85,2h-1.91c-3.28,0-6.33,1-8.87,2.71c-3.66,2.47-8.47,2.47-12.14,0C151.39,3,148.34,2,145.06,2h-1.91
	c-3.28,0-6.33,1-8.87,2.71c-3.66,2.47-8.47,2.47-12.14,0C119.6,3,116.55,2,113.27,2h-1.91c-3.28,0-6.33,1-8.87,2.71
	c-3.66,2.47-8.47,2.47-12.14,0C87.82,3,84.76,2,81.48,2h-1.91c-3.28,0-6.33,1-8.87,2.71c-3.66,2.47-8.47,2.47-12.14,0
	C56.03,3,52.97,2,49.7,2h-1.91c-3.28,0-6.33,1-8.87,2.71c-3.66,2.47-8.47,2.47-12.14,0C24.24,3,21.19,2,17.91,2H16C7.2,2,0,9.2,0,18
	v3v8.81v24v154V326v15v39.89c0,8.8,7.2,16,16,16h1.91c3.29,0,6.36-1.01,8.91-2.74c2.12-1.43,4.97-0.01,4.97,2.55v9.62
	c0,8.8,7.2,16,16,16h1.91c8.8,0,16-7.2,16-16v-46.7c0-2.56,2.85-3.98,4.97-2.55c2.55,1.73,5.61,2.74,8.91,2.74h1.91
	c3.29,0,6.36-1.01,8.91-2.74c2.12-1.43,4.97-0.01,4.97,2.55v21.27c0,8.8,7.2,16,16,16h1.91c8.8,0,16-7.2,16-16v-10.68
	c0-2.56,2.85-3.98,4.97-2.55c2.55,1.73,5.61,2.74,8.91,2.74h1.91c3.29,0,6.36-1.01,8.91-2.74c2.12-1.43,4.97-0.01,4.97,2.55v10.68
	c0,8.8,7.2,16,16,16h1.91c3.29,0,6.36-1.01,8.91-2.74c2.12-1.43,4.97-0.01,4.97,2.55v5.38c0,8.8,7.2,16,16,16h1.91
	c8.8,0,16-7.2,16-16V391.4c0-2.56,2.85-3.98,4.97-2.55c2.55,1.73,5.61,2.74,8.91,2.74h1.91c8.8,0,16-7.2,16-16v-5.38
	c0-2.56,2.85-3.98,4.97-2.55c2.55,1.73,5.61,2.74,8.91,2.74h1.91c3.29,0,6.36-1.01,8.91-2.74c2.12-1.43,4.97-0.01,4.97,2.55v0.08
	c0,8.8,7.2,16,16,16H304c8.8,0,16-7.2,16-16V341v-15V207.81v-154v-24V21v-3C320,9.2,312.8,2,304,2z"/>
<g>
	<polygon class="st2" points="162.35,177.69 51.23,241.84 162.35,306 273.47,241.84 	"/>
	<polygon class="st3" points="162.35,162.76 51.23,226.91 162.35,291.06 273.47,226.91 	"/>
	<polygon class="st4" points="51.23,226.91 51.23,241.84 162.35,306 162.35,291.06 	"/>
	<polygon class="st5" points="273.47,226.91 273.47,241.84 162.35,306 162.35,291.06 	"/>
	<polygon class="st5" points="304.38,209.11 304.38,224.05 193.27,288.2 193.27,273.26 	"/>
	<polygon class="st6" points="94.97,212.85 87.22,128.67 91.09,128.67 98.84,212.85 	"/>
	<path class="st7" d="M80.69,110.97c-43.28,9.14-64.32,66.72-64.32,66.72c29.94-14.05,53.24,0,53.24,0S69.15,127.27,80.69,110.97z"
		/>
	<path class="st5" d="M85.27,110.2c-1.56,0.2-3.08,0.45-4.58,0.77c-11.53,16.3-11.07,66.72-11.07,66.72
		c24.96-17.38,56.01-9.24,56.01-9.24S112.01,123.82,85.27,110.2z"/>
	<path class="st7" d="M85.27,110.2c26.74,13.6,40.36,58.23,40.36,58.23c8.09-20.19,36.72-21.63,36.72-21.63
		C131.76,116.23,106.12,107.6,85.27,110.2z"/>
	<path class="st6" d="M304.2,209.17l-111.12-64.16l-30.73,17.74l0,0c-0.14,0.14-11.32,10.64-1.93,22.92
		c9.44,12.37,24.74,2.7,36.43,8.32c11.69,5.62,3.15,19.34,11.92,25.43c8.77,6.09,32.84-3.6,38.46,1.58c5.62,5.17,4.27,6.97,7.87,9.9
		c3.6,2.93,6.28,2.99,6.28,2.99l4.18-2.42l0,0L304.2,209.17z"/>
	<circle class="st3" cx="209.02" cy="70.69" r="25.3"/>
	<path class="st8" d="M268.59,93.07c0,0-2.55-24.44-24.49-24.44s-25.49,25.49-25.49,25.49s-9.97-1.4-15.42,6.09
		c-3.84,5.3,0.05,12.76,6.61,12.66h67.61c6.59,0,10.38-7.55,6.4-12.8C280.95,96.24,276.26,93.07,268.59,93.07z M239.65,93.24
		l-10.05,4.02l10,4.04v3.41l-14.44-6.01v-2.89l14.46-5.98L239.65,93.24z M244.2,106.59h-2.98l4.36-18.53h3.01L244.2,106.59z
		 M264.63,98.71l-14.45,6.01v-3.41l10-4.03l-10-4.02v-3.42l14.46,5.99L264.63,98.71z"/>
	<path class="st8" d="M194.15,77.94c0,0-2.53-24.46-24.47-24.46S144.2,78.97,144.2,78.97s-9.97-1.4-15.42,6.09
		c-3.86,5.3,0.05,12.76,6.61,12.66H203c6.6,0,10.38-7.55,6.4-12.8C206.53,81.1,201.84,77.94,194.15,77.94z M165.26,67.56
		c-1.27,0-2.07,0.13-2.42,0.39c-0.35,0.25-0.5,0.82-0.5,1.69c0,2.81-0.18,4.71-0.53,5.7c-0.41,1.07-1.17,1.97-2.16,2.54
		c0.88,0.48,1.58,1.22,2.01,2.13c0.46,0.95,0.69,2.99,0.69,6.1c-0.04,0.49,0.06,0.99,0.3,1.42c0.19,0.27,0.48,0.45,0.8,0.53
		c0.6,0.11,1.21,0.15,1.82,0.13v3.45h-0.75c-1.65,0-2.9-0.21-3.75-0.64c-0.79-0.37-1.41-1.04-1.7-1.86c-0.3-0.8-0.44-2.19-0.44-4.16
		c0.03-1.09-0.06-2.18-0.25-3.25c-0.11-0.59-0.42-1.13-0.89-1.51c-0.59-0.39-1.28-0.6-1.98-0.59v-3.44c1.07,0,1.83-0.3,2.29-0.91
		c0.43-0.59,0.69-1.28,0.75-2.01c0.05-0.75,0.09-1.56,0.09-2.45c-0.03-1.18,0.06-2.35,0.25-3.52c0.13-0.66,0.43-1.28,0.89-1.77
		c0.49-0.49,1.09-0.84,1.76-1.04c0.98-0.25,1.98-0.37,2.99-0.34h0.75L165.26,67.56z M183.97,79.61c-0.7-0.01-1.38,0.19-1.96,0.57
		c-0.47,0.39-0.79,0.92-0.92,1.51c-0.2,1.07-0.29,2.16-0.25,3.25c0.03,1.18-0.04,2.35-0.23,3.52c-0.13,0.66-0.44,1.27-0.89,1.77
		c-0.49,0.5-1.1,0.85-1.77,1.03c-0.97,0.26-1.98,0.38-2.99,0.35h-0.75v-3.44c1.21,0,2.01-0.13,2.37-0.4s0.55-0.82,0.55-1.67
		c0-2.74,0.18-4.64,0.53-5.7c0.37-1.08,1.13-1.99,2.13-2.53c-1.07-0.58-1.86-1.55-2.21-2.72c-0.32-1.1-0.48-2.94-0.47-5.52
		c0-0.9-0.18-1.48-0.53-1.73c-0.35-0.25-1.15-0.36-2.39-0.34v-3.43h0.75c1.93,0,3.23,0.23,3.93,0.69c0.64,0.41,1.16,0.98,1.51,1.66
		c0.31,0.64,0.46,2.07,0.46,4.29c-0.03,1.09,0.05,2.18,0.25,3.25c0.12,0.6,0.44,1.13,0.92,1.51c0.58,0.4,1.27,0.6,1.97,0.59
		L183.97,79.61z"/>
	<path class="st9" d="M137.08,254.34l-16.7,4.49l-11.77-11.76l16.7-4.49L137.08,254.34z M115.24,232.5l-16.71,4.49l-11.76-11.76
		l16.71-4.48L115.24,232.5z"/>
	<path class="st9" d="M187.8,257.17l-84.08-48.79l13.55-3.62l84.21,48.76L187.8,257.17z"/>
	<path class="st9" d="M224.25,247.41l-84.08-48.79l13.55-3.63l84.22,48.74L224.25,247.41z"/>
	<path class="st5" d="M115.27,204.26c1.77-9.09,8.33-12.02,13.01-12.94c-0.58-1.17-0.88-2.45-0.89-3.75
		c-6.94-1.86-14.07,2.26-15.94,9.2c-0.58,2.17-0.59,4.44-0.03,6.62C112.76,203.38,114.08,203.68,115.27,204.26z"/>
	<path class="st5" d="M133.21,209.35c3.29-3.29,4.57-8.08,3.37-12.57c-1.3-0.01-2.58-0.31-3.75-0.89
		c-0.92,4.67-3.84,11.24-12.94,13.01c0.59,1.2,0.89,2.52,0.87,3.86C125.22,213.91,129.95,212.61,133.21,209.35z"/>
	<path class="st4" d="M128.28,191.33c-4.67,0.92-11.24,3.84-13.01,12.94c2.01,0.98,3.64,2.61,4.62,4.62
		c9.09-1.77,12.02-8.33,12.94-13.01C130.84,194.9,129.24,193.3,128.28,191.33L128.28,191.33z"/>
	<path class="st2" d="M133.21,190.95c-1.61-1.62-3.62-2.78-5.83-3.37c0.01,1.3,0.31,2.58,0.89,3.75c0.97,1.98,2.57,3.58,4.55,4.55
		c1.16,0.58,2.45,0.88,3.75,0.89C135.98,194.57,134.82,192.56,133.21,190.95z"/>
	<path class="st2" d="M119.89,208.88c-0.98-2.01-2.61-3.64-4.62-4.62c-1.2-0.59-2.53-0.89-3.86-0.87c1.19,4.58,4.77,8.17,9.35,9.35
		C120.78,211.41,120.48,210.08,119.89,208.88z"/>
	<circle class="st10" cx="193.46" cy="163.06" r="4.41"/>
	<circle class="st10" cx="190.15" cy="180.58" r="4.19"/>
	<circle class="st10" cx="214.45" cy="182.41" r="3.46"/>
	<circle class="st10" cx="259.54" cy="193.33" r="4.35"/>
	<circle class="st10" cx="241.48" cy="204.71" r="2.08"/>
	<circle class="st10" cx="260.85" cy="213.61" r="5.66"/>
	<line class="st10" x1="201.68" y1="169.53" x2="205.86" y2="173.71"/>
	<line class="st10" x1="206.41" y1="167.81" x2="207.47" y2="172.65"/>
	<line class="st10" x1="209.8" y1="167.81" x2="209.34" y2="172.65"/>
	<line class="st10" x1="238.08" y1="191.59" x2="239.26" y2="197.39"/>
	<line class="st10" x1="242.98" y1="192.76" x2="241.2" y2="197.39"/>
	<line class="st10" x1="245.8" y1="194.62" x2="242.76" y2="198.41"/>
</g>
</svg>
