<?xml version="1.0" encoding="utf-8"?>
<!-- Generator: Adobe Illustrator 23.0.0, SVG Export Plug-In . SVG Version: 6.00 Build 0)  -->
<svg version="1.1" id="Layer_1" xmlns="http://www.w3.org/2000/svg" xmlns:xlink="http://www.w3.org/1999/xlink" x="0px" y="0px"
	 viewBox="0 0 2013 934.4" style="enable-background:new 0 0 2013 934.4;" xml:space="preserve">
<style type="text/css">
	.st0{opacity:0.25;}
	.st1{fill:none;stroke:#EE4648;stroke-width:6;stroke-miterlimit:10;}
	.st2{opacity:0.2;}
	.st3{fill:none;stroke:#EE4648;stroke-width:5;stroke-linecap:round;stroke-linejoin:round;}
	.st4{fill:none;stroke:#CB2A49;stroke-width:6;stroke-miterlimit:10;}
	.st5{opacity:5.000000e-02;}
	.st6{fill:url(#SVGID_1_);}
	.st7{fill:url(#SVGID_2_);}
</style>
<title>sect3Background</title>
<g class="st0">
	<line class="st1" x1="877.6" y1="643.4" x2="854.3" y2="666.7"/>
	<line class="st1" x1="854.3" y1="643.4" x2="877.6" y2="666.7"/>
	<line class="st1" x1="877.6" y1="676.3" x2="854.3" y2="699.6"/>
	<line class="st1" x1="854.3" y1="676.3" x2="877.6" y2="699.6"/>
	<line class="st1" x1="844.7" y1="676.3" x2="821.4" y2="699.6"/>
	<line class="st1" x1="821.4" y1="676.3" x2="844.7" y2="699.6"/>
	<line class="st1" x1="844.7" y1="643.4" x2="821.4" y2="666.7"/>
	<line class="st1" x1="821.4" y1="643.4" x2="844.7" y2="666.7"/>
	<line class="st1" x1="811.8" y1="643.4" x2="788.5" y2="666.7"/>
	<line class="st1" x1="788.5" y1="643.4" x2="811.8" y2="666.7"/>
	<line class="st1" x1="811.8" y1="676.3" x2="788.5" y2="699.6"/>
	<line class="st1" x1="788.5" y1="676.3" x2="811.8" y2="699.6"/>
	<line class="st1" x1="778.9" y1="676.3" x2="755.6" y2="699.6"/>
	<line class="st1" x1="755.6" y1="676.3" x2="778.9" y2="699.6"/>
	<line class="st1" x1="778.9" y1="643.4" x2="755.6" y2="666.7"/>
	<line class="st1" x1="755.6" y1="643.4" x2="778.9" y2="666.7"/>
	<line class="st1" x1="811.8" y1="709.2" x2="788.5" y2="732.5"/>
	<line class="st1" x1="788.5" y1="709.2" x2="811.8" y2="732.5"/>
	<line class="st1" x1="811.8" y1="742.1" x2="788.5" y2="765.3"/>
	<line class="st1" x1="788.5" y1="742.1" x2="811.8" y2="765.3"/>
	<line class="st1" x1="778.9" y1="742.1" x2="755.6" y2="765.3"/>
	<line class="st1" x1="755.6" y1="742.1" x2="778.9" y2="765.3"/>
	<line class="st1" x1="778.9" y1="709.2" x2="755.6" y2="732.5"/>
	<line class="st1" x1="755.6" y1="709.2" x2="778.9" y2="732.5"/>
	<line class="st1" x1="746" y1="643.4" x2="722.8" y2="666.7"/>
	<line class="st1" x1="722.8" y1="643.4" x2="746" y2="666.7"/>
	<line class="st1" x1="746" y1="676.3" x2="722.8" y2="699.6"/>
	<line class="st1" x1="722.8" y1="676.3" x2="746" y2="699.6"/>
	<line class="st1" x1="713.2" y1="676.3" x2="689.9" y2="699.6"/>
	<line class="st1" x1="689.9" y1="676.3" x2="713.2" y2="699.6"/>
	<line class="st1" x1="713.2" y1="643.4" x2="689.9" y2="666.7"/>
	<line class="st1" x1="689.9" y1="643.4" x2="713.2" y2="666.7"/>
	<line class="st1" x1="746" y1="709.2" x2="722.8" y2="732.5"/>
	<line class="st1" x1="722.8" y1="709.2" x2="746" y2="732.5"/>
	<line class="st1" x1="746" y1="742.1" x2="722.8" y2="765.3"/>
	<line class="st1" x1="722.8" y1="742.1" x2="746" y2="765.3"/>
	<line class="st1" x1="713.2" y1="742.1" x2="689.9" y2="765.3"/>
	<line class="st1" x1="689.9" y1="742.1" x2="713.2" y2="765.3"/>
	<line class="st1" x1="713.2" y1="709.2" x2="689.9" y2="732.5"/>
	<line class="st1" x1="689.9" y1="709.2" x2="713.2" y2="732.5"/>
	<line class="st1" x1="680.3" y1="643.4" x2="657" y2="666.7"/>
	<line class="st1" x1="657" y1="643.4" x2="680.3" y2="666.7"/>
	<line class="st1" x1="680.3" y1="676.3" x2="657" y2="699.6"/>
	<line class="st1" x1="657" y1="676.3" x2="680.3" y2="699.6"/>
	<line class="st1" x1="647.4" y1="676.3" x2="624.1" y2="699.6"/>
	<line class="st1" x1="624.1" y1="676.3" x2="647.4" y2="699.6"/>
	<line class="st1" x1="647.4" y1="643.4" x2="624.1" y2="666.7"/>
	<line class="st1" x1="624.1" y1="643.4" x2="647.4" y2="666.7"/>
	<line class="st1" x1="680.3" y1="709.2" x2="657" y2="732.5"/>
	<line class="st1" x1="657" y1="709.2" x2="680.3" y2="732.5"/>
	<line class="st1" x1="680.3" y1="742.1" x2="657" y2="765.3"/>
	<line class="st1" x1="657" y1="742.1" x2="680.3" y2="765.3"/>
	<line class="st1" x1="647.4" y1="742.1" x2="624.1" y2="765.3"/>
	<line class="st1" x1="624.1" y1="742.1" x2="647.4" y2="765.3"/>
	<line class="st1" x1="647.4" y1="709.2" x2="624.1" y2="732.5"/>
	<line class="st1" x1="624.1" y1="709.2" x2="647.4" y2="732.5"/>
	<line class="st1" x1="877.6" y1="709.2" x2="854.3" y2="732.5"/>
	<line class="st1" x1="854.3" y1="709.2" x2="877.6" y2="732.5"/>
	<line class="st1" x1="877.6" y1="742.1" x2="854.3" y2="765.3"/>
	<line class="st1" x1="854.3" y1="742.1" x2="877.6" y2="765.3"/>
	<line class="st1" x1="844.7" y1="742.1" x2="821.4" y2="765.3"/>
	<line class="st1" x1="821.4" y1="742.1" x2="844.7" y2="765.3"/>
	<line class="st1" x1="844.7" y1="709.2" x2="821.4" y2="732.5"/>
	<line class="st1" x1="821.4" y1="709.2" x2="844.7" y2="732.5"/>
</g>
<g class="st0">
	<line class="st1" x1="1601.9" y1="14.9" x2="1559.1" y2="57.7"/>
	<line class="st1" x1="1559.1" y1="14.9" x2="1601.9" y2="57.7"/>
	<line class="st1" x1="1601.9" y1="75.4" x2="1559.1" y2="118.2"/>
	<line class="st1" x1="1559.1" y1="75.4" x2="1601.9" y2="118.2"/>
	<line class="st1" x1="1541.5" y1="75.4" x2="1498.7" y2="118.2"/>
	<line class="st1" x1="1498.7" y1="75.4" x2="1541.5" y2="118.2"/>
	<line class="st1" x1="1541.5" y1="14.9" x2="1498.7" y2="57.7"/>
	<line class="st1" x1="1498.7" y1="14.9" x2="1541.5" y2="57.7"/>
	<line class="st1" x1="1481" y1="14.9" x2="1438.2" y2="57.7"/>
	<line class="st1" x1="1438.2" y1="14.9" x2="1481" y2="57.7"/>
	<line class="st1" x1="1481" y1="75.4" x2="1438.2" y2="118.2"/>
	<line class="st1" x1="1438.2" y1="75.4" x2="1481" y2="118.2"/>
	<line class="st1" x1="1420.6" y1="75.4" x2="1377.8" y2="118.2"/>
	<line class="st1" x1="1377.8" y1="75.4" x2="1420.6" y2="118.2"/>
	<line class="st1" x1="1420.6" y1="14.9" x2="1377.8" y2="57.7"/>
	<line class="st1" x1="1377.8" y1="14.9" x2="1420.6" y2="57.7"/>
	<line class="st1" x1="1481" y1="135.8" x2="1438.2" y2="178.6"/>
	<line class="st1" x1="1438.2" y1="135.8" x2="1481" y2="178.6"/>
	<line class="st1" x1="1481" y1="196.3" x2="1438.2" y2="239.1"/>
	<line class="st1" x1="1438.2" y1="196.3" x2="1481" y2="239.1"/>
	<line class="st1" x1="1420.6" y1="196.3" x2="1377.8" y2="239.1"/>
	<line class="st1" x1="1377.8" y1="196.3" x2="1420.6" y2="239.1"/>
	<line class="st1" x1="1420.6" y1="135.8" x2="1377.8" y2="178.6"/>
	<line class="st1" x1="1377.8" y1="135.8" x2="1420.6" y2="178.6"/>
	<line class="st1" x1="1360.1" y1="14.9" x2="1317.3" y2="57.7"/>
	<line class="st1" x1="1317.3" y1="14.9" x2="1360.1" y2="57.7"/>
	<line class="st1" x1="1360.1" y1="75.4" x2="1317.3" y2="118.2"/>
	<line class="st1" x1="1317.3" y1="75.4" x2="1360.1" y2="118.2"/>
	<line class="st1" x1="1299.7" y1="75.4" x2="1256.9" y2="118.2"/>
	<line class="st1" x1="1256.9" y1="75.4" x2="1299.7" y2="118.2"/>
	<line class="st1" x1="1299.7" y1="14.9" x2="1256.9" y2="57.7"/>
	<line class="st1" x1="1256.9" y1="14.9" x2="1299.7" y2="57.7"/>
	<line class="st1" x1="1360.1" y1="135.8" x2="1317.3" y2="178.6"/>
	<line class="st1" x1="1317.3" y1="135.8" x2="1360.1" y2="178.6"/>
	<line class="st1" x1="1360.1" y1="196.3" x2="1317.3" y2="239.1"/>
	<line class="st1" x1="1317.3" y1="196.3" x2="1360.1" y2="239.1"/>
	<line class="st1" x1="1299.7" y1="196.3" x2="1256.9" y2="239.1"/>
	<line class="st1" x1="1256.9" y1="196.3" x2="1299.7" y2="239.1"/>
	<line class="st1" x1="1299.7" y1="135.8" x2="1256.9" y2="178.6"/>
	<line class="st1" x1="1256.9" y1="135.8" x2="1299.7" y2="178.6"/>
	<line class="st1" x1="1239.2" y1="14.9" x2="1196.4" y2="57.7"/>
	<line class="st1" x1="1196.4" y1="14.9" x2="1239.2" y2="57.7"/>
	<line class="st1" x1="1239.2" y1="75.4" x2="1196.4" y2="118.2"/>
	<line class="st1" x1="1196.4" y1="75.4" x2="1239.2" y2="118.2"/>
	<line class="st1" x1="1178.8" y1="75.4" x2="1135.9" y2="118.2"/>
	<line class="st1" x1="1135.9" y1="75.4" x2="1178.8" y2="118.2"/>
	<line class="st1" x1="1178.8" y1="14.9" x2="1135.9" y2="57.7"/>
	<line class="st1" x1="1135.9" y1="14.9" x2="1178.8" y2="57.7"/>
	<line class="st1" x1="1239.2" y1="135.8" x2="1196.4" y2="178.6"/>
	<line class="st1" x1="1196.4" y1="135.8" x2="1239.2" y2="178.6"/>
	<line class="st1" x1="1239.2" y1="196.3" x2="1196.4" y2="239.1"/>
	<line class="st1" x1="1196.4" y1="196.3" x2="1239.2" y2="239.1"/>
	<line class="st1" x1="1178.8" y1="196.3" x2="1135.9" y2="239.1"/>
	<line class="st1" x1="1135.9" y1="196.3" x2="1178.8" y2="239.1"/>
	<line class="st1" x1="1178.8" y1="135.8" x2="1135.9" y2="178.6"/>
	<line class="st1" x1="1135.9" y1="135.8" x2="1178.8" y2="178.6"/>
	<line class="st1" x1="1601.9" y1="135.8" x2="1559.1" y2="178.6"/>
	<line class="st1" x1="1559.1" y1="135.8" x2="1601.9" y2="178.6"/>
	<line class="st1" x1="1601.9" y1="196.3" x2="1559.1" y2="239.1"/>
	<line class="st1" x1="1559.1" y1="196.3" x2="1601.9" y2="239.1"/>
	<line class="st1" x1="1541.5" y1="196.3" x2="1498.7" y2="239.1"/>
	<line class="st1" x1="1498.7" y1="196.3" x2="1541.5" y2="239.1"/>
	<line class="st1" x1="1541.5" y1="135.8" x2="1498.7" y2="178.6"/>
	<line class="st1" x1="1498.7" y1="135.8" x2="1541.5" y2="178.6"/>
</g>
<g class="st2">
	<polygon class="st3" points="966.5,138.8 977,283.4 846.6,220.1 836.2,75.6 	"/>
	<polygon class="st3" points="977,283.4 857,364.6 726.6,301.4 846.6,220.1 	"/>
	<polygon class="st3" points="846.6,220.1 726.6,301.4 716.2,156.9 836.2,75.6 	"/>
	<polygon class="st3" points="695.1,405.2 757,400.8 729.9,456.6 668,461 	"/>
	<polygon class="st3" points="757,400.8 791.8,452.1 764.7,507.9 729.9,456.6 	"/>
	<polygon class="st3" points="729.9,456.6 764.7,507.9 702.8,512.4 668,461 	"/>
	<polygon class="st3" points="415,494.6 524.5,589.4 387.7,636.9 278.1,542.1 	"/>
	<polygon class="st3" points="524.5,589.4 497.2,731.7 360.3,779.2 387.7,636.9 	"/>
	<polygon class="st3" points="387.7,636.9 360.3,779.2 250.8,684.4 278.1,542.1 	"/>
</g>
<g class="st0">
	<line class="st4" x1="135" y1="263.3" x2="167" y2="231.3"/>
	<line class="st4" x1="167" y1="263.3" x2="135" y2="231.3"/>
	<line class="st4" x1="135" y1="218.1" x2="167" y2="186.1"/>
	<line class="st4" x1="167" y1="218.1" x2="135" y2="186.1"/>
	<line class="st4" x1="180.2" y1="218.1" x2="212.2" y2="186.1"/>
	<line class="st4" x1="212.2" y1="218.1" x2="180.2" y2="186.1"/>
	<line class="st4" x1="180.2" y1="263.3" x2="212.2" y2="231.3"/>
	<line class="st4" x1="212.2" y1="263.3" x2="180.2" y2="231.3"/>
	<line class="st4" x1="225.4" y1="263.3" x2="257.4" y2="231.3"/>
	<line class="st4" x1="257.4" y1="263.3" x2="225.4" y2="231.3"/>
	<line class="st4" x1="225.4" y1="218.1" x2="257.4" y2="186.1"/>
	<line class="st4" x1="257.4" y1="218.1" x2="225.4" y2="186.1"/>
	<line class="st4" x1="270.6" y1="218.1" x2="302.6" y2="186.1"/>
	<line class="st4" x1="302.6" y1="218.1" x2="270.6" y2="186.1"/>
	<line class="st4" x1="270.6" y1="263.3" x2="302.6" y2="231.3"/>
	<line class="st4" x1="302.6" y1="263.3" x2="270.6" y2="231.3"/>
	<line class="st4" x1="225.4" y1="172.9" x2="257.4" y2="140.9"/>
	<line class="st4" x1="257.4" y1="172.9" x2="225.4" y2="140.9"/>
	<line class="st4" x1="225.4" y1="127.7" x2="257.4" y2="95.7"/>
	<line class="st4" x1="257.4" y1="127.7" x2="225.4" y2="95.7"/>
	<line class="st4" x1="270.6" y1="127.7" x2="302.6" y2="95.7"/>
	<line class="st4" x1="302.6" y1="127.7" x2="270.6" y2="95.7"/>
	<line class="st4" x1="270.6" y1="172.9" x2="302.6" y2="140.9"/>
	<line class="st4" x1="302.6" y1="172.9" x2="270.6" y2="140.9"/>
	<line class="st4" x1="315.8" y1="263.3" x2="347.8" y2="231.3"/>
	<line class="st4" x1="347.8" y1="263.3" x2="315.8" y2="231.3"/>
	<line class="st4" x1="315.8" y1="218.1" x2="347.8" y2="186.1"/>
	<line class="st4" x1="347.8" y1="218.1" x2="315.8" y2="186.1"/>
	<line class="st4" x1="361" y1="218.1" x2="393" y2="186.1"/>
	<line class="st4" x1="393" y1="218.1" x2="361" y2="186.1"/>
	<line class="st4" x1="361" y1="263.3" x2="393" y2="231.3"/>
	<line class="st4" x1="393" y1="263.3" x2="361" y2="231.3"/>
	<line class="st4" x1="315.8" y1="172.9" x2="347.8" y2="140.9"/>
	<line class="st4" x1="347.8" y1="172.9" x2="315.8" y2="140.9"/>
	<line class="st4" x1="315.8" y1="127.7" x2="347.8" y2="95.7"/>
	<line class="st4" x1="347.8" y1="127.7" x2="315.8" y2="95.7"/>
	<line class="st4" x1="361" y1="127.7" x2="393" y2="95.7"/>
	<line class="st4" x1="393" y1="127.7" x2="361" y2="95.7"/>
	<line class="st4" x1="361" y1="172.9" x2="393" y2="140.9"/>
	<line class="st4" x1="393" y1="172.9" x2="361" y2="140.9"/>
	<line class="st4" x1="406.2" y1="263.3" x2="438.2" y2="231.3"/>
	<line class="st4" x1="438.2" y1="263.3" x2="406.2" y2="231.3"/>
	<line class="st4" x1="406.2" y1="218.1" x2="438.2" y2="186.1"/>
	<line class="st4" x1="438.2" y1="218.1" x2="406.2" y2="186.1"/>
	<line class="st4" x1="451.4" y1="218.1" x2="483.4" y2="186.1"/>
	<line class="st4" x1="483.4" y1="218.1" x2="451.4" y2="186.1"/>
	<line class="st4" x1="451.4" y1="263.3" x2="483.4" y2="231.3"/>
	<line class="st4" x1="483.4" y1="263.3" x2="451.4" y2="231.3"/>
	<line class="st4" x1="406.2" y1="172.9" x2="438.2" y2="140.9"/>
	<line class="st4" x1="438.2" y1="172.9" x2="406.2" y2="140.9"/>
	<line class="st4" x1="406.2" y1="127.7" x2="438.2" y2="95.7"/>
	<line class="st4" x1="438.2" y1="127.7" x2="406.2" y2="95.7"/>
	<line class="st4" x1="451.4" y1="127.7" x2="483.4" y2="95.7"/>
	<line class="st4" x1="483.4" y1="127.7" x2="451.4" y2="95.7"/>
	<line class="st4" x1="451.4" y1="172.9" x2="483.4" y2="140.9"/>
	<line class="st4" x1="483.4" y1="172.9" x2="451.4" y2="140.9"/>
	<line class="st4" x1="135" y1="172.9" x2="167" y2="140.9"/>
	<line class="st4" x1="167" y1="172.9" x2="135" y2="140.9"/>
	<line class="st4" x1="135" y1="127.7" x2="167" y2="95.7"/>
	<line class="st4" x1="167" y1="127.7" x2="135" y2="95.7"/>
	<line class="st4" x1="180.2" y1="127.7" x2="212.2" y2="95.7"/>
	<line class="st4" x1="212.2" y1="127.7" x2="180.2" y2="95.7"/>
	<line class="st4" x1="180.2" y1="172.9" x2="212.2" y2="140.9"/>
	<line class="st4" x1="212.2" y1="172.9" x2="180.2" y2="140.9"/>
</g>
<g class="st5">
	
		<linearGradient id="SVGID_1_" gradientUnits="userSpaceOnUse" x1="1351.4747" y1="1111.7653" x2="1318.3409" y2="316.6258" gradientTransform="matrix(1 0 0 1 -16.03 -18)">
		<stop  offset="0.15" style="stop-color:#CE2F48"/>
		<stop  offset="1" style="stop-color:#F26F38"/>
	</linearGradient>
	<path class="st6" d="M1980.9,0h-653.6c-47.2,0-85.4,33.8-85.4,75.4l0,0c0,17.1,6.5,32.9,17.4,45.6l0,0v0.1c1.5,1.7,3,3.3,4.6,4.9
		l0.7,0.8c22.3,28,1.6,69.1-34.6,69.1H663.5c-47.2,0-85.4,33.8-85.4,75.4l0,0c0,41.7,38.2,75.4,85.4,75.4h320
		c36.5,0,55.3,43.2,29.9,68.9l-0.3,0.3l-0.8,0.8l-0.1,0.1l0,0c-13.5,13.3-21.8,31-21.8,50.3l0,0c0,19.3,8.3,37,21.8,50.3l0,0
		c1.3,1.3,2.7,2.6,4.2,3.8c6.3,6.4,17.2,20.3,14.1,37.5c-3,16.8-18.2,28.7-35.5,28.7H716.4c-47.2,0-85.4,33.8-85.4,75.4l0,0
		c0,41.7,38.2,75.4,85.4,75.4H1226c15.8,0,29.9,10.8,32.9,26.1c4.3,22.1-17,37.7-17,37.7l0,0c-17.8,13.8-29,34.1-29,56.6l0,0
		c0,41.7,38.2,75.4,85.4,75.4h682.6c11,0,21.8-1.8,32.2-5.5V0H1980.9z"/>
</g>
<linearGradient id="SVGID_2_" gradientUnits="userSpaceOnUse" x1="1310.8196" y1="170.5994" x2="1450.9896" y2="662.8503" gradientTransform="matrix(1 0 0 1 -16.03 -18)">
	<stop  offset="0" style="stop-color:#CE2F48"/>
	<stop  offset="1" style="stop-color:#F26F38"/>
</linearGradient>
<path class="st7" d="M1353.3,11.6c-45.3,0-82,33-82,73.7l0,0c0.1,16.4,6,32.2,16.7,44.6l0,0c1.4,1.7,2.9,3.3,4.4,4.8l0.7,0.8
	c21.5,27.4,1.5,67.5-33.3,67.5H715.6c-45.3,0-82,33-82,73.7l0,0c0,40.7,36.7,73.7,82,73.7H1023c35.1,0,53.1,42.2,28.7,67.4l-0.3,0.3
	l-0.8,0.8l-0.1,0.1l0,0c-13,13.1-20.9,30.3-20.9,49.2l0,0c0,18.9,7.9,36.1,20.9,49.2l0,0c1.3,1.3,2.6,2.5,4,3.7
	c6.1,6.3,16.5,19.8,13.5,36.7c-2.9,16.4-17.5,28.1-34.1,28.1H766.5c-45.3,0-82,33-82,73.7l0,0c0,40.7,36.7,73.7,82,73.7h489.5
	c15.2,0,28.7,10.6,31.6,25.5c4.2,21.6-16.3,36.9-16.3,36.9l0,0c-17.1,13.5-27.9,33.3-27.9,55.4l0,0c0,40.7,36.7,73.7,82,73.7h686.7
	V11.6H1353.3z"/>
</svg>
