<svg id="Layer_1" data-name="Layer 1" xmlns="http://www.w3.org/2000/svg" xmlns:xlink="http://www.w3.org/1999/xlink" viewBox="0 0 1125 1852.29"><defs><style>.cls-1,.cls-3{opacity:0.25;}.cls-10,.cls-2,.cls-3,.cls-4,.cls-5,.cls-6,.cls-7,.cls-8,.cls-9{fill:none;stroke:#f36f38;stroke-width:5px;}.cls-2{stroke-miterlimit:10;}.cls-10,.cls-3,.cls-4,.cls-5,.cls-6,.cls-7,.cls-8,.cls-9{stroke-linecap:round;stroke-linejoin:round;}.cls-5{stroke-dasharray:22.1 22.1;}.cls-6{stroke-dasharray:22.1 22.1;}.cls-7{stroke-dasharray:22.1 22.1;}.cls-8{stroke-dasharray:23.97 23.97;}.cls-9{stroke-dasharray:23.97 23.97;}.cls-10{stroke-dasharray:23.97 23.97;}.cls-11{fill:url(#linear-gradient);}</style><linearGradient id="linear-gradient" x1="-1.05" y1="941.13" x2="1126.05" y2="941.13" gradientUnits="userSpaceOnUse"><stop offset="0.03" stop-color="#cc2a49"/><stop offset="1" stop-color="#f36f38"/></linearGradient></defs><title>sect3Background</title><g class="cls-1"><polygon class="cls-2" points="1045.42 475.34 1003.36 318.37 888.45 433.28 1045.42 475.34"/><polygon class="cls-2" points="532.64 672.84 607.53 952.32 812.12 747.73 532.64 672.84"/></g><circle class="cls-3" cx="238.47" cy="706.9" r="62.09"/><g class="cls-1"><polyline class="cls-4" points="631.55 339.66 637.55 329.27 631.55 318.88"/><line class="cls-5" x1="620.51" y1="299.74" x2="537.65" y2="156.23"/><polyline class="cls-4" points="532.12 146.66 526.12 136.27 520.12 146.66"/><line class="cls-5" x1="509.07" y1="165.79" x2="426.22" y2="309.31"/><polyline class="cls-4" points="420.69 318.88 414.69 329.27 420.69 339.66"/><line class="cls-6" x1="431.74" y1="358.8" x2="514.6" y2="502.31"/><polyline class="cls-4" points="520.12 511.88 526.12 522.27 532.12 511.88"/><line class="cls-6" x1="543.17" y1="492.75" x2="626.03" y2="349.23"/><polyline class="cls-4" points="520.12 146.66 526.12 136.27 514.12 136.27"/><line class="cls-7" x1="492.03" y1="136.27" x2="326.31" y2="136.27"/><polyline class="cls-4" points="315.26 136.27 303.26 136.27 297.26 146.66"/><line class="cls-5" x1="286.21" y1="165.79" x2="203.35" y2="309.31"/><polyline class="cls-4" points="197.83 318.88 191.83 329.27 203.83 329.27"/><line class="cls-7" x1="225.93" y1="329.27" x2="391.64" y2="329.27"/><polyline class="cls-4" points="402.69 329.27 414.69 329.27 420.69 318.88"/><line class="cls-5" x1="431.74" y1="299.74" x2="514.6" y2="156.23"/><polyline class="cls-4" points="420.69 339.66 414.69 329.27 402.69 329.27"/><line class="cls-7" x1="380.6" y1="329.27" x2="214.88" y2="329.27"/><polyline class="cls-4" points="203.83 329.27 191.83 329.27 197.83 339.66"/><line class="cls-6" x1="208.88" y1="358.8" x2="291.74" y2="502.31"/><polyline class="cls-4" points="297.26 511.88 303.26 522.27 315.26 522.27"/><line class="cls-7" x1="337.36" y1="522.27" x2="503.07" y2="522.27"/><polyline class="cls-4" points="514.12 522.27 526.12 522.27 520.12 511.88"/><line class="cls-6" x1="509.07" y1="492.75" x2="426.22" y2="349.23"/></g><g class="cls-1"><polyline class="cls-4" points="821.7 189.05 832.09 195.05 842.48 189.05"/><line class="cls-8" x1="863.24" y1="177.07" x2="894.38" y2="159.09"/><polyline class="cls-4" points="904.76 153.09 915.15 147.09 904.76 141.09"/><line class="cls-8" x1="884" y1="129.11" x2="852.86" y2="111.13"/><polyline class="cls-4" points="842.48 105.14 832.09 99.14 821.7 105.14"/><line class="cls-9" x1="800.93" y1="117.12" x2="769.79" y2="135.1"/><polyline class="cls-4" points="759.41 141.09 749.02 147.09 759.41 153.09"/><line class="cls-9" x1="780.17" y1="165.08" x2="811.32" y2="183.06"/><polyline class="cls-4" points="904.76 141.09 915.15 147.09 915.15 135.09"/><line class="cls-10" x1="915.15" y1="111.12" x2="915.15" y2="75.16"/><polyline class="cls-4" points="915.15 63.18 915.15 51.18 904.76 45.18"/><line class="cls-8" x1="884" y1="33.19" x2="852.86" y2="15.21"/><polyline class="cls-4" points="842.48 9.22 832.09 3.22 832.09 15.22"/><line class="cls-10" x1="832.09" y1="39.19" x2="832.09" y2="75.15"/><polyline class="cls-4" points="832.09 87.14 832.09 99.14 842.48 105.14"/><line class="cls-8" x1="863.24" y1="117.12" x2="894.38" y2="135.1"/><polyline class="cls-4" points="821.7 105.14 832.09 99.14 832.09 87.14"/><line class="cls-10" x1="832.09" y1="63.16" x2="832.09" y2="27.21"/><polyline class="cls-4" points="832.09 15.22 832.09 3.22 821.7 9.22"/><line class="cls-9" x1="800.93" y1="21.21" x2="769.79" y2="39.19"/><polyline class="cls-4" points="759.41 45.18 749.02 51.18 749.02 63.18"/><line class="cls-10" x1="749.02" y1="87.15" x2="749.02" y2="123.11"/><polyline class="cls-4" points="749.02 135.09 749.02 147.09 759.41 141.09"/><line class="cls-9" x1="780.17" y1="129.11" x2="811.32" y2="111.13"/></g><path class="cls-11" d="M1026.51,369.76h0a98.86,98.86,0,0,0-57.4,18.34h0a100.56,100.56,0,0,0-9.32,7.5l-1.19.86c-66,47.5-158.13-.18-158.13-81.52V287.85c0-54.75-44.8-99.54-99.54-99.54h0c-54.75,0-99.55,44.79-99.55,99.54v26.57c0,65-68.2,108-126.51,79.26l-1.89-.95a99.91,99.91,0,0,0-23.36-14.49,98.46,98.46,0,0,0-40.06-8.48h0a98.46,98.46,0,0,0-40.06,8.48,100,100,0,0,0-27.19,17.84l-2.1,1.09c-65,33.29-142.18-14.58-142.18-87.6V134.39c0-54.75-44.79-99.54-99.54-99.54h0C43.74,34.85-1,79.64-1,134.39V1413c0,54.74,44.79,99.54,99.54,99.54h0a98.86,98.86,0,0,0,57.4-18.34h0a100.56,100.56,0,0,0,9.32-7.5l1.19-.86c66-47.5,158.13.18,158.13,81.52v27.09c0,54.75,44.8,99.54,99.54,99.54h0c54.75,0,99.55-44.79,99.55-99.54v-26.57c0-65,68.2-108,126.51-79.26l1.89,1A99.91,99.91,0,0,0,675.38,1504a98.46,98.46,0,0,0,40.06,8.48h0A98.46,98.46,0,0,0,755.5,1504a100,100,0,0,0,27.19-17.84l2.1-1.09c65-33.29,142.18,14.58,142.18,87.6v175.18c0,54.75,44.79,99.54,99.54,99.54h0c54.75,0,99.54-44.79,99.54-99.54V469.3C1126.05,414.55,1081.26,369.76,1026.51,369.76Z"/></svg>