<svg id="Layer_1" data-name="Layer 1" xmlns="http://www.w3.org/2000/svg" xmlns:xlink="http://www.w3.org/1999/xlink" viewBox="0 0 1125 1852.29"><defs><style>.cls-1,.cls-3{opacity:0.25;}.cls-10,.cls-2,.cls-3,.cls-4,.cls-5,.cls-6,.cls-7,.cls-8,.cls-9{fill:none;stroke:#f36f38;stroke-width:5px;}.cls-2{stroke-miterlimit:10;}.cls-10,.cls-3,.cls-4,.cls-5,.cls-6,.cls-7,.cls-8,.cls-9{stroke-linecap:round;stroke-linejoin:round;}.cls-5{stroke-dasharray:22.1 22.1;}.cls-6{stroke-dasharray:22.1 22.1;}.cls-7{stroke-dasharray:22.1 22.1;}.cls-8{stroke-dasharray:23.97 23.97;}.cls-9{stroke-dasharray:23.97 23.97;}.cls-10{stroke-dasharray:23.97 23.97;}.cls-11{fill:url(#linear-gradient);}</style><linearGradient id="linear-gradient" x1="468.65" y1="940.88" x2="835.95" y2="2222.2" gradientTransform="translate(1127.11 2528.54) rotate(180)" gradientUnits="userSpaceOnUse"><stop offset="0.03" stop-color="#cc2a49"/><stop offset="1" stop-color="#f36f38"/></linearGradient></defs><title>sect2BackgroundMobile</title><g class="cls-1"><polygon class="cls-2" points="269.42 860.73 188.16 719.99 350.67 719.99 269.42 860.73"/><polygon class="cls-2" points="771.66 637.79 916.33 888.36 626.99 888.36 771.66 637.79"/></g><circle class="cls-3" cx="1003.76" cy="453.86" r="62.09"/><g class="cls-1"><polyline class="cls-4" points="466.13 472.13 454.54 469.03 451.43 457.44"/><line class="cls-5" x1="445.71" y1="436.1" x2="402.82" y2="276.02"/><polyline class="cls-4" points="399.96 265.35 396.86 253.76 408.45 256.87"/><line class="cls-5" x1="429.79" y1="262.59" x2="589.86" y2="305.48"/><polyline class="cls-4" points="600.53 308.34 612.12 311.44 615.23 323.03"/><line class="cls-6" x1="620.95" y1="344.38" x2="663.84" y2="504.45"/><polyline class="cls-4" points="666.7 515.12 669.8 526.71 658.21 523.6"/><line class="cls-6" x1="636.87" y1="517.89" x2="476.8" y2="474.99"/><polyline class="cls-4" points="408.45 256.87 396.86 253.76 405.34 245.28"/><line class="cls-7" x1="420.96" y1="229.65" x2="538.14" y2="112.47"/><polyline class="cls-4" points="545.96 104.66 554.44 96.17 566.03 99.28"/><line class="cls-5" x1="587.38" y1="105" x2="747.45" y2="147.89"/><polyline class="cls-4" points="758.12 150.75 769.71 153.86 761.22 162.34"/><line class="cls-7" x1="745.6" y1="177.97" x2="628.42" y2="295.15"/><polyline class="cls-4" points="620.61 302.96 612.12 311.44 600.53 308.34"/><line class="cls-5" x1="579.19" y1="302.62" x2="419.12" y2="259.73"/><polyline class="cls-4" points="615.23 323.03 612.12 311.44 620.61 302.96"/><line class="cls-7" x1="636.23" y1="287.33" x2="753.41" y2="170.15"/><polyline class="cls-4" points="761.22 162.34 769.71 153.86 772.82 165.45"/><line class="cls-6" x1="778.53" y1="186.79" x2="821.42" y2="346.86"/><polyline class="cls-4" points="824.28 357.53 827.39 369.12 818.9 377.61"/><line class="cls-7" x1="803.28" y1="393.23" x2="686.1" y2="510.41"/><polyline class="cls-4" points="678.29 518.22 669.8 526.71 666.7 515.12"/><line class="cls-6" x1="660.98" y1="493.78" x2="618.09" y2="333.7"/></g><g class="cls-1"><polyline class="cls-4" points="225.18 500.09 222.07 511.68 210.48 514.78"/><line class="cls-8" x1="187.33" y1="520.99" x2="152.59" y2="530.3"/><polyline class="cls-4" points="141.01 533.4 129.42 536.5 132.53 524.91"/><line class="cls-8" x1="138.73" y1="501.76" x2="148.04" y2="467.02"/><polyline class="cls-4" points="151.14 455.45 154.25 443.86 165.84 440.75"/><line class="cls-9" x1="189" y1="434.55" x2="223.73" y2="425.24"/><polyline class="cls-4" points="235.31 422.14 246.9 419.03 243.79 430.62"/><line class="cls-9" x1="237.59" y1="453.78" x2="228.28" y2="488.51"/><polyline class="cls-4" points="132.53 524.91 129.42 536.5 120.94 528.02"/><line class="cls-10" x1="103.99" y1="511.07" x2="78.56" y2="485.64"/><polyline class="cls-4" points="70.09 477.17 61.6 468.68 64.71 457.09"/><line class="cls-8" x1="70.91" y1="433.93" x2="80.22" y2="399.2"/><polyline class="cls-4" points="83.32 387.62 86.43 376.03 94.91 384.52"/><line class="cls-10" x1="111.86" y1="401.47" x2="137.29" y2="426.9"/><polyline class="cls-4" points="145.76 435.37 154.25 443.86 151.14 455.45"/><line class="cls-8" x1="144.94" y1="478.6" x2="135.63" y2="513.34"/><polyline class="cls-4" points="165.84 440.75 154.25 443.86 145.76 435.37"/><line class="cls-10" x1="128.81" y1="418.42" x2="103.39" y2="392.99"/><polyline class="cls-4" points="94.91 384.52 86.43 376.03 98.02 372.93"/><line class="cls-9" x1="121.17" y1="366.72" x2="155.91" y2="357.42"/><polyline class="cls-4" points="167.48 354.31 179.07 351.21 187.56 359.69"/><line class="cls-10" x1="204.51" y1="376.64" x2="229.94" y2="402.07"/><polyline class="cls-4" points="238.41 410.55 246.9 419.03 235.31 422.14"/><line class="cls-9" x1="212.15" y1="428.34" x2="177.42" y2="437.65"/></g><g class="cls-1"><polygon class="cls-2" points="906.43 1794.28 987.69 1653.54 825.17 1653.54 906.43 1794.28"/><polygon class="cls-2" points="404.19 1571.34 259.52 1821.91 548.86 1821.91 404.19 1571.34"/></g><circle class="cls-3" cx="172.09" cy="1387.41" r="62.09"/><g class="cls-1"><polyline class="cls-4" points="709.72 1405.69 721.31 1402.59 724.42 1390.99"/><line class="cls-5" x1="730.14" y1="1369.65" x2="773.03" y2="1209.58"/><polyline class="cls-4" points="775.89 1198.91 778.99 1187.32 767.4 1190.42"/><line class="cls-5" x1="746.06" y1="1196.14" x2="585.99" y2="1239.03"/><polyline class="cls-4" points="575.32 1241.89 563.73 1245 560.62 1256.59"/><line class="cls-6" x1="554.9" y1="1277.93" x2="512.01" y2="1438"/><polyline class="cls-4" points="509.15 1448.68 506.05 1460.27 517.64 1457.16"/><line class="cls-6" x1="538.98" y1="1451.44" x2="699.05" y2="1408.55"/><polyline class="cls-4" points="767.4 1190.42 778.99 1187.32 770.51 1178.83"/><line class="cls-7" x1="754.88" y1="1163.21" x2="637.7" y2="1046.03"/><polyline class="cls-4" points="629.89 1038.22 621.41 1029.73 609.82 1032.84"/><line class="cls-5" x1="588.47" y1="1038.56" x2="428.4" y2="1081.45"/><polyline class="cls-4" points="417.73 1084.31 406.14 1087.41 414.63 1095.9"/><line class="cls-7" x1="430.25" y1="1111.52" x2="547.43" y2="1228.7"/><polyline class="cls-4" points="555.24 1236.52 563.73 1245 575.32 1241.89"/><line class="cls-5" x1="596.66" y1="1236.18" x2="756.73" y2="1193.28"/><polyline class="cls-4" points="560.62 1256.59 563.73 1245 555.24 1236.52"/><line class="cls-7" x1="539.62" y1="1220.89" x2="422.44" y2="1103.71"/><polyline class="cls-4" points="414.63 1095.9 406.14 1087.41 403.03 1099"/><line class="cls-6" x1="397.31" y1="1120.35" x2="354.42" y2="1280.42"/><polyline class="cls-4" points="351.56 1291.09 348.46 1302.68 356.94 1311.17"/><line class="cls-7" x1="372.57" y1="1326.79" x2="489.75" y2="1443.97"/><polyline class="cls-4" points="497.56 1451.78 506.05 1460.27 509.15 1448.68"/><line class="cls-6" x1="514.87" y1="1427.33" x2="557.76" y2="1267.26"/></g><g class="cls-1"><polyline class="cls-4" points="950.67 1433.65 953.78 1445.24 965.37 1448.34"/><line class="cls-8" x1="988.52" y1="1454.55" x2="1023.25" y2="1463.85"/><polyline class="cls-4" points="1034.83 1466.96 1046.42 1470.06 1043.32 1458.47"/><line class="cls-8" x1="1037.11" y1="1435.32" x2="1027.81" y2="1400.58"/><polyline class="cls-4" points="1024.7 1389.01 1021.6 1377.41 1010.01 1374.31"/><line class="cls-9" x1="986.85" y1="1368.1" x2="952.12" y2="1358.8"/><polyline class="cls-4" points="940.54 1355.69 928.95 1352.59 932.06 1364.18"/><line class="cls-9" x1="938.26" y1="1387.33" x2="947.57" y2="1422.07"/><polyline class="cls-4" points="1043.32 1458.47 1046.42 1470.06 1054.91 1461.58"/><line class="cls-10" x1="1071.86" y1="1444.63" x2="1097.29" y2="1419.2"/><polyline class="cls-4" points="1105.76 1410.72 1114.25 1402.24 1111.14 1390.65"/><line class="cls-8" x1="1104.94" y1="1367.49" x2="1095.63" y2="1332.76"/><polyline class="cls-4" points="1092.53 1321.18 1089.42 1309.59 1080.94 1318.08"/><line class="cls-10" x1="1063.99" y1="1335.03" x2="1038.56" y2="1360.45"/><polyline class="cls-4" points="1030.08 1368.93 1021.6 1377.41 1024.7 1389.01"/><line class="cls-8" x1="1030.91" y1="1412.16" x2="1040.22" y2="1446.89"/><polyline class="cls-4" points="1010.01 1374.31 1021.6 1377.41 1030.08 1368.93"/><line class="cls-10" x1="1047.03" y1="1351.98" x2="1072.46" y2="1326.55"/><polyline class="cls-4" points="1080.94 1318.08 1089.42 1309.59 1077.83 1306.48"/><line class="cls-9" x1="1054.68" y1="1300.28" x2="1019.94" y2="1290.97"/><polyline class="cls-4" points="1008.37 1287.87 996.77 1284.77 988.29 1293.25"/><line class="cls-10" x1="971.34" y1="1310.2" x2="945.91" y2="1335.63"/><polyline class="cls-4" points="937.44 1344.1 928.95 1352.59 940.54 1355.69"/><line class="cls-9" x1="963.7" y1="1361.9" x2="998.43" y2="1371.21"/></g><path class="cls-11" d="M188.55,629.23A97.74,97.74,0,0,0,93,571.77c-51.37,3.45-90.86,47-90.86,98.49v51.35L0,721.93v945.71c0,53.63,43.87,97.5,97.5,97.5h.27c66.23,0,117.06-54.09,113.27-120.21-2.95-51.33-1.49-90.7,2.35-120.88,6.13-48.08,47.91-82.9,96.35-81.67.84,0,1.67,0,2.51,0h0a96.63,96.63,0,0,0,43.24-10.18c36.37-18.14,80.38.87,90.78,40.16.28,1.08.56,2.18.84,3.29v41.86a96.72,96.72,0,0,0,8.32,39.3,97.84,97.84,0,0,0,89.18,58.2h0A97.15,97.15,0,0,0,559,1614c36.48-5.44,71.18,22.18,95.13,48.32,17.25,18.82,29,41.88,35.4,66.6,10.86,42,49.17,73.21,94.41,73.21h0c53.68,0,97.48-43.93,97.5-97.6,0-60.06,20.6-85.15,40.9-95.29,16.57-8.27,36.28-6.12,51.42,4.55a96.81,96.81,0,0,0,55.89,17.73h0c53.62,0,97.5-43.87,97.5-97.5V831.93c-.65.64-1.29,1.28-1.94,1.89-48.57,46.62-129.43,11.6-129.43-55.72V726.73c0-53.63-43.88-97.5-97.5-97.5h0a97.13,97.13,0,0,0-66.07,26l-1.83,1c-47.08,25.15-104-9.6-104-63V459.12c0-53.62-43.87-97.5-97.5-97.5h0c-53.62,0-97.5,43.88-97.5,97.5,0,0,.2,76-41.09,90.45-17,6-35.93-.57-46.52-15.19a97.53,97.53,0,0,0-79-40.53h0c-49.44,0-96.68,36.9-96.72,85.13-.06,88.83-53.5,90.57-72.79,65.39"/></svg>