<svg xmlns="http://www.w3.org/2000/svg" viewBox="0 0 1147.5 1038.3"><defs><style>.cls-1{fill:#f26f38;}.cls-2{fill:#f89d4c;}.cls-3{fill:#ee4648;}.cls-4{fill:#cb2a49;}.cls-5{fill:#582841;}.cls-6{fill:#72172d;}.cls-7{fill:#751c32;}.cls-8{fill:#cc6d1f;}.cls-9{fill:none;stroke:#a54c7f;stroke-miterlimit:10;stroke-width:3px;}</style></defs><title>sect3BackgroundItem</title><g id="Layer_2" data-name="Layer 2"><polygon class="cls-1" points="581.62 527.11 138.92 782.7 581.62 1038.3 1024.33 782.7 581.62 527.11"/><polygon class="cls-2" points="581.62 467.6 138.92 723.19 581.62 978.8 1024.33 723.19 581.62 467.6"/><polygon class="cls-3" points="138.92 723.19 138.92 782.7 581.62 1038.3 581.62 978.8 138.92 723.19"/><polygon class="cls-4" points="1024.33 723.19 1024.33 782.7 581.62 1038.3 581.62 978.8 1024.33 723.19"/><polygon class="cls-4" points="1147.5 652.29 1147.5 711.79 704.8 967.39 704.8 907.88 1147.5 652.29"/><polygon class="cls-5" points="313.15 667.17 282.28 331.81 297.72 331.81 328.58 667.17 313.15 667.17"/><path class="cls-6" d="M284.12,283.09C111.7,319.47,27.85,548.89,27.85,548.89c119.31-56,212.11,0,212.11,0S238.16,348,284.12,283.09Z" transform="translate(-27.85 -21.78)"/><path class="cls-4" d="M302.37,280q-9.3,1.16-18.25,3.06C238.16,348,240,548.89,240,548.89c99.42-69.24,223.15-36.82,223.15-36.82S408.9,334.23,302.37,280Z" transform="translate(-27.85 -21.78)"/><path class="cls-6" d="M302.37,280c106.53,54.15,160.8,232,160.8,232,32.22-80.45,146.29-86.17,146.29-86.17C487.61,304,385.44,269.64,302.37,280Z" transform="translate(-27.85 -21.78)"/><path class="cls-5" d="M1174.61,674.3,731.91,418.67,609.46,489.38h0c-.58.55-45.11,42.36-7.71,91.33,37.63,49.29,98.57,10.75,145.17,33.15s12.55,77.07,47.5,101.26,130.83-14.33,153.23,6.28,17,27.78,31.36,39.44,25,11.92,25,11.92l16.68-9.62h0Z" transform="translate(-27.85 -21.78)"/><circle class="cls-2" cx="767.57" cy="100.8" r="100.8"/><path class="cls-7" d="M1032.76,211.73s-10.15-97.4-97.58-97.4S833.65,215.86,833.65,215.86s-39.72-5.58-61.45,24.28c-15.37,21.14.19,50.85,26.33,50.45h269.38c26.27,0,41.34-30.08,25.48-51C1082,224.35,1063.29,211.73,1032.76,211.73Zm-115.32.69-40,16,39.86,16.08v13.58l-57.6-23.92V222.66l57.6-23.82Zm18.13,53.17H923.68l17.37-73.83h12Zm81.42-31.4L959.4,258.12V244.54l39.86-16.08-39.86-16V198.84L1017,222.71Z" transform="translate(-27.85 -21.78)"/><path class="cls-7" d="M736.17,151.44S726.09,54,638.7,54,537.18,155.56,537.18,155.56s-39.73-5.59-61.45,24.27c-15.38,21.14.18,50.86,26.32,50.46H771.43c26.29,0,41.34-30.07,25.48-51C785.5,164,766.77,151.44,736.17,151.44ZM621.09,110.1c-5.06,0-8.25.52-9.63,1.54s-2,3.27-2,6.72q0,16.79-2.11,22.73a20,20,0,0,1-8.6,10.13,18.59,18.59,0,0,1,8,8.47q2.74,5.69,2.75,24.31a9.84,9.84,0,0,0,1.19,5.65,5.44,5.44,0,0,0,3.19,2.1,33.72,33.72,0,0,0,7.23.51V206h-3q-9.86,0-14.93-2.55a12.86,12.86,0,0,1-6.77-7.41q-1.78-4.78-1.76-16.58a63.31,63.31,0,0,0-1-13,10,10,0,0,0-3.59-6,14.17,14.17,0,0,0-7.91-2.34V144.43q6.42,0,9.11-3.64a15.71,15.71,0,0,0,3-8c.22-3,.35-6.21.35-9.74a72.43,72.43,0,0,1,1-14A14.49,14.49,0,0,1,599.2,102a16.56,16.56,0,0,1,7-4.13,43.85,43.85,0,0,1,11.91-1.37h3Zm74.54,48a13.42,13.42,0,0,0-7.79,2.29,10.76,10.76,0,0,0-3.66,6,58.81,58.81,0,0,0-1,13,75.51,75.51,0,0,1-.91,14,14.69,14.69,0,0,1-3.53,7.06,15.6,15.6,0,0,1-7.07,4.12,41.2,41.2,0,0,1-11.9,1.38h-3V192.24c4.82,0,8-.52,9.4-1.59s2.21-3.28,2.21-6.67q0-16.38,2.12-22.71A18,18,0,0,1,679,151.18a18.26,18.26,0,0,1-8.82-10.82q-1.89-6.6-1.89-22,0-5.4-2.1-6.87t-9.51-1.37V96.46h3c7.68,0,12.89.94,15.67,2.75a17.22,17.22,0,0,1,6,6.61q1.83,3.83,1.82,17.09a62.62,62.62,0,0,0,1,13,10.16,10.16,0,0,0,3.65,6,13.48,13.48,0,0,0,7.85,2.34Z" transform="translate(-27.85 -21.78)"/><path class="cls-8" d="M508.76,854.28l-66.55,17.87-46.84-46.84,66.55-17.87Zm-87-87L355.2,785.15,308.36,738.3l66.56-17.87Z" transform="translate(-27.85 -21.78)"/><path class="cls-8" d="M710.86,865.55l-335-194.34,53.94-14.46L765.38,851Z" transform="translate(-27.85 -21.78)"/><path class="cls-8" d="M856.07,826.65,521.1,632.3l54-14.45L910.64,812Z" transform="translate(-27.85 -21.78)"/><path class="cls-4" d="M421.9,654.75c7.09-36.2,33.2-47.89,51.81-51.54a34.14,34.14,0,0,1-3.57-14.94,51.85,51.85,0,0,0-63.64,63A33.94,33.94,0,0,1,421.9,654.75Z" transform="translate(-27.85 -21.78)"/><path class="cls-4" d="M493.36,675a51.81,51.81,0,0,0,13.42-50.08,34.09,34.09,0,0,1-14.93-3.56c-3.67,18.61-15.35,44.72-51.55,51.8a33.66,33.66,0,0,1,3.46,15.39A51.82,51.82,0,0,0,493.36,675Z" transform="translate(-27.85 -21.78)"/><path class="cls-3" d="M473.71,603.21c-18.61,3.65-44.72,15.34-51.81,51.54a39.83,39.83,0,0,1,18.4,18.4c36.2-7.08,47.88-33.19,51.55-51.8a39.84,39.84,0,0,1-18.14-18.14Z" transform="translate(-27.85 -21.78)"/><path class="cls-1" d="M493.36,601.7a51.53,51.53,0,0,0-23.22-13.43,34.14,34.14,0,0,0,3.57,14.94,39.84,39.84,0,0,0,18.14,18.14,34.09,34.09,0,0,0,14.93,3.56A51.63,51.63,0,0,0,493.36,601.7Z" transform="translate(-27.85 -21.78)"/><path class="cls-1" d="M440.3,673.15a39.83,39.83,0,0,0-18.4-18.4,33.94,33.94,0,0,0-15.4-3.47,51.93,51.93,0,0,0,37.26,37.26A33.66,33.66,0,0,0,440.3,673.15Z" transform="translate(-27.85 -21.78)"/><circle class="cls-9" cx="705.57" cy="468.8" r="17.58"/><circle class="cls-9" cx="692.37" cy="538.59" r="16.68"/><circle class="cls-9" cx="789.18" cy="545.89" r="13.8"/><circle class="cls-9" cx="968.85" cy="589.41" r="17.34"/><circle class="cls-9" cx="896.9" cy="634.74" r="8.3"/><circle class="cls-9" cx="974.06" cy="670.21" r="22.55"/><line class="cls-9" x1="738.3" y1="494.59" x2="754.97" y2="511.25"/><line class="cls-9" x1="757.17" y1="487.74" x2="761.4" y2="507.02"/><line class="cls-9" x1="770.65" y1="487.74" x2="768.85" y2="507.02"/><line class="cls-9" x1="883.34" y1="582.47" x2="888.06" y2="605.56"/><line class="cls-9" x1="902.85" y1="587.13" x2="895.77" y2="605.58"/><line class="cls-9" x1="914.11" y1="594.55" x2="901.99" y2="609.67"/></g></svg>