<svg id="Layer_1" data-name="Layer 1" xmlns="http://www.w3.org/2000/svg" xmlns:xlink="http://www.w3.org/1999/xlink" viewBox="0 0 1904.96 1041.67"><defs><style>.cls-1{opacity:0.25;}.cls-2,.cls-4,.cls-5{fill:none;}.cls-2,.cls-4{stroke:#ee4648;}.cls-2,.cls-5{stroke-miterlimit:10;stroke-width:6px;}.cls-3{opacity:0.2;}.cls-4{stroke-linecap:round;stroke-linejoin:round;stroke-width:5px;}.cls-5{stroke:#cb2a49;}.cls-6{opacity:0.05;}.cls-7{fill:url(#linear-gradient);}.cls-8{fill:url(#linear-gradient-2);}</style><linearGradient id="linear-gradient" x1="1165.6" y1="-157.41" x2="1128.66" y2="729.07" gradientTransform="matrix(1, 0, 0, -1, 0, 1082)" gradientUnits="userSpaceOnUse"><stop offset="0.15" stop-color="#ce2f48"/><stop offset="1" stop-color="#f26f38"/></linearGradient><linearGradient id="linear-gradient-2" x1="1133.85" y1="886.75" x2="1287.48" y2="347.23" gradientTransform="matrix(1, 0, 0, -1, 0, 1082)" gradientUnits="userSpaceOnUse"><stop offset="0" stop-color="#ce2f48"/><stop offset="1" stop-color="#f26f38"/></linearGradient></defs><title>sect3Background</title><g class="cls-1"><line class="cls-2" x1="769.54" y1="700.8" x2="746.26" y2="724.08"/><line class="cls-2" x1="746.26" y1="700.8" x2="769.54" y2="724.08"/><line class="cls-2" x1="769.54" y1="733.68" x2="746.26" y2="756.97"/><line class="cls-2" x1="746.26" y1="733.68" x2="769.54" y2="756.97"/><line class="cls-2" x1="736.66" y1="733.68" x2="713.38" y2="756.97"/><line class="cls-2" x1="713.38" y1="733.68" x2="736.66" y2="756.97"/><line class="cls-2" x1="736.66" y1="700.8" x2="713.38" y2="724.08"/><line class="cls-2" x1="713.38" y1="700.8" x2="736.66" y2="724.08"/><line class="cls-2" x1="703.77" y1="700.8" x2="680.49" y2="724.08"/><line class="cls-2" x1="680.49" y1="700.8" x2="703.77" y2="724.08"/><line class="cls-2" x1="703.77" y1="733.68" x2="680.49" y2="756.97"/><line class="cls-2" x1="680.49" y1="733.68" x2="703.77" y2="756.97"/><line class="cls-2" x1="670.89" y1="733.68" x2="647.61" y2="756.97"/><line class="cls-2" x1="647.61" y1="733.68" x2="670.89" y2="756.97"/><line class="cls-2" x1="670.89" y1="700.8" x2="647.61" y2="724.08"/><line class="cls-2" x1="647.61" y1="700.8" x2="670.89" y2="724.08"/><line class="cls-2" x1="703.77" y1="766.57" x2="680.49" y2="789.85"/><line class="cls-2" x1="680.49" y1="766.57" x2="703.77" y2="789.85"/><line class="cls-2" x1="703.77" y1="799.45" x2="680.49" y2="822.74"/><line class="cls-2" x1="680.49" y1="799.45" x2="703.77" y2="822.74"/><line class="cls-2" x1="670.89" y1="799.45" x2="647.61" y2="822.74"/><line class="cls-2" x1="647.61" y1="799.45" x2="670.89" y2="822.74"/><line class="cls-2" x1="670.89" y1="766.57" x2="647.61" y2="789.85"/><line class="cls-2" x1="647.61" y1="766.57" x2="670.89" y2="789.85"/><line class="cls-2" x1="638.01" y1="700.8" x2="614.72" y2="724.08"/><line class="cls-2" x1="614.72" y1="700.8" x2="638.01" y2="724.08"/><line class="cls-2" x1="638.01" y1="733.68" x2="614.72" y2="756.97"/><line class="cls-2" x1="614.72" y1="733.68" x2="638.01" y2="756.97"/><line class="cls-2" x1="605.12" y1="733.68" x2="581.84" y2="756.97"/><line class="cls-2" x1="581.84" y1="733.68" x2="605.12" y2="756.97"/><line class="cls-2" x1="605.12" y1="700.8" x2="581.84" y2="724.08"/><line class="cls-2" x1="581.84" y1="700.8" x2="605.12" y2="724.08"/><line class="cls-2" x1="638.01" y1="766.57" x2="614.72" y2="789.85"/><line class="cls-2" x1="614.72" y1="766.57" x2="638.01" y2="789.85"/><line class="cls-2" x1="638.01" y1="799.45" x2="614.72" y2="822.74"/><line class="cls-2" x1="614.72" y1="799.45" x2="638.01" y2="822.74"/><line class="cls-2" x1="605.12" y1="799.45" x2="581.84" y2="822.74"/><line class="cls-2" x1="581.84" y1="799.45" x2="605.12" y2="822.74"/><line class="cls-2" x1="605.12" y1="766.57" x2="581.84" y2="789.85"/><line class="cls-2" x1="581.84" y1="766.57" x2="605.12" y2="789.85"/><line class="cls-2" x1="572.24" y1="700.8" x2="548.95" y2="724.08"/><line class="cls-2" x1="548.95" y1="700.8" x2="572.24" y2="724.08"/><line class="cls-2" x1="572.24" y1="733.68" x2="548.95" y2="756.97"/><line class="cls-2" x1="548.95" y1="733.68" x2="572.24" y2="756.97"/><line class="cls-2" x1="539.35" y1="733.68" x2="516.07" y2="756.97"/><line class="cls-2" x1="516.07" y1="733.68" x2="539.35" y2="756.97"/><line class="cls-2" x1="539.35" y1="700.8" x2="516.07" y2="724.08"/><line class="cls-2" x1="516.07" y1="700.8" x2="539.35" y2="724.08"/><line class="cls-2" x1="572.24" y1="766.57" x2="548.95" y2="789.85"/><line class="cls-2" x1="548.95" y1="766.57" x2="572.24" y2="789.85"/><line class="cls-2" x1="572.24" y1="799.45" x2="548.95" y2="822.74"/><line class="cls-2" x1="548.95" y1="799.45" x2="572.24" y2="822.74"/><line class="cls-2" x1="539.35" y1="799.45" x2="516.07" y2="822.74"/><line class="cls-2" x1="516.07" y1="799.45" x2="539.35" y2="822.74"/><line class="cls-2" x1="539.35" y1="766.57" x2="516.07" y2="789.85"/><line class="cls-2" x1="516.07" y1="766.57" x2="539.35" y2="789.85"/><line class="cls-2" x1="769.54" y1="766.57" x2="746.26" y2="789.85"/><line class="cls-2" x1="746.26" y1="766.57" x2="769.54" y2="789.85"/><line class="cls-2" x1="769.54" y1="799.45" x2="746.26" y2="822.74"/><line class="cls-2" x1="746.26" y1="799.45" x2="769.54" y2="822.74"/><line class="cls-2" x1="736.66" y1="799.45" x2="713.38" y2="822.74"/><line class="cls-2" x1="713.38" y1="799.45" x2="736.66" y2="822.74"/><line class="cls-2" x1="736.66" y1="766.57" x2="713.38" y2="789.85"/><line class="cls-2" x1="713.38" y1="766.57" x2="736.66" y2="789.85"/></g><g class="cls-1"><line class="cls-2" x1="1423.9" y1="52.32" x2="1381.09" y2="95.12"/><line class="cls-2" x1="1381.09" y1="52.32" x2="1423.9" y2="95.12"/><line class="cls-2" x1="1423.9" y1="112.77" x2="1381.09" y2="155.58"/><line class="cls-2" x1="1381.09" y1="112.77" x2="1423.9" y2="155.58"/><line class="cls-2" x1="1363.44" y1="112.77" x2="1320.64" y2="155.58"/><line class="cls-2" x1="1320.64" y1="112.77" x2="1363.44" y2="155.58"/><line class="cls-2" x1="1363.44" y1="52.32" x2="1320.64" y2="95.12"/><line class="cls-2" x1="1320.64" y1="52.32" x2="1363.44" y2="95.12"/><line class="cls-2" x1="1302.99" y1="52.32" x2="1260.18" y2="95.12"/><line class="cls-2" x1="1260.18" y1="52.32" x2="1302.99" y2="95.12"/><line class="cls-2" x1="1302.99" y1="112.77" x2="1260.18" y2="155.58"/><line class="cls-2" x1="1260.18" y1="112.77" x2="1302.99" y2="155.58"/><line class="cls-2" x1="1242.53" y1="112.77" x2="1199.73" y2="155.58"/><line class="cls-2" x1="1199.73" y1="112.77" x2="1242.53" y2="155.58"/><line class="cls-2" x1="1242.53" y1="52.32" x2="1199.73" y2="95.12"/><line class="cls-2" x1="1199.73" y1="52.32" x2="1242.53" y2="95.12"/><line class="cls-2" x1="1302.99" y1="173.23" x2="1260.18" y2="216.03"/><line class="cls-2" x1="1260.18" y1="173.23" x2="1302.99" y2="216.03"/><line class="cls-2" x1="1302.99" y1="233.68" x2="1260.18" y2="276.49"/><line class="cls-2" x1="1260.18" y1="233.68" x2="1302.99" y2="276.49"/><line class="cls-2" x1="1242.53" y1="233.68" x2="1199.73" y2="276.49"/><line class="cls-2" x1="1199.73" y1="233.68" x2="1242.53" y2="276.49"/><line class="cls-2" x1="1242.53" y1="173.23" x2="1199.73" y2="216.03"/><line class="cls-2" x1="1199.73" y1="173.23" x2="1242.53" y2="216.03"/><line class="cls-2" x1="1182.08" y1="52.32" x2="1139.28" y2="95.12"/><line class="cls-2" x1="1139.28" y1="52.32" x2="1182.08" y2="95.12"/><line class="cls-2" x1="1182.08" y1="112.77" x2="1139.28" y2="155.58"/><line class="cls-2" x1="1139.28" y1="112.77" x2="1182.08" y2="155.58"/><line class="cls-2" x1="1121.63" y1="112.77" x2="1078.82" y2="155.58"/><line class="cls-2" x1="1078.82" y1="112.77" x2="1121.63" y2="155.58"/><line class="cls-2" x1="1121.63" y1="52.32" x2="1078.82" y2="95.12"/><line class="cls-2" x1="1078.82" y1="52.32" x2="1121.63" y2="95.12"/><line class="cls-2" x1="1182.08" y1="173.23" x2="1139.28" y2="216.03"/><line class="cls-2" x1="1139.28" y1="173.23" x2="1182.08" y2="216.03"/><line class="cls-2" x1="1182.08" y1="233.68" x2="1139.28" y2="276.49"/><line class="cls-2" x1="1139.28" y1="233.68" x2="1182.08" y2="276.49"/><line class="cls-2" x1="1121.63" y1="233.68" x2="1078.82" y2="276.49"/><line class="cls-2" x1="1078.82" y1="233.68" x2="1121.63" y2="276.49"/><line class="cls-2" x1="1121.63" y1="173.23" x2="1078.82" y2="216.03"/><line class="cls-2" x1="1078.82" y1="173.23" x2="1121.63" y2="216.03"/><line class="cls-2" x1="1061.17" y1="52.32" x2="1018.37" y2="95.12"/><line class="cls-2" x1="1018.37" y1="52.32" x2="1061.17" y2="95.12"/><line class="cls-2" x1="1061.17" y1="112.77" x2="1018.37" y2="155.58"/><line class="cls-2" x1="1018.37" y1="112.77" x2="1061.17" y2="155.58"/><line class="cls-2" x1="1000.72" y1="112.77" x2="957.91" y2="155.58"/><line class="cls-2" x1="957.91" y1="112.77" x2="1000.72" y2="155.58"/><line class="cls-2" x1="1000.72" y1="52.32" x2="957.91" y2="95.12"/><line class="cls-2" x1="957.91" y1="52.32" x2="1000.72" y2="95.12"/><line class="cls-2" x1="1061.17" y1="173.23" x2="1018.37" y2="216.03"/><line class="cls-2" x1="1018.37" y1="173.23" x2="1061.17" y2="216.03"/><line class="cls-2" x1="1061.17" y1="233.68" x2="1018.37" y2="276.49"/><line class="cls-2" x1="1018.37" y1="233.68" x2="1061.17" y2="276.49"/><line class="cls-2" x1="1000.72" y1="233.68" x2="957.91" y2="276.49"/><line class="cls-2" x1="957.91" y1="233.68" x2="1000.72" y2="276.49"/><line class="cls-2" x1="1000.72" y1="173.23" x2="957.91" y2="216.03"/><line class="cls-2" x1="957.91" y1="173.23" x2="1000.72" y2="216.03"/><line class="cls-2" x1="1423.9" y1="173.23" x2="1381.09" y2="216.03"/><line class="cls-2" x1="1381.09" y1="173.23" x2="1423.9" y2="216.03"/><line class="cls-2" x1="1423.9" y1="233.68" x2="1381.09" y2="276.49"/><line class="cls-2" x1="1381.09" y1="233.68" x2="1423.9" y2="276.49"/><line class="cls-2" x1="1363.44" y1="233.68" x2="1320.64" y2="276.49"/><line class="cls-2" x1="1320.64" y1="233.68" x2="1363.44" y2="276.49"/><line class="cls-2" x1="1363.44" y1="173.23" x2="1320.64" y2="216.03"/><line class="cls-2" x1="1320.64" y1="173.23" x2="1363.44" y2="216.03"/></g><g class="cls-3"><polygon class="cls-4" points="848.74 99.54 892.31 262.12 729.72 218.56 686.16 55.98 848.74 99.54"/><polygon class="cls-4" points="892.31 262.12 773.29 381.14 610.71 337.58 729.72 218.56 892.31 262.12"/><polygon class="cls-4" points="729.72 218.56 610.71 337.58 567.14 174.99 686.16 55.98 729.72 218.56"/><polygon class="cls-4" points="597.47 462.91 667.09 444.26 648.43 513.87 578.82 532.53 597.47 462.91"/><polygon class="cls-4" points="667.09 444.26 718.05 495.22 699.4 564.84 648.43 513.87 667.09 444.26"/><polygon class="cls-4" points="648.43 513.87 699.4 564.84 629.78 583.49 578.82 532.53 648.43 513.87"/><polygon class="cls-4" points="297.5 626.27 443.26 710.43 297.5 794.59 151.73 710.43 297.5 626.27"/><polygon class="cls-4" points="443.26 710.43 443.26 878.75 297.5 962.91 297.5 794.59 443.26 710.43"/><polygon class="cls-4" points="297.5 794.59 297.5 962.91 151.73 878.75 151.73 710.43 297.5 794.59"/></g><g class="cls-1"><line class="cls-5" x1="2.12" y1="288.68" x2="34.12" y2="256.68"/><line class="cls-5" x1="34.12" y1="288.68" x2="2.12" y2="256.68"/><line class="cls-5" x1="2.12" y1="243.48" x2="34.12" y2="211.48"/><line class="cls-5" x1="34.12" y1="243.48" x2="2.12" y2="211.48"/><line class="cls-5" x1="47.32" y1="243.48" x2="79.32" y2="211.48"/><line class="cls-5" x1="79.32" y1="243.48" x2="47.32" y2="211.48"/><line class="cls-5" x1="47.32" y1="288.68" x2="79.32" y2="256.68"/><line class="cls-5" x1="79.32" y1="288.68" x2="47.32" y2="256.68"/><line class="cls-5" x1="92.52" y1="288.68" x2="124.52" y2="256.68"/><line class="cls-5" x1="124.52" y1="288.68" x2="92.52" y2="256.68"/><line class="cls-5" x1="92.52" y1="243.48" x2="124.52" y2="211.48"/><line class="cls-5" x1="124.52" y1="243.48" x2="92.52" y2="211.48"/><line class="cls-5" x1="137.72" y1="243.48" x2="169.72" y2="211.48"/><line class="cls-5" x1="169.72" y1="243.48" x2="137.72" y2="211.48"/><line class="cls-5" x1="137.72" y1="288.68" x2="169.72" y2="256.68"/><line class="cls-5" x1="169.72" y1="288.68" x2="137.72" y2="256.68"/><line class="cls-5" x1="92.52" y1="198.28" x2="124.52" y2="166.28"/><line class="cls-5" x1="124.52" y1="198.28" x2="92.52" y2="166.28"/><line class="cls-5" x1="92.52" y1="153.08" x2="124.52" y2="121.08"/><line class="cls-5" x1="124.52" y1="153.08" x2="92.52" y2="121.08"/><line class="cls-5" x1="137.72" y1="153.08" x2="169.72" y2="121.08"/><line class="cls-5" x1="169.72" y1="153.08" x2="137.72" y2="121.08"/><line class="cls-5" x1="137.72" y1="198.28" x2="169.72" y2="166.28"/><line class="cls-5" x1="169.72" y1="198.28" x2="137.72" y2="166.28"/><line class="cls-5" x1="182.92" y1="288.68" x2="214.92" y2="256.68"/><line class="cls-5" x1="214.92" y1="288.68" x2="182.92" y2="256.68"/><line class="cls-5" x1="182.92" y1="243.48" x2="214.92" y2="211.48"/><line class="cls-5" x1="214.92" y1="243.48" x2="182.92" y2="211.48"/><line class="cls-5" x1="228.12" y1="243.48" x2="260.12" y2="211.48"/><line class="cls-5" x1="260.12" y1="243.48" x2="228.12" y2="211.48"/><line class="cls-5" x1="228.12" y1="288.68" x2="260.12" y2="256.68"/><line class="cls-5" x1="260.12" y1="288.68" x2="228.12" y2="256.68"/><line class="cls-5" x1="182.92" y1="198.28" x2="214.92" y2="166.28"/><line class="cls-5" x1="214.92" y1="198.28" x2="182.92" y2="166.28"/><line class="cls-5" x1="182.92" y1="153.08" x2="214.92" y2="121.08"/><line class="cls-5" x1="214.92" y1="153.08" x2="182.92" y2="121.08"/><line class="cls-5" x1="228.12" y1="153.08" x2="260.12" y2="121.08"/><line class="cls-5" x1="260.12" y1="153.08" x2="228.12" y2="121.08"/><line class="cls-5" x1="228.12" y1="198.28" x2="260.12" y2="166.28"/><line class="cls-5" x1="260.12" y1="198.28" x2="228.12" y2="166.28"/><line class="cls-5" x1="273.32" y1="288.68" x2="305.32" y2="256.68"/><line class="cls-5" x1="305.32" y1="288.68" x2="273.32" y2="256.68"/><line class="cls-5" x1="273.32" y1="243.48" x2="305.32" y2="211.48"/><line class="cls-5" x1="305.32" y1="243.48" x2="273.32" y2="211.48"/><line class="cls-5" x1="318.52" y1="243.48" x2="350.52" y2="211.48"/><line class="cls-5" x1="350.52" y1="243.48" x2="318.52" y2="211.48"/><line class="cls-5" x1="318.52" y1="288.68" x2="350.52" y2="256.68"/><line class="cls-5" x1="350.52" y1="288.68" x2="318.52" y2="256.68"/><line class="cls-5" x1="273.32" y1="198.28" x2="305.32" y2="166.28"/><line class="cls-5" x1="305.32" y1="198.28" x2="273.32" y2="166.28"/><line class="cls-5" x1="273.32" y1="153.08" x2="305.32" y2="121.08"/><line class="cls-5" x1="305.32" y1="153.08" x2="273.32" y2="121.08"/><line class="cls-5" x1="318.52" y1="153.08" x2="350.52" y2="121.08"/><line class="cls-5" x1="350.52" y1="153.08" x2="318.52" y2="121.08"/><line class="cls-5" x1="318.52" y1="198.28" x2="350.52" y2="166.28"/><line class="cls-5" x1="350.52" y1="198.28" x2="318.52" y2="166.28"/><line class="cls-5" x1="2.12" y1="198.28" x2="34.12" y2="166.28"/><line class="cls-5" x1="34.12" y1="198.28" x2="2.12" y2="166.28"/><line class="cls-5" x1="2.12" y1="153.08" x2="34.12" y2="121.08"/><line class="cls-5" x1="34.12" y1="153.08" x2="2.12" y2="121.08"/><line class="cls-5" x1="47.32" y1="153.08" x2="79.32" y2="121.08"/><line class="cls-5" x1="79.32" y1="153.08" x2="47.32" y2="121.08"/><line class="cls-5" x1="47.32" y1="198.28" x2="79.32" y2="166.28"/><line class="cls-5" x1="79.32" y1="198.28" x2="47.32" y2="166.28"/></g><g class="cls-6"><path class="cls-7" d="M1885.2,20H1156.51c-52.59,0-95.21,37.65-95.21,84.1h0c0,19.1,7.22,36.71,19.36,50.82h0V155c1.63,1.89,3.34,3.73,5.14,5.49l.77.94c24.89,31.24,1.76,77-38.61,77H416.47c-52.58,0-95.21,37.66-95.21,84.11h0c0,46.44,42.63,84.1,95.21,84.1H773.21c40.7,0,61.65,48.15,33.28,76.83l-.36.37-.93.89-.1.09h0c-15.1,14.88-24.3,34.54-24.3,56.11h0c0,21.56,9.2,41.22,24.3,56.1h0c1.49,1.47,3,2.88,4.64,4.25,7,7.14,19.14,22.6,15.7,41.86-3.34,18.68-20.32,32-39.62,32H475.44c-52.58,0-95.2,37.66-95.2,84.11h0c0,46.45,42.62,84.1,95.2,84.1h568.11c17.66,0,33.32,12,36.66,29.1,4.82,24.64-18.91,42-18.91,42h0c-19.83,15.41-32.37,38-32.37,63.15h0c0,46.45,42.63,84.1,95.21,84.1h761a105.76,105.76,0,0,0,35.85-6.17V20Z" transform="translate(-16.03 -20)"/></g><path class="cls-8" d="M1198,40.72c-49.66,0-89.91,36.18-89.91,80.82h0a75.36,75.36,0,0,0,18.28,48.83h0c1.54,1.82,3.16,3.59,4.86,5.28l.72.9c23.51,30,1.67,74-36.46,74H499.08c-49.65,0-89.91,36.18-89.91,80.82h0c0,44.63,40.26,80.81,89.91,80.81H836c38.44,0,58.22,46.26,31.43,73.83l-.35.35-.87.85-.1.09h0c-14.26,14.31-22.94,33.2-22.94,53.92h0c0,20.72,8.68,39.61,22.94,53.91h0c1.41,1.41,2.87,2.78,4.39,4.09,6.64,6.86,18.07,21.72,14.82,40.22-3.15,18-19.19,30.78-37.42,30.78H554.78c-49.66,0-89.91,36.18-89.91,80.82h0c0,44.63,40.25,80.81,89.91,80.81h536.49c16.69,0,31.48,11.57,34.63,28,4.55,23.68-17.86,40.4-17.86,40.4h0c-18.73,14.81-30.57,36.49-30.57,60.68h0c0,44.63,40.26,80.81,89.91,80.81H1920V40.72Z" transform="translate(-16.03 -20)"/></svg>