<svg id="Layer_1" data-name="Layer 1" xmlns="http://www.w3.org/2000/svg" viewBox="0 0 2113.35 555.49" style=""><defs><style>.cls-1,.cls-2,.cls-3,.cls-4{fill:none;stroke:#f44336;stroke-width:3px;}.cls-1{stroke-miterlimit:10;}.cls-2,.cls-3{stroke-linejoin:round;}.cls-3{stroke-linecap:round;}</style></defs><title>usr_doc</title><path class="cls-1 ERPpUcXH_0" d="M353.2,38.7,221.4,61.9l8.4,47.4,16.6,94H382.3l-16.6-94ZM310.6,181.3l-47.8-56.7,72.4-13.2Z" transform="translate(-97.9 -19.09)"></path><path class="cls-1 ERPpUcXH_1" d="M445.4,203.3V140.9a31.54,31.54,0,0,0-31.6-31.6h-29l16.6,94Z" transform="translate(-97.9 -19.09)"></path><path class="cls-1 ERPpUcXH_2" d="M181.6,131.7a6.37,6.37,0,0,1,5.2-7.4l6.9-1.2a6.37,6.37,0,0,1,7.4,5.2l4.9,27.8,12.3-2.2-7.9-44.6H197a31.54,31.54,0,0,0-31.6,31.6v62.4h28.9Z" transform="translate(-97.9 -19.09)"></path><path class="cls-1 ERPpUcXH_3" d="M212.7,162.21L237.3,92.31L164.9,105.51L212.7,162.21Z"></path><path class="cls-1 ERPpUcXH_4" d="M500,203.3H110.9a11.44,11.44,0,0,0-11.5,11.5v337a11.44,11.44,0,0,0,11.5,11.5h96.8a19.67,19.67,0,0,1-.9-7.7,1266.26,1266.26,0,0,0,4.3-183.7H187.3a9.18,9.18,0,0,1-9.2-9.2V352.3a9.18,9.18,0,0,1,9.2-9.2H423.6a9.18,9.18,0,0,1,9.2,9.2v10.4a9.18,9.18,0,0,1-9.2,9.2H411a1491,1491,0,0,1-4.2,191.4H500a11.44,11.44,0,0,0,11.5-11.5v-337A11.44,11.44,0,0,0,500,203.3ZM178.7,259.9a4.06,4.06,0,0,1-4.1,4.1H135.1a4.06,4.06,0,0,1-4.1-4.1V227.7a4.06,4.06,0,0,1,4.1-4.1h39.5a4.06,4.06,0,0,1,4.1,4.1Zm311.5-12.5a5.34,5.34,0,0,1-5.3,5.3h-88a5.34,5.34,0,0,1-5.3-5.3v-5.8a5.34,5.34,0,0,1,5.3-5.3h88a5.34,5.34,0,0,1,5.3,5.3Z" transform="translate(-97.9 -19.09)"></path><path class="cls-1 ERPpUcXH_5" d="M233.3,463.3h.1a5.38,5.38,0,0,0,5.5-5.3v-.1a5.5,5.5,0,1,0-5.6,5.4Z" transform="translate(-97.9 -19.09)"></path><path class="cls-1 ERPpUcXH_6" d="M328.9,473.9a5.42,5.42,0,0,0-6.1,4.7v.1a5.67,5.67,0,0,0,5.2,6,5.34,5.34,0,0,0,5.5-4.7A5.42,5.42,0,0,0,328.9,473.9Z" transform="translate(-97.9 -19.09)"></path><path class="cls-1 ERPpUcXH_7" d="M314.7,472.5l-85.2-2.7a1.79,1.79,0,0,0-1.8,1.8l-.2,7.3a1.77,1.77,0,0,0,1.7,1.8l85.2,3.5a2,2,0,0,0,1.8-1.9l.3-7.8h0A1.9,1.9,0,0,0,314.7,472.5Z" transform="translate(-97.9 -19.09)"></path><path class="cls-1 ERPpUcXH_8" d="M332.5,454l-85.3-1.3a1.79,1.79,0,0,0-1.8,1.8l-.1,7.4a1.77,1.77,0,0,0,1.7,1.8l85.2,2.2h0a2,2,0,0,0,1.9-1.9l.1-8A1.88,1.88,0,0,0,332.5,454Z" transform="translate(-97.9 -19.09)"></path><path class="cls-1 ERPpUcXH_9" d="M231.5,419.6a1.77,1.77,0,0,0-1.7,1.8v7.3a1.79,1.79,0,0,0,1.8,1.8l85.2-.3a1.86,1.86,0,0,0,1.7-1.9v-7.9a2,2,0,0,0-1.8-1.9Z" transform="translate(-97.9 -19.09)"></path><path class="cls-1 ERPpUcXH_10" d="M235,412.8a5.38,5.38,0,0,0,5.4-5.4v-.2a5.4,5.4,0,1,0-5.4,5.6Z" transform="translate(-97.9 -19.09)"></path><path class="cls-1 ERPpUcXH_11" d="M330.8,419.3a5.39,5.39,0,0,0-5.8,5h.1a5.66,5.66,0,0,0,5.4,5.8,5.41,5.41,0,0,0,.3-10.8Z" transform="translate(-97.9 -19.09)"></path><path class="cls-1 ERPpUcXH_12" d="M248.8,412.7l85.2-1.6v.1a1.88,1.88,0,0,0,1.7-2l-.1-8h0a2,2,0,0,0-1.8-2l-85.3,2.4h0a1.79,1.79,0,0,0-1.7,1.9l.2,7.4A1.79,1.79,0,0,0,248.8,412.7Z" transform="translate(-97.9 -19.09)"></path><path class="cls-1 ERPpUcXH_13" d="M329.1,372.1h0a4.25,4.25,0,0,0,1.1-.2h-2.6A7.72,7.72,0,0,0,329.1,372.1Z" transform="translate(-97.9 -19.09)"></path><path class="cls-1 ERPpUcXH_14" d="M228.5,375.4a1.77,1.77,0,0,0,1.8,1.7l85.2-4.3a1.76,1.76,0,0,0,1.3-.9H228.3Z" transform="translate(-97.9 -19.09)"></path><path class="cls-1 ERPpUcXH_15" d="M316.8,371.9H423.5a9.18,9.18,0,0,0,9.2-9.2V352.3a9.18,9.18,0,0,0-9.2-9.2H187.3a9.18,9.18,0,0,0-9.2,9.2v10.4a9.18,9.18,0,0,0,9.2,9.2H316.8Z" transform="translate(-97.9 -19.09)"></path><path class="cls-1 ERPpUcXH_16" d="M174.6,223.6H135.1a4.06,4.06,0,0,0-4.1,4.1v32.2a4.06,4.06,0,0,0,4.1,4.1h39.5a4.06,4.06,0,0,0,4.1-4.1V227.7A4.06,4.06,0,0,0,174.6,223.6Zm-19.8,30.1a9.2,9.2,0,1,1,9.2-9.2A9.18,9.18,0,0,1,154.8,253.7Z" transform="translate(-97.9 -19.09)"></path><path class="cls-1 ERPpUcXH_17" d="M47.709999999999994,225.41A9.2,9.2 0,1,1 66.11,225.41A9.2,9.2 0,1,1 47.709999999999994,225.41"></path><path class="cls-1 ERPpUcXH_18" d="M484.9,236.3h-88a5.34,5.34,0,0,0-5.3,5.3v5.8a5.34,5.34,0,0,0,5.3,5.3h88a5.34,5.34,0,0,0,5.3-5.3v-5.8A5.34,5.34,0,0,0,484.9,236.3Zm-81,12.3a4.1,4.1,0,1,1,4.1-4.1A4.06,4.06,0,0,1,403.9,248.6Zm16.5,0a4.1,4.1,0,1,1,4.1-4.1A4.06,4.06,0,0,1,420.4,248.6Zm16.4,0a4.1,4.1,0,1,1,4.1-4.1A4.06,4.06,0,0,1,436.8,248.6Z" transform="translate(-97.9 -19.09)"></path><path class="cls-1 ERPpUcXH_19" d="M403.9,240.4a4.1,4.1,0,1,0,4.1,4.1A4.06,4.06,0,0,0,403.9,240.4Z" transform="translate(-97.9 -19.09)"></path><path class="cls-1 ERPpUcXH_20" d="M436.8,240.4a4.1,4.1,0,1,0,4.1,4.1A4.06,4.06,0,0,0,436.8,240.4Z" transform="translate(-97.9 -19.09)"></path><path class="cls-1 ERPpUcXH_21" d="M420.4,240.4a4.1,4.1,0,1,0,4.1,4.1A4.06,4.06,0,0,0,420.4,240.4Z" transform="translate(-97.9 -19.09)"></path><path class="cls-1 ERPpUcXH_22" d="M207.7,563.3s.31,5.28,11.65,7.75,168.64,3,177.52,0,9.93-7.75,9.93-7.75" transform="translate(-97.9 -19.09)"></path><path id="C" class="cls-1 ERPpUcXH_23" d="M264.34,522.61l-1.28,25.91a8.65,8.65,0,0,0,8.21,9.06l8.64.43A8.65,8.65,0,0,0,289,549.8l.32-6.48-8.64-.42-.32,6.47L271.7,549,273,523l8.63.43-.32,6.47,8.64.43.32-6.48a8.65,8.65,0,0,0-8.21-9.06l-8.64-.42A8.65,8.65,0,0,0,264.34,522.61Z" transform="translate(-97.9 -19.09)"></path><path id="C-2" data-name="C" class="cls-1 ERPpUcXH_24" d="M229.8,520.91l-1.27,25.9a8.63,8.63,0,0,0,8.2,9.06l8.64.43a8.64,8.64,0,0,0,9.06-8.21l.32-6.47-8.64-.43-.32,6.48-8.63-.43,1.28-25.9,8.63.42-.32,6.48,8.64.42.32-6.47a8.64,8.64,0,0,0-8.21-9.06l-8.63-.43A8.66,8.66,0,0,0,229.8,520.91Z" transform="translate(-97.9 -19.09)"></path><path class="cls-2 ERPpUcXH_25" d="M384.7,109.3,371,31.7a13.38,13.38,0,0,0-15.5-10.9L212.9,46A13.38,13.38,0,0,0,202,61.5l8.4,47.8,7.9,44.6h0L206,156.1l-4.9-27.8a6.37,6.37,0,0,0-7.4-5.2l-6.9,1.2a6.37,6.37,0,0,0-5.2,7.4l12.6,71.6h20.1L210,178.8l4.4,24.5h31.9l-16.6-94-8.4-47.4L353.1,38.7l12.4,70.6,16.6,94h19.2Z" transform="translate(-97.9 -19.09)"></path><path class="cls-3 ERPpUcXH_26" d="M112.1,159.71L124.8,157.41L130.1,184.21L148.4,184.21"></path><path class="cls-4 ERPpUcXH_27" d="M683.2,281.65q0,27.62-14,42.73T629.7,339.49q-25.37,0-39.26-15.11t-13.89-42.73V119.24H541.11V280.43q0,29.7,10.43,50.81a72.32,72.32,0,0,0,30.3,32.13q19.89,11,47.86,11,28.14,0,48.11-11a72.27,72.27,0,0,0,30.4-32.13q10.42-21.11,10.42-50.81V119.24H683.2Z" transform="translate(-97.9 -19.09)"></path><path class="cls-4 ERPpUcXH_28" d="M910.31,241q-15.37-6.42-38.3-11.11c-.58-.12-1.22-.23-1.91-.35s-1.34-.23-1.91-.35-.9-.2-1.31-.26a12.44,12.44,0,0,1-1.3-.26,279.48,279.48,0,0,1-30.66-7.38,44.64,44.64,0,0,1-18.41-11q-7.38-7.47-7.38-20.5v-.17q0-18.93,14.33-29.27T863.67,150a82.47,82.47,0,0,1,28.75,5.29,117.91,117.91,0,0,1,28.74,15.9L941.31,143a148.73,148.73,0,0,0-25.1-14.68,132.53,132.53,0,0,0-25.88-8.77,120.89,120.89,0,0,0-26.66-3q-28.32,0-48.46,8.68t-30.66,25.27Q774,167.18,774,190.63v.17q0,26.76,11.29,41.26t27.19,20q15.88,5.47,41.25,9.82l2.6.52a3.77,3.77,0,0,0,1.13.17,3.43,3.43,0,0,1,1.13.18,196.39,196.39,0,0,1,28.06,6.86A41,41,0,0,1,904.4,281q6.87,7.72,6.86,20.93v.18q0,18.59-15.11,28.74T853.6,341.05a110.5,110.5,0,0,1-37.7-6.25A99.7,99.7,0,0,1,784.12,316l-22.06,27.1a128.68,128.68,0,0,0,26.49,17.37A130.59,130.59,0,0,0,819,370.93l16.33,3.47H853.6q29.34,0,50.11-8.6t31.7-25q10.94-16.41,10.94-39.51v-.35q0-24.84-10.34-39.17A59.74,59.74,0,0,0,910.31,241Z" transform="translate(-97.9 -19.09)"></path><path class="cls-4 ERPpUcXH_29" d="M916.02,100.15L898.82,100.15L898.82,352.71L916.02,352.71L934.26,352.71L1061.06,352.71L1061.06,319.01L934.26,319.01L934.26,244.15L1041.95,244.15L1041.95,210.45L934.26,210.45L934.26,133.85L1061.06,133.85L1061.06,100.15L934.26,100.15L916.02,100.15Z"></path><path class="cls-4 ERPpUcXH_30" d="M1351.41,371.8h42l-58.24-110.53a70.67,70.67,0,0,0,12.64-5.33,63.89,63.89,0,0,0,25.8-25.62q9.19-16.59,9.2-38.3t-9.12-38.3A63.34,63.34,0,0,0,1348,128.1q-16.59-9-38.48-9H1209.33V371.8h35.43V265h52.76Zm-106.65-219h66.18a33.07,33.07,0,0,1,18,4.87,32.11,32.11,0,0,1,12,13.81,51.84,51.84,0,0,1,0,41.16,31.91,31.91,0,0,1-12.07,13.81,33.08,33.08,0,0,1-17.89,4.87h-66.18Z" transform="translate(-97.9 -19.09)"></path><path class="cls-4 ERPpUcXH_31" d="M622.33,411.91q-13.16-6.46-31.72-6.47H541.72V559.66h48.79q18.56,0,31.76-6.47a45,45,0,0,0,20.1-18.88q6.9-12.4,6.9-29.91V460.7q0-17.49-6.9-29.91A45.19,45.19,0,0,0,622.33,411.91Zm4.77,93.34q0,16.13-9.39,25t-26.46,8.85h-27.9V426h27.9q17.07,0,26.46,8.86t9.39,25Z" transform="translate(-97.9 -19.09)"></path><path class="cls-4 ERPpUcXH_32" d="M763.71,410.91q-12.32-7.07-28.43-7.06t-28.42,7.06a48.13,48.13,0,0,0-19,19.94q-6.74,12.88-6.74,29.85v43.7q0,17,6.74,29.86a48.19,48.19,0,0,0,19,19.94q12.3,7,28.42,7t28.43-7a48.23,48.23,0,0,0,19-19.94q6.74-12.88,6.74-29.86V460.7q0-17-6.74-29.85A48.17,48.17,0,0,0,763.71,410.91Zm3.6,94.23a40.22,40.22,0,0,1-4,18.3,28.88,28.88,0,0,1-11.25,12.19,35,35,0,0,1-33.62,0,28.86,28.86,0,0,1-11.24-12.19,40.22,40.22,0,0,1-4-18.3V460a40.22,40.22,0,0,1,4-18.3,28.91,28.91,0,0,1,11.24-12.19,35,35,0,0,1,33.62,0,28.94,28.94,0,0,1,11.25,12.19,40.22,40.22,0,0,1,4,18.3Z" transform="translate(-97.9 -19.09)"></path><path class="cls-4 ERPpUcXH_33" d="M847.39,442.3A30.33,30.33,0,0,1,888.12,428a32.93,32.93,0,0,1,11.08,8.75,34.38,34.38,0,0,1,6.74,12.88H928.1A60.24,60.24,0,0,0,918,425.6a51.39,51.39,0,0,0-18.61-16.07A53,53,0,0,0,875,403.85q-16,0-28.16,7.16A48.67,48.67,0,0,0,828,431.22q-6.68,13-6.68,30.22v42.32Q821.3,521,828,534a48.21,48.21,0,0,0,18.83,20.15L859,561.25h16a52.73,52.73,0,0,0,24.28-5.67,51.92,51.92,0,0,0,18.67-16.07,59.93,59.93,0,0,0,10.18-24.08H905.94a33.63,33.63,0,0,1-6.74,13.36,31.07,31.07,0,0,1-11,8.49,31.59,31.59,0,0,1-13.2,2.86,30.19,30.19,0,0,1-16.55-4.51,29.75,29.75,0,0,1-11-12.78,44,44,0,0,1-3.92-19.09V461.44A43.91,43.91,0,0,1,847.39,442.3Z" transform="translate(-97.9 -19.09)"></path><path class="cls-4 ERPpUcXH_34" d="M1043.5,504.61q0,16.86-8.54,26.09t-24.13,9.23q-15.48,0-24-9.23t-8.48-26.09V405.44H956.74v98.43q0,18.14,6.36,31a44.14,44.14,0,0,0,18.51,19.62q12.15,6.74,29.22,6.74t29.38-6.74a44.09,44.09,0,0,0,18.56-19.62q6.36-12.89,6.36-31V405.44H1043.5Z" transform="translate(-97.9 -19.09)"></path><path class="cls-4 ERPpUcXH_35" d="M1068.84,488.17L1023.55,386.35L1003.3,386.35L1003.3,540.57L1024.4,540.57L1024.4,436.35L1061.31,519.14L1076.37,519.14L1113.28,434.29L1113.28,540.57L1134.39,540.57L1134.39,386.35L1114.13,386.35L1068.84,488.17Z"></path><path class="cls-4 ERPpUcXH_36" d="M1183.07,386.35L1172.57,386.35L1172.57,540.57L1183.07,540.57L1194.21,540.57L1271.63,540.57L1271.63,519.99L1194.21,519.99L1194.21,474.28L1259.96,474.28L1259.96,453.7L1194.21,453.7L1194.21,406.93L1271.63,406.93L1271.63,386.35L1194.21,386.35L1183.07,386.35Z"></path><path class="cls-4 ERPpUcXH_37" d="M1394.88,501.54L1322.01,386.35L1302.39,386.35L1302.39,540.46L1323.82,540.46L1323.82,427.02L1396.47,540.46L1416.3,540.46L1416.3,386.35L1394.88,386.35L1394.88,501.54Z"></path><path class="cls-4 ERPpUcXH_38" d="M1433.27,406.93L1476.86,406.93L1476.86,540.57L1498.5,540.57L1498.5,406.93L1542.09,406.93L1542.09,386.35L1433.27,386.35L1433.27,406.93Z"></path><path class="cls-4 ERPpUcXH_39" d="M1696.84,405.44,1640,559.66h23.33L1675,525.82h62.24l11.62,33.84h23.33l-56.85-154.22ZM1682,505.25l24-70,24,70Z" transform="translate(-97.9 -19.09)"></path><path class="cls-4 ERPpUcXH_40" d="M1672.12,406.93L1715.71,406.93L1715.71,540.57L1737.35,540.57L1737.35,406.93L1780.94,406.93L1780.94,386.35L1672.12,386.35L1672.12,406.93Z"></path><path class="cls-4 ERPpUcXH_41" width="21.64" height="154.21" d="M1797.91 386.35 L1819.5500000000002 386.35 L1819.5500000000002 540.5600000000001 L1797.91 540.5600000000001 Z"></path><path class="cls-4 ERPpUcXH_42" d="M2035.07,410.91q-12.3-7.07-28.42-7.06t-28.43,7.06a48.19,48.19,0,0,0-19,19.94q-6.73,12.88-6.73,29.85v43.7q0,17,6.73,29.86a48.25,48.25,0,0,0,19,19.94q12.3,7,28.43,7t28.42-7a48.25,48.25,0,0,0,19-19.94q6.73-12.88,6.73-29.86V460.7q0-17-6.73-29.85A48.19,48.19,0,0,0,2035.07,410.91Zm3.61,94.23a40.22,40.22,0,0,1-4,18.3,28.86,28.86,0,0,1-11.24,12.19,35,35,0,0,1-33.63,0,28.86,28.86,0,0,1-11.24-12.19,40.22,40.22,0,0,1-4-18.3V460a40.22,40.22,0,0,1,4-18.3,28.91,28.91,0,0,1,11.24-12.19,35,35,0,0,1,33.63,0,28.91,28.91,0,0,1,11.24,12.19,40.22,40.22,0,0,1,4,18.3Z" transform="translate(-97.9 -19.09)"></path><path class="cls-4 ERPpUcXH_43" d="M2090.43,386.35L2090.43,501.54L2017.57,386.35L1997.94,386.35L1997.94,540.46L2019.37,540.46L2019.37,427.02L2092.02,540.46L2111.85,540.46L2111.85,386.35L2090.43,386.35Z"></path><style data-made-with="vivus-instant">.ERPpUcXH_0{stroke-dasharray:803 805;stroke-dashoffset:804;animation:ERPpUcXH_draw_0 9800ms ease-in-out 0ms infinite,ERPpUcXH_fade 9800ms linear 0ms infinite;}.ERPpUcXH_1{stroke-dasharray:281 283;stroke-dashoffset:282;animation:ERPpUcXH_draw_1 9800ms ease-in-out 0ms infinite,ERPpUcXH_fade 9800ms linear 0ms infinite;}.ERPpUcXH_2{stroke-dasharray:341 343;stroke-dashoffset:342;animation:ERPpUcXH_draw_2 9800ms ease-in-out 0ms infinite,ERPpUcXH_fade 9800ms linear 0ms infinite;}.ERPpUcXH_3{stroke-dasharray:222 224;stroke-dashoffset:223;animation:ERPpUcXH_draw_3 9800ms ease-in-out 0ms infinite,ERPpUcXH_fade 9800ms linear 0ms infinite;}.ERPpUcXH_4{stroke-dasharray:2451 2453;stroke-dashoffset:2452;animation:ERPpUcXH_draw_4 9800ms ease-in-out 0ms infinite,ERPpUcXH_fade 9800ms linear 0ms infinite;}.ERPpUcXH_5{stroke-dasharray:35 37;stroke-dashoffset:36;animation:ERPpUcXH_draw_5 9800ms ease-in-out 0ms infinite,ERPpUcXH_fade 9800ms linear 0ms infinite;}.ERPpUcXH_6{stroke-dasharray:34 36;stroke-dashoffset:35;animation:ERPpUcXH_draw_6 9800ms ease-in-out 0ms infinite,ERPpUcXH_fade 9800ms linear 0ms infinite;}.ERPpUcXH_7{stroke-dasharray:198 200;stroke-dashoffset:199;animation:ERPpUcXH_draw_7 9800ms ease-in-out 0ms infinite,ERPpUcXH_fade 9800ms linear 0ms infinite;}.ERPpUcXH_8{stroke-dasharray:198 200;stroke-dashoffset:199;animation:ERPpUcXH_draw_8 9800ms ease-in-out 0ms infinite,ERPpUcXH_fade 9800ms linear 0ms infinite;}.ERPpUcXH_9{stroke-dasharray:197 199;stroke-dashoffset:198;animation:ERPpUcXH_draw_9 9800ms ease-in-out 0ms infinite,ERPpUcXH_fade 9800ms linear 0ms infinite;}.ERPpUcXH_10{stroke-dasharray:34 36;stroke-dashoffset:35;animation:ERPpUcXH_draw_10 9800ms ease-in-out 0ms infinite,ERPpUcXH_fade 9800ms linear 0ms infinite;}.ERPpUcXH_11{stroke-dasharray:34 36;stroke-dashoffset:35;animation:ERPpUcXH_draw_11 9800ms ease-in-out 0ms infinite,ERPpUcXH_fade 9800ms linear 0ms infinite;}.ERPpUcXH_12{stroke-dasharray:198 200;stroke-dashoffset:199;animation:ERPpUcXH_draw_12 9800ms ease-in-out 0ms infinite,ERPpUcXH_fade 9800ms linear 0ms infinite;}.ERPpUcXH_13{stroke-dasharray:6 8;stroke-dashoffset:7;animation:ERPpUcXH_draw_13 9800ms ease-in-out 0ms infinite,ERPpUcXH_fade 9800ms linear 0ms infinite;}.ERPpUcXH_14{stroke-dasharray:182 184;stroke-dashoffset:183;animation:ERPpUcXH_draw_14 9800ms ease-in-out 0ms infinite,ERPpUcXH_fade 9800ms linear 0ms infinite;}.ERPpUcXH_15{stroke-dasharray:552 554;stroke-dashoffset:553;animation:ERPpUcXH_draw_15 9800ms ease-in-out 0ms infinite,ERPpUcXH_fade 9800ms linear 0ms infinite;}.ERPpUcXH_16{stroke-dasharray:228 230;stroke-dashoffset:229;animation:ERPpUcXH_draw_16 9800ms ease-in-out 0ms infinite,ERPpUcXH_fade 9800ms linear 0ms infinite;}.ERPpUcXH_17{stroke-dasharray:58 60;stroke-dashoffset:59;animation:ERPpUcXH_draw_17 9800ms ease-in-out 0ms infinite,ERPpUcXH_fade 9800ms linear 0ms infinite;}.ERPpUcXH_18{stroke-dasharray:299 301;stroke-dashoffset:300;animation:ERPpUcXH_draw_18 9800ms ease-in-out 0ms infinite,ERPpUcXH_fade 9800ms linear 0ms infinite;}.ERPpUcXH_19{stroke-dasharray:26 28;stroke-dashoffset:27;animation:ERPpUcXH_draw_19 9800ms ease-in-out 0ms infinite,ERPpUcXH_fade 9800ms linear 0ms infinite;}.ERPpUcXH_20{stroke-dasharray:26 28;stroke-dashoffset:27;animation:ERPpUcXH_draw_20 9800ms ease-in-out 0ms infinite,ERPpUcXH_fade 9800ms linear 0ms infinite;}.ERPpUcXH_21{stroke-dasharray:26 28;stroke-dashoffset:27;animation:ERPpUcXH_draw_21 9800ms ease-in-out 0ms infinite,ERPpUcXH_fade 9800ms linear 0ms infinite;}.ERPpUcXH_22{stroke-dasharray:206 208;stroke-dashoffset:207;animation:ERPpUcXH_draw_22 9800ms ease-in-out 0ms infinite,ERPpUcXH_fade 9800ms linear 0ms infinite;}.ERPpUcXH_23{stroke-dasharray:185 187;stroke-dashoffset:186;animation:ERPpUcXH_draw_23 9800ms ease-in-out 0ms infinite,ERPpUcXH_fade 9800ms linear 0ms infinite;}.ERPpUcXH_24{stroke-dasharray:184 186;stroke-dashoffset:185;animation:ERPpUcXH_draw_24 9800ms ease-in-out 0ms infinite,ERPpUcXH_fade 9800ms linear 0ms infinite;}.ERPpUcXH_25{stroke-dasharray:1162 1164;stroke-dashoffset:1163;animation:ERPpUcXH_draw_25 9800ms ease-in-out 0ms infinite,ERPpUcXH_fade 9800ms linear 0ms infinite;}.ERPpUcXH_26{stroke-dasharray:59 61;stroke-dashoffset:60;animation:ERPpUcXH_draw_26 9800ms ease-in-out 0ms infinite,ERPpUcXH_fade 9800ms linear 0ms infinite;}.ERPpUcXH_27{stroke-dasharray:1192 1194;stroke-dashoffset:1193;animation:ERPpUcXH_draw_27 9800ms ease-in-out 0ms infinite,ERPpUcXH_fade 9800ms linear 0ms infinite;}.ERPpUcXH_28{stroke-dasharray:1206 1208;stroke-dashoffset:1207;animation:ERPpUcXH_draw_28 9800ms ease-in-out 0ms infinite,ERPpUcXH_fade 9800ms linear 0ms infinite;}.ERPpUcXH_29{stroke-dasharray:1299 1301;stroke-dashoffset:1300;animation:ERPpUcXH_draw_29 9800ms ease-in-out 0ms infinite,ERPpUcXH_fade 9800ms linear 0ms infinite;}.ERPpUcXH_30{stroke-dasharray:1370 1372;stroke-dashoffset:1371;animation:ERPpUcXH_draw_30 9800ms ease-in-out 0ms infinite,ERPpUcXH_fade 9800ms linear 0ms infinite;}.ERPpUcXH_31{stroke-dasharray:806 808;stroke-dashoffset:807;animation:ERPpUcXH_draw_31 9800ms ease-in-out 0ms infinite,ERPpUcXH_fade 9800ms linear 0ms infinite;}.ERPpUcXH_32{stroke-dasharray:745 747;stroke-dashoffset:746;animation:ERPpUcXH_draw_32 9800ms ease-in-out 0ms infinite,ERPpUcXH_fade 9800ms linear 0ms infinite;}.ERPpUcXH_33{stroke-dasharray:654 656;stroke-dashoffset:655;animation:ERPpUcXH_draw_33 9800ms ease-in-out 0ms infinite,ERPpUcXH_fade 9800ms linear 0ms infinite;}.ERPpUcXH_34{stroke-dasharray:728 730;stroke-dashoffset:729;animation:ERPpUcXH_draw_34 9800ms ease-in-out 0ms infinite,ERPpUcXH_fade 9800ms linear 0ms infinite;}.ERPpUcXH_35{stroke-dasharray:1023 1025;stroke-dashoffset:1024;animation:ERPpUcXH_draw_35 9800ms ease-in-out 0ms infinite,ERPpUcXH_fade 9800ms linear 0ms infinite;}.ERPpUcXH_36{stroke-dasharray:793 795;stroke-dashoffset:794;animation:ERPpUcXH_draw_36 9800ms ease-in-out 0ms infinite,ERPpUcXH_fade 9800ms linear 0ms infinite;}.ERPpUcXH_37{stroke-dasharray:891 893;stroke-dashoffset:892;animation:ERPpUcXH_draw_37 9800ms ease-in-out 0ms infinite,ERPpUcXH_fade 9800ms linear 0ms infinite;}.ERPpUcXH_38{stroke-dasharray:527 529;stroke-dashoffset:528;animation:ERPpUcXH_draw_38 9800ms ease-in-out 0ms infinite,ERPpUcXH_fade 9800ms linear 0ms infinite;}.ERPpUcXH_39{stroke-dasharray:724 726;stroke-dashoffset:725;animation:ERPpUcXH_draw_39 9800ms ease-in-out 0ms infinite,ERPpUcXH_fade 9800ms linear 0ms infinite;}.ERPpUcXH_40{stroke-dasharray:527 529;stroke-dashoffset:528;animation:ERPpUcXH_draw_40 9800ms ease-in-out 0ms infinite,ERPpUcXH_fade 9800ms linear 0ms infinite;}.ERPpUcXH_41{stroke-dasharray:352 354;stroke-dashoffset:353;animation:ERPpUcXH_draw_41 9800ms ease-in-out 0ms infinite,ERPpUcXH_fade 9800ms linear 0ms infinite;}.ERPpUcXH_42{stroke-dasharray:745 747;stroke-dashoffset:746;animation:ERPpUcXH_draw_42 9800ms ease-in-out 0ms infinite,ERPpUcXH_fade 9800ms linear 0ms infinite;}.ERPpUcXH_43{stroke-dasharray:891 893;stroke-dashoffset:892;animation:ERPpUcXH_draw_43 9800ms ease-in-out 0ms infinite,ERPpUcXH_fade 9800ms linear 0ms infinite;}@keyframes ERPpUcXH_draw{100%{stroke-dashoffset:0;}}@keyframes ERPpUcXH_fade{0%{stroke-opacity:1;}89.79591836734694%{stroke-opacity:1;}100%{stroke-opacity:0;}}@keyframes ERPpUcXH_draw_0{8.16326530612245%{stroke-dashoffset: 804}38.775510204081634%{ stroke-dashoffset: 0;}100%{ stroke-dashoffset: 0;}}@keyframes ERPpUcXH_draw_1{8.16326530612245%{stroke-dashoffset: 282}38.775510204081634%{ stroke-dashoffset: 0;}100%{ stroke-dashoffset: 0;}}@keyframes ERPpUcXH_draw_2{8.16326530612245%{stroke-dashoffset: 342}38.775510204081634%{ stroke-dashoffset: 0;}100%{ stroke-dashoffset: 0;}}@keyframes ERPpUcXH_draw_3{8.16326530612245%{stroke-dashoffset: 223}38.775510204081634%{ stroke-dashoffset: 0;}100%{ stroke-dashoffset: 0;}}@keyframes ERPpUcXH_draw_4{8.16326530612245%{stroke-dashoffset: 2452}38.775510204081634%{ stroke-dashoffset: 0;}100%{ stroke-dashoffset: 0;}}@keyframes ERPpUcXH_draw_5{8.16326530612245%{stroke-dashoffset: 36}38.775510204081634%{ stroke-dashoffset: 0;}100%{ stroke-dashoffset: 0;}}@keyframes ERPpUcXH_draw_6{8.16326530612245%{stroke-dashoffset: 35}38.775510204081634%{ stroke-dashoffset: 0;}100%{ stroke-dashoffset: 0;}}@keyframes ERPpUcXH_draw_7{8.16326530612245%{stroke-dashoffset: 199}38.775510204081634%{ stroke-dashoffset: 0;}100%{ stroke-dashoffset: 0;}}@keyframes ERPpUcXH_draw_8{8.16326530612245%{stroke-dashoffset: 199}38.775510204081634%{ stroke-dashoffset: 0;}100%{ stroke-dashoffset: 0;}}@keyframes ERPpUcXH_draw_9{8.16326530612245%{stroke-dashoffset: 198}38.775510204081634%{ stroke-dashoffset: 0;}100%{ stroke-dashoffset: 0;}}@keyframes ERPpUcXH_draw_10{8.16326530612245%{stroke-dashoffset: 35}38.775510204081634%{ stroke-dashoffset: 0;}100%{ stroke-dashoffset: 0;}}@keyframes ERPpUcXH_draw_11{8.16326530612245%{stroke-dashoffset: 35}38.775510204081634%{ stroke-dashoffset: 0;}100%{ stroke-dashoffset: 0;}}@keyframes ERPpUcXH_draw_12{8.16326530612245%{stroke-dashoffset: 199}38.775510204081634%{ stroke-dashoffset: 0;}100%{ stroke-dashoffset: 0;}}@keyframes ERPpUcXH_draw_13{8.16326530612245%{stroke-dashoffset: 7}38.775510204081634%{ stroke-dashoffset: 0;}100%{ stroke-dashoffset: 0;}}@keyframes ERPpUcXH_draw_14{8.16326530612245%{stroke-dashoffset: 183}38.775510204081634%{ stroke-dashoffset: 0;}100%{ stroke-dashoffset: 0;}}@keyframes ERPpUcXH_draw_15{8.16326530612245%{stroke-dashoffset: 553}38.775510204081634%{ stroke-dashoffset: 0;}100%{ stroke-dashoffset: 0;}}@keyframes ERPpUcXH_draw_16{8.16326530612245%{stroke-dashoffset: 229}38.775510204081634%{ stroke-dashoffset: 0;}100%{ stroke-dashoffset: 0;}}@keyframes ERPpUcXH_draw_17{8.16326530612245%{stroke-dashoffset: 59}38.775510204081634%{ stroke-dashoffset: 0;}100%{ stroke-dashoffset: 0;}}@keyframes ERPpUcXH_draw_18{8.16326530612245%{stroke-dashoffset: 300}38.775510204081634%{ stroke-dashoffset: 0;}100%{ stroke-dashoffset: 0;}}@keyframes ERPpUcXH_draw_19{8.16326530612245%{stroke-dashoffset: 27}38.775510204081634%{ stroke-dashoffset: 0;}100%{ stroke-dashoffset: 0;}}@keyframes ERPpUcXH_draw_20{8.16326530612245%{stroke-dashoffset: 27}38.775510204081634%{ stroke-dashoffset: 0;}100%{ stroke-dashoffset: 0;}}@keyframes ERPpUcXH_draw_21{8.16326530612245%{stroke-dashoffset: 27}38.775510204081634%{ stroke-dashoffset: 0;}100%{ stroke-dashoffset: 0;}}@keyframes ERPpUcXH_draw_22{8.16326530612245%{stroke-dashoffset: 207}38.775510204081634%{ stroke-dashoffset: 0;}100%{ stroke-dashoffset: 0;}}@keyframes ERPpUcXH_draw_23{8.16326530612245%{stroke-dashoffset: 186}38.775510204081634%{ stroke-dashoffset: 0;}100%{ stroke-dashoffset: 0;}}@keyframes ERPpUcXH_draw_24{8.16326530612245%{stroke-dashoffset: 185}38.775510204081634%{ stroke-dashoffset: 0;}100%{ stroke-dashoffset: 0;}}@keyframes ERPpUcXH_draw_25{8.16326530612245%{stroke-dashoffset: 1163}38.775510204081634%{ stroke-dashoffset: 0;}100%{ stroke-dashoffset: 0;}}@keyframes ERPpUcXH_draw_26{8.16326530612245%{stroke-dashoffset: 60}38.775510204081634%{ stroke-dashoffset: 0;}100%{ stroke-dashoffset: 0;}}@keyframes ERPpUcXH_draw_27{8.16326530612245%{stroke-dashoffset: 1193}38.775510204081634%{ stroke-dashoffset: 0;}100%{ stroke-dashoffset: 0;}}@keyframes ERPpUcXH_draw_28{8.16326530612245%{stroke-dashoffset: 1207}38.775510204081634%{ stroke-dashoffset: 0;}100%{ stroke-dashoffset: 0;}}@keyframes ERPpUcXH_draw_29{8.16326530612245%{stroke-dashoffset: 1300}38.775510204081634%{ stroke-dashoffset: 0;}100%{ stroke-dashoffset: 0;}}@keyframes ERPpUcXH_draw_30{8.16326530612245%{stroke-dashoffset: 1371}38.775510204081634%{ stroke-dashoffset: 0;}100%{ stroke-dashoffset: 0;}}@keyframes ERPpUcXH_draw_31{8.16326530612245%{stroke-dashoffset: 807}38.775510204081634%{ stroke-dashoffset: 0;}100%{ stroke-dashoffset: 0;}}@keyframes ERPpUcXH_draw_32{8.16326530612245%{stroke-dashoffset: 746}38.775510204081634%{ stroke-dashoffset: 0;}100%{ stroke-dashoffset: 0;}}@keyframes ERPpUcXH_draw_33{8.16326530612245%{stroke-dashoffset: 655}38.775510204081634%{ stroke-dashoffset: 0;}100%{ stroke-dashoffset: 0;}}@keyframes ERPpUcXH_draw_34{8.16326530612245%{stroke-dashoffset: 729}38.775510204081634%{ stroke-dashoffset: 0;}100%{ stroke-dashoffset: 0;}}@keyframes ERPpUcXH_draw_35{8.16326530612245%{stroke-dashoffset: 1024}38.775510204081634%{ stroke-dashoffset: 0;}100%{ stroke-dashoffset: 0;}}@keyframes ERPpUcXH_draw_36{8.16326530612245%{stroke-dashoffset: 794}38.775510204081634%{ stroke-dashoffset: 0;}100%{ stroke-dashoffset: 0;}}@keyframes ERPpUcXH_draw_37{8.16326530612245%{stroke-dashoffset: 892}38.775510204081634%{ stroke-dashoffset: 0;}100%{ stroke-dashoffset: 0;}}@keyframes ERPpUcXH_draw_38{8.16326530612245%{stroke-dashoffset: 528}38.775510204081634%{ stroke-dashoffset: 0;}100%{ stroke-dashoffset: 0;}}@keyframes ERPpUcXH_draw_39{8.16326530612245%{stroke-dashoffset: 725}38.775510204081634%{ stroke-dashoffset: 0;}100%{ stroke-dashoffset: 0;}}@keyframes ERPpUcXH_draw_40{8.16326530612245%{stroke-dashoffset: 528}38.775510204081634%{ stroke-dashoffset: 0;}100%{ stroke-dashoffset: 0;}}@keyframes ERPpUcXH_draw_41{8.16326530612245%{stroke-dashoffset: 353}38.775510204081634%{ stroke-dashoffset: 0;}100%{ stroke-dashoffset: 0;}}@keyframes ERPpUcXH_draw_42{8.16326530612245%{stroke-dashoffset: 746}38.775510204081634%{ stroke-dashoffset: 0;}100%{ stroke-dashoffset: 0;}}@keyframes ERPpUcXH_draw_43{8.16326530612245%{stroke-dashoffset: 892}38.775510204081634%{ stroke-dashoffset: 0;}100%{ stroke-dashoffset: 0;}}</style></svg>