<svg id="Layer_1" data-name="Layer 1" xmlns="http://www.w3.org/2000/svg" viewBox="0 0 2412.67 916.46"><defs><style>.cls-1{fill:#f44336;}.cls-2{fill:#fff;}</style></defs><title>why-c</title><rect class="cls-1" width="2412.67" height="916.46"/><polygon class="cls-2" points="802.33 486.33 751.31 308.31 710.94 308.31 659.92 486.33 625.6 308.31 573.85 308.31 635.33 575.15 682.67 575.15 732.23 388.7 779.57 575.15 826.92 575.15 888.4 308.31 836.65 308.31 802.33 486.33"/><path class="cls-2" d="M1013.2,381.91q-18.16,0-30.19,9-9.45,7.07-16.79,19.69V308.31H915.93V575.15h50.29V460.09q0-14.13,7.61-21.93t21.57-7.8q14.67,0,22.66,7.7t8,21.66V575.15h50.29V459.54q0-37.08-16.52-57.35T1013.2,381.91Z"/><path class="cls-2" d="M1228.84,384.66,1190.62,496l-43.08-111.36h-47.35L1168.33,561l-10.15,29.58q-2.76,8.07-8.17,11.65t-13.49,3.58h-11.19v48.82h11.19q15.24,0,25.61-3.3a39.93,39.93,0,0,0,17.43-10.92q7.07-7.62,11.84-20.65l84.78-235.09Z"/><path class="cls-2" d="M1838.78,358.67c0-4.13.15-8.27-.12-12.39a20.84,20.84,0,0,0-5.85-13.83c-2.48-3.52-6-5.81-9.65-7.87q-59.34-33.09-118.65-66.21c-24.65-13.76-49.27-27.58-74-41.26-8.82-4.89-17.84-4.63-26.71,0-4.34,2.26-8.56,4.73-12.82,7.12q-88.45,49.54-176.89,99.12a65.54,65.54,0,0,0-8.88,5.51c-6.63,5.28-9.15,12.51-9.15,20.8q0,108,0,215.91c0,.58,0,1.16,0,1.74.21,3.73.49,7.44,2.36,10.8A24.83,24.83,0,0,0,1409.62,590q97.37,54.64,194.75,109.27c8.72,4.89,17.58,4.89,26.3,0q97.39-54.6,194.75-109.27a24.18,24.18,0,0,0,9.82-9.41,19.39,19.39,0,0,0,3.41-10.11c.22-4.65.16-9.31.16-14Q1838.81,457.59,1838.78,358.67ZM1744.12,560.8a159.93,159.93,0,0,1-75.9,52.41,155.29,155.29,0,0,1-69.93,6.87c-54.37-7.27-95.19-35-123-82.16-.21-.35-.44-.68-.67-1a175.67,175.67,0,0,1-12.25-28.52,163.64,163.64,0,0,1-7.72-43.88c-1-27.74,4.34-54.17,17-78.86,22.05-43.05,56.51-71.35,103.06-84.69a149.7,149.7,0,0,1,44.89-5.7q70,1.63,118,52.72a154.15,154.15,0,0,1,19.3,25.63,15.18,15.18,0,0,1,.82,1.89l-68.75,39.27c-.59.34-1.24.6-1.87.9l-1.06-1.61a81.5,81.5,0,0,0-148.74,58.34,75.63,75.63,0,0,0,8.32,24c.25.52.47,1.06.75,1.56a79.25,79.25,0,0,0,21.4,24.81c19.76,14.95,41.92,20.1,66.21,15.36a78.92,78.92,0,0,0,40.93-21.93A72.79,72.79,0,0,0,1687.47,500a6.12,6.12,0,0,1,1.74.37q34.32,18.84,68.6,37.74a6.6,6.6,0,0,1,1.26,1.27C1754.11,546.51,1749.58,554,1744.12,560.8ZM1613,457.91c.58.41,1.15.85,1.73,1.26-.58-.41-1.15-.85-1.73-1.26Z"/></svg>