<svg id="Layer_1" data-name="Layer 1" xmlns="http://www.w3.org/2000/svg" viewBox="0 0 1764.06 1266.07"><defs><style>.cls-1{fill:#582841;}.cls-2{fill:#fff;}</style></defs><title>cea-708</title><rect class="cls-1" width="1764.06" height="1266.07"/><path class="cls-2" d="M940,331.46l-.1-193.17-310.47.15.28,614.79V958.9a37,37,0,0,0,36.88,36.88h0a37,37,0,0,0,36.89-36.88V778.55a25.37,25.37,0,0,1,25.35-25.37h0A23.07,23.07,0,0,1,752,776.25v314.64a37,37,0,0,0,36.88,36.89h0a37,37,0,0,0,36.89-36.89V767.14a14,14,0,0,1,14-14h0a14,14,0,0,1,14,14v8.8a37,37,0,0,0,36.89,36.89h0a37,37,0,0,0,36.88-36.89V765.68a12.6,12.6,0,0,1,25.19,0V902.85a37,37,0,0,0,36.88,36.88h0a37,37,0,0,0,36.89-36.88V769.55A16.51,16.51,0,0,1,1043,753h0a16.51,16.51,0,0,1,16.51,16.51v57.34a36.89,36.89,0,1,0,73.77,0V753h.16l-.2-421.64Zm84,58.7a25,25,0,0,1,20.15,0c.42.2.79.44,1.18.67a15.52,15.52,0,0,1,5.53,5.29,16.53,16.53,0,0,1,2.38,8.91v1.69a13,13,0,0,1-2.35,7.45,15.29,15.29,0,0,1-6.23,5.27,17.86,17.86,0,0,1,7.21,6.47,16.68,16.68,0,0,1,2.71,9.1v1.07a18.31,18.31,0,0,1-1.37,7.18,16.3,16.3,0,0,1-8.35,8.56,27.31,27.31,0,0,1-21.57,0,16.72,16.72,0,0,1-7.18-6.29,15.53,15.53,0,0,1-1.16-2.26,18.18,18.18,0,0,1-1.38-7.19V435a16.92,16.92,0,0,1,2.67-9.12,17.16,17.16,0,0,1,7.12-6.45,15.26,15.26,0,0,1-6.14-5.33,13.13,13.13,0,0,1-2.31-7.39V405a16.53,16.53,0,0,1,2.38-8.91,15.6,15.6,0,0,1,5.51-5.28C1023.23,390.61,1023.61,390.36,1024,390.16Zm-40.67-2.25c4.93,0,8.93,1,12,2.94a14.64,14.64,0,0,1,2.4,1.86q4.93,4.82,4.94,13.57v29.39a22.39,22.39,0,0,1-1.2,7.61,15.2,15.2,0,0,1-3.76,5.94q-5,4.81-14.39,4.82T969,449.17a15.57,15.57,0,0,1-3.72-5.87,22.34,22.34,0,0,1-1.21-7.63V406.28q0-8.71,5-13.54a14.3,14.3,0,0,1,2.41-1.88C974.48,388.9,978.46,387.91,983.36,387.91Zm-67,.8h37v8.1l-11.91,46.5-2.58,10.06H925.64l2.67-10.06,11.38-42.86H928.57v9.74H916.39V388.71Zm-38.34,35.62h31.67v11.75H878.05Zm-38.24-35.62h7.73l.84,2.2,20,52.43,3.84,10H859.15l-3.51-10-.12-.34H831.83l-.12.35-3.51,10H815.08l3.83-10L839,390.92Zm-72.94,0h43.32v11.74H779.06V415.4h26.23v11.74H779.06v14.49h31.13v11.74H766.87V388.71ZM720,390.89A26.13,26.13,0,0,1,732.58,388a22.39,22.39,0,0,1,10.9,2.63l.48.28a21.65,21.65,0,0,1,7.46,7.35,32.86,32.86,0,0,1,4.33,12.07H743.12a16.24,16.24,0,0,0-2.2-5.47,10.52,10.52,0,0,0-3.6-3.47,9.43,9.43,0,0,0-4.74-1.2,11.4,11.4,0,0,0-5.82,1.4,9,9,0,0,0-3.67,4.09,15,15,0,0,0-1.27,6.47v17.75a14.87,14.87,0,0,0,1.27,6.45,9,9,0,0,0,3.67,4.07,11.4,11.4,0,0,0,5.82,1.4,9.81,9.81,0,0,0,4.8-1.18,10.15,10.15,0,0,0,3.61-3.45,15.86,15.86,0,0,0,2.13-5.51h12.63a33.68,33.68,0,0,1-4.16,11.67c-.08.13-.14.27-.22.4a21.48,21.48,0,0,1-7.92,7.63A22.19,22.19,0,0,1,732.58,454H725.2L720,451.22a18.81,18.81,0,0,1-7.77-7.81c-.08-.14-.16-.28-.23-.42a28.39,28.39,0,0,1-2.76-13.05V412.19A28.39,28.39,0,0,1,712,399.14a18.93,18.93,0,0,1,7.88-8.18ZM703.5,556l0-52.44,356-.16,0,52.44Zm0,112.55,0-52.43,356-.15,0,52.44Z"/><path class="cls-2" d="M983.36,442.3a6.15,6.15,0,0,0,5.43-2.51q1.73-2.52,1.73-7.23V409.39q0-4.71-1.73-7.23a7.12,7.12,0,0,0-10.85,0q-1.74,2.52-1.74,7.23v23.17q0,4.71,1.74,7.23A6.13,6.13,0,0,0,983.36,442.3Z"/><polygon class="cls-2" points="843.67 409.21 835.94 431.27 851.4 431.27 843.67 409.21"/><path class="cls-2" d="M1030.44,413.64a7.84,7.84,0,0,0,7.33,0,6.22,6.22,0,0,0,2.45-2.58,8.19,8.19,0,0,0,.87-3.85v-.62a7.14,7.14,0,0,0-.87-3.58,6,6,0,0,0-2.45-2.38,8.42,8.42,0,0,0-7.33,0A5.9,5.9,0,0,0,1028,403a7.27,7.27,0,0,0-.87,3.6v.67a8,8,0,0,0,.87,3.78A6.23,6.23,0,0,0,1030.44,413.64Z"/><path class="cls-2" d="M1029.77,441.32a9.19,9.19,0,0,0,4.34,1,9.07,9.07,0,0,0,4.33-1,7.26,7.26,0,0,0,2.94-2.82,8.34,8.34,0,0,0,1-4.18v-.63a6.8,6.8,0,0,0-4-6.38,10.88,10.88,0,0,0-8.71,0,7,7,0,0,0-2.92,2.58,7.16,7.16,0,0,0-1,3.85v.67a8.17,8.17,0,0,0,1,4.15A7.1,7.1,0,0,0,1029.77,441.32Z"/><polygon class="cls-2" points="983.94 139.36 982.63 291.32 1134.59 292.62 983.94 139.36"/></svg>