<svg id="Layer_1" data-name="Layer 1" xmlns="http://www.w3.org/2000/svg" viewBox="0 0 1764.06 1266.07"><defs><style>.cls-1{fill:#582841;}.cls-2{fill:#fff;}</style></defs><title>changelog</title><rect class="cls-1" width="1764.06" height="1266.07"/><path class="cls-2" d="M753.14,245.09,545.41,202.73,461.53,614.1l337,68.7L856,400.69,726.79,374.34Zm7.53,371L522.48,567.53l7.15-35.09L767.82,581ZM776,540.77,537.84,492.21,545,457.12l238.19,48.57Zm22.52-110.4-7.16,35.09L553.19,416.89l7.16-35.09Z"/><polygon class="cls-2" points="780.71 250.71 759.97 352.39 861.66 373.13 780.71 250.71"/><path class="cls-2" d="M1165.84,534.34,904.18,481,798.54,999.13,1223,1085.68l72.45-355.35-162.79-33.19Zm9.48,467.31-300-61.18,9-44.19,300,61.17Zm19.34-94.87-300-61.17,9-44.2,300,61.17ZM1223,767.72l-9,44.19L914,750.74l9-44.2Z"/><polygon class="cls-2" points="1200.56 541.42 1174.44 669.5 1302.52 695.61 1200.56 541.42"/><path class="cls-2" d="M670.81,951.71c-11.87-9.07-10.75-18.12,3.05-24.55,14.19-6.61,28.39-13.2,44.22-20.55-10.86-3.35-20.08-6-29.16-9-46.23-15.44-88.17-38.11-121.71-74.21q-58.9-63.4-60.7-150.18c-.06-3,.05-6,.24-9,.53-8.39,5.22-13.33,12.3-13.06s10.92,5.88,11.45,14c1.07,16.17,1.26,32.64,4.73,48.35C549.24,776.93,588,821.64,644,852.53c24,13.24,49.58,22.47,76,29.61a46.58,46.58,0,0,0,4.83.6L707.19,843.9c-1.13-2.5-2.28-5-3.33-7.54-3.14-7.66-1-14.18,5.63-17,6.37-2.74,12.42-.23,15.84,7.11,6.54,14,12.82,28.22,19.22,42.34,4.33,9.56,8.71,19.11,13,28.69,4.76,10.61,2.72,15.86-8,20.87l-71.22,33.36Z"/><path class="cls-2" d="M950.82,180.39c11.87,9.07,10.76,18.12-3.05,24.55-14.19,6.61-28.39,13.2-44.22,20.55,10.86,3.35,20.08,6,29.17,9,46.22,15.44,88.16,38.11,121.7,74.21q58.9,63.4,60.7,150.18c.06,3,0,6-.23,9-.54,8.39-5.23,13.33-12.31,13.06s-10.92-5.88-11.45-14c-1.07-16.17-1.26-32.64-4.73-48.35-14-63.46-52.74-108.17-108.74-139.06-24-13.24-49.58-22.47-76-29.6a43.27,43.27,0,0,0-4.83-.61c6.14,13.57,11.87,26.2,17.58,38.84,1.13,2.5,2.28,5,3.33,7.54,3.14,7.66,1,14.18-5.63,17-6.37,2.74-12.42.23-15.84-7.11-6.54-14-12.82-28.22-19.21-42.34-4.34-9.56-8.71-19.1-13-28.69-4.76-10.61-2.72-15.86,8-20.87l71.22-33.36Z"/></svg>