<svg id="Layer_1" data-name="Layer 1" xmlns="http://www.w3.org/2000/svg" viewBox="0 0 1764.06 1266.07"><defs><style>.cls-1{fill:#582841;}.cls-2{fill:#fff;}</style></defs><title>chat</title><rect class="cls-1" width="1764.06" height="1266.07"/><path class="cls-2" d="M913.36,138.14c-219.8-12.31-456.56,133.57-489.6,362.13-14,96.66-.1,192.48,44.32,273.13,0,0,91.2,268.66,574.16,355.26,0,0-114-39.74-146.72-144.08C1038.94,976.54,1180.84,912,1267,796c52.42-70.62,78.2-155.44,78.56-240.28C1346.51,321.24,1136.77,150.64,913.36,138.14Zm-78.6,203.1q-19.63,0-30.3,10.43t-10.67,29.57v96.48q0,41.7-25.81,59.75c-.47.33-1,.63-1.45.95.48.33,1,.65,1.45,1q25.82,18.8,25.81,61.94v93.32q0,19.4,10.67,29.82t30.3,10.42v55.51q-47.76,0-73.93-24.12t-26.18-68.23V607.16q0-18.66-11.76-29.08T689.8,567.65V508.5q21.33,0,33.09-10.42T734.65,469V378.33q0-44.11,26.18-68.36t73.93-24.24Zm239.5,177v51.88q-21.33,0-33.09,10.42t-11.76,29.09v88.48q0,44.11-26.18,68.23T929.3,790.42V734.91q19.63,0,30.3-10.42t10.67-29.82V601.35q0-43.41,24.74-62.89-24.72-18.78-24.74-60.74V381.24q0-19.14-10.67-29.57t-30.3-10.43V285.73q47.75,0,73.93,24.24t26.18,68.36v88.24q0,18.66,11.76,29.09t33.09,10.42Z"/></svg>