<svg id="Layer_1" data-name="Layer 1" xmlns="http://www.w3.org/2000/svg" viewBox="0 0 1764.06 1266.07"><defs><style>.cls-1{fill:#582841;}.cls-2{fill:#fff;}.cls-3{fill:none;}</style></defs><title>commandline</title><rect class="cls-1" width="1764.06" height="1266.07"/><path class="cls-2" d="M333.74,469.94l92.45,58.55H369.6l-35.86-16.43Zm35.86,58.55h56.59l-92.45,58.67V546.09Z"/><path class="cls-2" d="M547.72,615.33v34.42H434V615.33Z"/><rect class="cls-3" x="259.31" y="395.82" width="1245.44" height="601.96" rx="18.49"/><path class="cls-2" d="M1504,250.54h-1244A18.49,18.49,0,0,0,241.56,269V997a18.49,18.49,0,0,0,18.49,18.49H1504A18.49,18.49,0,0,0,1522.5,997V269A18.49,18.49,0,0,0,1504,250.54Zm-73.07,36.35a36.75,36.75,0,1,1-36.75,36.74A36.74,36.74,0,0,1,1430.94,286.89Zm-125,0a36.75,36.75,0,1,1-36.75,36.74A36.74,36.74,0,0,1,1305.94,286.89Zm-125,0a36.75,36.75,0,1,1-36.75,36.74A36.74,36.74,0,0,1,1180.94,286.89Zm323.81,692.4a18.49,18.49,0,0,1-18.49,18.49H277.8a18.49,18.49,0,0,1-18.49-18.49v-565a18.48,18.48,0,0,1,18.49-18.48H1486.26a18.48,18.48,0,0,1,18.49,18.48Z"/></svg>