<svg id="Layer_1" data-name="Layer 1" xmlns="http://www.w3.org/2000/svg" viewBox="0 0 1764.06 1266.07"><defs><style>.cls-1{fill:#582841;}.cls-2{fill:#fff;}</style></defs><title>donate</title><rect class="cls-1" width="1764.06" height="1266.07"/><path class="cls-2" d="M828.45,365.69c-144.43,0-261.52,117.09-261.52,261.52S684,888.74,828.45,888.74,1090,771.65,1090,627.21,972.89,365.69,828.45,365.69Zm66.09,300.49q0,18-7.83,30.81t-22.79,19.54a70.48,70.48,0,0,1-14.43,4.64v23.06H814V723l-12.36-3a112.2,112.2,0,0,1-24.14-8.67Q766.9,705.92,762.37,700l16.44-29.25a72.26,72.26,0,0,0,22.72,13.78A73.69,73.69,0,0,0,828,689.35q14.88,0,23.11-5.89t8.22-16.64v-.13q0-7.5-3.69-11.9a21.49,21.49,0,0,0-9.52-6.48,99.79,99.79,0,0,0-14.88-3.75,1.27,1.27,0,0,0-.58-.13,1.25,1.25,0,0,1-.59-.13,5.17,5.17,0,0,0-.84-.19,5.09,5.09,0,0,0-.84-.07q-18.25-3.36-29.58-7.64t-19.42-15.46q-8.08-11.21-8.09-31.91v-.13q0-18.25,7.58-31.2A48.9,48.9,0,0,1,800.82,538a65.28,65.28,0,0,1,13.2-4.52V510.19h35.47v22.28c1.61.29,3.23.63,4.85,1a97,97,0,0,1,18.9,6.74,102.37,102.37,0,0,1,17.54,10.61l-15,30a79.5,79.5,0,0,0-20.13-11.71,55.12,55.12,0,0,0-20.13-4.08q-13.72,0-21.36,5.37t-7.64,15.08v.13q0,8.42,4.21,13.21a24.46,24.46,0,0,0,10.49,7,150.28,150.28,0,0,0,17.15,4.53.65.65,0,0,1,.26.06.58.58,0,0,0,.26.06l1.29.26,1.29.26a139.51,139.51,0,0,1,27.38,8.61,43.68,43.68,0,0,1,18.32,16.05q7.38,11.07,7.38,30.23Z"/><circle class="cls-2" cx="476.77" cy="242.19" r="37.36"/><circle class="cls-2" cx="929.77" cy="200.16" r="53.71"/><circle class="cls-2" cx="1156.27" cy="482.7" r="11.68"/><circle class="cls-2" cx="1291.83" cy="720.75" r="93.53"/><circle class="cls-2" cx="1070.58" cy="878.04" r="19.4"/><circle class="cls-2" cx="1144.59" cy="767.58" r="23.35"/><circle class="cls-2" cx="1216.98" cy="555.09" r="18.68"/><circle class="cls-2" cx="1228.65" cy="377.63" r="46.7"/><circle class="cls-2" cx="1105.61" cy="332.55" r="15.63"/><circle class="cls-2" cx="1038.35" cy="357.78" r="40.86"/><circle class="cls-2" cx="721.95" cy="228.18" r="88.73"/><circle class="cls-2" cx="597.28" cy="347.27" r="30.36"/><circle class="cls-2" cx="594.69" cy="262.04" r="19.85"/><circle class="cls-2" cx="476.77" cy="455.85" r="98.07"/><circle class="cls-2" cx="495.45" cy="660.17" r="18.68"/><circle class="cls-2" cx="472.81" cy="814.86" r="94.12"/><circle class="cls-2" cx="677.58" cy="931.03" r="44.37"/><circle class="cls-2" cx="924.64" cy="1052.91" r="96.19"/><circle class="cls-2" cx="978.48" cy="889.98" r="19"/><circle class="cls-2" cx="1164.93" cy="869.64" r="20.33"/><circle class="cls-2" cx="573.22" cy="933.05" r="24.07"/><circle class="cls-2" cx="779.16" cy="988.63" r="31.52"/></svg>