<?xml version="1.0" encoding="utf-8"?>
<!-- Generator: Adobe Illustrator 23.0.0, SVG Export Plug-In . SVG Version: 6.00 Build 0)  -->
<svg version="1.1" id="Layer_1" xmlns="http://www.w3.org/2000/svg" xmlns:xlink="http://www.w3.org/1999/xlink" x="0px" y="0px"
	 viewBox="0 0 1764.1 1266.1" style="enable-background:new 0 0 1764.1 1266.1;" xml:space="preserve">
<style type="text/css">
	.st0{fill:#582841;}
	.st1{fill:#FFFFFF;}
</style>
<title>download</title>
<rect class="st0" width="1764.1" height="1266.1"/>
<path class="st1" d="M882.1,937.3c-94.7,0-189.5,0-284.2,0c-32.3,0-45.9-13.8-45.9-46.4c0-36.9,0-73.9,0-110.8
	c0-31,14.3-45.6,44.9-45.6c56.4-0.1,112.9-0.2,169.3,0.2c4.8,0,10.6,2.6,14.1,5.9c15.1,14.3,29.5,29.5,44.3,44.2
	c34.8,34.5,79.7,34.7,114.7,0.2c15.1-14.9,29.8-30.2,45.2-44.8c3.6-3.3,8.3-5.3,13.3-5.6c57.1-0.4,114.2-0.4,171.4-0.2
	c28.2,0.1,42.9,15.1,43,43.4c0.1,39,0.1,78,0,117c-0.1,27.7-14.9,42.4-42.6,42.4C1073.6,937.4,977.8,937.4,882.1,937.3z M1059.2,861
	c-0.2-13.3-11.6-24.7-24.8-24.7c-13.5-0.1-25.4,11.9-25.2,25.5c0.2,13.8,11.6,24.8,25.4,24.6C1048.4,886.2,1059.4,874.8,1059.2,861
	L1059.2,861L1059.2,861z M1135.7,886.4c13.1,0,24.9-11.4,25.4-24.5s-11.8-25.7-25.2-25.7s-25.6,12.3-25.3,25.5
	S1122.5,886.4,1135.7,886.4L1135.7,886.4z"/>
<path class="st1" d="M805.9,531.7v-12.6c0-53,0-106.1,0-159.1c0-21.8,9.5-31.2,31.3-31.2c30.1-0.1,60.2-0.1,90.3,0
	c21,0.1,30.5,9.7,30.5,31c0.1,53,0.1,106.1,0,159.1v12.3c4.2,0.2,7.8,0.5,11.5,0.5c27,0,54,0,81.1,0c3.8,0,7.5,0.2,11.3,0.3
	c10.4,0.4,17.1,6.2,21,15.4c4.2,9.7,2.8,18.7-4.7,26.4c-4.3,4.4-8.6,8.8-13,13.2c-53.2,53.2-106.4,106.4-159.7,159.6
	c-17.5,17.5-29.5,17.5-46.9,0.2c-56.1-56.1-112.3-112.2-168.4-168.3c-7.2-7.2-13.5-14.7-10.8-26c3.2-13.8,11.8-20.6,27.6-20.8
	c29.1-0.3,58.2-0.1,87.2-0.1L805.9,531.7z"/>
</svg>
