<svg id="Layer_1" data-name="Layer 1" xmlns="http://www.w3.org/2000/svg" viewBox="0 0 1764.06 1266.07"><defs><style>.cls-1{fill:#582841;}.cls-2{fill:#fff;}</style></defs><title>externalprojects</title><rect class="cls-1" width="1764.06" height="1266.07"/><polygon class="cls-2" points="535.41 211.02 1090.62 211.02 1090.62 160.55 479.33 160.55 479.33 1105.52 1090.62 1105.52 1090.62 1055.05 535.41 1055.05 535.41 211.02"/><path class="cls-2" d="M743.1,770.45H665.8v213.1H935.31V797.61H780.71ZM775.56,929v-86.6l75,43.3Z"/><path class="cls-2" d="M940.75,476.86H840.56V753.07h349.32v-241H989.5Zm36.82,199.48V589.73l75,43.3Z"/><path class="cls-2" d="M800.56,576.82H691.08l-26.62-19.23H609.72V708.48H800.56ZM680.14,676.88V614.1l54.36,31.39Z"/><path class="cls-2" d="M800.56,485.44H751.73l-11.88-8.58H715.43v67.31h85.13ZM748,526.68V502.36L769,514.52Z"/><path class="cls-2" d="M1130.13,301.87l-37.61-27.16h-77.3v213.1h269.51V301.87ZM1125,440.56V354l75,43.3Z"/><path class="cls-2" d="M922.66,332.89H828.47l-22.91-16.55H758.47V446.17H922.66ZM812.44,420.64V357.87l54.36,31.39Z"/></svg>