<svg id="Layer_1" data-name="Layer 1" xmlns="http://www.w3.org/2000/svg" viewBox="0 0 1764.06 1266.07"><defs><style>.cls-1{fill:#582841;}.cls-2{fill:#fff;}</style></defs><title>extract_burned</title><rect class="cls-1" width="1764.06" height="1266.07"/><path class="cls-2" d="M436.24,412.86c-115.25,0-208.67,93.43-208.67,208.67S321,830.2,436.24,830.2s208.67-93.42,208.67-208.67S551.48,412.86,436.24,412.86Zm0,278.75a70.08,70.08,0,1,1,70.07-70.08A70.08,70.08,0,0,1,436.24,691.61Z"/><path class="cls-2" d="M741,633.87V609.32H986.49L934.15,557l17.23-17.61,82.15,82.15L951.35,703.7l-17-17.35,52.2-52.2-.13-.28Z"/><path class="cls-2" d="M1383.72,380.23l-243.65.12.22,482.49,395.26-.18-.15-330.9-151.6.07Zm93.85,416-279.36.12,0-41.15,279.36-.12Zm0-88.34-279.36.13,0-41.16,279.36-.13Zm-.07-129.49,0,41.15-279.37.12,0-41.15Z"/><polygon class="cls-2" points="1418.26 381.07 1417.23 500.33 1536.49 501.35 1418.26 381.07"/></svg>