<svg id="Layer_1" data-name="Layer 1" xmlns="http://www.w3.org/2000/svg" viewBox="0 0 1764.06 1266.07"><defs><style>.cls-1{fill:#582841;}.cls-2{fill:#fff;}</style></defs><title>hdhomerun</title><rect class="cls-1" width="1764.06" height="1266.07"/><path class="cls-2" d="M1164.73,544.35c-11.13-61-36.91-112.8-76.62-154-59-61.27-129.47-91.25-209.27-89.13-32.49.86-61,5-87.27,12.55A291.83,291.83,0,0,0,626.83,437.45C589.27,496.24,574,565,583.71,631.09c13.21,89.49,57.16,159.7,130.64,208.68,47.71,31.81,101.16,48.07,158.87,48.33h0c54.69-.09,103.88-13.26,150.4-40.28,51.47-29.9,92.24-74.58,117.89-129.19C1167.46,663.45,1175.48,603.19,1164.73,544.35Zm-335,246.15c-11.22-.86-19.58,5.58-20.77,16.07-1.11,9.84,5.29,17.86,15.93,20,6.61,1.31,13.66,2.45,22.07,3.56-.51,4.15-.78,8.27-1,12.29l-.18,2.8c-.25,0-.55.07-.92.1-29,2.5-57.72-5.36-93.05-25.49-66.67-38-109.15-93.81-126.26-165.92-1.66-7-1.3-14.82-.91-23.09.08-1.92.18-3.87.24-5.83,3-.46,6-.79,9.13-1.14,2-.22,4.06-.44,6.13-.7.8,5.48,1.76,10.94,2.7,16.25l.57,3.21c.66,3.76,2.66,15.19,14.06,17.18a23.65,23.65,0,0,0,15.79-3c9.46-6,7.56-16.82,6.85-20.92-1-5.92-2-11.81-3.06-18l-.21-1.31,14.11-3.65,5.8,16.31c.22.62.42,1.24.63,1.87a43.69,43.69,0,0,0,2,5.41c4.27,9,13.66,13.08,22.85,10A18,18,0,0,0,733.91,624c-1.61-5.62-3.52-11.14-5.37-16.49-.83-2.39-1.66-4.79-2.46-7.2,4.63-2.11,9.06-4.13,13.51-6,2.15,3.58,4.23,7.31,6.25,10.94q1.68,3,3.39,6c3.83,6.71,8.47,10.85,13.81,12.31a17.19,17.19,0,0,0,13.26-2c7.78-4.46,13.26-14.27,5.32-28.42l-8.79-15.72-.74-1.34,13.12-8.79,1.21,1.44c4.25,5,8.26,9.8,12.49,14.59,8,9.11,18.94,10.58,27.14,3.66s8.6-18.12,1.14-27.39c-4-4.9-7.92-9.71-11.76-14.35-.11-.15-.23-.29-.35-.44L825.9,534l.34.28c4.73,3.91,9.63,8,14.66,12,9.2,7.4,20.75,6.73,27.47-1.61,6.48-8,5-19-3.62-26.56-4.8-4.23-9.61-8.28-14.7-12.56l-1.62-1.37L857.17,491l1.55.87c6,3.39,12,6.73,18,10,7.91,4.4,16.13,3.69,21.45-1.86,3.57-3.72,6.9-10.2,6.29-16.29s-5.66-11.4-9.8-14.1c-5.77-3.76-11.61-7-17.79-10.42l-1.4-.77,5.86-13.44c3.09,1,6.13,2,9.15,3,1.7.57,3.38,1.18,5.06,1.79,2.28.82,4.63,1.67,7,2.44,10.94,3.51,21.11-.8,24.73-10.48a17.88,17.88,0,0,0-.31-14c-2.19-4.76-6.4-8.41-12.18-10.54-4.38-1.62-8.82-3.16-13.12-4.65-2.54-.88-5.07-1.76-7.6-2.66l4-14.11,1.47.25c6.32,1.08,12.28,2.1,18.4,3.08,12.83,2.07,19-4.29,21.91-10,3.87-7.58,2.28-15.94-4-21.28-3.9-3.29-9-4.71-13-5.58-5.67-1.23-11.38-2-16.91-2.73l-.79-.1a100.08,100.08,0,0,0,2-16.15l.66-.08c37.51-4.25,70.13,11.25,94.36,25.23,63.85,36.83,105.32,93.24,123.26,167.64,1.5,6.25,1.17,13.31.82,20.79-.09,1.83-.18,3.7-.24,5.58-4.4.66-9.58,1.33-14.91,1.7-.65-3.29-1.17-6.62-1.72-10.12s-1.15-7.37-1.91-11.1c-2-10-10.5-16.34-20.12-15.09-10,1.3-16.52,9.35-15.8,19.57a203.75,203.75,0,0,0,3.09,23.51c-5.37,1.3-10.36,2.67-15.13,4.18-2.49-7.35-4.7-13.69-7-20.05-4.18-11.35-13.92-16.52-24.21-12.88s-14.45,13.73-10.7,25.21c2.08,6.36,4.43,13.52,7,20.48-4.45,1.88-8.77,3.88-13.32,6l-.21.1-.53-.92c-2.87-5.08-5.68-10-8.51-15-9.89-17.23-21.2-14.54-27.06-11.39A17.36,17.36,0,0,0,966,577.3c-1.61,5.49-.42,11.87,3.54,19q2.66,4.77,5.32,9.52,1.86,3.32,3.71,6.63l-13.08,8.85-8.86-10.38c-.61-.72-1.21-1.45-1.81-2.19-1.32-1.62-2.69-3.3-4.27-4.94-7.23-7.5-18-8.47-25.54-2.32-8.06,6.54-9.09,17.88-2.41,26.37C926.75,633,931,638.12,935.07,643l.58.7-11,10.75c-4.32-3.59-9.22-7.65-14.12-11.6-9.7-7.82-20.91-7.47-27.9.87s-5.41,19.27,4.22,27.6c4.69,4.07,9.34,8,14.27,12.12l1.32,1.11-8.75,13.13-1.56-.88c-5.73-3.22-11.13-6.26-16.65-9.31-10.89-6-21.59-3.83-27.25,5.59a17.29,17.29,0,0,0-2.16,13.44c1.35,5.23,5.15,9.78,11,13.17,5.51,3.19,11,6.29,16.77,9.56l1.8,1c-2,4.67-4,9.13-6.07,13.4-4.15-1.26-8.25-2.71-12.56-4.22-2.59-.91-5.26-1.85-7.93-2.74-12.05-4-22.17.13-25.79,10.58s1.71,20,13.6,24.37c7.92,2.88,14.55,5.22,20.64,7.26-1.39,4.78-2.64,9.8-3.75,15l-3.24-.55C843.8,792.24,836.83,791.05,829.74,790.5ZM868.1,353.18l-.89-.15c-6.32-1-12.29-2-18.23-3.11A21.18,21.18,0,0,0,833,353a17.77,17.77,0,0,0-7.38,11.53,18.28,18.28,0,0,0,3,13.79,20.72,20.72,0,0,0,13.69,8.28c5.92,1,11.88,2,18.2,3l.69.11-2.18,8-.94-.32c-6.34-2.16-12.33-4.21-18.48-6.14A19.1,19.1,0,0,0,820,396a16.86,16.86,0,0,0-3.93,17.53c2.13,6.21,8.32,10.92,13,13.06a158,158,0,0,0,17.09,6.35L843,440.07c-5.53-3.17-10.75-6.16-16.35-8.75-4.56-2.12-11.45-3.65-17.07-1.62s-10.94,8.87-11.41,14.83c-.44,5.68,2.75,12.81,7.41,16.58a78.82,78.82,0,0,0,12.89,8c1.74.93,3.38,1.81,5,2.73l1.4.82-5,7.57L808.55,471c-.47-.39-.92-.79-1.38-1.18-1-.88-2.13-1.86-3.42-2.79-9-6.44-19.45-5.56-26,2.2-7.05,8.3-5.92,19,2.83,26.75,4.15,3.66,8.45,7.19,12.61,10.61l3.09,2.53-6.24,5.8c-3.9-4.72-7.94-9.59-12-14.34-6.71-7.9-14.2-10.3-22.29-7.12a18.55,18.55,0,0,0-11.35,12.13,19,19,0,0,0,3.46,16.62c4,5.29,8.18,10.28,12.62,15.57.25.3.5.59.74.89l-7.43,5-.24-.44c-3.22-5.69-6.25-11.07-9.47-16.43-5.24-8.74-13.26-12.09-22-9.2A18.25,18.25,0,0,0,710.52,528c-2.12,5.17-1.69,11.1,1.19,16.7,2.1,4.07,4.38,8,6.58,11.9,1,1.72,2,3.45,3,5.18l-7.3,3.35,0-.11c-2.13-6.11-4.14-11.88-6.28-17.71-3.11-8.5-9.44-13.17-17.82-13.17h0c-8.42,0-14.89,4.66-17.3,12.41a21.61,21.61,0,0,0,.14,12.31c1.82,6.06,3.85,12,6,18.28l-7.92,2.06c-1-5.78-1.95-11.25-2.83-16.73-1.05-6.55-4.1-11.9-8.6-15.08a17.72,17.72,0,0,0-13.73-2.87,17.37,17.37,0,0,0-12.41,9,22.9,22.9,0,0,0-1.94,15.07c1,5.46,1.86,11,2.77,16.83,0,.21.07.42.1.63l-8.23,1.11c0-.13,0-.26,0-.38a114.22,114.22,0,0,0-.21-16.3,48.61,48.61,0,0,0-2.61-10.3c-.58-1.7-1.12-3.3-1.49-4.83a12.3,12.3,0,0,1-.55-4.21c18.26-102.9,98.77-186.31,200.36-207.55,4-.83,8.13-1.53,12.14-2.2l1.33-.22.46-.08c8.73,4.54,17.58,4.08,25.44,3.67,2.93-.15,5.72-.29,8.37-.18Zm47.76,495.07c-5.53-3.78-11.35-4.59-16.71-4.59-2.12,0-4.17.13-6.1.25A47.75,47.75,0,0,1,885,844a14.76,14.76,0,0,0-2.36-.07c.14-1.15.32-2.35.51-3.58.23-1.48.46-3,.64-4.54l5,.79c4.15.66,8.44,1.34,12.58,2.11,6.2,1.14,12.09,0,16.59-3.14a17.7,17.7,0,0,0,7.3-11.78A18.08,18.08,0,0,0,922,810c-3.19-4.33-8.37-7.19-14.57-8.06l-7-1-10-1.41c.75-2.75,1.47-5.53,2.2-8.4l.43.15c5.64,1.94,11,3.77,16.31,5.57,11.18,3.75,21.53-.64,25.18-10.68S933,766,921.7,761.82c-5.41-2-10.82-3.84-16.54-5.8l-.26-.09,3.17-7.28,15.1,8.36c10.77,6,22,3.63,27.36-5.66,4.41-7.68,4.4-18.65-8.88-26.4-4.91-2.87-9.83-5.66-15-8.62-.15-.09-.3-.18-.46-.26l4.91-7.49A175,175,0,0,0,946.63,721c4.36,3,12,5.37,18.33,3.65a16.66,16.66,0,0,0,12.09-12.06c1.68-6.74-.8-14.23-6.49-19.55-2.42-2.27-4.95-4.32-7.4-6.29-1.21-1-2.43-2-3.62-3-1.73-1.46-3.46-2.92-5.3-4.5l6.19-6c3.63,4.35,7.07,8.47,10.54,12.56l.7.83a37.31,37.31,0,0,0,5.66,5.78c7.38,5.72,16.12,5.5,23.37-.6a18,18,0,0,0,2.75-24.65c-4.2-5.54-8.58-10.81-13.21-16.39l-.81-1,7.44-5a1.71,1.71,0,0,1,.13.23c3.2,5.64,6.22,11,9.38,16.33,7.06,12,16.54,11.33,21.57,9.89a18.34,18.34,0,0,0,12.21-10.48,19.83,19.83,0,0,0-1.18-17.11c-2.93-5.47-6-10.82-9.21-16.49-.16-.26-.31-.53-.46-.79,2.53-1.17,5-2.29,7.43-3.32,1.24,3.21,2.38,6.49,3.58,9.91,1.09,3.1,2.21,6.31,3.41,9.48,3.42,9,11.3,13.67,19.61,11.54,6.43-1.63,11.24-6.67,13.54-9.53,3.63-4.52,2.38-11.12,1.31-14.65-1.94-6.39-4.08-12.64-6.35-19.26l-.11-.3,8.37-2.34a1.55,1.55,0,0,0,0,.21c1,6.1,1.95,11.85,2.78,17.63,1,6.74,3.83,12,8.26,15.28a17.73,17.73,0,0,0,13.61,3.09,17.31,17.31,0,0,0,11.63-7.08c3.21-4.51,4.34-10.67,3.17-17.34-1.11-6.3-2-12.7-2.72-19.06,2.19-.26,4.43-.44,6.75-.63l1.37-.12,0,1.11a156.75,156.75,0,0,0,.17,17.71,43.18,43.18,0,0,0,2.62,10.49c.47,1.36.91,2.64,1.26,3.86.11.4.23.81.36,1.22s.2.63.27.89C1112.26,744.43,1024.51,832,916,848.22Z"/><path class="cls-2" d="M1516.42,1001.18V188H233.79v813.15H638.88v58.64H551.77v35.5h646.67v-35.5h-87.11v-58.64ZM310.79,269.07H1439.42V920.14H310.79Z"/></svg>