<?xml version="1.0" encoding="utf-8"?>
<!-- Generator: Adobe Illustrator 23.0.0, SVG Export Plug-In . SVG Version: 6.00 Build 0)  -->
<svg version="1.1" id="Layer_1" xmlns="http://www.w3.org/2000/svg" xmlns:xlink="http://www.w3.org/1999/xlink" x="0px" y="0px"
	 viewBox="0 0 1764.1 1266.1" style="enable-background:new 0 0 1764.1 1266.1;" xml:space="preserve">
<style type="text/css">
	.st0{fill:#582841;}
	.st1{fill:#FFFFFF;}
</style>
<title>realtime_logo</title>
<rect class="st0" width="1764.1" height="1266.1"/>
<path class="st1" d="M809.9,451.4h270.5c16.6,0,30.1,13.5,30.1,30v0c0,16.6-13.5,30-30.1,30H809.9c-16.6,0-30-13.5-30-30v0
	C779.9,464.8,793.3,451.4,809.9,451.4z"/>
<path class="st1" d="M809.9,544.7h270.5c16.6,0,30.1,13.5,30.1,30v0c0,16.6-13.5,30-30.1,30H809.9c-16.6,0-30-13.5-30-30v0
	C779.9,558.2,793.3,544.7,809.9,544.7z"/>
<path class="st1" d="M809.9,638.1h270.5c16.6,0,30.1,13.5,30.1,30v0c0,16.6-13.5,30-30.1,30H809.9c-16.6,0-30-13.5-30-30v0
	C779.9,651.5,793.3,638.1,809.9,638.1z"/>
<path class="st1" d="M809.9,731.4h270.5c16.6,0,30.1,13.5,30.1,30v0c0,16.6-13.5,30-30.1,30H809.9c-16.6,0-30-13.5-30-30v0
	C779.9,744.8,793.3,731.4,809.9,731.4z"/>
<path class="st1" d="M540.3,455.2c-98.2,0-177.8,79.6-177.8,177.8S442,810.9,540.2,810.9c98.2,0,177.8-79.6,177.8-177.8c0,0,0,0,0,0
	C718,534.8,638.4,455.2,540.3,455.2z M550.8,633c0,5.8-4.7,10.5-10.5,10.5l0,0h-102c-5.8,0-10.5-4.7-10.5-10.5s4.7-10.5,10.5-10.5
	h91.5V494.4c0-5.8,4.7-10.5,10.5-10.5s10.5,4.7,10.5,10.5L550.8,633z"/>
<path class="st1" d="M1503.8,449.5c3.4,0.8,6.8,1.5,10.1,2.4c12.1,3.2,22.1,9.9,30.9,18.5c4.6,4.4,9,9.1,13.7,13.4
	c14.2,12.9,31.5,14.1,46.8,2.5c7.4-5.7,13.7-12.9,20.4-19.5c1.4-1.3,2.5-2.9,4.1-4.7l23.3,19.4c-19.2,22.5-38.6,43.6-71.3,42.8
	c-16.7-0.4-31.1-6.6-43.4-17.8c-5.5-5.1-10.7-10.6-16.3-15.6c-16.4-15-36.4-15.1-53.2-0.4c-5.2,4.5-10,9.5-15.2,14
	c-27.8,24.1-65,24-92.6-0.2c-4.7-4.1-9.2-8.4-13.7-12.8c-15.4-15.3-39.8-16.1-55.7,0.6c-4.3,4.5-8.8,8.9-13.4,13.1
	c-26.1,23.9-59.7,25.7-88,4.5c-4.6-3.5-8.9-7.3-12.9-11.4c-5.2-5.2-10-10.7-15.4-16.6l23.4-19.4c2.8,3.1,5.3,6.4,8.3,9.2
	c5.9,5.6,11.5,11.6,18.2,16.3c14,9.7,30.4,8.5,43.4-2.6c4.5-3.8,8.6-8.1,12.8-12.3c12.1-12.1,25.8-21,43.2-22.7
	c0.5-0.1,0.9-0.3,1.3-0.6h14.4c0.5,0.3,1.1,0.6,1.7,0.8c14.9,1.6,27.3,8.3,38.2,18.2c5.5,5,10.8,10.4,16.6,15.1
	c14,11.5,34.2,11.5,48.1,0c5-4,9.5-8.5,14.2-12.9c9.3-8.5,19.4-15.6,31.8-18.8c3.5-0.9,7.1-1.6,10.7-2.4L1503.8,449.5z"/>
<path class="st1" d="M1653.6,736.8c-1.6,1.5-3.1,3.1-4.7,4.6c-8.5,8.2-16.4,17.3-25.8,24.2c-26.3,19.4-58.5,17.7-83.4-3.5
	c-5.3-4.6-10.4-9.5-15.2-14.7c-16.6-17.8-41.4-16.7-57.2-0.8c-5.5,5.6-11.3,10.8-17.5,15.7c-24.6,19.6-59.3,19.6-84,0.2
	c-6.9-5.4-13.1-11.7-19.6-17.6c-10.7-9.8-23.3-13-36.9-8.8c-6.4,2-12.2,6.7-17.6,11c-5.7,4.5-10.4,10.4-16,15.1
	c-25.2,21.3-57.4,22.8-83.8,2.8c-10.7-8.1-19.8-18.4-30.2-28.2l24.1-20c3.3,3.7,6.3,7.5,9.7,10.7c5.3,5.1,10.5,10.4,16.5,14.6
	c14.5,10,31,8.7,44.1-2.9c5.9-5.2,11.2-10.9,17-16.2c27.5-25.1,65-25.5,93.1-1c5.3,4.6,10.2,9.7,15.5,14.3
	c15.8,13.7,35.9,13.9,51.9,0.5c5.6-4.7,10.8-10,16.3-14.9c28.4-24.7,66.2-24,93.8,1.8c4.8,4.5,9.2,9.3,14,13.8
	c15.3,14.2,33.1,15.3,49.4,2.3c8.3-6.7,15.4-14.8,23.3-22.4l22.9,18.5L1653.6,736.8z"/>
<path class="st1" d="M1653.6,609.5c-3.9,4.2-7.6,8.6-11.8,12.4c-7.9,7-15.4,14.6-24.3,20.1c-23.9,15-53.3,12.7-75.2-5.1
	c-7.8-6.3-14.7-13.8-22.1-20.5c-10.1-9.2-22.3-11.4-34.9-7.6c-6.2,1.8-11.8,6.1-17.1,10.1c-5.8,4.4-10.7,10.1-16.4,14.7
	c-27.1,22.1-63.1,21.6-89.6-1.2c-5-4.3-9.8-8.8-14.4-13.4c-15.6-15.5-40.1-16.2-56.1,0.7c-4.9,5.3-10.1,10.3-15.5,15
	c-25.3,21.7-57.6,23.2-84.1,3.2c-10.7-8.1-19.8-18.4-30.2-28.1c8.7-7.2,16.2-13.5,24.2-20.1c2.9,3.2,5.4,6.5,8.4,9.3
	c6.2,5.8,12.1,12,19,16.7c13.7,9.2,29.7,7.8,42.1-3c5.8-5,11-10.7,16.7-15.9c28.8-26.7,66.9-26.8,96-0.4c4.7,4.3,9.2,8.9,14.1,13
	c15.7,13.4,35.8,13.5,51.6,0.2c5.4-4.5,10.3-9.6,15.6-14.3c28.9-25.4,66.8-24.9,94.9,1.5c4.9,4.6,9.4,9.6,14.4,14.1
	c14.6,13.3,31.9,14.5,47.5,2.4c8.8-6.8,16.3-15.3,24.6-23.2l22.9,18.4V609.5z"/>
<path class="st1" d="M359.3,275.8c0-3.8,0.6-8.3-1.1-11.3c-6.1-10.7-4.7-22.2-4.8-33.6c-0.1-19.2,0-38.3-0.1-57.5c0-3.2,0.5-7-1-9.3
	c-2-3.1-5.7-7.1-8.7-7.1s-6.8,3.9-8.6,7.1c-1.6,2.7-1,6.8-1,10.3c-0.1,23.6,0,47.2-0.1,70.9c0,4-1,8.1-1.8,12.1
	c-1.3,6.5-3.8,12.9-3.9,19.3c-0.1,13.4-0.2,26.8-0.2,40.2h31.4C359.3,303.3,359.3,289.5,359.3,275.8z"/>
<path class="st1" d="M1223.1,360.2c0-7.5-2-14.9-5.8-21.3l-0.1-0.1c-1.8-3-4-5.7-6.5-8.2c-9.2-8.8-21.5-13.7-34.2-13.6H287.1
	c-7.6,0-15,2.1-21.4,6.1c-13.1,8.1-20.9,18.9-21,35.4c-0.4,151.3-1.3,302.5-1.6,453.8c-0.1,34.8,1,69.6,2,104.4
	c0.1,4.9,2.2,10.1,4.6,14.4c5.9,10.3,15.1,17.2,25.8,22c2.3,1,5.2,1,7.8,1c71,0.1,142,0.3,212.9,0.3c51,0.1,102,0.3,153,0.6
	c6.8,0,7,0.1,7,7c0,30,0,60,0,90c0,6.8-0.2,7-7,7c-40.8,0-81.6,0-122.5,0c-2.2,0-4.4-0.3-6.5,0.3c-1.3,0.4-3.2,2.1-3.3,3.2
	c0,13.8,0,27.5,0.1,41.2c0,9.5,7.7,17.2,17.2,17.3h400.4c8.5,0,15.4-6.9,15.4-15.4c0-13.9,0-27.7,0.2-41.6c0.1-5.3-3.3-4.9-6.6-4.9
	h-98c-9.5,0-19,0-28.5,0c-6.7,0-6.8-0.2-6.8-6.6c0-30.3,0.1-60.6-0.1-91c0-5.1,1.6-6.6,6.6-6.5c34.5,0,69-0.2,103.5-0.3
	c87.5-0.2,174.9-0.4,262.4-0.5c5.2,0,10.2-1.4,14.6-4.2c15.7-9.5,26-22.2,25.2-41.7c0.1-2.1,0.3-4.3,0.6-6.4L1223.1,360.2z
	 M1154.1,892.7h-841c-7.9,0-7.9,0-7.9-8c0-165.8,0-331.6,0-497.5c0-8.3,0-8.4,8.2-8.4h840.5c7.9,0,7.9,0,7.9,8.1c0,166,0,332,0,498
	C1161.8,892.7,1161.8,892.7,1154.1,892.7L1154.1,892.7z"/>
<path class="st1" d="M275.3,228.8c5.6-3.3,2.8-8.6-1-12.7c-0.5-0.5-1-1.1-1.5-1.6c-17.5-20.9-24.1-44.6-18.8-71.3
	c3-15.5,10.8-28.4,20.5-40.7c0.2-0.3,0.4-0.6,0.6-1c2.4-5-2.3-10.5-7.7-9.4c-1.2,0.2-2.4,0.6-3.6,1c-2.4,0.9-4.1,3.9-5.9,6.2
	c-10.5,13.9-17.4,29.2-19.9,46c-1,6.9-1.1,13.8-0.3,20.7c0.5,5.6,1.2,11.1,2.3,16.6c3.6,16.7,11.9,31.9,24,43.9
	C266.3,229,272.7,230.3,275.3,228.8z"/>
<path class="st1" d="M412.5,102.2c0.9,2.8,3.8,5,5.7,7.6c21.9,29.2,22.6,67.5,1.7,97.5c-2.5,3.7-6.4,6.6-8.1,10.6
	c-0.1,0.2-0.2,0.4-0.3,0.7c-1.7,5.2,3,10.3,8.4,9.6c0.8-0.1,1.6-0.2,2.4-0.4c1.3-0.3,2.3-2.1,3.3-3.3c15.9-18.7,24.5-40.2,24.1-58.6
	c0-32.2-8.7-54.6-26.8-72.9c-0.5-0.5-1.1-0.8-1.7-1.1c-5.1-2-10.3,2.6-9.4,8C412,100.6,412.2,101.4,412.5,102.2z"/>
<path class="st1" d="M281.8,203.4c3.3,3.8,7,8.8,12.7,4.6c6.2-4.7,2.1-9.4-1.3-13.9c-17.3-23-17.1-46.3,0.6-69.3
	c3.3-4.3,6.6-8.9,1-13.2c-5.4-4.2-9.5-0.1-13,3.9c-11.1,12.9-16.2,28-16.1,44.9C265.6,176.3,271.4,191.6,281.8,203.4z"/>
<path class="st1" d="M392.8,123.7c17.7,19.2,18.8,50.3,0,71.8c-3.5,4-5.7,9.1-0.3,12.1c2.5,1.4,8.8-0.3,11.2-2.8
	c6.1-6,10.7-13.2,13.5-21.3c3.5-10.1,4.7-20.9,3.5-31.6c-1.8-15.8-7.3-27.5-16.7-37.4c-0.8-0.7-1.7-1.2-2.8-1.5
	c-5.5-1.4-10.8,3.4-9.2,8.9C392.1,122.6,392.4,123.2,392.8,123.7z"/>
<path class="st1" d="M296.5,172.3c1,4.5,3.6,8.2,6,11.9c0.6,0.8,1.5,1.4,2.5,1.7c5.4,2.1,11.2-2.5,10-8.1c-0.1-0.6-0.3-1.1-0.6-1.6
	c-6.2-10.4-6.6-19.9,0.2-30.4c0.4-0.6,0.6-1.2,0.6-1.8c0.5-4.1-2.4-7.8-6.5-8.3c-1.3-0.1-2.5,0-3.7,0.5c-0.8,0.3-1.5,0.8-2,1.5
	c-2.5,3.9-5.3,7.8-6.3,12.5C294.6,159.8,294.4,163.2,296.5,172.3z"/>
<path class="st1" d="M372.9,146.8c4.3,7.6,4.7,16.8,1.3,24.8c-0.7,1.6-1.3,3.3-1.8,5.1c0,0.2-0.1,0.3-0.1,0.5
	c-1.4,6.1,4.9,11.5,10.5,8.8c0.5-0.3,1-0.6,1.4-1c11.4-11.5,11.9-34,1-46.4c-2.5-2.8-6.2-8.3-11.7-3.9c-4.6,3.6-3.2,7.6-0.6,12.1
	L372.9,146.8z"/>
</svg>
