<svg id="Layer_1" data-name="Layer 1" xmlns="http://www.w3.org/2000/svg" viewBox="0 0 1764.06 1266.07"><defs><style>.cls-1{fill:#582841;}.cls-2{fill:#fff;}</style></defs><title>step-by-step</title><rect class="cls-1" width="1764.06" height="1266.07"/><path class="cls-2" d="M432.53,325.75c-118.19,0-214,95.82-214,214s95.82,214,214,214,214-95.81,214-214S550.73,325.75,432.53,325.75Zm1,302.25a88.24,88.24,0,1,1,88.25-88.24A88.24,88.24,0,0,1,433.57,628Z"/><circle class="cls-2" cx="432.53" cy="539.78" r="52.88"/><circle class="cls-2" cx="295.2" cy="1071.87" r="78.25"/><circle class="cls-2" cx="882.03" cy="1071.87" r="78.25"/><path class="cls-2" d="M1408.45,1042.72H266.05V1101h1142.4a78.28,78.28,0,0,1,0-58.3Z"/><path class="cls-2" d="M1481.06,993.62a78.25,78.25,0,0,0-72.61,49.1H1436a53.7,53.7,0,1,1,0,58.3h-27.53a78.25,78.25,0,1,0,72.61-107.4Z"/><path class="cls-2" d="M1427.37,1071.87a53.41,53.41,0,0,1,8.61-29.15h-27.53a78.28,78.28,0,0,0,0,58.3H1436A53.43,53.43,0,0,1,1427.37,1071.87Z"/><path class="cls-2" d="M1367.88,355.11l-186.5-.07-.15,369.32,302.55.12.1-253.29-116,0Zm71.56,318.5-213.83-.09V642l213.84.09Zm0-67.62-213.84-.09V574.4l213.83.09Zm0-99.12v31.5l-213.83-.09v-31.5Z"/><polygon class="cls-2" points="1392.63 355.12 1392.59 446.41 1483.88 446.45 1392.63 355.12"/><path class="cls-2" d="M1001.07,534.76l-63.72-71.27a7.46,7.46,0,0,0-5.59-2.51h0a7.55,7.55,0,0,0-5.61,2.57l-13.4,15.31a7.51,7.51,0,0,0,0,9.93l29.42,32.9H768.58a7.5,7.5,0,0,0-7.5,7.5v21.3a7.5,7.5,0,0,0,7.5,7.5H942.49L913,591a7.5,7.5,0,0,0,0,9.94L926.14,616a7.57,7.57,0,0,0,5.61,2.56h0a7.5,7.5,0,0,0,5.59-2.51l63.73-71.28A7.51,7.51,0,0,0,1001.07,534.76Z"/></svg>