<svg id="Layer_1" data-name="Layer 1" xmlns="http://www.w3.org/2000/svg" viewBox="0 0 1764.06 1266.07"><defs><style>.cls-1{fill:#582841;}.cls-2{fill:#fff;}.cls-3{fill:none;stroke:#582841;stroke-miterlimit:10;stroke-width:30px;}</style></defs><title>translate</title><rect class="cls-1" width="1764.06" height="1266.07"/><polygon class="cls-2" points="495.23 420.08 279.89 418.72 277.18 845.13 626.5 847.35 628.36 554.91 494.39 554.06 495.23 420.08"/><polygon class="cls-2" points="523.8 420.26 523.13 525.67 628.53 526.34 523.8 420.26"/><path class="cls-1" d="M381.92,650.89h57.62q-2.13-7-5.79-17.37l21.09-4.27Q460,643,462.7,650.89h52.51V669.5H494.75q-10.41,31.29-30,52.86Q486,737,517.14,744.76,505.71,758.68,502,765q-31.5-10.54-53.48-27.84-22.12,16.67-54.31,28.67a215.61,215.61,0,0,0-13.78-20q30.94-9.65,51.82-23.85-19.85-22.12-28.11-52.51h-22.2Zm89.39,18.61h-45.9a97.3,97.3,0,0,0,23,39.07A94.51,94.51,0,0,0,471.31,669.5Z"/><rect class="cls-3" x="337.97" y="586.74" width="221.61" height="221.61"/><polygon class="cls-2" points="1353.57 420.08 1138.23 418.72 1135.53 845.13 1484.85 847.35 1486.7 554.91 1352.73 554.06 1353.57 420.08"/><polygon class="cls-2" points="1382.14 420.26 1381.47 525.67 1486.88 526.34 1382.14 420.26"/><path class="cls-1" d="M1376.48,768.5h-33L1332.87,736h-51.58l-10.44,32.52h-32.8l52-141.91h35.54Zm-50.76-55.88-16.12-49.2a54.63,54.63,0,0,1-2.2-12.37h-.82a52,52,0,0,1-2.48,12l-16.21,49.57Z"/><rect class="cls-3" x="1196.46" y="586.74" width="221.61" height="221.61"/><path class="cls-2" d="M987.78,628l-63.72-71.27a7.48,7.48,0,0,0-5.59-2.51h0a7.55,7.55,0,0,0-5.61,2.57L899.46,572.1a7.5,7.5,0,0,0,0,9.93l29.42,32.9H755.29a7.5,7.5,0,0,0-7.5,7.5v21.3a7.5,7.5,0,0,0,7.5,7.5H929.2l-29.53,33a7.49,7.49,0,0,0,0,9.94l13.18,15.06a7.57,7.57,0,0,0,5.61,2.56h0a7.49,7.49,0,0,0,5.59-2.51L987.78,638A7.51,7.51,0,0,0,987.78,628Z"/></svg>