<svg id="Layer_1" data-name="Layer 1" xmlns="http://www.w3.org/2000/svg" viewBox="0 0 1764.06 1266.07"><defs><style>.cls-1{fill:#582841;}.cls-2{fill:#fff;}</style></defs><title>tvsamples</title><rect class="cls-1" width="1764.06" height="1266.07"/><path class="cls-2" d="M1516.42,983.43V205.78A17.75,17.75,0,0,0,1498.67,188H251.54a17.75,17.75,0,0,0-17.75,17.75V983.43a17.75,17.75,0,0,0,17.75,17.75H621.13a17.75,17.75,0,0,1,17.75,17.75v23.14a17.75,17.75,0,0,1-17.75,17.75H569.52a17.75,17.75,0,0,0-17.75,17.75h0a17.75,17.75,0,0,0,17.75,17.75h611.17a17.75,17.75,0,0,0,17.75-17.75h0a17.75,17.75,0,0,0-17.75-17.75h-51.61a17.75,17.75,0,0,1-17.75-17.75v-23.14a17.75,17.75,0,0,1,17.75-17.75h369.59A17.75,17.75,0,0,0,1516.42,983.43ZM328.54,269.07H1421.67a17.75,17.75,0,0,1,17.75,17.75V902.39a17.75,17.75,0,0,1-17.75,17.75H328.54a17.75,17.75,0,0,1-17.75-17.75V286.82A17.75,17.75,0,0,1,328.54,269.07Z"/><path class="cls-2" d="M1046,337.5H664.18V851.72H1046V553l40-40V337.5ZM769.69,716.33V472.88L980.52,594.61Z"/></svg>