<svg id="Layer_1" data-name="Layer 1" xmlns="http://www.w3.org/2000/svg" viewBox="0 0 1764.06 1266.07"><defs><style>.cls-1{fill:#582841;}.cls-2{fill:#fff;}.cls-3{fill:none;}</style></defs><title>windows_gui</title><rect class="cls-1" width="1764.06" height="1266.07"/><path class="cls-2" d="M1064.09,555.18c0,30.51-.13,61,.11,91.53,0,6.33-1.84,9.48-8.47,8.64a5,5,0,0,0-.67,0q-104.38.64-208.75,1.27c-10.21.06-10.24,0-10.24-10.14q0-74.24,0-148.48c0-9.52.42-9.77,9.5-11.1q93.84-13.81,187.64-27.75c7.6-1.13,15.24-2,22.78-3.41,6.26-1.19,8.29.75,8.23,7.24C1063.94,493.71,1064.09,524.45,1064.09,555.18Z"/><path class="cls-2" d="M1064.09,775.69c0,30.28-.15,60.55.13,90.82.06,6.46-1.89,8.18-8.22,7.27-46.47-6.7-93-13.14-139.46-19.67-24.15-3.39-48.26-7-72.44-10.05-5.94-.76-8.13-3.07-8.11-9q.21-76.24,0-152.49c0-6.2,2.36-8.36,8.42-8.31q106.37.76,212.74,1.2c6.07,0,7,3.06,7,8.09C1064,714.24,1064.09,745,1064.09,775.69Z"/><path class="cls-2" d="M732,674.21q38.64,0,77.3,0c8.19,0,9,.82,9,8.86q.06,74.25,0,148.5c0,7.9-1.13,8.72-8.66,7.66Q733.92,828.6,658.1,818c-2-.28-4-.88-6-1-4.66-.24-6.12-2.77-6.05-7.13.15-9.49,0-19,0-28.48q0-47.8,0-95.61c0-11.71,0-11.71,12-11.71H732Z"/><path class="cls-2" d="M731.29,656.76c-25.54,0-51.08-.16-76.62.11-6.38.07-8.74-1.91-8.7-8.49q.33-62,0-124.08c0-5.81,1.74-8.25,7.87-9.13,50.74-7.29,101.42-14.95,152.13-22.5,12.4-1.85,12.41-1.85,12.41,10.75q0,71.19,0,142.38c0,10.47-.29,10.83-10.51,10.85-25.54.06-51.07,0-76.61,0Z"/><rect class="cls-3" x="241.12" y="319.07" width="1281.82" height="789.47"/><path class="cls-2" d="M221.12,137.53v991H1542.94v-991Zm1213.64,41.08h76.58v76.58h-76.58Zm-109.38,0H1402v76.58h-76.58Zm-109.37,0h76.58v76.58H1216Zm306.93,929.93H241.12V319.07H1522.94Z"/></svg>